<svg width="24" height="16" viewBox="0 0 24 16" fill="none" xmlns="http://www.w3.org/2000/svg">
<path d="M0 16.001H24V0.00097847H0V16.001ZM2.179 8.02486L11.986 1.67959L21.821 8.00794L12.046 14.3224L2.179 8.02486Z" fill="#1D9253"/>
<mask id="mask0_2_546" style="mask-type:luminance" maskUnits="userSpaceOnUse" x="0" y="0" width="24" height="17">
<path d="M0 16.001H24V0.00097847H0V16.001Z" fill="white"/>
</mask>
<g mask="url(#mask0_2_546)">
<path d="M8.03371 8.00096C8.03371 7.58703 8.09571 7.18902 8.20971 6.8129H8.20571C8.28071 6.5731 8.36971 6.35121 8.48071 6.13927H8.48271C9.16571 4.80693 10.5597 3.89251 12.1697 3.89251C14.4527 3.89251 16.3047 5.73231 16.3047 8.00096V8.01489C16.3047 8.29748 16.2747 8.5741 16.2197 8.84076C16.1767 9.06763 16.0957 9.31539 16.0337 9.47957L16.0327 9.47758C15.4347 11.0229 13.9277 12.1194 12.1617 12.1164C9.87871 12.1124 8.02971 10.2696 8.03371 8.00096ZM21.8227 8.00892L11.9867 1.67957L2.17871 8.02484L12.0457 14.3224L21.8227 8.00892Z" fill="#F6C931"/>
</g>
<mask id="mask1_2_546" style="mask-type:luminance" maskUnits="userSpaceOnUse" x="0" y="0" width="24" height="17">
<path d="M0 16.001H24V0.00097847H0V16.001Z" fill="white"/>
</mask>
<g mask="url(#mask1_2_546)">
<path d="M12.0996 9.818L12.2256 9.80308L12.2856 9.68964L12.3376 9.80706L12.4626 9.82994L12.3706 9.91651L12.3876 10.0449L12.2766 9.98119L12.1616 10.0379L12.1876 9.91154L12.0996 9.818ZM12.0376 9.36825L12.1106 9.36029L12.1446 9.29462L12.1756 9.36228L12.2466 9.37522L12.1936 9.42397L12.2036 9.4986L12.1406 9.46178L12.0746 9.49362L12.0886 9.42198L12.0376 9.36825ZM12.1496 8.52945L12.2186 8.39711L12.2796 8.53343L12.4236 8.5593L12.3166 8.66079L12.3356 8.80805L12.2076 8.73542L12.0766 8.80109L12.1056 8.65382L12.0026 8.54636L12.1496 8.52945ZM11.9156 9.16726L11.8286 9.1185L11.7416 9.16129L11.7616 9.06377L11.6926 8.99213L11.7906 8.98119L11.8366 8.89263L11.8776 8.98417L11.9746 9.00109L11.9016 9.06875L11.9156 9.16726ZM10.7886 8.25979L10.8096 8.40805L10.6826 8.33343L10.5496 8.3991L10.5786 8.25283L10.4756 8.14537L10.6236 8.12845L10.6926 7.99611L10.7536 8.13243L10.8986 8.1583L10.7886 8.25979ZM10.8096 10.4608L10.6826 10.3882L10.5496 10.4538L10.5786 10.3076L10.4756 10.1991L10.6216 10.1832L10.6926 10.0508L10.7536 10.1872L10.8986 10.212L10.7886 10.3145L10.8096 10.4608ZM10.0916 9.53641L10.0066 9.48765L9.91761 9.53044L9.93761 9.43293L9.86961 9.36129L9.96761 9.35034L10.0136 9.26178L10.0536 9.35333L10.1506 9.37024L10.0786 9.4379L10.0916 9.53641ZM9.92261 9.98616L9.83761 9.93741L9.74861 9.98119L9.76761 9.88268L9.70061 9.81104L9.79861 9.7991L9.84461 9.71153L9.88561 9.80208L9.98161 9.81999L9.90961 9.88666L9.92261 9.98616ZM9.61761 8.84984L9.56161 8.87671L9.57461 8.81601L9.53161 8.77024L9.59361 8.76328L9.62061 8.70855L9.64761 8.76527L9.70761 8.77621L9.66161 8.819L9.67161 8.88069L9.61761 8.84984ZM9.33461 9.22994L9.20661 9.15532L9.07361 9.22099L9.10361 9.07472L9.00161 8.96726L9.14761 8.95034L9.21661 8.818L9.27761 8.95432L9.42261 8.98019L9.31361 9.08168L9.33461 9.22994ZM8.79661 7.45979L8.66261 7.52547L8.69261 7.3792L8.59061 7.27074L8.73761 7.25482L8.80661 7.12248L8.86761 7.2588L9.01261 7.28467L8.90361 7.38616L8.92461 7.53343L8.79661 7.45979ZM8.73361 9.53641L8.64861 9.48765L8.55861 9.53044L8.57861 9.43293L8.51161 9.36129L8.60861 9.35034L8.65561 9.26178L8.69561 9.35333L8.79261 9.37024L8.72061 9.4379L8.73361 9.53641ZM13.2286 7.819L13.2766 7.72646L13.3196 7.82099L13.4196 7.83989L13.3446 7.90954L13.3586 8.01303L13.2696 7.96129L13.1776 8.00706L13.1986 7.90556L13.1256 7.82994L13.2286 7.819ZM14.2866 10.6588L14.3296 10.5782L14.3706 10.6618L14.4636 10.6777L14.3936 10.7394L14.4076 10.8299L14.3246 10.7852L14.2386 10.825L14.2566 10.7354L14.1916 10.6678L14.2866 10.6588ZM14.3126 10.218L14.3506 10.1454L14.3846 10.22L14.4636 10.2349L14.4046 10.2906L14.4146 10.3732L14.3456 10.3324L14.2716 10.3683L14.2876 10.2867L14.2316 10.227L14.3126 10.218ZM14.6436 10.221L14.6796 10.1533L14.7106 10.223L14.7866 10.2369L14.7306 10.2886L14.7406 10.3653L14.6736 10.3275L14.6066 10.3603L14.6206 10.2857L14.5686 10.2299L14.6436 10.221ZM14.9796 10.0966L15.0256 10.0081L15.0666 10.0996L15.1626 10.1165L15.0896 10.1842L15.1046 10.2827L15.0186 10.2339L14.9306 10.2777L14.9506 10.1792L14.8806 10.1076L14.9796 10.0966ZM15.0276 9.40606L15.0856 9.29462L15.1386 9.41004L15.2616 9.43193L15.1676 9.51751L15.1866 9.64387L15.0776 9.58119L14.9646 9.63591L14.9906 9.51253L14.9036 9.42099L15.0276 9.40606ZM15.5806 9.41601L15.6156 9.35034L15.6456 9.418L15.7176 9.43094L15.6626 9.48069L15.6736 9.55432L15.6106 9.51751L15.5436 9.55034L15.5596 9.4777L15.5076 9.42397L15.5806 9.41601ZM15.2086 9.92746L15.1406 9.89064L15.0686 9.92348L15.0826 9.84984L15.0286 9.79611L15.1086 9.78815L15.1456 9.72248L15.1796 9.79014L15.2576 9.80308L15.1996 9.85382L15.2086 9.92746ZM14.4126 11.1991L14.3356 11.1543L14.2576 11.1941L14.2756 11.1046L14.2146 11.0389L14.3016 11.028L14.3426 10.9474L14.3776 11.0309L14.4636 11.0469L14.4006 11.1085L14.4126 11.1991ZM13.7866 10.3653L13.7236 10.3285L13.6576 10.3603L13.6706 10.2886L13.6206 10.2349L13.6936 10.226L13.7276 10.1613L13.7576 10.2289L13.8286 10.2409L13.7766 10.2916L13.7866 10.3653ZM13.5806 11.1603L13.4536 11.0867L13.3216 11.1513L13.3506 11.0051L13.2476 10.8976L13.3946 10.8807L13.4626 10.7493L13.5246 10.8847L13.6686 10.9115L13.5616 11.012L13.5806 11.1603ZM13.1996 10.3653L13.1366 10.3285L13.0706 10.3603L13.0846 10.2886L13.0346 10.2349L13.1066 10.227L13.1416 10.1613L13.1706 10.2289L13.2436 10.2409L13.1896 10.2916L13.1996 10.3653ZM12.7426 9.16726L12.6576 9.1185L12.5686 9.16228L12.5876 9.06377L12.5196 8.99213L12.6176 8.98119L12.6626 8.89263L12.7036 8.98417L12.8016 9.00109L12.7286 9.06875L12.7426 9.16726ZM12.3146 11.2648L12.2606 11.2339L12.2046 11.2608L12.2176 11.2001L12.1736 11.1543L12.2356 11.1474L12.2656 11.0916L12.2896 11.1484L12.3516 11.1603L12.3066 11.2021L12.3146 11.2648ZM16.0316 9.4777C14.5586 8.0787 11.8716 6.46576 8.21061 6.81203C8.09661 7.18815 8.03461 7.58716 8.03461 8.00109C8.03061 10.2697 9.87861 12.1125 12.1616 12.1165C13.9276 12.1195 15.4346 11.023 16.0316 9.4777Z" fill="#2F4CA0"/>
</g>
<mask id="mask2_2_546" style="mask-type:luminance" maskUnits="userSpaceOnUse" x="0" y="0" width="24" height="17">
<path d="M0 16.001H24V0.00097847H0V16.001Z" fill="white"/>
</mask>
<g mask="url(#mask2_2_546)">
<path d="M13.4277 6.66286L13.4887 6.54645L13.5417 6.66684L13.6697 6.68973L13.5737 6.77829L13.5937 6.90963L13.4797 6.84495L13.3627 6.90266L13.3887 6.77232L13.2987 6.67779L13.4277 6.66286ZM16.2197 8.84097C16.2757 8.57431 16.3047 8.29769 16.3047 8.01411C16.3057 8.01013 16.3057 8.00515 16.3047 8.00117C16.3047 5.73152 14.4527 3.89271 12.1687 3.89271C10.5607 3.89271 9.1667 4.80615 8.4837 6.13948C11.5747 5.93749 14.0237 6.92157 16.2197 8.84097Z" fill="#2F4CA0"/>
</g>
<mask id="mask3_2_546" style="mask-type:luminance" maskUnits="userSpaceOnUse" x="0" y="0" width="24" height="17">
<path d="M0 16.001H24V0.00097847H0V16.001Z" fill="white"/>
</mask>
<g mask="url(#mask3_2_546)">
<path d="M10.7529 10.1863L10.6919 10.05L10.6229 10.1824L10.4769 10.2003L10.5789 10.3067L10.5489 10.454L10.6819 10.3883L10.8099 10.461L10.7899 10.3147L10.8979 10.2122L10.7529 10.1863Z" fill="#FFFEF0"/>
</g>
<mask id="mask4_2_546" style="mask-type:luminance" maskUnits="userSpaceOnUse" x="0" y="0" width="24" height="17">
<path d="M0 16.001H24V0.00097847H0V16.001Z" fill="white"/>
</mask>
<g mask="url(#mask4_2_546)">
<path d="M13.5244 10.8849L13.4634 10.7486L13.3944 10.881L13.2494 10.8979L13.3504 11.0053L13.3204 11.1516L13.4534 11.0869L13.5824 11.1596L13.5614 11.0113L13.6704 10.9108L13.5244 10.8849Z" fill="#FFFEF0"/>
</g>
<mask id="mask5_2_546" style="mask-type:luminance" maskUnits="userSpaceOnUse" x="0" y="0" width="24" height="17">
<path d="M0 16.001H24V0.00097847H0V16.001Z" fill="white"/>
</mask>
<g mask="url(#mask5_2_546)">
<path d="M12.2764 9.98127L12.3874 10.045L12.3694 9.91659L12.4634 9.83003L12.3384 9.80714L12.2854 9.68973L12.2254 9.80316L12.0994 9.81809L12.1874 9.91162L12.1634 10.038L12.2764 9.98127Z" fill="#FFFEF0"/>
</g>
<mask id="mask6_2_546" style="mask-type:luminance" maskUnits="userSpaceOnUse" x="0" y="0" width="24" height="17">
<path d="M0 16.001H24V0.00097847H0V16.001Z" fill="white"/>
</mask>
<g mask="url(#mask6_2_546)">
<path d="M14.9648 9.63628L15.0768 9.58056L15.1858 9.64325L15.1688 9.51788L15.2608 9.4323L15.1378 9.41041L15.0858 9.29499L15.0268 9.40643L14.9028 9.42136L14.9898 9.51191L14.9648 9.63628Z" fill="#FFFEF0"/>
</g>
<mask id="mask7_2_546" style="mask-type:luminance" maskUnits="userSpaceOnUse" x="0" y="0" width="24" height="17">
<path d="M0 16.001H24V0.00097847H0V16.001Z" fill="white"/>
</mask>
<g mask="url(#mask7_2_546)">
<path d="M12.0762 8.80069L12.2082 8.73502L12.3362 8.80865L12.3152 8.6604L12.4252 8.5599L12.2802 8.53303L12.2192 8.39771L12.1482 8.53005L12.0032 8.54696L12.1042 8.65443L12.0762 8.80069Z" fill="#FFFEF0"/>
</g>
<mask id="mask8_2_546" style="mask-type:luminance" maskUnits="userSpaceOnUse" x="0" y="0" width="24" height="17">
<path d="M0 16.001H24V0.00097847H0V16.001Z" fill="white"/>
</mask>
<g mask="url(#mask8_2_546)">
<path d="M9.01221 7.28475L8.86621 7.25888L8.80621 7.12256L8.73721 7.2549L8.59021 7.27082L8.69221 7.37928L8.66321 7.52555L8.79621 7.45988L8.92421 7.53351L8.90321 7.38624L9.01221 7.28475Z" fill="#FFFEF0"/>
</g>
<mask id="mask9_2_546" style="mask-type:luminance" maskUnits="userSpaceOnUse" x="0" y="0" width="24" height="17">
<path d="M0 16.001H24V0.00097847H0V16.001Z" fill="white"/>
</mask>
<g mask="url(#mask9_2_546)">
<path d="M9.27731 8.95421L9.21631 8.81789L9.14731 8.95023L9.00131 8.96714L9.10331 9.0746L9.07331 9.22187L9.20631 9.1562L9.33431 9.22983L9.31331 9.08157L9.42231 8.98008L9.27731 8.95421Z" fill="#FFFEF0"/>
</g>
<mask id="mask10_2_546" style="mask-type:luminance" maskUnits="userSpaceOnUse" x="0" y="0" width="24" height="17">
<path d="M0 16.001H24V0.00097847H0V16.001Z" fill="white"/>
</mask>
<g mask="url(#mask10_2_546)">
<path d="M13.3623 6.90246L13.4793 6.84475L13.5923 6.90942L13.5743 6.77808L13.6713 6.68952L13.5433 6.66664L13.4883 6.54624L13.4273 6.66266L13.2993 6.67758L13.3883 6.77311L13.3623 6.90246Z" fill="#FFFEF0"/>
</g>
<mask id="mask11_2_546" style="mask-type:luminance" maskUnits="userSpaceOnUse" x="0" y="0" width="24" height="17">
<path d="M0 16.001H24V0.00097847H0V16.001Z" fill="white"/>
</mask>
<g mask="url(#mask11_2_546)">
<path d="M13.1777 8.00676L13.2697 7.96198L13.3587 8.01273L13.3447 7.90924L13.4197 7.83959L13.3197 7.82069L13.2767 7.72715L13.2287 7.8187L13.1257 7.83064L13.1987 7.90526L13.1777 8.00676Z" fill="#FFFEF0"/>
</g>
<mask id="mask12_2_546" style="mask-type:luminance" maskUnits="userSpaceOnUse" x="0" y="0" width="24" height="17">
<path d="M0 16.001H24V0.00097847H0V16.001Z" fill="white"/>
</mask>
<g mask="url(#mask12_2_546)">
<path d="M15.1787 9.78984L15.1457 9.72218L15.1077 9.78785L15.0297 9.79581L15.0837 9.85054L15.0687 9.92317L15.1397 9.89034L15.2097 9.92715L15.1997 9.85352L15.2577 9.80278L15.1787 9.78984Z" fill="#FFFEF0"/>
</g>
<mask id="mask13_2_546" style="mask-type:luminance" maskUnits="userSpaceOnUse" x="0" y="0" width="24" height="17">
<path d="M0 16.001H24V0.00097847H0V16.001Z" fill="white"/>
</mask>
<g mask="url(#mask13_2_546)">
<path d="M8.69531 9.35261L8.65431 9.26207L8.60831 9.34963L8.51031 9.36157L8.57931 9.43321L8.55931 9.53172L8.64831 9.48794L8.73331 9.53769L8.71931 9.43719L8.79231 9.37152L8.69531 9.35261Z" fill="#FFFEF0"/>
</g>
<mask id="mask14_2_546" style="mask-type:luminance" maskUnits="userSpaceOnUse" x="0" y="0" width="24" height="17">
<path d="M0 16.001H24V0.00097847H0V16.001Z" fill="white"/>
</mask>
<g mask="url(#mask14_2_546)">
<path d="M10.0532 9.35261L10.0122 9.26207L9.96719 9.34963L9.86819 9.36157L9.93719 9.43321L9.91719 9.53172L10.0062 9.48794L10.0912 9.53769L10.0772 9.43719L10.1502 9.37053L10.0532 9.35261Z" fill="#FFFEF0"/>
</g>
<mask id="mask15_2_546" style="mask-type:luminance" maskUnits="userSpaceOnUse" x="0" y="0" width="24" height="17">
<path d="M0 16.001H24V0.00097847H0V16.001Z" fill="white"/>
</mask>
<g mask="url(#mask15_2_546)">
<path d="M9.8848 9.80246L9.8438 9.71191L9.7978 9.79948L9.6998 9.81042L9.7688 9.88306L9.7488 9.98057L9.8378 9.93679L9.9228 9.98654L9.9088 9.88704L9.9818 9.82037L9.8848 9.80246Z" fill="#FFFEF0"/>
</g>
<mask id="mask16_2_546" style="mask-type:luminance" maskUnits="userSpaceOnUse" x="0" y="0" width="24" height="17">
<path d="M0 16.001H24V0.00097847H0V16.001Z" fill="white"/>
</mask>
<g mask="url(#mask16_2_546)">
<path d="M12.7041 8.98386L12.6631 8.89331L12.6171 8.98187L12.5191 8.99281L12.5881 9.06446L12.5681 9.16197L12.6571 9.11819L12.7421 9.16794L12.7281 9.06744L12.8021 9.00177L12.7041 8.98386Z" fill="#FFFEF0"/>
</g>
<mask id="mask17_2_546" style="mask-type:luminance" maskUnits="userSpaceOnUse" x="0" y="0" width="24" height="17">
<path d="M0 16.001H24V0.00097847H0V16.001Z" fill="white"/>
</mask>
<g mask="url(#mask17_2_546)">
<path d="M11.8774 8.98386L11.8364 8.89331L11.7904 8.98087L11.6924 8.99182L11.7614 9.06446L11.7414 9.16197L11.8294 9.11819L11.9154 9.16794L11.9014 9.06744L11.9744 9.00177L11.8774 8.98386Z" fill="#FFFEF0"/>
</g>
<mask id="mask18_2_546" style="mask-type:luminance" maskUnits="userSpaceOnUse" x="0" y="0" width="24" height="17">
<path d="M0 16.001H24V0.00097847H0V16.001Z" fill="white"/>
</mask>
<g mask="url(#mask18_2_546)">
<path d="M9.70749 8.7764L9.64649 8.76545L9.62149 8.70874L9.59249 8.76346L9.53149 8.77043L9.57449 8.8162L9.56149 8.8769L9.61649 8.85003L9.67049 8.87988L9.66249 8.81819L9.70749 8.7764Z" fill="#FFFEF0"/>
</g>
<mask id="mask19_2_546" style="mask-type:luminance" maskUnits="userSpaceOnUse" x="0" y="0" width="24" height="17">
<path d="M0 16.001H24V0.00097847H0V16.001Z" fill="white"/>
</mask>
<g mask="url(#mask19_2_546)">
<path d="M14.9307 10.2776L15.0187 10.2338L15.1047 10.2826L15.0907 10.1841L15.1627 10.1164L15.0667 10.0995L15.0257 10.0079L14.9797 10.0965L14.8817 10.1074L14.9507 10.1791L14.9307 10.2776Z" fill="#FFFEF0"/>
</g>
<mask id="mask20_2_546" style="mask-type:luminance" maskUnits="userSpaceOnUse" x="0" y="0" width="24" height="17">
<path d="M0 16.001H24V0.00097847H0V16.001Z" fill="white"/>
</mask>
<g mask="url(#mask20_2_546)">
<path d="M14.2715 10.368L14.3445 10.3322L14.4155 10.373L14.4045 10.2904L14.4635 10.2347L14.3835 10.2208L14.3505 10.1452L14.3125 10.2178L14.2315 10.2267L14.2885 10.2864L14.2715 10.368Z" fill="#FFFEF0"/>
</g>
<mask id="mask21_2_546" style="mask-type:luminance" maskUnits="userSpaceOnUse" x="0" y="0" width="24" height="17">
<path d="M0 16.001H24V0.00097847H0V16.001Z" fill="white"/>
</mask>
<g mask="url(#mask21_2_546)">
<path d="M14.6064 10.3603L14.6734 10.3275L14.7404 10.3653L14.7304 10.2896L14.7864 10.2359L14.7104 10.223L14.6794 10.1533L14.6444 10.221L14.5684 10.2299L14.6214 10.2857L14.6064 10.3603Z" fill="#FFFEF0"/>
</g>
<mask id="mask22_2_546" style="mask-type:luminance" maskUnits="userSpaceOnUse" x="0" y="0" width="24" height="17">
<path d="M0 16.001H24V0.00097847H0V16.001Z" fill="white"/>
</mask>
<g mask="url(#mask22_2_546)">
<path d="M15.5449 9.55083L15.6099 9.51799L15.6739 9.55481L15.6639 9.48118L15.7179 9.43143L15.6459 9.4175L15.6149 9.35083L15.5819 9.41551L15.5089 9.42446L15.5599 9.47819L15.5449 9.55083Z" fill="#FFFEF0"/>
</g>
<mask id="mask23_2_546" style="mask-type:luminance" maskUnits="userSpaceOnUse" x="0" y="0" width="24" height="17">
<path d="M0 16.001H24V0.00097847H0V16.001Z" fill="white"/>
</mask>
<g mask="url(#mask23_2_546)">
<path d="M14.2383 10.8247L14.3233 10.784L14.4073 10.8307L14.3933 10.7392L14.4653 10.6785L14.3703 10.6606L14.3303 10.579L14.2853 10.6586L14.1913 10.6695L14.2583 10.7352L14.2383 10.8247Z" fill="#FFFEF0"/>
</g>
<mask id="mask24_2_546" style="mask-type:luminance" maskUnits="userSpaceOnUse" x="0" y="0" width="24" height="17">
<path d="M0 16.001H24V0.00097847H0V16.001Z" fill="white"/>
</mask>
<g mask="url(#mask24_2_546)">
<path d="M14.3789 11.0307L14.3429 10.9481L14.3019 11.0287L14.2149 11.0387L14.2749 11.1044L14.2579 11.1949L14.3369 11.1541L14.4129 11.1989L14.3999 11.1083L14.4639 11.0466L14.3789 11.0307Z" fill="#FFFEF0"/>
</g>
<mask id="mask25_2_546" style="mask-type:luminance" maskUnits="userSpaceOnUse" x="0" y="0" width="24" height="17">
<path d="M0 16.001H24V0.00097847H0V16.001Z" fill="white"/>
</mask>
<g mask="url(#mask25_2_546)">
<path d="M13.7578 10.228L13.7278 10.1614L13.6948 10.2261L13.6208 10.235L13.6718 10.2887L13.6568 10.3614L13.7228 10.3295L13.7858 10.3654L13.7768 10.2907L13.8298 10.242L13.7578 10.228Z" fill="#FFFEF0"/>
</g>
<mask id="mask26_2_546" style="mask-type:luminance" maskUnits="userSpaceOnUse" x="0" y="0" width="24" height="17">
<path d="M0 16.001H24V0.00097847H0V16.001Z" fill="white"/>
</mask>
<g mask="url(#mask26_2_546)">
<path d="M13.1719 10.228L13.1419 10.1614L13.1069 10.2261L13.0329 10.235L13.0859 10.2887L13.0689 10.3614L13.1359 10.3295L13.1989 10.3654L13.1899 10.2907L13.2429 10.242L13.1719 10.228Z" fill="#FFFEF0"/>
</g>
<mask id="mask27_2_546" style="mask-type:luminance" maskUnits="userSpaceOnUse" x="0" y="0" width="24" height="17">
<path d="M0 16.001H24V0.00097847H0V16.001Z" fill="white"/>
</mask>
<g mask="url(#mask27_2_546)">
<path d="M12.1396 9.46138L12.2026 9.4982L12.1936 9.42556L12.2466 9.37482L12.1756 9.36089L12.1446 9.29422L12.1106 9.3589L12.0376 9.36785L12.0886 9.42059L12.0746 9.49322L12.1396 9.46138Z" fill="#FFFEF0"/>
</g>
<mask id="mask28_2_546" style="mask-type:luminance" maskUnits="userSpaceOnUse" x="0" y="0" width="24" height="17">
<path d="M0 16.001H24V0.00097847H0V16.001Z" fill="white"/>
</mask>
<g mask="url(#mask28_2_546)">
<path d="M12.291 11.1482L12.265 11.0915L12.235 11.1472L12.175 11.1542L12.218 11.2L12.206 11.2607L12.261 11.2338L12.313 11.2646L12.306 11.203L12.352 11.1602L12.291 11.1482Z" fill="#FFFEF0"/>
</g>
<mask id="mask29_2_546" style="mask-type:luminance" maskUnits="userSpaceOnUse" x="0" y="0" width="24" height="17">
<path d="M0 16.001H24V0.00097847H0V16.001Z" fill="white"/>
</mask>
<g mask="url(#mask29_2_546)">
<path d="M10.6919 7.99659L10.6229 8.12793L10.4769 8.14485L10.5789 8.25231L10.5489 8.39957L10.6819 8.3339L10.8099 8.40753L10.7899 8.25927L10.8979 8.15878L10.7529 8.1329L10.6919 7.99659Z" fill="#FFFEF0"/>
</g>
<mask id="mask30_2_546" style="mask-type:luminance" maskUnits="userSpaceOnUse" x="0" y="0" width="24" height="17">
<path d="M0 16.001H24V0.00097847H0V16.001Z" fill="white"/>
</mask>
<g mask="url(#mask30_2_546)">
<path d="M9.18599 6.21053L9.37799 6.21252C9.42699 6.21352 9.46199 6.2175 9.48299 6.22645C9.50499 6.23441 9.52299 6.24934 9.53599 6.27023C9.54899 6.29113 9.55499 6.31501 9.55499 6.34187C9.55499 6.3757 9.54399 6.40357 9.52399 6.42546C9.50399 6.44735 9.47399 6.46028 9.43399 6.46625C9.45399 6.47819 9.46999 6.49013 9.48199 6.50406C9.49499 6.51899 9.51199 6.54287 9.53399 6.57869L9.58799 6.66725L9.47799 6.66625L9.41399 6.56675C9.39099 6.53192 9.37499 6.50904 9.36599 6.50008C9.35799 6.49113 9.34899 6.48416 9.33899 6.48118C9.32899 6.4772 9.31399 6.47521 9.29299 6.47521H9.27399L9.27199 6.66426L9.18099 6.66327L9.18599 6.21053ZM9.01899 6.60854C8.97799 6.64834 8.92399 6.66725 8.85799 6.66625C8.78999 6.66426 8.73699 6.64237 8.69899 6.60058C8.66099 6.55779 8.64199 6.50108 8.64399 6.42844C8.64499 6.38267 8.65299 6.34386 8.66799 6.31401C8.67899 6.29113 8.69299 6.27023 8.71099 6.25232C8.72999 6.23441 8.74999 6.22148 8.77099 6.21352C8.79999 6.20257 8.83199 6.1976 8.86899 6.19859C8.93599 6.19959 8.98899 6.22247 9.02699 6.26426C9.06599 6.30705 9.08499 6.36476 9.08299 6.43839C9.08099 6.51202 9.05999 6.56774 9.01899 6.60854ZM9.69799 6.23242L9.86499 6.24038C9.90299 6.24237 9.93099 6.24735 9.95099 6.25332C9.97699 6.26227 9.99799 6.27819 10.017 6.29909C10.034 6.31899 10.048 6.34486 10.056 6.37471C10.064 6.40357 10.067 6.43939 10.065 6.48118C10.063 6.51899 10.057 6.55083 10.047 6.57769C10.034 6.60954 10.016 6.63541 9.99399 6.65431C9.97799 6.66924 9.95599 6.68018 9.92799 6.68715C9.90799 6.69212 9.87999 6.69411 9.84699 6.69212L9.67499 6.68416L9.69799 6.23242ZM10.2 6.26028L10.534 6.29212L10.527 6.36774L10.284 6.34486L10.274 6.44536L10.501 6.46625L10.494 6.54187L10.267 6.52098L10.256 6.64337L10.508 6.66725L10.5 6.74287L10.158 6.71103L10.2 6.26028ZM10.681 6.316L10.816 6.3359L10.853 6.65332L10.978 6.35978L11.114 6.37968L11.048 6.82745L10.964 6.81451L11.016 6.46227L10.875 6.80158L10.788 6.78864L10.751 6.42347L10.699 6.7757L10.615 6.76376L10.681 6.316ZM11.483 6.53889L11.719 6.59262L11.707 6.64635L11.535 6.60655L11.519 6.6772L11.679 6.71401L11.666 6.76774L11.507 6.73093L11.487 6.8175L11.665 6.85829L11.652 6.91202L11.41 6.8563L11.483 6.53889ZM12.029 6.60058L12.172 6.63441C12.227 6.64735 12.261 6.65829 12.276 6.66625C12.3 6.67919 12.317 6.69909 12.329 6.72496C12.341 6.75083 12.342 6.78167 12.334 6.8165C12.327 6.84337 12.317 6.86526 12.303 6.88118C12.289 6.8971 12.272 6.90904 12.254 6.916C12.237 6.92297 12.22 6.92595 12.204 6.92595C12.183 6.92496 12.15 6.91899 12.11 6.91003L12.052 6.89511L12.014 7.06128L11.923 7.04038L12.029 6.60058ZM12.494 6.73889L12.676 6.80357C12.723 6.81949 12.753 6.83441 12.771 6.85033C12.789 6.86426 12.801 6.88416 12.807 6.90804C12.812 6.93192 12.811 6.9568 12.801 6.98167C12.79 7.01352 12.771 7.0374 12.745 7.05133C12.719 7.06526 12.686 7.06824 12.646 7.06028C12.662 7.07819 12.673 7.0961 12.681 7.11302C12.687 7.12993 12.696 7.15879 12.705 7.19959L12.728 7.30108L12.624 7.26526L12.595 7.14983C12.584 7.10904 12.577 7.08217 12.572 7.07123C12.566 7.06028 12.561 7.05033 12.552 7.04436C12.544 7.03839 12.53 7.03143 12.51 7.02446L12.493 7.01849L12.431 7.1966L12.344 7.16575L12.494 6.73889ZM12.875 7.14884C12.89 7.10506 12.907 7.07023 12.931 7.04436C12.947 7.02546 12.966 7.01053 12.988 6.99859C13.011 6.98566 13.034 6.97869 13.058 6.9767C13.087 6.97371 13.12 6.97769 13.155 6.98864C13.219 7.00854 13.265 7.04337 13.29 7.09511C13.315 7.14585 13.317 7.20755 13.295 7.2772C13.273 7.34784 13.238 7.39561 13.187 7.42347C13.139 7.45133 13.081 7.45431 13.018 7.43541C12.953 7.41451 12.908 7.37968 12.882 7.32894C12.856 7.27819 12.854 7.21849 12.875 7.14884ZM13.368 7.32794C13.391 7.28615 13.418 7.25332 13.452 7.22944C13.486 7.20556 13.525 7.19461 13.568 7.19461C13.602 7.19362 13.636 7.20456 13.675 7.22446C13.726 7.24934 13.758 7.28018 13.775 7.31501C13.793 7.35083 13.796 7.38964 13.785 7.43043L13.697 7.40357C13.701 7.38068 13.698 7.35978 13.688 7.34088C13.68 7.32098 13.662 7.30506 13.64 7.29312C13.603 7.27521 13.569 7.27123 13.537 7.28317C13.504 7.29511 13.478 7.32297 13.454 7.36774C13.43 7.41451 13.421 7.4563 13.431 7.49113C13.439 7.52595 13.461 7.55182 13.495 7.56973C13.512 7.57869 13.531 7.58366 13.551 7.58565C13.572 7.58864 13.591 7.58764 13.608 7.58466L13.635 7.53391L13.541 7.48516L13.577 7.4175L13.751 7.50804L13.669 7.66824C13.644 7.6762 13.611 7.67819 13.572 7.67322C13.534 7.66924 13.498 7.65929 13.465 7.64138C13.423 7.62048 13.392 7.59262 13.368 7.55879C13.347 7.52496 13.335 7.48814 13.337 7.44735C13.338 7.40556 13.35 7.36575 13.368 7.32794ZM14.141 7.46526C14.183 7.48715 14.212 7.50705 14.228 7.52496C14.243 7.54187 14.252 7.56277 14.254 7.58764C14.257 7.61153 14.251 7.6364 14.239 7.66028C14.225 7.69013 14.202 7.71003 14.174 7.72098C14.146 7.73093 14.113 7.72993 14.075 7.717C14.087 7.7359 14.097 7.75481 14.102 7.77272C14.106 7.79063 14.11 7.82048 14.114 7.86227L14.122 7.96575L14.025 7.91501L14.011 7.7976C14.007 7.7558 14.003 7.72894 13.999 7.717C13.996 7.70406 13.991 7.69511 13.983 7.68715C13.978 7.68018 13.964 7.67123 13.945 7.66128L13.93 7.65332L13.842 7.82048L13.76 7.77869L13.969 7.3767L14.141 7.46526ZM14.735 7.82247L14.695 7.88814L14.486 7.76078L14.435 7.84635L14.628 7.96476L14.588 8.02944L14.394 7.91103L14.33 8.0165L14.546 8.14784L14.506 8.21352L14.212 8.03441L14.448 7.64735L14.735 7.82247ZM14.835 7.96177C14.857 7.95182 14.881 7.94884 14.908 7.95282C14.936 7.9568 14.962 7.96774 14.992 7.98665C15.04 8.01551 15.07 8.04934 15.082 8.08516C15.093 8.12197 15.088 8.15779 15.067 8.19361L14.988 8.14884C14.997 8.12695 14.998 8.10904 14.992 8.09312C14.987 8.07819 14.974 8.06327 14.951 8.05033C14.93 8.03541 14.908 8.02944 14.891 8.03143C14.878 8.03242 14.869 8.0374 14.863 8.04735C14.857 8.0563 14.856 8.06625 14.86 8.0772C14.864 8.09212 14.883 8.116 14.915 8.14784C14.948 8.17968 14.97 8.20655 14.982 8.22745C14.994 8.24735 15 8.26924 15 8.29212C15 8.31501 14.993 8.33889 14.978 8.36376C14.964 8.38565 14.945 8.40257 14.921 8.41352C14.896 8.42546 14.871 8.42844 14.842 8.42446C14.814 8.42048 14.784 8.40755 14.75 8.38665C14.701 8.3568 14.671 8.32297 14.659 8.28317C14.646 8.24536 14.651 8.20257 14.673 8.1568L14.753 8.1966C14.742 8.22446 14.739 8.24834 14.746 8.26924C14.752 8.28914 14.769 8.30705 14.791 8.32197C14.816 8.3369 14.838 8.34386 14.857 8.34088C14.877 8.33789 14.892 8.32993 14.9 8.316C14.905 8.30605 14.907 8.2971 14.906 8.28715C14.905 8.27819 14.899 8.26625 14.89 8.25332C14.881 8.24436 14.864 8.22645 14.837 8.19859C14.802 8.16177 14.78 8.13093 14.772 8.10605C14.762 8.07023 14.768 8.0364 14.785 8.00655C14.797 7.98665 14.814 7.97272 14.835 7.96177ZM15.215 8.21153C15.238 8.20257 15.262 8.20058 15.288 8.20556C15.314 8.21053 15.342 8.22247 15.371 8.24237C15.417 8.27421 15.446 8.30804 15.456 8.34486C15.466 8.38167 15.46 8.4175 15.437 8.45232L15.36 8.40556C15.37 8.38366 15.372 8.36575 15.367 8.34884C15.362 8.33391 15.35 8.31899 15.328 8.30406C15.307 8.28914 15.285 8.28217 15.268 8.28317C15.255 8.28317 15.246 8.28814 15.239 8.29809C15.233 8.30705 15.231 8.317 15.235 8.32794C15.239 8.34287 15.256 8.36675 15.288 8.40058C15.318 8.43441 15.34 8.46128 15.352 8.48317C15.362 8.50406 15.368 8.52595 15.366 8.54884C15.365 8.57172 15.357 8.59461 15.341 8.61849C15.327 8.64038 15.308 8.6563 15.282 8.66725C15.258 8.6772 15.231 8.68018 15.204 8.67421C15.175 8.66924 15.145 8.65531 15.113 8.63342C15.065 8.60058 15.036 8.56575 15.025 8.52695C15.016 8.48715 15.021 8.44536 15.045 8.39959L15.123 8.44237C15.111 8.47023 15.108 8.49411 15.113 8.51501C15.119 8.5359 15.134 8.55381 15.157 8.56973C15.182 8.58565 15.203 8.59361 15.223 8.59162C15.241 8.58963 15.256 8.58167 15.266 8.56774C15.271 8.55879 15.273 8.54983 15.272 8.53988C15.271 8.52993 15.267 8.51899 15.256 8.50506C15.249 8.4961 15.233 8.4772 15.207 8.44834C15.173 8.41053 15.153 8.37869 15.146 8.35282C15.139 8.317 15.144 8.28416 15.163 8.25431C15.176 8.23541 15.193 8.22148 15.215 8.21153ZM15.523 8.51998C15.544 8.50705 15.568 8.4971 15.593 8.49212C15.618 8.48715 15.643 8.48715 15.664 8.49113C15.694 8.4971 15.725 8.51003 15.755 8.53093C15.811 8.56874 15.843 8.61551 15.853 8.67222C15.863 8.72894 15.848 8.78764 15.807 8.84834C15.766 8.90904 15.716 8.94585 15.66 8.9568C15.604 8.96874 15.549 8.9558 15.494 8.91899C15.438 8.88118 15.405 8.83441 15.395 8.77869C15.385 8.72197 15.4 8.66426 15.441 8.60456C15.467 8.56675 15.494 8.53789 15.523 8.51998ZM16.031 9.47819C16.032 9.47819 16.032 9.47919 16.032 9.47919C16.095 9.31501 16.177 9.06824 16.22 8.84138C14.023 6.92098 11.576 5.93789 8.48299 6.13988H8.47999C8.36999 6.35182 8.28099 6.57272 8.20599 6.81252H8.20999C11.873 6.46625 14.559 8.07919 16.031 9.47819Z" fill="white"/>
</g>
<mask id="mask31_2_546" style="mask-type:luminance" maskUnits="userSpaceOnUse" x="0" y="0" width="24" height="17">
<path d="M0 16.001H24V0.00097847H0V16.001Z" fill="white"/>
</mask>
<g mask="url(#mask31_2_546)">
<path d="M15.1465 8.35323C15.1535 8.3791 15.1735 8.41094 15.2085 8.44775C15.2325 8.4776 15.2505 8.49651 15.2565 8.50547C15.2665 8.5194 15.2715 8.53034 15.2725 8.5393C15.2735 8.54925 15.2715 8.5592 15.2655 8.56815C15.2555 8.58109 15.2425 8.58905 15.2225 8.59104C15.2035 8.59303 15.1815 8.58606 15.1565 8.56915C15.1335 8.55422 15.1205 8.53631 15.1135 8.51542C15.1075 8.49452 15.1115 8.47064 15.1245 8.44278L15.0445 8.39999C15.0215 8.44477 15.0155 8.48756 15.0255 8.52636C15.0375 8.56517 15.0655 8.60099 15.1125 8.63283C15.1455 8.65472 15.1755 8.66865 15.2045 8.67462C15.2315 8.68059 15.2575 8.6776 15.2825 8.66666C15.3075 8.65571 15.3275 8.64079 15.3405 8.6189C15.3565 8.59502 15.3655 8.57213 15.3675 8.54925C15.3685 8.52636 15.3625 8.50447 15.3505 8.48258C15.3395 8.46168 15.3185 8.43482 15.2885 8.40099C15.2565 8.36716 15.2395 8.34328 15.2345 8.32835C15.2315 8.31741 15.2325 8.30746 15.2395 8.2985C15.2465 8.28855 15.2545 8.28358 15.2665 8.28358C15.2865 8.28258 15.3055 8.28955 15.3285 8.30447C15.3485 8.3184 15.3615 8.33333 15.3675 8.34925C15.3725 8.36517 15.3705 8.38407 15.3595 8.40497L15.4375 8.45273C15.4595 8.4179 15.4655 8.38208 15.4575 8.34527C15.4465 8.30845 15.4175 8.27362 15.3715 8.24278C15.3415 8.22288 15.3145 8.20994 15.2895 8.20596C15.2615 8.20099 15.2375 8.20298 15.2155 8.21193C15.1935 8.22089 15.1765 8.23482 15.1645 8.25472C15.1435 8.28457 15.1375 8.31641 15.1465 8.35323Z" fill="#319E48"/>
</g>
<mask id="mask32_2_546" style="mask-type:luminance" maskUnits="userSpaceOnUse" x="0" y="0" width="24" height="17">
<path d="M0 16.001H24V0.00097847H0V16.001Z" fill="white"/>
</mask>
<g mask="url(#mask32_2_546)">
<path d="M14.7852 8.00624C14.7662 8.03709 14.7632 8.06992 14.7722 8.10574C14.7812 8.13062 14.8022 8.16246 14.8372 8.19828C14.8652 8.22614 14.8822 8.24505 14.8892 8.254C14.8982 8.26594 14.9052 8.27788 14.9072 8.28783C14.9082 8.29679 14.9062 8.30674 14.8992 8.31569C14.8902 8.32962 14.8772 8.33758 14.8572 8.34057C14.8392 8.34355 14.8172 8.33758 14.7912 8.32166C14.7672 8.30674 14.7532 8.28982 14.7462 8.26893C14.7402 8.24903 14.7422 8.22415 14.7532 8.19629L14.6732 8.15649C14.6512 8.20226 14.6462 8.24505 14.6592 8.28385C14.6712 8.32266 14.7022 8.35649 14.7502 8.38634C14.7842 8.40724 14.8132 8.42017 14.8432 8.42415C14.8712 8.42913 14.8962 8.42515 14.9212 8.4142C14.9452 8.40226 14.9642 8.38535 14.9772 8.36346C14.9932 8.33858 15.0012 8.31569 15.0002 8.29281C15.0002 8.26992 14.9942 8.24803 14.9812 8.22714C14.9702 8.20624 14.9482 8.17938 14.9152 8.14753C14.8832 8.11569 14.8652 8.09181 14.8602 8.07788C14.8552 8.06694 14.8562 8.05599 14.8632 8.04704C14.8692 8.03709 14.8782 8.03211 14.8892 8.03112C14.9092 8.02913 14.9292 8.03609 14.9522 8.05002C14.9722 8.06395 14.9872 8.07788 14.9932 8.09281C14.9982 8.10873 14.9972 8.12763 14.9882 8.14952L15.0682 8.19331C15.0882 8.15749 15.0932 8.12166 15.0822 8.08584C15.0712 8.04903 15.0412 8.01619 14.9932 7.98634C14.9632 7.96744 14.9342 7.95649 14.9082 7.95251C14.8822 7.94853 14.8572 7.95152 14.8362 7.96246C14.8132 7.97241 14.7982 7.98634 14.7852 8.00624Z" fill="#319E48"/>
</g>
<mask id="mask33_2_546" style="mask-type:luminance" maskUnits="userSpaceOnUse" x="0" y="0" width="24" height="17">
<path d="M0 16.001H24V0.00097847H0V16.001Z" fill="white"/>
</mask>
<g mask="url(#mask33_2_546)">
<path d="M14.2129 8.034L14.5059 8.2131L14.5459 8.14843L14.3309 8.01609L14.3949 7.91161L14.5879 8.03002L14.6289 7.96435L14.4349 7.84694L14.4859 7.76136L14.6939 7.88773L14.7339 7.82305L14.4479 7.64793L14.2129 8.034Z" fill="#319E48"/>
</g>
<mask id="mask34_2_546" style="mask-type:luminance" maskUnits="userSpaceOnUse" x="0" y="0" width="24" height="17">
<path d="M0 16.001H24V0.00097847H0V16.001Z" fill="white"/>
</mask>
<g mask="url(#mask34_2_546)">
<path d="M13.4648 7.64189C13.4978 7.6588 13.5338 7.66975 13.5718 7.67373C13.6108 7.67771 13.6438 7.67572 13.6688 7.66776L13.7518 7.50856L13.5768 7.41801L13.5418 7.48567L13.6348 7.53343L13.6088 7.58418C13.5908 7.58816 13.5718 7.58816 13.5508 7.58617C13.5308 7.58418 13.5118 7.5792 13.4948 7.57025C13.4608 7.55234 13.4398 7.52547 13.4298 7.49164C13.4218 7.45582 13.4288 7.41502 13.4538 7.36726C13.4768 7.32348 13.5048 7.29463 13.5368 7.28368C13.5688 7.27174 13.6038 7.27473 13.6388 7.29363C13.6618 7.30557 13.6788 7.32149 13.6898 7.3404C13.6978 7.3603 13.7008 7.38119 13.6968 7.40408L13.7848 7.42995C13.7958 7.38915 13.7928 7.35134 13.7768 7.31552C13.7578 7.2797 13.7248 7.24985 13.6748 7.22398C13.6358 7.20408 13.6008 7.19413 13.5688 7.19413C13.5268 7.19413 13.4858 7.20607 13.4518 7.22895C13.4178 7.25283 13.3898 7.28567 13.3678 7.32746C13.3488 7.36627 13.3378 7.40607 13.3368 7.44686C13.3358 7.48766 13.3458 7.52448 13.3678 7.5593C13.3908 7.59313 13.4228 7.62 13.4648 7.64189Z" fill="#319E48"/>
</g>
<mask id="mask35_2_546" style="mask-type:luminance" maskUnits="userSpaceOnUse" x="0" y="0" width="24" height="17">
<path d="M0 16.001H24V0.00097847H0V16.001Z" fill="white"/>
</mask>
<g mask="url(#mask35_2_546)">
<path d="M10.751 6.42386L10.788 6.78903L10.875 6.80197L11.016 6.46266L10.964 6.8149L11.048 6.82684L11.114 6.38008L10.978 6.36018L10.853 6.65271L10.816 6.3363L10.681 6.3164L10.615 6.76316L10.699 6.7761L10.751 6.42386Z" fill="#319E48"/>
</g>
<mask id="mask36_2_546" style="mask-type:luminance" maskUnits="userSpaceOnUse" x="0" y="0" width="24" height="17">
<path d="M0 16.001H24V0.00097847H0V16.001Z" fill="white"/>
</mask>
<g mask="url(#mask36_2_546)">
<path d="M10.5078 6.66724L10.2558 6.64336L10.2668 6.52097L10.4938 6.54286L10.5008 6.46624L10.2748 6.44535L10.2838 6.34485L10.5278 6.36773L10.5338 6.29211L10.1998 6.26027L10.1578 6.71102L10.5008 6.74286L10.5078 6.66724Z" fill="#319E48"/>
</g>
<mask id="mask37_2_546" style="mask-type:luminance" maskUnits="userSpaceOnUse" x="0" y="0" width="24" height="17">
<path d="M0 16.001H24V0.00097847H0V16.001Z" fill="white"/>
</mask>
<g mask="url(#mask37_2_546)">
<path d="M8.95019 6.55114C8.92619 6.57602 8.89619 6.58895 8.86019 6.58796C8.82319 6.58696 8.79319 6.57303 8.77019 6.54617C8.74719 6.5183 8.73719 6.4795 8.73819 6.42776C8.74019 6.37602 8.75219 6.33821 8.77619 6.31233C8.80019 6.28746 8.83019 6.27552 8.86819 6.27651C8.90619 6.27751 8.93519 6.29044 8.95719 6.31731C8.97919 6.34318 8.99019 6.38199 8.98919 6.43373C8.98719 6.48646 8.97419 6.52527 8.95019 6.55114ZM8.86919 6.1989C8.83219 6.19791 8.80019 6.20189 8.77119 6.21383C8.75019 6.22179 8.73019 6.23472 8.71119 6.25263C8.69319 6.27054 8.67919 6.29044 8.66819 6.31333C8.65319 6.34418 8.64519 6.38298 8.64419 6.42875C8.64219 6.50039 8.66019 6.55811 8.69919 6.5999C8.73719 6.64169 8.79019 6.66358 8.85819 6.66557C8.92419 6.66756 8.97819 6.64865 9.01819 6.60885C9.05919 6.56806 9.08119 6.51134 9.08319 6.4387C9.08519 6.36507 9.06619 6.30636 9.02719 6.26457C8.98919 6.22179 8.93619 6.1999 8.86919 6.1989Z" fill="#319E48"/>
</g>
<mask id="mask38_2_546" style="mask-type:luminance" maskUnits="userSpaceOnUse" x="0" y="0" width="24" height="17">
<path d="M0 16.001H24V0.00097847H0V16.001Z" fill="white"/>
</mask>
<g mask="url(#mask38_2_546)">
<path d="M8.8682 6.27621C8.8302 6.27521 8.8002 6.28715 8.7762 6.31302C8.7522 6.3379 8.7402 6.3767 8.7382 6.42845C8.7372 6.47919 8.7472 6.51899 8.7702 6.54586C8.7932 6.57272 8.8232 6.58666 8.8602 6.58765C8.8962 6.58865 8.9262 6.5767 8.9502 6.55083C8.9742 6.52496 8.9872 6.48616 8.9892 6.43442C8.9902 6.38168 8.9792 6.34287 8.9572 6.317C8.9352 6.29113 8.9062 6.2772 8.8682 6.27621Z" fill="#F7FCFD"/>
</g>
<mask id="mask39_2_546" style="mask-type:luminance" maskUnits="userSpaceOnUse" x="0" y="0" width="24" height="17">
<path d="M0 16.001H24V0.00097847H0V16.001Z" fill="white"/>
</mask>
<g mask="url(#mask39_2_546)">
<path d="M9.27639 6.28783L9.34739 6.28882C9.38539 6.28882 9.40739 6.28982 9.41439 6.29081C9.42939 6.2938 9.44139 6.29977 9.44839 6.30872C9.45739 6.31867 9.46139 6.33061 9.46039 6.34653C9.46039 6.35947 9.45739 6.37141 9.45139 6.38036C9.44439 6.38932 9.43639 6.39529 9.42539 6.39927C9.41439 6.40225 9.38639 6.40424 9.34239 6.40325H9.27539L9.27639 6.28783ZM9.27439 6.47489H9.29339C9.31439 6.47489 9.32939 6.47688 9.33839 6.48086C9.34839 6.48385 9.35839 6.49081 9.36639 6.49977C9.37539 6.50972 9.39039 6.53161 9.41339 6.56643L9.47839 6.66594L9.58839 6.66693L9.53339 6.57837C9.51239 6.54255 9.49539 6.51867 9.48239 6.50474C9.46939 6.49081 9.45339 6.47788 9.43439 6.46594C9.47339 6.46096 9.50439 6.44703 9.52439 6.42514C9.54439 6.40325 9.55439 6.37539 9.55539 6.34156C9.55539 6.31469 9.54839 6.29081 9.53539 6.26992C9.52339 6.24902 9.50539 6.2341 9.48339 6.22614C9.46239 6.21817 9.42639 6.2132 9.37839 6.2122L9.18639 6.21021L9.18039 6.66295L9.27239 6.66395L9.27439 6.47489Z" fill="#319E48"/>
</g>
<mask id="mask40_2_546" style="mask-type:luminance" maskUnits="userSpaceOnUse" x="0" y="0" width="24" height="17">
<path d="M0 16.001H24V0.00097847H0V16.001Z" fill="white"/>
</mask>
<g mask="url(#mask40_2_546)">
<path d="M9.4253 6.39908C9.4363 6.3951 9.4453 6.38913 9.4513 6.38018C9.4573 6.37122 9.4603 6.35928 9.4603 6.34635C9.4613 6.33142 9.4573 6.31848 9.4483 6.30953C9.4413 6.29958 9.4293 6.2946 9.4143 6.29162C9.4073 6.29062 9.3853 6.28963 9.3473 6.28863L9.2763 6.28764L9.2753 6.40306H9.3423C9.3863 6.40406 9.4143 6.40207 9.4253 6.39908Z" fill="white"/>
</g>
<mask id="mask41_2_546" style="mask-type:luminance" maskUnits="userSpaceOnUse" x="0" y="0" width="24" height="17">
<path d="M0 16.001H24V0.00097847H0V16.001Z" fill="white"/>
</mask>
<g mask="url(#mask41_2_546)">
<path d="M9.76999 6.61241L9.78599 6.31391L9.82699 6.3159C9.86299 6.31789 9.88899 6.31988 9.90099 6.32386C9.91799 6.32784 9.93199 6.3358 9.94199 6.34674C9.95299 6.35769 9.96099 6.37261 9.96599 6.39152C9.97099 6.41142 9.97299 6.43828 9.97099 6.47311C9.96999 6.50794 9.96499 6.5348 9.95799 6.5547C9.95099 6.5746 9.94199 6.58953 9.93199 6.59749C9.92099 6.60644 9.90899 6.61142 9.89399 6.6144C9.88199 6.61639 9.86399 6.61739 9.83799 6.6154L9.76999 6.61241ZM9.92799 6.68704C9.95599 6.68007 9.97799 6.66913 9.99399 6.6542C10.016 6.6353 10.034 6.60943 10.047 6.57759C10.057 6.55072 10.063 6.51888 10.065 6.48206C10.067 6.43928 10.064 6.40346 10.056 6.3746C10.048 6.34475 10.034 6.31988 10.017 6.29898C9.99899 6.27808 9.97699 6.26216 9.95099 6.2542C9.93099 6.24724 9.90299 6.24226 9.86499 6.24027L9.69799 6.23231L9.67499 6.68405L9.84699 6.69301C9.87999 6.695 9.90799 6.69301 9.92799 6.68704Z" fill="#319E48"/>
</g>
<mask id="mask42_2_546" style="mask-type:luminance" maskUnits="userSpaceOnUse" x="0" y="0" width="24" height="17">
<path d="M0 16.001H24V0.00097847H0V16.001Z" fill="white"/>
</mask>
<g mask="url(#mask42_2_546)">
<path d="M9.89399 6.61431C9.90899 6.61133 9.92099 6.60635 9.93199 6.5974C9.94199 6.58944 9.95099 6.57451 9.95799 6.55461C9.96499 6.53471 9.96999 6.50785 9.97099 6.47302C9.97299 6.43819 9.97099 6.41133 9.96599 6.39143C9.96099 6.37252 9.95299 6.3576 9.94199 6.34665C9.93199 6.33571 9.91799 6.32775 9.90099 6.32377C9.88899 6.31979 9.86299 6.3178 9.82699 6.31581L9.78599 6.31382L9.76999 6.61232L9.83799 6.61531C9.86399 6.6173 9.88199 6.6163 9.89399 6.61431Z" fill="white"/>
</g>
<mask id="mask43_2_546" style="mask-type:luminance" maskUnits="userSpaceOnUse" x="0" y="0" width="24" height="17">
<path d="M0 16.001H24V0.00097847H0V16.001Z" fill="white"/>
</mask>
<g mask="url(#mask43_2_546)">
<path d="M12.1006 6.69641L12.1436 6.70636C12.1756 6.71432 12.1966 6.72029 12.2056 6.72527C12.2206 6.73124 12.2306 6.74019 12.2376 6.75313C12.2446 6.76606 12.2466 6.77999 12.2426 6.79591C12.2396 6.80885 12.2336 6.81979 12.2246 6.82775C12.2146 6.83571 12.2046 6.84069 12.1916 6.84268C12.1786 6.84467 12.1546 6.84168 12.1196 6.83273L12.0706 6.82079L12.1006 6.69641ZM12.0526 6.89542L12.1106 6.90935C12.1506 6.9193 12.1826 6.92427 12.2046 6.92527C12.2206 6.92527 12.2376 6.92328 12.2536 6.91631C12.2726 6.90835 12.2876 6.89741 12.3036 6.88148C12.3176 6.86556 12.3276 6.84367 12.3336 6.81681C12.3426 6.78198 12.3406 6.75114 12.3296 6.72527C12.3176 6.6984 12.3006 6.67949 12.2766 6.66656C12.2616 6.6586 12.2256 6.64765 12.1716 6.63472L12.0296 6.60089L11.9236 7.04069L12.0136 7.06158L12.0526 6.89542Z" fill="#319E48"/>
</g>
<mask id="mask44_2_546" style="mask-type:luminance" maskUnits="userSpaceOnUse" x="0" y="0" width="24" height="17">
<path d="M0 16.001H24V0.00097847H0V16.001Z" fill="white"/>
</mask>
<g mask="url(#mask44_2_546)">
<path d="M12.1914 6.84267C12.2044 6.84068 12.2144 6.83571 12.2234 6.82775C12.2334 6.81979 12.2394 6.80884 12.2424 6.79591C12.2464 6.77999 12.2444 6.76606 12.2374 6.75312C12.2314 6.74018 12.2194 6.73123 12.2074 6.72526C12.1964 6.72028 12.1744 6.71431 12.1434 6.70635L12.1004 6.6964L12.0704 6.82178L12.1194 6.83272C12.1544 6.84168 12.1774 6.84466 12.1914 6.84267Z" fill="white"/>
</g>
<mask id="mask45_2_546" style="mask-type:luminance" maskUnits="userSpaceOnUse" x="0" y="0" width="24" height="17">
<path d="M0 16.001H24V0.00097847H0V16.001Z" fill="white"/>
</mask>
<g mask="url(#mask45_2_546)">
<path d="M12.5557 6.84168L12.6217 6.86556C12.6577 6.8775 12.6787 6.88546 12.6847 6.88944C12.6987 6.8964 12.7057 6.90536 12.7107 6.9173C12.7167 6.92825 12.7167 6.94218 12.7097 6.95611C12.7057 6.96904 12.6997 6.97899 12.6907 6.98496C12.6817 6.99093 12.6717 6.99491 12.6597 6.99491C12.6487 6.99392 12.6217 6.98695 12.5797 6.97203L12.5167 6.95014L12.5557 6.84168ZM12.4937 7.0178L12.5107 7.02476C12.5307 7.03073 12.5437 7.0377 12.5527 7.04466C12.5607 7.05063 12.5667 7.05959 12.5727 7.07153C12.5767 7.08247 12.5837 7.10934 12.5957 7.15014L12.6237 7.26456L12.7277 7.30038L12.7037 7.19889C12.6967 7.15909 12.6877 7.13024 12.6807 7.11232C12.6737 7.09541 12.6607 7.07849 12.6467 7.06058C12.6867 7.06854 12.7197 7.06556 12.7447 7.05063C12.7717 7.0367 12.7897 7.01382 12.8017 6.98198C12.8107 6.95611 12.8127 6.93223 12.8067 6.90735C12.8017 6.88347 12.7887 6.86456 12.7717 6.84964C12.7527 6.83471 12.7227 6.81979 12.6767 6.80287L12.4937 6.73919L12.3447 7.16606L12.4307 7.19591L12.4937 7.0178Z" fill="#319E48"/>
</g>
<mask id="mask46_2_546" style="mask-type:luminance" maskUnits="userSpaceOnUse" x="0" y="0" width="24" height="17">
<path d="M0 16.001H24V0.00097847H0V16.001Z" fill="white"/>
</mask>
<g mask="url(#mask46_2_546)">
<path d="M12.6602 6.99472C12.6722 6.99472 12.6812 6.99174 12.6902 6.98477C12.7002 6.9788 12.7062 6.96885 12.7112 6.95591C12.7162 6.94198 12.7162 6.92905 12.7112 6.91711C12.7072 6.90616 12.6982 6.89621 12.6842 6.88925C12.6792 6.88626 12.6582 6.87731 12.6222 6.86537L12.5562 6.84149L12.5162 6.94994L12.5812 6.97283C12.6222 6.98676 12.6482 6.99472 12.6602 6.99472Z" fill="white"/>
</g>
<mask id="mask47_2_546" style="mask-type:luminance" maskUnits="userSpaceOnUse" x="0" y="0" width="24" height="17">
<path d="M0 16.001H24V0.00097847H0V16.001Z" fill="white"/>
</mask>
<g mask="url(#mask47_2_546)">
<path d="M12.9668 7.1745C12.9828 7.12475 13.0048 7.09092 13.0338 7.07301C13.0648 7.05509 13.0968 7.05211 13.1338 7.06305C13.1688 7.074 13.1948 7.0949 13.2088 7.12674C13.2228 7.15758 13.2218 7.19838 13.2058 7.24713C13.1908 7.29788 13.1678 7.33171 13.1378 7.34962C13.1078 7.36753 13.0738 7.37151 13.0398 7.36057C13.0058 7.34962 12.9808 7.32873 12.9668 7.29689C12.9498 7.26405 12.9508 7.22325 12.9668 7.1745ZM13.0178 7.43519C13.0798 7.45509 13.1378 7.45111 13.1878 7.42325C13.2378 7.39639 13.2738 7.34763 13.2958 7.27798C13.3178 7.20733 13.3158 7.14664 13.2888 7.0949C13.2638 7.04415 13.2188 7.00833 13.1548 6.98843C13.1198 6.97748 13.0878 6.9735 13.0568 6.97649C13.0328 6.97848 13.0118 6.98544 12.9878 6.99838C12.9668 7.01032 12.9458 7.02624 12.9298 7.04514C12.9068 7.07002 12.8898 7.10485 12.8758 7.14962C12.8548 7.21828 12.8568 7.27798 12.8828 7.32873C12.9068 7.37947 12.9518 7.41529 13.0178 7.43519Z" fill="#319E48"/>
</g>
<mask id="mask48_2_546" style="mask-type:luminance" maskUnits="userSpaceOnUse" x="0" y="0" width="24" height="17">
<path d="M0 16.001H24V0.00097847H0V16.001Z" fill="white"/>
</mask>
<g mask="url(#mask48_2_546)">
<path d="M13.04 7.36057C13.075 7.37151 13.107 7.36753 13.137 7.34962C13.167 7.33171 13.19 7.29788 13.206 7.24714C13.222 7.19838 13.223 7.15758 13.208 7.12674C13.194 7.0949 13.168 7.074 13.133 7.06306C13.098 7.05211 13.064 7.0551 13.034 7.07301C13.004 7.09092 12.982 7.12475 12.966 7.1745C12.951 7.22325 12.951 7.26405 12.966 7.29689C12.98 7.32873 13.005 7.34962 13.04 7.36057Z" fill="white"/>
</g>
<mask id="mask49_2_546" style="mask-type:luminance" maskUnits="userSpaceOnUse" x="0" y="0" width="24" height="17">
<path d="M0 16.001H24V0.00097847H0V16.001Z" fill="white"/>
</mask>
<g mask="url(#mask49_2_546)">
<path d="M14.0146 7.48694L14.0776 7.51977C14.1106 7.53669 14.1306 7.54764 14.1366 7.55162C14.1486 7.56057 14.1566 7.57152 14.1596 7.58346C14.1616 7.5954 14.1606 7.60833 14.1526 7.62127C14.1466 7.63321 14.1386 7.64216 14.1286 7.64714C14.1186 7.65311 14.1086 7.6541 14.0976 7.65311C14.0856 7.65112 14.0606 7.64017 14.0216 7.62027L13.9616 7.58943L14.0146 7.48694ZM13.8416 7.82027L13.9286 7.65311L13.9456 7.66206C13.9636 7.67102 13.9766 7.67997 13.9836 7.68694C13.9916 7.6949 13.9956 7.70485 13.9986 7.71679C14.0026 7.72873 14.0066 7.7556 14.0116 7.79739L14.0246 7.91579L14.1216 7.96555L14.1146 7.86206C14.1106 7.82027 14.1056 7.79142 14.1006 7.77251C14.0956 7.7546 14.0876 7.73569 14.0766 7.71679C14.1136 7.72972 14.1456 7.73171 14.1736 7.72077C14.2016 7.71082 14.2236 7.68992 14.2406 7.66007C14.2516 7.63619 14.2566 7.61132 14.2546 7.58744C14.2516 7.56256 14.2436 7.54167 14.2276 7.52475C14.2116 7.50783 14.1816 7.48694 14.1396 7.46604L13.9686 7.37749L13.7606 7.77848L13.8416 7.82027Z" fill="#319E48"/>
</g>
<mask id="mask50_2_546" style="mask-type:luminance" maskUnits="userSpaceOnUse" x="0" y="0" width="24" height="17">
<path d="M0 16.001H24V0.00097847H0V16.001Z" fill="white"/>
</mask>
<g mask="url(#mask50_2_546)">
<path d="M14.0977 7.65262C14.1097 7.65461 14.1187 7.65262 14.1297 7.64764C14.1397 7.64267 14.1467 7.63371 14.1537 7.62177C14.1597 7.60884 14.1607 7.59491 14.1597 7.58396C14.1567 7.57103 14.1487 7.56108 14.1367 7.55113C14.1307 7.54814 14.1117 7.5362 14.0767 7.51929L14.0147 7.48645L13.9617 7.58894L14.0227 7.61978C14.0607 7.63968 14.0857 7.65162 14.0977 7.65262Z" fill="white"/>
</g>
<mask id="mask51_2_546" style="mask-type:luminance" maskUnits="userSpaceOnUse" x="0" y="0" width="24" height="17">
<path d="M0 16.001H24V0.00097847H0V16.001Z" fill="white"/>
</mask>
<g mask="url(#mask51_2_546)">
<path d="M15.5205 8.6549C15.5495 8.61211 15.5825 8.58624 15.6145 8.57729C15.6475 8.56933 15.6805 8.5753 15.7115 8.59619C15.7445 8.61709 15.7605 8.64495 15.7655 8.67878C15.7705 8.71261 15.7575 8.75142 15.7285 8.7942C15.6995 8.83699 15.6675 8.86286 15.6335 8.87182C15.5995 8.88077 15.5675 8.8748 15.5385 8.85391C15.5065 8.83401 15.4895 8.80614 15.4845 8.77132C15.4795 8.73649 15.4925 8.69669 15.5205 8.6549ZM15.3955 8.77828C15.4045 8.835 15.4375 8.88177 15.4945 8.91958C15.5485 8.95639 15.6045 8.96933 15.6615 8.95739C15.7165 8.94545 15.7645 8.90863 15.8055 8.84794C15.8475 8.78724 15.8625 8.72853 15.8525 8.67182C15.8425 8.6151 15.8105 8.56833 15.7545 8.53052C15.7245 8.50963 15.6935 8.49669 15.6655 8.49072C15.6415 8.48674 15.6185 8.48674 15.5925 8.49172C15.5675 8.49769 15.5445 8.50664 15.5225 8.51958C15.4955 8.53848 15.4665 8.56634 15.4405 8.60415C15.4005 8.66386 15.3855 8.72157 15.3955 8.77828Z" fill="#319E48"/>
</g>
<mask id="mask52_2_546" style="mask-type:luminance" maskUnits="userSpaceOnUse" x="0" y="0" width="24" height="17">
<path d="M0 16.001H24V0.00097847H0V16.001Z" fill="white"/>
</mask>
<g mask="url(#mask52_2_546)">
<path d="M15.6338 8.87202C15.6678 8.86306 15.6988 8.83719 15.7288 8.79341C15.7588 8.75062 15.7708 8.71182 15.7658 8.67898C15.7608 8.64416 15.7428 8.61729 15.7128 8.59639C15.6808 8.5755 15.6488 8.56853 15.6138 8.57749C15.5808 8.58545 15.5508 8.61132 15.5208 8.6551C15.4908 8.69689 15.4808 8.7357 15.4848 8.77052C15.4888 8.80634 15.5078 8.83321 15.5368 8.85411C15.5678 8.87401 15.5998 8.87998 15.6338 8.87202Z" fill="white"/>
</g>
<mask id="mask53_2_546" style="mask-type:luminance" maskUnits="userSpaceOnUse" x="0" y="0" width="24" height="17">
<path d="M0 16.001H24V0.00097847H0V16.001Z" fill="white"/>
</mask>
<g mask="url(#mask53_2_546)">
<path d="M11.6646 6.85819L11.4866 6.8174L11.5066 6.73183L11.6666 6.76765L11.6786 6.71392L11.5186 6.6771L11.5356 6.60745L11.7066 6.64625L11.7196 6.59252L11.4836 6.53879L11.4106 6.8562L11.6526 6.91193L11.6646 6.85819Z" fill="#319E48"/>
</g>
</svg>
