<svg width="20" height="20" viewBox="0 0 20 20" fill="none" xmlns="http://www.w3.org/2000/svg">
<path d="M19.9902 4.07812L9.95703 19.7637L8.80762 19.0283L18.8408 3.34082L19.9902 4.07812ZM7.15918 10.8535C7.51616 11.2115 7.94234 11.4977 8.4043 11.7197L7.11523 19.7617L5.76562 19.5439L7.15918 10.8535ZM4.60352 19.5068L3.25879 19.7451L0 1.41211L1.34473 1.17383L4.60352 19.5068ZM10.3271 4.60156C12.0401 4.60156 13.4355 5.9931 13.4355 7.7041C13.4354 9.41401 12.0401 10.8047 10.3271 10.8047C8.61342 10.8044 7.21984 9.41386 7.21973 7.7041C7.21973 5.99325 8.61336 4.60181 10.3271 4.60156ZM10.3271 5.98047C9.37535 5.98071 8.60059 6.75325 8.60059 7.7041C8.6007 8.65286 9.37542 9.42554 10.3271 9.42578C11.2791 9.42578 12.0546 8.65301 12.0547 7.7041C12.0547 6.7531 11.2791 5.98047 10.3271 5.98047ZM5.76562 4.84277L5.00684 5.98047L3.28711 4.83008L4.0459 3.69434L5.76562 4.84277ZM10.0615 1.375L9.75391 3.29297C9.23505 3.36095 8.74673 3.51424 8.29883 3.74414L8.71289 1.1582L10.0615 1.375ZM16.8301 2.34668L14.7891 2.68262L14.5664 1.33594L16.6035 1H16.6094L16.8301 2.34668Z" fill="#001E28"/>
</svg>
