<svg width="20" height="20" viewBox="0 0 20 20" fill="none" xmlns="http://www.w3.org/2000/svg">
<path d="M14.7109 2.46777V5.06348C14.4802 5.02208 14.2427 5 14 5C13.7768 5 13.558 5.01857 13.3447 5.05371V3.03418L11.6758 1.36523H6.03516L4.36719 3.03418V16.9512L6.03516 18.6201H11.6855L13.3447 16.9521V12.9453C13.558 12.9805 13.7768 13 14 13C14.2427 13 14.4801 12.977 14.7109 12.9355V17.5146L12.2549 19.9854H5.46973L3 17.5166V2.46777L5.46973 0H12.2422L14.7109 2.46777ZM10.1826 16.9219H7.4248V15.5566H10.1826V16.9219Z" fill="#001E28"/>
<path fill-rule="evenodd" clip-rule="evenodd" d="M17 11.1072L14.8928 9L17 6.8928L16.109 6L14 8.1081L11.891 6L11 6.8928L13.1081 9L11 11.1072L11.891 12L14 9.8919L16.109 12L17 11.1072Z" fill="#001E28"/>
</svg>
