<svg width="20" height="20" viewBox="0 0 20 20" fill="none" xmlns="http://www.w3.org/2000/svg">
<path d="M4.37021 17L3.20851 15.7489L4.60851 14.3489C4.07234 13.7135 3.66525 13.0284 3.38723 12.2936C3.12908 11.5589 3 10.7645 3 9.91064C3 8.63972 3.3078 7.48794 3.9234 6.45532C4.55887 5.40284 5.40284 4.5688 6.45532 3.95319C7.5078 3.31773 8.65958 3 9.91064 3C10.7248 3 11.4993 3.13901 12.234 3.41702C12.9887 3.67518 13.6837 4.07234 14.3191 4.60851L15.8383 3.08936L16.9702 4.37021L15.4809 5.85958C15.9376 6.47518 16.2752 7.12057 16.4936 7.79575C16.7121 8.45106 16.8213 9.15603 16.8213 9.91064C16.8213 11.1617 16.5035 12.3135 15.8681 13.366C15.2525 14.4184 14.4184 15.2624 13.366 15.8979C12.3333 16.5135 11.1816 16.8213 9.91064 16.8213C9.15603 16.8213 8.44113 16.7121 7.76596 16.4936C7.09078 16.2752 6.45532 15.9475 5.85957 15.5106L4.37021 17ZM5.91915 13.0383L13.0085 5.94894C12.5319 5.59149 12.0355 5.3234 11.5191 5.14468C11.0227 4.96596 10.4865 4.8766 9.91064 4.8766C8.97731 4.8766 8.1234 5.10497 7.34894 5.5617C6.59433 5.99858 5.98865 6.60426 5.53191 7.37872C5.09504 8.13333 4.8766 8.9773 4.8766 9.91064C4.8766 10.4865 4.95603 11.0426 5.11489 11.5787C5.29362 12.095 5.5617 12.5816 5.91915 13.0383ZM9.91064 14.9447C10.8241 14.9447 11.6582 14.7262 12.4128 14.2894C13.1872 13.8326 13.8028 13.227 14.2596 12.4723C14.7163 11.6979 14.9447 10.844 14.9447 9.91064C14.9447 9.41418 14.8752 8.94752 14.7362 8.51064C14.617 8.0539 14.4284 7.61702 14.1702 7.2L7.2 14.1702C7.59716 14.4284 8.02411 14.627 8.48085 14.766C8.93759 14.8851 9.41419 14.9447 9.91064 14.9447Z" fill="#001E28"/>
</svg>
