<svg width="24" height="16" viewBox="0 0 24 16" fill="none" xmlns="http://www.w3.org/2000/svg">
<g clip-path="url(#clip0_986_17527)">
<mask id="mask0_986_17527" style="mask-type:luminance" maskUnits="userSpaceOnUse" x="0" y="0" width="24" height="16">
<path d="M0 16H24V1.90735e-06H0V16Z" fill="white"/>
</mask>
<g mask="url(#mask0_986_17527)">
<path d="M18.3056 11.2688C18.7676 11.3175 18.9516 11.3175 19.4036 11.2688C19.3176 11.7016 19.2846 12.1514 19.2686 12.417C19.4736 12.427 20.2976 12.3205 20.4226 12.2797C20.3866 12.5335 20.3826 13.1603 20.4176 13.3802C20.1316 13.2897 19.4346 13.2409 19.2686 13.2379C19.2686 13.4379 19.3536 14.2031 19.4036 14.3812C19.2096 14.3414 18.4976 14.3504 18.3056 14.3862C18.3676 14.1623 18.4456 13.3802 18.4406 13.2409C18.2346 13.2111 17.4996 13.3295 17.2896 13.3802C17.3386 13.1255 17.3266 12.4847 17.2936 12.2797C17.4066 12.2966 18.3206 12.4519 18.4406 12.4091C18.4366 12.1335 18.3676 11.5185 18.3056 11.2688ZM13.6116 16.0001H24.0006V9.60211H13.6116V16.0001Z" fill="#FAFAFA"/>
</g>
<mask id="mask1_986_17527" style="mask-type:luminance" maskUnits="userSpaceOnUse" x="0" y="0" width="24" height="16">
<path d="M0 16H24V1.90735e-06H0V16Z" fill="white"/>
</mask>
<g mask="url(#mask1_986_17527)">
<path d="M5.70751 4.75356C5.51551 4.71276 4.80351 4.72172 4.61051 4.75754C4.67351 4.53465 4.74951 3.75157 4.74551 3.61326C4.53951 3.58241 3.80551 3.70182 3.59551 3.75157C3.64451 3.49784 3.63051 2.85605 3.59951 2.65107C3.71151 2.66898 4.62451 2.8252 4.74551 2.78042C4.74051 2.5048 4.67351 1.88988 4.61051 1.64112C5.07151 1.68988 5.25551 1.68988 5.70751 1.64112C5.62251 2.07296 5.59051 2.52271 5.57351 2.78938C5.77951 2.79833 6.60251 2.69187 6.72851 2.65107C6.69151 2.9058 6.68751 3.53266 6.72351 3.75157C6.43651 3.66202 5.73851 3.61326 5.57351 3.60928C5.57351 3.80928 5.65851 4.57545 5.70751 4.75356ZM10.3885 0.000324726H-0.000488281V6.39734H10.3885V0.000324726Z" fill="#FAFAFA"/>
</g>
<mask id="mask2_986_17527" style="mask-type:luminance" maskUnits="userSpaceOnUse" x="0" y="0" width="24" height="16">
<path d="M0 16H24V1.90735e-06H0V16Z" fill="white"/>
</mask>
<g mask="url(#mask2_986_17527)">
<path d="M18.2968 1.63143C18.7578 1.68019 18.9428 1.68019 19.3938 1.63143C19.3088 2.06327 19.2768 2.51402 19.2588 2.78069C19.4648 2.78964 20.2888 2.68218 20.4138 2.64238C20.3788 2.89611 20.3738 3.52397 20.4098 3.74288C20.1228 3.65332 19.4248 3.60457 19.2588 3.60059C19.2588 3.80059 19.3448 4.56676 19.3938 4.74387C19.2008 4.70407 18.4898 4.71302 18.2968 4.74885C18.3598 4.52596 18.4358 3.74288 18.4308 3.60457C18.2258 3.57372 17.4918 3.69312 17.2808 3.74288C17.3308 3.48914 17.3178 2.84735 17.2858 2.64238C17.3978 2.66029 18.3108 2.81551 18.4308 2.77173C18.4268 2.49511 18.3598 1.88118 18.2968 1.63143ZM13.6108 6.39661H23.9998V-0.000407696H13.6108V6.39661Z" fill="#FAFAFA"/>
</g>
<mask id="mask3_986_17527" style="mask-type:luminance" maskUnits="userSpaceOnUse" x="0" y="0" width="24" height="16">
<path d="M0 16H24V1.90735e-06H0V16Z" fill="white"/>
</mask>
<g mask="url(#mask3_986_17527)">
<path d="M5.70739 14.3637C5.51539 14.3229 4.80339 14.3329 4.61039 14.3677C4.67339 14.1458 4.74939 13.3617 4.74539 13.2234C4.53939 13.1926 3.80539 13.313 3.59539 13.3617C3.64439 13.108 3.63039 12.4662 3.59939 12.2632C3.71139 12.2791 4.62439 12.4364 4.74539 12.3916C4.74039 12.115 4.67339 11.5 4.61039 11.2513C5.07139 11.3 5.25539 11.3 5.70739 11.2513C5.62239 11.6841 5.59039 12.1329 5.57339 12.3995C5.77939 12.4085 6.60239 12.303 6.72839 12.2632C6.69139 12.5169 6.68739 13.1438 6.72339 13.3617C6.43639 13.2722 5.73839 13.2234 5.57339 13.2204C5.57339 13.4194 5.65839 14.1856 5.70739 14.3637ZM-0.000610352 16.0015H10.3884V9.60352H-0.000610352V16.0015Z" fill="#FAFAFA"/>
</g>
<mask id="mask4_986_17527" style="mask-type:luminance" maskUnits="userSpaceOnUse" x="0" y="0" width="24" height="16">
<path d="M0 16H24V1.90735e-06H0V16Z" fill="white"/>
</mask>
<g mask="url(#mask4_986_17527)">
<path d="M13.6114 6.39647V-0.000547409H10.3884V6.39647H0.000366211V9.60244H10.3884V15.9995H13.6114V9.60244H24.0004V6.39647H13.6114Z" fill="#E72E3F"/>
</g>
<mask id="mask5_986_17527" style="mask-type:luminance" maskUnits="userSpaceOnUse" x="0" y="0" width="24" height="16">
<path d="M0 16H24V1.90735e-06H0V16Z" fill="white"/>
</mask>
<g mask="url(#mask5_986_17527)">
<path d="M17.2851 2.64249C17.3161 2.84747 17.3311 3.48926 17.2811 3.742C17.4911 3.69324 18.2251 3.57384 18.4311 3.60468C18.4351 3.742 18.3591 4.52608 18.2971 4.74896C18.4891 4.71314 19.2011 4.70419 19.3931 4.74399C19.3451 4.56687 19.2601 3.8007 19.2601 3.59971C19.4251 3.60468 20.1231 3.65344 20.4091 3.742C20.3741 3.52409 20.3791 2.89623 20.4141 2.64249C20.2891 2.6823 19.4661 2.78876 19.2601 2.7808C19.2761 2.51414 19.3081 2.06339 19.3931 1.63155C18.9411 1.68031 18.7591 1.68031 18.2971 1.63155C18.3591 1.8813 18.4271 2.49523 18.4311 2.77185C18.3101 2.81563 17.3971 2.66041 17.2851 2.64249Z" fill="#E72E3F"/>
</g>
<mask id="mask6_986_17527" style="mask-type:luminance" maskUnits="userSpaceOnUse" x="0" y="0" width="24" height="16">
<path d="M0 16H24V1.90735e-06H0V16Z" fill="white"/>
</mask>
<g mask="url(#mask6_986_17527)">
<path d="M6.72797 2.65122C6.60297 2.69202 5.77897 2.79849 5.57297 2.78953C5.58997 2.52286 5.62297 2.07212 5.70697 1.64028C5.25497 1.69003 5.07197 1.69003 4.61097 1.64028C4.67297 1.89003 4.74097 2.50495 4.74497 2.78058C4.62397 2.82535 3.71097 2.66913 3.59997 2.65122C3.63097 2.8562 3.64397 3.49799 3.59497 3.75073C3.80497 3.70197 4.53997 3.58257 4.74497 3.61341C4.74897 3.75073 4.67297 4.5348 4.61097 4.75769C4.80297 4.72187 5.51497 4.71291 5.70697 4.75371C5.65797 4.5756 5.57297 3.80943 5.57297 3.60844C5.73897 3.61341 6.43697 3.66217 6.72397 3.75073C6.68697 3.53281 6.69197 2.90495 6.72797 2.65122Z" fill="#E72E3F"/>
</g>
<mask id="mask7_986_17527" style="mask-type:luminance" maskUnits="userSpaceOnUse" x="0" y="0" width="24" height="16">
<path d="M0 16H24V1.90735e-06H0V16Z" fill="white"/>
</mask>
<g mask="url(#mask7_986_17527)">
<path d="M6.72797 12.2619C6.60297 12.3017 5.77897 12.4081 5.57297 12.4012C5.58997 12.1325 5.62297 11.6828 5.70697 11.2509C5.25497 11.2997 5.07197 11.2997 4.61097 11.2509C4.67297 11.4997 4.74097 12.1156 4.74497 12.3902C4.62397 12.435 3.71097 12.2808 3.59997 12.2619C3.63097 12.4669 3.64397 13.1086 3.59497 13.3614C3.80497 13.3136 4.53997 13.1932 4.74497 13.2231C4.74897 13.3614 4.67297 14.1465 4.61097 14.3683C4.80297 14.3325 5.51497 14.3236 5.70697 14.3634C5.65797 14.1863 5.57297 13.4191 5.57297 13.2191C5.73897 13.2231 6.43697 13.2738 6.72397 13.3614C6.68697 13.1445 6.69197 12.5156 6.72797 12.2619Z" fill="#E72E3F"/>
</g>
<mask id="mask8_986_17527" style="mask-type:luminance" maskUnits="userSpaceOnUse" x="0" y="0" width="24" height="16">
<path d="M0 16H24V1.90735e-06H0V16Z" fill="white"/>
</mask>
<g mask="url(#mask8_986_17527)">
<path d="M17.294 12.2793C17.326 12.4842 17.34 13.127 17.29 13.3788C17.5 13.331 18.234 13.2116 18.44 13.2415C18.444 13.3788 18.368 14.1639 18.307 14.3857C18.498 14.3499 19.21 14.341 19.402 14.3808C19.354 14.2046 19.269 13.4375 19.269 13.2365C19.435 13.2415 20.133 13.2912 20.418 13.3788C20.383 13.1619 20.388 12.533 20.423 12.2793C20.298 12.3201 19.475 12.4255 19.269 12.4186C19.285 12.1509 19.317 11.7002 19.402 11.2683C18.95 11.3171 18.768 11.3171 18.307 11.2683C18.368 11.5181 18.437 12.134 18.44 12.4086C18.319 12.4524 17.406 12.2982 17.294 12.2793Z" fill="#E72E3F"/>
</g>
</g>
<defs>
<clipPath id="clip0_986_17527">
<rect width="24" height="16" fill="white"/>
</clipPath>
</defs>
</svg>
