<svg width="20" height="20" viewBox="0 0 20 20" fill="none" xmlns="http://www.w3.org/2000/svg">
<path fill-rule="evenodd" clip-rule="evenodd" d="M17.24 11.624H18.628V8.856H17.24V11.624ZM16.95 16.108H10.686V13.635C12.269 13.316 13.465 11.916 13.465 10.24C13.465 8.564 12.269 7.164 10.686 6.844V4.372H16.95L18.628 6.046V7.484H15.868V12.996H18.628V14.433L16.95 16.108ZM1.372 14.433V12.996H4.132V7.484H1.372V6.046L3.05 4.372H9.313V6.844C7.73 7.164 6.535 8.564 6.535 10.24C6.535 11.916 7.73 13.316 9.313 13.635V16.108H3.05L1.372 14.433ZM1.372 11.624H2.759V8.856H1.372V11.624ZM10.686 8.286C11.5 8.573 12.093 9.329 12.093 10.24C12.093 11.151 11.5 11.907 10.686 12.194V8.286ZM9.313 12.193C8.5 11.907 7.907 11.151 7.907 10.24C7.907 9.329 8.5 8.573 9.313 8.286V12.193ZM17.517 3H2.482L0 5.477V15.002L2.482 17.48H17.517L20 15.002V5.477L17.517 3Z" fill="#001E28"/>
</svg>
