<svg width="20" height="20" viewBox="0 0 20 20" fill="none" xmlns="http://www.w3.org/2000/svg">
<path fill-rule="evenodd" clip-rule="evenodd" d="M16.9188 0H3.08125C1.38 0 0 1.38 0 3.08125V16.9175C0 18.62 1.38 20 3.08125 20H16.9175C18.62 20 20 18.62 20 16.9188V3.08125C20 1.38 18.62 0 16.9188 0ZM16.4187 14.0813H14.7362C14.1875 14.0813 14.1187 13.6812 13.1112 12.7188C12.2612 11.8813 11.8975 11.815 11.6925 11.815C11.5087 11.815 11.3838 11.9525 11.3838 12.2725V13.5538C11.3838 13.9313 11.1663 14.08 10.2738 14.08C8.80875 14.08 7.18375 13.1763 5.9475 11.505C4.105 9.02125 3.635 7.1675 3.635 6.76625C3.635 6.54875 3.795 6.4 4.0125 6.4H5.51125C5.9 6.4 6.04875 6.515 6.18625 6.92625C6.8725 8.94 8.0975 10.715 8.6125 10.715C8.8075 10.715 8.83 10.555 8.83 10.1425V8.095C8.83 7.1025 8.26875 7.01875 8.26875 6.6525C8.26875 6.5075 8.38375 6.40125 8.56625 6.40125H10.97C11.29 6.40125 11.3363 6.51625 11.3363 6.905V9.68625C11.3363 10.0038 11.4012 10.1213 11.5425 10.1213C11.7175 10.1213 11.8788 10.015 12.195 9.66375C13.1813 8.575 13.9925 6.84875 13.9925 6.84875C14.095 6.63125 14.2213 6.4825 14.565 6.4825C15.0688 6.4825 16.0638 6.4825 16.0638 6.4825C16.3613 6.4825 16.4875 6.6425 16.43 6.92875C16.2588 7.73 14.53 10.1675 14.53 10.1675C14.37 10.4188 14.3013 10.5563 14.53 10.7975C14.69 11.0038 15.1938 11.45 15.5025 11.8612C16.2575 12.6625 16.75 13.3375 16.75 13.715C16.7512 14 16.59 14.0813 16.4187 14.0813Z" fill="#001E28"/>
</svg>
