<svg width="20" height="20" viewBox="0 0 20 20" fill="none" xmlns="http://www.w3.org/2000/svg">
<path fill-rule="evenodd" clip-rule="evenodd" d="M20 10.0603C19.9992 4.708 15.8341 0.293142 10.522 0.0139173C5.20995 -0.265307 0.610374 3.68885 0.0552906 9.01194C-0.499793 14.335 3.18392 19.1637 8.4379 20V12.9688H5.89924V10.0603H8.4379V7.8436C8.4379 5.32189 9.93098 3.92898 12.2146 3.92898C12.9646 3.93944 13.7128 4.00502 14.4533 4.12518V6.60161H13.1921C12.7568 6.54343 12.3187 6.68763 12.0018 6.99349C11.6848 7.29934 11.5233 7.73365 11.5628 8.17375V10.0603H14.3364L13.8927 12.9688H11.5628V20C16.4224 19.2265 20.0008 15.0109 20 10.0603Z" fill="#001E28"/>
</svg>
