<svg width="24" height="16" viewBox="0 0 24 16" fill="none" xmlns="http://www.w3.org/2000/svg">
<g clip-path="url(#clip0_986_17709)">
<mask id="mask0_986_17709" style="mask-type:luminance" maskUnits="userSpaceOnUse" x="0" y="0" width="24" height="16">
<path d="M0 16H24V1.90735e-06H0V16Z" fill="white"/>
</mask>
<g mask="url(#mask0_986_17709)">
<path d="M13.4131 9.58865C13.4561 9.5379 13.4971 9.48716 13.5351 9.43541C14.3091 8.37571 14.0741 6.89114 13.0091 6.11999C13.5091 6.25332 13.9311 6.58566 14.1771 7.0384C14.6731 7.95283 14.3311 9.09412 13.4131 9.58865ZM12.2381 10.0702V10.1001L11.9991 10.3737L11.7621 10.1001L11.7611 10.0702C11.3621 10.1469 10.9361 10.114 10.5321 9.95283C10.8901 9.99462 11.2471 9.95382 11.5831 9.84039C11.1491 9.60357 10.7911 9.22148 10.5941 8.72795C10.2321 7.82646 10.5051 6.7976 11.2661 6.19163C10.4941 7.24039 10.7141 8.70905 11.7531 9.48815L11.7051 6.30208L11.9991 6.06427L12.2941 6.30208L12.2471 9.48815C13.2871 8.70905 13.5071 7.24039 12.7331 6.19163C13.4961 6.7976 13.7671 7.82646 13.4061 8.72795C13.2081 9.22148 12.8511 9.60357 12.4171 9.84039C12.7521 9.95382 13.1091 9.99462 13.4681 9.95283C13.0621 10.114 12.6391 10.1469 12.2381 10.0702ZM9.82411 7.0384C10.0701 6.58566 10.4921 6.25332 10.9911 6.11999C9.92611 6.89114 9.69011 8.37571 10.4651 9.43541C10.5041 9.48716 10.5431 9.5379 10.5871 9.58865C9.66811 9.09412 9.32811 7.95283 9.82411 7.0384ZM11.4131 5.66328C11.4201 5.67323 11.4271 5.68417 11.4341 5.69313C11.5691 5.87223 11.8221 5.90606 11.9991 5.77273C12.0101 5.78069 12.0201 5.78765 12.0311 5.79462C12.2221 5.91104 12.4711 5.85233 12.5881 5.66328C12.6181 5.78367 12.5821 5.91104 12.4941 5.9976C12.3541 6.13193 12.1351 6.12795 11.9991 5.99163C11.9131 6.08119 11.7851 6.11601 11.6631 6.08517C11.4761 6.0384 11.3651 5.84934 11.4131 5.66328ZM23.6251 5.33492H23.4961V5.46228H22.3401V5.33492H22.2121V5.46228H21.0561V5.33492H20.9271V5.46228H19.7701V5.33492H19.6421V5.46228H18.4861V5.33492H18.3571V5.46228H17.2031V5.33492H17.0731V5.46228H15.9181V5.33492H15.7891V5.46228H14.6341V5.33492H14.5051V5.46228H13.3491V5.33492H13.2211V5.46228H12.0631V5.33492H11.9351V5.46228H10.7801V5.33492H10.6521V5.46228H9.49511V5.33492H9.36711V5.46228H8.21111V5.33492H8.08111V5.46228H6.92711V5.33492H6.79811V5.46228H5.64211V5.33492H5.51411V5.46228H4.35711V5.33492H4.22811V5.46228H3.07311V5.33492H2.94511V5.46228H1.78811V5.33492H1.66011V5.46228H0.504114V5.33492H0.375114V5.46228H-0.00088501V10.5389H0.375114V10.6663H0.504114V10.5389H1.66011V10.6663H1.78811V10.5389H2.94511V10.6663H3.07311V10.5389H4.22811V10.6663H4.35711V10.5389H5.51411V10.6663H5.64211V10.5389H6.79811V10.6663H6.92711V10.5389H8.08111V10.6663H8.21111V10.5389H9.36711V10.6663H9.49511V10.5389H10.6521V10.6663H10.7801V10.5389H11.9351V10.6663H12.0631V10.5389H13.2211V10.6663H13.3491V10.5389H14.5051V10.6663H14.6341V10.5389H15.7891V10.6663H15.9181V10.5389H17.0731V10.6663H17.2031V10.5389H18.3571V10.6663H18.4861V10.5389H19.6421V10.6663H19.7701V10.5389H20.9271V10.6663H21.0561V10.5389H22.2121V10.6663H22.3401V10.5389H23.4961V10.6663H23.6251V10.5389H24.0001V5.46228H23.6251V5.33492Z" fill="#FAFAFA"/>
</g>
<mask id="mask1_986_17709" style="mask-type:luminance" maskUnits="userSpaceOnUse" x="0" y="0" width="24" height="16">
<path d="M0 16H24V1.90735e-06H0V16Z" fill="white"/>
</mask>
<g mask="url(#mask1_986_17709)">
<path d="M0.503397 4.69524H1.1454V4.95096H1.5314V4.8226H1.2744V4.69524H1.6594V5.07832H1.0174V4.8226H0.631397V5.07832H0.503397V4.69524ZM0.503397 4.43952H2.1734V4.56788H0.503397V4.43952ZM2.3014 4.43952H2.4304V4.95096H2.5584V4.43952H2.6874V4.95096H2.8154V4.43952H2.9444V5.07832H2.3014V4.8226H1.9164V4.95096H2.1734V5.07832H1.7884V4.69524H2.3014V4.43952ZM0.888397 5.07832H0.760397V4.95096H0.888397V5.07832ZM3.0724 4.69524H3.7144V4.95096H4.1004V4.8226H3.8434V4.69524H4.2284V5.07832H3.5864V4.8226H3.2014V5.07832H3.0724V4.69524ZM3.0724 4.43952H4.7424V4.56788H3.0724V4.43952ZM4.8714 4.43952H4.9994V4.95096H5.1284V4.43952H5.2564V4.95096H5.3844V4.43952H5.5134V5.07832H4.8714V4.8226H4.4854V4.95096H4.7424V5.07832H4.3574V4.69524H4.8714V4.43952ZM3.4584 5.07832H3.3304V4.95096H3.4584V5.07832ZM5.6414 4.69524H6.2834V4.95096H6.6694V4.8226H6.4124V4.69524H6.7974V5.07832H6.1554V4.8226H5.7704V5.07832H5.6414V4.69524ZM5.6414 4.43952H7.3104V4.56788H5.6414V4.43952ZM7.4404 4.43952H7.5684V4.95096H7.6964V4.43952H7.8244V4.95096H7.9534V4.43952H8.0824V5.07832H7.4404V4.8226H7.0544V4.95096H7.3114V5.07832H6.9264V4.69524H7.4404V4.43952ZM6.0264 5.07832H5.8984V4.95096H6.0264V5.07832ZM8.2104 4.69524H8.8524V4.95096H9.2374V4.8226H8.9814V4.69524H9.3664V5.07832H8.7244V4.8226H8.3384V5.07832H8.2104V4.69524ZM8.2104 4.43952H9.8804V4.56788H8.2104V4.43952ZM10.0094 4.43952H10.1374V4.95096H10.2664V4.43952H10.3944V4.95096H10.5234V4.43952H10.6514V5.07832H10.0094V4.8226H9.6234V4.95096H9.8804V5.07832H9.4944V4.69524H10.0094V4.43952ZM8.5954 5.07832H8.4674V4.95096H8.5954V5.07832ZM10.7794 4.69524H11.4214V4.95096H11.8074V4.8226H11.5504V4.69524H11.9354V5.07832H11.2934V4.8226H10.9084V5.07832H10.7794V4.69524ZM10.7794 4.43952H12.4484V4.56788H10.7794V4.43952ZM12.5774 4.43952H12.7074V4.95096H12.8364V4.43952H12.9634V4.95096H13.0914V4.43952H13.2204V5.07832H12.5774V4.8226H12.1924V4.95096H12.4494V5.07832H12.0644V4.69524H12.5774V4.43952ZM11.1654 5.07832H11.0364V4.95096H11.1654V5.07832ZM13.3484 4.69524H13.9904V4.95096H14.3774V4.8226H14.1194V4.69524H14.5044V5.07832H13.8624V4.8226H13.4774V5.07832H13.3484V4.69524ZM13.3484 4.43952H15.0174V4.56788H13.3484V4.43952ZM15.1474 4.43952H15.2744V4.95096H15.4034V4.43952H15.5324V4.95096H15.6604V4.43952H15.7904V5.07832H15.1474V4.8226H14.7614V4.95096H15.0184V5.07832H14.6334V4.69524H15.1474V4.43952ZM13.7334 5.07832H13.6054V4.95096H13.7334V5.07832ZM15.9184 4.69524H16.5594V4.95096H16.9454V4.8226H16.6884V4.69524H17.0734V5.07832H16.4314V4.8226H16.0454V5.07832H15.9184V4.69524ZM15.9184 4.43952H17.5884V4.56788H15.9184V4.43952ZM17.7154 4.43952H17.8444V4.95096H17.9724V4.43952H18.1014V4.95096H18.2294V4.43952H18.3574V5.07832H17.7154V4.8226H17.3314V4.95096H17.5874V5.07832H17.2024V4.69524H17.7154V4.43952ZM16.3024 5.07832H16.1744V4.95096H16.3024V5.07832ZM18.4864 4.69524H19.1284V4.95096H19.5144V4.8226H19.2574V4.69524H19.6424V5.07832H19.0014V4.8226H18.6144V5.07832H18.4864V4.69524ZM18.4864 4.43952H20.1554V4.56788H18.4864V4.43952ZM20.2844 4.43952H20.4144V4.95096H20.5424V4.43952H20.6704V4.95096H20.7984V4.43952H20.9264V5.07832H20.2844V4.8226H19.8994V4.95096H20.1564V5.07832H19.7714V4.69524H20.2844V4.43952ZM18.8724 5.07832H18.7434V4.95096H18.8724V5.07832ZM21.0554 4.69524H21.6974V4.95096H22.0844V4.8226H21.8264V4.69524H22.2114V5.07832H21.5694V4.8226H21.1844V5.07832H21.0554V4.69524ZM21.0554 4.43952H22.7254V4.56788H21.0554V4.43952ZM22.8544 4.43952H22.9824V4.95096H23.1104V4.43952H23.2394V4.95096H23.3674V4.43952H23.4974V5.07832H22.8544V4.8226H22.4684V4.95096H22.7254V5.07832H22.3394V4.69524H22.8544V4.43952ZM21.4404 5.07832H21.3124V4.95096H21.4404V5.07832ZM0.000396729 4.43952H0.118397V4.95096H0.246397V4.43952H0.375397V5.07832H0.000396729V5.20668H0.375397V5.33405H0.503397V5.20668H1.6594V5.33405H1.7884V5.20668H2.9444V5.33405H3.0724V5.20668H4.2284V5.33405H4.3574V5.20668H5.5134V5.33405H5.6414V5.20668H6.7974V5.33405H6.9264V5.20668H8.0824V5.33405H8.2104V5.20668H9.3664V5.33405H9.4944V5.20668H10.6514V5.33405H10.7794V5.20668H11.9354V5.33405H12.0644V5.20668H13.2204V5.33405H13.3484V5.20668H14.5044V5.33405H14.6334V5.20668H15.7904V5.33405H15.9184V5.20668H17.0734V5.33405H17.2024V5.20668H18.3574V5.33405H18.4864V5.20668H19.6424V5.33405H19.7714V5.20668H20.9264V5.33405H21.0554V5.20668H22.2114V5.33405H22.3394V5.20668H23.4974V5.33405H23.6254V5.20668H24.0014V5.07832H23.8814V4.95096H24.0014V4.8226H23.7534V5.07832H23.6254V4.69524H24.0014V4.56788H23.6254V4.43952H24.0014V-0.000282764H0.000396729V4.43952Z" fill="#269F49"/>
</g>
<mask id="mask2_986_17709" style="mask-type:luminance" maskUnits="userSpaceOnUse" x="0" y="0" width="24" height="16">
<path d="M0 16H24V1.90735e-06H0V16Z" fill="white"/>
</mask>
<g mask="url(#mask2_986_17709)">
<path d="M23.4961 11.5603H22.8541V11.3046H22.4681V11.433H22.7251V11.5603H22.3401V11.1772H22.8541V10.9215H22.9821V11.433H23.1111V10.9215H23.2391V11.433H23.3681V10.9215H23.4961V11.5603ZM22.2111 11.5603H21.5691V11.3046H21.1841V11.5603H21.0561V11.1772H21.6981V11.433H22.0831V11.3046H21.8261V11.1772H22.2111V11.5603ZM21.4411 11.5603H21.3131V11.433H21.4411V11.5603ZM21.0561 10.9215H22.7261V11.0489H21.0561V10.9215ZM20.9271 11.5603H20.2851V11.3046H19.8991V11.433H20.1561V11.5603H19.7711V11.1772H20.2851V10.9215H20.4131V11.433H20.5411V10.9215H20.6701V11.433H20.7981V10.9215H20.9271V11.5603ZM19.6421 11.5603H19.0001V11.3046H18.6151V11.5603H18.4871V11.1772H19.1281V11.433H19.5151V11.3046H19.2571V11.1772H19.6421V11.5603ZM18.8711 11.5603H18.7431V11.433H18.8711V11.5603ZM18.4871 10.9215H20.1561V11.0489H18.4871V10.9215ZM18.3581 11.5603H17.7161V11.3046H17.3301V11.433H17.5871V11.5603H17.2021V11.1772H17.7161V10.9215H17.8441V11.433H17.9741V10.9215H18.1011V11.433H18.2291V10.9215H18.3581V11.5603ZM17.0731 11.5603H16.4331V11.3046H16.0461V11.5603H15.9171V11.1772H16.5591V11.433H16.9451V11.3046H16.6881V11.1772H17.0731V11.5603ZM16.3031 11.5603H16.1751V11.433H16.3031V11.5603ZM15.9171 10.9215H17.5871V11.0489H15.9171V10.9215ZM15.7891 11.5603H15.1471V11.3046H14.7621V11.433H15.0181V11.5603H14.6331V11.1772H15.1471V10.9215H15.2751V11.433H15.4041V10.9215H15.5321V11.433H15.6611V10.9215H15.7891V11.5603ZM14.5051 11.5603H13.8621V11.3046H13.4771V11.5603H13.3501V11.1772H13.9911V11.433H14.3761V11.3046H14.1191V11.1772H14.5051V11.5603ZM13.7341 11.5603H13.6061V11.433H13.7341V11.5603ZM13.3501 10.9215H15.0191V11.0489H13.3501V10.9215ZM13.2201 11.5603H12.5781V11.3046H12.1921V11.433H12.4491V11.5603H12.0641V11.1772H12.5781V10.9215H12.7061V11.433H12.8351V10.9215H12.9631V11.433H13.0921V10.9215H13.2201V11.5603ZM11.9351 11.5603H11.2931V11.3046H10.9081V11.5603H10.7791V11.1772H11.4221V11.433H11.8071V11.3046H11.5501V11.1772H11.9351V11.5603ZM11.1651 11.5603H11.0361V11.433H11.1651V11.5603ZM10.7791 10.9215H12.4491V11.0489H10.7791V10.9215ZM10.6511 11.5603H10.0091V11.3046H9.62312V11.433H9.88012V11.5603H9.49512V11.1772H10.0091V10.9215H10.1371V11.433H10.2661V10.9215H10.3941V11.433H10.5231V10.9215H10.6511V11.5603ZM9.36612 11.5603H8.72512V11.3046H8.33912V11.5603H8.21012V11.1772H8.85212V11.433H9.23812V11.3046H8.98112V11.1772H9.36612V11.5603ZM8.59612 11.5603H8.46812V11.433H8.59612V11.5603ZM8.21012 10.9215H9.88012V11.0489H8.21012V10.9215ZM8.08212 11.5603H7.44012V11.3046H7.05412V11.433H7.31112V11.5603H6.92612V11.1772H7.44012V10.9215H7.56812V11.433H7.69712V10.9215H7.82512V11.433H7.95412V10.9215H8.08212V11.5603ZM6.79712 11.5603H6.15512V11.3046H5.77012V11.5603H5.64212V11.1772H6.28412V11.433H6.66912V11.3046H6.41212V11.1772H6.79712V11.5603ZM6.02712 11.5603H5.89912V11.433H6.02712V11.5603ZM5.64212 10.9215H7.31112V11.0489H5.64212V10.9215ZM5.51312 11.5603H4.87112V11.3046H4.48512V11.433H4.74312V11.5603H4.35712V11.1772H4.87112V10.9215H4.99912V11.433H5.12812V10.9215H5.25612V11.433H5.38512V10.9215H5.51312V11.5603ZM4.22812 11.5603H3.58612V11.3046H3.20112V11.5603H3.07312V11.1772H3.71512V11.433H4.10012V11.3046H3.84312V11.1772H4.22812V11.5603ZM3.45812 11.5603H3.33012V11.433H3.45812V11.5603ZM3.07312 10.9215H4.74312V11.0489H3.07312V10.9215ZM2.94412 11.5603H2.30212V11.3046H1.91612V11.433H2.17312V11.5603H1.78812V11.1772H2.30212V10.9215H2.43012V11.433H2.55912V10.9215H2.68712V11.433H2.81512V10.9215H2.94412V11.5603ZM1.66012 11.5603H1.01712V11.3046H0.632122V11.5603H0.503122V11.1772H1.14512V11.433H1.53112V11.3046H1.27412V11.1772H1.66012V11.5603ZM0.889122 11.5603H0.761122V11.433H0.889122V11.5603ZM0.503122 10.9215H2.17312V11.0489H0.503122V10.9215ZM23.6241 10.6668H23.4961V10.7932H22.3401V10.6668H22.2111V10.7932H21.0561V10.6668H20.9271V10.7932H19.7711V10.6668H19.6421V10.7932H18.4871V10.6668H18.3581V10.7932H17.2021V10.6668H17.0731V10.7932H15.9171V10.6668H15.7891V10.7932H14.6331V10.6668H14.5051V10.7932H13.3501V10.6668H13.2201V10.7932H12.0641V10.6668H11.9351V10.7932H10.7791V10.6668H10.6511V10.7932H9.49512V10.6668H9.36612V10.7932H8.21012V10.6668H8.08212V10.7932H6.92612V10.6668H6.79712V10.7932H5.64212V10.6668H5.51312V10.7932H4.35712V10.6668H4.22812V10.7932H3.07312V10.6668H2.94412V10.7932H1.78812V10.6668H1.66012V10.7932H0.503122V10.6668H0.375122V10.7932H0.00012207V10.9215H0.118122V11.433H0.246122V10.9215H0.375122V11.5603H0.00012207V16.0001H24.0001V11.5603H23.8811V11.433H24.0001V11.3046H23.7531V11.5603H23.6241V11.1772H24.0001V11.0489H23.6241V10.9215H24.0001V10.7932H23.6241V10.6668Z" fill="#D91F26"/>
</g>
<mask id="mask3_986_17709" style="mask-type:luminance" maskUnits="userSpaceOnUse" x="0" y="0" width="24" height="16">
<path d="M0 16H24V1.90735e-06H0V16Z" fill="white"/>
</mask>
<g mask="url(#mask3_986_17709)">
<path d="M11.7607 10.0717V10.0985L11.9997 10.3741L12.2397 10.0985V10.0717C12.1577 10.0557 12.0777 10.0378 11.9997 10.013C11.9217 10.0378 11.8417 10.0557 11.7607 10.0717Z" fill="#D91F26"/>
</g>
<mask id="mask4_986_17709" style="mask-type:luminance" maskUnits="userSpaceOnUse" x="0" y="0" width="24" height="16">
<path d="M0 16H24V1.90735e-06H0V16Z" fill="white"/>
</mask>
<g mask="url(#mask4_986_17709)">
<path d="M12 9.65186C12.076 9.60907 12.15 9.5623 12.221 9.50957C12.23 9.50459 12.238 9.49564 12.247 9.48867L12.293 6.30161L12 6.06479L11.706 6.30161L11.752 9.48867C11.762 9.49564 11.77 9.50459 11.779 9.50957C11.85 9.5623 11.924 9.60907 12 9.65186Z" fill="#D91F26"/>
</g>
<mask id="mask5_986_17709" style="mask-type:luminance" maskUnits="userSpaceOnUse" x="0" y="0" width="24" height="16">
<path d="M0 16H24V1.90735e-06H0V16Z" fill="white"/>
</mask>
<g mask="url(#mask5_986_17709)">
<path d="M11.6637 6.08519C11.7847 6.11603 11.9127 6.08021 11.9997 5.99165C12.1347 6.12797 12.3547 6.13096 12.4947 5.99762C12.5817 5.91106 12.6187 5.7827 12.5877 5.6633C12.4707 5.85136 12.2217 5.91006 12.0317 5.79364C12.0207 5.78767 12.0097 5.77971 11.9997 5.77275C11.8217 5.90608 11.5687 5.87126 11.4347 5.69414C11.4267 5.68419 11.4197 5.67325 11.4127 5.6633C11.3647 5.84837 11.4767 6.03743 11.6637 6.08519Z" fill="#D91F26"/>
</g>
<mask id="mask6_986_17709" style="mask-type:luminance" maskUnits="userSpaceOnUse" x="0" y="0" width="24" height="16">
<path d="M0 16H24V1.90735e-06H0V16Z" fill="white"/>
</mask>
<g mask="url(#mask6_986_17709)">
<path d="M11.5836 9.84044C11.2486 9.95388 10.8896 9.99467 10.5316 9.95288C10.9376 10.1141 11.3616 10.1469 11.7606 10.0703C11.8416 10.0564 11.9216 10.0375 12.0006 10.0146C11.8556 9.9698 11.7156 9.91109 11.5836 9.84044Z" fill="#D91F26"/>
</g>
<mask id="mask7_986_17709" style="mask-type:luminance" maskUnits="userSpaceOnUse" x="0" y="0" width="24" height="16">
<path d="M0 16H24V1.90735e-06H0V16Z" fill="white"/>
</mask>
<g mask="url(#mask7_986_17709)">
<path d="M12 9.65185C12.133 9.72846 12.272 9.79214 12.417 9.8399C12.852 9.60309 13.208 9.221 13.406 8.72747C13.769 7.82796 13.495 6.79712 12.734 6.19214C13.506 7.23991 13.286 8.70856 12.247 9.48866C12.238 9.49563 12.23 9.50458 12.221 9.50956C12.15 9.56229 12.076 9.60906 12 9.65185Z" fill="#D91F26"/>
</g>
<mask id="mask8_986_17709" style="mask-type:luminance" maskUnits="userSpaceOnUse" x="0" y="0" width="24" height="16">
<path d="M0 16H24V1.90735e-06H0V16Z" fill="white"/>
</mask>
<g mask="url(#mask8_986_17709)">
<path d="M12.417 9.84044C12.272 9.79069 12.133 9.729 12 9.65238C11.924 9.6096 11.85 9.56283 11.779 9.51009C11.77 9.50412 11.762 9.49517 11.752 9.4882C10.713 8.7091 10.494 7.24044 11.266 6.19169C10.504 6.79666 10.231 7.8285 10.594 8.728C10.792 9.22154 11.148 9.60363 11.584 9.84044C11.716 9.91109 11.855 9.9698 12 10.0146C12.078 10.0375 12.158 10.0564 12.238 10.0703C12.639 10.1469 13.063 10.1141 13.468 9.95288C13.109 9.99467 12.752 9.95388 12.417 9.84044Z" fill="#D91F26"/>
</g>
<mask id="mask9_986_17709" style="mask-type:luminance" maskUnits="userSpaceOnUse" x="0" y="0" width="24" height="16">
<path d="M0 16H24V1.90735e-06H0V16Z" fill="white"/>
</mask>
<g mask="url(#mask9_986_17709)">
<path d="M13.0089 6.11923C14.0739 6.89038 14.3099 8.37496 13.5349 9.43565C13.4969 9.48739 13.4559 9.53913 13.4129 9.58789C14.3309 9.09436 14.6729 7.95306 14.1759 7.03963C13.9299 6.5869 13.5089 6.25456 13.0089 6.11923Z" fill="#D91F26"/>
</g>
<mask id="mask10_986_17709" style="mask-type:luminance" maskUnits="userSpaceOnUse" x="0" y="0" width="24" height="16">
<path d="M0 16H24V1.90735e-06H0V16Z" fill="white"/>
</mask>
<g mask="url(#mask10_986_17709)">
<path d="M10.4647 9.43515C9.68974 8.37544 9.92474 6.88987 10.9907 6.11873C10.4907 6.25405 10.0687 6.58639 9.82274 7.03913C9.32674 7.95355 9.66874 9.09385 10.5867 9.58838C10.5437 9.53863 10.5037 9.48788 10.4647 9.43515Z" fill="#D91F26"/>
</g>
<mask id="mask11_986_17709" style="mask-type:luminance" maskUnits="userSpaceOnUse" x="0" y="0" width="24" height="16">
<path d="M0 16H24V1.90735e-06H0V16Z" fill="white"/>
</mask>
<g mask="url(#mask11_986_17709)">
<path d="M0.375488 4.43912H0.246488V4.95056H0.118488V4.43912H0.000488281V5.07892H0.375488V4.43912Z" fill="white"/>
</g>
<mask id="mask12_986_17709" style="mask-type:luminance" maskUnits="userSpaceOnUse" x="0" y="0" width="24" height="16">
<path d="M0 16H24V1.90735e-06H0V16Z" fill="white"/>
</mask>
<g mask="url(#mask12_986_17709)">
<path d="M1.78809 5.07849H2.17309V4.95113H1.91609V4.82277H2.30209V5.07849H2.94409V4.43869H2.81509V4.95113H2.68709V4.43869H2.55909V4.95113H2.43009V4.43869H2.30209V4.69541H1.78809V5.07849Z" fill="white"/>
</g>
<mask id="mask13_986_17709" style="mask-type:luminance" maskUnits="userSpaceOnUse" x="0" y="0" width="24" height="16">
<path d="M0 16H24V1.90735e-06H0V16Z" fill="white"/>
</mask>
<g mask="url(#mask13_986_17709)">
<path d="M0.760895 5.07861H0.888895V4.95125H0.760895V5.07861Z" fill="white"/>
</g>
<mask id="mask14_986_17709" style="mask-type:luminance" maskUnits="userSpaceOnUse" x="0" y="0" width="24" height="16">
<path d="M0 16H24V1.90735e-06H0V16Z" fill="white"/>
</mask>
<g mask="url(#mask14_986_17709)">
<path d="M2.17302 4.43976H0.503021V4.56812H2.17302V4.43976Z" fill="white"/>
</g>
<mask id="mask15_986_17709" style="mask-type:luminance" maskUnits="userSpaceOnUse" x="0" y="0" width="24" height="16">
<path d="M0 16H24V1.90735e-06H0V16Z" fill="white"/>
</mask>
<g mask="url(#mask15_986_17709)">
<path d="M0.631784 4.82301H1.01778V5.07874H1.65978V4.69565H1.27478V4.82301H1.53078V4.95038H1.14578V4.69565H0.503784V5.07874H0.631784V4.82301Z" fill="white"/>
</g>
<mask id="mask16_986_17709" style="mask-type:luminance" maskUnits="userSpaceOnUse" x="0" y="0" width="24" height="16">
<path d="M0 16H24V1.90735e-06H0V16Z" fill="white"/>
</mask>
<g mask="url(#mask16_986_17709)">
<path d="M4.3569 5.07849H4.7429V4.95113H4.4849V4.82277H4.8709V5.07849H5.5129V4.43869H5.3849V4.95113H5.2559V4.43869H5.1279V4.95113H4.9999V4.43869H4.8709V4.69541H4.3569V5.07849Z" fill="white"/>
</g>
<mask id="mask17_986_17709" style="mask-type:luminance" maskUnits="userSpaceOnUse" x="0" y="0" width="24" height="16">
<path d="M0 16H24V1.90735e-06H0V16Z" fill="white"/>
</mask>
<g mask="url(#mask17_986_17709)">
<path d="M3.32999 5.07861H3.45799V4.95125H3.32999V5.07861Z" fill="white"/>
</g>
<mask id="mask18_986_17709" style="mask-type:luminance" maskUnits="userSpaceOnUse" x="0" y="0" width="24" height="16">
<path d="M0 16H24V1.90735e-06H0V16Z" fill="white"/>
</mask>
<g mask="url(#mask18_986_17709)">
<path d="M4.74312 4.43976H3.07312V4.56812H4.74312V4.43976Z" fill="white"/>
</g>
<mask id="mask19_986_17709" style="mask-type:luminance" maskUnits="userSpaceOnUse" x="0" y="0" width="24" height="16">
<path d="M0 16H24V1.90735e-06H0V16Z" fill="white"/>
</mask>
<g mask="url(#mask19_986_17709)">
<path d="M3.20112 4.82301H3.58612V5.07874H4.22812V4.69565H3.84312V4.82301H4.10012V4.95038H3.71512V4.69565H3.07312V5.07874H3.20112V4.82301Z" fill="white"/>
</g>
<mask id="mask20_986_17709" style="mask-type:luminance" maskUnits="userSpaceOnUse" x="0" y="0" width="24" height="16">
<path d="M0 16H24V1.90735e-06H0V16Z" fill="white"/>
</mask>
<g mask="url(#mask20_986_17709)">
<path d="M7.31094 4.43976H5.64194V4.56812H7.31094V4.43976Z" fill="white"/>
</g>
<mask id="mask21_986_17709" style="mask-type:luminance" maskUnits="userSpaceOnUse" x="0" y="0" width="24" height="16">
<path d="M0 16H24V1.90735e-06H0V16Z" fill="white"/>
</mask>
<g mask="url(#mask21_986_17709)">
<path d="M5.89905 5.07861H6.02705V4.95125H5.89905V5.07861Z" fill="white"/>
</g>
<mask id="mask22_986_17709" style="mask-type:luminance" maskUnits="userSpaceOnUse" x="0" y="0" width="24" height="16">
<path d="M0 16H24V1.90735e-06H0V16Z" fill="white"/>
</mask>
<g mask="url(#mask22_986_17709)">
<path d="M6.92621 5.07849H7.31121V4.95113H7.05421V4.82277H7.44021V5.07849H8.08221V4.43869H7.95321V4.95113H7.82421V4.43869H7.69721V4.95113H7.56821V4.43869H7.44021V4.69541H6.92621V5.07849Z" fill="white"/>
</g>
<mask id="mask23_986_17709" style="mask-type:luminance" maskUnits="userSpaceOnUse" x="0" y="0" width="24" height="16">
<path d="M0 16H24V1.90735e-06H0V16Z" fill="white"/>
</mask>
<g mask="url(#mask23_986_17709)">
<path d="M5.76994 4.82301H6.15494V5.07874H6.79694V4.69565H6.41194V4.82301H6.66894V4.95038H6.28394V4.69565H5.64194V5.07874H5.76994V4.82301Z" fill="white"/>
</g>
<mask id="mask24_986_17709" style="mask-type:luminance" maskUnits="userSpaceOnUse" x="0" y="0" width="24" height="16">
<path d="M0 16H24V1.90735e-06H0V16Z" fill="white"/>
</mask>
<g mask="url(#mask24_986_17709)">
<path d="M8.339 4.82301H8.725V5.07874H9.366V4.69565H8.982V4.82301H9.238V4.95038H8.853V4.69565H8.211V5.07874H8.339V4.82301Z" fill="white"/>
</g>
<mask id="mask25_986_17709" style="mask-type:luminance" maskUnits="userSpaceOnUse" x="0" y="0" width="24" height="16">
<path d="M0 16H24V1.90735e-06H0V16Z" fill="white"/>
</mask>
<g mask="url(#mask25_986_17709)">
<path d="M9.49454 5.07849H9.88054V4.95113H9.62354V4.82277H10.0095V5.07849H10.6515V4.43869H10.5225V4.95113H10.3935V4.43869H10.2655V4.95113H10.1375V4.43869H10.0095V4.69541H9.49454V5.07849Z" fill="white"/>
</g>
<mask id="mask26_986_17709" style="mask-type:luminance" maskUnits="userSpaceOnUse" x="0" y="0" width="24" height="16">
<path d="M0 16H24V1.90735e-06H0V16Z" fill="white"/>
</mask>
<g mask="url(#mask26_986_17709)">
<path d="M8.4671 5.07861H8.5951V4.95125H8.4671V5.07861Z" fill="white"/>
</g>
<mask id="mask27_986_17709" style="mask-type:luminance" maskUnits="userSpaceOnUse" x="0" y="0" width="24" height="16">
<path d="M0 16H24V1.90735e-06H0V16Z" fill="white"/>
</mask>
<g mask="url(#mask27_986_17709)">
<path d="M9.881 4.43976H8.211V4.56812H9.881V4.43976Z" fill="white"/>
</g>
<mask id="mask28_986_17709" style="mask-type:luminance" maskUnits="userSpaceOnUse" x="0" y="0" width="24" height="16">
<path d="M0 16H24V1.90735e-06H0V16Z" fill="white"/>
</mask>
<g mask="url(#mask28_986_17709)">
<path d="M12.4491 4.43976H10.7791V4.56812H12.4491V4.43976Z" fill="white"/>
</g>
<mask id="mask29_986_17709" style="mask-type:luminance" maskUnits="userSpaceOnUse" x="0" y="0" width="24" height="16">
<path d="M0 16H24V1.90735e-06H0V16Z" fill="white"/>
</mask>
<g mask="url(#mask29_986_17709)">
<path d="M10.9083 4.82301H11.2933V5.07874H11.9353V4.69565H11.5503V4.82301H11.8073V4.95038H11.4223V4.69565H10.7793V5.07874H10.9083V4.82301Z" fill="white"/>
</g>
<mask id="mask30_986_17709" style="mask-type:luminance" maskUnits="userSpaceOnUse" x="0" y="0" width="24" height="16">
<path d="M0 16H24V1.90735e-06H0V16Z" fill="white"/>
</mask>
<g mask="url(#mask30_986_17709)">
<path d="M11.0359 5.07861H11.1649V4.95125H11.0359V5.07861Z" fill="white"/>
</g>
<mask id="mask31_986_17709" style="mask-type:luminance" maskUnits="userSpaceOnUse" x="0" y="0" width="24" height="16">
<path d="M0 16H24V1.90735e-06H0V16Z" fill="white"/>
</mask>
<g mask="url(#mask31_986_17709)">
<path d="M12.0646 5.07849H12.4496V4.95113H12.1926V4.82277H12.5786V5.07849H13.2196V4.43869H13.0916V4.95113H12.9626V4.43869H12.8356V4.95113H12.7066V4.43869H12.5786V4.69541H12.0646V5.07849Z" fill="white"/>
</g>
<mask id="mask32_986_17709" style="mask-type:luminance" maskUnits="userSpaceOnUse" x="0" y="0" width="24" height="16">
<path d="M0 16H24V1.90735e-06H0V16Z" fill="white"/>
</mask>
<g mask="url(#mask32_986_17709)">
<path d="M14.6337 5.07849H15.0187V4.95113H14.7617V4.82277H15.1477V5.07849H15.7887V4.43869H15.6597V4.95113H15.5317V4.43869H15.4047V4.95113H15.2757V4.43869H15.1477V4.69541H14.6337V5.07849Z" fill="white"/>
</g>
<mask id="mask33_986_17709" style="mask-type:luminance" maskUnits="userSpaceOnUse" x="0" y="0" width="24" height="16">
<path d="M0 16H24V1.90735e-06H0V16Z" fill="white"/>
</mask>
<g mask="url(#mask33_986_17709)">
<path d="M13.4774 4.82301H13.8624V5.07874H14.5044V4.69565H14.1194V4.82301H14.3754V4.95038H13.9914V4.69565H13.3494V5.07874H13.4774V4.82301Z" fill="white"/>
</g>
<mask id="mask34_986_17709" style="mask-type:luminance" maskUnits="userSpaceOnUse" x="0" y="0" width="24" height="16">
<path d="M0 16H24V1.90735e-06H0V16Z" fill="white"/>
</mask>
<g mask="url(#mask34_986_17709)">
<path d="M13.606 5.07861H13.734V4.95125H13.606V5.07861Z" fill="white"/>
</g>
<mask id="mask35_986_17709" style="mask-type:luminance" maskUnits="userSpaceOnUse" x="0" y="0" width="24" height="16">
<path d="M0 16H24V1.90735e-06H0V16Z" fill="white"/>
</mask>
<g mask="url(#mask35_986_17709)">
<path d="M15.0179 4.43976H13.3489V4.56812H15.0179V4.43976Z" fill="white"/>
</g>
<mask id="mask36_986_17709" style="mask-type:luminance" maskUnits="userSpaceOnUse" x="0" y="0" width="24" height="16">
<path d="M0 16H24V1.90735e-06H0V16Z" fill="white"/>
</mask>
<g mask="url(#mask36_986_17709)">
<path d="M17.588 4.43976H15.918V4.56812H17.588V4.43976Z" fill="white"/>
</g>
<mask id="mask37_986_17709" style="mask-type:luminance" maskUnits="userSpaceOnUse" x="0" y="0" width="24" height="16">
<path d="M0 16H24V1.90735e-06H0V16Z" fill="white"/>
</mask>
<g mask="url(#mask37_986_17709)">
<path d="M16.046 4.82301H16.432V5.07874H17.073V4.69565H16.69V4.82301H16.945V4.95038H16.56V4.69565H15.918V5.07874H16.046V4.82301Z" fill="white"/>
</g>
<mask id="mask38_986_17709" style="mask-type:luminance" maskUnits="userSpaceOnUse" x="0" y="0" width="24" height="16">
<path d="M0 16H24V1.90735e-06H0V16Z" fill="white"/>
</mask>
<g mask="url(#mask38_986_17709)">
<path d="M17.202 5.07849H17.587V4.95113H17.33V4.82277H17.716V5.07849H18.358V4.43869H18.229V4.95113H18.101V4.43869H17.973V4.95113H17.845V4.43869H17.716V4.69541H17.202V5.07849Z" fill="white"/>
</g>
<mask id="mask39_986_17709" style="mask-type:luminance" maskUnits="userSpaceOnUse" x="0" y="0" width="24" height="16">
<path d="M0 16H24V1.90735e-06H0V16Z" fill="white"/>
</mask>
<g mask="url(#mask39_986_17709)">
<path d="M16.1741 5.07861H16.3021V4.95125H16.1741V5.07861Z" fill="white"/>
</g>
<mask id="mask40_986_17709" style="mask-type:luminance" maskUnits="userSpaceOnUse" x="0" y="0" width="24" height="16">
<path d="M0 16H24V1.90735e-06H0V16Z" fill="white"/>
</mask>
<g mask="url(#mask40_986_17709)">
<path d="M20.156 4.43976H18.487V4.56812H20.156V4.43976Z" fill="white"/>
</g>
<mask id="mask41_986_17709" style="mask-type:luminance" maskUnits="userSpaceOnUse" x="0" y="0" width="24" height="16">
<path d="M0 16H24V1.90735e-06H0V16Z" fill="white"/>
</mask>
<g mask="url(#mask41_986_17709)">
<path d="M18.6153 4.82301H19.0013V5.07874H19.6423V4.69565H19.2583V4.82301H19.5133V4.95038H19.1293V4.69565H18.4873V5.07874H18.6153V4.82301Z" fill="white"/>
</g>
<mask id="mask42_986_17709" style="mask-type:luminance" maskUnits="userSpaceOnUse" x="0" y="0" width="24" height="16">
<path d="M0 16H24V1.90735e-06H0V16Z" fill="white"/>
</mask>
<g mask="url(#mask42_986_17709)">
<path d="M19.7716 5.07849H20.1566V4.95113H19.8996V4.82277H20.2856V5.07849H20.9266V4.43869H20.7976V4.95113H20.6696V4.43869H20.5426V4.95113H20.4136V4.43869H20.2856V4.69541H19.7716V5.07849Z" fill="white"/>
</g>
<mask id="mask43_986_17709" style="mask-type:luminance" maskUnits="userSpaceOnUse" x="0" y="0" width="24" height="16">
<path d="M0 16H24V1.90735e-06H0V16Z" fill="white"/>
</mask>
<g mask="url(#mask43_986_17709)">
<path d="M18.7439 5.07861H18.8719V4.95125H18.7439V5.07861Z" fill="white"/>
</g>
<mask id="mask44_986_17709" style="mask-type:luminance" maskUnits="userSpaceOnUse" x="0" y="0" width="24" height="16">
<path d="M0 16H24V1.90735e-06H0V16Z" fill="white"/>
</mask>
<g mask="url(#mask44_986_17709)">
<path d="M22.3399 5.07849H22.7249V4.95113H22.4679V4.82277H22.8539V5.07849H23.4959V4.43869H23.3679V4.95113H23.2389V4.43869H23.1109V4.95113H22.9839V4.43869H22.8539V4.69541H22.3399V5.07849Z" fill="white"/>
</g>
<mask id="mask45_986_17709" style="mask-type:luminance" maskUnits="userSpaceOnUse" x="0" y="0" width="24" height="16">
<path d="M0 16H24V1.90735e-06H0V16Z" fill="white"/>
</mask>
<g mask="url(#mask45_986_17709)">
<path d="M21.313 5.07861H21.441V4.95125H21.313V5.07861Z" fill="white"/>
</g>
<mask id="mask46_986_17709" style="mask-type:luminance" maskUnits="userSpaceOnUse" x="0" y="0" width="24" height="16">
<path d="M0 16H24V1.90735e-06H0V16Z" fill="white"/>
</mask>
<g mask="url(#mask46_986_17709)">
<path d="M22.7251 4.43976H21.0551V4.56812H22.7251V4.43976Z" fill="white"/>
</g>
<mask id="mask47_986_17709" style="mask-type:luminance" maskUnits="userSpaceOnUse" x="0" y="0" width="24" height="16">
<path d="M0 16H24V1.90735e-06H0V16Z" fill="white"/>
</mask>
<g mask="url(#mask47_986_17709)">
<path d="M21.1846 4.82301H21.5696V5.07874H22.2106V4.69565H21.8266V4.82301H22.0826V4.95038H21.6986V4.69565H21.0556V5.07874H21.1846V4.82301Z" fill="white"/>
</g>
<mask id="mask48_986_17709" style="mask-type:luminance" maskUnits="userSpaceOnUse" x="0" y="0" width="24" height="16">
<path d="M0 16H24V1.90735e-06H0V16Z" fill="white"/>
</mask>
<g mask="url(#mask48_986_17709)">
<path d="M23.6249 5.07849H23.7529V4.82277H23.9999V4.69541H23.6249V5.07849Z" fill="white"/>
</g>
<mask id="mask49_986_17709" style="mask-type:luminance" maskUnits="userSpaceOnUse" x="0" y="0" width="24" height="16">
<path d="M0 16H24V1.90735e-06H0V16Z" fill="white"/>
</mask>
<g mask="url(#mask49_986_17709)">
<path d="M23.6249 4.56714H23.9999V4.43878H23.6249V4.56714Z" fill="white"/>
</g>
<mask id="mask50_986_17709" style="mask-type:luminance" maskUnits="userSpaceOnUse" x="0" y="0" width="24" height="16">
<path d="M0 16H24V1.90735e-06H0V16Z" fill="white"/>
</mask>
<g mask="url(#mask50_986_17709)">
<path d="M23.881 5.07861H24V4.95125H23.881V5.07861Z" fill="white"/>
</g>
<mask id="mask51_986_17709" style="mask-type:luminance" maskUnits="userSpaceOnUse" x="0" y="0" width="24" height="16">
<path d="M0 16H24V1.90735e-06H0V16Z" fill="white"/>
</mask>
<g mask="url(#mask51_986_17709)">
<path d="M0.375488 5.33412V5.20676H0.000488281V5.46149H0.375488V5.33412Z" fill="white"/>
</g>
<mask id="mask52_986_17709" style="mask-type:luminance" maskUnits="userSpaceOnUse" x="0" y="0" width="24" height="16">
<path d="M0 16H24V1.90735e-06H0V16Z" fill="white"/>
</mask>
<g mask="url(#mask52_986_17709)">
<path d="M1.65978 5.46191V5.33455V5.20619H0.503784V5.33455V5.46191H1.65978Z" fill="white"/>
</g>
<mask id="mask53_986_17709" style="mask-type:luminance" maskUnits="userSpaceOnUse" x="0" y="0" width="24" height="16">
<path d="M0 16H24V1.90735e-06H0V16Z" fill="white"/>
</mask>
<g mask="url(#mask53_986_17709)">
<path d="M2.94433 5.46191V5.33455V5.20619H1.78833V5.33455V5.46191H2.94433Z" fill="white"/>
</g>
<mask id="mask54_986_17709" style="mask-type:luminance" maskUnits="userSpaceOnUse" x="0" y="0" width="24" height="16">
<path d="M0 16H24V1.90735e-06H0V16Z" fill="white"/>
</mask>
<g mask="url(#mask54_986_17709)">
<path d="M4.2286 5.46191V5.33455V5.20619H3.0726V5.33455V5.46191H4.2286Z" fill="white"/>
</g>
<mask id="mask55_986_17709" style="mask-type:luminance" maskUnits="userSpaceOnUse" x="0" y="0" width="24" height="16">
<path d="M0 16H24V1.90735e-06H0V16Z" fill="white"/>
</mask>
<g mask="url(#mask55_986_17709)">
<path d="M5.51315 5.46191V5.33455V5.20619H4.35715V5.33455V5.46191H5.51315Z" fill="white"/>
</g>
<mask id="mask56_986_17709" style="mask-type:luminance" maskUnits="userSpaceOnUse" x="0" y="0" width="24" height="16">
<path d="M0 16H24V1.90735e-06H0V16Z" fill="white"/>
</mask>
<g mask="url(#mask56_986_17709)">
<path d="M8.08196 5.46191V5.33455V5.20619H6.92596V5.33455V5.46191H8.08196Z" fill="white"/>
</g>
<mask id="mask57_986_17709" style="mask-type:luminance" maskUnits="userSpaceOnUse" x="0" y="0" width="24" height="16">
<path d="M0 16H24V1.90735e-06H0V16Z" fill="white"/>
</mask>
<g mask="url(#mask57_986_17709)">
<path d="M6.79742 5.46191V5.33455V5.20619H5.64142V5.33455V5.46191H6.79742Z" fill="white"/>
</g>
<mask id="mask58_986_17709" style="mask-type:luminance" maskUnits="userSpaceOnUse" x="0" y="0" width="24" height="16">
<path d="M0 16H24V1.90735e-06H0V16Z" fill="white"/>
</mask>
<g mask="url(#mask58_986_17709)">
<path d="M9.36624 5.46191V5.33455V5.20619H8.21024V5.33455V5.46191H9.36624Z" fill="white"/>
</g>
<mask id="mask59_986_17709" style="mask-type:luminance" maskUnits="userSpaceOnUse" x="0" y="0" width="24" height="16">
<path d="M0 16H24V1.90735e-06H0V16Z" fill="white"/>
</mask>
<g mask="url(#mask59_986_17709)">
<path d="M10.6515 5.46191V5.33455V5.20619H9.49454V5.33455V5.46191H10.6515Z" fill="white"/>
</g>
<mask id="mask60_986_17709" style="mask-type:luminance" maskUnits="userSpaceOnUse" x="0" y="0" width="24" height="16">
<path d="M0 16H24V1.90735e-06H0V16Z" fill="white"/>
</mask>
<g mask="url(#mask60_986_17709)">
<path d="M13.2206 5.46191V5.33455V5.20619H12.0646V5.33455V5.46191H13.2206Z" fill="white"/>
</g>
<mask id="mask61_986_17709" style="mask-type:luminance" maskUnits="userSpaceOnUse" x="0" y="0" width="24" height="16">
<path d="M0 16H24V1.90735e-06H0V16Z" fill="white"/>
</mask>
<g mask="url(#mask61_986_17709)">
<path d="M11.9356 5.46191V5.33455V5.20619H10.7796V5.33455V5.46191H11.9356Z" fill="white"/>
</g>
<mask id="mask62_986_17709" style="mask-type:luminance" maskUnits="userSpaceOnUse" x="0" y="0" width="24" height="16">
<path d="M0 16H24V1.90735e-06H0V16Z" fill="white"/>
</mask>
<g mask="url(#mask62_986_17709)">
<path d="M14.5049 5.46191V5.33455V5.20619H13.3489V5.33455V5.46191H14.5049Z" fill="white"/>
</g>
<mask id="mask63_986_17709" style="mask-type:luminance" maskUnits="userSpaceOnUse" x="0" y="0" width="24" height="16">
<path d="M0 16H24V1.90735e-06H0V16Z" fill="white"/>
</mask>
<g mask="url(#mask63_986_17709)">
<path d="M15.7892 5.46191V5.33455V5.20619H14.6332V5.33455V5.46191H15.7892Z" fill="white"/>
</g>
<mask id="mask64_986_17709" style="mask-type:luminance" maskUnits="userSpaceOnUse" x="0" y="0" width="24" height="16">
<path d="M0 16H24V1.90735e-06H0V16Z" fill="white"/>
</mask>
<g mask="url(#mask64_986_17709)">
<path d="M17.0732 5.46191V5.33455V5.20619H15.9172V5.33455V5.46191H17.0732Z" fill="white"/>
</g>
<mask id="mask65_986_17709" style="mask-type:luminance" maskUnits="userSpaceOnUse" x="0" y="0" width="24" height="16">
<path d="M0 16H24V1.90735e-06H0V16Z" fill="white"/>
</mask>
<g mask="url(#mask65_986_17709)">
<path d="M18.3585 5.46191V5.33455V5.20619H17.2025V5.33455V5.46191H18.3585Z" fill="white"/>
</g>
<mask id="mask66_986_17709" style="mask-type:luminance" maskUnits="userSpaceOnUse" x="0" y="0" width="24" height="16">
<path d="M0 16H24V1.90735e-06H0V16Z" fill="white"/>
</mask>
<g mask="url(#mask66_986_17709)">
<path d="M20.9268 5.46191V5.33455V5.20619H19.7708V5.33455V5.46191H20.9268Z" fill="white"/>
</g>
<mask id="mask67_986_17709" style="mask-type:luminance" maskUnits="userSpaceOnUse" x="0" y="0" width="24" height="16">
<path d="M0 16H24V1.90735e-06H0V16Z" fill="white"/>
</mask>
<g mask="url(#mask67_986_17709)">
<path d="M19.6425 5.46191V5.33455V5.20619H18.4865V5.33455V5.46191H19.6425Z" fill="white"/>
</g>
<mask id="mask68_986_17709" style="mask-type:luminance" maskUnits="userSpaceOnUse" x="0" y="0" width="24" height="16">
<path d="M0 16H24V1.90735e-06H0V16Z" fill="white"/>
</mask>
<g mask="url(#mask68_986_17709)">
<path d="M22.2118 5.46191V5.33455V5.20619H21.0558V5.33455V5.46191H22.2118Z" fill="white"/>
</g>
<mask id="mask69_986_17709" style="mask-type:luminance" maskUnits="userSpaceOnUse" x="0" y="0" width="24" height="16">
<path d="M0 16H24V1.90735e-06H0V16Z" fill="white"/>
</mask>
<g mask="url(#mask69_986_17709)">
<path d="M23.4961 5.46191V5.33455V5.20619H22.3401V5.33455V5.46191H23.4961Z" fill="white"/>
</g>
<mask id="mask70_986_17709" style="mask-type:luminance" maskUnits="userSpaceOnUse" x="0" y="0" width="24" height="16">
<path d="M0 16H24V1.90735e-06H0V16Z" fill="white"/>
</mask>
<g mask="url(#mask70_986_17709)">
<path d="M23.6249 5.33412V5.46149H23.9999V5.20676H23.6249V5.33412Z" fill="white"/>
</g>
<mask id="mask71_986_17709" style="mask-type:luminance" maskUnits="userSpaceOnUse" x="0" y="0" width="24" height="16">
<path d="M0 16H24V1.90735e-06H0V16Z" fill="white"/>
</mask>
<g mask="url(#mask71_986_17709)">
<path d="M0.375488 10.9219H0.246488V11.4333H0.118488V10.9219H0.000488281V11.5607H0.375488V10.9219Z" fill="white"/>
</g>
<mask id="mask72_986_17709" style="mask-type:luminance" maskUnits="userSpaceOnUse" x="0" y="0" width="24" height="16">
<path d="M0 16H24V1.90735e-06H0V16Z" fill="white"/>
</mask>
<g mask="url(#mask72_986_17709)">
<path d="M2.81533 11.4331H2.68733V10.9206H2.55833V11.4331H2.43033V10.9206H2.30133V11.1763H1.78833V11.5604H2.17333V11.4331H1.91633V11.3057H2.30133V11.5604H2.94433V10.9206H2.81533V11.4331Z" fill="white"/>
</g>
<mask id="mask73_986_17709" style="mask-type:luminance" maskUnits="userSpaceOnUse" x="0" y="0" width="24" height="16">
<path d="M0 16H24V1.90735e-06H0V16Z" fill="white"/>
</mask>
<g mask="url(#mask73_986_17709)">
<path d="M1.2743 11.3048H1.5313V11.4321H1.1453V11.1774H0.503296V11.5605H0.631296V11.3048H1.0173V11.5605H1.6593V11.1774H1.2743V11.3048Z" fill="white"/>
</g>
<mask id="mask74_986_17709" style="mask-type:luminance" maskUnits="userSpaceOnUse" x="0" y="0" width="24" height="16">
<path d="M0 16H24V1.90735e-06H0V16Z" fill="white"/>
</mask>
<g mask="url(#mask74_986_17709)">
<path d="M0.760895 11.5602H0.888895V11.4328H0.760895V11.5602Z" fill="white"/>
</g>
<mask id="mask75_986_17709" style="mask-type:luminance" maskUnits="userSpaceOnUse" x="0" y="0" width="24" height="16">
<path d="M0 16H24V1.90735e-06H0V16Z" fill="white"/>
</mask>
<g mask="url(#mask75_986_17709)">
<path d="M2.17302 10.9214H0.503021V11.0488H2.17302V10.9214Z" fill="white"/>
</g>
<mask id="mask76_986_17709" style="mask-type:luminance" maskUnits="userSpaceOnUse" x="0" y="0" width="24" height="16">
<path d="M0 16H24V1.90735e-06H0V16Z" fill="white"/>
</mask>
<g mask="url(#mask76_986_17709)">
<path d="M4.74312 10.9214H3.07312V11.0488H4.74312V10.9214Z" fill="white"/>
</g>
<mask id="mask77_986_17709" style="mask-type:luminance" maskUnits="userSpaceOnUse" x="0" y="0" width="24" height="16">
<path d="M0 16H24V1.90735e-06H0V16Z" fill="white"/>
</mask>
<g mask="url(#mask77_986_17709)">
<path d="M5.3849 11.4331H5.2569V10.9206H5.1279V11.4331H4.9999V10.9206H4.8709V11.1763H4.3569V11.5604H4.7429V11.4331H4.4859V11.3057H4.8709V11.5604H5.5129V10.9206H5.3849V11.4331Z" fill="white"/>
</g>
<mask id="mask78_986_17709" style="mask-type:luminance" maskUnits="userSpaceOnUse" x="0" y="0" width="24" height="16">
<path d="M0 16H24V1.90735e-06H0V16Z" fill="white"/>
</mask>
<g mask="url(#mask78_986_17709)">
<path d="M3.32999 11.5602H3.45799V11.4328H3.32999V11.5602Z" fill="white"/>
</g>
<mask id="mask79_986_17709" style="mask-type:luminance" maskUnits="userSpaceOnUse" x="0" y="0" width="24" height="16">
<path d="M0 16H24V1.90735e-06H0V16Z" fill="white"/>
</mask>
<g mask="url(#mask79_986_17709)">
<path d="M3.84336 11.3048H4.10036V11.4321H3.71536V11.1774H3.07236V11.5605H3.20136V11.3048H3.58636V11.5605H4.22836V11.1774H3.84336V11.3048Z" fill="white"/>
</g>
<mask id="mask80_986_17709" style="mask-type:luminance" maskUnits="userSpaceOnUse" x="0" y="0" width="24" height="16">
<path d="M0 16H24V1.90735e-06H0V16Z" fill="white"/>
</mask>
<g mask="url(#mask80_986_17709)">
<path d="M7.95373 11.4331H7.82473V10.9206H7.69673V11.4331H7.56873V10.9206H7.43973V11.1763H6.92673V11.5604H7.31073V11.4331H7.05473V11.3057H7.43973V11.5604H8.08173V10.9206H7.95373V11.4331Z" fill="white"/>
</g>
<mask id="mask81_986_17709" style="mask-type:luminance" maskUnits="userSpaceOnUse" x="0" y="0" width="24" height="16">
<path d="M0 16H24V1.90735e-06H0V16Z" fill="white"/>
</mask>
<g mask="url(#mask81_986_17709)">
<path d="M7.31094 10.9214H5.64194V11.0488H7.31094V10.9214Z" fill="white"/>
</g>
<mask id="mask82_986_17709" style="mask-type:luminance" maskUnits="userSpaceOnUse" x="0" y="0" width="24" height="16">
<path d="M0 16H24V1.90735e-06H0V16Z" fill="white"/>
</mask>
<g mask="url(#mask82_986_17709)">
<path d="M5.89905 11.5602H6.02705V11.4328H5.89905V11.5602Z" fill="white"/>
</g>
<mask id="mask83_986_17709" style="mask-type:luminance" maskUnits="userSpaceOnUse" x="0" y="0" width="24" height="16">
<path d="M0 16H24V1.90735e-06H0V16Z" fill="white"/>
</mask>
<g mask="url(#mask83_986_17709)">
<path d="M6.41217 11.3048H6.66917V11.4321H6.28417V11.1774H5.64117V11.5605H5.77017V11.3048H6.15517V11.5605H6.79717V11.1774H6.41217V11.3048Z" fill="white"/>
</g>
<mask id="mask84_986_17709" style="mask-type:luminance" maskUnits="userSpaceOnUse" x="0" y="0" width="24" height="16">
<path d="M0 16H24V1.90735e-06H0V16Z" fill="white"/>
</mask>
<g mask="url(#mask84_986_17709)">
<path d="M8.98151 11.3048H9.23751V11.4321H8.85251V11.1774H8.21051V11.5605H8.33851V11.3048H8.72451V11.5605H9.36651V11.1774H8.98151V11.3048Z" fill="white"/>
</g>
<mask id="mask85_986_17709" style="mask-type:luminance" maskUnits="userSpaceOnUse" x="0" y="0" width="24" height="16">
<path d="M0 16H24V1.90735e-06H0V16Z" fill="white"/>
</mask>
<g mask="url(#mask85_986_17709)">
<path d="M9.881 10.9214H8.211V11.0488H9.881V10.9214Z" fill="white"/>
</g>
<mask id="mask86_986_17709" style="mask-type:luminance" maskUnits="userSpaceOnUse" x="0" y="0" width="24" height="16">
<path d="M0 16H24V1.90735e-06H0V16Z" fill="white"/>
</mask>
<g mask="url(#mask86_986_17709)">
<path d="M8.4671 11.5602H8.5951V11.4328H8.4671V11.5602Z" fill="white"/>
</g>
<mask id="mask87_986_17709" style="mask-type:luminance" maskUnits="userSpaceOnUse" x="0" y="0" width="24" height="16">
<path d="M0 16H24V1.90735e-06H0V16Z" fill="white"/>
</mask>
<g mask="url(#mask87_986_17709)">
<path d="M10.5228 11.4331H10.3938V10.9206H10.2658V11.4331H10.1368V10.9206H10.0088V11.1763H9.49478V11.5604H9.87978V11.4331H9.62378V11.3057H10.0088V11.5604H10.6508V10.9206H10.5228V11.4331Z" fill="white"/>
</g>
<mask id="mask88_986_17709" style="mask-type:luminance" maskUnits="userSpaceOnUse" x="0" y="0" width="24" height="16">
<path d="M0 16H24V1.90735e-06H0V16Z" fill="white"/>
</mask>
<g mask="url(#mask88_986_17709)">
<path d="M11.0359 11.5602H11.1649V11.4328H11.0359V11.5602Z" fill="white"/>
</g>
<mask id="mask89_986_17709" style="mask-type:luminance" maskUnits="userSpaceOnUse" x="0" y="0" width="24" height="16">
<path d="M0 16H24V1.90735e-06H0V16Z" fill="white"/>
</mask>
<g mask="url(#mask89_986_17709)">
<path d="M12.4491 10.9214H10.7791V11.0488H12.4491V10.9214Z" fill="white"/>
</g>
<mask id="mask90_986_17709" style="mask-type:luminance" maskUnits="userSpaceOnUse" x="0" y="0" width="24" height="16">
<path d="M0 16H24V1.90735e-06H0V16Z" fill="white"/>
</mask>
<g mask="url(#mask90_986_17709)">
<path d="M11.5503 11.3048H11.8073V11.4321H11.4223V11.1774H10.7793V11.5605H10.9083V11.3048H11.2933V11.5605H11.9353V11.1774H11.5503V11.3048Z" fill="white"/>
</g>
<mask id="mask91_986_17709" style="mask-type:luminance" maskUnits="userSpaceOnUse" x="0" y="0" width="24" height="16">
<path d="M0 16H24V1.90735e-06H0V16Z" fill="white"/>
</mask>
<g mask="url(#mask91_986_17709)">
<path d="M13.0918 11.4331H12.9638V10.9206H12.8348V11.4331H12.7058V10.9206H12.5778V11.1763H12.0638V11.5604H12.4488V11.4331H12.1938V11.3057H12.5778V11.5604H13.2198V10.9206H13.0918V11.4331Z" fill="white"/>
</g>
<mask id="mask92_986_17709" style="mask-type:luminance" maskUnits="userSpaceOnUse" x="0" y="0" width="24" height="16">
<path d="M0 16H24V1.90735e-06H0V16Z" fill="white"/>
</mask>
<g mask="url(#mask92_986_17709)">
<path d="M15.6612 11.4331H15.5332V10.9206H15.4032V11.4331H15.2742V10.9206H15.1462V11.1763H14.6342V11.5604H15.0172V11.4331H14.7622V11.3057H15.1462V11.5604H15.7892V10.9206H15.6612V11.4331Z" fill="white"/>
</g>
<mask id="mask93_986_17709" style="mask-type:luminance" maskUnits="userSpaceOnUse" x="0" y="0" width="24" height="16">
<path d="M0 16H24V1.90735e-06H0V16Z" fill="white"/>
</mask>
<g mask="url(#mask93_986_17709)">
<path d="M13.606 11.5602H13.734V11.4328H13.606V11.5602Z" fill="white"/>
</g>
<mask id="mask94_986_17709" style="mask-type:luminance" maskUnits="userSpaceOnUse" x="0" y="0" width="24" height="16">
<path d="M0 16H24V1.90735e-06H0V16Z" fill="white"/>
</mask>
<g mask="url(#mask94_986_17709)">
<path d="M14.1191 11.3048H14.3761V11.4321H13.9911V11.1774H13.3481V11.5605H13.4771V11.3048H13.8621V11.5605H14.5051V11.1774H14.1191V11.3048Z" fill="white"/>
</g>
<mask id="mask95_986_17709" style="mask-type:luminance" maskUnits="userSpaceOnUse" x="0" y="0" width="24" height="16">
<path d="M0 16H24V1.90735e-06H0V16Z" fill="white"/>
</mask>
<g mask="url(#mask95_986_17709)">
<path d="M15.0179 10.9214H13.3489V11.0488H15.0179V10.9214Z" fill="white"/>
</g>
<mask id="mask96_986_17709" style="mask-type:luminance" maskUnits="userSpaceOnUse" x="0" y="0" width="24" height="16">
<path d="M0 16H24V1.90735e-06H0V16Z" fill="white"/>
</mask>
<g mask="url(#mask96_986_17709)">
<path d="M18.2295 11.4331H18.1015V10.9206H17.9725V11.4331H17.8445V10.9206H17.7155V11.1763H17.2025V11.5604H17.5875V11.4331H17.3315V11.3057H17.7155V11.5604H18.3575V10.9206H18.2295V11.4331Z" fill="white"/>
</g>
<mask id="mask97_986_17709" style="mask-type:luminance" maskUnits="userSpaceOnUse" x="0" y="0" width="24" height="16">
<path d="M0 16H24V1.90735e-06H0V16Z" fill="white"/>
</mask>
<g mask="url(#mask97_986_17709)">
<path d="M16.6884 11.3048H16.9454V11.4321H16.5594V11.1774H15.9174V11.5605H16.0454V11.3048H16.4314V11.5605H17.0734V11.1774H16.6884V11.3048Z" fill="white"/>
</g>
<mask id="mask98_986_17709" style="mask-type:luminance" maskUnits="userSpaceOnUse" x="0" y="0" width="24" height="16">
<path d="M0 16H24V1.90735e-06H0V16Z" fill="white"/>
</mask>
<g mask="url(#mask98_986_17709)">
<path d="M16.1741 11.5602H16.3021V11.4328H16.1741V11.5602Z" fill="white"/>
</g>
<mask id="mask99_986_17709" style="mask-type:luminance" maskUnits="userSpaceOnUse" x="0" y="0" width="24" height="16">
<path d="M0 16H24V1.90735e-06H0V16Z" fill="white"/>
</mask>
<g mask="url(#mask99_986_17709)">
<path d="M17.588 10.9214H15.918V11.0488H17.588V10.9214Z" fill="white"/>
</g>
<mask id="mask100_986_17709" style="mask-type:luminance" maskUnits="userSpaceOnUse" x="0" y="0" width="24" height="16">
<path d="M0 16H24V1.90735e-06H0V16Z" fill="white"/>
</mask>
<g mask="url(#mask100_986_17709)">
<path d="M18.7439 11.5602H18.8719V11.4328H18.7439V11.5602Z" fill="white"/>
</g>
<mask id="mask101_986_17709" style="mask-type:luminance" maskUnits="userSpaceOnUse" x="0" y="0" width="24" height="16">
<path d="M0 16H24V1.90735e-06H0V16Z" fill="white"/>
</mask>
<g mask="url(#mask101_986_17709)">
<path d="M20.7988 11.4331H20.6708V10.9206H20.5408V11.4331H20.4128V10.9206H20.2838V11.1763H19.7718V11.5604H20.1558V11.4331H19.8998V11.3057H20.2838V11.5604H20.9268V10.9206H20.7988V11.4331Z" fill="white"/>
</g>
<mask id="mask102_986_17709" style="mask-type:luminance" maskUnits="userSpaceOnUse" x="0" y="0" width="24" height="16">
<path d="M0 16H24V1.90735e-06H0V16Z" fill="white"/>
</mask>
<g mask="url(#mask102_986_17709)">
<path d="M19.2578 11.3048H19.5148V11.4321H19.1288V11.1774H18.4868V11.5605H18.6138V11.3048H19.0008V11.5605H19.6428V11.1774H19.2578V11.3048Z" fill="white"/>
</g>
<mask id="mask103_986_17709" style="mask-type:luminance" maskUnits="userSpaceOnUse" x="0" y="0" width="24" height="16">
<path d="M0 16H24V1.90735e-06H0V16Z" fill="white"/>
</mask>
<g mask="url(#mask103_986_17709)">
<path d="M20.156 10.9214H18.487V11.0488H20.156V10.9214Z" fill="white"/>
</g>
<mask id="mask104_986_17709" style="mask-type:luminance" maskUnits="userSpaceOnUse" x="0" y="0" width="24" height="16">
<path d="M0 16H24V1.90735e-06H0V16Z" fill="white"/>
</mask>
<g mask="url(#mask104_986_17709)">
<path d="M23.3681 11.4331H23.2401V10.9206H23.1101V11.4331H22.9821V10.9206H22.8531V11.1763H22.3401V11.5604H22.7241V11.4331H22.4691V11.3057H22.8531V11.5604H23.4961V10.9206H23.3681V11.4331Z" fill="white"/>
</g>
<mask id="mask105_986_17709" style="mask-type:luminance" maskUnits="userSpaceOnUse" x="0" y="0" width="24" height="16">
<path d="M0 16H24V1.90735e-06H0V16Z" fill="white"/>
</mask>
<g mask="url(#mask105_986_17709)">
<path d="M21.313 11.5602H21.441V11.4328H21.313V11.5602Z" fill="white"/>
</g>
<mask id="mask106_986_17709" style="mask-type:luminance" maskUnits="userSpaceOnUse" x="0" y="0" width="24" height="16">
<path d="M0 16H24V1.90735e-06H0V16Z" fill="white"/>
</mask>
<g mask="url(#mask106_986_17709)">
<path d="M21.8261 11.3048H22.0831V11.4321H21.6981V11.1774H21.0551V11.5605H21.1841V11.3048H21.5691V11.5605H22.2111V11.1774H21.8261V11.3048Z" fill="white"/>
</g>
<mask id="mask107_986_17709" style="mask-type:luminance" maskUnits="userSpaceOnUse" x="0" y="0" width="24" height="16">
<path d="M0 16H24V1.90735e-06H0V16Z" fill="white"/>
</mask>
<g mask="url(#mask107_986_17709)">
<path d="M22.7251 10.9214H21.0551V11.0488H22.7251V10.9214Z" fill="white"/>
</g>
<mask id="mask108_986_17709" style="mask-type:luminance" maskUnits="userSpaceOnUse" x="0" y="0" width="24" height="16">
<path d="M0 16H24V1.90735e-06H0V16Z" fill="white"/>
</mask>
<g mask="url(#mask108_986_17709)">
<path d="M23.6249 11.5603H23.7529V11.3046H23.9999V11.1772H23.6249V11.5603Z" fill="white"/>
</g>
<mask id="mask109_986_17709" style="mask-type:luminance" maskUnits="userSpaceOnUse" x="0" y="0" width="24" height="16">
<path d="M0 16H24V1.90735e-06H0V16Z" fill="white"/>
</mask>
<g mask="url(#mask109_986_17709)">
<path d="M23.6249 11.0497H23.9999V10.9224H23.6249V11.0497Z" fill="white"/>
</g>
<mask id="mask110_986_17709" style="mask-type:luminance" maskUnits="userSpaceOnUse" x="0" y="0" width="24" height="16">
<path d="M0 16H24V1.90735e-06H0V16Z" fill="white"/>
</mask>
<g mask="url(#mask110_986_17709)">
<path d="M23.881 11.5602H24V11.4328H23.881V11.5602Z" fill="white"/>
</g>
<mask id="mask111_986_17709" style="mask-type:luminance" maskUnits="userSpaceOnUse" x="0" y="0" width="24" height="16">
<path d="M0 16H24V1.90735e-06H0V16Z" fill="white"/>
</mask>
<g mask="url(#mask111_986_17709)">
<path d="M0.375488 10.6663V10.5389H0.000488281V10.7936H0.375488V10.6663Z" fill="white"/>
</g>
<mask id="mask112_986_17709" style="mask-type:luminance" maskUnits="userSpaceOnUse" x="0" y="0" width="24" height="16">
<path d="M0 16H24V1.90735e-06H0V16Z" fill="white"/>
</mask>
<g mask="url(#mask112_986_17709)">
<path d="M2.94433 10.7936V10.6663V10.5379H1.78833V10.6663V10.7936H2.94433Z" fill="white"/>
</g>
<mask id="mask113_986_17709" style="mask-type:luminance" maskUnits="userSpaceOnUse" x="0" y="0" width="24" height="16">
<path d="M0 16H24V1.90735e-06H0V16Z" fill="white"/>
</mask>
<g mask="url(#mask113_986_17709)">
<path d="M1.65978 10.7936V10.6663V10.5379H0.503784V10.6663V10.7936H1.65978Z" fill="white"/>
</g>
<mask id="mask114_986_17709" style="mask-type:luminance" maskUnits="userSpaceOnUse" x="0" y="0" width="24" height="16">
<path d="M0 16H24V1.90735e-06H0V16Z" fill="white"/>
</mask>
<g mask="url(#mask114_986_17709)">
<path d="M4.2286 10.7936V10.6663V10.5379H3.0726V10.6663V10.7936H4.2286Z" fill="white"/>
</g>
<mask id="mask115_986_17709" style="mask-type:luminance" maskUnits="userSpaceOnUse" x="0" y="0" width="24" height="16">
<path d="M0 16H24V1.90735e-06H0V16Z" fill="white"/>
</mask>
<g mask="url(#mask115_986_17709)">
<path d="M5.51315 10.7936V10.6663V10.5379H4.35715V10.6663V10.7936H5.51315Z" fill="white"/>
</g>
<mask id="mask116_986_17709" style="mask-type:luminance" maskUnits="userSpaceOnUse" x="0" y="0" width="24" height="16">
<path d="M0 16H24V1.90735e-06H0V16Z" fill="white"/>
</mask>
<g mask="url(#mask116_986_17709)">
<path d="M8.08196 10.7936V10.6663V10.5379H6.92596V10.6663V10.7936H8.08196Z" fill="white"/>
</g>
<mask id="mask117_986_17709" style="mask-type:luminance" maskUnits="userSpaceOnUse" x="0" y="0" width="24" height="16">
<path d="M0 16H24V1.90735e-06H0V16Z" fill="white"/>
</mask>
<g mask="url(#mask117_986_17709)">
<path d="M6.79742 10.7936V10.6663V10.5379H5.64142V10.6663V10.7936H6.79742Z" fill="white"/>
</g>
<mask id="mask118_986_17709" style="mask-type:luminance" maskUnits="userSpaceOnUse" x="0" y="0" width="24" height="16">
<path d="M0 16H24V1.90735e-06H0V16Z" fill="white"/>
</mask>
<g mask="url(#mask118_986_17709)">
<path d="M9.36624 10.7936V10.6663V10.5379H8.21024V10.6663V10.7936H9.36624Z" fill="white"/>
</g>
<mask id="mask119_986_17709" style="mask-type:luminance" maskUnits="userSpaceOnUse" x="0" y="0" width="24" height="16">
<path d="M0 16H24V1.90735e-06H0V16Z" fill="white"/>
</mask>
<g mask="url(#mask119_986_17709)">
<path d="M10.6515 10.7936V10.6663V10.5379H9.49454V10.6663V10.7936H10.6515Z" fill="white"/>
</g>
<mask id="mask120_986_17709" style="mask-type:luminance" maskUnits="userSpaceOnUse" x="0" y="0" width="24" height="16">
<path d="M0 16H24V1.90735e-06H0V16Z" fill="white"/>
</mask>
<g mask="url(#mask120_986_17709)">
<path d="M13.2206 10.7936V10.6663V10.5379H12.0646V10.6663V10.7936H13.2206Z" fill="white"/>
</g>
<mask id="mask121_986_17709" style="mask-type:luminance" maskUnits="userSpaceOnUse" x="0" y="0" width="24" height="16">
<path d="M0 16H24V1.90735e-06H0V16Z" fill="white"/>
</mask>
<g mask="url(#mask121_986_17709)">
<path d="M11.9356 10.7936V10.6663V10.5379H10.7796V10.6663V10.7936H11.9356Z" fill="white"/>
</g>
<mask id="mask122_986_17709" style="mask-type:luminance" maskUnits="userSpaceOnUse" x="0" y="0" width="24" height="16">
<path d="M0 16H24V1.90735e-06H0V16Z" fill="white"/>
</mask>
<g mask="url(#mask122_986_17709)">
<path d="M14.5049 10.7936V10.6663V10.5379H13.3489V10.6663V10.7936H14.5049Z" fill="white"/>
</g>
<mask id="mask123_986_17709" style="mask-type:luminance" maskUnits="userSpaceOnUse" x="0" y="0" width="24" height="16">
<path d="M0 16H24V1.90735e-06H0V16Z" fill="white"/>
</mask>
<g mask="url(#mask123_986_17709)">
<path d="M15.7892 10.7936V10.6663V10.5379H14.6332V10.6663V10.7936H15.7892Z" fill="white"/>
</g>
<mask id="mask124_986_17709" style="mask-type:luminance" maskUnits="userSpaceOnUse" x="0" y="0" width="24" height="16">
<path d="M0 16H24V1.90735e-06H0V16Z" fill="white"/>
</mask>
<g mask="url(#mask124_986_17709)">
<path d="M18.3585 10.7936V10.6663V10.5379H17.2025V10.6663V10.7936H18.3585Z" fill="white"/>
</g>
<mask id="mask125_986_17709" style="mask-type:luminance" maskUnits="userSpaceOnUse" x="0" y="0" width="24" height="16">
<path d="M0 16H24V1.90735e-06H0V16Z" fill="white"/>
</mask>
<g mask="url(#mask125_986_17709)">
<path d="M17.0732 10.7936V10.6663V10.5379H15.9172V10.6663V10.7936H17.0732Z" fill="white"/>
</g>
<mask id="mask126_986_17709" style="mask-type:luminance" maskUnits="userSpaceOnUse" x="0" y="0" width="24" height="16">
<path d="M0 16H24V1.90735e-06H0V16Z" fill="white"/>
</mask>
<g mask="url(#mask126_986_17709)">
<path d="M20.9268 10.7936V10.6663V10.5379H19.7708V10.6663V10.7936H20.9268Z" fill="white"/>
</g>
<mask id="mask127_986_17709" style="mask-type:luminance" maskUnits="userSpaceOnUse" x="0" y="0" width="24" height="16">
<path d="M0 16H24V1.90735e-06H0V16Z" fill="white"/>
</mask>
<g mask="url(#mask127_986_17709)">
<path d="M19.6425 10.7936V10.6663V10.5379H18.4865V10.6663V10.7936H19.6425Z" fill="white"/>
</g>
<mask id="mask128_986_17709" style="mask-type:luminance" maskUnits="userSpaceOnUse" x="0" y="0" width="24" height="16">
<path d="M0 16H24V1.90735e-06H0V16Z" fill="white"/>
</mask>
<g mask="url(#mask128_986_17709)">
<path d="M22.2118 10.7936V10.6663V10.5379H21.0558V10.6663V10.7936H22.2118Z" fill="white"/>
</g>
<mask id="mask129_986_17709" style="mask-type:luminance" maskUnits="userSpaceOnUse" x="0" y="0" width="24" height="16">
<path d="M0 16H24V1.90735e-06H0V16Z" fill="white"/>
</mask>
<g mask="url(#mask129_986_17709)">
<path d="M23.4961 10.7936V10.6663V10.5379H22.3401V10.6663V10.7936H23.4961Z" fill="white"/>
</g>
<mask id="mask130_986_17709" style="mask-type:luminance" maskUnits="userSpaceOnUse" x="0" y="0" width="24" height="16">
<path d="M0 16H24V1.90735e-06H0V16Z" fill="white"/>
</mask>
<g mask="url(#mask130_986_17709)">
<path d="M23.6249 10.6663V10.7936H23.9999V10.5389H23.6249V10.6663Z" fill="white"/>
</g>
</g>
<defs>
<clipPath id="clip0_986_17709">
<rect width="24" height="16" fill="white"/>
</clipPath>
</defs>
</svg>
