<svg width="20" height="20" viewBox="0 0 20 20" fill="none" xmlns="http://www.w3.org/2000/svg">
<path d="M17.5273 0.000183105L20 2.47186V17.5285L17.5303 20.0002H2.46875L0 17.5285V2.46991L2.47168 0.000183105H17.5273ZM5.44141 4.23456C5.39656 4.23456 5.36545 4.26596 5.36523 4.31171V14.8967C5.36546 14.9414 5.39657 14.9719 5.44141 14.9719H12.498C12.697 14.9719 12.8806 14.8959 13.0186 14.757L14.415 13.3312C14.553 13.1922 14.6299 13.0088 14.6299 12.8098V10.8303C14.6299 10.6323 14.5384 10.4468 14.4004 10.3098L13.7715 9.6496C13.7405 9.6346 13.7399 9.58782 13.7559 9.55682L14.4004 8.89862C14.5534 8.75962 14.6299 8.57514 14.6299 8.37714V6.39764C14.6299 6.19873 14.5533 6.01414 14.4004 5.87616L13.0186 4.4494C12.8806 4.31248 12.697 4.23457 12.498 4.23456H5.44141ZM12.4668 10.5246C12.6358 10.5536 12.7734 10.7088 12.7734 10.8918V12.7482C12.7734 12.9461 12.6051 13.1162 12.4053 13.1164H7.58984C7.38997 13.1164 7.22087 12.9627 7.2207 12.7629V10.8918C7.2207 10.6918 7.38987 10.5393 7.58984 10.5392L8.49414 10.5246H12.4668ZM12.4053 6.091C12.6043 6.091 12.7744 6.25917 12.7744 6.45917V8.31464C12.7744 8.45264 12.6822 8.5749 12.5742 8.6369C12.5594 8.63702 12.5589 8.65155 12.543 8.65155C12.512 8.66747 12.4821 8.66783 12.4512 8.6828H7.58984C7.48288 8.6828 7.39012 8.63735 7.32812 8.57538L7.29785 8.54413L7.25098 8.45331C7.21998 8.40631 7.2207 8.36064 7.2207 8.31464V6.45917C7.2207 6.33517 7.28203 6.22955 7.37402 6.15155C7.43502 6.10555 7.49684 6.091 7.58984 6.091H12.4053Z" fill="#001E28"/>
</svg>
