<svg width="24" height="16" viewBox="0 0 24 16" fill="none" xmlns="http://www.w3.org/2000/svg">
<g clip-path="url(#clip0_986_17666)">
<mask id="mask0_986_17666" style="mask-type:luminance" maskUnits="userSpaceOnUse" x="0" y="0" width="24" height="16">
<path d="M0 16H24V1.90735e-06H0V16Z" fill="white"/>
</mask>
<g mask="url(#mask0_986_17666)">
<path d="M4.79051 0.994885C4.94551 0.994885 5.09751 1.00682 5.24651 1.02971C5.67151 0.827721 6.14651 0.715283 6.64951 0.715283C8.45351 0.715283 9.91551 2.17001 9.91551 3.96503C9.91551 5.76006 8.45351 7.21578 6.64951 7.21578C6.14651 7.21578 5.67151 7.10235 5.24651 6.90135C5.09751 6.92324 4.94551 6.93518 4.79051 6.93518C3.14251 6.93518 1.80551 5.60583 1.80551 3.96503C1.80551 2.32424 3.14251 0.994885 4.79051 0.994885ZM-0.000488281 8.00085H23.9995V-0.00014019H-0.000488281V8.00085Z" fill="#EE2F43"/>
</g>
<mask id="mask1_986_17666" style="mask-type:luminance" maskUnits="userSpaceOnUse" x="0" y="0" width="24" height="16">
<path d="M0 16H24V1.90735e-06H0V16Z" fill="white"/>
</mask>
<g mask="url(#mask1_986_17666)">
<path d="M0 16H24V8H0V16Z" fill="#FAFAFA"/>
</g>
<mask id="mask2_986_17666" style="mask-type:luminance" maskUnits="userSpaceOnUse" x="0" y="0" width="24" height="16">
<path d="M0 16H24V1.90735e-06H0V16Z" fill="white"/>
</mask>
<g mask="url(#mask2_986_17666)">
<path d="M4.79066 6.93542C4.94566 6.93542 5.09766 6.92348 5.24666 6.9006C4.14466 6.37821 3.38266 5.2608 3.38266 3.96528C3.38266 2.66975 4.14466 1.55135 5.24666 1.02896C5.09766 1.00707 4.94566 0.995127 4.79066 0.995127C3.14266 0.995127 1.80566 2.32448 1.80566 3.96528C1.80566 5.60607 3.14266 6.93542 4.79066 6.93542Z" fill="white"/>
</g>
<mask id="mask3_986_17666" style="mask-type:luminance" maskUnits="userSpaceOnUse" x="0" y="0" width="24" height="16">
<path d="M0 16H24V1.90735e-06H0V16Z" fill="white"/>
</mask>
<g mask="url(#mask3_986_17666)">
<path d="M4.92432 3.14442L5.08732 2.5892L5.25432 3.14343L5.81032 3.13248L5.35732 3.4698L5.53832 4.01905L5.09132 3.67378L4.64732 4.02303L4.82332 3.47278L4.36832 3.13945L4.92432 3.14442ZM6.74832 1.35238L6.91532 1.90562L7.47132 1.89567L7.01832 2.23298L7.20032 2.78223L6.75332 2.43696L6.30932 2.78721L6.48532 2.23597L6.02932 1.90263L6.58632 1.90761L6.74832 1.35238ZM8.24732 3.14442L8.40932 2.5892L8.57732 3.14343L9.13332 3.13248L8.68032 3.4698L8.86132 4.01905L8.41432 3.67378L7.97032 4.02303L8.14732 3.47278L7.69132 3.13945L8.24732 3.14442ZM8.24232 5.96333L7.79532 5.61805L7.35132 5.9683L7.52732 5.41706L7.07132 5.08472L7.62832 5.0897L7.79032 4.53348L7.95732 5.08771L8.51332 5.07676L8.06132 5.41507L8.24232 5.96333ZM6.16532 5.96333L5.71832 5.61805L5.27432 5.9683L5.45032 5.41706L4.99432 5.08472L5.55132 5.0897L5.71432 4.53348L5.88132 5.08771L6.43732 5.07676L5.98432 5.41507L6.16532 5.96333ZM3.38232 3.96532C3.38232 5.26084 4.14432 6.37825 5.24632 6.90064C5.67132 7.10263 6.14732 7.21606 6.64932 7.21606C8.45332 7.21606 9.91632 5.76034 9.91632 3.96532C9.91632 2.17029 8.45332 0.715568 6.64932 0.715568C6.14732 0.715568 5.67132 0.828005 5.24632 1.03C4.14432 1.55139 3.38232 2.6698 3.38232 3.96532Z" fill="#EE2F43"/>
</g>
<mask id="mask4_986_17666" style="mask-type:luminance" maskUnits="userSpaceOnUse" x="0" y="0" width="24" height="16">
<path d="M0 16H24V1.90735e-06H0V16Z" fill="white"/>
</mask>
<g mask="url(#mask4_986_17666)">
<path d="M4.64765 4.02332L5.09165 3.67307L5.53865 4.01934L5.35765 3.47008L5.81065 3.13277L5.25365 3.14272L5.08665 2.58948L4.92465 3.14471L4.36865 3.13973L4.82365 3.47307L4.64765 4.02332Z" fill="white"/>
</g>
<mask id="mask5_986_17666" style="mask-type:luminance" maskUnits="userSpaceOnUse" x="0" y="0" width="24" height="16">
<path d="M0 16H24V1.90735e-06H0V16Z" fill="white"/>
</mask>
<g mask="url(#mask5_986_17666)">
<path d="M6.02979 1.90304L6.48579 2.23538L6.30879 2.78662L6.75279 2.43737L7.19978 2.78264L7.01879 2.23339L7.47179 1.89607L6.91579 1.90602L6.74779 1.3518L6.58579 1.90702L6.02979 1.90304Z" fill="white"/>
</g>
<mask id="mask6_986_17666" style="mask-type:luminance" maskUnits="userSpaceOnUse" x="0" y="0" width="24" height="16">
<path d="M0 16H24V1.90735e-06H0V16Z" fill="white"/>
</mask>
<g mask="url(#mask6_986_17666)">
<path d="M7.97016 4.02332L8.41416 3.67307L8.86116 4.01934L8.68016 3.47008L9.13316 3.13277L8.57716 3.14272L8.40916 2.58948L8.24716 3.14471L7.69116 3.13973L8.14716 3.47307L7.97016 4.02332Z" fill="white"/>
</g>
<mask id="mask7_986_17666" style="mask-type:luminance" maskUnits="userSpaceOnUse" x="0" y="0" width="24" height="16">
<path d="M0 16H24V1.90735e-06H0V16Z" fill="white"/>
</mask>
<g mask="url(#mask7_986_17666)">
<path d="M5.881 5.08779L5.714 4.53356L5.551 5.08878L4.995 5.0848L5.451 5.41714L5.275 5.96838L5.718 5.61814L6.166 5.96341L5.984 5.41515L6.43699 5.07684L5.881 5.08779Z" fill="white"/>
</g>
<mask id="mask8_986_17666" style="mask-type:luminance" maskUnits="userSpaceOnUse" x="0" y="0" width="24" height="16">
<path d="M0 16H24V1.90735e-06H0V16Z" fill="white"/>
</mask>
<g mask="url(#mask8_986_17666)">
<path d="M7.95741 5.08779L7.79041 4.53356L7.62741 5.08878L7.07141 5.0848L7.52741 5.41714L7.35141 5.96838L7.79441 5.61814L8.24241 5.96341L8.06141 5.41515L8.51341 5.07684L7.95741 5.08779Z" fill="white"/>
</g>
</g>
<defs>
<clipPath id="clip0_986_17666">
<rect width="24" height="16" fill="white"/>
</clipPath>
</defs>
</svg>
