<svg width="24" height="16" viewBox="0 0 24 16" fill="none" xmlns="http://www.w3.org/2000/svg">
<g clip-path="url(#clip0_986_17630)">
<mask id="mask0_986_17630" style="mask-type:luminance" maskUnits="userSpaceOnUse" x="0" y="0" width="24" height="16">
<path d="M0 16H24V1.90735e-06H0V16Z" fill="white"/>
</mask>
<g mask="url(#mask0_986_17630)">
<path d="M10.7773 8.93677H10.7463C10.6723 8.94075 10.6783 8.97259 10.7453 9.21537C10.8213 9.49398 10.9853 9.51587 10.9853 9.24721C10.9853 9.04622 10.9113 8.93677 10.7773 8.93677Z" fill="#FAFAFA"/>
</g>
<mask id="mask1_986_17630" style="mask-type:luminance" maskUnits="userSpaceOnUse" x="0" y="0" width="24" height="16">
<path d="M0 16H24V1.90735e-06H0V16Z" fill="white"/>
</mask>
<g mask="url(#mask1_986_17630)">
<path d="M12.7353 5.9458C12.8023 5.9458 12.8723 5.90799 12.8873 5.86023C12.9363 5.72292 12.9233 5.67615 12.8243 5.68013C12.8123 5.68013 12.7973 5.68212 12.7813 5.68411C12.6833 5.69605 12.6403 5.73585 12.6303 5.82341C12.6163 5.92192 12.6373 5.9458 12.7353 5.9458Z" fill="#FAFAFA"/>
</g>
<mask id="mask2_986_17630" style="mask-type:luminance" maskUnits="userSpaceOnUse" x="0" y="0" width="24" height="16">
<path d="M0 16H24V1.90735e-06H0V16Z" fill="white"/>
</mask>
<g mask="url(#mask2_986_17630)">
<path d="M10.8867 6.34031C10.8867 6.3413 10.8877 6.34528 10.8877 6.34628V6.34926C10.8877 6.35026 10.8887 6.35125 10.8887 6.35225C10.8887 6.35225 10.8887 6.35424 10.8897 6.35523C10.8897 6.35523 10.8897 6.35722 10.8907 6.35722C10.8917 6.36021 10.8947 6.36319 10.8977 6.36618V6.36717C10.9387 6.40299 11.0837 6.36319 11.2207 6.27264C11.3737 6.17016 11.4487 5.94628 11.3287 5.94628H11.3187C11.1777 5.95822 10.8897 6.21792 10.8867 6.34031Z" fill="#FAFAFA"/>
</g>
<mask id="mask3_986_17630" style="mask-type:luminance" maskUnits="userSpaceOnUse" x="0" y="0" width="24" height="16">
<path d="M0 16H24V1.90735e-06H0V16Z" fill="white"/>
</mask>
<g mask="url(#mask3_986_17630)">
<path d="M13.2392 8.86138C13.3632 8.96088 13.5642 8.9569 13.7002 8.85242C13.9122 8.68924 13.8062 8.5579 13.6122 8.56685C13.5252 8.56984 13.4202 8.60168 13.3172 8.67034C13.1542 8.77979 13.1492 8.78974 13.2392 8.86138Z" fill="#FAFAFA"/>
</g>
<mask id="mask4_986_17630" style="mask-type:luminance" maskUnits="userSpaceOnUse" x="0" y="0" width="24" height="16">
<path d="M0 16H24V1.90735e-06H0V16Z" fill="white"/>
</mask>
<g mask="url(#mask4_986_17630)">
<path d="M10.9009 5.76312L10.9029 5.76411L10.9069 5.76511C10.9219 5.7671 10.9499 5.74919 10.9949 5.71635C11.0549 5.67257 11.1119 5.60889 11.1229 5.57506L11.1239 5.57108L11.1249 5.5661V5.56312V5.55814L11.1239 5.55615C11.1229 5.55317 11.1209 5.54919 11.1199 5.5462L11.1189 5.54421L11.1169 5.54222C11.1019 5.52332 11.0649 5.51138 11.0139 5.51138C11.0079 5.51138 11.0009 5.51038 10.9949 5.51138C10.9059 5.51436 10.8859 5.54421 10.8859 5.65367C10.8859 5.71337 10.8879 5.7472 10.8979 5.76013L10.9009 5.76312Z" fill="#FAFAFA"/>
</g>
<mask id="mask5_986_17630" style="mask-type:luminance" maskUnits="userSpaceOnUse" x="0" y="0" width="24" height="16">
<path d="M0 16H24V1.90735e-06H0V16Z" fill="white"/>
</mask>
<g mask="url(#mask5_986_17630)">
<path d="M12.7208 6.76013C12.6758 6.85267 12.6898 6.87357 12.8298 6.91834C13.1168 7.00889 13.2008 6.99197 13.2288 6.83973C13.2468 6.7263 13.2278 6.68949 13.1238 6.6457C13.0678 6.62182 13.0098 6.61187 12.9548 6.61486C12.8528 6.61983 12.7638 6.67158 12.7208 6.76013Z" fill="#FAFAFA"/>
</g>
<mask id="mask6_986_17630" style="mask-type:luminance" maskUnits="userSpaceOnUse" x="0" y="0" width="24" height="16">
<path d="M0 16H24V1.90735e-06H0V16Z" fill="white"/>
</mask>
<g mask="url(#mask6_986_17630)">
<path d="M10.5557 8.14767C10.5337 8.12479 10.4877 8.10489 10.4177 8.08996C10.3757 8.082 10.3117 8.07802 10.2397 8.07802C10.0257 8.07802 9.73472 8.11185 9.69972 8.14767L9.69872 8.14867L9.69772 8.15066L9.69672 8.15165V8.15364V8.15464C9.69772 8.17056 9.73172 8.25514 9.77272 8.3427C9.84272 8.49096 9.86672 8.5029 10.0337 8.47106C10.1347 8.45215 10.2937 8.39543 10.3877 8.34568C10.5007 8.28698 10.5617 8.23524 10.5697 8.19245C10.5707 8.18648 10.5707 8.17951 10.5697 8.17354C10.5697 8.17056 10.5687 8.16757 10.5677 8.16459C10.5647 8.15862 10.5607 8.15265 10.5557 8.14767Z" fill="#FAFAFA"/>
</g>
<mask id="mask7_986_17630" style="mask-type:luminance" maskUnits="userSpaceOnUse" x="0" y="0" width="24" height="16">
<path d="M0 16H24V1.90735e-06H0V16Z" fill="white"/>
</mask>
<g mask="url(#mask7_986_17630)">
<path d="M13.4493 7.5102C13.5773 7.61269 13.7333 7.57189 13.7523 7.4296C13.7653 7.31816 13.6653 7.24851 13.5663 7.25647C13.5133 7.26045 13.4633 7.28533 13.4283 7.33707C13.3703 7.42562 13.3723 7.44851 13.4493 7.5102Z" fill="#FAFAFA"/>
</g>
<mask id="mask8_986_17630" style="mask-type:luminance" maskUnits="userSpaceOnUse" x="0" y="0" width="24" height="16">
<path d="M0 16H24V1.90735e-06H0V16Z" fill="white"/>
</mask>
<g mask="url(#mask8_986_17630)">
<path d="M13.4238 11.81C13.2378 11.5951 13.1998 11.5782 12.8848 11.5404C12.7058 11.5205 12.5418 11.5145 12.5108 11.5274C12.5098 11.5274 12.5088 11.5274 12.5088 11.5284L12.5078 11.5294C12.5078 11.5294 12.5068 11.5294 12.5068 11.5304C12.5058 11.5304 12.5058 11.5314 12.5058 11.5314C12.5048 11.5324 12.5038 11.5334 12.5038 11.5344L12.5028 11.5354C12.5028 11.5364 12.5018 11.5384 12.5018 11.5384C12.5008 11.5404 12.5008 11.5404 12.5008 11.5414C12.4958 11.5682 12.5118 11.62 12.5458 11.6697C12.6018 11.7573 12.6258 11.821 12.6218 11.8508C12.6218 11.8518 12.6228 11.8548 12.6218 11.8558C12.6218 11.8568 12.6218 11.8578 12.6208 11.8588C12.6208 11.8598 12.6198 11.8608 12.6198 11.8608V11.8637C12.6188 11.8637 12.6188 11.8647 12.6188 11.8657L12.6178 11.8667C12.6168 11.8667 12.6168 11.8677 12.6168 11.8677C12.6158 11.8677 12.6158 11.8687 12.6148 11.8687C12.6148 11.8687 12.6148 11.8697 12.6138 11.8697C12.6138 11.8707 12.6118 11.8707 12.6118 11.8717C12.6118 11.8717 12.6108 11.8717 12.6098 11.8717L12.6088 11.8727H12.6048H12.6018C12.5718 11.8727 12.5208 11.8409 12.4458 11.7702C12.3508 11.6787 12.2048 11.5662 12.1238 11.5185C12.0388 11.4707 11.9768 11.3911 11.9768 11.3334C11.9768 11.202 11.8888 11.1682 11.7118 11.2359C11.6118 11.2727 11.5368 11.2677 11.4548 11.219C11.3068 11.1324 11.1098 11.1861 10.9138 11.3682C10.6908 11.5752 10.3938 11.7065 10.1528 11.7075C9.92883 11.7085 9.70883 11.805 9.59883 11.9513C9.57983 11.9762 9.55983 11.9961 9.54083 12.01H13.6528C13.5908 11.9831 13.5158 11.9155 13.4238 11.81Z" fill="#FAFAFA"/>
</g>
<mask id="mask9_986_17630" style="mask-type:luminance" maskUnits="userSpaceOnUse" x="0" y="0" width="24" height="16">
<path d="M0 16H24V1.90735e-06H0V16Z" fill="white"/>
</mask>
<g mask="url(#mask9_986_17630)">
<path d="M10.2763 6.74412C10.2703 6.74412 10.2643 6.74512 10.2583 6.74611C10.1803 6.75308 10.1293 6.76701 10.1033 6.79188L10.1003 6.79487L10.0973 6.79885C10.0953 6.80183 10.0923 6.80581 10.0913 6.80979C10.0713 6.85158 10.0993 6.91825 10.1703 7.01775C10.2823 7.17596 10.3053 7.18591 10.4423 7.13318L10.5913 7.07547L10.4913 6.90532C10.4203 6.78392 10.3653 6.74213 10.2763 6.74412Z" fill="#FAFAFA"/>
</g>
<mask id="mask10_986_17630" style="mask-type:luminance" maskUnits="userSpaceOnUse" x="0" y="0" width="24" height="16">
<path d="M0 16H24V1.90735e-06H0V16Z" fill="white"/>
</mask>
<g mask="url(#mask10_986_17630)">
<path d="M14.12 9.11456C14.208 9.12749 14.294 9.14043 14.309 9.14441H14.31H14.312H14.313C14.335 9.14043 14.396 9.0857 14.458 9.01307C14.576 8.87575 14.577 8.87078 14.481 8.79516C14.43 8.75336 14.363 8.72053 14.334 8.72053C14.331 8.72053 14.327 8.71953 14.323 8.72053C14.22 8.73147 13.974 8.9265 13.96 9.0071C13.96 9.01008 13.959 9.01108 13.959 9.01307C13.959 9.06182 14.02 9.10063 14.12 9.11456Z" fill="#FAFAFA"/>
</g>
<mask id="mask11_986_17630" style="mask-type:luminance" maskUnits="userSpaceOnUse" x="0" y="0" width="24" height="16">
<path d="M0 16H24V1.90735e-06H0V16Z" fill="white"/>
</mask>
<g mask="url(#mask11_986_17630)">
<path d="M11.5547 6.00844L11.5557 6.00944L11.5577 6.01043C11.5797 6.02138 11.6867 6.00844 11.8027 5.97859C11.9877 5.93083 12.0267 5.89998 12.0267 5.7975C12.0267 5.71292 11.9997 5.67312 11.9317 5.67809C11.8817 5.68207 11.8077 5.71192 11.7057 5.76566C11.5467 5.84824 11.4907 5.93879 11.5547 6.00844Z" fill="#FAFAFA"/>
</g>
<mask id="mask12_986_17630" style="mask-type:luminance" maskUnits="userSpaceOnUse" x="0" y="0" width="24" height="16">
<path d="M0 16H24V1.90735e-06H0V16Z" fill="white"/>
</mask>
<g mask="url(#mask12_986_17630)">
<path d="M12.3272 6.54921C12.2572 6.64076 12.2252 6.69648 12.2342 6.72732V6.7313L12.2352 6.73329L12.2362 6.73528L12.2392 6.73727V6.73827C12.2552 6.75618 12.2952 6.75916 12.3602 6.7512C12.4452 6.74026 12.5022 6.69648 12.5142 6.63379C12.5332 6.51936 12.4972 6.45767 12.4392 6.46464C12.4072 6.46862 12.3672 6.49548 12.3272 6.54921Z" fill="#FAFAFA"/>
</g>
<mask id="mask13_986_17630" style="mask-type:luminance" maskUnits="userSpaceOnUse" x="0" y="0" width="24" height="16">
<path d="M0 16H24V1.90735e-06H0V16Z" fill="white"/>
</mask>
<g mask="url(#mask13_986_17630)">
<path d="M11.9942 6.48946C11.9522 6.49244 11.8662 6.51931 11.7942 6.55115L11.6542 6.61384L11.7782 6.65563C11.8462 6.67752 11.9092 6.69841 11.9182 6.7014L11.9202 6.70239L11.9222 6.7014C11.9372 6.69841 11.9832 6.67851 12.0312 6.65065C12.1342 6.58995 12.1162 6.48946 12.0012 6.48946H11.9942Z" fill="#FAFAFA"/>
</g>
<mask id="mask14_986_17630" style="mask-type:luminance" maskUnits="userSpaceOnUse" x="0" y="0" width="24" height="16">
<path d="M0 16H24V1.90735e-06H0V16Z" fill="white"/>
</mask>
<g mask="url(#mask14_986_17630)">
<path d="M12.3232 5.8374C12.4452 5.8374 12.4752 5.81651 12.4632 5.74188C12.4522 5.68218 12.4002 5.64636 12.3232 5.64636H12.3202C12.2452 5.64735 12.1942 5.68317 12.1832 5.74188C12.1772 5.77472 12.1802 5.79661 12.1962 5.81153C12.2152 5.83044 12.2542 5.8374 12.3232 5.8374Z" fill="#FAFAFA"/>
</g>
<mask id="mask15_986_17630" style="mask-type:luminance" maskUnits="userSpaceOnUse" x="0" y="0" width="24" height="16">
<path d="M0 16H24V1.90735e-06H0V16Z" fill="white"/>
</mask>
<g mask="url(#mask15_986_17630)">
<path d="M11.9951 7.73376C11.9111 7.86411 11.9461 7.98053 12.0911 8.05416C12.2241 8.12182 12.2941 8.05913 12.2511 7.90888C12.2321 7.8462 12.1821 7.75664 12.1411 7.71087C12.1051 7.67306 12.0871 7.65416 12.0671 7.65615C12.0461 7.65814 12.0271 7.68401 11.9951 7.73376Z" fill="#FAFAFA"/>
</g>
<mask id="mask16_986_17630" style="mask-type:luminance" maskUnits="userSpaceOnUse" x="0" y="0" width="24" height="16">
<path d="M0 16H24V1.90735e-06H0V16Z" fill="white"/>
</mask>
<g mask="url(#mask16_986_17630)">
<path d="M10.8363 6.65223H10.8273C10.7303 6.65323 10.6713 6.67015 10.6483 6.70895C10.6223 6.75174 10.6383 6.82338 10.6913 6.93184C10.7363 7.02338 10.7573 7.02935 10.8273 6.97164C10.8733 6.93383 10.9383 6.86616 10.9723 6.82139C11.0733 6.68905 11.0453 6.65223 10.8363 6.65223Z" fill="#FAFAFA"/>
</g>
<mask id="mask17_986_17630" style="mask-type:luminance" maskUnits="userSpaceOnUse" x="0" y="0" width="24" height="16">
<path d="M0 16H24V1.90735e-06H0V16Z" fill="white"/>
</mask>
<g mask="url(#mask17_986_17630)">
<path d="M9.44869 11.9889C9.44869 11.9003 9.7127 11.6526 9.84069 11.6217C10.1867 11.5371 10.3777 11.4177 10.5927 11.1501C11.0867 10.5351 11.1247 10.161 10.7137 9.94708C10.5367 9.85355 10.5347 9.85355 10.0297 10.0824C9.7507 10.2078 9.41169 10.3451 9.27569 10.3849C8.93469 10.4854 8.5357 10.4804 8.45669 10.3749C8.42369 10.3322 8.4067 10.2854 8.41869 10.2675L8.41969 10.2655C8.41969 10.2655 8.41969 10.2645 8.42069 10.2645C8.42069 10.2635 8.42169 10.2635 8.42269 10.2635C8.45369 10.2436 8.69569 10.162 8.97469 10.0794C9.73469 9.85355 10.1377 9.56897 9.89669 9.42668C9.74069 9.33514 9.55269 9.363 9.35869 9.50827C9.15069 9.66449 8.4747 9.91524 8.26069 9.91524C8.18169 9.91524 8.08269 9.87643 8.03969 9.82967C7.99469 9.77992 7.96969 9.75106 7.96969 9.73713V9.73315C7.96969 9.73215 7.97069 9.73215 7.97069 9.73016C7.97069 9.73016 7.97169 9.73016 7.97169 9.72917C7.97269 9.72917 7.97369 9.72917 7.97369 9.72917C7.98769 9.7222 8.02969 9.72718 8.10469 9.73912C8.22269 9.75802 8.3027 9.70728 8.58169 9.42967C8.78969 9.2227 9.05569 9.02469 9.28169 8.91026C9.5877 8.75504 9.64769 8.70529 9.64769 8.59584C9.64769 8.5232 9.60269 8.42071 9.54969 8.36698C9.45569 8.27345 9.4437 8.27643 9.21069 8.43962C9.07769 8.53315 8.91369 8.60977 8.84669 8.60977C8.75469 8.60977 8.59069 8.52021 8.56569 8.47444C8.56569 8.47345 8.56469 8.47245 8.56469 8.47245C8.56469 8.47146 8.56369 8.47046 8.56369 8.47046C8.56369 8.46947 8.56369 8.46748 8.56269 8.46648V8.4635V8.46151C8.56269 8.46051 8.56369 8.45952 8.56369 8.45952V8.45852L8.56469 8.45753L8.56569 8.45653L8.56669 8.45554C8.57169 8.45156 8.57969 8.44957 8.59369 8.44957C8.62769 8.44857 8.77669 8.32618 8.92469 8.17892C9.23469 7.87146 9.30869 7.8227 9.54769 7.77295C9.6677 7.74808 9.77769 7.66449 9.90369 7.50429C10.0827 7.27345 10.0837 7.26847 10.0077 7.09335C9.94469 6.95205 9.90769 6.9232 9.82469 6.95206C9.4557 7.07842 9.20069 7.08638 9.20069 6.97196C9.20069 6.96997 9.20169 6.96698 9.20169 6.964C9.22869 6.8834 9.61969 6.62071 9.92269 6.4834C10.1077 6.39882 10.1937 6.32618 10.2147 6.23763C10.2447 6.10429 10.4697 5.94609 10.6277 5.94609C10.7587 5.94609 10.7917 5.89335 10.7347 5.77693C10.6977 5.70031 10.6507 5.68539 10.5387 5.71026C10.4747 5.7242 10.4187 5.72221 10.3987 5.70827C10.3977 5.70728 10.3967 5.70628 10.3957 5.70628L10.3947 5.70529L10.3937 5.70429L10.3927 5.7033C10.3927 5.7023 10.3927 5.70131 10.3917 5.70031C10.3917 5.70031 10.3917 5.69832 10.3907 5.69733V5.69534V5.69434V5.69036C10.3917 5.68937 10.3917 5.68738 10.3917 5.68738C10.3927 5.68539 10.3927 5.6824 10.3937 5.68141C10.4277 5.60678 10.6827 5.42071 10.8557 5.35007C11.0357 5.27544 11.2617 5.09832 11.2817 5.02171V5.01474C11.2827 5.01375 11.2817 5.01275 11.2817 5.01176C11.2817 4.98091 11.2467 4.97096 11.2037 4.98887C11.1597 5.00678 11.0657 5.03763 10.9927 5.05653L10.8617 5.09136L10.9857 4.94211C11.0537 4.85952 11.2247 4.71026 11.3667 4.60977C11.5097 4.50927 11.6857 4.32917 11.7587 4.20877L11.8907 3.98887H-0.000305176V12.0098H9.45169C9.44969 12.0048 9.44869 11.9978 9.44869 11.9889Z" fill="#FAFAFA"/>
</g>
<mask id="mask18_986_17630" style="mask-type:luminance" maskUnits="userSpaceOnUse" x="0" y="0" width="24" height="16">
<path d="M0 16H24V1.90735e-06H0V16Z" fill="white"/>
</mask>
<g mask="url(#mask18_986_17630)">
<path d="M11.9874 4.20552C12.0974 4.45229 12.3724 4.73587 12.5354 4.77368C12.5954 4.78761 12.7704 4.82642 12.9224 4.85826C13.1254 4.90105 13.3014 4.99657 13.5914 5.21746L13.9844 5.51896L13.7114 5.50403C13.5754 5.49607 13.4624 5.50204 13.4414 5.51697V5.51796C13.4404 5.51796 13.4404 5.51896 13.4404 5.51896L13.4394 5.51995V5.52194V5.52393C13.4394 5.52592 13.4404 5.52791 13.4414 5.5299C13.4794 5.60851 13.9684 5.95577 14.1504 6.02841L14.3314 6.10105L14.0574 6.10403C13.9084 6.10503 13.7294 6.0702 13.6614 6.02741C13.4934 5.92194 13.2344 5.92294 13.1974 6.02941C13.1754 6.0901 13.2294 6.14284 13.3944 6.22045C13.5194 6.27916 13.7484 6.4513 13.9024 6.60254C14.0564 6.75478 14.3994 6.99557 14.6704 7.14483C14.9664 7.30801 15.1014 7.40552 15.0714 7.44433C15.0424 7.47816 14.8824 7.46722 14.5914 7.41846C14.3304 7.37468 14.1764 7.3707 14.1454 7.40552C14.1284 7.42542 14.1174 7.44334 14.1154 7.46125C14.1144 7.46523 14.1144 7.4712 14.1154 7.47617C14.1154 7.48115 14.1184 7.48911 14.1204 7.49508C14.1474 7.54582 14.2534 7.5906 14.4434 7.63139C14.5984 7.66523 14.8814 7.74085 15.0684 7.80154C15.5384 7.95279 15.4444 8.03139 14.7614 8.05826C14.2574 8.07816 14.0764 8.12891 14.1354 8.23537C14.1354 8.23537 14.1354 8.23736 14.1364 8.23736L14.1394 8.24134C14.1674 8.26523 14.2594 8.28413 14.3614 8.28413C14.5744 8.28413 14.7924 8.38463 14.9044 8.53488C14.9444 8.58662 15.1484 8.7697 15.3604 8.94284L15.7454 9.25727L15.5704 9.29309C15.4324 9.32194 15.3364 9.29607 15.1224 9.17766C14.8564 9.0304 14.8434 9.02841 14.6754 9.11597C14.3814 9.2712 14.4484 9.36572 15.0894 9.70602C15.7344 10.0473 16.0774 10.3309 16.0264 10.4772C15.9834 10.6005 15.8004 10.5906 15.6194 10.4563C15.5374 10.3946 15.3374 10.2672 15.1744 10.1707C14.8824 10.0005 14.8654 9.99657 14.2844 10.0095C13.7444 10.0214 13.6704 10.0105 13.4314 9.88712C13.1174 9.72393 13.0474 9.71995 12.9194 9.86124C12.8364 9.95179 12.8194 10.0413 12.8204 10.3916C12.8224 10.9767 12.9004 11.1309 13.4094 11.5538C13.6334 11.7399 13.8204 11.917 13.8314 11.9528V11.9538V11.9568V11.9588V11.9617C13.8314 11.9617 13.8304 11.9637 13.8294 11.9637C13.8254 11.9806 13.8054 11.9986 13.7794 12.0105H24.0004V3.9896H11.8904L11.9874 4.20552Z" fill="#FAFAFA"/>
</g>
<mask id="mask19_986_17630" style="mask-type:luminance" maskUnits="userSpaceOnUse" x="0" y="0" width="24" height="16">
<path d="M0 16H24V1.90735e-06H0V16Z" fill="white"/>
</mask>
<g mask="url(#mask19_986_17630)">
<path d="M11.3032 7.85477L11.3052 7.85278C11.3072 7.85079 11.3092 7.8488 11.3112 7.84581L11.3132 7.84382L11.3142 7.84183C11.3142 7.84183 11.3162 7.83885 11.3172 7.83686L11.3192 7.83288C11.3192 7.83288 11.3192 7.8289 11.3202 7.82691V7.81895C11.3212 7.79208 11.3022 7.75327 11.2552 7.71447C11.1862 7.65775 11.1172 7.62989 11.0752 7.63487C11.0502 7.63885 11.0352 7.65377 11.0352 7.68263V7.68462V7.68661C11.0392 7.71646 11.0872 7.77417 11.1442 7.81795C11.2142 7.87168 11.2742 7.87666 11.3032 7.85477Z" fill="#FAFAFA"/>
</g>
<mask id="mask20_986_17630" style="mask-type:luminance" maskUnits="userSpaceOnUse" x="0" y="0" width="24" height="16">
<path d="M0 16H24V1.90735e-06H0V16Z" fill="white"/>
</mask>
<g mask="url(#mask20_986_17630)">
<path d="M11.3408 9.10863C11.3088 9.10365 11.2858 9.09967 11.2708 9.10166C11.2638 9.10266 11.2588 9.10465 11.2558 9.10763L11.2528 9.11161C11.2448 9.12952 11.2648 9.1733 11.3078 9.26385C11.3458 9.34345 11.3878 9.38425 11.4218 9.38823C11.4238 9.38922 11.4278 9.38823 11.4308 9.38823C11.4328 9.38823 11.4348 9.38823 11.4368 9.38723C11.4408 9.38624 11.4448 9.38425 11.4478 9.38226L11.4508 9.38027L11.4568 9.37529C11.4578 9.3733 11.4598 9.37032 11.4618 9.36833C11.4778 9.34345 11.4848 9.2947 11.4728 9.22803C11.4628 9.17032 11.4038 9.11858 11.3408 9.10863Z" fill="#FAFAFA"/>
</g>
<mask id="mask21_986_17630" style="mask-type:luminance" maskUnits="userSpaceOnUse" x="0" y="0" width="24" height="16">
<path d="M0 16H24V1.90735e-06H0V16Z" fill="white"/>
</mask>
<g mask="url(#mask21_986_17630)">
<path d="M12.4131 7.86103C12.3911 7.86401 12.3721 7.88988 12.3721 7.94361C12.3721 8.05705 12.4131 8.12073 12.4831 8.12073H12.4841H12.4871H12.4881L12.4891 8.11973C12.4901 8.11874 12.4911 8.11874 12.4921 8.11874C12.4921 8.11774 12.4931 8.11774 12.4941 8.11774L12.4951 8.11675C12.5131 8.10182 12.5191 8.05605 12.5131 8.00331C12.4991 7.91078 12.4501 7.85605 12.4131 7.86103Z" fill="#FAFAFA"/>
</g>
<mask id="mask22_986_17630" style="mask-type:luminance" maskUnits="userSpaceOnUse" x="0" y="0" width="24" height="16">
<path d="M0 16H24V1.90735e-06H0V16Z" fill="white"/>
</mask>
<g mask="url(#mask22_986_17630)">
<path d="M11.7553 7.54231L11.7533 7.54032L11.7513 7.53833L11.7493 7.53634L11.7453 7.53335C11.7423 7.53037 11.7373 7.52838 11.7333 7.52639C11.7263 7.5244 11.7183 7.52241 11.7103 7.52241H11.6993C11.6093 7.52838 11.5733 7.604 11.6103 7.71047C11.6523 7.82987 11.7503 7.78709 11.7693 7.64082C11.7763 7.59505 11.7703 7.56221 11.7553 7.54231Z" fill="#FAFAFA"/>
</g>
<mask id="mask23_986_17630" style="mask-type:luminance" maskUnits="userSpaceOnUse" x="0" y="0" width="24" height="16">
<path d="M0 16H24V1.90735e-06H0V16Z" fill="white"/>
</mask>
<g mask="url(#mask23_986_17630)">
<path d="M12.0723 9.08721C12.0723 9.08721 12.0723 9.08622 12.0713 9.08622L12.0703 9.08522C12.0463 9.05537 11.8493 9.0096 11.7683 9.01259C11.7573 9.01259 11.7473 9.01458 11.7413 9.01756C11.7403 9.01756 11.7393 9.01856 11.7393 9.01856V9.01955C11.7383 9.01955 11.7373 9.02055 11.7373 9.02055L11.7353 9.02154V9.02254C11.7353 9.02353 11.7343 9.02453 11.7343 9.02453C11.7303 9.04741 11.7483 9.13896 11.7783 9.23746L11.8393 9.43945L11.9553 9.28224C12.0183 9.19766 12.0713 9.11308 12.0733 9.09318V9.09219V9.0902L12.0723 9.0892V9.08721Z" fill="#FAFAFA"/>
</g>
<mask id="mask24_986_17630" style="mask-type:luminance" maskUnits="userSpaceOnUse" x="0" y="0" width="24" height="16">
<path d="M0 16H24V1.90735e-06H0V16Z" fill="white"/>
</mask>
<g mask="url(#mask24_986_17630)">
<path d="M13.6521 12.0102H9.54008H9.45108H-0.000915527V16.0002H24.0001V12.0102H13.7781H13.6521Z" fill="#EF4630"/>
</g>
<mask id="mask25_986_17630" style="mask-type:luminance" maskUnits="userSpaceOnUse" x="0" y="0" width="24" height="16">
<path d="M0 16H24V1.90735e-06H0V16Z" fill="white"/>
</mask>
<g mask="url(#mask25_986_17630)">
<path d="M0 3.98926H11.891H24V0.000203371H0V3.98926Z" fill="#EF4630"/>
</g>
<mask id="mask26_986_17630" style="mask-type:luminance" maskUnits="userSpaceOnUse" x="0" y="0" width="24" height="16">
<path d="M0 16H24V1.90735e-06H0V16Z" fill="white"/>
</mask>
<g mask="url(#mask26_986_17630)">
<path d="M11.9322 5.67865C11.9992 5.67367 12.0262 5.71347 12.0262 5.79805C12.0262 5.89954 11.9872 5.93138 11.8032 5.97815C11.6862 6.008 11.5802 6.02193 11.5572 6.00999C11.5562 6.00999 11.5552 6.009 11.5552 6.009C11.4912 5.93835 11.5472 5.8488 11.7062 5.76522C11.8082 5.71148 11.8812 5.68263 11.9322 5.67865ZM12.0312 6.65079C11.9832 6.67865 11.9372 6.69855 11.9222 6.70153C11.9212 6.70153 11.9202 6.70253 11.9202 6.70253C11.9192 6.70253 11.9182 6.70153 11.9182 6.70153C11.9092 6.69855 11.8462 6.67765 11.7782 6.65477L11.6542 6.61397L11.7942 6.55128C11.8662 6.51944 11.9532 6.49258 11.9942 6.48959H12.0012C12.1162 6.48959 12.1342 6.59009 12.0312 6.65079ZM12.1402 7.71049C12.1822 7.75726 12.2322 7.84581 12.2512 7.9085C12.2942 8.05974 12.2242 8.12243 12.0912 8.05377C11.9462 7.98014 11.9112 7.86472 11.9952 7.73337C12.0272 7.68362 12.0462 7.65775 12.0672 7.65676C12.0872 7.65477 12.1052 7.67367 12.1402 7.71049ZM12.1832 5.74233C12.1942 5.68362 12.2452 5.6478 12.3202 5.64681H12.3232C12.3992 5.64681 12.4522 5.68163 12.4632 5.74233C12.4752 5.81696 12.4452 5.83785 12.3232 5.83785C12.2542 5.83785 12.2152 5.82989 12.1962 5.81099C12.1812 5.79706 12.1792 5.77417 12.1832 5.74233ZM12.5142 6.63387C12.5022 6.69656 12.4452 6.74034 12.3602 6.75129C12.2952 6.75925 12.2552 6.75626 12.2392 6.73835C12.2382 6.73835 12.2372 6.73536 12.2362 6.73536C12.2362 6.73437 12.2362 6.73337 12.2352 6.73337C12.2352 6.73337 12.2342 6.73238 12.2342 6.73138V6.7274C12.2252 6.69656 12.2572 6.64084 12.3272 6.54929C12.3672 6.49556 12.4072 6.4687 12.4392 6.46472C12.4972 6.45775 12.5332 6.51944 12.5142 6.63387ZM12.4952 8.11646L12.4942 8.11745C12.4942 8.11845 12.4932 8.11845 12.4922 8.11845C12.4922 8.11944 12.4902 8.11944 12.4902 8.11944C12.4892 8.11944 12.4892 8.12044 12.4892 8.12044C12.4882 8.12143 12.4862 8.12044 12.4862 8.12044H12.4852C12.4142 8.12044 12.3722 8.05775 12.3722 7.94432C12.3722 7.89059 12.3902 7.86372 12.4132 7.86074C12.4502 7.85576 12.5002 7.91049 12.5122 8.00303C12.5182 8.05676 12.5122 8.10253 12.4952 8.11646ZM12.0742 9.09158V9.09357C12.0712 9.11447 12.0182 9.19905 11.9562 9.28362L11.8402 9.43885L11.7792 9.23785C11.7492 9.13835 11.7302 9.0488 11.7342 9.02492C11.7342 9.02492 11.7352 9.02392 11.7352 9.02293V9.02193L11.7362 9.02094L11.7372 9.01994L11.7382 9.01895L11.7402 9.01795C11.7402 9.01795 11.7412 9.01696 11.7422 9.01696C11.7482 9.01497 11.7572 9.01298 11.7682 9.01298C11.8492 9.00999 12.0452 9.05576 12.0712 9.08561L12.0722 9.08661L12.0732 9.0876C12.0732 9.0886 12.0742 9.08959 12.0742 9.08959V9.09158ZM11.6112 7.71049C11.5732 7.60402 11.6102 7.5284 11.6992 7.52342C11.7032 7.52243 11.7062 7.52342 11.7102 7.52342C11.7192 7.52342 11.7262 7.52442 11.7332 7.52641C11.7382 7.5284 11.7422 7.53039 11.7452 7.53337C11.7462 7.53337 11.7482 7.53536 11.7492 7.53636C11.7502 7.53636 11.7512 7.53835 11.7512 7.53835L11.7532 7.54034C11.7532 7.54133 11.7552 7.54233 11.7552 7.54233C11.7702 7.56223 11.7762 7.59507 11.7692 7.64084C11.7502 7.78711 11.6522 7.82989 11.6112 7.71049ZM11.4612 9.3682C11.4602 9.37019 11.4582 9.37318 11.4562 9.37517L11.4512 9.38014C11.4502 9.38114 11.4492 9.38213 11.4482 9.38213C11.4452 9.38412 11.4402 9.38711 11.4362 9.3881C11.4352 9.3881 11.4322 9.3891 11.4312 9.3891H11.4212C11.3882 9.38412 11.3462 9.34332 11.3082 9.26472C11.2652 9.17318 11.2452 9.12939 11.2532 9.11248C11.2542 9.11049 11.2552 9.1085 11.2562 9.1075C11.2592 9.10452 11.2642 9.10253 11.2712 9.10153C11.2862 9.09954 11.3082 9.10352 11.3412 9.1085C11.4042 9.11944 11.4632 9.17119 11.4732 9.2279C11.4842 9.29656 11.4782 9.34432 11.4612 9.3682ZM11.0352 7.68661V7.68462V7.68263C11.0352 7.65377 11.0502 7.63885 11.0752 7.63487C11.1172 7.62989 11.1862 7.65775 11.2552 7.71447C11.3022 7.75327 11.3212 7.79208 11.3202 7.81895V7.82691C11.3192 7.8289 11.3192 7.83188 11.3192 7.83288C11.3182 7.83387 11.3172 7.83586 11.3172 7.83686C11.3162 7.83885 11.3142 7.84084 11.3142 7.84183C11.3132 7.84283 11.3132 7.84382 11.3132 7.84382L11.3112 7.84581C11.3092 7.8488 11.3072 7.85079 11.3052 7.85278C11.3052 7.85278 11.3042 7.85477 11.3032 7.85477C11.2742 7.87666 11.2142 7.87168 11.1442 7.81795C11.0872 7.77417 11.0392 7.71646 11.0352 7.68661ZM10.9732 6.82094C10.9382 6.86571 10.8732 6.93437 10.8282 6.97119C10.7582 7.0289 10.7362 7.02392 10.6922 6.93238C10.6392 6.82293 10.6222 6.75228 10.6482 6.7085C10.6722 6.67069 10.7302 6.65278 10.8272 6.65278H10.8362C11.0452 6.65278 11.0742 6.6886 10.9732 6.82094ZM10.7452 9.21497C10.6792 8.97318 10.6722 8.94034 10.7462 8.93636H10.7772C10.9112 8.93636 10.9862 9.04681 10.9862 9.24681C10.9862 9.51447 10.8212 9.49357 10.7452 9.21497ZM10.9952 5.51148C11.0012 5.51049 11.0082 5.51148 11.0142 5.51148C11.0652 5.51148 11.1022 5.52342 11.1172 5.54233L11.1192 5.54432C11.1192 5.54432 11.1202 5.54532 11.1202 5.54631C11.1212 5.54929 11.1222 5.55328 11.1232 5.55526C11.1242 5.55626 11.1242 5.55825 11.1242 5.55825C11.1252 5.55925 11.1242 5.56223 11.1242 5.56323V5.56621C11.1242 5.56721 11.1242 5.57019 11.1232 5.57119C11.1232 5.57218 11.1232 5.57417 11.1222 5.57517C11.1122 5.609 11.0552 5.67268 10.9952 5.71646C10.9502 5.7493 10.9222 5.76721 10.9072 5.76522C10.9062 5.76522 10.9042 5.76422 10.9032 5.76422C10.9022 5.76422 10.9012 5.76323 10.9012 5.76323L10.8982 5.76024C10.8882 5.7473 10.8862 5.71347 10.8862 5.65377C10.8862 5.54432 10.9062 5.51347 10.9952 5.51148ZM11.3192 5.94631H11.3292C11.4482 5.94631 11.3742 6.17019 11.2212 6.27268C11.0842 6.36323 10.9392 6.40303 10.8982 6.36721L10.8972 6.36621C10.8942 6.36323 10.8922 6.36024 10.8902 6.35726V6.35527C10.8892 6.35427 10.8892 6.35228 10.8892 6.35228C10.8892 6.35128 10.8882 6.35029 10.8882 6.3493V6.34631C10.8882 6.34531 10.8872 6.34233 10.8872 6.34133C10.8902 6.21895 11.1772 5.95825 11.3192 5.94631ZM12.6292 5.82392C12.6402 5.73636 12.6832 5.69656 12.7822 5.68362C12.7982 5.68163 12.8112 5.67964 12.8252 5.67964C12.9242 5.67666 12.9352 5.72243 12.8882 5.86074C12.8712 5.9075 12.8032 5.94631 12.7362 5.94631C12.6382 5.94631 12.6172 5.92243 12.6292 5.82392ZM12.9552 6.61497C13.0102 6.61198 13.0682 6.62193 13.1252 6.64581C13.2272 6.68959 13.2482 6.72641 13.2272 6.83984C13.2022 6.99208 13.1182 7.009 12.8312 6.91845C12.6892 6.87367 12.6752 6.85278 12.7212 6.76024C12.7642 6.67168 12.8512 6.61994 12.9552 6.61497ZM13.6122 8.56621C13.8072 8.55825 13.9122 8.6886 13.7002 8.85178C13.5632 8.95726 13.3632 8.96124 13.2392 8.86173C13.1482 8.7891 13.1542 8.78014 13.3172 8.67069C13.4202 8.60203 13.5242 8.57019 13.6122 8.56621ZM13.4292 7.33736C13.4632 7.28561 13.5152 7.26074 13.5652 7.25676C13.6652 7.2488 13.7652 7.31845 13.7522 7.42989C13.7322 7.57119 13.5782 7.61298 13.4492 7.51049C13.3722 7.4488 13.3702 7.42591 13.4292 7.33736ZM13.9602 9.00701C13.9742 8.92541 14.2202 8.73238 14.3232 8.71944H14.3342C14.3632 8.71944 14.4302 8.75327 14.4812 8.79606C14.5772 8.87069 14.5762 8.87666 14.4582 9.01397C14.3962 9.08462 14.3352 9.14034 14.3132 9.14531H14.3112H14.3092C14.2942 9.14034 14.2082 9.1274 14.1202 9.11546C14.0202 9.10153 13.9592 9.06173 13.9592 9.01397C13.9592 9.01198 13.9602 9.009 13.9602 9.00701ZM10.4422 7.13337C10.3062 7.18611 10.2832 7.17517 10.1712 7.01795C10.0992 6.91845 10.0722 6.85178 10.0922 6.80999C10.0932 6.80601 10.0962 6.80104 10.0982 6.79805C10.0992 6.79805 10.1002 6.79606 10.1012 6.79507L10.1042 6.79208C10.1292 6.76721 10.1812 6.75327 10.2592 6.74631C10.2652 6.74532 10.2712 6.74432 10.2772 6.74432C10.3662 6.74133 10.4212 6.78313 10.4922 6.90452L10.5922 7.07566L10.4422 7.13337ZM10.5702 8.19208C10.5622 8.23487 10.5002 8.28661 10.3882 8.34631C10.2932 8.39507 10.1352 8.45278 10.0332 8.47168C9.86618 8.50352 9.84318 8.49158 9.77318 8.34332C9.73118 8.25477 9.69818 8.17119 9.69718 8.15527V8.15427C9.69718 8.15328 9.69618 8.15228 9.69718 8.15228C9.69718 8.15129 9.69818 8.15128 9.69818 8.15029C9.69818 8.15029 9.69818 8.1493 9.69918 8.1483L9.70018 8.14731C9.73518 8.11148 10.0252 8.07765 10.2392 8.07765C10.3122 8.07765 10.3762 8.08163 10.4172 8.09059C10.4872 8.10452 10.5342 8.12442 10.5562 8.14731C10.5602 8.15328 10.5642 8.15925 10.5672 8.16522C10.5682 8.16721 10.5692 8.17119 10.5702 8.17417C10.5712 8.18014 10.5712 8.18711 10.5702 8.19208ZM11.3672 4.60999C11.2252 4.71049 11.0542 4.85974 10.9862 4.94233L10.8612 5.09158L10.9932 5.05676C11.0662 5.03785 11.1602 5.00701 11.2032 4.9891C11.2472 4.97119 11.2822 4.98114 11.2822 5.01198C11.2822 5.01298 11.2832 5.01397 11.2822 5.01497V5.02094C11.2622 5.09855 11.0362 5.27566 10.8552 5.35029C10.6832 5.42094 10.4282 5.60701 10.3942 5.68064C10.3932 5.68263 10.3922 5.68561 10.3922 5.6876C10.3922 5.6876 10.3912 5.68959 10.3912 5.69059V5.69357V5.69556V5.69755C10.3912 5.69855 10.3922 5.69954 10.3922 5.70054C10.3922 5.70153 10.3932 5.70253 10.3932 5.70253L10.3942 5.70352C10.3942 5.70452 10.3942 5.70452 10.3952 5.70452C10.3952 5.70452 10.3952 5.70551 10.3962 5.70551C10.3962 5.70651 10.3982 5.7075 10.3992 5.7085C10.4192 5.72143 10.4742 5.72442 10.5382 5.71049C10.6512 5.68561 10.6982 5.70054 10.7342 5.77716C10.7912 5.89357 10.7592 5.94631 10.6282 5.94631C10.4702 5.94631 10.2452 6.10452 10.2142 6.23785C10.1942 6.32641 10.1072 6.39905 9.92218 6.48362C9.61918 6.62094 9.22918 6.88362 9.20218 6.96422C9.20218 6.96621 9.20118 6.97019 9.20118 6.97119C9.20118 7.08661 9.45618 7.07865 9.82518 6.95228C9.90818 6.92342 9.94418 6.95228 10.0072 7.09357C10.0842 7.2687 10.0832 7.27367 9.90318 7.50352C9.77818 7.66472 9.66718 7.7483 9.54718 7.77318C9.30818 7.82293 9.23418 7.87168 8.92418 8.17915C8.77618 8.32641 8.62718 8.4488 8.59418 8.44979C8.58018 8.44979 8.57118 8.45178 8.56718 8.45576C8.56618 8.45576 8.56618 8.45676 8.56618 8.45676C8.56618 8.45676 8.56518 8.45676 8.56518 8.45775L8.56418 8.45875V8.45974L8.56318 8.46074V8.46273V8.46571C8.56318 8.46671 8.56318 8.46969 8.56418 8.47069C8.56418 8.47069 8.56418 8.47168 8.56518 8.47268C8.56518 8.47268 8.56518 8.47367 8.56618 8.47467C8.59118 8.51944 8.75418 8.60999 8.84718 8.60999C8.91318 8.60999 9.07818 8.53337 9.21118 8.43984C9.44418 8.27566 9.45518 8.27367 9.54918 8.36721C9.60318 8.41994 9.64718 8.52342 9.64718 8.59606C9.64718 8.70551 9.58818 8.75526 9.28218 8.91049C9.05618 9.02492 8.79018 9.22293 8.58218 9.42989C8.30218 9.7075 8.22318 9.75825 8.10418 9.73934C8.02918 9.7274 7.98818 9.72044 7.97418 9.72939C7.97418 9.73039 7.97318 9.73039 7.97218 9.73039C7.97218 9.73138 7.97118 9.73138 7.97118 9.73138C7.97118 9.73238 7.97018 9.73238 7.97018 9.73337C7.97018 9.73437 7.97018 9.73636 7.96918 9.73735C7.96918 9.75129 7.99418 9.78014 8.03918 9.82989C8.08218 9.87666 8.18218 9.91546 8.26118 9.91546C8.47418 9.91546 9.15118 9.66472 9.35918 9.5085C9.55318 9.36323 9.74118 9.33536 9.89618 9.42691C10.1382 9.5692 9.73418 9.85377 8.97518 10.0796C8.69518 10.1622 8.45318 10.2428 8.42218 10.2627C8.42218 10.2637 8.42018 10.2637 8.42018 10.2637L8.41918 10.2647L8.41818 10.2657C8.40718 10.2836 8.42318 10.3324 8.45618 10.3752C8.53618 10.4806 8.93518 10.4856 9.27518 10.3841C9.41118 10.3433 9.75118 10.208 10.0302 10.0826C10.5352 9.85477 10.5362 9.85477 10.7142 9.9473C11.1242 10.1602 11.0862 10.5344 10.5932 11.1503C10.3782 11.418 10.1872 11.5374 9.84018 11.6219C9.71218 11.6528 9.44918 11.8995 9.44918 11.9891C9.44918 11.9981 9.45018 12.005 9.45218 12.011H9.54118C9.56018 11.9971 9.58018 11.9762 9.59918 11.9503C9.70918 11.806 9.93018 11.7095 10.1522 11.7085C10.3942 11.7075 10.6912 11.5752 10.9142 11.3682C11.1102 11.1871 11.3072 11.1314 11.4552 11.2199C11.5372 11.2687 11.6132 11.2737 11.7122 11.2359C11.8892 11.1692 11.9772 11.201 11.9772 11.3324C11.9772 11.3921 12.0392 11.4707 12.1242 11.5194C12.2052 11.5662 12.3492 11.6786 12.4472 11.7712C12.5192 11.8408 12.5732 11.8737 12.6002 11.8737H12.6032H12.6072L12.6092 11.8727C12.6102 11.8717 12.6112 11.8717 12.6112 11.8707C12.6132 11.8707 12.6142 11.8697 12.6152 11.8687L12.6162 11.8677C12.6162 11.8677 12.6172 11.8677 12.6172 11.8667L12.6182 11.8657L12.6192 11.8647C12.6192 11.8647 12.6192 11.8627 12.6202 11.8627V11.8607C12.6202 11.8597 12.6212 11.8587 12.6212 11.8587C12.6222 11.8578 12.6222 11.8558 12.6222 11.8558C12.6232 11.8548 12.6222 11.8528 12.6222 11.8518C12.6262 11.8199 12.6002 11.7583 12.5462 11.6697C12.5132 11.6199 12.4962 11.5682 12.5012 11.5423C12.5012 11.5413 12.5012 11.5393 12.5022 11.5383C12.5022 11.5374 12.5032 11.5364 12.5032 11.5364L12.5042 11.5344C12.5042 11.5334 12.5052 11.5314 12.5062 11.5304C12.5062 11.5304 12.5062 11.5294 12.5072 11.5294C12.5072 11.5294 12.5082 11.5294 12.5092 11.5284C12.5092 11.5284 12.5092 11.5274 12.5102 11.5274L12.5112 11.5264C12.5422 11.5145 12.7062 11.5214 12.8852 11.5413C13.2002 11.5772 13.2392 11.5961 13.4242 11.811C13.5152 11.9165 13.5922 11.9831 13.6532 12.011H13.7792C13.8072 11.999 13.8262 11.9811 13.8292 11.9642C13.8302 11.9632 13.8312 11.9622 13.8312 11.9602V11.9592V11.9573V11.9553V11.9523C13.8202 11.9165 13.6332 11.7393 13.4092 11.5543C12.8992 11.1304 12.8222 10.9772 12.8212 10.3911C12.8192 10.0418 12.8362 9.95129 12.9192 9.86173C13.0472 9.72044 13.1172 9.72342 13.4322 9.88661C13.6702 10.011 13.7442 10.0209 14.2842 10.01C14.8652 9.99706 14.8822 10.001 15.1742 10.1712C15.3372 10.2667 15.5372 10.3951 15.6192 10.4558C15.8002 10.5911 15.9822 10.601 16.0262 10.4767C16.0772 10.3314 15.7342 10.0478 15.0892 9.70551C14.4482 9.36621 14.3812 9.27069 14.6762 9.11646C14.8452 9.0279 14.8552 9.02989 15.1222 9.17815C15.3362 9.29656 15.4322 9.32143 15.5702 9.29357L15.7452 9.25676L15.3602 8.94332C15.1472 8.77019 14.9442 8.58711 14.9052 8.53536C14.7922 8.38412 14.5752 8.28462 14.3612 8.28462C14.2602 8.28462 14.1672 8.26571 14.1402 8.24183L14.1382 8.23885C14.1382 8.23785 14.1372 8.23785 14.1372 8.23785C14.1372 8.23686 14.1362 8.23586 14.1362 8.23487C14.0762 8.1284 14.2572 8.07765 14.7632 8.05775C15.4442 8.03089 15.5382 7.95228 15.0682 7.80104C14.8812 7.74133 14.5992 7.66472 14.4432 7.63089C14.2532 7.59009 14.1462 7.54532 14.1202 7.49457C14.1182 7.4886 14.1162 7.48163 14.1152 7.47566C14.1142 7.47168 14.1142 7.46571 14.1152 7.46173C14.1182 7.44382 14.1282 7.42492 14.1442 7.40601C14.1782 7.37119 14.3302 7.37517 14.5912 7.41895C14.8822 7.4677 15.0422 7.47865 15.0712 7.44382C15.1002 7.40502 14.9672 7.3085 14.6702 7.14531C14.3982 6.99606 14.0572 6.75527 13.9022 6.60203C13.7482 6.45079 13.5182 6.27964 13.3932 6.21994C13.2282 6.14233 13.1762 6.09059 13.1972 6.02989C13.2342 5.92342 13.4942 5.92243 13.6612 6.0279C13.7282 6.07069 13.9082 6.10452 14.0572 6.10352L14.3312 6.10153L14.1492 6.0289C13.9702 5.95527 13.4782 5.608 13.4402 5.52939C13.4392 5.5284 13.4382 5.52541 13.4382 5.52442V5.52243V5.52044C13.4382 5.51944 13.4392 5.51944 13.4392 5.51944C13.4392 5.51845 13.4392 5.51845 13.4402 5.51845V5.51646C13.4622 5.50253 13.5752 5.49556 13.7112 5.50352L13.9842 5.51944L13.5912 5.21795C13.3032 4.99606 13.1252 4.90153 12.9222 4.85875C12.7692 4.82691 12.5962 4.7881 12.5352 4.77417C12.3722 4.73636 12.0992 4.45278 11.9872 4.20601L11.8902 3.9891L11.7582 4.208C11.6852 4.32939 11.5092 4.50949 11.3672 4.60999Z" fill="#209E56"/>
</g>
</g>
<defs>
<clipPath id="clip0_986_17630">
<rect width="24" height="16" fill="white"/>
</clipPath>
</defs>
</svg>
