<svg width="24" height="16" viewBox="0 0 24 16" fill="none" xmlns="http://www.w3.org/2000/svg">
<g clip-path="url(#clip0_986_17622)">
<path d="M9.80469 15.9999H23.9999V9.78511H9.80469V15.9999Z" fill="#214190"/>
<path d="M0.000488281 15.9999H6.21415V9.78511H0.000488281V15.9999Z" fill="#214190"/>
<path d="M0.000488281 6.21619H6.21415V0.00042057H0.000488281V6.21619Z" fill="#214190"/>
<path d="M9.80469 6.21606H23.9999V0.0002985H9.80469V6.21606Z" fill="#214190"/>
<path d="M0.000488281 7.10779H6.21415V6.21627H0.000488281V7.10779Z" fill="white"/>
<path d="M9.80469 7.10754H23.9999V6.21602H9.80469V7.10754Z" fill="white"/>
<path d="M0.000488281 9.7854H6.21415V8.89288H0.000488281V9.7854Z" fill="white"/>
<path d="M9.80469 9.78516H23.9999V8.89264H9.80469V9.78516Z" fill="white"/>
<path d="M6.21558 8.89235V9.78486V15.9996H7.11253V8.89235H6.21558Z" fill="white"/>
<path d="M6.21558 3.19481e-05V6.2158V7.10632H7.11253V3.19481e-05H6.21558Z" fill="white"/>
<path d="M8.90625 3.19481e-05V7.10632H9.8022V6.2158V3.19481e-05H8.90625Z" fill="white"/>
<path d="M8.90625 8.89235V15.9996H9.8022V9.78486V8.89235H8.90625Z" fill="white"/>
<path d="M7.11262 3.24249e-05V7.10632H6.21566H0V8.89235H6.21566H7.11262V15.9996H8.90652V8.89235H9.80347H23.9997V7.10632H9.80347H8.90652V3.24249e-05H7.11262Z" fill="#D72E2B"/>
</g>
<defs>
<clipPath id="clip0_986_17622">
<rect width="24" height="16" fill="white"/>
</clipPath>
</defs>
</svg>
