<svg width="24" height="16" viewBox="0 0 24 16" fill="none" xmlns="http://www.w3.org/2000/svg">
<path d="M0 16H7.965V1.90735e-06H0V16Z" fill="#1B864E"/>
<path d="M7.96509 16H16.0341V1.90735e-06H7.96509V16ZM11.0231 8.31642L9.44109 7.17313H11.3961L12.0001 5.32339L12.6041 7.17313H14.5571L12.9761 8.31642L13.5811 10.1662L12.0001 9.02289L10.4191 10.1662L11.0231 8.31642Z" fill="#FBEF46"/>
<path d="M16.0339 16H23.9999V1.90735e-06H16.0339V16Z" fill="#E22D34"/>
<path d="M14.5577 7.17304H12.6037L11.9997 5.32429L11.3957 7.17304H9.44067L11.0227 8.31633L10.4187 10.1661L11.9997 9.02279L13.5807 10.1661L12.9777 8.31633L14.5577 7.17304Z" fill="#1B864E"/>
</svg>
