<svg width="20" height="20" viewBox="0 0 20 20" fill="none" xmlns="http://www.w3.org/2000/svg">
<path d="M10 0.000305176C15.514 0.000305176 20 4.48533 20 9.99933C20 15.5143 15.514 20.0003 10 20.0003C4.48701 20.0003 1.29318e-05 15.5143 0 9.99933C0 4.48533 4.487 0.000305176 10 0.000305176ZM4.43457 16.5345C4.70057 16.7625 4.958 16.9958 5.25 17.1898L6.09668 16.3421L7.07324 17.3177L6.51465 17.8763C7.58265 18.3513 8.758 18.6263 10 18.6263C14.757 18.6263 18.626 14.7553 18.626 9.99933C18.626 8.75733 18.351 7.58195 17.876 6.51495L17.3193 7.07257L16.3428 6.09698L17.1895 5.25031C16.9965 4.95931 16.7631 4.69985 16.5371 4.43585L4.43457 16.5345ZM9.51367 14.8773L8.53809 15.8528L7.56152 14.8773L8.53809 13.9017L9.51367 14.8773ZM10 1.37335C5.244 1.37335 1.37402 5.24233 1.37402 9.99933C1.37403 11.2413 1.64903 12.4167 2.12402 13.4837L2.68164 12.9271L3.6582 13.9026L2.81055 14.7493C3.00355 15.0403 3.23787 15.2988 3.46387 15.5638L15.5664 3.46417C15.3004 3.23717 15.042 3.00385 14.75 2.81085L13.9033 3.65753L12.9268 2.68195L13.4854 2.12335C12.4174 1.64835 11.243 1.37335 10 1.37335ZM12.6836 11.7073L11.708 12.6829L10.7314 11.7073L11.708 10.7318L12.6836 11.7073ZM6.09766 11.4622L5.12207 12.4378L4.14648 11.4622L5.12207 10.4866L6.09766 11.4622ZM15.8555 8.53644L14.8789 9.51202L13.9033 8.53644L14.8789 7.56085L15.8555 8.53644ZM9.26855 8.2923L8.29199 9.26788L7.31641 8.2923L8.29199 7.31671L9.26855 8.2923ZM12.4395 5.1214L11.4639 6.09698L10.4873 5.1214L11.4639 4.14581L12.4395 5.1214Z" fill="#001E28"/>
</svg>
