<svg width="21" height="20" viewBox="0 0 21 20" fill="none" xmlns="http://www.w3.org/2000/svg">
<path d="M13.0898 2.54492L13.0889 7.24023L17.5176 7.24121L20.0459 9.76855L18.4756 17.5723L16.0605 19.9873H7.37305L5.30176 18.6064H4.81445V19.9873H0V6.20703H4.81445V7.92969H5.22656L8.27539 4.88184V0H11.3936L13.0898 2.54492ZM1.36621 18.6201H3.44824V18.6064L3.44141 18.6074V17.2412H3.44824V9.29688H3.44141V7.93066L3.44824 7.92969V7.57227H1.36621V18.6201ZM9.6416 5.44922L5.79395 9.29688H4.81445V17.2412H5.71777L7.78613 18.6201H15.4941L17.2178 16.8965L18.5615 10.2168L16.9512 8.60645L11.7236 8.60742L11.7227 2.95703L10.6621 1.36523H9.64062L9.6416 5.44922Z" fill="#001E28"/>
</svg>
