<svg width="24" height="16" viewBox="0 0 24 16" fill="none" xmlns="http://www.w3.org/2000/svg">
<g clip-path="url(#clip0_901_16)">
<rect width="24" height="16" fill="white"/>
<mask id="mask0_901_16" style="mask-type:luminance" maskUnits="userSpaceOnUse" x="0" y="0" width="24" height="16">
<path d="M0 16H24V1.90735e-06H0V16Z" fill="white"/>
</mask>
<g mask="url(#mask0_901_16)">
<path d="M8.87586 9.30885L8.88986 5.32975H15.1461V9.32179C15.0981 9.79542 14.9241 10.2332 14.6681 10.6123H24.0015V5.32577H0.000488281V10.6123H9.35288C9.08587 10.2273 8.91186 9.78547 8.87586 9.30885Z" fill="white"/>
</g>
<mask id="mask1_901_16" style="mask-type:luminance" maskUnits="userSpaceOnUse" x="0" y="0" width="24" height="16">
<path d="M0 16H24V1.90735e-06H0V16Z" fill="white"/>
</mask>
<g mask="url(#mask1_901_16)">
<path d="M14.6236 10.6743C14.0326 11.5031 13.0426 12.0355 12.1125 12.0295C11.1035 12.0733 10.0214 11.527 9.39641 10.6743H-0.000976562V16.0006H24V10.6743H14.6236Z" fill="#262A6A"/>
</g>
<mask id="mask2_901_16" style="mask-type:luminance" maskUnits="userSpaceOnUse" x="0" y="0" width="24" height="16">
<path d="M0 16H24V1.90735e-06H0V16Z" fill="white"/>
</mask>
<g mask="url(#mask2_901_16)">
<path d="M8.58095 2.6804L9.58899 3.10926L10.262 2.31324L11.1841 2.84458L11.9741 2.21473L12.8141 2.85354L13.7072 2.31622C13.7072 2.31622 14.4052 3.07941 14.4132 3.07941C14.4212 3.07941 15.4212 2.67045 15.4212 2.67045L15.9813 3.6416L15.1842 5.24159C14.1132 4.85951 13.0301 4.69334 11.9671 4.69632C10.905 4.69931 9.818 4.88637 8.83696 5.23264L8.04093 3.64259L8.58095 2.6804ZM23.9996 0.000798702H-0.00140381V5.32617H23.9996V0.000798702Z" fill="#D62B31"/>
</g>
<mask id="mask3_901_16" style="mask-type:luminance" maskUnits="userSpaceOnUse" x="0" y="0" width="24" height="16">
<path d="M0 16H24V1.90735e-06H0V16Z" fill="white"/>
</mask>
<g mask="url(#mask3_901_16)">
<path d="M8.63567 2.78875L9.63872 3.22358L10.0627 4.79472C9.60471 4.88925 9.3617 4.96586 8.87568 5.15293L8.15165 3.62955L8.63567 2.78875ZM10.2987 2.43253L11.2048 2.94696H11.2108C11.2108 2.94696 11.2458 3.3579 11.2458 3.36089L11.2818 3.76387H11.2848L11.3238 4.18775H11.3218L11.3608 4.61761C10.8968 4.65243 10.5968 4.69621 10.0747 4.78875L9.64972 3.21362L10.2987 2.43253ZM11.9958 2.339L12.8058 2.95193L12.6638 4.61761C12.2168 4.59372 11.8978 4.59472 11.3728 4.61562L11.2188 2.95392L11.9958 2.339ZM12.8198 2.94795L13.7069 2.4395L14.3929 3.17979L13.9359 4.78576C13.4929 4.69621 13.2399 4.65741 12.6758 4.61462L12.8198 2.94795ZM15.381 2.78974L15.895 3.64945L15.64 4.16785L15.641 4.16885L15.478 4.50019L15.1559 5.15392C14.7309 4.98576 14.5039 4.91313 13.9469 4.78974L14.4029 3.18377L15.381 2.78974ZM11.9678 4.69621C13.0299 4.69422 14.1139 4.8594 15.1829 5.24149L15.981 3.64149L15.421 2.67034C15.421 2.67034 14.4219 3.0793 14.4129 3.0793C14.4059 3.0793 13.7089 2.31611 13.7089 2.31611L12.8138 2.85343L11.9738 2.21462L11.1838 2.84447L10.2617 2.31313L9.58971 3.10915L8.58067 2.68029L8.04065 3.64248L8.83768 5.23353C9.81772 4.88626 10.9048 4.6992 11.9678 4.69621Z" fill="white"/>
</g>
<mask id="mask4_901_16" style="mask-type:luminance" maskUnits="userSpaceOnUse" x="0" y="0" width="24" height="16">
<path d="M0 16H24V1.90735e-06H0V16Z" fill="white"/>
</mask>
<g mask="url(#mask4_901_16)">
<path d="M14.905 3.20846L15.102 3.27015L15.101 3.26915L15.251 3.14776L15.25 3.15174C15.253 3.1597 15.281 3.32985 15.28 3.33184C15.279 3.33283 15.359 3.36069 15.418 3.38159C15.449 3.39254 15.475 3.40149 15.475 3.40149H15.474C15.475 3.40149 15.477 3.40249 15.477 3.40249L15.327 3.53084L15.344 3.71592L15.212 3.67214L15.176 3.66219L15.032 3.79552L14.99 3.60348L14.783 3.54079L14.944 3.39851L14.905 3.20846ZM15.155 5.15472L15.477 4.5L15.347 4.76169C15.346 4.76368 15.345 4.76567 15.345 4.76567L15.266 4.92388C15.056 4.84527 14.849 4.78059 14.642 4.71393C14.435 4.64726 14.234 4.58855 14.024 4.52487L14.252 3.72189C14.502 3.77462 14.733 3.83433 14.966 3.90895C15.196 3.98358 15.417 4.07214 15.6401 4.16766L15.8951 3.64925L15.381 2.78955L14.403 3.18457L13.946 4.78955C14.504 4.91293 14.731 4.98557 15.155 5.15472Z" fill="#00A7BD"/>
</g>
<mask id="mask5_901_16" style="mask-type:luminance" maskUnits="userSpaceOnUse" x="0" y="0" width="24" height="16">
<path d="M0 16H24V1.90735e-06H0V16Z" fill="white"/>
</mask>
<g mask="url(#mask5_901_16)">
<path d="M11.3369 3.47762C11.3359 3.47762 11.3559 3.42887 11.3549 3.42588L11.3319 3.40498L11.3689 3.33533L11.4229 3.32439L11.4209 3.24578L11.4629 3.23484C11.4639 3.23484 11.4639 3.23384 11.4649 3.23384L11.4699 3.19205L11.4149 3.1214V3.08658L11.4439 3.08857L11.4969 3.10847L11.5269 3.15225L11.5569 3.14429C11.5569 3.14429 11.5599 3.09752 11.5599 3.09653C11.5599 3.09553 11.6209 3.05474 11.6209 3.05474L11.6869 3.08658L11.6879 3.13434L11.6909 3.13931H11.6879V3.14031C11.6879 3.14031 11.7339 3.1413 11.7339 3.14031C11.7339 3.13931 11.7239 3.10548 11.7239 3.10548V3.08757C11.7239 3.08658 11.7649 3.0826 11.7649 3.0826L11.7949 3.05872H11.8359L11.8389 3.0826L11.7959 3.1423C11.7959 3.1423 11.7979 3.19304 11.7979 3.19404C11.7979 3.19503 11.8369 3.21195 11.8369 3.21195L11.8509 3.28956L11.9109 3.34827L11.9149 3.39304L11.9369 3.4209L11.9449 3.45573L11.9109 3.45275L11.9159 3.52439H11.8749L11.8679 3.58906L11.7909 3.59105L11.7889 3.63086L11.7699 3.66071L11.6259 3.67762L11.5849 3.66369L11.5239 3.6627L11.5209 3.63981L11.4679 3.602L11.4109 3.59404L11.4019 3.54329L11.3659 3.53931L11.3529 3.50051L11.3499 3.49354C11.3459 3.48857 11.3379 3.47762 11.3369 3.47762ZM12.0609 3.70946L12.0619 3.75722L12.0649 3.7622H12.0619C12.0619 3.7622 12.1079 3.76419 12.1079 3.76319C12.1079 3.7622 12.0979 3.72837 12.0979 3.72837V3.71046C12.0979 3.70946 12.1379 3.70548 12.1379 3.70548L12.1689 3.6816L12.2089 3.6826L12.2119 3.70548L12.1699 3.76618C12.1699 3.76618 12.1709 3.81593 12.1709 3.81692C12.1709 3.81792 12.2109 3.83484 12.2109 3.83484L12.2249 3.91245L12.2849 3.97115L12.2889 4.01593L12.3099 4.04379L12.3189 4.07862L12.2849 4.07563L12.2899 4.14727H12.2489L12.2419 4.21195L12.1649 4.21394L12.1629 4.25474L12.1439 4.28359L11.9999 4.30051L11.9589 4.28658L11.8989 4.28558L11.8949 4.2627L11.8419 4.22588L11.7849 4.21692L11.7759 4.16618L11.7389 4.1612L11.7269 4.12339L11.7229 4.11643C11.7199 4.11145 11.7119 4.10051 11.7109 4.10051C11.7109 4.10051 11.7299 4.05175 11.7289 4.04877L11.7049 4.02787L11.7429 3.95822L11.7969 3.94727L11.7949 3.86867L11.8369 3.85772C11.8369 3.85772 11.8379 3.85673 11.8389 3.85673L11.8439 3.81593L11.7889 3.74429V3.70946L11.8169 3.71145L11.8709 3.73135L11.9009 3.77513L11.9299 3.76717C11.9299 3.76717 11.9339 3.72041 11.9339 3.71941C11.9339 3.71842 11.9949 3.67762 11.9949 3.67762L12.0609 3.70946ZM12.0889 3.31145L12.1439 3.30051L12.1429 3.2219L12.1839 3.21195C12.1849 3.21095 12.1859 3.21095 12.1859 3.21095L12.1909 3.16916L12.1359 3.09852V3.06369L12.1649 3.06469L12.2179 3.08459L12.2489 3.12936L12.2769 3.1214C12.2769 3.1214 12.2809 3.07464 12.2809 3.07364C12.2809 3.07265 12.3409 3.03185 12.3409 3.03185L12.4079 3.06369L12.4089 3.11145L12.4119 3.11543H12.4089V3.11742H12.4559C12.4559 3.11643 12.4449 3.0826 12.4449 3.0826V3.06469C12.4449 3.06369 12.4859 3.05971 12.4859 3.05971L12.5159 3.03484L12.5569 3.03583L12.5609 3.05971L12.5169 3.11941C12.5169 3.11941 12.5199 3.17016 12.5199 3.17115C12.5199 3.17215 12.5579 3.18906 12.5579 3.18906L12.5719 3.26668L12.6309 3.32538L12.6359 3.37016L12.6579 3.39802L12.6659 3.43285L12.6309 3.42986L12.6369 3.5015H12.5959L12.5879 3.56518L12.5119 3.56817L12.5099 3.60797L12.4909 3.63782L12.3469 3.65374L12.3059 3.64081L12.2459 3.63981L12.2419 3.61692L12.1899 3.58011L12.1309 3.57016L12.1229 3.52041L12.0869 3.51543L12.0739 3.47762L12.0709 3.47066C12.0669 3.46568 12.0589 3.45474 12.0579 3.45474C12.0579 3.45474 12.0769 3.40498 12.0759 3.40299L12.0519 3.3811L12.0889 3.31145ZM12.6639 4.61792L12.8069 2.95125L11.9959 2.33832L11.2189 2.95324L11.3729 4.61593C11.8979 4.59503 12.2159 4.59404 12.6639 4.61792Z" fill="#00A7BD"/>
</g>
<mask id="mask6_901_16" style="mask-type:luminance" maskUnits="userSpaceOnUse" x="0" y="0" width="24" height="16">
<path d="M0 16H24V1.90735e-06H0V16Z" fill="white"/>
</mask>
<g mask="url(#mask6_901_16)">
<path d="M8.65082 4.30945C8.87882 4.35522 9.04083 4.35721 9.24584 4.30149C9.48985 4.20199 9.57585 4.06766 9.65586 3.96019C9.69286 4.18706 9.65386 4.39303 9.37485 4.5393C9.12483 4.65373 8.78682 4.58109 8.65082 4.30945ZM8.80582 3.52636H8.80482L8.83882 3.34029L8.84082 3.34427C8.84982 3.34925 8.98283 3.4597 8.98283 3.46169C8.98283 3.46268 9.06283 3.43383 9.12083 3.41393C9.15284 3.40099 9.17884 3.39203 9.17884 3.39203H9.18084L9.15084 3.58407L9.28684 3.71442L9.15584 3.76517L9.12183 3.7791L9.10083 3.97213L8.94183 3.85174L8.74082 3.93532L8.76982 3.72437L8.61481 3.60398L8.80582 3.52636ZM10.0629 4.79502L9.63886 3.22288L8.63581 2.78905L8.15179 3.62985L8.87582 5.15323C9.36184 4.96616 9.60485 4.88955 10.0629 4.79502Z" fill="#00A7BD"/>
</g>
<mask id="mask7_901_16" style="mask-type:luminance" maskUnits="userSpaceOnUse" x="0" y="0" width="24" height="16">
<path d="M0 16H24V1.90735e-06H0V16Z" fill="white"/>
</mask>
<g mask="url(#mask7_901_16)">
<path d="M9.37479 4.53921C9.6538 4.39394 9.6918 4.18697 9.6558 3.96011C9.5758 4.06757 9.48979 4.2019 9.24578 4.3014C9.04077 4.35712 8.87877 4.35513 8.65076 4.30936C8.78676 4.581 9.12478 4.65364 9.37479 4.53921Z" fill="white"/>
</g>
<mask id="mask8_901_16" style="mask-type:luminance" maskUnits="userSpaceOnUse" x="0" y="0" width="24" height="16">
<path d="M0 16H24V1.90735e-06H0V16Z" fill="white"/>
</mask>
<g mask="url(#mask8_901_16)">
<path d="M12.0581 3.45432C12.0581 3.45432 12.0671 3.46527 12.0711 3.47025L12.0621 3.45233L12.0801 3.39661H12.0781L12.0571 3.3787L12.0971 3.31801L12.1451 3.30308L12.1461 3.22646C12.1461 3.22646 12.1751 3.21651 12.1841 3.21154L12.1421 3.22248L12.1431 3.30109L12.0901 3.31204L12.0521 3.38169L12.0761 3.40258C12.0771 3.40557 12.0581 3.45432 12.0581 3.45432Z" fill="#F4EB26"/>
</g>
<mask id="mask9_901_16" style="mask-type:luminance" maskUnits="userSpaceOnUse" x="0" y="0" width="24" height="16">
<path d="M0 16H24V1.90735e-06H0V16Z" fill="white"/>
</mask>
<g mask="url(#mask9_901_16)">
<path d="M12.1499 3.07054L12.1799 3.07353L12.2129 3.08945L12.2389 3.12527H12.2019L12.1499 3.07054ZM12.3519 3.29741L12.3509 3.2387C12.3509 3.2387 12.3319 3.23273 12.3219 3.22676C12.3289 3.22477 12.3899 3.22477 12.3899 3.22477L12.3639 3.24169V3.29243L12.4719 3.29343L12.5079 3.28447L12.4649 3.31631L12.4389 3.36407L12.4229 3.36606L12.3819 3.31233L12.3359 3.31333C12.3359 3.31333 12.3089 3.37701 12.3089 3.378C12.3089 3.379 12.2899 3.37601 12.2899 3.37601L12.2399 3.32228C12.2399 3.32228 12.2249 3.29542 12.2269 3.29542C12.2299 3.29542 12.3519 3.29741 12.3519 3.29741ZM12.4489 3.07154L12.4859 3.06656L12.5169 3.03771L12.5449 3.04169L12.4609 3.10437L12.4489 3.07154ZM12.3289 3.04567L12.3259 3.06955L12.2819 3.07651L12.3289 3.04567ZM12.4049 3.06756L12.3599 3.06855L12.3569 3.04368L12.4049 3.06756ZM12.1249 3.5193L12.0999 3.50636L12.1519 3.45363L12.1249 3.5193ZM12.2309 3.21482L12.2069 3.23771V3.25661L12.2119 3.27452L12.2289 3.29442L12.1999 3.2994C12.1999 3.2994 12.1999 3.36308 12.2009 3.36308C12.2019 3.36308 12.2149 3.37203 12.2179 3.37303C12.2189 3.37502 12.2219 3.3979 12.2219 3.3979L12.2539 3.41183L12.2559 3.43671L12.2899 3.45562C12.2899 3.45562 12.2989 3.4984 12.3009 3.4984C12.3019 3.4984 12.3209 3.50437 12.3209 3.50437V3.50537L12.3229 3.4994L12.3559 3.48149L12.3549 3.44467L12.3229 3.4387L12.3119 3.42676L12.3459 3.43273L12.3889 3.42875L12.4029 3.42278C12.3969 3.43671 12.3919 3.43572 12.3909 3.43572C12.3899 3.43572 12.3669 3.44766 12.3669 3.44766L12.3689 3.48248C12.3689 3.48248 12.4419 3.49144 12.4409 3.49144C12.4399 3.49144 12.4409 3.50537 12.4389 3.50537C12.4369 3.50537 12.3629 3.48945 12.3629 3.48945L12.3219 3.51333C12.3239 3.52527 12.3259 3.54318 12.3259 3.54417C12.3259 3.54517 12.3549 3.57104 12.3549 3.57104L12.4029 3.57004C12.4029 3.57004 12.4279 3.5382 12.4289 3.5382C12.4299 3.5382 12.4459 3.48447 12.4459 3.48447L12.4729 3.45761L12.4769 3.40188C12.4769 3.39989 12.5209 3.39392 12.5209 3.39392L12.5249 3.29243L12.5049 3.28248V3.24567L12.4659 3.18895L12.5049 3.18497L12.5159 3.17502L12.5519 3.19293L12.5679 3.27154L12.6299 3.32825V3.35412L12.5679 3.36109L12.5229 3.42079V3.51333C12.5229 3.51333 12.5469 3.5581 12.5479 3.5591C12.5489 3.56009 12.5279 3.5591 12.5279 3.5591L12.5039 3.5193L12.4439 3.55014L12.4549 3.60387L12.4819 3.62875L12.4389 3.63372C12.4389 3.63372 12.4139 3.59591 12.4139 3.59492C12.4139 3.59392 12.3819 3.60686 12.3819 3.60686L12.3729 3.63771C12.3729 3.63771 12.3599 3.61482 12.3599 3.61283C12.3599 3.61183 12.3279 3.61581 12.3269 3.61581C12.3259 3.61581 12.3129 3.63771 12.3129 3.63771L12.2539 3.6387L12.2499 3.62676L12.2609 3.61581L12.2519 3.53323L12.2029 3.53721L12.1969 3.57701L12.1769 3.56905L12.1719 3.46656L12.1519 3.44865L12.1409 3.39293L12.0829 3.39591L12.1029 3.43372L12.0799 3.48945L12.0739 3.47751L12.0869 3.51532L12.1229 3.52029L12.1309 3.57004L12.1899 3.57999L12.2419 3.61681L12.2459 3.6397L12.3059 3.64069L12.3469 3.65363L12.4909 3.63771L12.5099 3.60885L12.5119 3.56805L12.5879 3.56606L12.5959 3.50139H12.6369L12.6309 3.42974L12.6659 3.43273L12.6579 3.3979L12.6359 3.37004L12.6309 3.32527L12.5719 3.26656L12.5579 3.18895C12.5579 3.18895 12.5199 3.17203 12.5199 3.17104C12.5199 3.17004 12.5169 3.1193 12.5169 3.1193L12.5609 3.0596L12.5569 3.03571L12.5159 3.03472L12.4859 3.0596C12.4859 3.0596 12.4449 3.06358 12.4449 3.06457V3.08248C12.4449 3.08248 12.4559 3.11631 12.4559 3.11731H12.4089V3.11532L12.2819 3.12029L12.2829 3.10636L12.3309 3.10238L12.3369 3.08348C12.3369 3.08348 12.3509 3.08248 12.3509 3.08348C12.3509 3.08447 12.3609 3.10039 12.3609 3.10039L12.4079 3.10935L12.4089 3.11134L12.4079 3.06358L12.3409 3.03173C12.3409 3.03173 12.2809 3.07253 12.2809 3.07353C12.2809 3.07452 12.2769 3.12129 12.2769 3.12129L12.2489 3.12925L12.2179 3.08547L12.1649 3.06557L12.1359 3.06358V3.0984L12.1909 3.17004L12.1859 3.21084C12.1869 3.21084 12.1879 3.20984 12.1879 3.20984C12.1879 3.20885 12.2309 3.21482 12.2309 3.21482Z" fill="#F4EB26"/>
</g>
<mask id="mask10_901_16" style="mask-type:luminance" maskUnits="userSpaceOnUse" x="0" y="0" width="24" height="16">
<path d="M0 16H24V1.90735e-06H0V16Z" fill="white"/>
</mask>
<g mask="url(#mask10_901_16)">
<path d="M12.1449 3.30278L12.0969 3.31771L12.0569 3.3794L12.0779 3.39631H12.0819V3.39532L12.0829 3.39631L12.1409 3.39333L12.1519 3.44805L12.1729 3.46696L12.1769 3.56945L12.1969 3.57741L12.2029 3.53661L12.2509 3.53363L12.2609 3.61522L12.2489 3.62616L12.2549 3.6391L12.3119 3.63711L12.3269 3.61522L12.3599 3.61323L12.3729 3.63711L12.3829 3.60626L12.4139 3.59432C12.4139 3.59631 12.4379 3.63412 12.4379 3.63412L12.4809 3.62815L12.4549 3.60427L12.4439 3.55054L12.5029 3.5197L12.5279 3.5585C12.5279 3.5585 12.5499 3.56049 12.5489 3.5585L12.5229 3.51373V3.42119L12.5679 3.36049L12.6309 3.35353V3.32766L12.5679 3.27094L12.5519 3.19233L12.5159 3.17542L12.5059 3.18537L12.4669 3.18935L12.5059 3.24606V3.28288L12.5239 3.29184L12.5199 3.39432L12.4769 3.40129L12.4729 3.458L12.4459 3.48487L12.4289 3.53761L12.4029 3.57044L12.3539 3.57144C12.3539 3.57144 12.3259 3.54557 12.3259 3.54358C12.3259 3.54358 12.3239 3.52467 12.3219 3.51373L12.3159 3.51671L12.3209 3.50577V3.50477L12.3009 3.4988L12.2899 3.45601L12.2569 3.43711L12.2549 3.41124L12.2219 3.39731L12.2179 3.37343C12.2159 3.37243 12.2009 3.36348 12.2009 3.36348L12.1999 3.2998L12.2279 3.29482L12.2109 3.27393L12.2069 3.25601V3.2381L12.2299 3.21422C12.2299 3.21422 12.1879 3.20825 12.1879 3.21024L12.1859 3.21124L12.1839 3.21223C12.1749 3.21621 12.1459 3.22716 12.1459 3.22716L12.1449 3.30278Z" fill="#554C21"/>
</g>
<mask id="mask11_901_16" style="mask-type:luminance" maskUnits="userSpaceOnUse" x="0" y="0" width="24" height="16">
<path d="M0 16H24V1.90735e-06H0V16Z" fill="white"/>
</mask>
<g mask="url(#mask11_901_16)">
<path d="M12.438 3.50536C12.44 3.50536 12.44 3.49143 12.44 3.49143C12.443 3.49143 12.369 3.48248 12.369 3.48248L12.368 3.44765C12.368 3.44765 12.389 3.43571 12.391 3.43571C12.391 3.43571 12.396 3.43671 12.403 3.42278L12.388 3.42875L12.345 3.43273L12.311 3.42676L12.324 3.4387L12.354 3.44467L12.355 3.48148L12.324 3.49939L12.321 3.50536L12.316 3.5173L12.323 3.51332L12.363 3.48944C12.363 3.48944 12.436 3.50536 12.438 3.50536Z" fill="#554C21"/>
</g>
<mask id="mask12_901_16" style="mask-type:luminance" maskUnits="userSpaceOnUse" x="0" y="0" width="24" height="16">
<path d="M0 16H24V1.90735e-06H0V16Z" fill="white"/>
</mask>
<g mask="url(#mask12_901_16)">
<path d="M12.2779 3.3207C12.2779 3.31572 12.2819 3.31174 12.2879 3.31174H12.2989C12.3019 3.31174 12.3059 3.31572 12.3059 3.3207V3.33065C12.3059 3.33562 12.3019 3.3396 12.2989 3.3396H12.2879C12.2819 3.3396 12.2779 3.33562 12.2779 3.33065V3.3207ZM12.4139 3.31473C12.4139 3.30975 12.4189 3.30577 12.4239 3.30577H12.4329C12.4379 3.30577 12.4419 3.30975 12.4419 3.31473V3.32468C12.4419 3.32965 12.4379 3.33363 12.4329 3.33363H12.4239C12.4189 3.33363 12.4139 3.32965 12.4139 3.32468V3.31473ZM12.2399 3.32169L12.2909 3.37543C12.2909 3.37543 12.3089 3.37941 12.3089 3.37841C12.3089 3.37642 12.3359 3.31274 12.3359 3.31274L12.3819 3.31174L12.4239 3.36647L12.4379 3.36349L12.4649 3.31672L12.5079 3.28388L12.4709 3.29284L12.3629 3.29184V3.24209L12.3889 3.22518C12.3889 3.22518 12.3299 3.22518 12.3219 3.22717C12.3319 3.23314 12.3499 3.23811 12.3499 3.23811L12.3519 3.29682C12.3519 3.29682 12.2289 3.29582 12.2269 3.29582C12.2239 3.29582 12.2399 3.32169 12.2399 3.32169Z" fill="#554C21"/>
</g>
<mask id="mask13_901_16" style="mask-type:luminance" maskUnits="userSpaceOnUse" x="0" y="0" width="24" height="16">
<path d="M0 16H24V1.90735e-06H0V16Z" fill="white"/>
</mask>
<g mask="url(#mask13_901_16)">
<path d="M12.2974 3.33969C12.3034 3.33969 12.3074 3.33571 12.3074 3.33074V3.32079C12.3074 3.31581 12.3034 3.31183 12.2974 3.31183H12.2864C12.2814 3.31183 12.2774 3.31581 12.2774 3.32079V3.33074C12.2774 3.33571 12.2814 3.33969 12.2864 3.33969H12.2974Z" fill="#7A6B3A"/>
</g>
<mask id="mask14_901_16" style="mask-type:luminance" maskUnits="userSpaceOnUse" x="0" y="0" width="24" height="16">
<path d="M0 16H24V1.90735e-06H0V16Z" fill="white"/>
</mask>
<g mask="url(#mask14_901_16)">
<path d="M12.4332 3.33383C12.4382 3.33383 12.4422 3.32985 12.4422 3.32488V3.31493C12.4422 3.30995 12.4382 3.30597 12.4332 3.30597H12.4232C12.4182 3.30597 12.4122 3.30995 12.4122 3.31493V3.32488C12.4122 3.32985 12.4182 3.33383 12.4232 3.33383H12.4332Z" fill="#7B6C3B"/>
</g>
<mask id="mask15_901_16" style="mask-type:luminance" maskUnits="userSpaceOnUse" x="0" y="0" width="24" height="16">
<path d="M0 16H24V1.90735e-06H0V16Z" fill="white"/>
</mask>
<g mask="url(#mask15_901_16)">
<path d="M12.2387 3.12488L12.2147 3.08906L12.1787 3.07413L12.1497 3.07015L12.2027 3.12488H12.2387Z" fill="#554C21"/>
</g>
<mask id="mask16_901_16" style="mask-type:luminance" maskUnits="userSpaceOnUse" x="0" y="0" width="24" height="16">
<path d="M0 16H24V1.90735e-06H0V16Z" fill="white"/>
</mask>
<g mask="url(#mask16_901_16)">
<path d="M12.5443 3.04189L12.5173 3.03791L12.4853 3.06577L12.4493 3.07174L12.4613 3.10358L12.5443 3.04189Z" fill="#554C21"/>
</g>
<mask id="mask17_901_16" style="mask-type:luminance" maskUnits="userSpaceOnUse" x="0" y="0" width="24" height="16">
<path d="M0 16H24V1.90735e-06H0V16Z" fill="white"/>
</mask>
<g mask="url(#mask17_901_16)">
<path d="M12.3609 3.10061C12.3609 3.10061 12.3499 3.08469 12.3499 3.0827H12.3369L12.3309 3.10161L12.2829 3.10658L12.2809 3.12051L12.41 3.11554H12.413L12.41 3.11156L12.407 3.10857L12.3609 3.10061Z" fill="#554C21"/>
</g>
<mask id="mask18_901_16" style="mask-type:luminance" maskUnits="userSpaceOnUse" x="0" y="0" width="24" height="16">
<path d="M0 16H24V1.90735e-06H0V16Z" fill="white"/>
</mask>
<g mask="url(#mask18_901_16)">
<path d="M12.4047 3.06706L12.3557 3.04417L12.3597 3.06805L12.4047 3.06706Z" fill="#554C21"/>
</g>
<mask id="mask19_901_16" style="mask-type:luminance" maskUnits="userSpaceOnUse" x="0" y="0" width="24" height="16">
<path d="M0 16H24V1.90735e-06H0V16Z" fill="white"/>
</mask>
<g mask="url(#mask19_901_16)">
<path d="M12.3287 3.04527L12.2817 3.07611L12.3257 3.06915L12.3287 3.04527Z" fill="#554C21"/>
</g>
<mask id="mask20_901_16" style="mask-type:luminance" maskUnits="userSpaceOnUse" x="0" y="0" width="24" height="16">
<path d="M0 16H24V1.90735e-06H0V16Z" fill="white"/>
</mask>
<g mask="url(#mask20_901_16)">
<path d="M12.1022 3.43344L12.0822 3.39563L12.0812 3.39464V3.39663L12.0612 3.45235L12.0712 3.47026L12.0742 3.47723L12.0802 3.48917L12.1022 3.43344Z" fill="#554C21"/>
</g>
<mask id="mask21_901_16" style="mask-type:luminance" maskUnits="userSpaceOnUse" x="0" y="0" width="24" height="16">
<path d="M0 16H24V1.90735e-06H0V16Z" fill="white"/>
</mask>
<g mask="url(#mask21_901_16)">
<path d="M12.1246 3.51941L12.1516 3.45374L12.1006 3.50647L12.1246 3.51941Z" fill="#554C21"/>
</g>
<mask id="mask22_901_16" style="mask-type:luminance" maskUnits="userSpaceOnUse" x="0" y="0" width="24" height="16">
<path d="M0 16H24V1.90735e-06H0V16Z" fill="white"/>
</mask>
<g mask="url(#mask22_901_16)">
<path d="M11.4287 3.09383L11.4577 3.09681L11.4927 3.11273L11.5177 3.14855H11.4807L11.4287 3.09383ZM11.6087 3.06796L11.6047 3.09283L11.5607 3.0998L11.6087 3.06796ZM11.6837 3.09084L11.6387 3.09184L11.6357 3.06696L11.6837 3.09084ZM11.7277 3.09482L11.7647 3.08885L11.7957 3.06099L11.8227 3.06497L11.7397 3.12766L11.7277 3.09482ZM11.4037 3.54258L11.3787 3.52965L11.4307 3.47691L11.4037 3.54258ZM11.5097 3.2381L11.4857 3.26099V3.2799L11.4907 3.29781L11.5067 3.31771L11.4787 3.32169C11.4787 3.32169 11.4787 3.38636 11.4797 3.38636C11.4807 3.38636 11.4947 3.39532 11.4957 3.39631C11.4977 3.39731 11.5007 3.42119 11.5007 3.42119L11.5327 3.43512L11.5357 3.45999L11.5687 3.4789C11.5687 3.4789 11.5777 3.52169 11.5797 3.52169C11.5807 3.52169 11.5997 3.52766 11.5997 3.52766V3.52865L11.6017 3.52268L11.6347 3.50477L11.6327 3.46796L11.6017 3.46199L11.5907 3.45004L11.6247 3.45601L11.6677 3.45203L11.6817 3.44507C11.6757 3.45999 11.6707 3.459 11.6697 3.459C11.6687 3.459 11.6457 3.47094 11.6457 3.47094L11.6477 3.50577C11.6477 3.50577 11.7207 3.51472 11.7197 3.51472C11.7187 3.51472 11.7197 3.52865 11.7177 3.52865C11.7147 3.52865 11.6407 3.51273 11.6407 3.51273L11.6007 3.53661C11.6027 3.54855 11.6047 3.56646 11.6047 3.56746C11.6047 3.56845 11.6327 3.59432 11.6327 3.59432L11.6817 3.59333C11.6817 3.59333 11.7067 3.56149 11.7077 3.56149C11.7087 3.56149 11.7247 3.50776 11.7247 3.50776L11.7517 3.48089C11.7517 3.48089 11.7557 3.42517 11.7557 3.42417C11.7557 3.42318 11.7997 3.41721 11.7997 3.41721L11.8027 3.31572L11.7867 3.30676L11.7447 3.3396L11.7177 3.38736L11.7027 3.38935L11.6617 3.33462L11.6147 3.33661C11.6147 3.33661 11.5877 3.40029 11.5877 3.40129C11.5877 3.40228 11.5687 3.3993 11.5687 3.3993L11.5187 3.34557C11.5187 3.34557 11.5037 3.3187 11.5057 3.3187C11.5087 3.3187 11.6307 3.3197 11.6307 3.3197L11.6297 3.26199C11.6297 3.26199 11.6107 3.25601 11.6007 3.25004C11.6087 3.24805 11.6687 3.24805 11.6687 3.24805L11.6427 3.26497V3.31572L11.7507 3.31671L11.7867 3.30676L11.7847 3.30577V3.26895L11.7457 3.21223L11.7847 3.20825L11.7947 3.1983L11.8297 3.21522L11.8467 3.29482L11.9097 3.35154V3.37641L11.8467 3.38437L11.8017 3.44407V3.53661C11.8017 3.53661 11.8267 3.58039 11.8277 3.58238C11.8287 3.58338 11.8067 3.58238 11.8067 3.58238L11.7827 3.54258L11.7227 3.57343L11.7337 3.62716L11.7607 3.65203L11.7177 3.65701C11.7177 3.65701 11.6927 3.6192 11.6927 3.6182C11.6927 3.61621 11.6617 3.63014 11.6617 3.63014L11.6517 3.66099C11.6517 3.66099 11.6387 3.63711 11.6387 3.63611C11.6387 3.63512 11.6067 3.6391 11.6057 3.6391C11.6047 3.6391 11.5917 3.66099 11.5917 3.66099L11.5327 3.66198L11.5287 3.64905L11.5397 3.6391L11.5307 3.55651L11.4817 3.56049L11.4757 3.60029L11.4557 3.59233L11.4517 3.48985L11.4307 3.47194L11.4187 3.41621L11.3617 3.4192L11.3817 3.45701L11.3587 3.51273L11.3527 3.50079L11.3657 3.5386L11.4017 3.54358L11.4107 3.59333L11.4687 3.60228L11.5207 3.6391L11.5247 3.66298L11.5847 3.66398L11.6257 3.67691L11.7697 3.66099L11.7887 3.63114L11.7907 3.59134L11.8677 3.58935L11.8747 3.52467H11.9157L11.9107 3.45203L11.9447 3.45502L11.9367 3.42119L11.9147 3.39233L11.9107 3.34855L11.8507 3.28985L11.8367 3.21223C11.8367 3.21223 11.7987 3.19532 11.7987 3.19432C11.7987 3.19333 11.7957 3.14258 11.7957 3.14258L11.8397 3.08288L11.8357 3.059L11.7947 3.058L11.7647 3.08288C11.7647 3.08288 11.7237 3.08686 11.7237 3.08786V3.10577L11.7347 3.1396C11.7347 3.14059 11.6877 3.1396 11.6877 3.1396L11.5607 3.14358L11.5617 3.12965L11.6097 3.12467L11.6157 3.10676C11.6157 3.10676 11.6297 3.10577 11.6297 3.10676C11.6297 3.10776 11.6397 3.12368 11.6397 3.12368L11.6867 3.13164L11.6877 3.13462L11.6867 3.08686L11.6207 3.05502C11.6207 3.05502 11.5597 3.09582 11.5597 3.09681C11.5597 3.09781 11.5567 3.14457 11.5567 3.14457L11.5267 3.15253L11.4967 3.10875L11.4437 3.08885L11.4147 3.08686V3.12069L11.4697 3.19233L11.4647 3.23412C11.4657 3.23412 11.4667 3.23313 11.4667 3.23313C11.4667 3.23213 11.5097 3.2381 11.5097 3.2381Z" fill="#F4EB26"/>
</g>
<mask id="mask23_901_16" style="mask-type:luminance" maskUnits="userSpaceOnUse" x="0" y="0" width="24" height="16">
<path d="M0 16H24V1.90735e-06H0V16Z" fill="white"/>
</mask>
<g mask="url(#mask23_901_16)">
<path d="M11.3608 3.4193H11.3568L11.3358 3.40238L11.3748 3.34069L11.4238 3.32577L11.4248 3.25015C11.4248 3.25015 11.4538 3.2392 11.4628 3.23423L11.4218 3.24517L11.4228 3.32378L11.3688 3.33572L11.3318 3.40437L11.3548 3.42627C11.3558 3.42826 11.3368 3.47801 11.3368 3.47801C11.3368 3.47801 11.3458 3.48895 11.3498 3.49393L11.3408 3.47502L11.3608 3.4193Z" fill="#F4EB26"/>
</g>
<mask id="mask24_901_16" style="mask-type:luminance" maskUnits="userSpaceOnUse" x="0" y="0" width="24" height="16">
<path d="M0 16H24V1.90735e-06H0V16Z" fill="white"/>
</mask>
<g mask="url(#mask24_901_16)">
<path d="M11.4239 3.32558L11.3749 3.3405L11.3359 3.40219L11.3569 3.4201L11.3609 3.41911V3.41811L11.3619 3.41911L11.4189 3.41612L11.4309 3.47185L11.4519 3.49075L11.4559 3.59224L11.4759 3.6002L11.4819 3.5604L11.5309 3.55642L11.5399 3.63901L11.5289 3.64896L11.5329 3.6619L11.5919 3.6609L11.6059 3.63901L11.6389 3.63603L11.6519 3.6609L11.6619 3.63005C11.6619 3.63005 11.6929 3.61612 11.6929 3.61811L11.7169 3.65692L11.7599 3.65195L11.7339 3.62707L11.7229 3.57433L11.7829 3.54249L11.8069 3.58229H11.8279C11.8269 3.5803 11.8019 3.53652 11.8019 3.53652V3.44399L11.8469 3.38428L11.9099 3.37632V3.35145L11.8469 3.29473L11.8299 3.21513L11.7949 3.19821L11.7849 3.20816L11.7459 3.21214L11.7849 3.26886V3.30568L11.7869 3.30667L11.8029 3.31563L11.7989 3.41712L11.7559 3.42408C11.7559 3.42607 11.7519 3.4808 11.7519 3.4808L11.7249 3.50767L11.7079 3.5614L11.6819 3.59423L11.6329 3.59523L11.6049 3.56737C11.6049 3.56737 11.6029 3.54846 11.6009 3.53652L11.5949 3.5405L11.5999 3.52856V3.52757L11.5799 3.5216C11.5779 3.5216 11.5689 3.47881 11.5689 3.47881L11.5359 3.45991L11.5329 3.43503L11.5009 3.4211C11.5009 3.4211 11.4979 3.39722 11.4959 3.39622L11.4799 3.38627L11.4789 3.32259L11.5069 3.31762L11.4909 3.29772L11.4859 3.27981V3.2609L11.5089 3.23802L11.4669 3.23304L11.4649 3.23404L11.4629 3.23503C11.4539 3.24001 11.4249 3.24996 11.4249 3.24996L11.4239 3.32558Z" fill="#554C21"/>
</g>
<mask id="mask25_901_16" style="mask-type:luminance" maskUnits="userSpaceOnUse" x="0" y="0" width="24" height="16">
<path d="M0 16H24V1.90735e-06H0V16Z" fill="white"/>
</mask>
<g mask="url(#mask25_901_16)">
<path d="M11.7172 3.52865C11.7192 3.52865 11.7192 3.51472 11.7192 3.51472L11.6472 3.50576L11.6462 3.47094L11.6702 3.459C11.6702 3.459 11.6752 3.45999 11.6812 3.44507L11.6672 3.45203L11.6242 3.45601L11.5902 3.45004L11.6022 3.46198L11.6332 3.46795L11.6342 3.50477L11.6022 3.52268L11.5992 3.52865L11.5942 3.54059L11.6012 3.53661L11.6412 3.51273C11.6412 3.51273 11.7152 3.52865 11.7172 3.52865Z" fill="#554C21"/>
</g>
<mask id="mask26_901_16" style="mask-type:luminance" maskUnits="userSpaceOnUse" x="0" y="0" width="24" height="16">
<path d="M0 16H24V1.90735e-06H0V16Z" fill="white"/>
</mask>
<g mask="url(#mask26_901_16)">
<path d="M11.7207 3.34795C11.7207 3.35293 11.7167 3.35691 11.7117 3.35691H11.7007C11.6967 3.35691 11.6927 3.35293 11.6927 3.34795V3.338C11.6927 3.33303 11.6967 3.32905 11.7007 3.32905H11.7117C11.7167 3.32905 11.7207 3.33303 11.7207 3.338V3.34795ZM11.5857 3.35392C11.5857 3.3589 11.5807 3.36288 11.5757 3.36288H11.5657C11.5607 3.36288 11.5567 3.3589 11.5567 3.35392V3.34397C11.5567 3.339 11.5607 3.33502 11.5657 3.33502H11.5757C11.5807 3.33502 11.5857 3.339 11.5857 3.34397V3.35392ZM11.6427 3.31512V3.26536L11.6687 3.24745C11.6687 3.24745 11.6087 3.24745 11.6007 3.25044C11.6107 3.25641 11.6297 3.26238 11.6297 3.26238L11.6307 3.32009C11.6307 3.32009 11.5087 3.3191 11.5057 3.3191C11.5037 3.3191 11.5187 3.34596 11.5187 3.34596L11.5687 3.3987C11.5687 3.3987 11.5877 3.40268 11.5877 3.40069L11.6147 3.33601L11.6617 3.33502L11.7027 3.38974L11.7177 3.38775L11.7447 3.33999L11.7867 3.30716L11.7507 3.31611L11.6427 3.31512Z" fill="#554C21"/>
</g>
<mask id="mask27_901_16" style="mask-type:luminance" maskUnits="userSpaceOnUse" x="0" y="0" width="24" height="16">
<path d="M0 16H24V1.90735e-06H0V16Z" fill="white"/>
</mask>
<g mask="url(#mask27_901_16)">
<path d="M11.5659 3.33484C11.5609 3.33484 11.5569 3.33882 11.5569 3.3438V3.35474C11.5569 3.35872 11.5609 3.3627 11.5659 3.3627H11.5759C11.5809 3.3627 11.5859 3.35872 11.5859 3.35474V3.3438C11.5859 3.33882 11.5809 3.33484 11.5759 3.33484H11.5659Z" fill="#7A6B3A"/>
</g>
<mask id="mask28_901_16" style="mask-type:luminance" maskUnits="userSpaceOnUse" x="0" y="0" width="24" height="16">
<path d="M0 16H24V1.90735e-06H0V16Z" fill="white"/>
</mask>
<g mask="url(#mask28_901_16)">
<path d="M11.7012 3.32944C11.6972 3.32944 11.6922 3.33242 11.6922 3.33839V3.34834C11.6922 3.35232 11.6972 3.3573 11.7012 3.3573H11.7122C11.7172 3.3573 11.7212 3.35232 11.7212 3.34834V3.33839C11.7212 3.33242 11.7172 3.32944 11.7122 3.32944H11.7012Z" fill="#7B6C3B"/>
</g>
<mask id="mask29_901_16" style="mask-type:luminance" maskUnits="userSpaceOnUse" x="0" y="0" width="24" height="16">
<path d="M0 16H24V1.90735e-06H0V16Z" fill="white"/>
</mask>
<g mask="url(#mask29_901_16)">
<path d="M11.5175 3.14825L11.4935 3.11243L11.4575 3.09751L11.4285 3.09353L11.4805 3.14825H11.5175Z" fill="#554C21"/>
</g>
<mask id="mask30_901_16" style="mask-type:luminance" maskUnits="userSpaceOnUse" x="0" y="0" width="24" height="16">
<path d="M0 16H24V1.90735e-06H0V16Z" fill="white"/>
</mask>
<g mask="url(#mask30_901_16)">
<path d="M11.8228 3.06466L11.7958 3.06168L11.7648 3.08854L11.7278 3.09451L11.7398 3.12735L11.8228 3.06466Z" fill="#554C21"/>
</g>
<mask id="mask31_901_16" style="mask-type:luminance" maskUnits="userSpaceOnUse" x="0" y="0" width="24" height="16">
<path d="M0 16H24V1.90735e-06H0V16Z" fill="white"/>
</mask>
<g mask="url(#mask31_901_16)">
<path d="M11.6402 3.12399L11.6292 3.10608H11.6152L11.6092 3.12498L11.5612 3.12996L11.5602 3.14389L11.6882 3.13892H11.6912L11.6882 3.13394L11.6862 3.13195L11.6402 3.12399Z" fill="#554C21"/>
</g>
<mask id="mask32_901_16" style="mask-type:luminance" maskUnits="userSpaceOnUse" x="0" y="0" width="24" height="16">
<path d="M0 16H24V1.90735e-06H0V16Z" fill="white"/>
</mask>
<g mask="url(#mask32_901_16)">
<path d="M11.684 3.09044L11.6349 3.06755L11.6389 3.09143L11.684 3.09044Z" fill="#554C21"/>
</g>
<mask id="mask33_901_16" style="mask-type:luminance" maskUnits="userSpaceOnUse" x="0" y="0" width="24" height="16">
<path d="M0 16H24V1.90735e-06H0V16Z" fill="white"/>
</mask>
<g mask="url(#mask33_901_16)">
<path d="M11.6084 3.06807L11.5604 3.09991L11.6044 3.09195L11.6084 3.06807Z" fill="#554C21"/>
</g>
<mask id="mask34_901_16" style="mask-type:luminance" maskUnits="userSpaceOnUse" x="0" y="0" width="24" height="16">
<path d="M0 16H24V1.90735e-06H0V16Z" fill="white"/>
</mask>
<g mask="url(#mask34_901_16)">
<path d="M11.3589 3.51263L11.3809 3.45691L11.3609 3.4191L11.3409 3.47482L11.3499 3.49373L11.3529 3.50069L11.3589 3.51263Z" fill="#554C21"/>
</g>
<mask id="mask35_901_16" style="mask-type:luminance" maskUnits="userSpaceOnUse" x="0" y="0" width="24" height="16">
<path d="M0 16H24V1.90735e-06H0V16Z" fill="white"/>
</mask>
<g mask="url(#mask35_901_16)">
<path d="M11.4038 3.54279L11.4308 3.47711L11.3788 3.52985L11.4038 3.54279Z" fill="#554C21"/>
</g>
<mask id="mask36_901_16" style="mask-type:luminance" maskUnits="userSpaceOnUse" x="0" y="0" width="24" height="16">
<path d="M0 16H24V1.90735e-06H0V16Z" fill="white"/>
</mask>
<g mask="url(#mask36_901_16)">
<path d="M12.8951 4.31621L12.9951 4.3381C12.9931 4.358 12.9991 4.36596 12.9901 4.37989C12.9831 4.39282 12.9761 4.40277 12.9471 4.40974L12.8531 4.41173L12.8511 4.36795L12.8951 4.31621ZM13.0141 3.95302C12.9901 3.96198 12.9811 3.95103 12.9781 3.93611C12.9771 3.92417 12.9901 3.91024 13.0021 3.89531C12.9671 3.8983 12.9691 3.87143 12.9881 3.84755C13.0041 3.82566 13.0571 3.77889 13.0791 3.75501C13.0641 3.75601 13.0491 3.757 13.0361 3.74705C13.0301 3.74009 13.0411 3.72616 13.0461 3.71521C13.0291 3.71521 13.0221 3.71223 13.0191 3.70327C13.0161 3.69432 13.0241 3.67342 13.0291 3.66148C13.0061 3.65949 12.9391 3.67342 12.9181 3.66546C12.8981 3.6575 12.9031 3.62864 12.9051 3.61372C12.9061 3.60178 12.9311 3.56496 12.9441 3.53511C12.9551 3.50825 12.9631 3.48636 12.9691 3.45551C12.9451 3.43959 12.9101 3.40476 12.9001 3.38387C12.8921 3.36198 12.8991 3.34009 12.9171 3.32516L13.0291 3.38188C13.0471 3.36297 13.0621 3.34108 13.1011 3.32914L13.2851 3.45053L13.4141 3.44556C13.3851 3.50725 13.3471 3.53412 13.2551 3.55999C13.2861 3.61272 13.3191 3.65949 13.3631 3.68835L13.3971 3.6983C13.4861 3.69929 13.4781 3.71024 13.4991 3.71521C13.5291 3.70825 13.5031 3.70128 13.6021 3.69432C13.6151 3.6983 13.6321 3.6983 13.6452 3.69531C13.6592 3.69332 13.6742 3.68337 13.6862 3.67641L13.7242 3.67541C13.7552 3.69034 13.7732 3.68835 13.8072 3.6784L13.8722 3.6774C13.9142 3.68835 13.9342 3.68536 13.9582 3.6774L14.0082 3.64158C14.0182 3.63063 14.0312 3.62068 14.0402 3.62267C14.0482 3.62466 14.0572 3.64058 14.0602 3.65153L14.0622 3.74904L14.0512 3.76795C14.0442 3.7769 14.0352 3.78984 14.0352 3.7978C14.0362 3.80675 14.0422 3.81272 14.0482 3.82168L14.0442 3.86148C14.0372 3.88337 13.9852 3.92815 13.9872 3.96596C13.9812 3.99979 13.9772 4.04158 13.9922 4.05849C13.9932 4.06447 13.9802 4.07143 13.9752 4.0784C13.9732 4.09233 13.9712 4.12815 13.9752 4.14108C13.9782 4.15402 13.9852 4.15004 13.9942 4.157C13.9962 4.15899 13.9922 4.22267 13.9922 4.22367C13.9542 4.25451 13.9142 4.28138 13.8852 4.33014L13.8842 4.38984L13.8292 4.43262L13.7422 4.40078L13.7492 4.38685L13.8032 4.30128C13.8162 4.26447 13.8132 4.21173 13.8122 4.18287C13.8002 4.15601 13.7692 4.1381 13.7492 4.13412C13.7152 4.17193 13.6702 4.2177 13.6411 4.23859C13.6351 4.25153 13.6351 4.27342 13.6261 4.28536C13.6171 4.29631 13.6021 4.30029 13.5841 4.30825L13.5711 4.34407L13.4861 4.32317C13.4911 4.31223 13.5011 4.30626 13.5061 4.29432C13.5121 4.28039 13.5081 4.27342 13.5111 4.26049L13.5861 4.1381C13.5721 4.14208 13.5331 4.14805 13.5191 4.14506C13.5051 4.14208 13.5021 4.13312 13.4971 4.12417C13.4871 4.13014 13.4641 4.14606 13.4541 4.14606C13.4431 4.14606 13.4281 4.14506 13.4241 4.12815C13.4151 4.1371 13.4101 4.14506 13.3951 4.15004C13.3851 4.15501 13.3751 4.15302 13.3491 4.15302C13.3481 4.20874 13.2771 4.25153 13.2641 4.30228L13.2571 4.41073C13.2511 4.42068 13.2271 4.42466 13.2111 4.45153L13.1211 4.42765C13.1321 4.35004 13.1631 4.34904 13.1661 4.32317V4.21869C13.1671 4.18088 13.1891 4.15103 13.1981 4.12516C13.1801 4.11521 13.1691 4.10526 13.1531 4.10526C13.1361 4.10526 13.1211 4.11223 13.0971 4.12516C13.0841 4.15601 13.0431 4.2167 13.0231 4.24556C13.0251 4.26148 13.0251 4.2784 13.0211 4.29332C13.0181 4.30725 13.0041 4.31621 13.0001 4.33014L12.8991 4.30427C12.9161 4.2366 12.9441 4.22765 12.9581 4.19581C12.9751 4.16695 12.9781 4.14805 13.0041 4.13312C13.0071 4.10228 13.0011 4.0784 13.0151 4.05153C13.0091 4.0167 12.9991 3.98586 13.0141 3.95302ZM13.2321 3.24556C13.2921 3.23163 13.3621 3.22267 13.4251 3.22864C13.4651 3.23063 13.4631 3.25053 13.5051 3.24954C13.5441 3.25053 13.5971 3.28337 13.6562 3.28934C13.7192 3.29531 13.7472 3.29034 13.7892 3.26248L13.8212 3.26447L13.8222 3.28437C13.7962 3.30128 13.7772 3.32715 13.7322 3.33909C13.6872 3.35899 13.6662 3.36198 13.5571 3.35601L13.5631 3.37292C13.6542 3.39879 13.6682 3.42466 13.7282 3.43262C13.7892 3.44058 13.8672 3.43959 13.9212 3.41969H13.9572V3.4366C13.9052 3.46248 13.8462 3.4983 13.7772 3.50626C13.7072 3.51322 13.6161 3.50029 13.5391 3.48138C13.4971 3.47342 13.4621 3.44556 13.4161 3.43262C13.3881 3.42566 13.3201 3.40874 13.2881 3.4366L13.1131 3.32118C13.1481 3.28536 13.1611 3.26745 13.2321 3.24556ZM13.8152 4.47939C13.8082 4.48934 13.8062 4.4983 13.7772 4.50526L13.6842 4.49631V4.45451L13.7332 4.41272L13.8232 4.44257C13.8202 4.46248 13.8252 4.46447 13.8152 4.47939ZM13.5591 4.39382C13.5501 4.40974 13.5541 4.40775 13.5241 4.41471L13.4371 4.41173L13.4361 4.3779L13.4781 4.33511L13.5681 4.357C13.5651 4.37591 13.5691 4.37889 13.5591 4.39382ZM13.2021 4.49631C13.1961 4.50725 13.1911 4.51322 13.1631 4.52019L13.0811 4.52218V4.48138L13.1181 4.44655L13.2101 4.46148C13.2071 4.48138 13.2101 4.48138 13.2021 4.49631ZM13.9362 4.78586L14.3932 3.17889L13.7072 2.43959L12.8201 2.94805L12.6751 4.61471C13.2401 4.6575 13.4931 4.69531 13.9362 4.78586Z" fill="#252969"/>
</g>
<mask id="mask37_901_16" style="mask-type:luminance" maskUnits="userSpaceOnUse" x="0" y="0" width="24" height="16">
<path d="M0 16H24V1.90735e-06H0V16Z" fill="white"/>
</mask>
<g mask="url(#mask37_901_16)">
<path d="M11.9818 3.69143L11.9788 3.71531L11.9348 3.72228L11.9818 3.69143ZM12.0578 3.71332L12.0128 3.71431L12.0078 3.69043L12.0578 3.71332ZM12.1018 3.7173L12.1388 3.71232L12.1688 3.68446L12.1968 3.68745L12.1138 3.75014L12.1018 3.7173ZM11.7777 4.16606L11.7527 4.15312L11.8047 4.09939L11.7777 4.16606ZM11.8548 3.77103L11.8027 3.7163L11.8328 3.72029L11.8668 3.73521L11.8918 3.77103H11.8548ZM11.9298 3.76705L11.9008 3.77501L11.8708 3.73123L11.8167 3.71133L11.7887 3.71033V3.74417L11.8438 3.81581L11.8388 3.8566L11.8408 3.85561C11.8408 3.85461 11.8828 3.86058 11.8828 3.86058L11.8588 3.88347V3.90237L11.8648 3.92029L11.8808 3.94019L11.8528 3.94516C11.8528 3.94516 11.8528 4.00884 11.8538 4.00884C11.8548 4.00884 11.8688 4.01879 11.8698 4.01979C11.8718 4.02078 11.8748 4.04367 11.8748 4.04367L11.9068 4.0576L11.9098 4.08347L11.9428 4.10237C11.9428 4.10237 11.9518 4.14516 11.9538 4.14516C11.9548 4.14516 11.9738 4.15014 11.9738 4.15014V4.15113L11.9758 4.14616L12.0068 4.12725L12.0058 4.09143L11.9758 4.08446L11.9638 4.07252L11.9988 4.07849L12.0418 4.07551L12.0558 4.06755C12.0488 4.08347 12.0438 4.08247 12.0438 4.08247C12.0428 4.08247 12.0198 4.09342 12.0198 4.09342L12.0208 4.12825C12.0208 4.12825 12.0948 4.1372 12.0938 4.1372C12.0908 4.1372 12.0938 4.15113 12.0898 4.15113C12.0878 4.15113 12.0148 4.13521 12.0148 4.13521L11.9748 4.16009C11.9758 4.17103 11.9788 4.18894 11.9788 4.18994C11.9788 4.19093 12.0058 4.2178 12.0058 4.2178L12.0558 4.2168C12.0558 4.2168 12.0808 4.18397 12.0818 4.18397C12.0828 4.18397 12.0988 4.13024 12.0988 4.13024L12.1258 4.10436C12.1258 4.10436 12.1278 4.04864 12.1278 4.04665C12.1278 4.04566 12.1718 4.04068 12.1718 4.04068L12.1768 3.9382L12.1608 3.93024L12.1188 3.96208L12.0898 4.00984L12.0768 4.01282L12.0358 3.9581L11.9878 3.95909C11.9878 3.95909 11.9618 4.02277 11.9618 4.02377C11.9618 4.02476 11.9428 4.02178 11.9428 4.02178L11.8928 3.96805C11.8928 3.96805 11.8778 3.94118 11.8798 3.94118C11.8818 3.94118 12.0028 3.94317 12.0028 3.94317V3.88446C12.0028 3.88446 11.9838 3.87849 11.9748 3.87352C11.9818 3.87153 12.0428 3.87153 12.0428 3.87153L12.0158 3.88844V3.9382L12.1248 3.93919L12.1608 3.93024L12.1588 3.92924V3.89143L12.1198 3.83571L12.1588 3.83173L12.1688 3.82078L12.2038 3.83869L12.2208 3.9173L12.2838 3.97402V3.99989L12.2208 4.00685L12.1758 4.06655V4.16009C12.1758 4.16009 12.2008 4.20387 12.2018 4.20486C12.2028 4.20586 12.1798 4.20486 12.1798 4.20486L12.1568 4.16606L12.0968 4.1969L12.1078 4.25063L12.1328 4.27451L12.0898 4.28048C12.0898 4.28048 12.0658 4.24168 12.0658 4.24068C12.0658 4.23969 12.0358 4.25262 12.0358 4.25262L12.0258 4.28347C12.0258 4.28347 12.0128 4.26058 12.0128 4.25959C12.0128 4.25859 11.9808 4.26158 11.9798 4.26158C11.9788 4.26158 11.9648 4.28347 11.9648 4.28347L11.9068 4.28546L11.9018 4.27252L11.9148 4.26158L11.9048 4.17899L11.8568 4.18297L11.8498 4.22377L11.8297 4.21581L11.8257 4.11332L11.8047 4.09441L11.7927 4.03969L11.7347 4.04267L11.7547 4.07949L11.7317 4.13521L11.7267 4.12327L11.7387 4.16208L11.7757 4.16705L11.7847 4.2168L11.8418 4.22576L11.8948 4.26257L11.8988 4.28546L11.9588 4.28745L11.9998 4.30038L12.1438 4.28347L12.1628 4.25461L12.1648 4.21382L12.2418 4.21183L12.2488 4.14715H12.2898L12.2848 4.07551L12.3188 4.07849L12.3098 4.04367L12.2888 4.01581L12.2848 3.97103L12.2248 3.91232L12.2108 3.83571C12.2108 3.83571 12.1708 3.8178 12.1708 3.8168C12.1708 3.81581 12.1688 3.76606 12.1688 3.76606L12.2118 3.70536L12.2088 3.68247L12.1688 3.68148L12.1378 3.70536L12.0978 3.71033V3.72924C12.0978 3.72924 12.1078 3.76208 12.1078 3.76307C12.1078 3.76407 12.0618 3.76307 12.0618 3.76307V3.76208L11.9348 3.76705L11.9358 3.75312L11.9828 3.74815L11.9888 3.72924C11.9888 3.72924 12.0028 3.72825 12.0028 3.72924C12.0028 3.73123 12.0138 3.74715 12.0138 3.74715L12.0608 3.75511L12.0618 3.7571L12.0608 3.71033L11.9948 3.6775C11.9948 3.6775 11.9338 3.7183 11.9338 3.71929C11.9338 3.72029 11.9298 3.76705 11.9298 3.76705Z" fill="#F4EB26"/>
</g>
<mask id="mask38_901_16" style="mask-type:luminance" maskUnits="userSpaceOnUse" x="0" y="0" width="24" height="16">
<path d="M0 16H24V1.90735e-06H0V16Z" fill="white"/>
</mask>
<g mask="url(#mask38_901_16)">
<path d="M11.7344 4.04219H11.7304L11.7104 4.02528L11.7494 3.96359L11.7974 3.94866C11.7974 3.94866 11.8004 3.87304 11.7984 3.87304C11.7984 3.87304 11.8274 3.86209 11.8364 3.85811L11.7954 3.86807L11.7964 3.94667L11.7434 3.95861L11.7054 4.02727L11.7284 4.04916C11.7294 4.05115 11.7114 4.1009 11.7114 4.1009C11.7114 4.1009 11.7194 4.11185 11.7234 4.11682L11.7144 4.09792L11.7344 4.04219Z" fill="#F4EB26"/>
</g>
<mask id="mask39_901_16" style="mask-type:luminance" maskUnits="userSpaceOnUse" x="0" y="0" width="24" height="16">
<path d="M0 16H24V1.90735e-06H0V16Z" fill="white"/>
</mask>
<g mask="url(#mask39_901_16)">
<path d="M11.798 3.94896L11.749 3.96389L11.71 4.02558L11.73 4.04249H11.735V4.0415L11.736 4.04249L11.793 4.03951L11.805 4.09423L11.826 4.11314L11.83 4.21563L11.85 4.22359L11.857 4.18279L11.905 4.17881L11.915 4.2614L11.902 4.27234L11.907 4.28528L11.965 4.28329L11.98 4.2614L12.013 4.25941L12.026 4.28329L12.036 4.25244L12.067 4.2405L12.09 4.2803L12.133 4.27433L12.108 4.25045L12.097 4.19672L12.157 4.16588L12.18 4.20468H12.202L12.176 4.15991V4.06737L12.221 4.00667L12.284 3.99971V3.97384L12.221 3.91712L12.204 3.83851L12.169 3.8216L12.159 3.83155L12.12 3.83553L12.159 3.89125V3.92906L12.161 3.93005L12.177 3.93801L12.173 4.0405L12.13 4.04747L12.126 4.10418L12.099 4.13105L12.082 4.18379L12.056 4.21662L12.006 4.21762L11.979 4.18976C11.979 4.18976 11.976 4.17085 11.975 4.15991L11.969 4.16289L11.974 4.15194V4.15095L11.954 4.14498C11.952 4.14498 11.943 4.10219 11.943 4.10219L11.91 4.08329L11.907 4.05742L11.875 4.04349C11.875 4.04349 11.872 4.0206 11.87 4.01961L11.854 4.00966L11.853 3.94498L11.881 3.941L11.865 3.9201L11.86 3.90219V3.88428L11.883 3.8604L11.841 3.85543L11.839 3.85642L11.837 3.85841C11.827 3.86239 11.799 3.87334 11.799 3.87334L11.798 3.94896Z" fill="#554C21"/>
</g>
<mask id="mask40_901_16" style="mask-type:luminance" maskUnits="userSpaceOnUse" x="0" y="0" width="24" height="16">
<path d="M0 16H24V1.90735e-06H0V16Z" fill="white"/>
</mask>
<g mask="url(#mask40_901_16)">
<path d="M11.9745 4.1598L12.0155 4.13592C12.0155 4.13592 12.0885 4.15184 12.0915 4.15184C12.0935 4.15184 12.0935 4.13791 12.0935 4.13791L12.0195 4.12895L12.0185 4.09412L12.0435 4.08218C12.0435 4.08218 12.0495 4.08318 12.0555 4.06825L12.0415 4.07522L11.9985 4.0782L11.9645 4.07323L11.9755 4.08417L12.0065 4.09114L12.0085 4.12696L11.9755 4.14587L11.9735 4.15184L11.9685 4.16278L11.9745 4.1598Z" fill="#554C21"/>
</g>
<mask id="mask41_901_16" style="mask-type:luminance" maskUnits="userSpaceOnUse" x="0" y="0" width="24" height="16">
<path d="M0 16H24V1.90735e-06H0V16Z" fill="white"/>
</mask>
<g mask="url(#mask41_901_16)">
<path d="M12.0943 3.97123C12.0943 3.97621 12.0903 3.98019 12.0853 3.98019H12.0753C12.0713 3.98019 12.0673 3.97621 12.0673 3.97123V3.96128C12.0673 3.95631 12.0713 3.95233 12.0753 3.95233H12.0853C12.0903 3.95233 12.0943 3.95631 12.0943 3.96128V3.97123ZM11.9593 3.9772C11.9593 3.98218 11.9553 3.98616 11.9493 3.98616H11.9393C11.9343 3.98616 11.9303 3.98218 11.9303 3.9772V3.96725C11.9303 3.96228 11.9343 3.9573 11.9393 3.9573H11.9493C11.9553 3.9573 11.9593 3.96228 11.9593 3.96725V3.9772ZM12.1603 3.92944L12.1243 3.93939L12.0153 3.93839V3.88864L12.0423 3.87073C12.0423 3.87073 11.9813 3.87073 11.9743 3.87272C11.9843 3.87869 12.0033 3.88466 12.0033 3.88466L12.0043 3.94337C12.0043 3.94337 11.8833 3.94138 11.8793 3.94138C11.8773 3.94138 11.8923 3.96825 11.8923 3.96825L11.9423 4.02198L11.9613 4.02397L11.9883 3.95929L12.0353 3.9573L12.0763 4.01302L12.0913 4.01004L12.1183 3.96228L12.1603 3.92944Z" fill="#554C21"/>
</g>
<mask id="mask42_901_16" style="mask-type:luminance" maskUnits="userSpaceOnUse" x="0" y="0" width="24" height="16">
<path d="M0 16H24V1.90735e-06H0V16Z" fill="white"/>
</mask>
<g mask="url(#mask42_901_16)">
<path d="M11.94 3.9577C11.935 3.9577 11.931 3.96168 11.931 3.96666V3.9776C11.931 3.98159 11.935 3.98557 11.94 3.98557H11.95C11.956 3.98557 11.96 3.98159 11.96 3.9776V3.96666C11.96 3.96168 11.956 3.9577 11.95 3.9577H11.94Z" fill="#7A6B3A"/>
</g>
<mask id="mask43_901_16" style="mask-type:luminance" maskUnits="userSpaceOnUse" x="0" y="0" width="24" height="16">
<path d="M0 16H24V1.90735e-06H0V16Z" fill="white"/>
</mask>
<g mask="url(#mask43_901_16)">
<path d="M12.0758 3.95233C12.0708 3.95233 12.0668 3.95631 12.0668 3.96129V3.97124C12.0668 3.97621 12.0708 3.98019 12.0758 3.98019H12.0858C12.0908 3.98019 12.0948 3.97621 12.0948 3.97124V3.96129C12.0948 3.95631 12.0908 3.95233 12.0858 3.95233H12.0758Z" fill="#7B6C3B"/>
</g>
<mask id="mask44_901_16" style="mask-type:luminance" maskUnits="userSpaceOnUse" x="0" y="0" width="24" height="16">
<path d="M0 16H24V1.90735e-06H0V16Z" fill="white"/>
</mask>
<g mask="url(#mask44_901_16)">
<path d="M11.8326 3.7201L11.8026 3.71711L11.8546 3.77084H11.8916L11.8666 3.73502L11.8326 3.7201Z" fill="#554C21"/>
</g>
<mask id="mask45_901_16" style="mask-type:luminance" maskUnits="userSpaceOnUse" x="0" y="0" width="24" height="16">
<path d="M0 16H24V1.90735e-06H0V16Z" fill="white"/>
</mask>
<g mask="url(#mask45_901_16)">
<path d="M12.1969 3.68756L12.1709 3.68457L12.1379 3.71144L12.1019 3.71741L12.1139 3.75024L12.1969 3.68756Z" fill="#554C21"/>
</g>
<mask id="mask46_901_16" style="mask-type:luminance" maskUnits="userSpaceOnUse" x="0" y="0" width="24" height="16">
<path d="M0 16H24V1.90735e-06H0V16Z" fill="white"/>
</mask>
<g mask="url(#mask46_901_16)">
<path d="M12.0143 3.74676C12.0143 3.74676 12.0033 3.73084 12.0033 3.72885H11.9893L11.9833 3.74776L11.9353 3.75273L11.9343 3.76666L12.0623 3.76169H12.0653L12.0623 3.75771L12.0603 3.75472L12.0143 3.74676Z" fill="#554C21"/>
</g>
<mask id="mask47_901_16" style="mask-type:luminance" maskUnits="userSpaceOnUse" x="0" y="0" width="24" height="16">
<path d="M0 16H24V1.90735e-06H0V16Z" fill="white"/>
</mask>
<g mask="url(#mask47_901_16)">
<path d="M12.0581 3.71333L12.0091 3.69044L12.0131 3.71432L12.0581 3.71333Z" fill="#554C21"/>
</g>
<mask id="mask48_901_16" style="mask-type:luminance" maskUnits="userSpaceOnUse" x="0" y="0" width="24" height="16">
<path d="M0 16H24V1.90735e-06H0V16Z" fill="white"/>
</mask>
<g mask="url(#mask48_901_16)">
<path d="M11.9818 3.69144L11.9348 3.72229L11.9788 3.71532L11.9818 3.69144Z" fill="#554C21"/>
</g>
<mask id="mask49_901_16" style="mask-type:luminance" maskUnits="userSpaceOnUse" x="0" y="0" width="24" height="16">
<path d="M0 16H24V1.90735e-06H0V16Z" fill="white"/>
</mask>
<g mask="url(#mask49_901_16)">
<path d="M11.7553 4.07959L11.7353 4.04178H11.7343L11.7143 4.0985L11.7233 4.11641L11.7263 4.12337L11.7323 4.13531L11.7553 4.07959Z" fill="#554C21"/>
</g>
<mask id="mask50_901_16" style="mask-type:luminance" maskUnits="userSpaceOnUse" x="0" y="0" width="24" height="16">
<path d="M0 16H24V1.90735e-06H0V16Z" fill="white"/>
</mask>
<g mask="url(#mask50_901_16)">
<path d="M11.7777 4.16556L11.8047 4.09989L11.7527 4.15262L11.7777 4.16556Z" fill="#554C21"/>
</g>
<mask id="mask51_901_16" style="mask-type:luminance" maskUnits="userSpaceOnUse" x="0" y="0" width="24" height="16">
<path d="M0 16H24V1.90735e-06H0V16Z" fill="white"/>
</mask>
<g mask="url(#mask51_901_16)">
<path d="M12.9469 4.40954C12.9759 4.40257 12.9839 4.39262 12.9889 4.38068C12.9989 4.36576 12.9919 4.3578 12.9949 4.3379L12.8959 4.31601L12.8509 4.36775L12.8539 4.41153L12.9469 4.40954Z" fill="#A02421"/>
</g>
<mask id="mask52_901_16" style="mask-type:luminance" maskUnits="userSpaceOnUse" x="0" y="0" width="24" height="16">
<path d="M0 16H24V1.90735e-06H0V16Z" fill="white"/>
</mask>
<g mask="url(#mask52_901_16)">
<path d="M13.0798 4.48139V4.52219L13.1618 4.5202C13.1918 4.51323 13.1958 4.50726 13.2018 4.49632C13.2108 4.48139 13.2078 4.48139 13.2108 4.46149L13.1178 4.44656L13.0798 4.48139Z" fill="#A02421"/>
</g>
<mask id="mask53_901_16" style="mask-type:luminance" maskUnits="userSpaceOnUse" x="0" y="0" width="24" height="16">
<path d="M0 16H24V1.90735e-06H0V16Z" fill="white"/>
</mask>
<g mask="url(#mask53_901_16)">
<path d="M13.436 4.37792L13.437 4.41175L13.525 4.41473C13.554 4.40777 13.55 4.40976 13.559 4.39384C13.568 4.37891 13.565 4.37593 13.568 4.35702L13.478 4.33513L13.436 4.37792Z" fill="#A02421"/>
</g>
<mask id="mask54_901_16" style="mask-type:luminance" maskUnits="userSpaceOnUse" x="0" y="0" width="24" height="16">
<path d="M0 16H24V1.90735e-06H0V16Z" fill="white"/>
</mask>
<g mask="url(#mask54_901_16)">
<path d="M13.6843 4.45472V4.49651L13.7763 4.50546C13.8063 4.4975 13.8083 4.48954 13.8153 4.4786C13.8253 4.46467 13.8203 4.46268 13.8223 4.44278L13.7333 4.41293L13.6843 4.45472Z" fill="#A02421"/>
</g>
<mask id="mask55_901_16" style="mask-type:luminance" maskUnits="userSpaceOnUse" x="0" y="0" width="24" height="16">
<path d="M0 16H24V1.90735e-06H0V16Z" fill="white"/>
</mask>
<g mask="url(#mask55_901_16)">
<path d="M13.2573 3.34209C13.2723 3.34507 13.2783 3.35104 13.2903 3.36497C13.3013 3.3789 13.3003 3.39284 13.3023 3.41174L13.2923 3.4197C13.2923 3.40478 13.2843 3.39184 13.2783 3.3789C13.2743 3.36597 13.2693 3.35502 13.2573 3.34209ZM13.3393 3.23562C13.3413 3.25055 13.3513 3.26348 13.3533 3.27841C13.3553 3.29333 13.3513 3.31025 13.3533 3.32517C13.3533 3.32517 13.3503 3.29731 13.3433 3.27741C13.3373 3.25453 13.3293 3.24756 13.3253 3.23761L13.3393 3.23562ZM13.1953 3.31224C13.1823 3.30428 13.1623 3.2993 13.1473 3.29532L13.1713 3.27642C13.1843 3.28537 13.1993 3.29532 13.2093 3.30627C13.2183 3.31721 13.2173 3.31622 13.2193 3.33015C13.2053 3.3192 13.2093 3.3202 13.1953 3.31224ZM13.4483 3.3789C13.4483 3.39383 13.4443 3.40776 13.4333 3.41771C13.4373 3.40378 13.4363 3.39084 13.4343 3.37791C13.4323 3.36398 13.4263 3.35204 13.4223 3.33711C13.4373 3.34806 13.4423 3.36298 13.4483 3.3789ZM13.4833 3.25055L13.4743 3.32915L13.4663 3.24557L13.4833 3.25055ZM13.5773 3.42965C13.5833 3.40975 13.5793 3.38189 13.5793 3.38189C13.5813 3.38388 13.5943 3.41373 13.5893 3.43363C13.5843 3.44657 13.5703 3.45055 13.5533 3.46249C13.5673 3.45154 13.5703 3.44955 13.5773 3.42965ZM13.7133 3.43463C13.7253 3.44358 13.7313 3.45453 13.7323 3.46647C13.7333 3.47741 13.7313 3.48736 13.7203 3.50129L13.7043 3.5003C13.7143 3.48239 13.7173 3.47741 13.7153 3.46547C13.7153 3.45353 13.7033 3.44159 13.6963 3.43065L13.7133 3.43463ZM13.6003 3.30229C13.6053 3.30826 13.6033 3.33711 13.6053 3.35502C13.5943 3.35602 13.5923 3.31423 13.5863 3.29433C13.5903 3.29234 13.5953 3.29333 13.6003 3.30229ZM13.7083 3.30328L13.7193 3.30229V3.33214C13.7193 3.33313 13.7063 3.3391 13.7043 3.33811L13.7083 3.30328ZM13.8313 3.4396L13.8343 3.48139L13.8213 3.48836L13.8183 3.4396H13.8313ZM13.4143 3.43264C13.4623 3.44557 13.4963 3.47343 13.5373 3.48139C13.6143 3.5003 13.7063 3.51323 13.7773 3.50627C13.8453 3.49831 13.9043 3.46249 13.9553 3.43662V3.4197H13.9213C13.8653 3.4396 13.7873 3.4406 13.7293 3.43264C13.6683 3.42468 13.6533 3.39881 13.5643 3.37293L13.5573 3.35602C13.6653 3.36199 13.6873 3.359 13.7333 3.3391C13.7773 3.32716 13.7963 3.30129 13.8203 3.28438V3.26448L13.7873 3.26249C13.7453 3.29035 13.7193 3.29532 13.6553 3.28935C13.5973 3.28338 13.5443 3.25055 13.5053 3.24955C13.4633 3.25055 13.4653 3.23065 13.4253 3.22866C13.3613 3.22269 13.2923 3.23164 13.2333 3.24557C13.1593 3.26746 13.1493 3.28537 13.1113 3.32119L13.2863 3.43662C13.3193 3.40876 13.3873 3.42567 13.4143 3.43264Z" fill="#A02421"/>
</g>
<mask id="mask56_901_16" style="mask-type:luminance" maskUnits="userSpaceOnUse" x="0" y="0" width="24" height="16">
<path d="M0 16H24V1.90735e-06H0V16Z" fill="white"/>
</mask>
<g mask="url(#mask56_901_16)">
<path d="M13.1714 3.27653L13.1474 3.29544C13.1624 3.29942 13.1824 3.30439 13.1944 3.31235C13.2094 3.31932 13.2054 3.31932 13.2204 3.33026C13.2184 3.31633 13.2194 3.31733 13.2094 3.30638C13.1994 3.29544 13.1844 3.28549 13.1714 3.27653Z" fill="#010101"/>
</g>
<mask id="mask57_901_16" style="mask-type:luminance" maskUnits="userSpaceOnUse" x="0" y="0" width="24" height="16">
<path d="M0 16H24V1.90735e-06H0V16Z" fill="white"/>
</mask>
<g mask="url(#mask57_901_16)">
<path d="M13.3033 3.41205C13.3013 3.39215 13.3023 3.37922 13.2903 3.36529C13.2793 3.35136 13.2713 3.34539 13.2583 3.3424C13.2683 3.35434 13.2733 3.36628 13.2793 3.37922C13.2843 3.39215 13.2923 3.40509 13.2923 3.42001L13.3033 3.41205Z" fill="#010101"/>
</g>
<mask id="mask58_901_16" style="mask-type:luminance" maskUnits="userSpaceOnUse" x="0" y="0" width="24" height="16">
<path d="M0 16H24V1.90735e-06H0V16Z" fill="white"/>
</mask>
<g mask="url(#mask58_901_16)">
<path d="M13.3529 3.32507C13.3509 3.31015 13.3539 3.29323 13.3529 3.27831C13.3509 3.26338 13.3419 3.25045 13.3399 3.23552L13.3259 3.23751C13.3299 3.24746 13.3369 3.25443 13.3439 3.27731C13.3499 3.29721 13.3529 3.32507 13.3529 3.32507Z" fill="#010101"/>
</g>
<mask id="mask59_901_16" style="mask-type:luminance" maskUnits="userSpaceOnUse" x="0" y="0" width="24" height="16">
<path d="M0 16H24V1.90735e-06H0V16Z" fill="white"/>
</mask>
<g mask="url(#mask59_901_16)">
<path d="M13.4819 3.25074L13.4669 3.24576L13.4739 3.32935L13.4819 3.25074Z" fill="#010101"/>
</g>
<mask id="mask60_901_16" style="mask-type:luminance" maskUnits="userSpaceOnUse" x="0" y="0" width="24" height="16">
<path d="M0 16H24V1.90735e-06H0V16Z" fill="white"/>
</mask>
<g mask="url(#mask60_901_16)">
<path d="M13.4321 3.41791C13.4451 3.40796 13.4501 3.39403 13.4501 3.37811C13.4421 3.36318 13.4361 3.34826 13.4221 3.33632C13.4271 3.35224 13.4321 3.36418 13.4331 3.37711C13.4351 3.39104 13.4361 3.40398 13.4321 3.41791Z" fill="#010101"/>
</g>
<mask id="mask61_901_16" style="mask-type:luminance" maskUnits="userSpaceOnUse" x="0" y="0" width="24" height="16">
<path d="M0 16H24V1.90735e-06H0V16Z" fill="white"/>
</mask>
<g mask="url(#mask61_901_16)">
<path d="M13.5896 3.43394C13.5946 3.41404 13.5816 3.38419 13.5796 3.38121C13.5796 3.38121 13.5836 3.41006 13.5776 3.42996C13.5706 3.44986 13.5676 3.45185 13.5536 3.4628C13.5706 3.45086 13.5846 3.44688 13.5896 3.43394Z" fill="#010101"/>
</g>
<mask id="mask62_901_16" style="mask-type:luminance" maskUnits="userSpaceOnUse" x="0" y="0" width="24" height="16">
<path d="M0 16H24V1.90735e-06H0V16Z" fill="white"/>
</mask>
<g mask="url(#mask62_901_16)">
<path d="M13.6051 3.35472C13.6031 3.33681 13.6051 3.30795 13.6001 3.30198C13.5961 3.29303 13.5911 3.29203 13.5861 3.29402C13.5931 3.31392 13.5951 3.35571 13.6051 3.35472Z" fill="#010101"/>
</g>
<mask id="mask63_901_16" style="mask-type:luminance" maskUnits="userSpaceOnUse" x="0" y="0" width="24" height="16">
<path d="M0 16H24V1.90735e-06H0V16Z" fill="white"/>
</mask>
<g mask="url(#mask63_901_16)">
<path d="M13.7204 3.30229L13.7094 3.30329L13.7054 3.33811L13.7204 3.33214V3.30229Z" fill="#010101"/>
</g>
<mask id="mask64_901_16" style="mask-type:luminance" maskUnits="userSpaceOnUse" x="0" y="0" width="24" height="16">
<path d="M0 16H24V1.90735e-06H0V16Z" fill="white"/>
</mask>
<g mask="url(#mask64_901_16)">
<path d="M13.7047 3.50001L13.7217 3.50101C13.7297 3.48708 13.7327 3.47713 13.7307 3.46618C13.7297 3.45524 13.7257 3.4433 13.7137 3.43534L13.6967 3.43136C13.7037 3.44131 13.7157 3.45424 13.7167 3.46519C13.7187 3.47713 13.7147 3.4821 13.7047 3.50001Z" fill="#010101"/>
</g>
<mask id="mask65_901_16" style="mask-type:luminance" maskUnits="userSpaceOnUse" x="0" y="0" width="24" height="16">
<path d="M0 16H24V1.90735e-06H0V16Z" fill="white"/>
</mask>
<g mask="url(#mask65_901_16)">
<path d="M13.8345 3.4811L13.8315 3.43931H13.8165L13.8215 3.48807L13.8345 3.4811Z" fill="#010101"/>
</g>
<mask id="mask66_901_16" style="mask-type:luminance" maskUnits="userSpaceOnUse" x="0" y="0" width="24" height="16">
<path d="M0 16H24V1.90735e-06H0V16Z" fill="white"/>
</mask>
<g mask="url(#mask66_901_16)">
<path d="M13.0563 3.48787C13.0773 3.48389 13.0923 3.47294 13.1133 3.47294C13.1343 3.47294 13.1403 3.48488 13.1603 3.48787L13.1273 3.50578C13.1223 3.50976 13.1173 3.51573 13.1113 3.51473C13.1053 3.51473 13.0973 3.50876 13.0933 3.50379L13.0563 3.48787ZM13.1863 3.96946C13.1923 3.97045 13.2113 3.99035 13.2223 4.0202C13.2243 4.04309 13.2293 4.06797 13.2273 4.09185C13.2113 4.09284 13.2033 4.09085 13.1873 4.09185C13.1863 4.04906 13.1853 4.0003 13.1863 3.96946ZM13.2483 3.47493C13.2783 3.46598 13.3313 3.461 13.3553 3.461L13.3153 3.49384C13.2853 3.50279 13.2863 3.51672 13.2673 3.51772C13.2503 3.51772 13.2283 3.50379 13.2163 3.49682C13.2183 3.49085 13.2233 3.4809 13.2483 3.47493ZM13.1163 3.91871C13.1123 3.87593 13.1033 3.84607 13.0903 3.81324C13.1043 3.83811 13.1173 3.87891 13.1233 3.91672C13.1233 3.91971 13.1183 3.9217 13.1163 3.91871ZM13.3243 3.82717C13.3283 3.83811 13.3363 3.86399 13.3483 3.88787C13.3513 3.89981 13.3613 3.90876 13.3583 3.91871C13.3553 3.92269 13.3453 3.92269 13.3383 3.9217C13.3333 3.91274 13.3213 3.85105 13.3143 3.82916C13.3123 3.82319 13.3183 3.82319 13.3243 3.82717ZM13.4153 3.8013C13.4203 3.79931 13.4363 3.83015 13.4413 3.84408C13.4423 3.85204 13.4523 3.8819 13.4553 3.90876C13.4563 3.91374 13.4383 3.90578 13.4353 3.9008C13.4353 3.88886 13.4103 3.80528 13.4153 3.8013ZM13.5143 3.93961C13.5193 3.93961 13.5023 4.00627 13.4993 4.01722C13.4933 4.02717 13.4733 4.05304 13.4573 4.07692C13.4523 4.0819 13.4383 4.08687 13.4393 4.0809C13.4383 4.07692 13.4573 4.04309 13.4783 4.00727C13.4973 3.97344 13.5123 3.93762 13.5143 3.93961ZM13.5703 3.97543C13.5733 3.95851 13.5773 3.92767 13.5843 3.88886C13.5933 3.94359 13.5823 4.00329 13.5563 4.04508C13.5513 4.04707 13.5683 3.98637 13.5703 3.97543ZM13.6263 3.8401C13.6283 3.84508 13.6313 3.85204 13.6273 3.85901C13.6233 3.862 13.5733 3.77841 13.5773 3.77841C13.5783 3.77443 13.6193 3.83015 13.6263 3.8401ZM13.7364 3.79931C13.7394 3.81622 13.7454 3.87692 13.7554 3.91672C13.7554 3.9207 13.7504 3.92269 13.7454 3.9207C13.7424 3.91772 13.7434 3.89085 13.7364 3.861C13.7294 3.83214 13.7164 3.80428 13.7194 3.79632C13.7214 3.79234 13.7294 3.79433 13.7364 3.79931ZM13.8154 4.03712C13.8244 4.02816 13.8254 4.01722 13.8284 4.01224C13.8194 4.03712 13.8474 4.07493 13.8624 4.10478C13.8724 4.10777 13.8804 4.10777 13.8854 4.11374C13.8874 4.11672 13.8744 4.11871 13.8764 4.12866L13.9024 4.1814C13.9104 4.18737 13.9244 4.19135 13.9364 4.19234C13.9394 4.19533 13.9334 4.2003 13.9314 4.20329C13.9234 4.20926 13.9074 4.21423 13.9024 4.21125C13.8764 4.15851 13.8624 4.12369 13.8264 4.06697C13.8164 4.05304 13.7934 4.05503 13.7954 4.04906C13.7964 4.04309 13.8074 4.04607 13.8154 4.03712ZM13.8694 3.93264C13.8894 3.95851 13.9144 3.97841 13.9414 4.00229C13.9434 4.00528 13.9004 4.0013 13.8884 4.00428C13.8764 4.00627 13.8784 4.01224 13.8694 4.01722C13.8684 4.02219 13.8624 3.95354 13.8514 3.91374C13.8404 3.87493 13.8254 3.84209 13.8284 3.84607C13.8394 3.87294 13.8524 3.90677 13.8694 3.93264ZM14.0294 3.6809C14.0354 3.69483 14.0304 3.71075 14.0204 3.73165C14.0154 3.73961 14.0014 3.73762 13.9844 3.73662C13.9764 3.73065 13.9744 3.72468 13.9744 3.71672C13.9844 3.69483 14.0044 3.68289 14.0294 3.6809ZM12.9583 4.19632C12.9433 4.22816 12.9153 4.23612 12.8993 4.30478L13.0013 4.32966C13.0053 4.31672 13.0183 4.30677 13.0223 4.29284C13.0253 4.27891 13.0253 4.261 13.0233 4.24607C13.0433 4.21622 13.0843 4.15652 13.0983 4.12468C13.1193 4.11274 13.1363 4.10578 13.1523 4.10578C13.1693 4.10578 13.1803 4.11473 13.1983 4.12468C13.1903 4.15155 13.1683 4.1814 13.1663 4.21921V4.32369C13.1613 4.34956 13.1333 4.34956 13.1193 4.42717L13.2113 4.45105C13.2273 4.42518 13.2513 4.4212 13.2583 4.41125L13.2643 4.30279C13.2763 4.25105 13.3483 4.20926 13.3493 4.15354C13.3753 4.15254 13.3853 4.15553 13.3953 4.15055C13.4093 4.14558 13.4143 4.13762 13.4253 4.12866C13.4293 4.14458 13.4423 4.14657 13.4523 4.14657C13.4643 4.14657 13.4873 4.13065 13.4953 4.12468C13.5023 4.13264 13.5063 4.1416 13.5193 4.14458C13.5333 4.14856 13.5713 4.14259 13.5873 4.13861L13.5123 4.261C13.5093 4.27294 13.5133 4.27991 13.5073 4.29384C13.5013 4.30578 13.4903 4.31274 13.4853 4.32369L13.5703 4.34359L13.5843 4.30777C13.6023 4.3008 13.6173 4.29583 13.6263 4.28488C13.6363 4.27394 13.6363 4.25204 13.6413 4.23911C13.6703 4.21821 13.7164 4.17244 13.7484 4.13463C13.7694 4.13861 13.8014 4.15652 13.8124 4.18339C13.8144 4.21224 13.8164 4.26498 13.8034 4.3018L13.7484 4.38737L13.7424 4.4013L13.8274 4.43214L13.8844 4.39035L13.8864 4.32966C13.9134 4.2809 13.9524 4.25503 13.9914 4.22418C13.9914 4.22219 13.9944 4.15951 13.9934 4.15652C13.9844 4.15055 13.9784 4.15453 13.9754 4.1416C13.9724 4.12866 13.9734 4.09284 13.9754 4.07891C13.9814 4.07195 13.9934 4.06399 13.9924 4.05801C13.9774 4.04209 13.9814 3.99931 13.9864 3.96647C13.9854 3.92866 14.0354 3.88389 14.0454 3.862L14.0484 3.82219C14.0424 3.81224 14.0354 3.80627 14.0354 3.79831C14.0354 3.79035 14.0444 3.77642 14.0514 3.76747L14.0624 3.74856L14.0604 3.65204C14.0574 3.6411 14.0484 3.62418 14.0394 3.62219C14.0314 3.6212 14.0184 3.63115 14.0094 3.6411L13.9584 3.67792C13.9344 3.68488 13.9134 3.68787 13.8704 3.67792L13.8074 3.67891C13.7744 3.68886 13.7564 3.68986 13.7244 3.67593H13.6863C13.6743 3.68289 13.6583 3.69384 13.6453 3.69583C13.6323 3.69782 13.6153 3.69881 13.6023 3.69483C13.5043 3.7018 13.5283 3.70876 13.5003 3.71473C13.4783 3.71075 13.4853 3.69881 13.3973 3.69782L13.3633 3.68886C13.3193 3.65901 13.2853 3.61324 13.2563 3.5605C13.3473 3.53463 13.3863 3.50777 13.4133 3.44607L13.2843 3.45005L13.1013 3.32966C13.0623 3.3416 13.0483 3.36249 13.0293 3.3814L12.9173 3.32468C12.8993 3.3406 12.8923 3.3615 12.9013 3.38339C12.9103 3.40528 12.9453 3.43911 12.9703 3.45602C12.9633 3.48588 12.9533 3.50876 12.9433 3.53463C12.9313 3.56448 12.9053 3.60229 12.9043 3.61423C12.9033 3.62816 12.8983 3.65702 12.9193 3.66598C12.9403 3.67394 13.0063 3.66 13.0293 3.661C13.0253 3.67394 13.0163 3.69384 13.0193 3.70279C13.0223 3.71175 13.0283 3.71473 13.0463 3.71573C13.0413 3.72667 13.0303 3.73961 13.0353 3.74657C13.0493 3.75752 13.0653 3.75553 13.0773 3.75453C13.0573 3.77841 13.0043 3.82617 12.9873 3.84707C12.9693 3.87195 12.9673 3.89881 13.0033 3.89583C12.9903 3.90976 12.9773 3.92369 12.9793 3.93662C12.9823 3.95155 12.9903 3.9615 13.0143 3.95254C13.0003 3.98637 13.0103 4.01622 13.0153 4.05105C13.0023 4.07792 13.0083 4.10279 13.0053 4.13264C12.9783 4.14757 12.9753 4.16647 12.9583 4.19632Z" fill="#F4EB27"/>
</g>
<mask id="mask67_901_16" style="mask-type:luminance" maskUnits="userSpaceOnUse" x="0" y="0" width="24" height="16">
<path d="M0 16H24V1.90735e-06H0V16Z" fill="white"/>
</mask>
<g mask="url(#mask67_901_16)">
<path d="M13.1108 3.51501C13.1178 3.51501 13.1228 3.51004 13.1279 3.50506L13.1609 3.48815C13.1399 3.48516 13.1339 3.47322 13.1128 3.47322C13.0918 3.47322 13.0778 3.48417 13.0558 3.48815L13.0918 3.50307C13.0968 3.50904 13.1048 3.51501 13.1108 3.51501Z" fill="#010101"/>
</g>
<mask id="mask68_901_16" style="mask-type:luminance" maskUnits="userSpaceOnUse" x="0" y="0" width="24" height="16">
<path d="M0 16H24V1.90735e-06H0V16Z" fill="white"/>
</mask>
<g mask="url(#mask68_901_16)">
<path d="M13.3151 3.49373L13.3561 3.46089C13.3311 3.46089 13.2781 3.46587 13.2481 3.47482C13.2241 3.48079 13.2181 3.49174 13.2151 3.49671C13.2291 3.50368 13.2501 3.51761 13.2681 3.51761C13.2871 3.51661 13.2871 3.50268 13.3151 3.49373Z" fill="#010101"/>
</g>
<mask id="mask69_901_16" style="mask-type:luminance" maskUnits="userSpaceOnUse" x="0" y="0" width="24" height="16">
<path d="M0 16H24V1.90735e-06H0V16Z" fill="white"/>
</mask>
<g mask="url(#mask69_901_16)">
<path d="M13.1157 3.91831C13.1177 3.92129 13.1227 3.9193 13.1227 3.91731C13.1167 3.87851 13.1047 3.83771 13.0897 3.81284C13.1027 3.84567 13.1127 3.87552 13.1157 3.91831Z" fill="#010101"/>
</g>
<mask id="mask70_901_16" style="mask-type:luminance" maskUnits="userSpaceOnUse" x="0" y="0" width="24" height="16">
<path d="M0 16H24V1.90735e-06H0V16Z" fill="white"/>
</mask>
<g mask="url(#mask70_901_16)">
<path d="M13.2271 4.09175C13.2281 4.06787 13.2241 4.043 13.2211 4.02011C13.2101 3.99026 13.1931 3.97036 13.1851 3.96937C13.1851 4.00021 13.1851 4.04996 13.1871 4.09175C13.2051 4.09076 13.2101 4.09275 13.2271 4.09175Z" fill="#010101"/>
</g>
<mask id="mask71_901_16" style="mask-type:luminance" maskUnits="userSpaceOnUse" x="0" y="0" width="24" height="16">
<path d="M0 16H24V1.90735e-06H0V16Z" fill="white"/>
</mask>
<g mask="url(#mask71_901_16)">
<path d="M13.3579 3.91832C13.3609 3.90936 13.3519 3.89941 13.3479 3.88847C13.3358 3.86459 13.3288 3.83772 13.3238 3.82678C13.3178 3.82379 13.3128 3.82379 13.3138 3.82976C13.3208 3.85066 13.3328 3.91334 13.3368 3.9213C13.3449 3.92329 13.3559 3.92329 13.3579 3.91832Z" fill="#010101"/>
</g>
<mask id="mask72_901_16" style="mask-type:luminance" maskUnits="userSpaceOnUse" x="0" y="0" width="24" height="16">
<path d="M0 16H24V1.90735e-06H0V16Z" fill="white"/>
</mask>
<g mask="url(#mask72_901_16)">
<path d="M13.4557 3.90855C13.4527 3.88268 13.4417 3.85183 13.4407 3.84387C13.4347 3.82994 13.4207 3.7991 13.4157 3.80208C13.4117 3.80507 13.4347 3.88865 13.4347 3.90059C13.4387 3.90656 13.4557 3.91353 13.4557 3.90855Z" fill="#010101"/>
</g>
<mask id="mask73_901_16" style="mask-type:luminance" maskUnits="userSpaceOnUse" x="0" y="0" width="24" height="16">
<path d="M0 16H24V1.90735e-06H0V16Z" fill="white"/>
</mask>
<g mask="url(#mask73_901_16)">
<path d="M13.4576 4.07723C13.4736 4.05335 13.4936 4.02748 13.4996 4.01653C13.5026 4.00658 13.5196 3.93892 13.5146 3.93991C13.5126 3.93792 13.4976 3.97375 13.4786 4.00758C13.4576 4.0434 13.4376 4.07723 13.4376 4.08021C13.4376 4.08618 13.4526 4.08121 13.4576 4.07723Z" fill="#010101"/>
</g>
<mask id="mask74_901_16" style="mask-type:luminance" maskUnits="userSpaceOnUse" x="0" y="0" width="24" height="16">
<path d="M0 16H24V1.90735e-06H0V16Z" fill="white"/>
</mask>
<g mask="url(#mask74_901_16)">
<path d="M13.5846 3.88866C13.5776 3.92846 13.5726 3.95831 13.5696 3.97522C13.5686 3.98717 13.5506 4.04786 13.5566 4.04488C13.5826 4.00309 13.5926 3.94438 13.5846 3.88866Z" fill="#010101"/>
</g>
<mask id="mask75_901_16" style="mask-type:luminance" maskUnits="userSpaceOnUse" x="0" y="0" width="24" height="16">
<path d="M0 16H24V1.90735e-06H0V16Z" fill="white"/>
</mask>
<g mask="url(#mask75_901_16)">
<path d="M13.6274 3.8586C13.6304 3.85163 13.6284 3.84466 13.6264 3.83969C13.6204 3.83073 13.5794 3.77402 13.5774 3.778C13.5734 3.778 13.6234 3.86158 13.6274 3.8586Z" fill="#010101"/>
</g>
<mask id="mask76_901_16" style="mask-type:luminance" maskUnits="userSpaceOnUse" x="0" y="0" width="24" height="16">
<path d="M0 16H24V1.90735e-06H0V16Z" fill="white"/>
</mask>
<g mask="url(#mask76_901_16)">
<path d="M13.7456 3.9203C13.7496 3.92229 13.7556 3.9203 13.7556 3.91632C13.7456 3.87652 13.7386 3.81582 13.7356 3.7999C13.7286 3.79393 13.7216 3.79194 13.7196 3.79592C13.7166 3.80388 13.7286 3.83274 13.7356 3.86159C13.7436 3.89145 13.7416 3.91732 13.7456 3.9203Z" fill="#010101"/>
</g>
<mask id="mask77_901_16" style="mask-type:luminance" maskUnits="userSpaceOnUse" x="0" y="0" width="24" height="16">
<path d="M0 16H24V1.90735e-06H0V16Z" fill="white"/>
</mask>
<g mask="url(#mask77_901_16)">
<path d="M13.8696 4.01741C13.8786 4.01244 13.8766 4.00647 13.8886 4.00348C13.8996 4.00149 13.9426 4.00547 13.9406 4.00249C13.9136 3.97861 13.8896 3.95871 13.8696 3.93284C13.8516 3.90697 13.8396 3.87214 13.8286 3.84627C13.8246 3.84229 13.8406 3.87512 13.8506 3.91393C13.8616 3.95373 13.8676 4.02239 13.8696 4.01741Z" fill="#010101"/>
</g>
<mask id="mask78_901_16" style="mask-type:luminance" maskUnits="userSpaceOnUse" x="0" y="0" width="24" height="16">
<path d="M0 16H24V1.90735e-06H0V16Z" fill="white"/>
</mask>
<g mask="url(#mask78_901_16)">
<path d="M13.8258 4.06646C13.8618 4.12318 13.8768 4.15801 13.9018 4.21174C13.9068 4.21373 13.9228 4.20975 13.9298 4.20278C13.9328 4.1998 13.9398 4.19582 13.9368 4.19283C13.9238 4.19084 13.9098 4.18786 13.9018 4.18089L13.8758 4.12816C13.8748 4.11821 13.8868 4.11622 13.8858 4.11323C13.8808 4.10825 13.8718 4.10825 13.8618 4.10527C13.8468 4.07442 13.8188 4.03761 13.8288 4.01273C13.8248 4.01671 13.8238 4.02766 13.8158 4.03661C13.8068 4.04557 13.7958 4.04358 13.7958 4.04955C13.7938 4.05452 13.8168 4.05253 13.8258 4.06646Z" fill="#010101"/>
</g>
<mask id="mask79_901_16" style="mask-type:luminance" maskUnits="userSpaceOnUse" x="0" y="0" width="24" height="16">
<path d="M0 16H24V1.90735e-06H0V16Z" fill="white"/>
</mask>
<g mask="url(#mask79_901_16)">
<path d="M14.0199 3.73125C14.0299 3.71036 14.0359 3.69444 14.0289 3.6815C14.0029 3.68349 13.9839 3.69444 13.9739 3.71732C13.9749 3.72528 13.9769 3.73026 13.9839 3.73722C13.9999 3.73822 14.0159 3.73921 14.0199 3.73125Z" fill="#010101"/>
</g>
<mask id="mask80_901_16" style="mask-type:luminance" maskUnits="userSpaceOnUse" x="0" y="0" width="24" height="16">
<path d="M0 16H24V1.90735e-06H0V16Z" fill="white"/>
</mask>
<g mask="url(#mask80_901_16)">
<path d="M14.2506 3.72199L14.0236 4.52498C14.2336 4.58866 14.4366 4.64736 14.6436 4.71403C14.8506 4.7807 15.0576 4.84438 15.2676 4.92398L15.3456 4.76577C15.1416 4.68517 14.9266 4.60955 14.7146 4.5409C14.5006 4.47323 14.2896 4.40756 14.0716 4.35781L14.2006 3.9001C14.2006 3.9001 14.5516 3.97771 14.8906 4.08617C15.2296 4.19562 15.5606 4.33393 15.5586 4.33393C15.5566 4.33393 15.3676 4.71801 15.3476 4.7608L15.4786 4.5001L15.6426 4.16876L15.6416 4.16776C15.4166 4.07224 15.1956 3.98368 14.9656 3.90906C14.7326 3.83443 14.5006 3.77473 14.2506 3.72199Z" fill="#FDFDFE"/>
</g>
<mask id="mask81_901_16" style="mask-type:luminance" maskUnits="userSpaceOnUse" x="0" y="0" width="24" height="16">
<path d="M0 16H24V1.90735e-06H0V16Z" fill="white"/>
</mask>
<g mask="url(#mask81_901_16)">
<path d="M15.317 4.45035C15.2339 4.45035 15.1409 4.40458 15.1009 4.41055C15.1019 4.43543 15.1449 4.48717 15.1939 4.50707L15.1919 4.62448L15.1709 4.64438L15.1469 4.62946C15.1659 4.6016 15.1589 4.56876 15.1509 4.5409C15.1319 4.51404 15.1299 4.50409 15.0969 4.5021C15.0559 4.49414 15.0269 4.48319 14.9749 4.44836L14.9559 4.45035C14.9449 4.47125 14.9339 4.48419 14.9079 4.49613L14.8559 4.49215C14.8559 4.49215 14.7349 4.46628 14.7349 4.46528C14.7349 4.46329 14.7339 4.44637 14.7369 4.44538C14.7399 4.44339 14.7779 4.44339 14.7809 4.44339C14.8069 4.45035 14.8599 4.45035 14.8599 4.45035L14.8589 4.40657C14.8059 4.40259 14.7789 4.39861 14.7429 4.38767C14.7179 4.37672 14.6829 4.36279 14.6109 4.33593C14.5519 4.32797 14.4459 4.32697 14.3919 4.34488C14.3599 4.34787 14.3139 4.36478 14.2939 4.36478L14.2699 4.35782C14.2539 4.35284 14.2539 4.34886 14.2599 4.33493C14.3619 4.32697 14.3779 4.31901 14.4079 4.30508C14.4099 4.29613 14.3969 4.27623 14.3919 4.27424C14.3289 4.27125 14.2779 4.27623 14.2599 4.27225C14.2329 4.26429 14.1959 4.25135 14.1959 4.24936C14.1959 4.24737 14.1919 4.22448 14.1929 4.22448C14.1949 4.22448 14.2349 4.23543 14.2359 4.23543C14.2789 4.24339 14.3539 4.2404 14.3709 4.23045L14.3729 4.19662C14.3709 4.1807 14.3599 4.16677 14.3569 4.16578C14.3539 4.16379 14.2869 4.15682 14.2629 4.15682C14.2249 4.14986 14.2309 4.13095 14.2299 4.11205C14.2649 4.09215 14.2879 4.08717 14.3059 4.05632H14.4299L14.4319 4.10011C14.4629 4.11503 14.4799 4.13095 14.5099 4.14588C14.5409 4.15981 14.5839 4.17274 14.6139 4.18767L14.8799 4.21055C14.9169 4.21652 14.9689 4.23145 14.9999 4.24936C15.0299 4.26727 15.0489 4.29016 15.0669 4.31901C15.1219 4.33792 15.1769 4.34986 15.2329 4.35782C15.29 4.36677 15.36 4.36976 15.415 4.37175C15.442 4.3817 15.442 4.39463 15.429 4.40856C15.429 4.40856 15.399 4.45035 15.317 4.45035ZM14.8899 4.08618C14.5509 3.97772 14.2009 3.90011 14.2009 3.90011L14.0719 4.35782C14.2899 4.40757 14.5019 4.47324 14.7129 4.5409C14.9259 4.60956 15.1409 4.68518 15.345 4.76578C15.345 4.76578 15.346 4.76379 15.347 4.7608C15.368 4.71901 15.556 4.33394 15.558 4.33394C15.56 4.33394 15.2289 4.19563 14.8899 4.08618Z" fill="#E41E26"/>
</g>
<mask id="mask82_901_16" style="mask-type:luminance" maskUnits="userSpaceOnUse" x="0" y="0" width="24" height="16">
<path d="M0 16H24V1.90735e-06H0V16Z" fill="white"/>
</mask>
<g mask="url(#mask82_901_16)">
<path d="M15.4147 4.37214C15.3597 4.37015 15.2897 4.36617 15.2326 4.35821C15.1776 4.35025 15.1216 4.33831 15.0666 4.3194C15.0506 4.28955 15.0296 4.26766 14.9986 4.24876C14.9696 4.23085 14.9166 4.21592 14.8816 4.21094L14.6136 4.18706C14.5836 4.17313 14.5396 4.1602 14.5106 4.14527C14.4796 4.13134 14.4616 4.11542 14.4326 4.1005L14.4306 4.05572H14.3066C14.2876 4.08657 14.2656 4.09254 14.2296 4.11144C14.2296 4.13035 14.2256 4.14925 14.2636 4.15622C14.2866 4.15622 14.3536 4.16418 14.3566 4.16517C14.3596 4.16716 14.3706 4.18109 14.3726 4.19701L14.3706 4.23085C14.3536 4.2398 14.2786 4.24378 14.2356 4.23582C14.2356 4.23582 14.1946 4.22487 14.1926 4.22487L14.1956 4.24876C14.1956 4.25075 14.2326 4.26468 14.2606 4.27264C14.2776 4.27562 14.3286 4.27065 14.3926 4.27463C14.3956 4.27562 14.4096 4.29552 14.4076 4.30547C14.3766 4.3194 14.3616 4.32736 14.2606 4.33433C14.2526 4.34925 14.2526 4.35323 14.2696 4.35821L14.2926 4.36418C14.3136 4.36418 14.3596 4.34826 14.3926 4.34527C14.4456 4.32736 14.5526 4.32836 14.6106 4.33632L14.6076 4.30348L14.8436 4.29751C14.9176 4.31045 14.9236 4.34527 14.9396 4.40099L14.8586 4.40597L14.8596 4.45075C14.8596 4.45075 14.8076 4.45075 14.7806 4.44279C14.7776 4.44279 14.7396 4.44279 14.7366 4.44478C14.7326 4.44677 14.7346 4.46468 14.7346 4.46468C14.7346 4.46667 14.8556 4.49254 14.8556 4.49254L14.9076 4.49652C14.9346 4.48358 14.9446 4.47065 14.9556 4.45075L14.9756 4.44776C15.0266 4.48358 15.0566 4.49453 15.0976 4.50249C15.1316 4.50348 15.1336 4.51443 15.1506 4.5403C15.1586 4.56915 15.1646 4.60099 15.1456 4.62985L15.1696 4.64478L15.1916 4.62487L15.1936 4.50647C15.1446 4.48657 15.1026 4.43483 15.1016 4.41094C15.1416 4.40497 15.2336 4.45075 15.3167 4.45075C15.3987 4.44975 15.4297 4.40895 15.4297 4.40895C15.4417 4.39502 15.4417 4.38109 15.4147 4.37214Z" fill="#010101"/>
</g>
<mask id="mask83_901_16" style="mask-type:luminance" maskUnits="userSpaceOnUse" x="0" y="0" width="24" height="16">
<path d="M0 16H24V1.90735e-06H0V16Z" fill="white"/>
</mask>
<g mask="url(#mask83_901_16)">
<path d="M14.8435 4.2973L14.6085 4.30327L14.6115 4.33611C14.6825 4.36198 14.7185 4.37691 14.7435 4.38686C14.7795 4.3988 14.8055 4.40178 14.8595 4.40576L14.9405 4.40079C14.9235 4.34507 14.9185 4.31024 14.8435 4.2973Z" fill="white"/>
</g>
<mask id="mask84_901_16" style="mask-type:luminance" maskUnits="userSpaceOnUse" x="0" y="0" width="24" height="16">
<path d="M0 16H24V1.90735e-06H0V16Z" fill="white"/>
</mask>
<g mask="url(#mask84_901_16)">
<path d="M11.3608 4.61792L11.3208 4.18807C11.1038 4.20299 10.8648 4.2209 10.6398 4.25175C10.4148 4.28359 10.1887 4.32538 9.96673 4.3811C9.96673 4.3811 9.84673 3.94628 9.85073 3.94628C10.0877 3.86767 10.3177 3.81195 10.5548 3.7811C10.7918 3.75026 11.0528 3.75026 11.2818 3.76419L11.2448 3.3612C11.0338 3.36319 10.8758 3.35822 10.5018 3.40697C10.1307 3.45772 9.97673 3.5015 9.75172 3.58807L9.65272 3.21991C9.88273 3.10946 10.1427 3.02389 10.4158 2.98707C10.6758 2.94926 10.9368 2.94628 11.2048 2.94628L10.2987 2.43185L9.64972 3.21294L10.0747 4.78906C10.5968 4.69653 10.8968 4.65175 11.3608 4.61792Z" fill="#252969"/>
</g>
<mask id="mask85_901_16" style="mask-type:luminance" maskUnits="userSpaceOnUse" x="0" y="0" width="24" height="16">
<path d="M0 16H24V1.90735e-06H0V16Z" fill="white"/>
</mask>
<g mask="url(#mask85_901_16)">
<path d="M8.74118 3.93481L8.94119 3.85223L9.10019 3.97263L9.12219 3.7786L9.11819 3.78059L8.95819 3.66616C8.95819 3.66616 9.10119 3.96666 9.10019 3.96566C9.09819 3.96367 8.94819 3.85422 8.94319 3.85024L8.95819 3.66616C8.95819 3.66616 8.74418 3.93282 8.74418 3.93183C8.74418 3.92984 8.77518 3.72287 8.77518 3.72287L8.61817 3.60546L9.2842 3.71292L9.1562 3.76467L9.2862 3.71392L9.1502 3.58457L9.1802 3.39253H9.1782C9.1762 3.39651 8.97519 3.63332 8.95919 3.65322C8.95819 3.65322 8.98319 3.46417 8.98119 3.46317C8.98419 3.46417 9.06319 3.43432 9.12119 3.41342C9.06319 3.43432 8.98319 3.46218 8.98319 3.46118C8.98319 3.45919 8.85018 3.34974 8.84118 3.34477L8.96019 3.6572L8.80518 3.52685L8.61517 3.60347L8.77018 3.72387L8.74118 3.93481Z" fill="#F4EB22"/>
</g>
<mask id="mask86_901_16" style="mask-type:luminance" maskUnits="userSpaceOnUse" x="0" y="0" width="24" height="16">
<path d="M0 16H24V1.90735e-06H0V16Z" fill="white"/>
</mask>
<g mask="url(#mask86_901_16)">
<path d="M8.61792 3.60547L8.77493 3.72288C8.77493 3.72288 8.74393 3.92984 8.74393 3.93183L8.95693 3.66716L8.94293 3.85024C8.94793 3.85422 9.09794 3.96368 9.09994 3.96567L8.95793 3.66716L9.11794 3.78059L9.12194 3.7786L9.15594 3.76467L9.28495 3.71293L8.61792 3.60547Z" fill="#FFC60A"/>
</g>
<mask id="mask87_901_16" style="mask-type:luminance" maskUnits="userSpaceOnUse" x="0" y="0" width="24" height="16">
<path d="M0 16H24V1.90735e-06H0V16Z" fill="white"/>
</mask>
<g mask="url(#mask87_901_16)">
<path d="M8.84063 3.34458L8.83963 3.3406L8.80463 3.52666L8.95963 3.65701L8.84063 3.34458Z" fill="#FFC60A"/>
</g>
<mask id="mask88_901_16" style="mask-type:luminance" maskUnits="userSpaceOnUse" x="0" y="0" width="24" height="16">
<path d="M0 16H24V1.90735e-06H0V16Z" fill="white"/>
</mask>
<g mask="url(#mask88_901_16)">
<path d="M8.9595 3.65353C8.9755 3.63264 9.17651 3.39682 9.17851 3.39284L9.17951 3.39184C9.17951 3.39184 9.15351 3.40179 9.12151 3.41373C9.06351 3.43463 8.9835 3.46448 8.9815 3.46348C8.9835 3.46448 8.9595 3.65353 8.9595 3.65353Z" fill="#FFC60A"/>
</g>
<mask id="mask89_901_16" style="mask-type:luminance" maskUnits="userSpaceOnUse" x="0" y="0" width="24" height="16">
<path d="M0 16H24V1.90735e-06H0V16Z" fill="white"/>
</mask>
<g mask="url(#mask89_901_16)">
<path d="M14.9907 3.60398L15.0327 3.79602L15.1767 3.66169L15.1737 3.6607L15.1267 3.47264C15.1267 3.47264 15.0367 3.79304 15.0367 3.79005C15.0367 3.79005 14.9937 3.60995 14.9927 3.60398L15.1247 3.47264C15.1247 3.47264 14.7867 3.54229 14.7877 3.5403L14.9497 3.4L14.9067 3.21095L15.3447 3.71343L15.2107 3.67264L15.3447 3.71542L15.3267 3.53134L15.4767 3.40299L15.4737 3.40199C15.4667 3.40498 15.1607 3.45771 15.1357 3.46368C15.1357 3.46368 15.2787 3.33433 15.2777 3.33234C15.2787 3.33433 15.3597 3.36119 15.4177 3.3811C15.3597 3.36119 15.2807 3.33134 15.2807 3.33134C15.2807 3.33134 15.2527 3.1602 15.2487 3.15224L15.1337 3.46567L15.1017 3.26965L14.9057 3.20896L14.9447 3.39801L14.7827 3.54129L14.9907 3.60398Z" fill="#F4EB22"/>
</g>
<mask id="mask90_901_16" style="mask-type:luminance" maskUnits="userSpaceOnUse" x="0" y="0" width="24" height="16">
<path d="M0 16H24V1.90735e-06H0V16Z" fill="white"/>
</mask>
<g mask="url(#mask90_901_16)">
<path d="M14.9068 3.21144L14.9498 3.3995C14.9498 3.3995 14.7888 3.53881 14.7878 3.5408L15.1248 3.47214L14.9928 3.60348C14.9938 3.61045 15.0358 3.78856 15.0368 3.79055C15.0368 3.79254 15.1268 3.47314 15.1268 3.47314L15.1738 3.6612L15.1768 3.66219L15.2108 3.67214L15.3438 3.71393L14.9068 3.21144Z" fill="#FFC60A"/>
</g>
<mask id="mask91_901_16" style="mask-type:luminance" maskUnits="userSpaceOnUse" x="0" y="0" width="24" height="16">
<path d="M0 16H24V1.90735e-06H0V16Z" fill="white"/>
</mask>
<g mask="url(#mask91_901_16)">
<path d="M15.2487 3.15214L15.2497 3.14816L15.1027 3.26956L15.1337 3.46558L15.2487 3.15214Z" fill="#FDC711"/>
</g>
<mask id="mask92_901_16" style="mask-type:luminance" maskUnits="userSpaceOnUse" x="0" y="0" width="24" height="16">
<path d="M0 16H24V1.90735e-06H0V16Z" fill="white"/>
</mask>
<g mask="url(#mask92_901_16)">
<path d="M15.1354 3.46359C15.1604 3.45762 15.4665 3.40489 15.4745 3.4019H15.4755C15.4755 3.4019 15.4485 3.39295 15.4175 3.38101C15.3605 3.3611 15.2794 3.33424 15.2784 3.33225C15.2784 3.33424 15.1354 3.46359 15.1354 3.46359Z" fill="#FDC711"/>
</g>
<mask id="mask93_901_16" style="mask-type:luminance" maskUnits="userSpaceOnUse" x="0" y="0" width="24" height="16">
<path d="M0 16H24V1.90735e-06H0V16Z" fill="white"/>
</mask>
<g mask="url(#mask93_901_16)">
<path d="M9.65277 3.21971L9.75178 3.58887C9.97678 3.5023 10.1308 3.45852 10.5018 3.40678C10.8758 3.35902 11.0338 3.363 11.2448 3.36101H11.2458C11.2458 3.35802 11.2108 2.94708 11.2108 2.94708H11.2048C10.9368 2.94608 10.6758 2.95006 10.4158 2.98688C10.1428 3.02369 9.88278 3.11026 9.65277 3.21971Z" fill="#E41E26"/>
</g>
<mask id="mask94_901_16" style="mask-type:luminance" maskUnits="userSpaceOnUse" x="0" y="0" width="24" height="16">
<path d="M0 16H24V1.90735e-06H0V16Z" fill="white"/>
</mask>
<g mask="url(#mask94_901_16)">
<path d="M10.5552 3.78129C10.3182 3.81213 10.0872 3.86686 9.85021 3.94646C9.84721 3.94646 9.96722 4.38129 9.96722 4.38129C10.1892 4.32557 10.4142 4.28377 10.6392 4.25193C10.8653 4.22009 11.1033 4.20218 11.3213 4.18825H11.3233L11.2843 3.76437H11.2823C11.0533 3.75044 10.7913 3.75044 10.5552 3.78129Z" fill="#E41E26"/>
</g>
<mask id="mask95_901_16" style="mask-type:luminance" maskUnits="userSpaceOnUse" x="0" y="0" width="24" height="16">
<path d="M0 16H24V1.90735e-06H0V16Z" fill="white"/>
</mask>
<g mask="url(#mask95_901_16)">
<path d="M8.99255 9.38267H10.1706V8.08118H8.98555V6.78765H10.1966V8.08118H11.4007V9.3976H10.1896V10.6623L9.49257 10.6613C9.26557 10.3478 9.03156 9.88417 8.99255 9.38267ZM10.1966 5.45034H11.4067V6.74387H10.1966V5.45034ZM12.6167 5.48715H13.8258V6.78168H12.6167V8.0772H11.4067V6.78168H12.6167V5.48715ZM11.4067 9.37571H12.6167V10.6702H11.4067V9.37571ZM15.0358 8.08118H13.8608V9.38267H15.0208C14.9898 9.69312 14.8528 10.1707 14.5238 10.6633L13.8328 10.6623V9.3976H12.6307V8.08118H13.8258V6.78765H15.0358V8.08118ZM12.6227 11.9051V10.6752H13.8198L13.8218 11.3628C13.5767 11.5389 13.1477 11.8006 12.6227 11.9051ZM10.2066 11.3618L10.2046 10.6752L11.3997 10.6762L11.4037 11.8921C11.0896 11.8274 10.6186 11.6513 10.2066 11.3618ZM15.1458 9.32098V5.32994H8.88955L8.87555 9.30805C8.91155 9.78466 9.08656 10.2284 9.35257 10.6115C9.36757 10.6324 9.38257 10.6533 9.39757 10.6742C10.0216 11.527 11.1036 12.0732 12.1137 12.0294C13.0437 12.0354 14.0338 11.5021 14.6238 10.6742L14.6678 10.6115C14.9238 10.2324 15.0968 9.79561 15.1458 9.32098Z" fill="#D62027"/>
</g>
<mask id="mask96_901_16" style="mask-type:luminance" maskUnits="userSpaceOnUse" x="0" y="0" width="24" height="16">
<path d="M0 16H24V1.90735e-06H0V16Z" fill="white"/>
</mask>
<g mask="url(#mask96_901_16)">
<path d="M10.1893 9.39731H11.4004V8.08189H10.1964H10.1703V9.38139H10.1893V9.39731Z" fill="white"/>
</g>
<mask id="mask97_901_16" style="mask-type:luminance" maskUnits="userSpaceOnUse" x="0" y="0" width="24" height="16">
<path d="M0 16H24V1.90735e-06H0V16Z" fill="white"/>
</mask>
<g mask="url(#mask97_901_16)">
<path d="M12.6304 8.0821V9.39752H13.8324V9.3826H13.8604V8.0821H13.8254H12.6304Z" fill="white"/>
</g>
<mask id="mask98_901_16" style="mask-type:luminance" maskUnits="userSpaceOnUse" x="0" y="0" width="24" height="16">
<path d="M0 16H24V1.90735e-06H0V16Z" fill="white"/>
</mask>
<g mask="url(#mask98_901_16)">
<path d="M11.4066 5.45076H10.1965V6.74429H11.4066V5.45076Z" fill="white"/>
</g>
<mask id="mask99_901_16" style="mask-type:luminance" maskUnits="userSpaceOnUse" x="0" y="0" width="24" height="16">
<path d="M0 16H24V1.90735e-06H0V16Z" fill="white"/>
</mask>
<g mask="url(#mask99_901_16)">
<path d="M13.8326 9.39731V10.662H14.5226C14.8536 10.1714 14.9896 9.69283 15.0196 9.38338C15.0156 9.38338 14.0396 9.38139 13.8606 9.38139H13.8326V9.39731Z" fill="white"/>
</g>
<mask id="mask100_901_16" style="mask-type:luminance" maskUnits="userSpaceOnUse" x="0" y="0" width="24" height="16">
<path d="M0 16H24V1.90735e-06H0V16Z" fill="white"/>
</mask>
<g mask="url(#mask100_901_16)">
<path d="M12.6227 10.676V11.9039C13.1468 11.7994 13.5768 11.5397 13.8208 11.3626L13.8198 10.676H12.6227Z" fill="white"/>
</g>
<mask id="mask101_901_16" style="mask-type:luminance" maskUnits="userSpaceOnUse" x="0" y="0" width="24" height="16">
<path d="M0 16H24V1.90735e-06H0V16Z" fill="white"/>
</mask>
<g mask="url(#mask101_901_16)">
<path d="M10.2044 10.676L10.2064 11.3616C10.6194 11.6512 11.0894 11.8283 11.4035 11.8929L11.3995 10.676H10.2044Z" fill="white"/>
</g>
<mask id="mask102_901_16" style="mask-type:luminance" maskUnits="userSpaceOnUse" x="0" y="0" width="24" height="16">
<path d="M0 16H24V1.90735e-06H0V16Z" fill="white"/>
</mask>
<g mask="url(#mask102_901_16)">
<path d="M10.1894 10.6624V9.39771V9.38278H10.1704H8.99231C9.03131 9.88427 9.26632 10.347 9.49233 10.6614L10.1894 10.6624Z" fill="white"/>
</g>
<mask id="mask103_901_16" style="mask-type:luminance" maskUnits="userSpaceOnUse" x="0" y="0" width="24" height="16">
<path d="M0 16H24V1.90735e-06H0V16Z" fill="white"/>
</mask>
<g mask="url(#mask103_901_16)">
<path d="M10.1963 6.78775H8.98621V8.08228H10.1713H10.1963V6.78775Z" fill="white"/>
</g>
<mask id="mask104_901_16" style="mask-type:luminance" maskUnits="userSpaceOnUse" x="0" y="0" width="24" height="16">
<path d="M0 16H24V1.90735e-06H0V16Z" fill="white"/>
</mask>
<g mask="url(#mask104_901_16)">
<path d="M11.4066 8.07562H12.6166V6.7811H11.4066V8.07562Z" fill="white"/>
</g>
<mask id="mask105_901_16" style="mask-type:luminance" maskUnits="userSpaceOnUse" x="0" y="0" width="24" height="16">
<path d="M0 16H24V1.90735e-06H0V16Z" fill="white"/>
</mask>
<g mask="url(#mask105_901_16)">
<path d="M13.8267 5.48758H12.6166V6.7821H13.8267V5.48758Z" fill="white"/>
</g>
<mask id="mask106_901_16" style="mask-type:luminance" maskUnits="userSpaceOnUse" x="0" y="0" width="24" height="16">
<path d="M0 16H24V1.90735e-06H0V16Z" fill="white"/>
</mask>
<g mask="url(#mask106_901_16)">
<path d="M13.8257 8.08209H13.8607H15.0357V6.78756H13.8257V8.08209Z" fill="white"/>
</g>
<mask id="mask107_901_16" style="mask-type:luminance" maskUnits="userSpaceOnUse" x="0" y="0" width="24" height="16">
<path d="M0 16H24V1.90735e-06H0V16Z" fill="white"/>
</mask>
<g mask="url(#mask107_901_16)">
<path d="M12.6166 9.37613H11.4066V10.6707H12.6166V9.37613Z" fill="white"/>
</g>
</g>
<defs>
<clipPath id="clip0_901_16">
<rect width="24" height="16" fill="white"/>
</clipPath>
</defs>
</svg>
