<svg width="20" height="20" viewBox="0 0 20 20" fill="none" xmlns="http://www.w3.org/2000/svg">
<path d="M18.7923 2.94727V12.9053L11.6819 20H7.97101L0.833313 12.9062V2.94727L3.80597 0H15.8275L18.7923 2.94727ZM1.51788 3.23242V12.6211L8.25323 19.3164H11.3987L18.1087 12.6221V3.23242L15.5452 0.683594H4.0882L1.51788 3.23242ZM16.7191 3.80078V12.3145L11.0872 17.9336H8.55988L2.90656 12.3145V3.80078L4.65948 2.06543H14.9769L16.7191 3.80078ZM3.59113 4.08594V12.0303L8.8421 17.249H10.804L16.0345 12.0303V4.08594L14.6937 2.75H4.94171L3.59113 4.08594ZM14.6517 8.00586L8.06866 14.5869L7.58527 14.1025L14.6517 7.03711V8.00586ZM14.6761 4.6416L6.39972 12.917L5.91534 12.4336L14.1917 4.1582L14.6761 4.6416ZM11.8255 4.12305L4.97687 10.9697V10.002L10.8568 4.12305H11.8255Z" fill="#555E61"/>
</svg>
