<svg width="20" height="20" viewBox="0 0 20 20" fill="none" xmlns="http://www.w3.org/2000/svg">
<path d="M1.37891 0V13.1035H18.6211V0H20V20H18.6211V14.4824H1.37891V20H0V0H1.37891ZM5.57617 8.61426C4.20763 3.73778 9.06788 -1.13453 13.9551 0.234375L14.2998 0.359375L14.4248 0.703125C15.7804 5.54067 10.9997 10.4487 6.04492 9.08398L5.70117 8.95801L5.57617 8.61426ZM7.0498 5.12207C6.73359 5.99411 6.65046 6.9338 6.80957 7.84766C7.25932 7.92673 7.71782 7.94754 8.17285 7.90918C8.63957 7.87117 9.09952 7.77109 9.54004 7.6123L7.0498 5.12207ZM9.18359 2.37891C8.61976 2.78385 8.12604 3.27852 7.72168 3.84277L10.8164 6.9375C11.3805 6.53284 11.8746 6.03866 12.2793 5.47461L9.18359 2.37891ZM11.8281 1.40918C11.3613 1.44667 10.9013 1.54674 10.4609 1.70605L12.9502 4.19824C13.1103 3.75923 13.2118 3.30061 13.251 2.83496C13.289 2.37919 13.2687 1.92034 13.1904 1.46973C12.741 1.391 12.2827 1.37064 11.8281 1.40918Z" fill="#001E28"/>
</svg>
