<svg width="20" height="20" viewBox="0 0 20 20" fill="none" xmlns="http://www.w3.org/2000/svg">
<path fill-rule="evenodd" clip-rule="evenodd" d="M10.0006 18.6263C8.94861 18.6263 7.95361 18.4093 7.02061 18.0643C5.96761 17.5533 5.26561 16.5073 5.18961 15.2683C5.10661 13.8923 5.76361 12.6673 6.94561 11.9933C8.29361 11.2253 10.0806 11.3633 12.5536 11.5593L13.7076 11.6473C15.7866 11.7833 17.5826 10.9583 18.5156 9.4143C18.5346 9.3833 18.5386 9.3473 18.5566 9.3153C18.5746 9.5463 18.6256 9.7663 18.6256 10.0013C18.6256 14.7563 14.7566 18.6263 10.0006 18.6263M1.37461 10.0013C1.37461 9.24531 1.50261 8.52431 1.68561 7.82631C2.13361 8.09131 2.72061 8.3303 3.41461 8.3303C3.81361 8.3303 4.24361 8.25231 4.69661 8.05531C7.07761 7.02631 8.31161 3.42731 8.81861 1.49331C9.20861 1.43931 9.59561 1.37431 10.0006 1.37431C12.9986 1.37431 15.6386 2.91531 17.1856 5.24331C17.8956 6.42631 17.9576 7.6843 17.3396 8.7053C16.6786 9.7973 15.3586 10.3993 13.8056 10.2753L12.6606 10.1893C9.94161 9.9753 7.97961 9.82131 6.26461 10.8023C4.64361 11.7273 3.70661 13.4683 3.81961 15.3513C3.83661 15.6323 3.91661 15.8923 3.97861 16.1573C2.37561 14.5913 1.37461 12.4133 1.37461 10.0013M7.28761 1.85431C6.62961 4.01531 5.54761 6.19131 4.15261 6.79531C3.28461 7.16931 2.54361 6.78731 2.13961 6.48731C3.12161 4.29931 4.99261 2.62031 7.28761 1.85431M18.3416 4.49831C18.3346 4.48731 18.3326 4.47631 18.3266 4.46531L18.3226 4.46831C16.5286 1.77731 13.4696 0.000305176 10.0006 0.000305176C4.48561 0.000305176 0.000610352 4.48631 0.000610352 10.0013C0.000610352 14.3113 2.74561 17.9803 6.57561 19.3833C6.59561 19.3923 6.60961 19.4073 6.62961 19.4153L6.63361 19.4043C7.68761 19.7833 8.81761 20.0003 10.0006 20.0003C15.5136 20.0003 20.0006 15.5153 20.0006 10.0013C20.0006 7.96831 19.3876 6.07831 18.3416 4.49831" fill="#001E28"/>
</svg>
