<svg width="24" height="16" viewBox="0 0 24 16" fill="none" xmlns="http://www.w3.org/2000/svg">
<g clip-path="url(#clip0_986_17690)">
<path d="M0.000244141 8.00049H7.95721V0.000143051H0.000244141V8.00049ZM3.18123 4.21572L1.99324 3.35708H3.46023L3.91423 1.96615L4.36923 3.35708H5.83722L4.64823 4.21572L5.10222 5.60466L3.91323 4.74603L2.72623 5.60466L3.18123 4.21572Z" fill="#23449C"/>
<path d="M7.95728 8.00037H24.0002V2.09808e-05H7.95728V8.00037Z" fill="#FAFAFA"/>
<path d="M7.95697 8.00065H0V16H23.9999V8.00065H7.95697Z" fill="#D3362A"/>
<path d="M5.83644 3.35641H4.36745L3.91445 1.96647L3.46045 3.35641H1.99146L3.17945 4.21504L2.72545 5.60498L3.91345 4.74535L5.10244 5.60498L4.64844 4.21504L5.83644 3.35641Z" fill="white"/>
</g>
<defs>
<clipPath id="clip0_986_17690">
<rect width="24" height="16" fill="white"/>
</clipPath>
</defs>
</svg>
