<svg width="20" height="20" viewBox="0 0 20 20" fill="none" xmlns="http://www.w3.org/2000/svg">
<path d="M20 2.46994V17.5295L17.5293 20.0002H2.4707L0 17.5256V2.46994L2.4707 0.000213623H17.5293L20 2.46994ZM1.36816 3.03635V16.9602L3.03809 18.634H16.9639L18.6328 16.9621V3.03635L16.9639 1.36642H3.03711L1.36816 3.03635ZM13.9473 4.01974V13.3762L15.8369 11.4846L16.8037 12.4524L13.2627 15.9924L9.72363 12.4524L10.6895 11.4846L12.5801 13.3762V4.01974H13.9473ZM10.2773 7.54807L9.31152 8.51486L7.41992 6.62424V15.9797H6.05371L6.05273 6.62424L4.16309 8.51486L3.19629 7.54807L6.73633 4.00803L10.2773 7.54807Z" fill="#001E28"/>
</svg>
