<svg width="20" height="20" viewBox="0 0 20 20" fill="none" xmlns="http://www.w3.org/2000/svg">
<path d="M9.29242 0C11.3407 0 13.29 0.728903 14.9184 1.96875C15.9024 2.71552 16.7272 3.6515 17.3442 4.72168L17.3823 4.78711L20.0004 13.1035L17.5131 16.9443L18.6205 18.6211V20H2.75824V18.6211L4.05511 17.0371C1.77012 15.4787 0.298358 12.9833 0.0404663 10.2295C-0.217337 7.47544 0.765803 4.74948 2.72211 2.79395C4.47681 1.04005 6.81059 9.07716e-05 9.29242 0ZM4.47992 18.6211H16.9448L16.0659 17.2363H5.73187L4.47992 18.6211ZM9.29242 1.37891C7.18131 1.37891 5.19271 2.27528 3.69769 3.76953C2.20872 5.2495 1.37395 7.26391 1.37933 9.36328C1.37614 11.9523 2.64239 14.3783 4.76801 15.8564H16.5737L18.3178 13.1035H10.2592L5.90082 8.77441L7.75824 6.89648H16.6118L16.1147 5.34766C15.5923 4.46177 14.9015 3.68646 14.0825 3.06445C12.6964 2.01021 11.0401 1.37901 9.29242 1.37891ZM6.89691 13.1016H5.50726V11.7246H6.89691V13.1016ZM7.86761 8.79492L10.8295 11.7246H18.143L17.0473 8.27539H8.36859L7.86761 8.79492Z" fill="#001E28"/>
</svg>
