<svg width="20" height="20" viewBox="0 0 20 20" fill="none" xmlns="http://www.w3.org/2000/svg">
<path d="M10.0381 11.9658L14.3604 7.64551L15.332 8.61719L11.0088 12.9414L16.2139 18.1484C16.622 18.5474 17.2294 18.6638 17.7559 18.4434C18.2821 18.2228 18.6259 17.7083 18.6279 17.1377C18.6318 16.766 18.4848 16.4081 18.2217 16.1455L17.8066 15.7314L18.7783 14.7607L19.1924 15.1748C19.7141 15.695 20.0051 16.4029 20 17.1396C19.9955 18.2538 19.3298 19.2594 18.3057 19.6982C17.2816 20.137 16.095 19.9252 15.2852 19.1602L10.0381 13.9082L4.79199 19.1602C3.98261 19.9269 2.79428 20.1393 1.76953 19.7002C0.74484 19.261 0.0792518 18.2545 0.0761719 17.1396C0.0709174 16.4031 0.361499 15.6951 0.882812 15.1748L1.29785 14.7607L2.27051 15.7275L1.85547 16.1416C1.59224 16.4043 1.44617 16.7629 1.4502 17.1348C1.45414 17.7043 1.79788 18.2165 2.32324 18.4365C2.84859 18.6565 3.45465 18.5422 3.86328 18.1455L9.06641 12.9375L4.74316 8.61328L5.71484 7.6416L10.0381 11.9658ZM4.79395 6.72168L3.82227 7.69336L2.90137 6.77246L3.87305 5.80176L4.79395 6.72168ZM17.1738 6.77246L16.2539 7.69336L15.2822 6.72168L16.2021 5.80078L17.1738 6.77246ZM9.99609 0C11.7031 -0.000458784 13.0877 1.38286 13.0889 3.08984C13.0898 4.79676 11.7069 6.18189 10 6.18359C8.2923 6.18317 6.90748 4.79947 6.90527 3.0918C6.90527 1.38475 8.28905 0.000561778 9.99609 0ZM2.95312 4.88086L1.98145 5.85254L0.0761719 3.94727V2.00391L2.95312 4.88086ZM20 3.94727L18.0947 5.85254L17.123 4.88086L20 2.00391V3.94727ZM10 1.37402C9.05207 1.37529 8.28404 2.14386 8.2832 3.0918C8.28328 3.78648 8.70191 4.41294 9.34375 4.67871C9.98561 4.94441 10.7247 4.79699 11.2158 4.30566C11.7068 3.81429 11.853 3.07527 11.5869 2.43359C11.3208 1.792 10.6946 1.37372 10 1.37402Z" fill="#001E28"/>
</svg>
