<svg width="24" height="16" viewBox="0 0 24 16" fill="none" xmlns="http://www.w3.org/2000/svg">
<g clip-path="url(#clip0_986_17579)">
<path d="M0.000488281 2.03436H2.71093L0.000488281 0.683042V2.03436Z" fill="#273476"/>
<path d="M5.0979 0.000476837H1.36841L5.0979 1.86005V0.000476837Z" fill="#273476"/>
<path d="M10.8662 0.000451088H7.13672V1.86102L10.8662 0.000451088Z" fill="#273476"/>
<path d="M12.2337 0.000745773V0.682422L9.52423 2.03474H12.2337V2.44074V3.66074V4.06774H9.52423L12.2337 5.41906V5.64662V6.10174H10.8659L7.13638 4.24217V6.10174H6.72937H5.5063H5.09828V4.24217L1.36678 6.10174H0.912525H0V16.0001H24V0.000745773H12.2337ZM17.9972 2.55602L17.4254 2.14101H18.1319L18.35 1.47036L18.5691 2.14101H19.2756L18.7047 2.55602L18.9218 3.22567L18.35 2.81065L17.7782 3.22567L17.9972 2.55602ZM20.4605 4.64315L19.9519 4.27324H20.579L20.774 3.67678L20.967 4.27324H21.5971L21.0886 4.64315L21.2835 5.23862L20.774 4.87071L20.2645 5.23862L20.4605 4.64315ZM15.1692 5.39199L14.5994 4.97798H15.3049L15.523 4.30733L15.7421 4.97798H16.4496L15.8767 5.39199L16.0958 6.06264L15.523 5.64762L14.9511 6.06264L15.1692 5.39199ZM17.959 9.89105L17.3229 9.43092H18.1078L18.351 8.68509L18.5932 9.43092H19.3781L18.7429 9.89105L18.9851 10.6369L18.351 10.1757L17.7168 10.6369L17.959 9.89105Z" fill="#273476"/>
<path d="M0.000488281 4.06805V5.41937L2.71093 4.06805H0.000488281Z" fill="#273476"/>
<path d="M17.7384 2.24323H18.2067L18.3494 1.80014L18.4951 2.24323H18.9624L18.5846 2.51691L18.7283 2.961L18.3494 2.68632L17.9715 2.961L18.1172 2.51691L17.7384 2.24323ZM17.7786 3.22565L18.3494 2.81163L18.9222 3.22565L18.7041 2.556L19.275 2.14098H18.5685L18.3494 1.47033L18.1323 2.14098H17.4248L17.9976 2.556L17.7786 3.22565Z" fill="white"/>
<path d="M17.9719 2.96088L18.3498 2.6872L18.7286 2.96088L18.5829 2.51779L18.9618 2.24311H18.4955L18.3498 1.80002L18.2051 2.24311H17.7397L18.1176 2.51779L17.9719 2.96088Z" fill="#D0202D"/>
<path d="M14.9117 5.07978H15.38L15.5227 4.63669L15.6685 5.07978H16.1358L15.7579 5.35345L15.9006 5.79754L15.5227 5.52287L15.1449 5.79754L15.2906 5.35345L14.9117 5.07978ZM14.9519 6.06219L15.5227 5.64818L16.0956 6.06219L15.8775 5.39255L16.4483 4.97753H15.7418L15.5227 4.30688L15.3057 4.97753H14.5981L15.171 5.39255L14.9519 6.06219Z" fill="white"/>
<path d="M15.1455 5.79742L15.5234 5.52375L15.9022 5.79742L15.7565 5.35434L16.1344 5.07966H15.6691L15.5234 4.63657L15.3786 5.07966H14.9133L15.2912 5.35434L15.1455 5.79742Z" fill="#D0202D"/>
<path d="M20.2291 4.36517H20.6441L20.7738 3.9702L20.9024 4.36517H21.3175L20.9808 4.60877L21.1094 5.00374L20.7738 4.76014L20.4371 5.00374L20.5647 4.60877L20.2291 4.36517ZM20.2642 5.23932L20.7738 4.87041L21.2833 5.23932L21.0873 4.64285L21.5968 4.27395H20.9667L20.7738 3.67748L20.5798 4.27395H19.9507L20.4592 4.64285L20.2642 5.23932Z" fill="white"/>
<path d="M20.4373 5.0036L20.7739 4.76L21.1096 5.0036L20.982 4.60863L21.3176 4.36503H20.9026L20.7739 3.97106L20.6453 4.36503H20.2292L20.5659 4.60863L20.4373 5.0036Z" fill="#D0202D"/>
<path d="M17.6715 9.54346H18.19L18.3508 9.05125L18.5106 9.54346H19.0302L18.6101 9.84921L18.7699 10.3424L18.3508 10.0367L17.9307 10.3424L18.0915 9.84921L17.6715 9.54346ZM17.7157 10.6371L18.3508 10.177L18.986 10.6371L18.7428 9.89131L19.3779 9.43118H18.593L18.3508 8.68535L18.1086 9.43118H17.3237L17.9589 9.89131L17.7157 10.6371Z" fill="white"/>
<path d="M17.9307 10.3414L18.3498 10.0366L18.7708 10.3414L18.611 9.84916L19.0301 9.54341H18.5105L18.3498 9.0512L18.191 9.54341H17.6714L18.0915 9.84916L17.9307 10.3414Z" fill="#D0202D"/>
<path d="M6.729 6.10162H7.13602V4.24205L6.729 4.03855V6.10162Z" fill="white"/>
<path d="M0.000488281 2.03435V2.44135H3.52697L2.71093 2.03435H0.000488281Z" fill="white"/>
<path d="M9.52381 2.03422L8.70776 2.44122H12.2332V2.03422H9.52381Z" fill="white"/>
<path d="M0.000488281 3.66118V4.06818H2.71093L3.52697 3.66118H0.000488281Z" fill="white"/>
<path d="M8.70776 3.66105L9.52381 4.06805H12.2332V3.66105H8.70776Z" fill="white"/>
<path d="M6.729 0.000616074V2.06268L7.13602 1.86119V0.000616074H6.729Z" fill="white"/>
<path d="M5.09814 4.24205V6.10162H5.50617V4.03956L5.09814 4.24205Z" fill="white"/>
<path d="M5.09814 0.000616074V1.86019L5.50617 2.06268V0.000616074H5.09814Z" fill="white"/>
<path d="M6.72876 3.66136V4.03828L7.13678 4.24178L10.8663 6.10236H12.2341L8.15584 4.06836H9.06836L12.2341 5.64624V5.41968L9.52362 4.06836L8.70858 3.66136H6.72876Z" fill="white"/>
<path d="M0.000488281 0.000739098L4.07871 2.03474H3.16618L0.000488281 0.455857V0.682414L2.71093 2.03474L3.52697 2.44073H5.50578V2.06281L5.09776 1.86031L1.36827 0.000739098H0.000488281Z" fill="white"/>
<path d="M3.52697 3.66102L2.71093 4.06802L0.000488281 5.41934V6.10101L4.07871 4.06802H4.99023L0.912008 6.10101H1.36928L5.09776 4.24245L5.50578 4.03794V3.66102H3.52697Z" fill="white"/>
<path d="M6.72876 2.06405V2.44098H8.70858L9.52362 2.03398L12.2341 0.682658V-1.90735e-05L8.15584 2.03398H7.24432L11.3215 -1.90735e-05H10.8663L7.13678 1.86055L6.72876 2.06405Z" fill="white"/>
<path d="M5.50603 0.000876427V2.06294V2.44087H3.52722H0.000732422V3.66087H3.52722H5.50603V4.0378V6.10187H6.72909V4.0378V3.66087H8.7079H12.2334V2.44087H8.7079H6.72909V2.06294V0.000876427H5.50603Z" fill="#ED2224"/>
<path d="M0.000488281 0.455483L3.16618 2.03436H4.07871L0.000488281 0.000365019V0.455483Z" fill="#ED2224"/>
<path d="M8.15615 2.03424L12.2344 0.000242949H11.3218L7.24463 2.03424H8.15615Z" fill="#ED2224"/>
<path d="M8.15601 4.06811L12.2342 6.10211V5.64699L9.06753 4.06811H8.15601Z" fill="#ED2224"/>
<path d="M4.07871 4.06811L0.000488281 6.10211H0.912008L4.99023 4.06811H4.07871Z" fill="#ED2224"/>
</g>
<defs>
<clipPath id="clip0_986_17579">
<rect width="24" height="16" fill="white"/>
</clipPath>
</defs>
</svg>
