<svg width="20" height="20" viewBox="0 0 20 20" fill="none" xmlns="http://www.w3.org/2000/svg">
<path d="M7.76953 16.4004C8.75953 16.4004 9.56934 17.2102 9.56934 18.2002C9.56924 19.1901 8.75947 20 7.76953 20C6.77968 19.9999 5.96982 19.1901 5.96973 18.2002C5.96973 17.2103 6.77962 16.4005 7.76953 16.4004ZM15.54 16.4004C16.53 16.4004 17.3398 17.2102 17.3398 18.2002C17.3398 19.1901 16.53 20 15.54 20C14.5502 19.9999 13.7403 19.1901 13.7402 18.2002C13.7402 17.2103 14.5501 16.4005 15.54 16.4004ZM7.76953 17.7598C7.52962 17.7599 7.33008 17.9603 7.33008 18.2002C7.33017 18.4401 7.52967 18.6395 7.76953 18.6396C8.00947 18.6396 8.20987 18.4401 8.20996 18.2002C8.20996 17.9602 8.00953 17.7598 7.76953 17.7598ZM15.54 17.7598C15.3001 17.7599 15.1006 17.9603 15.1006 18.2002C15.1007 18.4401 15.3002 18.6395 15.54 18.6396C15.78 18.6396 15.9804 18.4401 15.9805 18.2002C15.9805 17.9602 15.78 17.7598 15.54 17.7598ZM4.62012 3.0498H18.0195L18.6904 3.87988L17.0703 11.1904L16.4004 11.7197H6.36035L6.66992 13.29L8.0498 14.6699H16.4004V16.04H7.48047L5.41016 13.9697L2.88965 1.37012H0V0H4.00977L4.62012 3.0498ZM6.08008 10.3604H15.8496L17.1699 4.41016H4.88965L6.08008 10.3604Z" fill="#001E28"/>
</svg>
