<svg width="20" height="20" viewBox="0 0 20 20" fill="none" xmlns="http://www.w3.org/2000/svg">
<path d="M20 12.4609L15.5361 17.417L12.5127 15.5703L8.66797 20H6.98828L12.2432 13.9443L15.2852 15.8027L20 10.5693V12.4609ZM9.7832 0C12.3255 4.9835e-05 14.1662 1.23799 14.9668 3.48438C15.9223 6.16649 15.1255 9.82192 13.2832 11.8896L12.1406 11.1572C13.7677 9.49118 14.5159 6.22614 13.6953 3.92383C13.2733 2.73883 12.2514 1.32721 9.7832 1.32715V1.26367C7.33434 1.26367 6.32107 2.60798 5.90234 3.73633C5.02336 6.10298 5.94458 9.56267 7.83496 10.9932L8.08594 11.1826V12.6221L2.36133 13.9668L1.33691 14.9395V17.2324H5.54102L4.44434 18.4961H0V14.417L1.67676 12.8242L6.62109 11.6641C4.56438 9.7752 3.63732 6.01724 4.63965 3.31738C5.43406 1.1784 7.26092 0 9.7832 0Z" fill="#001E28"/>
</svg>
