<svg width="24" height="16" viewBox="0 0 24 16" fill="none" xmlns="http://www.w3.org/2000/svg">
<g clip-path="url(#clip0_986_17657)">
<path d="M0 16H24V1.90735e-06H0V16ZM10.579 8.20796L11.955 3.56319L12.936 6.86368L12.264 6.86269L11.954 5.82189L11.577 7.09353L11.645 6.86468L16.099 6.86269L13.54 8.90647L14.518 12.206L11.955 10.1662L12.497 9.73532L13.307 10.3771L12.864 8.87861L12.998 9.33333L9.394 12.208L10.371 8.90448L7.81 6.86567L10.977 6.86169L10.769 7.5612L9.77 7.56418L11.085 8.61095L10.579 8.20796ZM13.141 7.5612L13.522 8.84378L13.333 8.20697L14.14 7.5612H13.141ZM11.439 7.5612L11.12 8.63881L11.956 9.30448L12.792 8.63881L12.471 7.5612H11.439ZM10.913 9.33731L10.607 10.3791L11.414 9.73532L10.637 9.11642L10.913 9.33731ZM11.414 9.73532H11.415L11.956 9.30448L11.414 9.73532Z" fill="#E52E34"/>
<path d="M11.9558 9.304L11.1198 8.63932L11.0848 8.61047L9.77079 7.5637L10.7698 7.56171L10.9768 6.86221L7.81079 6.86519L11.4148 9.73584L11.9558 9.304Z" fill="#1B8549"/>
<path d="M11.1196 8.63892L11.4386 7.5613L11.5776 7.09464L11.9536 5.823L12.2656 6.8628L12.9356 6.86379L11.9546 3.56329L10.5786 8.20807L11.0846 8.61106L11.1196 8.63892Z" fill="#1B8549"/>
<path d="M11.439 7.56122H12.472H13.022H14.14L13.334 8.20699L13.54 8.90649L16.1 6.86271L11.646 6.8647L11.577 7.09455L11.439 7.56122Z" fill="#1B8549"/>
<path d="M12.4716 7.56118L12.7916 8.63879L12.8636 8.87859L13.3066 10.3771L12.4966 9.7363L11.9536 10.1681L14.5186 12.205L13.1396 7.56118H13.0226H12.4716Z" fill="#1B8549"/>
<path d="M12.792 8.63887L10.606 10.3792L10.913 9.33738L10.371 8.90454L9.39502 12.207L12.998 9.33539L12.863 8.87867L12.792 8.63887Z" fill="#1B8549"/>
</g>
<defs>
<clipPath id="clip0_986_17657">
<rect width="24" height="16" fill="white"/>
</clipPath>
</defs>
</svg>
