<svg width="20" height="20" viewBox="0 0 20 20" fill="none" xmlns="http://www.w3.org/2000/svg">
<g clip-path="url(#clip0_8438_69171)">
<path d="M6.89655 0L4.82452 0.00153257L4.82759 1.38008H6.89655V0Z" fill="#001E28"/>
<path d="M19.0207 0L13.7969 5.24751L13.3916 4.82759H11.259L0 16.1011V20H3.89962L15.1724 8.741V6.60843L14.7755 6.22529L20 1.0023V0H19.0207ZM13.7801 8.17088L3.32874 18.6207H1.37931V16.6713L11.8291 6.21992H12.8207L13.7801 7.17931V8.17088Z" fill="#001E28"/>
<path d="M1.37931 1.38007H0V13.7793L1.37931 12.4145V1.38007Z" fill="#001E28"/>
<path d="M3.44827 1.38007V10.3456L4.82758 8.96627V1.38007" fill="#001E28"/>
<path d="M1.3793 1.3801V0.000793457H3.44061L3.44827 1.3801H1.3793Z" fill="#001E28"/>
<path d="M8.27586 5.518L6.89655 6.89731V1.38007H8.27586V5.518Z" fill="#001E28"/>
<path d="M14.1379 13.7931C13.5241 13.7931 12.9241 13.9751 12.4138 14.3161C11.9034 14.6571 11.5056 15.1418 11.2707 15.7089C11.0358 16.276 10.9744 16.9 11.0941 17.502C11.2139 18.104 11.5094 18.657 11.9435 19.091C12.3775 19.525 12.9305 19.8206 13.5325 19.9404C14.1345 20.0601 14.7585 19.9986 15.3256 19.7638C15.8927 19.5289 16.3773 19.1311 16.7184 18.6207C17.0594 18.1104 17.2414 17.5103 17.2414 16.8965C17.2404 16.0738 16.9131 15.285 16.3313 14.7032C15.7495 14.1214 14.9607 13.7941 14.1379 13.7931ZM14.1379 18.6207C13.7969 18.6207 13.4636 18.5196 13.1801 18.3301C12.8965 18.1407 12.6755 17.8714 12.545 17.5563C12.4145 17.2413 12.3804 16.8946 12.4469 16.5602C12.5135 16.2257 12.6777 15.9185 12.9188 15.6774C13.1599 15.4363 13.4671 15.2721 13.8016 15.2055C14.136 15.139 14.4827 15.1731 14.7977 15.3036C15.1128 15.4341 15.3821 15.6551 15.5715 15.9387C15.761 16.2222 15.8621 16.5555 15.8621 16.8965C15.8617 17.3537 15.6799 17.792 15.3566 18.1152C15.0334 18.4385 14.5951 18.6203 14.1379 18.6207Z" fill="#001E28"/>
</g>
<defs>
<clipPath id="clip0_8438_69171">
<rect width="20" height="20" fill="white"/>
</clipPath>
</defs>
</svg>
