<svg width="20" height="20" viewBox="0 0 20 20" fill="none" xmlns="http://www.w3.org/2000/svg">
<path fill-rule="evenodd" clip-rule="evenodd" d="M19.1625 12.41L18.7793 11.0851L15.3057 12.0889L11.518 10L15.3057 7.91111L18.7793 8.91494L19.1625 7.59004L17.0138 6.96858L19.1793 5.77471L18.5134 4.56705L16.3479 5.76092L16.9686 3.61303L15.6437 3.22989L14.6398 6.70268L10.7793 8.83218V4.42375L13.3356 1.86667L12.3609 0.891954L10.7793 2.4728V0H9.4V2.4728L7.81839 0.891954L6.84368 1.86667L9.4 4.42375V8.83218L5.53946 6.70268L4.53563 3.22989L3.21073 3.61303L3.83142 5.76092L1.6659 4.56705L1 5.77471L3.16552 6.96858L1.01686 7.59004L1.4 8.91494L4.87356 7.91111L8.6613 10L4.87356 12.0889L1.4 11.0851L1.01686 12.41L3.16552 13.0314L1 14.2253L1.6659 15.433L3.83142 14.2391L3.21073 16.387L4.53563 16.7701L5.53946 13.2973L9.4 11.1678V15.5762L6.84368 18.1333L7.81839 19.108L9.4 17.5272V20H10.7793V17.5272L12.3609 19.108L13.3356 18.1333L10.7793 15.5762V11.1678L14.6398 13.2973L15.6437 16.7701L16.9686 16.387L16.3479 14.2391L18.5134 15.433L19.1793 14.2253L17.0138 13.0314L19.1625 12.41V12.41Z" fill="#001E28"/>
</svg>
