<svg width="20" height="20" viewBox="0 0 20 20" fill="none" xmlns="http://www.w3.org/2000/svg">
<g clip-path="url(#clip0_8438_68985)">
<path d="M4.99837 15C4.99837 15.4583 5.37337 15.8333 5.83171 15.8333H6.66504V18.75C6.66504 19.4417 7.22337 20 7.91504 20C8.60671 20 9.16504 19.4417 9.16504 18.75V15.8333H10.8317V18.75C10.8317 19.4417 11.39 20 12.0817 20C12.7734 20 13.3317 19.4417 13.3317 18.75V15.8333H14.165C14.6234 15.8333 14.9984 15.4583 14.9984 15V6.66667H4.99837V15ZM2.91504 6.66667C2.22337 6.66667 1.66504 7.225 1.66504 7.91667V13.75C1.66504 14.4417 2.22337 15 2.91504 15C3.60671 15 4.16504 14.4417 4.16504 13.75V7.91667C4.16504 7.225 3.60671 6.66667 2.91504 6.66667ZM17.0817 6.66667C16.39 6.66667 15.8317 7.225 15.8317 7.91667V13.75C15.8317 14.4417 16.39 15 17.0817 15C17.7734 15 18.3317 14.4417 18.3317 13.75V7.91667C18.3317 7.225 17.7734 6.66667 17.0817 6.66667ZM12.94 1.8L14.0234 0.716667C14.19 0.55 14.19 0.291667 14.0234 0.125C13.8567 -0.0416667 13.5984 -0.0416667 13.4317 0.125L12.1984 1.35833C11.5164 1.01299 10.7628 0.833133 9.99837 0.833333C9.19837 0.833333 8.44837 1.025 7.78171 1.35833L6.54004 0.125C6.37337 -0.0416667 6.11504 -0.0416667 5.94837 0.125C5.78171 0.291667 5.78171 0.55 5.94837 0.716667L7.04004 1.80833C6.40717 2.2714 5.89245 2.87723 5.5377 3.57659C5.18295 4.27596 4.99817 5.04914 4.99837 5.83333H14.9984C14.9984 4.175 14.19 2.70833 12.94 1.8ZM8.33171 4.16667H7.49837V3.33333H8.33171V4.16667ZM12.4984 4.16667H11.665V3.33333H12.4984V4.16667Z" fill="#001E28"/>
</g>
<defs>
<clipPath id="clip0_8438_68985">
<rect width="20" height="20" fill="white"/>
</clipPath>
</defs>
</svg>
