<svg width="24" height="16" viewBox="0 0 24 16" fill="none" xmlns="http://www.w3.org/2000/svg">
<g clip-path="url(#clip0_911_9)">
<g clip-path="url(#clip1_911_9)">
<path d="M0 5.32837H24V0.00100565H0V5.32837Z" fill="#F7D531"/>
<path d="M0 10.6707H24V5.32837H0V10.6707ZM12.979 5.67961L13.061 6.25672L13.638 6.35921L13.111 6.61294L13.192 7.19006L12.785 6.77115L12.26 7.02687L12.534 6.51145L12.128 6.09255L12.704 6.19503L12.979 5.67961ZM10.889 6.61294L10.363 6.35921L10.939 6.25672L11.021 5.67961L11.296 6.19503L11.872 6.09255L11.465 6.51145L11.74 7.02687L11.214 6.77115L10.808 7.19006L10.889 6.61294ZM14.819 6.34727L14.698 6.91643L15.206 7.20797L14.622 7.26866L14.501 7.83682L14.261 7.30647L13.681 7.36717L14.117 6.97712L13.878 6.44578L14.385 6.73533L14.819 6.34727ZM9.377 7.26866L8.795 7.20797L9.301 6.91643L9.18 6.34727L9.617 6.73533L10.122 6.44578L9.884 6.97712L10.318 7.36717L9.737 7.30647L9.499 7.83682L9.377 7.26866ZM15.467 8.31145L14.9 8.17016L15.442 7.95324L15.402 7.37215L15.777 7.81792L16.321 7.59901L16.01 8.09354L16.385 8.53931L15.818 8.39901L15.508 8.89354L15.467 8.31145ZM8.6 7.37215L8.558 7.95324L9.101 8.17016L8.533 8.31145L8.492 8.89354L8.182 8.39901L7.614 8.53931L7.99 8.09354L7.682 7.59901L8.222 7.81792L8.6 7.37215ZM16.253 9.66468L15.768 9.3413L16.352 9.32041L16.514 8.75921L16.715 9.30747L17.3 9.28757L16.838 9.64677L17.038 10.192L16.553 9.86767L16.092 10.2269L16.253 9.66468ZM7.486 8.75921L7.647 9.32041L8.232 9.3413L7.747 9.66468L7.908 10.2269L7.447 9.86767L6.962 10.193L7.162 9.64677L6.701 9.28757L7.286 9.30747L7.486 8.75921Z" fill="#1F449B"/>
<path d="M0 16H24V10.6706H0V16Z" fill="#D02A36"/>
<path d="M11.2954 6.19504L11.0204 5.68061L10.9394 6.25673L10.3624 6.35922L10.8884 6.61394L10.8074 7.19006L11.2134 6.77215L11.7404 7.02688L11.4654 6.51245L11.8724 6.09355L11.2954 6.19504Z" fill="white"/>
<path d="M13.0604 6.25722L12.9784 5.6801L12.7054 6.19553L12.1274 6.09304L12.5344 6.51294L12.2594 7.02637L12.7854 6.77165L13.1924 7.19055L13.1114 6.61344L13.6374 6.35871L13.0604 6.25722Z" fill="white"/>
<path d="M9.8838 6.97771L10.1218 6.44537L9.6148 6.73692L9.1798 6.34687L9.3018 6.91702L8.7948 7.20756L9.3768 7.26826L9.4988 7.83841L9.7368 7.30707L10.3188 7.36776L9.8838 6.97771Z" fill="white"/>
<path d="M14.623 7.26878L15.205 7.20808L14.697 6.91654L14.819 6.34739L14.385 6.73644L13.878 6.44589L14.115 6.97823L13.681 7.36729L14.263 7.30659L14.501 7.83893L14.623 7.26878Z" fill="white"/>
<path d="M8.55814 7.95283L8.59914 7.37173L8.22314 7.81751L7.68014 7.5996L7.99014 8.09412L7.61414 8.53989L8.18214 8.3986L8.49214 8.89313L8.53314 8.31203L9.10014 8.17074L8.55814 7.95283Z" fill="white"/>
<path d="M15.8184 8.39881L16.3864 8.54011L16.0094 8.09334L16.3194 7.59981L15.7774 7.81772L15.4014 7.37195L15.4424 7.95304L14.8994 8.17095L15.4674 8.31225L15.5074 8.89334L15.8184 8.39881Z" fill="white"/>
<path d="M7.64744 9.32051L7.48544 8.76031L7.28544 9.30658L6.70044 9.28767L7.16244 9.64588L6.96144 10.1931L7.44644 9.86777L7.90844 10.226L7.74744 9.66678L8.23144 9.34141L7.64744 9.32051Z" fill="white"/>
<path d="M16.7148 9.30788L16.5148 8.76062L16.3528 9.32082L15.7678 9.34072L16.2528 9.66509L16.0918 10.2263L16.5528 9.86708L17.0378 10.1935L16.8388 9.64619L17.2998 9.28698L16.7148 9.30788Z" fill="white"/>
</g>
</g>
<defs>
<clipPath id="clip0_911_9">
<rect width="24" height="16" fill="white"/>
</clipPath>
<clipPath id="clip1_911_9">
<rect width="24" height="16" fill="white"/>
</clipPath>
</defs>
</svg>
