<svg width="24" height="16" viewBox="0 0 24 16" fill="none" xmlns="http://www.w3.org/2000/svg">
<g clip-path="url(#clip0_986_17598)">
<path d="M0 16H23.999V14.8756H0V16Z" fill="white"/>
<path d="M0 13.7303H23.999V12.5851H0V13.7303Z" fill="white"/>
<path d="M13.9624 6.85376H24V5.7065H13.9624V6.85376Z" fill="white"/>
<path d="M13.9624 4.56213H24V3.41686H13.9624V4.56213Z" fill="white"/>
<path d="M13.9624 2.27063H24V1.12436H13.9624V2.27063Z" fill="white"/>
<path d="M0 11.4379H23.999V10.2916H0V11.4379Z" fill="white"/>
<path d="M13.9624 9.14526H24V7.99999H13.9624V9.14526Z" fill="white"/>
<path d="M13.9624 1.12439H24V1.14441e-05H13.9624V1.12439Z" fill="#DC2727"/>
<path d="M13.9624 3.41687H24V2.2706H13.9624V3.41687Z" fill="#DC2727"/>
<path d="M13.9624 5.70642H24V4.56214H13.9624V5.70642Z" fill="#DC2727"/>
<path d="M13.9624 8H24V6.85373H13.9624V8Z" fill="#DC2727"/>
<mask id="mask0_986_17598" style="mask-type:luminance" maskUnits="userSpaceOnUse" x="0" y="0" width="24" height="16">
<path d="M0 16H23.999V1.90735e-06H0V16Z" fill="white"/>
</mask>
<g mask="url(#mask0_986_17598)">
<path d="M1.00671 4.56261C1.00671 2.6641 2.55365 1.1248 4.46157 1.1248C5.26154 1.1248 5.99851 1.39644 6.58448 1.85116C7.08346 2.10191 7.50344 2.48499 7.79843 2.95365L7.98542 1.69793L8.23541 3.46907L9.26437 1.98649L8.69839 3.68798L10.2883 2.78549L9.01738 4.08002L10.8523 3.93674L9.13037 4.56758L10.8473 5.21136L9.01338 5.05415L10.2723 6.35863L8.69139 5.4432L9.24237 7.14868L8.22641 5.65912L7.96142 7.42728L7.78643 6.18848C7.49244 6.64917 7.07746 7.02529 6.58548 7.27305C5.99951 7.72878 5.26254 8.00042 4.46157 8.00042C2.55365 8.00042 1.00671 6.46111 1.00671 4.56261ZM13.9622 8.00042V6.85415V5.70788V4.56261V3.41733V2.27106V1.1248V0.000417709H-0.000244141V9.14569H13.9622V8.00042Z" fill="#23449C"/>
</g>
<mask id="mask1_986_17598" style="mask-type:luminance" maskUnits="userSpaceOnUse" x="0" y="0" width="24" height="16">
<path d="M0 16H23.999V1.90735e-06H0V16Z" fill="white"/>
</mask>
<g mask="url(#mask1_986_17598)">
<path d="M5.21005 7.59913C3.52412 7.59913 2.15818 6.23992 2.15818 4.56231C2.15818 2.88569 3.52412 1.5255 5.21005 1.5255C5.70503 1.5255 6.17101 1.6439 6.58499 1.85186C5.99902 1.39714 5.26205 1.1245 4.46108 1.1245C2.55316 1.1245 1.00623 2.6638 1.00623 4.56231C1.00623 6.46082 2.55316 8.00012 4.46108 8.00012C5.26205 8.00012 5.99902 7.72848 6.58499 7.27276C6.17101 7.48072 5.70503 7.59913 5.21005 7.59913Z" fill="#FFD933"/>
</g>
<mask id="mask2_986_17598" style="mask-type:luminance" maskUnits="userSpaceOnUse" x="0" y="0" width="24" height="16">
<path d="M0 16H23.999V1.90735e-06H0V16Z" fill="white"/>
</mask>
<g mask="url(#mask2_986_17598)">
<path d="M2.15857 4.56255C2.15857 6.24016 3.52451 7.59937 5.21044 7.59937C5.70442 7.59937 6.1714 7.48096 6.58538 7.273C7.07736 7.02524 7.49235 6.64912 7.78633 6.18842L7.71134 5.65608L6.68238 7.13867L7.24936 5.43718L5.65942 6.33966L6.92937 5.04514L5.09545 5.18842L6.81737 4.55757L5.10045 3.91379L6.93337 4.07101L5.67542 2.76653L7.25636 3.68195L6.70438 1.97648L7.72134 3.46603L7.79833 2.95359C7.50335 2.48494 7.08336 2.10185 6.58438 1.85111C6.1714 1.64315 5.70442 1.52573 5.21044 1.52573C3.52451 1.52573 2.15857 2.88494 2.15857 4.56255Z" fill="#23449C"/>
</g>
<mask id="mask3_986_17598" style="mask-type:luminance" maskUnits="userSpaceOnUse" x="0" y="0" width="24" height="16">
<path d="M0 16H23.999V1.90735e-06H0V16Z" fill="white"/>
</mask>
<g mask="url(#mask3_986_17598)">
<path d="M0 14.8746H23.999V13.7294H0V14.8746Z" fill="#DC2727"/>
</g>
<mask id="mask4_986_17598" style="mask-type:luminance" maskUnits="userSpaceOnUse" x="0" y="0" width="24" height="16">
<path d="M0 16H23.999V1.90735e-06H0V16Z" fill="white"/>
</mask>
<g mask="url(#mask4_986_17598)">
<path d="M0 12.5831H23.999V11.4378H0V12.5831Z" fill="#DC2727"/>
</g>
<mask id="mask5_986_17598" style="mask-type:luminance" maskUnits="userSpaceOnUse" x="0" y="0" width="24" height="16">
<path d="M0 16H23.999V1.90735e-06H0V16Z" fill="white"/>
</mask>
<g mask="url(#mask5_986_17598)">
<path d="M0 9.14556V10.2908H23.999V9.14556H13.9614H0Z" fill="#DC2727"/>
</g>
<mask id="mask6_986_17598" style="mask-type:luminance" maskUnits="userSpaceOnUse" x="0" y="0" width="24" height="16">
<path d="M0 16H23.999V1.90735e-06H0V16Z" fill="white"/>
</mask>
<g mask="url(#mask6_986_17598)">
<path d="M7.72135 3.46644L6.70439 1.97589L7.25637 3.68136L5.67543 2.76693L6.93338 4.07042L5.10046 3.9132L6.81739 4.55798L5.09546 5.18783L6.92938 5.04554L5.65944 6.33907L7.24937 5.43758L6.68239 7.13808L7.71135 5.65649L7.78635 6.18882L7.96134 7.42664L8.22633 5.65848L9.24229 7.14902L8.69131 5.44355L10.2722 6.35798L9.0133 5.0545L10.8472 5.21171L9.13029 4.56693L10.8522 3.93708L9.0173 4.07937L10.2882 2.78584L8.69931 3.68733L9.26429 1.98684L8.23633 3.46843L7.98634 1.69828L7.79835 2.954L7.72135 3.46644Z" fill="#FFD933"/>
</g>
</g>
<defs>
<clipPath id="clip0_986_17598">
<rect width="24" height="16" fill="white"/>
</clipPath>
</defs>
</svg>
