<svg width="20" height="20" viewBox="0 0 20 20" fill="none" xmlns="http://www.w3.org/2000/svg">
<path fill-rule="evenodd" clip-rule="evenodd" d="M2.7229 20H8.04275L8.89924 18.6717H4.05115V17.0229L1.32824 12.9076V7.22286L2.29008 6.18316H6.17557V10.5748L8.89847 14.6923V18.6717H16.3634L17.2031 17.3397V14.6923L19.926 10.5702V1.84576L18.1557 0.0762939H7.95115L6.17634 1.79385V4.85797H1.76031L0 6.64118V13.329L2.7229 17.4587V20ZM15.8725 17.3435H10.229V15.1519H15.8779L15.8725 17.3435ZM7.50458 2.40607L8.47328 1.40454H17.6198L18.5954 2.44271V6.25263H12.6351L10.7924 9.00759L12.6351 11.6977H15.5725L16.5031 10.3694H13.4252L12.5145 9.00759L13.4252 7.58011H18.5954V10.1847L16.1595 13.8229H9.94046L7.50458 10.1855V2.40607Z" fill="#001E28"/>
</svg>
