<svg width="20" height="20" viewBox="0 0 20 20" fill="none" xmlns="http://www.w3.org/2000/svg">
<path fill-rule="evenodd" clip-rule="evenodd" d="M8.013 14.639C4.359 14.639 1.387 11.666 1.387 8.013C1.387 4.359 4.359 1.387 8.013 1.387C11.666 1.387 14.638 4.359 14.638 8.013C14.638 11.666 11.666 14.639 8.013 14.639V14.639ZM20 19.021L14.119 13.139C15.291 11.745 16.025 9.972 16.025 8.013C16.025 3.595 12.43 0 8.013 0C3.594 0 0 3.595 0 8.013C0 12.431 3.594 16.026 8.013 16.026C9.972 16.026 11.745 15.291 13.138 14.119L19.019 20L20 19.021Z" fill="#001E28"/>
</svg>
