<svg width="24" height="16" viewBox="0 0 24 16" fill="none" xmlns="http://www.w3.org/2000/svg">
<g clip-path="url(#clip0_986_12902)">
<path d="M11.9995 16H24V8.00052H11.9995V16ZM17.3383 12.2679L16.1493 11.4073H17.6183L18.0733 10.0153L18.5272 11.4073H19.9992L18.8072 12.2679L19.2632 13.6599L18.0733 12.7992L16.8833 13.6599L17.3383 12.2679Z" fill="#FAFAFA"/>
<path d="M0 8.00049H11.9995V1.33514e-05H0V8.00049ZM5.19078 4.20869L4.00083 3.34805H5.47077L5.92575 1.95412L6.38073 3.34805H7.85167L6.66172 4.20869L7.1157 5.60064L5.92575 4.74L4.7358 5.60064L5.19078 4.20869Z" fill="#FAFAFA"/>
<path d="M6.02515 3.65063V3.66754L6.03915 3.64764L6.02515 3.65063Z" fill="#2968B2"/>
<path d="M6.17002 3.78851L6.18502 3.78354L6.23302 3.71787L6.12402 3.69996L6.17002 3.78851Z" fill="#2968B2"/>
<path d="M5.6814 3.78852L5.98638 3.88702L5.92639 3.80245L5.77839 3.60247L5.6814 3.78852Z" fill="#2968B2"/>
<path d="M0 16H11.9995V8.00052H0V16Z" fill="#2968B2"/>
<path d="M11.9995 8.00049H24V1.33514e-05H11.9995V8.00049Z" fill="#D31F36"/>
<path d="M18.1719 11.7098V11.7267L18.1849 11.7068L18.1719 11.7098Z" fill="#D31F36"/>
<path d="M18.318 11.8477L18.332 11.8427L18.381 11.7771L18.272 11.7592L18.318 11.8477Z" fill="#D31F36"/>
<path d="M19.9983 11.4081H18.5274L18.0734 10.0161L17.6184 11.4081H16.1475L17.3384 12.2677L16.8844 13.6606L18.0734 12.799L19.2633 13.6606L18.8093 12.2677L19.9983 11.4081Z" fill="#D31F36"/>
<path d="M7.85133 3.34824H6.38039L5.92641 1.95629L5.47143 3.34824H4.00049L5.19044 4.20888L4.73646 5.60083L5.92641 4.74019L7.11636 5.60083L6.66138 4.20888L7.85133 3.34824Z" fill="#2968B2"/>
</g>
<defs>
<clipPath id="clip0_986_12902">
<rect width="24" height="16" fill="white"/>
</clipPath>
</defs>
</svg>
