<svg width="24" height="16" viewBox="0 0 24 16" fill="none" xmlns="http://www.w3.org/2000/svg">
<g clip-path="url(#clip0_986_17559)">
<path d="M0 16H24V0.017911H0V16Z" fill="#00AB39"/>
<path d="M0 8.00793H24V0.01689H0V8.00793Z" fill="#FAFAFA"/>
<mask id="mask0_986_17559" style="mask-type:luminance" maskUnits="userSpaceOnUse" x="0" y="0" width="24" height="16">
<path d="M0 1.90735e-06H24V16H0V1.90735e-06Z" fill="white"/>
</mask>
<g mask="url(#mask0_986_17559)">
<path d="M19.4698 5.95302C19.6768 5.95004 19.9238 6.0366 20.1648 6.29133C20.0488 6.62466 19.0418 6.79581 18.9738 6.30327C18.9528 6.15402 19.1678 5.957 19.4698 5.95302ZM6.21078 2.23362C6.28378 2.23461 6.36978 2.24158 6.43878 2.25849C6.58078 2.29232 6.75378 2.31222 6.75078 2.35402C6.68478 2.46446 6.52378 2.59581 6.36478 2.58785C6.20578 2.57989 6.11478 2.48536 6.06178 2.24755C6.07778 2.23959 6.13678 2.23362 6.21078 2.23362ZM16.0978 0.96695C14.4118 1.89431 12.9048 2.85949 11.4218 4.08834C10.7098 4.70725 10.9108 5.19979 10.8838 5.75501C10.9068 6.12814 10.8028 6.47441 10.5718 6.68337C10.0448 6.78984 9.51678 6.8973 8.98978 7.00277C8.93878 6.8575 8.88878 6.71322 8.83878 6.56795C8.88678 6.34506 9.07178 6.23561 9.46178 6.37491C9.49178 6.08834 9.26078 5.97192 8.98978 5.87242C8.89678 5.80078 8.78078 5.74506 8.79578 5.4973C8.75078 4.9371 9.65478 5.53809 9.66278 5.53809C9.67178 5.53809 9.63278 4.97192 9.21778 4.85849C8.99078 4.77889 8.89478 4.54108 8.98178 4.36496C9.16278 4.00576 9.50378 4.39382 9.76478 4.40775C9.75478 4.17193 9.68778 4.00476 9.48478 3.81571C9.37478 3.74904 9.10678 3.69829 9.09878 3.58586C9.09378 3.43362 9.35078 3.36795 9.70478 3.41073C9.63178 3.1968 9.39278 3.05849 9.06578 2.958L8.87278 2.62267C8.78078 2.45451 8.73978 2.44954 8.95178 2.13013C9.14278 2.00675 9.39678 1.83362 9.58778 1.71023C9.51678 1.70227 9.44678 1.69431 9.37678 1.68536C9.40478 1.4565 9.40778 1.37989 9.46178 0.998792C9.25678 1.2774 9.00078 1.22765 8.77078 1.34208C8.77078 1.34208 8.11578 1.45849 7.90378 1.7361C7.89578 1.7361 6.25478 1.65252 6.25478 1.65252C5.90578 1.70128 5.60678 1.79979 5.54878 2.13809C4.74878 2.21869 3.91178 2.14705 3.30178 2.90824C3.71678 2.88834 4.07978 2.78984 4.54678 2.84954C4.54678 2.84954 4.94378 2.8575 5.02678 3.2764C5.03478 3.29332 5.16178 3.29332 5.16178 3.29332C5.21178 3.33212 5.26178 3.37093 5.31278 3.41073C5.33178 3.358 5.35178 3.30426 5.37078 3.25153C5.41578 3.28138 5.46178 3.31222 5.50578 3.34307C5.51978 3.28436 5.53478 3.22665 5.54878 3.16795C5.59378 3.1978 5.63778 3.22964 5.68278 3.25949C5.68478 3.19083 5.68878 3.12018 5.69178 3.05053C5.75078 3.09232 5.80878 3.13412 5.86778 3.17591V2.90028C5.86778 2.90028 6.51878 2.89829 6.71778 3.31023C6.72578 3.31919 4.88978 3.64655 3.11578 3.49431C3.28778 3.41073 3.45778 3.32615 3.62978 3.24257C2.98278 3.11222 2.37478 2.99382 1.80378 2.54805C2.01978 3.35501 3.13278 4.30227 3.36078 4.29829C3.36078 4.30625 3.14178 3.90426 3.14178 3.90426C3.78378 3.93312 4.42678 3.95998 5.06878 3.98785C5.13878 4.19979 5.10778 4.43859 5.27978 4.62566C5.27978 4.62566 5.17278 4.97591 5.40878 5.11819C5.41778 5.13511 5.69178 4.40775 5.69178 4.40775C5.69178 4.40775 5.77578 4.60377 5.85978 4.73312C5.98278 4.10725 6.66678 4.00476 6.66678 4.00476C6.66678 4.00476 6.81078 4.33212 6.81078 4.34008C6.59578 4.37093 6.32978 4.80476 6.47378 5.04257C6.32978 5.04556 6.07478 5.46645 6.15478 5.6963C6.03378 5.81571 5.73278 5.97491 5.80978 6.47541C5.57278 6.52615 5.43278 6.95601 5.50578 7.41272C5.13978 7.75202 5.22978 8.37491 5.55678 8.62665C5.42078 8.74705 5.33778 8.83859 5.33778 8.98685C5.20878 8.93909 5.08978 8.97889 5.03378 9.06247C4.87678 8.90128 4.64978 8.76098 4.48878 8.91123C4.44678 8.72118 4.19678 8.51123 3.92378 8.53511C3.93978 8.33411 3.83478 8.08536 3.54578 7.99879C3.54578 7.99879 3.48778 7.0565 3.19978 6.75103C3.17178 6.57989 3.21678 6.46446 3.45278 6.32416C3.68878 6.19879 3.73978 6.10128 3.72178 5.74605C3.81578 5.50924 3.88578 5.26745 3.59578 5.10227C3.60478 5.38486 3.51778 5.52018 3.40278 5.64556C3.26478 5.62566 3.21678 5.78586 3.12478 5.85551C2.99478 5.68237 3.39778 5.41272 3.09878 5.02566C3.08278 5.00974 2.89078 4.52217 2.41778 4.53312C2.64278 4.66347 2.73778 4.88436 2.73778 5.11023C2.58878 5.52914 2.51178 5.85252 2.66178 6.33312C2.46578 6.03959 2.35378 5.48337 2.19078 5.38586C2.04878 5.358 1.97878 5.02267 1.42478 5.11819C1.66378 5.18287 1.73978 5.36397 1.80378 5.52814C1.65778 5.60377 1.73078 5.80178 1.83778 5.93909C1.81678 6.26048 2.01078 6.44854 2.29978 6.56795C2.25278 7.00576 2.20478 7.44357 2.15678 7.88138C2.04178 7.86645 1.86478 8.31222 1.79478 8.32615C1.68278 8.39581 1.48578 8.58287 1.71178 8.63561C1.64478 8.8764 1.58178 9.02068 1.22278 9.07043C1.22278 9.07043 1.60278 9.29531 1.91778 8.91123C2.25578 8.90327 2.14478 8.50227 2.30778 8.32615C2.30778 8.3172 2.40078 8.25949 2.53578 7.90625C2.59478 8.22168 2.91978 9.18685 3.65478 9.66546C4.29478 10.348 4.82178 10.9918 4.81578 11.9013C5.06578 11.6704 5.21478 11.3033 5.32978 10.954C5.67778 10.8346 6.17478 10.7878 6.61778 10.8077C6.54178 10.9679 6.45678 11.1202 6.56678 11.2227C6.25678 11.3291 6.18978 11.552 6.31378 11.7759C5.98778 11.9968 5.96578 12.1371 5.96078 12.5033C5.35778 13.2734 4.98478 13.2485 4.38678 13.0485C4.19078 12.9341 3.88678 12.7689 3.74678 12.8555C3.48978 12.6844 3.11778 12.6595 3.05678 13.0485C3.25078 12.8883 3.36578 12.9192 3.52078 13.0734C3.48978 13.152 3.46378 13.2296 3.57878 13.2744C3.52878 13.3301 3.47878 13.3859 3.42778 13.4416C3.14978 13.3988 2.77678 13.4018 2.67878 13.8018C2.82178 13.6844 3.13778 13.6565 3.39378 13.7689C3.44178 13.7859 3.48878 13.8018 3.53678 13.8187C3.54178 13.8824 3.54878 13.947 3.55378 14.0107C3.55378 14.0107 3.17578 13.954 3.07378 14.564C3.42878 14.1888 3.67978 14.2864 3.67978 14.2864C3.81678 14.4864 4.31978 14.4555 4.68178 14.1281C5.18978 13.8456 5.33878 14.2515 5.66678 13.9869C5.93878 13.7849 6.26078 13.9182 6.48178 14.154C6.73678 14.2485 7.00478 14.3281 7.21478 14.154C7.21478 14.154 7.47078 13.9908 7.72778 14.2535C7.73078 13.957 7.51878 13.7988 7.23178 13.7928L7.14678 13.7092C6.87778 13.6535 6.57478 13.6764 6.33978 13.5411C6.45078 13.1232 6.61278 12.7431 6.92778 12.4197C7.31878 12.0038 7.60478 11.8147 8.09778 11.1779C8.07878 11.5381 8.35578 11.9381 8.50178 12.3033C8.50178 12.3033 8.79578 11.8366 8.83878 11.4575C8.84678 11.4575 9.20678 11.2704 9.36078 11.1122C9.68478 11.3122 10.2138 10.952 10.5548 10.6535C10.7648 10.7321 10.9248 10.7271 11.1698 10.6535C10.9728 11.0515 11.2828 11.4207 11.7758 11.5739C11.8208 11.9252 12.1768 11.9988 12.7178 12.0018C12.7408 12.2087 13.0628 12.2366 13.0628 12.2366C12.8598 12.3311 12.7528 12.4247 12.7598 12.6376C12.5518 12.6396 12.3938 12.6923 12.3388 12.9311C12.0528 12.9361 11.7608 12.958 11.5138 13.0983C11.2508 13.0575 10.9298 12.949 10.7228 12.7391C10.6168 12.6495 10.5898 12.5202 10.4038 12.4704C10.2858 12.3321 10.1448 12.363 10.0998 12.4963C9.97778 12.4008 9.52078 12.357 9.44378 12.7888C9.65778 12.6326 9.84878 12.5739 9.98378 12.763C9.90978 12.8953 10.1608 12.9709 10.3788 13.0237C10.5318 13.0326 10.8058 13.1719 10.8918 13.4087C10.6928 13.4684 10.3918 13.4485 10.1928 13.2993C10.0158 13.152 9.77778 13.1689 9.64678 13.2665C9.46478 13.151 9.03178 13.3689 9.01478 13.7172C9.19778 13.551 9.36378 13.4704 9.52878 13.5759C9.44678 13.5948 9.47778 13.6038 9.48678 13.6515C9.62678 13.7321 9.76678 13.8127 9.90678 13.8943C9.70078 13.948 9.50678 14.0306 9.59578 14.4117C9.59578 14.4117 9.76378 14.0814 10.1428 14.2038C10.1508 14.1958 10.1948 14.3222 10.3028 14.2376C10.4668 14.0515 10.8408 13.9679 11.1698 13.9361C11.4338 13.9053 11.6968 13.8276 11.9268 13.9769C12.1308 13.8724 12.3588 13.8018 12.5918 13.9689C12.8668 14.0555 13.0678 14.3739 13.4158 14.2286C13.5898 14.1092 13.8028 14.1033 14.0228 14.3461C14.0248 14.0396 13.7938 13.9371 13.4668 13.8694C13.3908 13.8247 13.3158 13.7789 13.2408 13.7351C13.0298 13.7043 12.8188 13.7411 12.6088 13.6426C13.7088 13.359 14.4808 12.748 15.0248 11.8764C15.1988 11.9371 15.3708 11.9988 15.5448 12.0595C15.6678 12.0674 15.6778 12.1102 15.9318 12.1859C15.9418 11.8127 15.7818 11.4286 15.1078 11.3898L14.2238 11.0555C14.0358 10.8585 13.9508 10.4406 14.1908 10.1928C14.4248 9.98586 14.4658 10.0107 14.6198 9.75799C14.8078 9.74108 14.9848 9.93312 15.1578 9.93312C15.2408 10.1769 15.7148 10.3918 16.0168 10.3182C16.2058 10.4844 16.5658 10.5779 16.9588 10.4436C17.1828 10.6376 17.4738 10.7202 17.8178 10.5689C17.9078 10.6595 18.1008 10.7321 18.3228 10.6864C18.3388 10.6864 18.4338 10.9281 18.6758 11.0127C18.5708 11.1152 18.6348 11.558 18.7428 11.7162C18.6688 11.8864 18.6468 12.0684 18.7088 12.2446C18.4648 12.3998 18.4148 12.5162 18.5248 12.7799C18.2048 13.2903 17.8238 13.348 17.4638 13.1908C17.3348 13.1102 17.2058 13.0286 17.0768 12.947C16.9398 12.8127 16.8028 12.6794 16.6648 12.5451C16.5948 12.4804 16.4498 12.4605 16.4198 12.6038C16.4198 12.6038 15.8908 12.4864 15.8488 12.9311C16.0678 12.7182 16.3788 12.9063 16.3788 12.9142C16.3788 12.9222 16.3048 12.9719 16.3618 13.0575C16.3738 13.0466 16.7478 13.1968 17.0798 13.3381C17.2608 13.4068 17.3008 13.4276 17.3798 13.4694C17.2928 13.4296 17.1908 13.3849 17.0798 13.3381C16.8778 13.2615 16.6808 13.2008 16.6218 13.2157C16.4348 13.1988 16.2348 13.1749 16.1428 13.3162C15.9408 13.4018 15.6238 13.4694 15.6378 13.8436C15.7748 13.6217 15.9618 13.6296 16.2008 13.6515C16.1958 13.6674 16.1908 13.6844 16.1858 13.7013C16.4448 13.8197 16.3958 13.6684 16.6378 13.6475C16.8398 13.6286 17.1268 13.7013 17.2788 13.751C17.0878 13.8068 16.8278 13.7839 16.7058 13.9182C16.6838 13.963 16.6058 13.9461 16.6398 14.0525C16.6398 14.0525 16.2678 14.0426 16.1678 14.555C16.5458 14.3142 16.8328 14.3212 16.8408 14.3212C16.8498 14.3212 16.9588 14.3461 16.9588 14.3461C16.9588 14.3461 17.4128 14.0436 17.4218 14.0436C17.4308 14.0436 17.8618 13.8545 18.0608 14.0694C18.2348 14.155 18.4208 14.16 18.5998 14.0525C18.9538 13.8993 19.2848 13.8883 19.6108 14.1033L19.9048 14.2794L20.0308 14.1948C20.0308 14.1948 20.3638 14.1013 20.6078 14.3968C20.5068 13.8854 20.1408 13.8694 20.1408 13.8694L20.0558 13.7928L19.5338 13.5918C19.4578 13.4058 19.2678 13.2555 19.4578 13.0316C19.6528 12.0714 19.8838 11.349 19.5078 10.3769C19.8588 10.5271 20.1208 10.9938 20.5608 10.8286C20.5608 10.4376 19.1158 9.6963 18.0108 9.10028C19.8198 9.00775 21.9938 7.67839 21.1578 5.98984C21.2898 5.58188 21.4218 5.17491 21.5538 4.76795C21.7398 5.14008 22.1158 5.42466 22.4538 5.54605C22.1758 5.0167 22.0158 3.3978 22.1758 2.28038C21.4478 3.17591 20.6428 3.97193 19.7858 4.77889C20.2068 4.8774 20.5748 4.80874 20.9818 4.75799C20.8668 4.99282 20.7548 5.22765 20.6398 5.46247C19.5288 4.81471 18.2228 5.30028 18.2128 6.16496C18.2508 7.17392 19.5038 7.3172 20.2268 6.96596C20.0838 7.88536 17.9598 7.54705 17.9598 7.54705C17.2048 7.28735 16.4898 7.33212 15.6968 7.33809C15.8618 6.83362 16.7758 6.38685 17.4728 6.58387C16.4968 5.49531 17.6108 4.14406 18.9528 3.72814C17.4898 3.24854 18.7488 2.13809 19.8448 1.34208C19.8448 1.34208 16.6958 2.66148 16.4078 2.6575C15.5118 2.59083 15.7558 1.53511 16.0978 0.96695ZM16.0988 0.964961C16.0978 0.965956 16.0978 0.96695 16.0978 0.96695C16.0988 0.96695 16.0998 0.965956 16.1008 0.964961H16.0988Z" fill="#D21034"/>
</g>
<mask id="mask1_986_17559" style="mask-type:luminance" maskUnits="userSpaceOnUse" x="0" y="0" width="24" height="16">
<path d="M0 1.90735e-06H24V16H0V1.90735e-06Z" fill="white"/>
</mask>
<g mask="url(#mask1_986_17559)">
<path d="M6.09623 2.26887C6.14523 2.46788 6.22423 2.55246 6.36623 2.55942C6.51223 2.56639 6.65323 2.44897 6.71623 2.35445C6.68923 2.34052 6.60923 2.3236 6.54823 2.31166C6.51023 2.3037 6.47023 2.29574 6.43123 2.28678C6.37223 2.27186 6.29223 2.2639 6.21023 2.2629C6.15523 2.2629 6.11723 2.26589 6.09623 2.26887ZM6.37823 2.61713H6.36323C6.18623 2.60818 6.08823 2.49972 6.03323 2.25395L6.02823 2.23305L6.04823 2.2231C6.07823 2.20619 6.17223 2.20519 6.21123 2.20519C6.29623 2.20619 6.38223 2.21514 6.44523 2.23007C6.48223 2.23902 6.52223 2.24698 6.56023 2.25494C6.69923 2.2828 6.78323 2.30071 6.78023 2.35644L6.77923 2.3634L6.77623 2.36937C6.71323 2.47484 6.55023 2.61713 6.37823 2.61713ZM19.4792 5.98131H19.4712C19.2732 5.9843 19.1302 6.07086 19.0602 6.15146C19.0162 6.20121 18.9962 6.25395 19.0032 6.29873C19.0322 6.51266 19.2492 6.5644 19.3762 6.57733C19.6872 6.60818 20.0532 6.47186 20.1322 6.29873C19.8792 6.03803 19.6392 5.98131 19.4792 5.98131ZM19.4622 6.64002C19.4302 6.64002 19.3992 6.63803 19.3702 6.63504C19.1252 6.61116 18.9712 6.49076 18.9452 6.30668C18.9362 6.24499 18.9622 6.17634 19.0162 6.11365C19.1152 5.99922 19.2892 5.92659 19.4702 5.9236C19.6442 5.92161 19.9102 5.98032 20.1862 6.27186L20.1982 6.28479L20.1922 6.30171C20.1212 6.50569 19.7632 6.64002 19.4622 6.64002ZM5.38523 3.29574C5.38023 3.31066 5.37423 3.32559 5.36923 3.34052C5.35923 3.36738 5.34923 3.39425 5.34023 3.42012L5.32623 3.45594C6.01923 3.40221 6.53823 3.31862 6.67523 3.29076C6.49523 2.97733 6.01923 2.93554 5.89723 2.92957V3.23206L5.71823 3.1047C5.71823 3.12261 5.71723 3.14052 5.71623 3.15942C5.71423 3.19325 5.71323 3.22708 5.71123 3.26191L5.70923 3.31365L5.66623 3.2838C5.64323 3.26788 5.62023 3.25295 5.59823 3.23703C5.58823 3.23007 5.57723 3.22211 5.56723 3.21514L5.52423 3.39126L5.38523 3.29574ZM16.6382 14.0808C16.6092 14.0808 16.3182 14.0918 16.2122 14.4938C16.5432 14.2997 16.7932 14.2928 16.8412 14.2928C16.8452 14.2928 16.8522 14.2928 16.9532 14.3146C17.3302 14.0649 17.3962 14.0231 17.4152 14.0171C17.4172 14.0161 17.4202 14.0151 17.4252 14.0132C17.7212 13.9027 17.9522 13.9146 18.0782 14.046C18.2542 14.1306 18.4242 14.1236 18.5852 14.0271L18.5892 14.0251C18.9772 13.8569 19.3162 13.8748 19.6262 14.0798L19.9032 14.245C19.9202 14.234 19.9352 14.2241 19.9512 14.2132C19.9722 14.1982 19.9932 14.1853 20.0142 14.1704L20.0222 14.1674C20.0252 14.1664 20.3112 14.0898 20.5542 14.2997C20.4332 13.9156 20.1412 13.8987 20.1382 13.8977H20.1292L20.1212 13.8908C20.1072 13.8778 20.0932 13.8659 20.0792 13.8539C20.0662 13.842 20.0532 13.8301 20.0402 13.8181C19.9552 13.7853 19.8692 13.7525 19.7842 13.7196C19.6972 13.6868 19.6112 13.652 19.5242 13.6191L19.5132 13.6141L19.5082 13.6032C19.4902 13.5594 19.4652 13.5166 19.4402 13.4748C19.3612 13.3405 19.2802 13.2012 19.4302 13.0191C19.4532 12.9067 19.4762 12.7992 19.4992 12.6938C19.6732 11.8788 19.8092 11.237 19.4812 10.3873L19.4562 10.3236L19.5192 10.3505C19.6402 10.4022 19.7512 10.4898 19.8572 10.5753C20.0652 10.7415 20.2632 10.8987 20.5302 10.8092C20.4832 10.4609 19.2602 9.8042 18.2722 9.27385C18.1792 9.2231 18.0872 9.17335 17.9962 9.12559L17.9062 9.07683L18.0092 9.07086C19.4712 8.99624 20.6662 8.23106 21.0902 7.51365C21.3752 7.03007 21.3892 6.52161 21.1322 6.00221L21.1272 5.99226L21.1312 5.98131C21.1962 5.77733 21.2632 5.57335 21.3282 5.37037C21.3932 5.16639 21.4602 4.96241 21.5252 4.75843L21.5482 4.69076L21.5792 4.75445C21.7342 5.06589 22.0502 5.34848 22.3962 5.49275C22.1352 4.89972 22.0082 3.40718 22.1342 2.37733C21.4122 3.25295 20.6102 4.04002 19.8462 4.76241C20.1892 4.83206 20.5022 4.79126 20.8322 4.74848C20.8812 4.74251 20.9292 4.73554 20.9782 4.72957L21.0312 4.7236L21.0082 4.77136C20.9502 4.88877 20.8922 5.00718 20.8362 5.12559C20.7792 5.24201 20.7232 5.35843 20.6662 5.47484L20.6522 5.5027L20.6252 5.48778C20.0142 5.13156 19.2782 5.09375 18.7502 5.39126C18.4302 5.57136 18.2452 5.85395 18.2422 6.16639C18.2552 6.49773 18.4072 6.76042 18.6832 6.92559C19.0902 7.16738 19.7332 7.17335 20.2142 6.93952L20.2632 6.91564L20.2562 6.97037C20.2302 7.13156 20.1442 7.26589 20.0012 7.37037C19.4072 7.80121 18.0142 7.5843 17.9552 7.57534L17.9502 7.57435C17.2872 7.34649 16.6462 7.35445 15.9672 7.3644C15.8782 7.36539 15.7882 7.36639 15.6962 7.36738H15.6562L15.6692 7.32858C15.7512 7.07783 16.0132 6.83106 16.3732 6.67086C16.7142 6.51863 17.0802 6.47086 17.3922 6.53454C17.0972 6.17037 17.0052 5.75445 17.1242 5.32559C17.3112 4.65295 18.0042 4.01813 18.8622 3.72758C18.5042 3.59524 18.3042 3.40917 18.2662 3.17634C18.1832 2.64499 18.9572 1.96937 19.6352 1.46091C18.9092 1.76241 16.6642 2.68579 16.4092 2.68579H16.4072C16.1342 2.66589 15.9442 2.55644 15.8432 2.36042C15.7122 2.10967 15.7172 1.59823 16.0202 1.043C14.1922 2.05395 12.7762 3.0032 11.4402 4.11066C10.8822 4.59524 10.8962 4.99922 10.9102 5.42509C10.9142 5.53256 10.9182 5.644 10.9122 5.75644C10.9372 6.15146 10.8202 6.49773 10.5912 6.7047L10.5852 6.71067L10.5772 6.71266C10.3152 6.76539 10.0522 6.81813 9.78823 6.87086C9.52423 6.9246 9.26023 6.97833 8.99523 7.03106L8.97023 7.03604L8.80823 6.56937L8.81023 6.56141C8.83323 6.45196 8.88723 6.37335 8.97023 6.32758C9.07923 6.26688 9.23623 6.26987 9.43423 6.33554C9.44123 6.11465 9.27023 6.00718 8.97923 5.89972L8.97123 5.89574C8.96223 5.88778 8.95223 5.88081 8.94323 5.87385C8.85423 5.80818 8.75323 5.73355 8.76723 5.49773C8.75823 5.38131 8.78723 5.30171 8.85523 5.25992C8.98623 5.18032 9.24723 5.25594 9.63223 5.48579C9.61623 5.34748 9.52623 4.97236 9.20923 4.88678C9.08923 4.844 8.99523 4.75644 8.95023 4.64698C8.90923 4.54947 8.91123 4.44201 8.95523 4.35246C9.08923 4.08678 9.30623 4.19226 9.49823 4.2838C9.57823 4.32261 9.66023 4.36241 9.73423 4.37534C9.71823 4.15345 9.64323 4.00519 9.46723 3.83902C9.43323 3.81912 9.38423 3.80022 9.33223 3.78032C9.20623 3.73256 9.07623 3.68181 9.07023 3.58828C9.06923 3.54151 9.08723 3.49972 9.12323 3.46589C9.21223 3.38529 9.40623 3.35246 9.65923 3.37634C9.58123 3.21415 9.38323 3.08579 9.05723 2.98629L9.04623 2.98231L8.84723 2.63803C8.83923 2.62211 8.83123 2.60818 8.82423 2.59624C8.74223 2.45096 8.73123 2.41017 8.92823 2.11365L8.93123 2.10868L8.93623 2.10569C9.03223 2.044 9.14423 1.96937 9.25323 1.89574C9.33823 1.84002 9.42523 1.78131 9.50423 1.72957L9.34423 1.71066L9.34723 1.68181C9.35723 1.60718 9.36323 1.54947 9.36923 1.49176C9.38123 1.38529 9.39223 1.28479 9.41923 1.09375C9.29223 1.2231 9.15123 1.25793 9.01323 1.29275C8.93323 1.31265 8.85723 1.33156 8.78423 1.36838L8.77623 1.37136C8.76923 1.37236 8.12923 1.48778 7.92723 1.75246L7.91823 1.7644H7.90423C7.89523 1.7644 6.64423 1.70071 6.25623 1.68181C5.93623 1.72659 5.63423 1.81315 5.57723 2.14251L5.57323 2.1644L5.55123 2.16639C5.42823 2.17932 5.30223 2.18728 5.18023 2.19624C4.50623 2.244 3.86823 2.28977 3.36623 2.87484C3.48023 2.86788 3.59323 2.85494 3.70123 2.84201C3.96423 2.81216 4.23623 2.78131 4.55023 2.82111C4.69123 2.8241 4.97823 2.91862 5.05223 3.25693C5.07323 3.26191 5.12123 3.2639 5.16123 3.2639H5.17123L5.29923 3.3634C5.30423 3.34947 5.30923 3.33554 5.31423 3.32062C5.32423 3.29474 5.33423 3.26788 5.34423 3.24101L5.35723 3.20619L5.48823 3.29574L5.53023 3.11962L5.56523 3.1435C5.58723 3.15942 5.60923 3.17435 5.63123 3.18927C5.63923 3.19524 5.64723 3.20121 5.65623 3.20619C5.65623 3.19027 5.65723 3.17335 5.65823 3.15644C5.65923 3.12062 5.66123 3.08479 5.66223 3.04897L5.66423 2.99524L5.83923 3.11962V2.87086H5.86723C5.89523 2.86987 6.53523 2.87484 6.74223 3.29276L6.75223 3.3047L6.74423 3.32261C6.73723 3.33753 6.73323 3.34549 6.40623 3.39325C6.22823 3.42012 5.94123 3.45793 5.58023 3.49176C4.96323 3.54947 4.03423 3.60221 3.11423 3.5236L3.01023 3.51464L3.10323 3.46887C3.19023 3.42708 3.27623 3.3843 3.36323 3.34151C3.42223 3.31266 3.48123 3.2838 3.54023 3.25494C2.94923 3.13455 2.38823 3.01315 1.85823 2.62509C2.10123 3.34151 3.01023 4.1435 3.30223 4.25594C3.26823 4.19823 3.21323 4.09674 3.11623 3.91862L3.09223 3.87385L3.14223 3.87584L4.12123 3.91862C4.43723 3.93156 4.75423 3.94549 5.07023 3.95942L5.09023 3.96042L5.09623 3.97932C5.12023 4.05196 5.13323 4.12758 5.14523 4.20121C5.16923 4.34848 5.19223 4.48678 5.30123 4.60619L5.31223 4.61713L5.30723 4.63305C5.30623 4.63604 5.21823 4.93753 5.39923 5.07683C5.44323 4.97932 5.57923 4.6241 5.66423 4.39723L5.69023 4.32957L5.71823 4.39624C5.71923 4.39823 5.77923 4.53753 5.84823 4.65793C6.00823 4.08081 6.65623 3.97733 6.66323 3.97634L6.68523 3.97335L6.69423 3.99325C6.83923 4.32559 6.83923 4.33256 6.83923 4.34052V4.36539L6.81423 4.36838C6.71623 4.3833 6.59223 4.5037 6.52023 4.65395C6.45023 4.79922 6.44323 4.93654 6.49823 5.02808L6.52423 5.07086L6.47423 5.07186C6.43323 5.07285 6.36823 5.12758 6.30923 5.21116C6.21223 5.34947 6.13723 5.55743 6.18123 5.68678L6.18723 5.7037L6.17523 5.71664C6.15623 5.73455 6.13423 5.75345 6.11023 5.77335C5.97723 5.88778 5.77523 6.05992 5.83823 6.47086L5.84223 6.49773L5.81523 6.5037C5.59623 6.55047 5.46523 6.97335 5.53423 7.40917L5.53723 7.4241L5.52623 7.43405C5.36923 7.57932 5.28823 7.78828 5.29923 8.0231C5.30923 8.25892 5.41523 8.48081 5.57423 8.6042L5.60223 8.62509L5.57523 8.64798C5.43423 8.77435 5.36723 8.85693 5.36723 8.98629V9.02808L5.32723 9.01415C5.21923 8.97335 5.11123 9.00022 5.05823 9.07882L5.03823 9.10868L5.01323 9.0838C4.91823 8.98529 4.67723 8.77534 4.50823 8.93256L4.47123 8.96738L4.46023 8.91763C4.42023 8.73554 4.17823 8.54151 3.92623 8.5644L3.89223 8.56738L3.89423 8.53256C3.91023 8.33952 3.80523 8.10669 3.53723 8.02708L3.51823 8.02111L3.51623 8.00022C3.51623 7.99126 3.45523 7.06489 3.17923 6.77037L3.17323 6.7644L3.17123 6.75544C3.13823 6.55743 3.21123 6.43405 3.43823 6.29873C3.68023 6.17037 3.70923 6.07186 3.69323 5.74748V5.74151L3.69523 5.73554C3.78423 5.50669 3.84123 5.3037 3.62523 5.15445C3.62323 5.39922 3.54623 5.53256 3.42423 5.66589L3.41323 5.67683L3.39823 5.67484C3.32423 5.6639 3.28023 5.71962 3.23023 5.7833C3.20323 5.81813 3.17623 5.85295 3.14223 5.87882L3.11823 5.89673L3.10123 5.87285C3.04023 5.79126 3.07723 5.69375 3.11823 5.59027C3.17823 5.43803 3.24523 5.2639 3.07623 5.04499C3.07323 5.04002 3.06923 5.03305 3.06023 5.01614C2.92123 4.74848 2.73923 4.59723 2.51923 4.56738C2.67923 4.69574 2.76623 4.88479 2.76623 5.11067V5.11564L2.76423 5.12062C2.62823 5.5027 2.53623 5.83305 2.68923 6.3246L2.63823 6.34947C2.54723 6.21415 2.47723 6.03106 2.40823 5.85395C2.33223 5.65395 2.25923 5.46489 2.17923 5.41315C2.13223 5.40121 2.09323 5.3644 2.04923 5.32062C1.95723 5.23106 1.83523 5.11067 1.54323 5.13256C1.71523 5.22211 1.77923 5.3843 1.83123 5.51863L1.84023 5.54251L1.81723 5.55445C1.78323 5.57236 1.76223 5.59823 1.75423 5.63305C1.73823 5.70569 1.78023 5.81813 1.86023 5.92062L1.86723 5.92957L1.86623 5.94052C1.84823 6.21713 1.99023 6.40818 2.31123 6.54052L2.33123 6.54947L2.18223 7.91365L2.15323 7.90967C2.10423 7.9047 2.00823 8.06688 1.95023 8.1644C1.88323 8.27783 1.84523 8.33952 1.80623 8.35246C1.71723 8.40818 1.62923 8.50271 1.63723 8.55445C1.64223 8.5843 1.68423 8.59922 1.71823 8.60818L1.74723 8.61415L1.73923 8.643C1.67623 8.86987 1.61323 9.01813 1.32323 9.0828C1.44723 9.12261 1.68423 9.14947 1.89523 8.89276L1.90423 8.8828H1.91723C2.10523 8.87783 2.13723 8.74052 2.17323 8.58131C2.19623 8.4828 2.21923 8.38131 2.28323 8.30967C2.28623 8.3047 2.29023 8.30071 2.29423 8.29673C2.36323 8.22211 2.43523 8.08778 2.50923 7.89673L2.54523 7.80022L2.56423 7.90171C2.62023 8.20221 2.94523 9.16937 3.67023 9.64101L3.67623 9.64599C4.30323 10.3137 4.82423 10.9415 4.84423 11.8321C5.06723 11.5982 5.20023 11.2549 5.30223 10.9455L5.30623 10.9316L5.32023 10.9266C5.65023 10.8132 6.13623 10.7574 6.61923 10.7793L6.66223 10.7813L6.62923 10.852C6.55923 10.9962 6.49923 11.1206 6.58623 11.2022L6.62123 11.235L6.57523 11.25C6.43423 11.2987 6.33923 11.3753 6.30223 11.4719C6.26823 11.5584 6.28123 11.6589 6.33923 11.7614L6.35123 11.7843L6.32923 11.7992C6.01323 12.0141 5.99423 12.1485 5.99023 12.5047V12.5146L5.98323 12.5216C5.40023 13.2659 5.03323 13.2947 4.37823 13.0758L4.37223 13.0729C4.24223 12.9972 3.89823 12.7962 3.76323 12.8808L3.74623 12.8908L3.73123 12.8798C3.56823 12.7724 3.38323 12.7375 3.25923 12.7913C3.18323 12.8241 3.13123 12.8878 3.10223 12.9783C3.28323 12.8589 3.40323 12.9156 3.54123 13.053L3.55423 13.0669L3.54723 13.0838C3.52923 13.1306 3.51523 13.1704 3.52823 13.2002C3.53623 13.2191 3.55623 13.235 3.58923 13.247L3.62923 13.2629L3.43923 13.4729L3.42323 13.4699C3.04923 13.4122 2.82223 13.4997 2.73023 13.7336C2.90423 13.647 3.18623 13.646 3.40523 13.7415L3.56423 13.7982L3.58623 14.046L3.54923 14.04C3.53623 14.038 3.23523 14.0002 3.12123 14.4768C3.44923 14.1704 3.68023 14.2559 3.69023 14.2609L3.69923 14.2639L3.70323 14.2709C3.74323 14.3286 3.82223 14.3664 3.92523 14.3793C4.10323 14.3992 4.40423 14.3415 4.66223 14.1067L4.66723 14.1037C4.94123 13.9505 5.12123 13.9933 5.26523 14.0261C5.39723 14.0579 5.50123 14.0828 5.64823 13.9644C5.94823 13.7405 6.29223 13.9127 6.49823 14.1286C6.74323 14.2201 6.99923 14.2937 7.19623 14.1316L7.19923 14.1296C7.20123 14.1276 7.44323 13.9793 7.69523 14.1853C7.66723 13.9644 7.49523 13.8271 7.23123 13.8221H7.21923L7.13323 13.7355C7.04723 13.7186 6.95523 13.7087 6.86723 13.6997C6.68023 13.6798 6.48723 13.6589 6.32523 13.5664L6.30623 13.5564L6.31123 13.5345C6.44323 13.036 6.62723 12.6868 6.90823 12.4002C7.03923 12.2589 7.16223 12.1415 7.28023 12.0291C7.51123 11.8082 7.75023 11.5793 8.07523 11.1614L8.13123 11.0868L8.12623 11.1793C8.11323 11.4271 8.24723 11.6997 8.37723 11.9634C8.42123 12.0539 8.46723 12.1485 8.50623 12.239C8.58123 12.1107 8.77623 11.7515 8.80923 11.453L8.81223 11.4281H8.83323C8.87923 11.4082 9.19923 11.237 9.33923 11.0918L9.35623 11.0758L9.37523 11.0868C9.71323 11.2947 10.2992 10.838 10.5352 10.6321L10.5492 10.6211L10.5652 10.6261C10.7622 10.7017 10.9122 10.7007 11.1612 10.6251L11.2252 10.6072L11.1962 10.6659C11.1262 10.8072 11.1202 10.9485 11.1782 11.0828C11.2642 11.2848 11.4862 11.453 11.7842 11.5465L11.8022 11.5525L11.8042 11.5714C11.8472 11.9017 12.1852 11.9704 12.7182 11.9724H12.7442L12.7472 11.9982C12.7662 12.1793 13.0622 12.2072 13.0652 12.2072L13.1732 12.2171L13.0752 12.2619C12.8852 12.3505 12.7822 12.437 12.7892 12.637L12.7902 12.6669H12.7612C12.5612 12.6689 12.4182 12.7146 12.3672 12.9375L12.3622 12.9594H12.3392C12.0782 12.9644 11.7782 12.9813 11.5292 13.1236L11.5202 13.1286L11.5102 13.1276C11.3522 13.1027 10.9572 13.0181 10.7022 12.7584C10.6662 12.7296 10.6382 12.6937 10.6112 12.6579C10.5592 12.5923 10.5112 12.5296 10.3962 12.4987L10.3872 12.4957L10.3812 12.4888C10.3302 12.4301 10.2722 12.4012 10.2212 12.4112C10.1792 12.4191 10.1452 12.453 10.1282 12.5047L10.1152 12.5435L10.0822 12.5186C10.0212 12.4719 9.85123 12.434 9.70423 12.4898C9.60023 12.5306 9.52823 12.6092 9.49123 12.7216C9.62123 12.637 9.72723 12.6042 9.82023 12.6191C9.89223 12.6311 9.95523 12.6738 10.0072 12.7465L10.0172 12.7624L10.0092 12.7783C9.99523 12.8022 9.99923 12.8191 10.0042 12.8281C10.0402 12.9107 10.2862 12.9714 10.3832 12.9942C10.5512 13.0062 10.8292 13.1525 10.9192 13.3992L10.9292 13.4271L10.9002 13.437C10.6972 13.4977 10.3822 13.4788 10.1752 13.3216C10.0122 13.1863 9.78723 13.1982 9.66423 13.2888L9.64823 13.3017L9.63123 13.2908C9.56223 13.247 9.44323 13.2579 9.32723 13.3176C9.21423 13.3763 9.09123 13.4898 9.05423 13.645C9.19423 13.5296 9.36723 13.439 9.54423 13.5515L9.60223 13.5883L9.53523 13.6042C9.52023 13.6082 9.51123 13.6102 9.50523 13.6122C9.50723 13.6181 9.51023 13.6251 9.51223 13.6331L9.98223 13.9037L9.91423 13.9216C9.72123 13.9734 9.56423 14.04 9.61123 14.3365C9.69923 14.2211 9.88223 14.0928 10.1462 14.1743C10.1612 14.1763 10.1692 14.1873 10.1772 14.1972C10.1882 14.2122 10.2042 14.234 10.2272 14.237C10.2422 14.239 10.2622 14.2321 10.2832 14.2161C10.4622 14.0161 10.8622 13.9375 11.1672 13.9067C11.2112 13.9017 11.2562 13.8957 11.3012 13.8888C11.5132 13.8569 11.7322 13.8241 11.9282 13.9435C12.1272 13.845 12.3612 13.7714 12.6052 13.9425C12.6992 13.9734 12.7842 14.0291 12.8662 14.0828C13.0302 14.1903 13.1852 14.2928 13.4022 14.2032C13.5952 14.0719 13.8012 14.0967 13.9882 14.2709C13.9552 14.047 13.7602 13.9594 13.4612 13.8977L13.4522 13.8937L13.3382 13.8261C13.3022 13.8052 13.2652 13.7833 13.2302 13.7624C13.1632 13.7525 13.0952 13.7505 13.0282 13.7475C12.8872 13.7415 12.7412 13.7365 12.5962 13.6679L12.5222 13.634L12.6002 13.6141C13.6472 13.3455 14.4312 12.7714 14.9992 11.8609L15.0122 11.841L15.2822 11.9365C15.3722 11.9684 15.4612 11.9992 15.5512 12.0311C15.6202 12.036 15.6572 12.052 15.7132 12.0758C15.7552 12.0937 15.8102 12.1176 15.9032 12.1475C15.9002 11.6947 15.6332 11.45 15.1052 11.4191L15.0972 11.4171L14.2072 11.0798L14.2022 11.0758C14.0142 10.8788 13.9122 10.44 14.1692 10.1734C14.2422 10.1087 14.2962 10.0669 14.3402 10.0331C14.4392 9.95445 14.4902 9.91564 14.5952 9.7435L14.6022 9.73057L14.6172 9.72957C14.7252 9.71863 14.8262 9.77136 14.9242 9.82211C15.0062 9.86489 15.0842 9.9047 15.1582 9.9047H15.1792L15.1852 9.9236C15.2632 10.1544 15.7252 10.3604 16.0102 10.2908L16.0242 10.2878L16.0362 10.2967C16.2112 10.452 16.5612 10.5475 16.9502 10.4161L16.9662 10.4112L16.9782 10.4221C17.1462 10.5694 17.4272 10.7087 17.8052 10.5425L17.8232 10.5355L17.8382 10.5485C17.9242 10.634 18.1042 10.7017 18.3162 10.6589L18.3222 10.6579C18.3422 10.6579 18.3502 10.6709 18.3712 10.7057C18.4122 10.7704 18.5092 10.9246 18.6852 10.9863L18.7292 11.0012L18.6962 11.035C18.6032 11.1236 18.6632 11.5475 18.7672 11.7007L18.7762 11.7136L18.7692 11.7286C18.6912 11.9087 18.6802 12.0778 18.7362 12.235L18.7442 12.2559L18.7242 12.2689C18.4852 12.4211 18.4502 12.5246 18.5522 12.7694L18.5562 12.7823L18.5492 12.7952C18.1822 13.3813 17.7502 13.3485 17.4522 13.2171L17.4482 13.2151C17.3832 13.1743 17.3172 13.1326 17.2522 13.0918C17.1882 13.052 17.1252 13.0112 17.0612 12.9714L17.0562 12.9684C16.9862 12.8997 16.9162 12.8311 16.8462 12.7634C16.7792 12.6967 16.7122 12.6321 16.6442 12.5674C16.6132 12.5365 16.5562 12.5146 16.5112 12.5296C16.4782 12.5395 16.4572 12.5674 16.4482 12.6102L16.4422 12.639L16.4142 12.6321C16.4112 12.6321 16.1592 12.5773 16.0022 12.6918C15.9472 12.7326 15.9092 12.7883 15.8892 12.8619C16.0532 12.7564 16.2372 12.8141 16.3152 12.847C16.4072 12.8858 16.4072 12.9027 16.4072 12.9137C16.4072 12.9266 16.4012 12.9345 16.3932 12.9425C16.3742 12.9654 16.3562 12.9913 16.3802 13.0321C16.4392 13.045 16.6032 13.1037 17.0922 13.3117C17.2712 13.3793 17.3132 13.4022 17.3912 13.443L17.3672 13.4957C17.2882 13.4599 17.1902 13.4171 17.0682 13.3644C16.7972 13.2629 16.6642 13.235 16.6302 13.244L16.6252 13.245L16.6022 13.243C16.4282 13.2271 16.2462 13.2102 16.1672 13.3316L16.1622 13.3395L16.1542 13.3425C16.1292 13.3535 16.1012 13.3634 16.0742 13.3743C15.8992 13.442 15.7032 13.5176 15.6712 13.7505C15.8152 13.5893 16.0052 13.6062 16.2042 13.6221L16.2402 13.6251L16.2282 13.6599C16.2252 13.6689 16.2232 13.6768 16.2212 13.6858C16.3442 13.7365 16.3792 13.7166 16.4342 13.6848C16.4772 13.6589 16.5322 13.6281 16.6352 13.6181C16.8302 13.6012 17.1082 13.6639 17.2882 13.7246L17.3752 13.7535L17.2872 13.7793C17.2212 13.7982 17.1472 13.8092 17.0762 13.8181C16.9362 13.838 16.8042 13.8559 16.7292 13.9365C16.7192 13.9554 16.7002 13.9664 16.6852 13.9753C16.6612 13.9883 16.6512 13.9942 16.6672 14.044L16.6792 14.0818L16.6382 14.0808ZM3.03023 14.653L3.04523 14.5594C3.12223 14.0967 3.37023 13.9803 3.51923 13.9803H3.52223L3.50923 13.84L3.38423 13.7962C3.12023 13.6808 2.82323 13.7206 2.69723 13.8241L2.63023 13.8798L2.65123 13.7952C2.72923 13.4738 2.97923 13.3485 3.41623 13.4102L3.53223 13.2828C3.50423 13.2679 3.48523 13.247 3.47523 13.2231C3.45423 13.1763 3.47023 13.1236 3.48623 13.0808C3.35423 12.9525 3.25623 12.9216 3.07523 13.0699L3.01623 13.1196L3.02823 13.044C3.05823 12.8539 3.15723 12.7734 3.23523 12.7385C3.37523 12.6778 3.57123 12.7097 3.74823 12.8221C3.89723 12.7515 4.15923 12.8818 4.39923 13.0221C5.00023 13.2221 5.34823 13.235 5.93123 12.4937C5.93723 12.1246 5.96823 11.9803 6.27623 11.7664C6.22023 11.6559 6.21023 11.5475 6.24723 11.452C6.28723 11.3485 6.38023 11.2659 6.51723 11.2102C6.44523 11.1057 6.50823 10.9684 6.57323 10.835C6.11723 10.8191 5.66623 10.8719 5.35323 10.9773C5.24223 11.3117 5.09323 11.6838 4.83523 11.9226L4.78623 11.9674V11.9017C4.79223 10.9952 4.26923 10.3624 3.63623 9.68778C2.95223 9.24101 2.62423 8.39524 2.52823 8.00519C2.46323 8.15743 2.39923 8.26887 2.33723 8.33554V8.33753L2.32923 8.34549C2.27323 8.40619 2.25123 8.50171 2.23023 8.59425C2.19423 8.75047 2.15323 8.92758 1.93223 8.93952C1.67123 9.24698 1.34523 9.17634 1.20723 9.09574L1.13623 9.05295L1.21823 9.043C1.55123 8.99624 1.61423 8.87086 1.67523 8.65494C1.61923 8.63604 1.58723 8.60619 1.58023 8.5634C1.56323 8.4639 1.70323 8.34848 1.78023 8.30071L1.78423 8.29872L1.78923 8.29773C1.80823 8.28877 1.86123 8.20022 1.90023 8.13554C1.99223 7.98032 2.06123 7.87285 2.13023 7.85494L2.26823 6.58529C1.94423 6.44599 1.79323 6.23703 1.80723 5.94748C1.76723 5.89474 1.66923 5.74848 1.69723 5.62111C1.70723 5.57733 1.73123 5.54251 1.76823 5.51663C1.70923 5.36738 1.63723 5.20519 1.41723 5.14649L1.42023 5.08977C1.82523 5.02012 1.98423 5.17634 2.09023 5.27982C2.13123 5.31962 2.16323 5.35146 2.19723 5.35743L2.20123 5.35843L2.20623 5.36141C2.30423 5.42012 2.37723 5.61116 2.46323 5.83305C2.49923 5.92858 2.53723 6.02609 2.57823 6.11664C2.50723 5.72857 2.59123 5.43504 2.70823 5.10569C2.70723 4.86589 2.59923 4.67186 2.40323 4.55743L2.31523 4.50668L2.41723 4.5037C2.77923 4.49673 2.99423 4.7634 3.11223 4.99027C3.11723 4.99823 3.11923 5.00519 3.12123 5.00818C3.31023 5.25395 3.23123 5.46091 3.17223 5.61116C3.14123 5.69076 3.11523 5.75743 3.13323 5.81017C3.15023 5.79226 3.16723 5.77037 3.18423 5.74848C3.23523 5.6828 3.29123 5.60917 3.39123 5.61614C3.48623 5.50967 3.57523 5.38032 3.56723 5.1037L3.56523 5.05196L3.61023 5.07783C3.91423 5.24997 3.84723 5.5037 3.75123 5.75146C3.76823 6.10569 3.71423 6.21813 3.46723 6.34947C3.23923 6.48479 3.20523 6.59126 3.22723 6.73853C3.49323 7.03206 3.56323 7.83703 3.57323 7.97733C3.84423 8.06788 3.95723 8.29972 3.95423 8.5047C4.20623 8.49872 4.43723 8.67584 4.50423 8.86191C4.64023 8.77037 4.83323 8.82708 5.03223 9.01912C5.09623 8.94748 5.20223 8.92062 5.31023 8.94748C5.32423 8.81514 5.40523 8.7246 5.51223 8.62808C5.35423 8.49076 5.25123 8.2639 5.24123 8.02609C5.23023 7.78032 5.31323 7.55942 5.47523 7.40221C5.40723 6.95246 5.54323 6.53156 5.77723 6.45494C5.72123 6.02907 5.93223 5.84997 6.07323 5.73057C6.09023 5.71465 6.10723 5.70072 6.12123 5.68778C6.08023 5.53355 6.16323 5.31763 6.26223 5.17733C6.31923 5.09773 6.37823 5.044 6.43123 5.0231C6.38523 4.91663 6.39723 4.77634 6.46823 4.63007C6.54223 4.47285 6.66023 4.35345 6.77123 4.31962C6.74723 4.2629 6.69123 4.13355 6.65023 4.03803C6.53423 4.06191 5.99323 4.20221 5.88823 4.73853L5.87423 4.80917L5.83523 4.74947C5.78023 4.6639 5.72623 4.55246 5.69423 4.4838C5.44423 5.14649 5.43523 5.14649 5.41123 5.14748L5.39223 5.14848L5.38723 5.13853C5.16923 5.00022 5.22823 4.70469 5.24723 4.63206C5.13623 4.50469 5.11123 4.35544 5.08823 4.21116C5.07723 4.14549 5.06623 4.07882 5.04723 4.01614C4.73823 4.0032 4.42823 3.98927 4.11823 3.97634C3.80923 3.96241 3.50023 3.94947 3.19123 3.93554C3.26023 4.06091 3.34923 4.2231 3.37623 4.26887H3.38923V4.32062L3.36723 4.32658C3.36323 4.32758 3.35923 4.32858 3.35523 4.32658C3.08923 4.31763 1.98723 3.34649 1.77623 2.55544L1.75423 2.47186L1.82223 2.52559C2.37923 2.96042 2.97623 3.08181 3.60823 3.20917L3.71823 3.23206L3.64223 3.26887C3.55723 3.31067 3.47323 3.35146 3.38823 3.39325C3.33323 3.42012 3.27923 3.44798 3.22323 3.47385C3.96323 3.52957 4.71223 3.50469 5.32423 3.45594L5.15123 3.32261C5.01623 3.32061 5.00723 3.30171 5.00023 3.28877L4.99823 3.28181C4.92123 2.89176 4.56123 2.87882 4.54623 2.87882C4.23523 2.83902 3.96723 2.86987 3.70823 2.89972C3.57723 2.91465 3.44223 2.93057 3.30323 2.93654L3.23923 2.93952L3.27923 2.89076C3.80323 2.23604 4.50123 2.18629 5.17623 2.13853C5.29023 2.13057 5.40823 2.12261 5.52423 2.11166C5.56423 1.91066 5.69023 1.70171 6.25123 1.6241H6.25423H6.25623C6.27223 1.6241 7.72823 1.69872 7.89023 1.70669C8.10823 1.44002 8.70023 1.32559 8.76223 1.31465C8.84023 1.27584 8.92123 1.25594 8.99923 1.23604C9.15823 1.19723 9.30723 1.15942 9.43823 0.982306L9.49023 1.0042C9.45423 1.25992 9.44123 1.37634 9.42723 1.49872C9.42223 1.54848 9.41623 1.59922 9.40923 1.65992L9.67023 1.69076L9.60323 1.73455C9.50823 1.79624 9.39523 1.87186 9.28623 1.9445C9.17923 2.01614 9.06723 2.08977 8.97323 2.15047C8.79323 2.4231 8.80523 2.44499 8.87423 2.56738C8.88223 2.58032 8.88923 2.59425 8.89823 2.60917L9.08523 2.93355C9.45623 3.04997 9.66223 3.19823 9.73223 3.40121L9.74723 3.44499L9.70123 3.43902C9.44923 3.40917 9.24223 3.43504 9.16223 3.50868C9.13823 3.53057 9.12723 3.55544 9.12823 3.58529C9.13223 3.64201 9.25423 3.68877 9.35323 3.72659C9.40923 3.74748 9.46223 3.76838 9.49923 3.79126L9.50423 3.79425C9.70123 3.97932 9.78323 4.15047 9.79323 4.40619L9.79523 4.43803L9.76323 4.43604C9.67023 4.43106 9.57023 4.3833 9.47323 4.33654C9.28123 4.244 9.11523 4.1634 9.00723 4.37833C8.97123 4.45196 8.97023 4.54251 9.00323 4.62509C9.04223 4.71962 9.12423 4.79524 9.22723 4.83106C9.64223 4.9445 9.70023 5.48479 9.69223 5.53952L9.68923 5.56539L9.66223 5.56639C9.65423 5.56639 9.65323 5.56539 9.62523 5.54947C9.13123 5.24897 8.95023 5.27086 8.88523 5.30967C8.83723 5.33853 8.81723 5.40121 8.82523 5.49574V5.49773V5.49972C8.81223 5.70569 8.89223 5.76539 8.97723 5.82708C8.98623 5.83405 8.99523 5.84002 9.00423 5.84698C9.26923 5.9445 9.52323 6.06688 9.49023 6.37833L9.48623 6.41514L9.45123 6.40221C9.25123 6.33057 9.09823 6.32261 8.99723 6.37833C8.93223 6.41415 8.88923 6.47683 8.86823 6.56639L9.00923 6.96937C9.26423 6.91763 9.52123 6.86688 9.77723 6.81514C10.0372 6.76241 10.2982 6.70967 10.5582 6.65693C10.7692 6.46091 10.8772 6.13355 10.8542 5.75743C10.8602 5.644 10.8562 5.53355 10.8522 5.42708C10.8382 4.98629 10.8242 4.57037 11.4022 4.06688C12.7632 2.93952 14.2042 1.97733 16.0762 0.946486L16.0812 0.937531L16.0932 0.936536L16.1782 0.890764L16.1222 0.982306C15.8742 1.39524 15.7162 1.99226 15.8942 2.33355C15.9862 2.51066 16.1602 2.61017 16.4102 2.62808C16.6372 2.62808 18.7482 1.77037 19.8342 1.31564L19.8622 1.36539C18.7622 2.1644 18.2592 2.75345 18.3242 3.16639C18.3602 3.39425 18.5752 3.57435 18.9622 3.70072L19.0482 3.72957L18.9622 3.75644C18.0842 4.02808 17.3682 4.66489 17.1792 5.34052C17.0582 5.77634 17.1672 6.20022 17.4942 6.5644L17.5602 6.63902L17.4642 6.61116C16.7882 6.42012 15.9282 6.843 15.7382 7.30868C15.8142 7.30768 15.8902 7.30668 15.9672 7.30569C16.6492 7.29673 17.2952 7.28877 17.9672 7.51863C18.0342 7.52858 19.4032 7.73156 19.9672 7.3236C20.0812 7.24101 20.1542 7.13853 20.1862 7.01614C19.6962 7.23206 19.0602 7.21713 18.6542 6.97435C18.3592 6.80022 18.1972 6.51962 18.1832 6.16639C18.1872 5.83206 18.3842 5.53156 18.7212 5.34151C19.2602 5.03803 20.0052 5.07086 20.6282 5.42211C20.6792 5.31564 20.7312 5.20818 20.7832 5.10071C20.8332 4.99823 20.8822 4.89574 20.9322 4.79425C20.9012 4.79823 20.8702 4.80121 20.8402 4.80519C20.4872 4.85196 20.1552 4.89474 19.7792 4.80718L19.7272 4.79524L19.7662 4.75843C20.5642 4.00519 21.4052 3.18131 22.1532 2.26191L22.2202 2.18131L22.2052 2.28479C22.0532 3.34549 22.1912 4.9843 22.4802 5.53256L22.5142 5.59823L22.4442 5.57236C22.0822 5.443 21.7412 5.16042 21.5592 4.84101C21.5012 5.0231 21.4422 5.20519 21.3842 5.38728C21.3182 5.58728 21.2542 5.78828 21.1892 5.98728C21.4462 6.51465 21.4292 7.05196 21.1392 7.54251C20.8842 7.97634 20.4302 8.36042 19.8282 8.65395C19.2962 8.91465 18.6902 9.07882 18.1132 9.12261C18.1752 9.15544 18.2372 9.18927 18.3002 9.2231C19.3732 9.79922 20.5902 10.453 20.5902 10.8291V10.849L20.5702 10.8559C20.2632 10.9714 20.0382 10.7923 19.8212 10.6201C19.7372 10.5535 19.6502 10.4848 19.5602 10.435C19.8622 11.2679 19.7202 11.9355 19.5552 12.7047C19.5332 12.8132 19.5092 12.9236 19.4862 13.037L19.4842 13.044L19.4802 13.05C19.3492 13.2042 19.4152 13.3166 19.4902 13.446C19.5132 13.4848 19.5382 13.5256 19.5562 13.5694L19.8052 13.6659C19.8922 13.6997 19.9792 13.7326 20.0662 13.7674L20.0712 13.7694L20.0752 13.7724C20.0892 13.7843 20.1032 13.7982 20.1182 13.8112C20.1292 13.8201 20.1402 13.8301 20.1522 13.841C20.2902 13.853 20.5542 13.9803 20.6372 14.3913L20.5852 14.4151C20.3682 14.1525 20.0822 14.2122 20.0422 14.2221C20.0222 14.234 20.0042 14.247 19.9842 14.2609C19.9632 14.2748 19.9412 14.2888 19.9202 14.3037L19.9052 14.3127L19.5952 14.1286C19.2992 13.9326 18.9872 13.9166 18.6132 14.0778C18.4352 14.1843 18.2402 14.1893 18.0482 14.0957L18.0432 14.0928L18.0392 14.0888C17.9312 13.9734 17.7212 13.9644 17.4452 14.0669C17.4382 14.0689 17.4342 14.0709 17.4312 14.0719C17.4012 14.0888 17.1442 14.2579 16.9752 14.3704L16.9652 14.3773L16.9522 14.3743C16.9032 14.3624 16.8472 14.3515 16.8392 14.3505C16.8102 14.3505 16.5382 14.3544 16.1832 14.5793L16.1272 14.6151L16.1392 14.5495C16.2152 14.1604 16.4582 14.04 16.6032 14.0251C16.5952 13.9664 16.6252 13.9425 16.6562 13.9246C16.6692 13.9176 16.6772 13.9127 16.6802 13.9057L16.6842 13.8997C16.7732 13.8022 16.9242 13.7803 17.0682 13.7614C17.1002 13.7564 17.1332 13.7525 17.1652 13.7465C16.9992 13.7007 16.7922 13.6619 16.6402 13.6758C16.5502 13.6848 16.5042 13.7107 16.4632 13.7345C16.3882 13.7773 16.3352 13.8012 16.1732 13.7276L16.1492 13.7166L16.1572 13.6918C16.1592 13.6878 16.1612 13.6828 16.1622 13.6768C15.9312 13.6589 15.7792 13.6689 15.6622 13.8579L15.6122 13.9405L15.6082 13.845C15.5962 13.4957 15.8602 13.3952 16.0532 13.3206C16.0772 13.3117 16.1012 13.3027 16.1232 13.2928C16.2232 13.1505 16.4282 13.1684 16.6082 13.1863L16.6212 13.1873C16.6252 13.1863 16.6302 13.1863 16.6352 13.1853C16.4982 13.1306 16.4012 13.0957 16.3712 13.0878L16.3552 13.1007L16.3372 13.0729C16.2912 13.0042 16.3152 12.9505 16.3362 12.9216C16.2662 12.8838 16.0402 12.7853 15.8692 12.9515L15.8112 13.0072L15.8192 12.9286C15.8312 12.8032 15.8822 12.7077 15.9692 12.645C16.1162 12.5375 16.3242 12.5594 16.3992 12.5714C16.4162 12.5226 16.4492 12.4888 16.4932 12.4738C16.5542 12.4549 16.6322 12.4758 16.6842 12.5256C16.7522 12.5913 16.8192 12.6559 16.8872 12.7216C16.9562 12.7893 17.0252 12.8569 17.0952 12.9246C17.1582 12.9634 17.2212 13.0032 17.2832 13.043C17.3472 13.0838 17.4132 13.1246 17.4772 13.1654C17.8762 13.3395 18.2172 13.2082 18.4922 12.7773C18.3902 12.5226 18.4332 12.3913 18.6742 12.2321C18.6232 12.0729 18.6362 11.8997 18.7112 11.7196C18.6122 11.5594 18.5482 11.1763 18.6302 11.0271C18.4572 10.9525 18.3632 10.8012 18.3222 10.7355C18.3182 10.7296 18.3142 10.7226 18.3112 10.7176C18.0962 10.7564 17.9102 10.6908 17.8102 10.6032C17.4232 10.7654 17.1332 10.6271 16.9532 10.4768C16.5312 10.6141 16.1842 10.4977 16.0092 10.3495C15.7032 10.4151 15.2402 10.2072 15.1382 9.96141C15.0552 9.95544 14.9752 9.91365 14.8962 9.87385C14.8112 9.82907 14.7232 9.7833 14.6372 9.78629C14.5312 9.95644 14.4752 10.0002 14.3752 10.0778C14.3332 10.1117 14.2792 10.1535 14.2102 10.2141C13.9792 10.4539 14.0712 10.849 14.2402 11.0311L15.1132 11.3624C15.8302 11.4052 15.9702 11.834 15.9612 12.1873L15.9602 12.2251L15.9242 12.2132C15.8042 12.1783 15.7382 12.1505 15.6892 12.1286C15.6352 12.1057 15.6042 12.0928 15.5432 12.0888L15.5352 12.0868C15.4442 12.0549 15.3532 12.0231 15.2632 11.9913L15.0362 11.9107C14.4772 12.7982 13.7122 13.3674 12.7012 13.648C12.8082 13.6818 12.9172 13.6858 13.0302 13.6908C13.1002 13.6918 13.1732 13.6947 13.2442 13.7057L13.2502 13.7067L13.2552 13.7097C13.2922 13.7326 13.3302 13.7544 13.3672 13.7763C13.4042 13.7982 13.4402 13.8191 13.4772 13.842C13.8242 13.9146 14.0542 14.0291 14.0512 14.3465V14.4211L14.0002 14.3654C13.8172 14.1624 13.6212 14.1226 13.4322 14.253L13.4282 14.2559C13.1802 14.3584 13.0052 14.243 12.8342 14.1316C12.7502 14.0758 12.6712 14.0241 12.5832 13.9962L12.5752 13.9923C12.3492 13.8311 12.1272 13.9067 11.9402 14.0032L11.9252 14.0112L11.9102 14.0012C11.7292 13.8838 11.5262 13.9137 11.3092 13.9455C11.2642 13.9525 11.2192 13.9594 11.1732 13.9644C10.7552 14.0062 10.4542 14.1087 10.3252 14.2559L10.3212 14.2599C10.2862 14.2868 10.2522 14.2987 10.2192 14.2947C10.1722 14.2878 10.1442 14.25 10.1312 14.2321C10.1302 14.2311 10.1292 14.2301 10.1292 14.2301C9.78323 14.1206 9.62823 14.4132 9.62223 14.4261L9.58623 14.4957L9.56823 14.4191C9.48323 14.0569 9.64723 13.9435 9.83323 13.8848L9.46023 13.6699L9.45823 13.6559C9.45623 13.648 9.45323 13.64 9.45023 13.6331C9.44623 13.6191 9.43923 13.6032 9.44923 13.5853C9.45123 13.5803 9.45523 13.5763 9.45923 13.5724C9.33923 13.5276 9.20823 13.5803 9.03423 13.7385L8.98223 13.7863L8.98623 13.7166C8.99623 13.4987 9.15523 13.3415 9.30123 13.2669C9.42823 13.2002 9.55723 13.1883 9.64523 13.2321C9.78723 13.1395 10.0272 13.1236 10.2112 13.2768C10.3922 13.4132 10.6632 13.436 10.8522 13.3893C10.7612 13.1853 10.5182 13.0609 10.3762 13.052H10.3712C10.1782 13.0042 9.99323 12.9475 9.95023 12.852C9.93823 12.8241 9.93823 12.7962 9.95023 12.7674C9.90923 12.7146 9.86423 12.6858 9.81023 12.6768C9.72123 12.6619 9.60623 12.7057 9.46123 12.8122L9.40323 12.8549L9.41523 12.7833C9.45423 12.5664 9.58223 12.4748 9.68323 12.436C9.83223 12.3793 9.99823 12.4062 10.0862 12.453C10.1132 12.4002 10.1572 12.3644 10.2102 12.3544C10.2802 12.3405 10.3562 12.3734 10.4202 12.446C10.5472 12.4818 10.6032 12.5535 10.6572 12.6221C10.6832 12.6559 10.7082 12.6888 10.7422 12.7166C10.9812 12.9594 11.3502 13.043 11.5092 13.0689C11.7612 12.9276 12.0552 12.9077 12.3162 12.9027C12.3812 12.6599 12.5572 12.6151 12.7302 12.6102C12.7332 12.4291 12.8202 12.3316 12.9712 12.249C12.8732 12.2261 12.7242 12.1674 12.6932 12.0311C12.1682 12.0261 11.8062 11.9475 11.7492 11.5962C11.4432 11.4957 11.2162 11.3186 11.1252 11.1057C11.0682 10.9753 11.0662 10.835 11.1182 10.6987C10.8992 10.7564 10.7452 10.7525 10.5612 10.6868C10.2582 10.9485 9.71823 11.3385 9.36523 11.1485C9.23223 11.2758 8.95523 11.436 8.86523 11.4768C8.81623 11.8549 8.53823 12.2997 8.52623 12.3186L8.49523 12.3664L8.47423 12.3146C8.43223 12.2082 8.38023 12.1017 8.32523 11.9893C8.20623 11.7465 8.08423 11.4977 8.06923 11.2609C7.76823 11.643 7.54023 11.8599 7.32123 12.0709C7.20223 12.1833 7.08123 12.2997 6.95023 12.44C6.68023 12.7146 6.50223 13.051 6.37323 13.5276C6.52123 13.6052 6.70023 13.6241 6.87323 13.643C6.96623 13.652 7.06123 13.6619 7.15323 13.6818L7.16123 13.6828L7.24423 13.7654C7.56323 13.7753 7.75923 13.9624 7.75623 14.2539V14.3246L7.70623 14.2738C7.47823 14.04 7.25023 14.1664 7.23123 14.1773C7.00923 14.3594 6.73423 14.2788 6.47123 14.1813L6.46523 14.1783L6.46023 14.1734C6.26223 13.9624 5.95423 13.8092 5.68323 14.0092C5.51623 14.1455 5.38823 14.1146 5.25123 14.0828C5.11123 14.05 4.95123 14.0132 4.69923 14.1515C4.47423 14.3544 4.16823 14.4659 3.91823 14.437C3.80323 14.4231 3.71223 14.3783 3.66123 14.3127C3.61923 14.3017 3.39723 14.2639 3.09523 14.5833L3.03023 14.653Z" fill="black"/>
</g>
<mask id="mask2_986_17559" style="mask-type:luminance" maskUnits="userSpaceOnUse" x="0" y="0" width="24" height="16">
<path d="M0 1.90735e-06H24V16H0V1.90735e-06Z" fill="white"/>
</mask>
<g mask="url(#mask2_986_17559)">
<path d="M7.70306 2.08616L7.66106 2.04636C7.75706 1.94487 7.79106 1.77771 7.79006 1.75681C7.79006 1.75681 7.79006 1.76577 7.79806 1.77273L7.83906 1.73194C7.87006 1.76278 7.80306 1.98069 7.70306 2.08616ZM6.95006 2.40955C6.94706 2.40955 6.94506 2.40955 6.94206 2.40855C6.93906 2.40756 6.62706 2.32597 6.39706 2.2782C6.17106 2.23144 5.86306 2.31502 5.85906 2.31502L5.84406 2.26029C5.85706 2.25631 6.16906 2.17273 6.40906 2.22248C6.62306 2.26626 6.90806 2.3399 6.95206 2.35184C6.99806 2.34487 7.32106 2.29611 7.42906 2.22149L7.46206 2.26925C7.33506 2.35681 6.96906 2.40756 6.95406 2.40955C6.95306 2.40955 6.95106 2.40955 6.95006 2.40955ZM8.44106 2.44437C8.41106 2.44338 8.14606 2.43144 8.06406 2.32995C8.04306 2.30308 8.03506 2.27223 8.04006 2.2394C8.07006 2.05432 8.43606 1.92597 8.48006 1.91104C8.55406 1.86427 8.68806 1.77572 8.81006 1.68816C8.65106 1.66626 8.55706 1.75681 8.55606 1.75781L8.51506 1.71701C8.52106 1.71204 8.65306 1.58268 8.87306 1.64139C8.96806 1.57174 9.04606 1.50706 9.07206 1.47124L9.12006 1.50408C9.03806 1.62149 8.53006 1.94786 8.50806 1.96179C8.50606 1.96278 8.50406 1.96378 8.50206 1.96477C8.39606 1.9996 8.11906 2.11701 8.09806 2.24935C8.09506 2.26626 8.09906 2.2802 8.10906 2.29313C8.16506 2.36278 8.37006 2.38467 8.44306 2.38766L8.44106 2.44437ZM5.28706 2.85432L5.25406 2.80656C5.25506 2.80557 5.39806 2.70706 5.39206 2.58268C5.38706 2.47323 5.24506 2.27323 5.19006 2.20557L5.23606 2.16975C5.24406 2.18069 5.44306 2.42845 5.45006 2.5797C5.45806 2.73592 5.29406 2.85034 5.28706 2.85432ZM4.79306 2.93592L4.77106 2.88218C4.88206 2.83741 4.98306 2.77174 4.98306 2.74487C4.98306 2.74388 4.98306 2.74189 4.98306 2.74089C4.99806 2.64039 5.04006 2.49313 5.04106 2.48716L5.09806 2.50308C5.09706 2.50408 5.05506 2.65034 5.04106 2.74786C5.03706 2.83144 4.85106 2.91303 4.79306 2.93592ZM5.10506 3.28417C5.04406 3.28417 5.01206 3.27223 5.00806 3.27024L5.02906 3.21651C5.03206 3.21751 5.30606 3.30905 5.86506 2.86925L5.90106 2.91403C5.49906 3.23044 5.23506 3.28417 5.10506 3.28417ZM3.11406 3.91005L2.90606 3.57472C2.90106 3.56676 2.90006 3.55781 2.90306 3.54985C2.90606 3.54089 2.91306 3.53492 2.92106 3.53194L3.10806 3.46726L3.12706 3.52199L2.97406 3.57472L3.16306 3.8792L3.11406 3.91005ZM21.0091 4.76875L20.9541 4.74786C21.0491 4.49611 21.2951 3.83641 21.3031 3.81353L21.3281 3.82149H21.3591C21.3591 3.82845 21.3591 3.83144 21.0091 4.76875ZM21.5761 4.79164L21.5261 4.76179C21.6231 4.60059 21.6911 3.78169 21.6921 3.77373L21.7501 3.7787C21.7471 3.81253 21.6801 4.6185 21.5761 4.79164ZM2.81006 5.18169C2.79306 5.18169 2.77806 5.17771 2.76606 5.17174C2.73106 5.15482 2.72306 5.12 2.72306 5.10308H2.78006C2.78106 5.10507 2.78206 5.11502 2.79206 5.12C2.80706 5.12696 2.86806 5.13791 3.06406 4.99363L3.09906 5.04039C2.97006 5.13492 2.87506 5.18169 2.81006 5.18169ZM1.89206 5.58666C1.84606 5.58666 1.81506 5.57273 1.81206 5.57074L1.83706 5.519C1.84306 5.52199 1.98206 5.58169 2.12306 5.36477L2.17206 5.39661C2.07006 5.55383 1.96206 5.58666 1.89206 5.58666ZM3.61006 5.8583C3.59906 5.8583 3.58806 5.85731 3.57806 5.85532C3.46006 5.83044 3.38806 5.6782 3.38506 5.67223L3.43806 5.64736C3.43806 5.64935 3.50006 5.7797 3.58906 5.79761C3.62606 5.80557 3.66206 5.79363 3.70106 5.7598L3.74006 5.80258C3.69806 5.8394 3.65406 5.8583 3.61006 5.8583ZM21.1341 6.00656C20.9861 5.73194 20.7721 5.58865 20.6701 5.519C20.6501 5.50606 20.6351 5.49512 20.6231 5.48616L20.6591 5.44139C20.6691 5.44835 20.6841 5.4593 20.7031 5.47124C20.8091 5.54288 21.0301 5.69213 21.1841 5.9797L21.1341 6.00656ZM3.14706 6.6991C2.82706 6.53293 3.07206 5.86328 3.08306 5.83542L3.13806 5.85532C3.13506 5.86228 2.89806 6.50507 3.17406 6.64835L3.14706 6.6991ZM10.5751 6.70209L10.5741 6.64437C10.5751 6.64437 10.6961 6.6384 10.8761 6.47223C11.0441 6.31701 11.2971 5.98766 11.5521 5.2991C11.8911 4.02746 13.7921 2.68318 15.0501 1.79363C15.5751 1.42248 16.0281 1.10209 16.0511 0.989647L16.1071 1.00159C16.0811 1.12995 15.7381 1.37771 15.0841 1.84039C14.1331 2.51303 12.8111 3.44736 12.0861 4.40756C12.6571 4.11502 13.8691 3.64537 15.0431 3.19064C15.5761 2.98467 16.0791 2.78965 16.5271 2.60955L16.5501 2.66328C16.1001 2.84338 15.5981 3.0384 15.0641 3.24437C13.8211 3.72497 12.5371 4.22248 12.0191 4.50905L12.0151 4.50308C11.8231 4.77472 11.6791 5.04736 11.6071 5.31701C11.1031 6.6792 10.5961 6.70209 10.5751 6.70209ZM19.4751 5.98069C19.3881 5.98069 19.2991 5.9986 19.2111 6.04039C19.0791 6.10308 18.9911 6.21154 19.0031 6.2991C19.0321 6.51204 19.2491 6.56477 19.3761 6.57771C19.6881 6.60855 20.0531 6.47223 20.1321 6.2991C19.9641 6.12696 19.7251 5.98069 19.4751 5.98069ZM20.2321 7.0593L20.1791 7.03741C20.3551 6.61651 20.2241 6.40457 20.1741 6.34388C20.0601 6.54388 19.6661 6.66427 19.3711 6.63542C19.1261 6.61054 18.9711 6.49114 18.9451 6.30706C18.9301 6.19363 19.0291 6.06328 19.1861 5.98766C19.5571 5.81154 19.9461 6.0195 20.1861 6.27223C20.1891 6.27522 20.1911 6.2792 20.1931 6.28318L20.1941 6.28119C20.2051 6.29114 20.4591 6.52 20.2321 7.0593ZM1.97506 8.91502L1.91806 8.90308C1.95506 8.73094 1.71906 8.6583 1.71606 8.6583L1.73306 8.60258C1.83306 8.63243 2.01406 8.73592 1.97506 8.91502ZM17.9901 9.13393C17.8581 9.05532 17.6891 8.87223 17.4941 8.66029C17.1601 8.2991 16.7441 7.84935 16.4381 7.88517L16.4321 7.82845C16.7661 7.78766 17.1761 8.23044 17.5361 8.62149C17.7221 8.82149 17.8951 9.01054 18.0201 9.08417L17.9901 9.13393ZM6.25406 10.8384C6.03806 10.7638 5.52206 10.3299 5.59506 9.77771C4.20606 9.66527 3.51506 8.8583 3.40606 8.37174C3.36306 8.18069 3.40306 8.03442 3.51706 7.97074L3.54606 8.02049C3.45606 8.07124 3.42506 8.19462 3.46206 8.3598C3.49306 8.49213 3.56806 8.65134 3.69206 8.81154C3.80906 8.72696 3.90306 8.52995 3.90406 8.52796L3.95606 8.55283C3.95206 8.56179 3.85706 8.76179 3.72806 8.85731C3.86206 9.0195 4.04606 9.18268 4.28206 9.32298C4.32806 9.17273 4.46106 8.91303 4.46806 8.90208L4.51906 8.92796C4.51706 8.93094 4.37306 9.21054 4.33306 9.35383C4.53306 9.46626 4.76806 9.56278 5.04006 9.63044C5.12106 9.44338 5.00606 9.07422 5.00506 9.07124L5.06006 9.05333C5.06506 9.07024 5.17906 9.43442 5.09806 9.64437C5.24606 9.6782 5.40606 9.70308 5.57606 9.71801C5.25406 9.24139 5.29706 8.9996 5.30006 8.98865L5.35606 8.9996C5.35606 9.00258 5.31506 9.24736 5.65306 9.72795C5.65806 9.73492 5.66006 9.74189 5.65806 9.74885C5.56106 10.2862 6.06506 10.712 6.27306 10.7827L6.25406 10.8384ZM9.98806 12.8086L9.98006 12.7518C10.0361 12.7439 10.0721 12.723 10.0891 12.6911C10.1201 12.6334 10.0881 12.5439 10.0731 12.514L10.1251 12.4882C10.1281 12.4941 10.1911 12.6225 10.1411 12.718C10.1141 12.7678 10.0631 12.7986 9.98806 12.8086ZM16.3981 12.9409L16.3651 12.8931C16.4521 12.8334 16.4961 12.7757 16.4921 12.726C16.4881 12.6683 16.4161 12.6334 16.4151 12.6324L16.4401 12.5807C16.4441 12.5827 16.5431 12.6304 16.5511 12.722C16.5561 12.7936 16.5051 12.8673 16.3981 12.9409ZM3.57806 13.119C3.55906 13.119 3.53806 13.118 3.51606 13.116L3.52206 13.0573C3.62106 13.0683 3.68906 13.0523 3.72006 13.0135C3.76106 12.9618 3.72906 12.8772 3.72806 12.8762L3.78306 12.8543C3.78506 12.8593 3.82706 12.9697 3.76606 13.0493C3.73006 13.0951 3.66706 13.119 3.57806 13.119ZM8.10606 2.68019C8.10806 2.68019 8.10906 2.68019 8.11106 2.68119C8.11006 2.68019 8.10906 2.68019 8.10606 2.68019ZM6.60106 3.64039L6.58006 3.71303C6.60006 3.70905 6.62006 3.70507 6.64006 3.70308L6.60106 3.64039ZM6.39006 3.67422L6.36006 3.77572C6.38706 3.76676 6.41406 3.75781 6.44106 3.74885L6.39006 3.67422ZM6.16806 3.75383L6.14806 3.86029C6.15406 3.8583 6.16106 3.85532 6.16706 3.85233C6.18806 3.84437 6.20906 3.83542 6.23106 3.82646L6.16806 3.75383ZM5.94406 3.82746L5.90906 3.94487C5.94206 3.93791 5.97806 3.92696 6.01706 3.91203L5.94406 3.82746ZM5.69706 3.87422L5.66906 3.95482L5.74106 3.95383L5.69706 3.87422ZM5.46706 3.90407L5.44506 3.9588L5.48506 3.95781L5.46706 3.90407ZM5.23406 3.90407C5.22506 3.92696 5.21706 3.94786 5.21206 3.96179H5.25706L5.23406 3.90407ZM7.28106 5.13492L7.40706 5.319C7.47106 5.26626 7.53806 5.1996 7.58706 5.13393C7.56606 4.85631 7.56606 4.57074 7.59706 4.28617C7.47206 4.50209 7.36706 4.80955 7.28106 5.13492ZM7.22006 5.38268C7.22106 5.39462 7.22506 5.40656 7.23406 5.40855C7.25706 5.41651 7.30606 5.39363 7.36106 5.35383L7.26206 5.20955C7.24706 5.26626 7.23306 5.32398 7.22006 5.38268ZM7.42606 5.3787C7.42706 5.48417 7.43906 5.58666 7.45406 5.62945C7.51006 5.56875 7.56506 5.50208 7.61706 5.43044L7.61906 5.43243C7.60906 5.36079 7.60106 5.28915 7.59506 5.21651C7.55006 5.26726 7.48906 5.32895 7.42606 5.3787ZM7.20306 5.4583C7.16406 5.62845 7.13106 5.79661 7.10306 5.95482C7.17006 5.90308 7.28806 5.80457 7.41306 5.67223C7.38206 5.62248 7.37106 5.519 7.36906 5.4195C7.31106 5.45631 7.25706 5.47621 7.21706 5.46427C7.21206 5.46328 7.20706 5.46129 7.20306 5.4583ZM7.34706 5.82149C7.35706 5.83641 7.38706 5.88417 7.48506 6.04935C7.56706 5.93691 7.63406 5.82149 7.66406 5.72298C7.65206 5.65333 7.64006 5.58169 7.62906 5.51005C7.53706 5.63144 7.43606 5.73691 7.34706 5.82149ZM7.06906 6.15084C7.09106 6.17074 7.13506 6.2195 7.23706 6.33592C7.30906 6.26626 7.38206 6.18467 7.44806 6.0991C7.39806 6.01552 7.32606 5.89611 7.30406 5.86129C7.19806 5.95781 7.11406 6.02049 7.08806 6.0394C7.08106 6.07721 7.07506 6.11502 7.06906 6.15084ZM7.43106 6.21154C7.44906 6.24935 7.53306 6.40656 7.58006 6.48616C7.67606 6.36477 7.74506 6.23741 7.75306 6.12298C7.72806 6.02746 7.70506 5.92895 7.68506 5.82746C7.63006 5.94388 7.53606 6.08318 7.43106 6.21154ZM7.05706 6.22248C7.04006 6.32995 7.02606 6.42746 7.01406 6.51303C7.06706 6.48318 7.13006 6.43542 7.19506 6.37671C7.14306 6.318 7.09106 6.2583 7.05706 6.22248ZM7.19906 6.45233C7.22106 6.58965 7.25606 6.74189 7.28206 6.78965C7.37006 6.71403 7.46206 6.62547 7.54106 6.53393C7.52406 6.50606 7.50106 6.46527 7.46506 6.3996C7.42606 6.32895 7.40306 6.28616 7.39006 6.2593C7.32806 6.33094 7.26206 6.39761 7.19906 6.45233ZM7.70506 6.8593C7.70406 6.8593 7.70206 6.8593 7.70006 6.86129L7.70406 6.86825C7.76906 6.77273 7.82806 6.66328 7.87706 6.5389C7.84606 6.44636 7.81506 6.34885 7.78606 6.24537C7.74906 6.35283 7.67806 6.46228 7.59106 6.56577V6.58268C7.58706 6.58268 7.58306 6.58268 7.57906 6.58069C7.55806 6.60457 7.53706 6.62845 7.51506 6.65233C7.51706 6.65532 7.51906 6.6583 7.52206 6.66129C7.65906 6.84636 7.69806 6.8583 7.70506 6.8593ZM7.00406 6.58169C7.00406 6.58467 7.00406 6.58666 7.00306 6.58865C6.98306 6.7399 6.96506 6.88815 6.95006 7.03044C7.00606 7.00159 7.11606 6.92696 7.23706 6.82746C7.19706 6.76079 7.16406 6.5996 7.14706 6.49412C7.09706 6.53293 7.04806 6.56378 7.00406 6.58169ZM7.26506 6.88517C7.30406 7.03442 7.35906 7.17273 7.39106 7.20457C7.49006 7.12597 7.58706 7.02945 7.67506 6.91005C7.63006 6.88815 7.56806 6.82049 7.47506 6.69611C7.47506 6.69512 7.47406 6.69512 7.47406 6.69412C7.40506 6.76477 7.33306 6.82945 7.26506 6.88517ZM7.70106 6.96875L7.84906 7.26527C7.94406 7.14985 8.01306 7.03542 8.03206 6.92895C7.99006 6.8394 7.94806 6.73592 7.90606 6.62049C7.84806 6.75383 7.77806 6.87024 7.70106 6.96875ZM6.93506 7.17074L7.08606 7.39562C7.16806 7.35582 7.25706 7.30507 7.34706 7.2394C7.28706 7.17174 7.23706 7.00457 7.21506 6.92298C7.14806 6.97572 7.08706 7.0185 7.03806 7.04736C6.99306 7.07522 6.96306 7.08915 6.94306 7.09611C6.94006 7.12198 6.93806 7.14587 6.93506 7.17074ZM6.92706 7.26228C6.92006 7.33293 6.91406 7.40159 6.91006 7.46925C6.94706 7.45532 6.98906 7.4394 7.03306 7.42049L6.92706 7.26228ZM7.86106 7.34089L7.97706 7.48616C8.07406 7.41651 8.17106 7.35283 8.26606 7.29412C8.25406 7.28616 8.24206 7.27422 8.22906 7.26029C8.18306 7.20955 8.12806 7.12398 8.07106 7.00955C8.03406 7.11801 7.95706 7.23044 7.86106 7.34089ZM7.43106 7.24437C7.45106 7.30009 7.50706 7.46029 7.54406 7.56776C7.64006 7.48616 7.73106 7.3996 7.80806 7.31303L7.66106 7.0195C7.58706 7.10706 7.50906 7.18169 7.43106 7.24437ZM7.57306 7.62049L7.64606 7.73691C7.74006 7.66129 7.83506 7.58766 7.93006 7.519L7.82106 7.38467C7.74606 7.46626 7.66106 7.54587 7.57306 7.62049ZM7.11106 7.44736C7.15006 7.57373 7.22506 7.74587 7.28006 7.76776C7.28606 7.76975 7.29006 7.76975 7.29406 7.76776C7.36006 7.719 7.42906 7.66427 7.49706 7.60855C7.45706 7.49313 7.40606 7.34587 7.38206 7.28119C7.28706 7.35184 7.19306 7.40656 7.11106 7.44736ZM7.25006 7.87621C7.25506 7.88616 7.29706 7.94487 7.34006 8.00457C7.42406 7.92597 7.51206 7.84935 7.60106 7.77373L7.52806 7.6593C7.43106 7.7399 7.33206 7.81452 7.24106 7.88019L7.25006 7.87621ZM6.90506 7.53194C6.89106 7.72796 6.88306 7.90407 6.88106 8.05134C6.94806 8.00955 7.08306 7.92199 7.23806 7.80955C7.15306 7.75084 7.08306 7.55383 7.05706 7.47223C7.00306 7.49611 6.95506 7.51502 6.91606 7.52796C6.91106 7.52995 6.90706 7.53094 6.90506 7.53194ZM7.05806 8.00557C7.06106 8.06029 7.08106 8.18169 7.14006 8.20159C7.19006 8.14885 7.24306 8.09711 7.29706 8.04437C7.23706 7.96179 7.21206 7.92597 7.20206 7.90805C7.15006 7.94388 7.10106 7.97671 7.05806 8.00557ZM6.88006 8.119C6.88006 8.28716 6.88906 8.40855 6.90506 8.47024C6.96306 8.39661 7.02806 8.32099 7.09806 8.24537C7.03206 8.20557 7.01006 8.10208 7.00306 8.04238C6.94506 8.0792 6.90206 8.10607 6.88006 8.119ZM11.8371 6.64139C12.5571 7.13393 13.5301 8.62149 13.6071 9.11502C13.7551 8.72298 14.4071 8.23542 15.5471 8.22447C15.2591 8.00457 14.3331 7.58169 13.5931 7.27223C12.6961 6.8981 12.0531 6.67721 11.8371 6.64139ZM7.85606 8.83343C7.86206 8.83343 7.86906 8.83641 7.87406 8.84039C7.88106 8.84537 7.88506 8.85432 7.88506 8.86228C7.88506 8.8991 7.88506 8.95582 7.88606 9.02447C7.88706 9.18865 7.88906 9.42646 7.88606 9.61353C8.21606 9.25631 8.65206 9.0593 8.65706 9.05731C8.66606 9.05333 8.67606 9.05432 8.68406 9.06029C8.69306 9.06527 8.69806 9.07422 8.69806 9.08417C8.69606 9.12099 8.69506 9.15781 8.69406 9.19562C8.77206 8.87621 8.95606 8.43542 9.46306 7.4583C8.67206 7.54288 7.10406 8.49512 6.72306 8.91104C7.13706 8.91801 7.49106 8.90606 7.85006 8.83442C7.85206 8.83343 7.85406 8.83343 7.85606 8.83343ZM11.3821 6.93492C11.5721 7.34089 11.8961 9.21552 11.7971 9.64537C11.7911 9.67024 11.7841 9.69114 11.7751 9.70606C11.8991 9.65731 11.9711 9.58865 12.0481 9.51701C12.2411 9.33194 12.4611 9.12298 13.5681 9.19661C13.5641 9.19562 13.5601 9.19164 13.5581 9.18766C13.3231 8.81552 11.6891 7.09711 11.3821 6.93492ZM12.6251 9.63741C12.7131 9.67422 13.2651 9.88318 13.7371 9.45233C13.6591 9.36676 13.6071 9.28119 13.5931 9.25631C13.1921 9.22945 12.9081 9.23741 12.7011 9.26825C12.7041 9.40656 12.6741 9.52995 12.6251 9.63741ZM10.0181 9.88019C10.0181 9.88318 10.0181 9.88616 10.0191 9.88815C10.0621 9.74786 10.1701 9.62547 10.3331 9.53691C10.6671 9.3588 11.2291 9.33592 11.7001 9.69611C11.6751 9.3588 11.0271 7.52597 10.9151 7.28616C10.7811 7.45134 10.2371 8.80059 10.0591 9.62945C10.0361 9.7389 10.0231 9.8195 10.0181 9.88019ZM9.29606 9.65134C9.48906 9.65134 9.73707 9.71104 9.95807 9.95084C9.95807 9.93094 9.95906 9.90905 9.96006 9.88616C9.89506 9.1598 9.97206 7.97373 10.1331 7.60358C9.76306 7.83741 9.06506 8.69512 8.78806 9.23343C8.75406 9.2991 8.73006 9.35383 8.71306 9.39761C8.70406 9.4593 8.69806 9.52 8.69206 9.58268C8.69406 9.71601 8.70006 9.82348 8.71006 9.87422C8.77606 9.78567 8.98006 9.66825 9.23906 9.65233C9.25706 9.65233 9.27606 9.65134 9.29606 9.65134ZM8.42006 9.67323C8.33406 9.69711 8.30206 9.82149 8.32106 9.93094C8.33606 10.0225 8.39206 10.125 8.50206 10.12C8.56606 10.0454 8.63206 9.95184 8.66206 9.90805C8.65006 9.86527 8.63806 9.78268 8.63306 9.61552C8.57806 9.64139 8.47606 9.68019 8.42006 9.67323ZM7.03206 8.96975C6.97606 9.05233 6.74106 9.48716 6.85706 9.83442C6.92606 10.0384 7.10506 10.1827 7.38906 10.2613C7.39106 10.1707 7.41806 10.11 7.46906 10.0842C7.56406 10.0354 7.70206 10.123 7.74806 10.1558C7.79906 10.1041 7.86606 10.0663 7.93906 10.0643C7.95206 9.94885 7.99906 9.83542 8.05106 9.8185C8.06806 9.81253 8.09206 9.81552 8.10806 9.8394C8.14006 9.86825 8.17006 9.88218 8.19806 9.88019C8.23406 9.87721 8.25606 9.84835 8.25606 9.84835L8.25806 9.84935C8.26406 9.74089 8.31306 9.6384 8.41206 9.61552C8.41606 9.61452 8.42106 9.61452 8.42506 9.61552C8.45806 9.62248 8.55506 9.58865 8.62306 9.55781C8.62006 9.53194 8.62306 9.50109 8.63206 9.46626C8.63206 9.37273 8.63406 9.26228 8.63806 9.13094C8.51406 9.19363 8.14606 9.39462 7.87806 9.71004C7.87006 9.72 7.85706 9.72398 7.84606 9.719C7.83406 9.71502 7.82706 9.70308 7.82706 9.69114C7.83206 9.4981 7.82906 9.21253 7.82806 9.02447C7.82806 8.97472 7.82706 8.93194 7.82706 8.8981C7.56806 8.94686 7.31106 8.96676 7.03206 8.96975ZM11.5111 10.2702C11.7071 10.2891 12.0571 10.1777 12.3171 9.94587C12.4711 9.81154 12.6461 9.58766 12.6431 9.2782C12.3211 9.33492 12.2001 9.45134 12.0881 9.5588C11.9991 9.64238 11.9091 9.72895 11.7371 9.78069C11.7041 9.86825 11.6251 10.0712 11.5111 10.2702ZM8.06806 10.3071C8.09506 10.328 8.12906 10.3409 8.17106 10.3459C8.22106 10.2384 8.31706 10.1797 8.38706 10.1489C8.32506 10.11 8.28006 10.0374 8.26306 9.94089C8.26206 9.93393 8.26106 9.92597 8.26006 9.919C8.24506 9.92796 8.22606 9.93592 8.20406 9.93791C8.15806 9.94189 8.11106 9.92198 8.06506 9.8792C8.06506 9.8782 8.06406 9.8782 8.06406 9.87721C8.03306 9.90606 7.97606 10.0533 8.00006 10.1837C8.00906 10.2334 8.02906 10.2722 8.05906 10.2991C8.06006 10.2991 8.06006 10.2981 8.06106 10.2981L8.06806 10.3071ZM7.93606 10.122C7.84006 10.127 7.75906 10.2115 7.72606 10.2981C7.70506 10.3538 7.70806 10.4006 7.73306 10.4205C7.74906 10.4334 7.81506 10.4603 8.01006 10.3329C7.97306 10.2941 7.94906 10.2414 7.94006 10.1767C7.93806 10.1588 7.93606 10.1409 7.93606 10.122ZM11.4381 10.3887C11.6391 10.3896 12.3701 10.4066 12.5721 10.5608C12.5851 10.4623 12.6081 10.3578 12.6411 10.2484C12.7161 10.0095 12.8141 9.82049 12.8491 9.76079C12.7221 9.73791 12.6311 9.70208 12.5991 9.68915C12.5321 9.81452 12.4401 9.91502 12.3561 9.98965C12.0681 10.2444 11.6881 10.3578 11.4791 10.323C11.4661 10.3459 11.4531 10.3668 11.4381 10.3887ZM7.53306 10.127C7.51906 10.127 7.50706 10.1299 7.49606 10.1359C7.45206 10.1578 7.44506 10.2334 7.44806 10.2921C7.44106 10.4981 7.53206 10.5489 7.53606 10.5518C7.54506 10.5558 7.55106 10.5648 7.55206 10.5737C7.56106 10.6862 7.62806 10.8076 7.68606 10.8185C7.72206 10.8265 7.75306 10.7887 7.77306 10.7528C7.81306 10.5767 7.75306 10.4971 7.74506 10.4862C7.72506 10.4822 7.70906 10.4752 7.69706 10.4663C7.65006 10.4304 7.64106 10.3588 7.67206 10.2772C7.68206 10.2513 7.69506 10.2265 7.71206 10.2016C7.67006 10.1727 7.59206 10.127 7.53306 10.127ZM6.65206 10.7459C6.86606 10.915 7.07706 10.9319 7.15506 10.9299C7.26106 10.709 7.34706 10.519 7.39106 10.3946L7.39506 10.3966C7.39106 10.3727 7.39006 10.3489 7.38906 10.321C7.17506 10.2643 7.03106 10.1767 6.93506 10.0742C6.90406 10.0842 6.74806 10.1429 6.66606 10.2961C6.60006 10.4175 6.59606 10.5688 6.65206 10.7459ZM13.2721 12.2314C13.5171 12.2603 13.7911 12.3001 13.8831 12.3419C13.8901 12.3349 13.8991 12.327 13.9091 12.317C14.0151 12.2175 14.2661 11.9817 14.2131 11.8245C14.1821 11.7359 14.0561 11.6792 13.8381 11.6553C13.7481 11.9867 13.5201 12.1389 13.3431 12.2076C13.3191 12.2165 13.2961 12.2235 13.2721 12.2314ZM12.7181 13.1419C12.5011 13.1419 12.3271 12.9588 12.3191 12.9508L12.3611 12.911C12.3631 12.913 12.5491 13.1061 12.7551 13.0822C12.8651 13.0683 12.9651 12.9956 13.0491 12.8633C12.9761 12.8583 12.9251 12.8155 12.8561 12.7508C12.8261 12.722 12.7921 12.6901 12.7491 12.6563L12.7861 12.6105C12.8301 12.6464 12.8651 12.6792 12.8951 12.709C13.0601 12.8633 13.0831 12.8852 13.8361 12.3827C13.7291 12.3479 13.3751 12.2991 13.0501 12.2643C13.0441 12.2643 13.0391 12.2623 13.0361 12.2603C13.0251 12.2533 13.0201 12.2384 13.0251 12.2255C13.0291 12.2145 13.0421 12.2066 13.0561 12.2076C13.0601 12.2076 13.0661 12.2086 13.0711 12.2095C13.1761 12.2125 13.6421 12.1329 13.7801 11.6493C13.5291 11.6464 13.3161 11.6145 13.1411 11.5538C13.1471 11.6006 13.1331 11.6513 13.0981 11.7071C12.9971 11.8673 12.7361 12.0314 12.7121 12.0314V12.0036L12.7011 11.9757C12.7261 11.9648 13.0181 11.7837 13.0751 11.6225C13.0881 11.5877 13.0881 11.5568 13.0741 11.5289L13.0761 11.528C12.9201 11.4643 12.7991 11.3737 12.7131 11.2573C12.5511 11.4762 12.0361 11.5598 11.8351 11.5946C11.8061 11.5996 11.7771 11.6026 11.7711 11.6046L11.7641 11.5837L11.7391 11.5588C11.7481 11.5498 11.7541 11.5489 11.8261 11.5369C12.0071 11.5071 12.5501 11.4175 12.6791 11.2056C12.6751 11.1996 12.6711 11.1936 12.6681 11.1877C12.5821 11.0394 12.5481 10.8533 12.5641 10.6374C12.5001 10.4692 11.4921 10.4384 11.3991 10.4454C11.3311 10.5409 11.2551 10.6255 11.1721 10.6842L11.1391 10.6364C11.4151 10.4404 11.6271 9.90805 11.6831 9.75781C11.3411 9.48616 10.9221 9.42646 10.5991 9.50109C10.6291 9.56577 10.6991 9.72696 10.7391 9.92C10.8071 10.2503 10.7511 10.512 10.5761 10.6782L10.5361 10.6354C10.8921 10.2991 10.5971 9.63243 10.5411 9.51602C10.4761 9.53393 10.4151 9.5588 10.3611 9.58865C10.1461 9.70407 10.0361 9.88417 10.0581 10.0822C10.0601 10.0961 10.0531 10.109 10.0401 10.112C10.0281 10.117 10.0141 10.113 10.0061 10.1031C10.0031 10.0981 10.0001 10.0941 9.99706 10.0891C9.99306 10.0882 9.99006 10.0852 9.98706 10.0822C9.98306 10.0752 9.97806 10.0683 9.97506 10.0613C9.83306 9.8792 9.67506 9.78567 9.52806 9.74189C9.55206 9.96278 9.62706 10.8623 9.37106 11.1489L9.32806 11.11C9.57706 10.8314 9.49106 9.86726 9.47006 9.72795C9.38806 9.70905 9.31006 9.70606 9.24206 9.71104C9.15106 9.71601 9.06906 9.73492 8.99706 9.76079C9.00306 9.88318 9.01806 10.4732 8.82306 10.7061C8.62906 10.9379 8.87306 11.4354 8.87506 11.4394L8.82406 11.4663C8.81306 11.4434 8.56006 10.9299 8.77806 10.6692C8.94906 10.4653 8.94506 9.93492 8.94006 9.78268C8.83806 9.82746 8.76906 9.88318 8.74906 9.92C8.73306 9.94885 8.71506 9.95482 8.70206 9.95383C8.66606 10.0046 8.60106 10.0951 8.53806 10.1668C8.53306 10.1727 8.52606 10.1767 8.51906 10.1777C8.50406 10.1787 8.49006 10.1787 8.47606 10.1777C8.44706 10.1857 8.27406 10.2374 8.21706 10.3867C8.21206 10.3986 8.20106 10.4056 8.18806 10.4046C8.13806 10.4026 8.09506 10.3906 8.05806 10.3697C7.95006 10.4424 7.87006 10.4762 7.81206 10.4862C7.83606 10.5339 7.86206 10.6265 7.82806 10.7707C7.82806 10.7717 7.82706 10.7747 7.82606 10.7767C7.77306 10.8742 7.71406 10.8842 7.67506 10.8762C7.58406 10.8563 7.51006 10.715 7.49506 10.5936C7.47606 10.5787 7.44306 10.5479 7.41806 10.4862C7.36706 10.6145 7.28706 10.7896 7.19306 10.9847V10.9857H7.19206C7.14006 11.0941 7.08306 11.2095 7.02406 11.326L7.02906 11.3359C7.02506 11.3369 7.02106 11.3389 7.01706 11.3409C6.90706 11.5608 6.78906 11.7896 6.68206 11.9996C6.54706 12.2623 6.43106 12.4891 6.36106 12.6354C6.36006 12.6374 6.35806 12.6394 6.35606 12.6414C6.24106 12.7668 6.14106 12.8076 6.05806 12.7638C5.95306 12.7071 5.92606 12.528 5.93106 12.5061C5.93406 12.4931 5.94606 12.4832 5.96006 12.4832V12.513L5.98806 12.515C5.98806 12.5389 6.01706 12.6872 6.09506 12.718C6.16206 12.7439 6.24906 12.6722 6.31006 12.6056C6.37806 12.4663 6.48706 12.2523 6.61406 12.0056C6.46306 12.0215 6.34106 11.8882 6.29206 11.8036L6.34306 11.7737C6.34806 11.7837 6.47406 11.9976 6.64806 11.9389C6.74506 11.7498 6.84806 11.5479 6.94706 11.3508C6.80406 11.3508 6.58806 11.2593 6.55906 11.2464L6.58206 11.1926C6.69406 11.2414 6.88706 11.3061 6.97706 11.2911C7.02906 11.1867 7.07906 11.0852 7.12706 10.9877C7.02506 10.9847 6.81906 10.9548 6.60806 10.7857C6.60406 10.7827 6.60006 10.7777 6.59906 10.7717C6.53506 10.5747 6.54006 10.4056 6.61506 10.2683C6.69606 10.118 6.83406 10.0503 6.89506 10.0265C6.76906 9.86129 6.75406 9.66726 6.77506 9.50109C6.79606 9.34189 6.85306 9.19462 6.89806 9.0991C6.92606 9.0384 6.94706 8.99761 6.96306 8.97074C6.86806 8.97074 6.76906 8.96975 6.66706 8.96776C6.66106 8.96875 6.65306 8.96875 6.64706 8.96577C6.63406 8.9588 6.62806 8.94388 6.63306 8.92994C6.66706 8.82945 6.72606 8.72 6.80506 8.60557C6.11506 8.96079 5.56206 8.66228 5.55606 8.6593L5.58406 8.60955C5.59006 8.61253 6.16006 8.918 6.85806 8.51104C6.81906 8.40258 6.81406 8.11601 6.83306 7.75582C5.97606 7.87223 5.52106 7.47721 5.50206 7.46029L5.54106 7.41751C5.69806 7.55582 6.16806 7.79064 6.83606 7.69711C6.85106 7.44238 6.87606 7.15582 6.90906 6.87323C5.90706 6.85034 5.79006 6.50805 5.78606 6.49313L5.84106 6.47621C5.84206 6.4792 5.95906 6.79462 6.91606 6.81552C6.92606 6.73691 6.93506 6.6583 6.94606 6.58069C6.94806 6.56776 6.95006 6.55383 6.95206 6.5389C6.96806 6.42447 6.98906 6.28218 7.01506 6.12298C6.51106 6.17572 6.14506 5.7389 6.13006 5.72L6.17506 5.68318C6.17906 5.68815 6.54406 6.12397 7.02506 6.06328C7.06106 5.85233 7.10606 5.61552 7.16106 5.3787V5.37373C7.16206 5.37174 7.16306 5.36875 7.16406 5.36577C6.60706 5.32199 6.45406 5.07223 6.44906 5.06228L6.49806 5.03243C6.50006 5.03442 6.64606 5.26925 7.17706 5.30905V5.31204C7.23506 5.06925 7.30306 4.82845 7.38206 4.6185C7.05806 4.64139 6.79006 4.35383 6.77806 4.34089L6.82106 4.30208C6.82406 4.30507 7.09806 4.59761 7.40506 4.55781C7.46006 4.41651 7.52106 4.29114 7.58706 4.19064C7.58606 4.18965 7.58506 4.18766 7.58406 4.18567L7.47706 3.9797L7.26106 4.30308C7.25506 4.31203 7.24506 4.31602 7.23506 4.31602C7.22506 4.31502 7.21606 4.30905 7.21106 4.30109L7.07306 4.0384L6.67106 4.03343L6.67206 3.97472L7.04306 3.9797L6.92906 3.76378C6.70506 3.72099 6.49006 3.78567 6.30406 3.8593L6.29606 3.86427C6.29106 3.86626 6.28706 3.86825 6.28206 3.86825C6.25006 3.88119 6.21906 3.89313 6.18906 3.90607C6.07206 3.95482 5.96906 3.99761 5.87906 4.00855C5.87506 4.01054 5.87006 4.01154 5.86606 4.01054H5.85506C5.85206 4.01054 5.84906 4.01054 5.84506 4.01054L5.64006 4.01353C5.63706 4.01552 5.63206 4.01651 5.62806 4.01651H5.52506C5.52306 4.01651 5.52006 4.01552 5.51706 4.01552L5.06206 4.02149L5.06106 3.96477L5.15006 3.96278C5.15506 3.94885 5.16806 3.91303 5.20806 3.81353C5.21206 3.80258 5.22406 3.79661 5.23506 3.79562C5.24706 3.79562 5.25706 3.80358 5.26206 3.81353L5.31806 3.9598L5.38206 3.9588L5.44306 3.81054C5.44706 3.7996 5.45806 3.79164 5.47106 3.79263C5.48306 3.79263 5.49306 3.80059 5.49706 3.81253L5.54606 3.95681L5.60806 3.95582L5.66306 3.79363C5.66706 3.78268 5.67706 3.77472 5.68806 3.77373C5.70006 3.77373 5.71106 3.7787 5.71606 3.78865L5.80406 3.94985L5.84606 3.95184L5.90306 3.76079C5.90606 3.75084 5.91406 3.74288 5.92506 3.74089C5.93506 3.7389 5.94606 3.74189 5.95306 3.74985L6.07106 3.88716L6.08506 3.88218L6.12306 3.68417C6.12506 3.67422 6.13306 3.66527 6.14406 3.66228C6.15406 3.6593 6.16606 3.66228 6.17306 3.67124L6.28706 3.80258L6.29406 3.7986L6.35106 3.5996C6.35406 3.58865 6.36306 3.58069 6.37406 3.5787C6.38506 3.57771 6.39606 3.58169 6.40306 3.59164L6.49806 3.72895L6.51706 3.72298L6.56306 3.56179C6.56706 3.55084 6.57606 3.54288 6.58706 3.54089C6.59906 3.5389 6.61006 3.54487 6.61606 3.55482L6.70306 3.69512C6.76606 3.69014 6.83006 3.69014 6.89506 3.7001L6.70106 3.32995L6.75306 3.30308L6.96806 3.71303C6.96906 3.71303 6.96906 3.71303 6.97006 3.71303V3.71602L7.24006 4.23044L7.45606 3.90706C7.46206 3.8981 7.47206 3.89313 7.48206 3.89412C7.49306 3.89412 7.50206 3.90109 7.50606 3.91005L7.61106 4.11204L7.79306 3.79462C7.79706 3.78766 7.80306 3.78268 7.81106 3.78069C7.81906 3.7787 7.82706 3.7797 7.83306 3.78467L8.12606 3.97074L8.01306 3.60258C8.01006 3.59462 8.01206 3.58567 8.01606 3.5787C8.02106 3.57074 8.03006 3.56577 8.03806 3.56577L8.29706 3.54686C8.26306 3.48816 8.17406 3.37373 7.98606 3.34487C7.97406 3.34288 7.96506 3.33393 7.96206 3.32298C7.95906 3.31204 7.96306 3.3001 7.97206 3.29313C8.03006 3.24736 8.19806 3.13592 8.26706 3.09015C8.22006 3.04636 8.10306 2.95681 7.94606 2.95184C7.93506 2.95184 7.92506 2.94487 7.92006 2.93492C7.91606 2.92397 7.91806 2.91204 7.92606 2.90408C7.97806 2.84636 8.04506 2.72796 8.07206 2.67323C8.06506 2.67124 8.05706 2.66925 8.04806 2.66726C7.95206 2.65134 7.88806 2.63144 7.88106 2.62945C7.86606 2.62447 7.85706 2.60855 7.86206 2.59363C7.86606 2.5797 7.88106 2.56975 7.89606 2.57373C7.93906 2.58368 7.99806 2.59761 8.04406 2.60756C8.22006 2.6384 8.52606 2.6593 8.77906 2.51303L8.80806 2.56278C8.58006 2.69413 8.31906 2.7001 8.13206 2.6792C8.10906 2.73691 8.04606 2.83741 8.00206 2.8991C8.20306 2.92696 8.32906 3.06925 8.33506 3.07522C8.34106 3.08119 8.34306 3.09014 8.34206 3.0991C8.34106 3.10706 8.33606 3.11403 8.32906 3.119C8.32706 3.12 8.15706 3.23144 8.05806 3.30109C8.29406 3.36577 8.36606 3.55482 8.36906 3.56278C8.37206 3.57174 8.37106 3.58069 8.36606 3.58865C8.36106 3.59661 8.35306 3.60059 8.34406 3.60159L8.07906 3.62049L8.20406 4.02845C8.20806 4.04039 8.20406 4.05333 8.19406 4.06029C8.18406 4.06726 8.17106 4.06825 8.16106 4.06129L7.82806 3.84935L7.66106 4.14189C7.66706 4.14885 7.67106 4.15781 7.66906 4.16676C7.57406 4.85233 7.66406 5.55681 7.81006 6.12099L7.81106 6.12199C7.89306 6.44039 7.99406 6.71502 8.08806 6.91602H8.09306C8.09206 6.91801 8.09206 6.92099 8.09206 6.92298C8.15806 7.06129 8.22006 7.16477 8.27206 7.22149C8.30606 7.2593 8.32006 7.2583 8.32006 7.2583V7.26228C8.58006 7.10806 8.81906 7.00358 8.99206 6.98169L8.99906 7.0394C8.42906 7.11104 7.12506 8.0981 6.75506 8.79661C7.25606 8.32696 8.75306 7.44139 9.51106 7.39562C9.52206 7.39562 9.53106 7.40059 9.53706 7.40955C9.54306 7.41751 9.54306 7.42845 9.53806 7.43741C9.04606 8.38567 8.85206 8.83542 8.76506 9.15184C9.07106 8.59462 9.83307 7.65233 10.1981 7.50507C10.2271 7.48119 10.2541 7.48218 10.2721 7.48815C10.2851 7.49213 10.2941 7.50408 10.2931 7.51801C10.2921 7.53094 10.2821 7.54189 10.2681 7.54388C10.2561 7.54587 10.2431 7.54985 10.2291 7.55482C10.0721 7.70407 9.96406 8.80457 10.0011 9.62547C10.0601 9.34288 10.1701 8.99263 10.2531 8.74388C10.4081 8.2792 10.7901 7.24835 10.9161 7.21552C10.9261 7.21253 10.9371 7.21552 10.9441 7.22248C10.9871 7.26527 11.2231 7.92597 11.3771 8.38268C11.4761 8.67721 11.6901 9.32398 11.7451 9.61054C11.8281 9.1389 11.4771 7.15482 11.3061 6.91602C11.2981 6.90606 11.2991 6.89114 11.3071 6.88119C11.3131 6.87422 11.3261 6.86328 11.3501 6.86527C11.5831 6.88119 13.1441 8.5598 13.5351 9.0583C13.4711 8.81552 13.2371 8.3797 12.9261 7.92597C12.5101 7.32 12.0631 6.8394 11.7311 6.64139C11.7231 6.63741 11.7181 6.62945 11.7171 6.62049C11.7161 6.61154 11.7191 6.60258 11.7251 6.59661C11.7461 6.57572 11.7851 6.53691 12.3561 6.73293C12.6871 6.84636 13.1231 7.01452 13.5841 7.20656C14.2811 7.49611 15.1411 7.88616 15.5041 8.12497C15.3281 7.9399 14.8621 7.58169 14.1271 7.10905C13.3951 6.64039 12.4931 6.12696 12.1251 6.0394C12.1111 6.03542 12.1021 6.02447 12.1021 6.01054C12.1021 5.99761 12.1121 5.98567 12.1251 5.98268C13.0631 5.78069 16.0721 6.20159 17.2991 6.46228C16.6041 5.98567 13.7031 5.49611 12.2341 5.54487C12.2231 5.54587 12.2121 5.5389 12.2071 5.52796C12.2021 5.51801 12.2041 5.50606 12.2111 5.49711C12.4281 5.24338 15.7331 4.42945 18.5301 3.77771C17.3911 3.91602 13.6401 4.55084 12.5871 4.86726C12.5751 4.87024 12.5621 4.86626 12.5561 4.85731C12.5481 4.84736 12.5471 4.83542 12.5541 4.82447C12.6561 4.65034 18.9261 1.73194 19.6411 1.3996L19.6651 1.45134C17.9171 2.26427 13.6101 4.28417 12.7511 4.76079C14.1661 4.39164 18.7491 3.62348 18.8861 3.70308C18.8961 3.70905 18.9011 3.72099 18.9001 3.73293C18.8981 3.74487 18.8901 3.75383 18.8781 3.75681C18.8531 3.76278 18.7871 3.77771 18.6851 3.80159C13.9321 4.90606 12.6311 5.32597 12.3281 5.48517C13.0561 5.47323 14.1711 5.58467 15.2071 5.77572C15.7661 5.8782 17.1001 6.15383 17.4311 6.49611C17.4391 6.50507 17.4411 6.519 17.4341 6.52995C17.4291 6.54089 17.4161 6.54686 17.4031 6.54388C16.3101 6.29811 13.3371 5.86626 12.2571 6.0185C12.7031 6.17373 13.5371 6.66228 14.1581 7.06129C14.3551 7.18766 15.1771 7.72199 15.5061 8.04537C15.3351 7.59462 15.6541 7.31601 15.6581 7.31303L15.6961 7.35681C15.6801 7.37074 15.3051 7.70109 15.6741 8.2384C15.6801 8.24636 15.6801 8.2583 15.6751 8.26825C15.6701 8.27721 15.6601 8.28318 15.6491 8.28318C15.4991 8.28119 15.3561 8.28716 15.2211 8.30109C15.2251 8.37771 15.2511 8.58666 15.3901 8.80756C15.6191 9.17771 16.0571 9.4185 16.6531 9.50407C16.6551 9.50507 16.6561 9.50507 16.6571 9.50507C16.9631 9.58865 17.2401 9.65034 17.4851 9.70308C18.5871 9.94388 19.1411 10.0653 19.2211 11.5986V11.6016C19.1681 12.1946 19.1001 12.7369 18.8491 12.8643C18.7551 12.913 18.6411 12.8981 18.5131 12.8215L18.5421 12.7717C18.6541 12.8384 18.7471 12.8513 18.8231 12.8125C18.9501 12.7489 19.0251 12.5469 19.0751 12.3031C19.0371 12.3349 18.9951 12.3548 18.9491 12.3628C18.8141 12.3847 18.6981 12.2882 18.6931 12.2842L18.7301 12.2404C18.7311 12.2404 18.8331 12.323 18.9391 12.3061C19.0001 12.2961 19.0521 12.2573 19.0961 12.1887C19.1281 11.9936 19.1461 11.7827 19.1631 11.5996C19.1621 11.5926 19.1621 11.5867 19.1621 11.5797C19.0021 11.7916 18.7421 11.7479 18.7391 11.7469L18.7501 11.6901C18.7621 11.6921 19.0261 11.7349 19.1551 11.4802C19.1411 11.2762 19.1171 11.1011 19.0841 10.9479C18.9491 11.113 18.6661 11.0454 18.6521 11.0424L18.6671 10.9857C18.6701 10.9867 18.9731 11.0593 19.0651 10.8692C18.9851 10.5528 18.8591 10.3439 18.6821 10.1936C18.6191 10.316 18.4311 10.6673 18.3451 10.713L18.3171 10.6623C18.3751 10.6314 18.5401 10.3439 18.6361 10.1578C18.4791 10.0404 18.2861 9.96378 18.0541 9.8981C18.0501 10.0394 18.0231 10.4145 17.8361 10.5896L17.7961 10.5479C17.9731 10.3837 17.9931 10.0026 17.9951 9.88218C17.8391 9.8394 17.6651 9.80159 17.4731 9.7598C17.4331 9.75084 17.3921 9.74189 17.3511 9.73393C17.3471 9.81253 17.3081 10.1916 16.9801 10.4663L16.9431 10.4225C17.2691 10.1489 17.2931 9.75383 17.2941 9.72099C17.0951 9.67621 16.8771 9.62547 16.6431 9.56179C16.5901 9.55383 16.5371 9.54487 16.4871 9.53393C16.5541 9.78069 16.0431 10.328 16.0381 10.3339L15.9961 10.2921L16.0161 10.314L15.9961 10.2931C16.0841 10.2016 16.5341 9.67024 16.4181 9.52298L16.4201 9.52099C16.1901 9.46925 16.0021 9.39562 15.8491 9.30905C15.8141 9.45731 15.6711 9.89014 15.1621 9.96676L15.1531 9.90905C15.6581 9.83343 15.7741 9.39263 15.7961 9.2792C15.2491 8.94388 15.1741 8.44935 15.1631 8.30706C14.2401 8.41651 13.6941 8.87124 13.6381 9.22348L13.6401 9.22248C13.6421 9.22646 13.8681 9.62348 14.1301 9.60159C14.5191 9.48716 14.6681 9.72298 14.6741 9.73293L14.6251 9.76278C14.6191 9.75383 14.4911 9.55482 14.1431 9.65731C14.1411 9.6583 14.1401 9.6583 14.1391 9.6583C14.0001 9.67223 13.8731 9.58965 13.7771 9.49412C13.4761 9.76875 13.1461 9.7986 12.9101 9.76975C12.8971 9.79064 12.4141 10.6324 12.7191 11.1598C12.8841 11.4464 13.2531 11.5916 13.8161 11.5916V11.5956H13.8191C14.0801 11.6205 14.2261 11.6882 14.2671 11.8056C14.3341 11.9986 14.0741 12.2424 13.9491 12.3598C13.9321 12.3757 13.9181 12.3887 13.9091 12.3976C13.9051 12.4016 13.8991 12.4046 13.8931 12.4066L13.8971 12.4115C13.4691 12.6971 13.2571 12.8275 13.1211 12.8563C13.0211 13.0275 12.9011 13.123 12.7621 13.1389C12.7471 13.1409 12.7321 13.1419 12.7181 13.1419ZM4.15406 13.4036C4.14406 13.4036 4.13406 13.4036 4.12406 13.4026C4.00906 13.4036 3.93506 13.3767 3.86306 13.3498C3.78406 13.321 3.70906 13.2941 3.57806 13.3011L3.57506 13.2434C3.71706 13.2354 3.80106 13.2663 3.88306 13.2961C3.95306 13.321 4.01906 13.3449 4.12506 13.3449C4.32306 13.3508 4.51906 13.2931 4.74606 13.2235C4.82606 13.2006 4.90806 13.1757 4.99606 13.1518L5.01206 13.2076C4.92406 13.2304 4.84206 13.2563 4.76306 13.2792C4.54206 13.3459 4.35006 13.4036 4.15406 13.4036ZM10.9161 13.4354L10.8901 13.3847L11.4871 13.0742L11.5141 13.126L10.9161 13.4354ZM9.51606 13.5966L9.50106 13.5419C9.56106 13.526 9.60106 13.4971 9.61906 13.4573C9.65106 13.3837 9.60106 13.2882 9.60006 13.2872L9.65206 13.2593C9.65406 13.2643 9.71606 13.3807 9.67206 13.4802C9.64706 13.5379 9.59506 13.5767 9.51606 13.5966ZM16.2251 13.6882L16.1801 13.6533C16.2831 13.52 16.1291 13.3548 16.1221 13.3479L16.1641 13.3081C16.2321 13.3797 16.3321 13.5498 16.2251 13.6882ZM3.40706 13.7966L3.37206 13.7498C3.44306 13.6971 3.47806 13.6454 3.47706 13.5956C3.47406 13.5299 3.40306 13.4832 3.40306 13.4822L3.43406 13.4334C3.43806 13.4364 3.53206 13.4971 3.53506 13.5936C3.53706 13.6643 3.49406 13.7319 3.40706 13.7966ZM3.55806 13.8444L3.52106 13.7996C3.53906 13.7857 3.94806 13.4553 4.18006 13.6692C4.37406 13.7339 4.48306 13.722 4.48406 13.722L4.49106 13.7797C4.48606 13.7807 4.36706 13.7946 4.15506 13.721C4.15106 13.719 4.14706 13.717 4.14406 13.715C3.95006 13.527 3.56206 13.8414 3.55806 13.8444ZM9.84706 13.8712L9.80906 13.8275C9.82506 13.8135 10.1941 13.5021 10.3811 13.6822C10.5091 13.8056 11.0451 13.6185 11.2411 13.5349L11.2631 13.5887C11.1881 13.6205 10.5191 13.8961 10.3411 13.723C10.1921 13.5797 9.85007 13.8683 9.84706 13.8712ZM7.17806 14.1837C7.07006 14.0523 7.17906 13.8185 7.18406 13.8086C7.19306 13.7906 7.20106 13.7717 7.22206 13.7717V13.8006L7.24406 13.8195C7.22406 13.8464 7.14306 14.0493 7.22306 14.1469L7.17806 14.1837ZM10.1761 14.2175L10.1231 14.1936C10.1541 14.128 10.1571 14.0742 10.1331 14.0334C10.0871 13.9578 9.95306 13.9349 9.90506 13.9329L9.90806 13.8752C9.91606 13.8762 10.1121 13.8862 10.1821 14.0036C10.2181 14.0613 10.2161 14.1339 10.1761 14.2175ZM19.9941 14.2245C19.8971 14.0513 20.0201 13.8971 20.0991 13.8404L20.1331 13.8862C20.1251 13.8911 19.9481 14.0245 20.0451 14.1966L19.9941 14.2245ZM13.3501 14.2414C13.2181 14.0692 13.3311 13.8981 13.4101 13.8324L13.4481 13.8762C13.4401 13.8822 13.2651 14.0344 13.3961 14.2066L13.3501 14.2414ZM3.69306 14.311L3.64606 14.2772C3.69006 14.2165 3.70406 14.1678 3.68806 14.1299C3.66006 14.0623 3.54406 14.0444 3.54306 14.0444L3.55206 13.9867C3.55706 13.9877 3.70106 14.0086 3.74206 14.1071C3.76606 14.1648 3.74906 14.2334 3.69306 14.311ZM16.8931 14.324L16.8361 14.316C16.8591 14.1379 16.6451 14.0762 16.6361 14.0732L16.6511 14.0175C16.7461 14.0444 16.9181 14.1409 16.8931 14.324Z" fill="black"/>
</g>
<mask id="mask3_986_17559" style="mask-type:luminance" maskUnits="userSpaceOnUse" x="0" y="0" width="24" height="16">
<path d="M0 1.90735e-06H24V16H0V1.90735e-06Z" fill="white"/>
</mask>
<g mask="url(#mask3_986_17559)">
<path d="M6.20325 2.23674L6.59125 2.30838C6.59125 2.30838 6.31825 2.67256 6.20325 2.23674Z" fill="black"/>
</g>
<mask id="mask4_986_17559" style="mask-type:luminance" maskUnits="userSpaceOnUse" x="0" y="0" width="24" height="16">
<path d="M0 1.90735e-06H24V16H0V1.90735e-06Z" fill="white"/>
</mask>
<g mask="url(#mask4_986_17559)">
<path d="M6.24411 2.27377C6.26711 2.34143 6.30411 2.41008 6.35911 2.42003C6.42011 2.43198 6.49211 2.37426 6.53611 2.3275L6.24411 2.27377ZM6.37511 2.47974C6.36611 2.47974 6.35711 2.47874 6.34811 2.47775C6.27011 2.46183 6.21111 2.38322 6.17511 2.24392C6.17211 2.23397 6.17511 2.22401 6.18211 2.21705C6.18811 2.21008 6.19811 2.2071 6.20811 2.20909L6.59611 2.27974C6.60611 2.28173 6.61411 2.28869 6.61811 2.29765C6.62111 2.3066 6.61911 2.31755 6.61411 2.32551C6.60911 2.33247 6.49611 2.47974 6.37511 2.47974Z" fill="black"/>
</g>
</g>
<defs>
<clipPath id="clip0_986_17559">
<rect width="24" height="16" fill="white"/>
</clipPath>
</defs>
</svg>
