<svg width="24" height="16" viewBox="0 0 24 16" fill="none" xmlns="http://www.w3.org/2000/svg">
<g clip-path="url(#clip0_986_17725)">
<path d="M0 16H7.93167V1.90735e-06H0V16Z" fill="#197B63"/>
<path d="M7.93164 16H16.0693V1.90735e-06H7.93164V16ZM11.2115 8.25473L9.93556 7.33333H11.5125L11.9995 5.8408L12.4875 7.33333H14.0634L12.7874 8.25473L13.2764 9.74527L11.9995 8.82488L10.7235 9.74527L11.2115 8.25473Z" fill="#CE2931"/>
<path d="M16.0693 16H24V1.90735e-06H16.0693V16Z" fill="#FBD632"/>
<path d="M14.0628 7.3329H12.4869L11.9999 5.84036L11.5119 7.3329H9.93701L11.211 8.25528L10.725 9.74683L11.9999 8.82543L13.2759 9.74683L12.7889 8.25429L14.0628 7.3329Z" fill="#FBD632"/>
</g>
<defs>
<clipPath id="clip0_986_17725">
<rect width="24" height="16" fill="white"/>
</clipPath>
</defs>
</svg>
