<svg width="20" height="20" viewBox="0 0 20 20" fill="none" xmlns="http://www.w3.org/2000/svg">
<path d="M18.6191 2.1232H15.8581V0H4.14151V2.1232H1.38071V7.8468L4.14171 10.62V10.6278L6.90271 13.3882V15.4452L4.12951 16.826V20.0002H15.8583V16.8266L13.0973 15.4464V13.3884L15.8583 10.628V10.6172L18.6193 7.847V2.1232H18.6191ZM14.4951 1.3632V3.4342H5.50491V1.3632H14.4951ZM2.74391 7.2842V3.4864H4.14171V8.6882L2.74391 7.284V7.2842ZM14.4951 17.6688V18.6368H5.49271V17.6698L8.26591 16.289V13.7878H11.7343V16.2882L14.4953 17.669L14.4951 17.6688ZM12.1333 12.4246H7.86651L5.50491 10.0626V4.7974H14.4951V10.0626L12.1335 12.4246H12.1333ZM17.2559 7.2836L15.8581 8.6862V3.4864H17.2559V7.2836Z" fill="#001E28"/>
</svg>
