<svg width="20" height="20" viewBox="0 0 20 20" fill="none" xmlns="http://www.w3.org/2000/svg">
<path fill-rule="evenodd" clip-rule="evenodd" d="M2.471 2.39999L0 4.86999V15.169L2.477 17.569H17.531L20 15.099V4.86999L17.53 2.39999H2.471ZM10.684 3.76599H15.825L14.157 5.85099H10.684V3.76599ZM4.176 3.76599H9.317V5.85099H5.844L4.176 3.76599ZM15.402 6.48299L17.304 4.10599L18.294 5.09599L15.917 6.99799L15.402 6.48299ZM1.708 5.09599L2.697 4.10599L4.599 6.48299L4.084 6.99799L1.708 5.09599ZM16.55 11.726V8.24199L18.633 6.57499V13.393L16.55 11.726ZM1.368 6.57499L3.451 8.24199V11.726L1.368 13.393V6.57499ZM4.818 11.771V8.19699L5.798 7.21699H14.203L15.183 8.19699V11.771L14.202 12.752H5.798L4.818 11.771ZM15.402 13.485L15.918 12.97L18.294 14.871L17.303 15.862L15.402 13.485ZM1.68 14.893L4.084 12.97L4.599 13.485L2.69 15.872L1.68 14.893ZM10.684 14.118H14.157L15.825 16.202H10.684V14.118ZM5.844 14.118H9.317V16.202H4.176L5.844 14.118Z" fill="#001E28"/>
</svg>
