<svg width="20" height="20" viewBox="0 0 20 20" fill="none" xmlns="http://www.w3.org/2000/svg">
<g clip-path="url(#clip0_8438_68213)">
<path fill-rule="evenodd" clip-rule="evenodd" d="M2.469 3.39999L0 5.86799V14.02L2.469 16.489H17.518L19.987 14.02V5.86799L17.518 3.39999H2.469ZM2.653 5.14599L3.035 4.76499H16.953L17.235 5.04699L9.988 10.148L2.653 5.14599ZM13.31 9.47999L18.215 6.02799L18.62 6.43399V13.454L18.261 13.814L13.31 9.47999ZM1.366 13.454V6.43399L1.671 6.12999L6.637 9.51699L1.733 13.82L1.366 13.454ZM12.162 10.289L17.294 14.781L16.953 15.123H3.035L2.701 14.789L7.803 10.312L9.999 11.81L12.162 10.289Z" fill="#001E28"/>
</g>
<defs>
<clipPath id="clip0_8438_68213">
<rect width="20" height="20" fill="white"/>
</clipPath>
</defs>
</svg>
