<svg width="20" height="20" viewBox="0 0 20 20" fill="none" xmlns="http://www.w3.org/2000/svg">
<path d="M7.85714 2.28571C6.40714 2.28571 5.2895 3.5484 5.28878 5.86411C5.28878 7.37625 7.5773 11.2553 9.60659 14.6518C9.60659 5.85749 9.39 4.90499 7.85714 2.28571ZM12.1429 2.28571C10.58 4.85999 10.3934 5.85678 10.3934 14.6518C12.4227 11.2553 14.7112 7.37625 14.7112 5.86411C14.7105 3.54768 13.5929 2.28571 12.1429 2.28571ZM2.85714 5.14285C0.729286 6.62785 1.42922 10.1431 2.50279 11.291C3.21208 12.0339 5.96429 13.3714 8.57143 15.1428L2.85714 5.14285ZM17.1429 5.14285L11.4286 15.1428C14.0357 13.3714 16.7879 12.0339 17.4972 11.291C18.5708 10.1431 19.2707 6.62785 17.1429 5.14285ZM0 10.8571C0.0342857 14.8157 2.45057 15.8571 4.08343 15.8571H8.16546L0 10.8571ZM20 10.8571L11.8345 15.8571H15.9166C17.5494 15.8571 19.9657 14.8157 20 10.8571ZM2.22656 16.5714C2.45442 17.7528 2.96952 18.7143 4.45452 18.7143C5.93952 18.7143 7.37546 17.8571 8.16546 16.5714H2.22656ZM11.8345 16.5714C12.6245 17.8571 14.0605 18.7143 15.5455 18.7143C17.0305 18.7143 17.5456 17.7528 17.7734 16.5714H11.8345Z" fill="black"/>
</svg>
