<svg width="20" height="20" viewBox="0 0 20 20" fill="none" xmlns="http://www.w3.org/2000/svg">
<path d="M19.3496 1.71173H15.8455V0.650536C15.8455 0.292731 15.5528 0 15.1951 0H4.80487C4.44714 0 4.15447 0.292731 4.15447 0.650536V1.71173H0.650404C0.292671 1.71173 0 2.00446 0 2.36227V3.76499C0 6.69229 1.76015 9.27424 4.48768 10.3436L4.59337 10.3843C4.59337 10.3843 4.6137 10.3883 4.62183 10.3924C5.25597 11.8764 6.48766 13.0393 8.00809 13.5964V16.2472H7.36582C6.22761 16.2472 5.30486 17.1702 5.30486 18.3086V19.3495C5.30486 19.7073 5.59754 20 5.95527 20H14.0569C14.4146 20 14.7073 19.7073 14.7073 19.3495V18.3086C14.7073 17.1702 13.7845 16.2472 12.6463 16.2472H12.0041V13.5922C13.5203 13.0352 14.7481 11.8724 15.3781 10.3924C15.3862 10.3924 15.3984 10.3883 15.4065 10.3843L15.5163 10.3436C18.2399 9.27431 20 6.6925 20 3.76499V2.36227C20 2.00446 19.7073 1.71173 19.3496 1.71173ZM1.30081 3.76499V3.0128H4.15447V8.11134C4.15447 8.33495 4.17073 8.55045 4.19512 8.77001C2.41463 7.75355 1.30087 5.87102 1.30087 3.76911L1.30081 3.76499ZM13.4064 18.3126V18.703H6.6056V18.3126C6.6056 17.8939 6.94706 17.5523 7.36575 17.5523H12.6462C13.0649 17.5523 13.4064 17.8939 13.4064 18.3126ZM10.7032 16.2513H9.31301V13.9135C9.54066 13.942 9.76829 13.9582 10.0041 13.9582C10.2398 13.9582 10.4756 13.9379 10.7073 13.9135V16.2554L10.7032 16.2513ZM10 12.653C7.496 12.653 5.45529 10.616 5.45529 8.10738V1.29705H14.5405V8.10738C14.5405 10.6119 12.504 12.653 9.99584 12.653H10ZM18.6992 3.76513C18.6992 5.86725 17.5854 7.74974 15.8049 8.76604C15.8293 8.55054 15.8456 8.331 15.8456 8.10736V3.00883H18.6992L18.6992 3.76513Z" fill="#001E28"/>
</svg>
