<svg width="20" height="20" viewBox="0 0 20 20" fill="none" xmlns="http://www.w3.org/2000/svg">
<path d="M3.44336 20.0002H2.07031V6.20625H3.44336V20.0002ZM10.6855 20.0002H9.31348V16.548H10.6855V20.0002ZM17.9248 10.342V20.0002H16.5518V10.342H17.9248ZM10.6865 13.7961H12.7568V15.1691H10.6865V15.176H9.31348V15.1691H7.24023V13.7961H9.31348V0.000198364H10.6865V13.7961ZM17.9248 7.59004H20V8.96407H17.9248V8.96895H16.5518V8.96407H14.4814V7.59004H16.5518V0.000198364H17.9248V7.59004ZM3.44336 3.45235H5.5166V4.82637H3.44336V4.83223H2.07031V4.82637H0V3.45235H2.07031V0.000198364H3.44336V3.45235Z" fill="#001E28"/>
</svg>
