<svg width="24" height="16" viewBox="0 0 24 16" fill="none" xmlns="http://www.w3.org/2000/svg">
<g clip-path="url(#clip0_308_59)">
<g clip-path="url(#clip1_308_59)">
<path d="M0 16H24V0H0V16Z" fill="#F7F7F7"/>
<path d="M0 16H7.985V0H0V16Z" fill="#15694F"/>
<path d="M16.05 16H24.001V0H16.05V16Z" fill="#CE2931"/>
<path d="M11.9997 8.62895V8.98517H12.3587L12.7157 8.27373L11.9997 8.62895Z" fill="#FFD250"/>
<mask id="mask0_308_59" style="mask-type:luminance" maskUnits="userSpaceOnUse" x="0" y="0" width="24" height="16">
<path d="M0 0H24V16H0V0Z" fill="white"/>
</mask>
<g mask="url(#mask0_308_59)">
<path d="M12 9.87634C11.901 9.87634 11.821 9.79674 11.821 9.69823V8.9858C11.821 8.88729 11.901 8.80769 12 8.80769C12.099 8.80769 12.179 8.88729 12.179 8.9858V9.69823C12.179 9.79674 12.099 9.87634 12 9.87634Z" fill="#00C3A0"/>
<path d="M12 9.16409C11.297 9.16409 10.618 8.89444 10.088 8.40389C10.016 8.33623 10.011 8.22379 10.079 8.15215C10.146 8.08051 10.259 8.07653 10.332 8.1432C10.795 8.57106 11.388 8.80787 12 8.80787C12.612 8.80787 13.205 8.57106 13.668 8.1432C13.74 8.07653 13.854 8.07952 13.921 8.15215C13.988 8.22379 13.984 8.33623 13.912 8.40389C13.382 8.89444 12.703 9.16409 12 9.16409Z" fill="#00C3A0"/>
<path d="M12 9.87634C11.541 9.87634 11.096 9.74301 10.714 9.49027L10.913 9.19276C11.559 9.62062 12.441 9.62062 13.088 9.19276L13.286 9.49027C12.903 9.74301 12.459 9.87634 12 9.87634Z" fill="#00AADC"/>
<path d="M11.7163 7.47135L11.3213 8.0803L11.2543 8.2803L12.2833 8.04249L11.7163 7.47135Z" fill="#732D37"/>
<path d="M10.9043 8.47614C10.4313 8.47614 9.86228 8.08012 9.71228 7.19653L10.0653 7.13783C10.1903 7.87216 10.6443 8.12091 10.9173 8.11992C11.0013 8.11793 11.0883 8.08907 11.0943 8.03036C11.1033 7.95972 11.1053 7.9428 10.9173 7.88012C10.8163 7.84628 10.7003 7.80748 10.6193 7.71494C10.2923 7.3428 10.7353 6.94877 10.9483 6.75972C10.9863 6.72589 11.0013 6.69803 10.9973 6.68708C10.9863 6.65623 10.9153 6.61046 10.8363 6.61046C10.6093 6.61046 10.4363 6.4831 10.3863 6.27713C10.3343 6.06419 10.4323 5.84031 10.6203 5.7428L10.7843 6.06021C10.7403 6.0831 10.7233 6.14678 10.7343 6.19355C10.7383 6.21146 10.7493 6.25424 10.8363 6.25424C11.0553 6.25424 11.2643 6.3826 11.3323 6.56071C11.3613 6.63534 11.4043 6.83235 11.1873 7.02539C10.9513 7.23434 10.8113 7.39156 10.8893 7.48012C10.9063 7.50002 10.9823 7.52589 11.0323 7.5428C11.1933 7.59653 11.4933 7.69803 11.4503 8.07116C11.4243 8.30599 11.2133 8.46818 10.9273 8.47614H10.9043Z" fill="#AAD264"/>
<path d="M12.3584 6.49185C12.3584 6.49185 12.7154 5.77942 12.0004 5.4232C12.0004 5.4232 14.5064 5.06598 14.1484 8.27295C13.9134 8.08588 13.5644 7.7436 13.4394 7.47096L12.3584 6.84807V6.49185Z" fill="#874150"/>
<path d="M12 7.20418L13.79 8.27284L13.074 8.62906L12 7.5604V7.20418Z" fill="#732D37"/>
<path d="M11.2837 6.13523C11.4817 6.13523 11.6417 6.29543 11.6417 6.49145C11.4277 6.70439 11.3747 7.02877 11.5107 7.29842L11.5907 7.45961C11.6247 7.52628 11.6687 7.58697 11.7227 7.64071L12.7157 8.62976V8.13722C12.7157 7.52429 12.5727 6.91832 12.2967 6.37006C12.1157 6.00787 11.7427 5.77901 11.3357 5.77901H11.2837V6.13523Z" fill="#783C46"/>
<path d="M11.2837 5.77911L10.9257 6.13533V6.49155C10.9257 6.49155 11.3517 6.27662 11.4947 6.20796C11.5957 6.1602 11.5767 6.04777 11.5197 5.99304C11.4747 5.95025 11.2837 5.77911 11.2837 5.77911Z" fill="#FFD250"/>
<path d="M12 10.5886C10.322 10.5886 8.95697 9.23035 8.95697 7.5607H9.31397C9.31397 9.03433 10.519 10.2333 12 10.2333C13.48 10.2333 14.686 9.03433 14.686 7.5607H15.044C15.044 9.23035 13.678 10.5886 12 10.5886Z" fill="#AAD264"/>
<path d="M9.33394 8.37604C9.46794 8.37604 9.57694 8.48449 9.57694 8.61783C9.57694 8.75116 9.46794 8.85962 9.33394 8.85962C9.19994 8.85962 9.09094 8.75116 9.09094 8.61783C9.09094 8.48449 9.19994 8.37604 9.33394 8.37604Z" fill="#FFE15A"/>
<path d="M9.87105 9.22916C10.0051 9.22916 10.1141 9.33761 10.1141 9.47095C10.1141 9.60528 10.0051 9.71274 9.87105 9.71274C9.73705 9.71274 9.62805 9.60528 9.62805 9.47095C9.62805 9.33761 9.73705 9.22916 9.87105 9.22916Z" fill="#FFE15A"/>
<path d="M10.7437 9.87532C10.8777 9.87532 10.9867 9.98279 10.9867 10.1161C10.9867 10.2504 10.8777 10.3579 10.7437 10.3579C10.6097 10.3579 10.5007 10.2504 10.5007 10.1161C10.5007 9.98279 10.6097 9.87532 10.7437 9.87532Z" fill="#FFE15A"/>
<path d="M14.6913 8.37604C14.8263 8.37604 14.9343 8.48449 14.9343 8.61783C14.9343 8.75116 14.8263 8.85962 14.6913 8.85962C14.5573 8.85962 14.4493 8.75116 14.4493 8.61783C14.4493 8.48449 14.5573 8.37604 14.6913 8.37604Z" fill="#FFE15A"/>
<path d="M14.1543 9.22916C14.2883 9.22916 14.3973 9.33761 14.3973 9.47095C14.3973 9.60528 14.2883 9.71274 14.1543 9.71274C14.0193 9.71274 13.9113 9.60528 13.9113 9.47095C13.9113 9.33761 14.0193 9.22916 14.1543 9.22916Z" fill="#FFE15A"/>
<path d="M13.2812 9.87532C13.4162 9.87532 13.5242 9.98279 13.5242 10.1161C13.5242 10.2504 13.4162 10.3579 13.2812 10.3579C13.1472 10.3579 13.0392 10.2504 13.0392 10.1161C13.0392 9.98279 13.1472 9.87532 13.2812 9.87532Z" fill="#FFE15A"/>
<path d="M12.1786 10.0541H11.8206C11.6226 10.0541 11.4626 9.89493 11.4626 9.69891C11.4626 9.5009 11.6226 9.3417 11.8206 9.3417H12.1786C12.3766 9.3417 12.5366 9.5009 12.5366 9.69891C12.5366 9.89493 12.3766 10.0541 12.1786 10.0541Z" fill="#FFB478"/>
<path d="M13.4395 7.47136C13.5585 7.82061 13.8125 8.13902 14.1485 8.27335C14.5065 5.06638 12.0005 5.4226 12.0005 5.4226C13.7905 5.4226 13.4395 7.47136 13.4395 7.47136Z" fill="#9B4B5A"/>
</g>
</g>
</g>
<defs>
<clipPath id="clip0_308_59">
<rect width="24" height="16" fill="white"/>
</clipPath>
<clipPath id="clip1_308_59">
<rect width="24" height="16" fill="white"/>
</clipPath>
</defs>
</svg>
