<svg width="20" height="20" viewBox="0 0 20 20" fill="none" xmlns="http://www.w3.org/2000/svg">
<path fill-rule="evenodd" clip-rule="evenodd" d="M17.0061 2.91755C14.2088 0.121462 10.0223 -0.755074 6.33827 0.683969C2.6542 2.12301 0.170284 5.60509 0.00878141 9.55693C-0.152721 13.5088 2.03878 17.1819 5.59314 18.9168C8.68098 20.4226 12.3268 20.2314 15.2402 18.4109C18.1536 16.5903 19.9236 13.3973 19.9237 9.96182C19.931 7.3183 18.8805 4.78171 17.0061 2.91755ZM18.5496 9.96182C18.5517 11.1436 18.3095 12.3131 17.8382 13.3969C16.9496 13.3879 16.0674 13.2464 15.2206 12.9771C15.7218 10.8322 15.7336 8.60195 15.255 6.4519C14.9278 4.97501 14.3994 3.55001 13.6847 2.21678C16.657 3.65237 18.5468 6.661 18.5496 9.96182ZM11.6847 1.54579C12.7423 3.12652 13.4976 4.88966 13.9122 6.74579C14.3308 8.62491 14.337 10.5724 13.9305 12.4542C12.6836 11.8283 11.6017 10.9175 10.7725 9.79541C11.0226 8.13972 10.8636 6.44797 10.3092 4.86793C9.87535 3.64126 9.21361 2.50762 8.35878 1.52671C9.45863 1.3208 10.5878 1.32857 11.6847 1.54961V1.54579ZM3.89314 3.89312C4.73829 3.04245 5.7525 2.37853 6.87023 1.94426C7.61916 2.68612 8.23157 3.55409 8.67939 4.50839C6.82985 5.50199 5.21308 6.87805 3.93665 8.54503C3.02069 9.73729 2.282 11.0558 1.74352 12.4595C0.826755 9.42611 1.65278 6.13431 3.89314 3.89312ZM2.71375 14.5702C2.66489 14.4939 2.6168 14.4175 2.57023 14.3359C3.06062 12.5414 3.89461 10.8591 5.02596 9.38243C6.14673 7.91906 7.55662 6.70196 9.16795 5.80686C9.51905 7.03092 9.60365 8.31603 9.41604 9.57556C6.98216 11.3658 5.46364 14.14 5.26718 17.155C4.24209 16.4845 3.37162 15.6034 2.71375 14.5702ZM6.62062 17.8756C6.61533 16.7877 6.80937 15.708 7.19314 14.6901C8.53632 16.2225 10.1899 17.452 12.0443 18.2969C11.3629 18.4652 10.6637 18.55 9.96184 18.5496C8.81403 18.5527 7.67747 18.3234 6.62062 17.8756V17.8756ZM16.0344 16.0343C15.4222 16.6478 14.7209 17.1653 13.9542 17.5695C11.5479 16.7806 9.42418 15.3066 7.84352 13.3282C8.38346 12.411 9.08392 11.5983 9.91146 10.929C11.6787 13.1366 14.2802 14.515 17.0992 14.7374C16.787 15.2031 16.4303 15.6374 16.0344 16.0343V16.0343Z" fill="#001E28"/>
</svg>
