<svg width="192" height="32" viewBox="0 0 192 32" fill="none" xmlns="http://www.w3.org/2000/svg">
<g clip-path="url(#clip0_2_159)">
<path fill-rule="evenodd" clip-rule="evenodd" d="M56.3425 7.74805H47.2255C46.9406 7.74805 46.6677 7.86132 46.4661 8.06258L44.4104 10.1187C44.2091 10.3199 44.0958 10.5931 44.0958 10.8778V23.2117C44.0958 23.2708 44.1439 23.3189 44.2034 23.3189H46.6734C46.7325 23.3189 46.781 23.2708 46.781 23.2117V17.4129C46.781 17.1162 47.0211 16.8761 47.3178 16.8757H55.2646C55.3237 16.8757 55.3722 16.8276 55.3722 16.7685V14.2985C55.3722 14.2394 55.3237 14.1913 55.2646 14.1913H47.3174C47.0211 14.1909 46.781 13.9508 46.781 13.6545V10.9697C46.781 10.6733 47.0211 10.4328 47.3178 10.4328H56.3425C56.4016 10.4328 56.4497 10.3848 56.4497 10.3256V7.85562C56.4497 7.79614 56.4016 7.74805 56.3425 7.74805Z" fill="white"/>
<path fill-rule="evenodd" clip-rule="evenodd" d="M82.3904 14.7285C82.3904 15.0249 82.1503 15.2653 81.8536 15.2653H74.8746C74.5782 15.2653 74.3378 15.0249 74.3378 14.7285V10.9697C74.3378 10.6733 74.5782 10.4329 74.8746 10.4329H81.8546C82.151 10.4329 82.3914 10.6733 82.3914 10.9697L82.3904 14.7285ZM84.7617 10.1184L82.706 8.06229C82.5047 7.86103 82.2315 7.74811 81.9465 7.74811H74.7827C74.4977 7.74811 74.2245 7.86103 74.0232 8.06229L71.9675 10.1184C71.7659 10.3196 71.653 10.5932 71.653 10.8778V23.2118C71.653 23.2709 71.7011 23.319 71.7602 23.319H74.2306C74.2897 23.319 74.3378 23.2709 74.3378 23.2118V18.4855C74.3378 18.1891 74.5782 17.9487 74.8746 17.9487H81.8536C82.1499 17.9487 82.3904 18.1891 82.3904 18.4855L82.3914 23.2118C82.3914 23.2709 82.4395 23.319 82.4987 23.319H84.969C85.0285 23.319 85.0766 23.2709 85.0766 23.2164V10.8824C85.0766 10.5932 84.963 10.3196 84.7617 10.1184Z" fill="white"/>
<path fill-rule="evenodd" clip-rule="evenodd" d="M69.3134 23.319H61.8115C61.5269 23.319 61.2537 23.2058 61.052 23.0045L58.9963 20.9484C58.7951 20.7472 58.6818 20.474 58.6818 20.189V7.85539C58.6818 7.79626 58.7299 7.74817 58.7894 7.74817H61.2594C61.3189 7.74817 61.3669 7.79626 61.3669 7.85539V20.0974C61.3669 20.3938 61.6074 20.6343 61.9038 20.6343H69.3134C69.3729 20.6343 69.421 20.6823 69.421 20.7415V23.2115C69.421 23.271 69.3725 23.319 69.3134 23.319Z" fill="white"/>
<path fill-rule="evenodd" clip-rule="evenodd" d="M99.6783 16.5616L97.6226 14.5059C97.421 14.3042 97.1477 14.191 96.8631 14.191L90.8652 14.1931C90.5688 14.1931 90.328 13.9527 90.328 13.6563L90.3259 10.9697C90.3262 10.6733 90.5663 10.4329 90.8627 10.4329H99.3481C99.4076 10.4329 99.456 10.3848 99.456 10.3253V7.85568C99.456 7.7962 99.4076 7.74811 99.3481 7.74811H90.7711C90.4858 7.74811 90.213 7.86103 90.0113 8.06265L87.9556 10.1184C87.754 10.32 87.6411 10.5928 87.6411 10.8778L87.6436 13.7482C87.6436 14.0332 87.7568 14.3064 87.9581 14.5076L90.0138 16.5637C90.2154 16.765 90.4887 16.8783 90.7729 16.8783L96.7712 16.8761C97.0676 16.8761 97.308 17.1166 97.308 17.4133V20.0995C97.308 20.3959 97.0676 20.6363 96.7712 20.6363H88.2897C88.2306 20.6363 88.1829 20.6844 88.1829 20.7436V23.2139C88.1829 23.2734 88.2306 23.3215 88.2897 23.3215H96.8631C97.1477 23.3215 97.421 23.2082 97.6226 23.0069L99.6783 20.9509C99.8796 20.7496 99.9928 20.4764 99.9928 20.1914V17.3207C99.9928 17.0361 99.8796 16.7628 99.6783 16.5616Z" fill="white"/>
<path fill-rule="evenodd" clip-rule="evenodd" d="M130.583 16.5616L128.527 14.5059C128.325 14.3042 128.052 14.191 127.768 14.191L121.769 14.1931C121.473 14.1931 121.233 13.9527 121.233 13.6563L121.23 10.9697C121.23 10.6733 121.471 10.4329 121.767 10.4329H130.253C130.312 10.4329 130.36 10.3848 130.36 10.3253V7.85568C130.36 7.7962 130.312 7.74811 130.253 7.74811H121.675C121.39 7.74811 121.117 7.86103 120.916 8.06265L118.86 10.1184C118.659 10.32 118.546 10.5928 118.546 10.8778L118.548 13.7482C118.548 14.0332 118.661 14.3064 118.862 14.5076L120.918 16.5637C121.12 16.765 121.393 16.8783 121.677 16.8783L127.676 16.8761C127.972 16.8761 128.212 17.1166 128.212 17.4133V20.0995C128.212 20.3959 127.972 20.6363 127.676 20.6363H119.194C119.135 20.6363 119.087 20.6844 119.087 20.7436V23.2139C119.087 23.2734 119.135 23.3215 119.194 23.3215H127.768C128.052 23.3215 128.325 23.2082 128.527 23.0069L130.583 20.9509C130.784 20.7496 130.897 20.4764 130.897 20.1914V17.3207C130.897 17.0361 130.784 16.7628 130.583 16.5616Z" fill="white"/>
<path fill-rule="evenodd" clip-rule="evenodd" d="M136.147 10.9696C136.147 10.6732 136.387 10.4328 136.684 10.4328H144.633C144.692 10.4328 144.741 10.3847 144.741 10.3252V7.85556C144.741 7.79607 144.692 7.74799 144.633 7.74799H136.592C136.307 7.74799 136.034 7.86091 135.832 8.06252L133.777 10.1182C133.575 10.3199 133.462 10.5931 133.462 10.8777V20.1892C133.462 20.4741 133.575 20.7473 133.777 20.9486L135.832 23.0043C136.034 23.2056 136.307 23.3189 136.592 23.3189H144.633C144.692 23.3189 144.741 23.2708 144.741 23.2116V20.7413C144.741 20.6822 144.692 20.6341 144.633 20.6341H136.684C136.387 20.6341 136.147 20.3936 136.147 20.0973V10.9696Z" fill="white"/>
<path fill-rule="evenodd" clip-rule="evenodd" d="M158.046 20.0973C158.046 20.394 157.806 20.6341 157.509 20.6341H150.527C150.231 20.6341 149.99 20.394 149.99 20.0973V10.9697C149.99 10.6733 150.231 10.4328 150.527 10.4328H157.509C157.806 10.4328 158.046 10.6733 158.046 10.9697V20.0973ZM160.417 10.1187L158.361 8.06258C158.159 7.86132 157.887 7.74805 157.601 7.74805H150.434C150.15 7.74805 149.877 7.86132 149.675 8.06258L147.62 10.1187C147.418 10.3199 147.305 10.5931 147.305 10.8778V20.1892C147.305 20.4742 147.418 20.7474 147.62 20.9487L149.675 23.0044C149.877 23.206 150.15 23.3189 150.434 23.3189H157.601C157.887 23.3189 158.159 23.206 158.361 23.0044L160.417 20.9487C160.618 20.7474 160.731 20.4742 160.731 20.1892V10.8778C160.731 10.5931 160.618 10.3199 160.417 10.1187Z" fill="white"/>
<path fill-rule="evenodd" clip-rule="evenodd" d="M115.873 7.74805H113.403C113.344 7.74805 113.296 7.79614 113.296 7.85527L113.295 13.6545C113.295 13.9508 113.055 14.1913 112.758 14.1913H105.779C105.483 14.1913 105.242 13.9508 105.242 13.6545V7.85527C105.242 7.79614 105.194 7.74805 105.135 7.74805H102.665C102.606 7.74805 102.557 7.79614 102.557 7.85527V23.2117C102.557 23.2708 102.606 23.3189 102.665 23.3189H105.135C105.194 23.3189 105.242 23.2708 105.242 23.2117V17.4129C105.242 17.1162 105.483 16.8757 105.78 16.8757H112.758C113.054 16.8757 113.295 17.1162 113.295 17.4129L113.296 23.2117C113.296 23.2708 113.344 23.3189 113.403 23.3189H115.873C115.932 23.3189 115.981 23.2708 115.981 23.2117V7.85527C115.981 7.79614 115.932 7.74805 115.873 7.74805Z" fill="white"/>
<path fill-rule="evenodd" clip-rule="evenodd" d="M174.04 13.6562C174.04 13.9525 173.8 14.193 173.504 14.1933L166.517 14.1912C166.223 14.1912 165.983 13.9533 165.981 13.659V10.9646C165.983 10.6718 166.22 10.4353 166.512 10.4328H173.503C173.8 10.4328 174.04 10.6732 174.04 10.9696V13.6562ZM176.723 10.8777C176.723 10.5931 176.61 10.3199 176.408 10.1182L174.394 8.06252C174.192 7.86126 173.92 7.74799 173.635 7.74799H163.404C163.345 7.74799 163.296 7.79607 163.296 7.85556V23.2116C163.296 23.2711 163.344 23.3192 163.404 23.3192H165.874C165.933 23.3192 165.981 23.2711 165.981 23.2116V17.4078C165.983 17.1289 166.199 16.9013 166.472 16.8781H169.943L173.662 23.3192H176.763L173.043 16.8781H173.635C173.92 16.8781 174.192 16.7649 174.394 16.5636L176.408 14.5079C176.61 14.3063 176.723 14.033 176.723 13.7484V10.8777Z" fill="white"/>
<path fill-rule="evenodd" clip-rule="evenodd" d="M182.539 10.4328H191.559C191.618 10.4328 191.666 10.3848 191.666 10.3253V7.85527C191.666 7.79614 191.618 7.74805 191.559 7.74805H182.447C182.162 7.74805 181.889 7.86097 181.687 8.06223L179.632 10.1183C179.43 10.3196 179.317 10.5928 179.317 10.8778V20.1889C179.317 20.4738 179.43 20.7471 179.632 20.9487L181.687 23.0044C181.889 23.2057 182.162 23.3189 182.447 23.3189H191.559C191.618 23.3189 191.666 23.2708 191.666 23.2117V20.7414C191.666 20.6822 191.618 20.6341 191.559 20.6341H182.539C182.242 20.6341 182.002 20.3937 182.002 20.0973L182.002 17.4125C182.002 17.1161 182.242 16.8757 182.539 16.8757L188.874 16.8714C188.933 16.8714 188.982 16.8233 188.982 16.7639V14.2939C188.982 14.2344 188.933 14.1863 188.874 14.1863L182.539 14.1913C182.242 14.1909 182.002 13.9505 182.002 13.6541L182.002 10.9697C182.002 10.6733 182.242 10.4328 182.539 10.4328Z" fill="white"/>
<path fill-rule="evenodd" clip-rule="evenodd" d="M6.58351 17.1704C6.44138 16.3653 6.41182 15.5656 6.48021 14.7873L0.0594327 14.2255C-0.0570497 15.5528 -0.00468607 16.9164 0.23754 18.2892C0.479767 19.6628 0.896538 20.9619 1.46043 22.1698L7.302 19.4459C6.97108 18.7377 6.72529 17.9761 6.58351 17.1704Z" fill="white"/>
<path fill-rule="evenodd" clip-rule="evenodd" d="M8.58637 21.455L3.64958 25.5974C5.11541 27.3383 6.94635 28.7389 9.00065 29.7L11.7236 23.8605C10.5188 23.2966 9.44627 22.4759 8.58637 21.455Z" fill="white"/>
<path fill-rule="evenodd" clip-rule="evenodd" d="M17.1703 24.583C16.3649 24.7248 15.5652 24.7547 14.7865 24.6863L14.2248 31.1067C15.5524 31.2232 16.916 31.1712 18.2892 30.929C18.7398 30.8495 19.1819 30.7501 19.6161 30.634L17.9476 24.4084C17.6932 24.4765 17.4346 24.5363 17.1703 24.583Z" fill="white"/>
<path fill-rule="evenodd" clip-rule="evenodd" d="M13.9964 6.58409C15.1021 6.38889 16.1971 6.40278 17.2408 6.59656L20.01 0.64563C17.7651 -0.023342 15.3368 -0.195394 12.8775 0.23812C6.73209 1.32173 2.05997 5.88983 0.533585 11.5508L6.7588 13.2182C7.65397 9.89868 10.3926 7.21958 13.9964 6.58409Z" fill="white"/>
<path fill-rule="evenodd" clip-rule="evenodd" d="M21.4543 22.5807L25.5978 27.5168C26.6418 26.638 27.5637 25.6282 28.3417 24.5171L23.0654 20.8232C22.6091 21.4747 22.0666 22.0653 21.4543 22.5807Z" fill="white"/>
<path fill-rule="evenodd" clip-rule="evenodd" d="M31.106 14.2256L24.6852 14.787C24.7326 15.3249 24.7322 15.8575 24.6863 16.3807L31.1067 16.9429C31.1851 16.0505 31.1869 15.1422 31.106 14.2256Z" fill="white"/>
<path fill-rule="evenodd" clip-rule="evenodd" d="M22.8485 0L16.8531 12.8583L42.7716 0H22.8485Z" fill="#FF0046"/>
</g>
<defs>
<clipPath id="clip0_2_159">
<rect width="191.666" height="31.1663" fill="white"/>
</clipPath>
</defs>
</svg>
