<svg width="24" height="16" viewBox="0 0 24 16" fill="none" xmlns="http://www.w3.org/2000/svg">
<path d="M0 16H24V0H0V16ZM8.281 0.837811L8.23 1.41891L8.77 1.64876L8.198 1.77811L8.146 2.3592L7.845 1.85871L7.273 1.98905L7.658 1.55025L7.357 1.04975L7.897 1.27761L8.281 0.837811ZM3.052 4.26965L1.629 3.24279H3.389L3.931 1.57712L4.474 3.24279H6.232L4.811 4.27065L5.354 5.93433L3.931 4.90547L2.507 5.93433L3.052 4.26965ZM9.358 3.39602L8.779 3.29652L9.307 3.03881L9.224 2.46169L9.632 2.8806L10.158 2.62388L9.885 3.1393L10.292 3.55721L9.715 3.45771L9.441 3.97413L9.358 3.39602ZM9.29 5.69652L8.804 5.37114L9.39 5.34925L9.551 4.78905L9.751 5.33831L10.337 5.31642L9.876 5.67562L10.077 6.22388L9.589 5.89751L9.129 6.25771L9.29 5.69652ZM8.25 6.44577L8.222 7.04279L8.743 7.25373L8.172 7.39303L8.129 7.97413L7.828 7.49154L7.291 7.6398L7.646 7.19801L7.321 6.67662L7.756 6.85274L7.865 6.89453L8.241 6.45174V6.45871L8.25 6.44577Z" fill="#DD342C"/>
<path d="M6.23291 3.24089H4.47391L3.93091 1.57621L3.38691 3.24089H1.62891L3.05091 4.26974L2.50791 5.93442L3.93091 4.90556L5.35391 5.93442L4.80991 4.26974L6.23291 3.24089Z" fill="#FFE533"/>
<path d="M8.22971 1.41902L8.2807 0.837921L7.89671 1.27772L7.35671 1.04887L7.65871 1.54936L7.27271 1.99016L7.84471 1.85882L8.14671 2.35931L8.19771 1.77822L8.7697 1.64688L8.22971 1.41902Z" fill="#FFE533"/>
<path d="M9.88452 3.1389L10.1585 2.62348L9.63252 2.88019L9.22352 2.46129L9.30652 3.0384L8.78052 3.29611L9.35852 3.39561L9.44152 3.97372L9.71552 3.45731L10.2925 3.5578L9.88452 3.1389Z" fill="#FFE533"/>
<path d="M10.3372 5.31603L9.75122 5.33693L9.55022 4.78867L9.38922 5.34986L8.80322 5.37076L9.28922 5.69613L9.12822 6.25732L9.58922 5.89713L10.0762 6.22349L9.87522 5.67523L10.3372 5.31603Z" fill="#FFE533"/>
<path d="M8.22226 7.0427L8.25026 6.44568L8.24126 6.45663V6.45165L7.86526 6.89444L7.75626 6.85364L7.32026 6.67653L7.64526 7.19792L7.29126 7.63872L7.82826 7.49145L8.12826 7.97504L8.17126 7.39295L8.74126 7.25364L8.22226 7.0427Z" fill="#FFDE00"/>
</svg>
