<svg width="24" height="16" viewBox="0 0 24 16" fill="none" xmlns="http://www.w3.org/2000/svg">
<g clip-path="url(#clip0_986_17629)">
<path d="M3.45044 10.6916H24V0.000266075H3.45044V10.6916Z" fill="#CB2026"/>
<path d="M3.45044 15.9999H24V10.6916H3.45044V15.9999Z" fill="#119A48"/>
<path d="M1.82389 3.3492V3.49746H1.7439V3.6487H1.82389V3.79596H1.90289V3.6487H1.98189V3.49746H1.90289V3.3492H1.82389Z" fill="white"/>
<path d="M1.42595 3.3492V3.49746H1.34595V3.6487H1.42595V3.79596H1.50494V3.6487H1.58494V3.49746H1.50494V3.3492H1.42595Z" fill="white"/>
<path d="M0.94912 0.670732V1.04286H0.790124V1.415H0.630127V1.78713H0.790124V2.15926H0.94912V2.5304H1.10712V2.15926H1.26711V1.78713H1.42611V1.415H1.26711V1.04286H1.10712V0.670732H0.94912ZM0.94912 1.415H1.10712V1.78713H0.94912V1.415Z" fill="white"/>
<path d="M1.10742 2.06232e-05V0.299517H1.26642V0.670654H1.42642V1.04378H1.58541V1.41492H1.74341V1.04378H1.90341V0.670654H2.0624V0.299517H2.2214V2.06232e-05H1.10742ZM1.58541 0.224892H1.74341V0.670654H1.58541V0.224892Z" fill="white"/>
<path d="M2.22183 0.670732V1.04286H2.06283V1.415H1.90283V1.78713H2.06283V2.15926H2.22183V2.5304H2.37882V2.15926H2.53982V1.78713H2.69882V1.415H2.53982V1.04286H2.37882V0.670732H2.22183ZM2.22183 1.415H2.37982V1.78713H2.22183V1.415Z" fill="white"/>
<path d="M0.55119 3.3492V3.49746H0.471191V3.6487H0.55119V3.79596H0.630188V3.6487H0.709186V3.49746H0.630188V3.3492H0.55119Z" fill="white"/>
<path d="M2.69694 3.34831V3.49557H2.61694V3.64581H2.69694V3.79407H2.77594V3.64581H2.85494V3.49557H2.77594V3.34831H2.69694Z" fill="white"/>
<path d="M1.66469 6.77272H1.58569V6.94386H1.5057V7.29311H1.2667V7.59161H1.1077V7.8523H0.949707V7.99658V8.00354V8.14881H1.1077V8.40851H1.2667V8.70701H1.5057V9.05725H1.58569V9.22839H1.66469H1.74369V9.06024H1.82369V8.70701H2.06268V8.55975V8.40851H2.22168V8.14881H2.37968V7.99757V7.8523H2.22168V7.59161H2.06268V7.44137V7.29311H1.82369V6.93988H1.74369V6.77272H1.66469ZM1.58569 7.21848H1.74369V7.59062H1.58569V7.21848ZM1.74369 7.77768V7.66524H1.82369V7.51599H1.98269V7.73987H1.90369V7.8523H1.82369V7.99757V8.00255V8.14881H1.90369V8.26025H1.98269V8.48314H1.82369V8.33488H1.74369V8.22344H1.58569V8.33488H1.5057V8.48314H1.3457V8.26025H1.4267V8.14881H1.5057V8.00255V7.99757V7.8523H1.4267V7.73987H1.3457V7.51599H1.5057V7.66524H1.58569V7.77768H1.74369ZM1.98269 8.00255V7.99757V7.77768H2.14168V7.99757V8.00255V8.22344H1.98269V8.00255ZM1.1877 8.00255V7.99757V7.77768H1.3457V7.99757V8.00255V8.22344H1.1877V8.00255ZM1.58569 8.40851H1.74369V8.78064H1.58569V8.40851Z" fill="white"/>
<path d="M2.37995 2.28882e-05V0.299519H2.53895V0.670656H2.69994V1.04378H2.85794V1.41492H3.01694V1.78705H2.85694V2.15918H2.69994V2.53032H2.53895V2.90345H2.37995V3.27458H2.22195V2.90345H2.06196V2.53032H1.90296V2.15918H1.74396V1.78705H1.58497V2.15918H1.42597V2.53032H1.26697V2.90345H1.10698V3.27458H0.94898V2.90345H0.789984V2.53032H0.629987V2.15918H0.47099V1.78705H0.311994V1.41492H0.47099V1.04378H0.629987V0.670656H0.789984V0.299519H0.94898V2.28882e-05H0V15.9997H0.94898V15.7012H0.789984V15.3291H0.629987V14.9589H0.47099V14.5848H0.311994V14.2147H0.47099V13.8415H0.629987V13.4694H0.789984V13.0973H0.94898V12.7251H1.10698V13.0973H1.26697V13.4694H1.42597V13.8415H1.58497V14.2147H1.74396V13.8415H1.90296V13.4694H2.06196V13.0973H2.22195V12.7251H2.37995V13.0973H2.53895V13.4694H2.69994V13.8415H2.85694V14.2147H3.01694V14.5848H2.85794V14.9589H2.69994V15.3291H2.53895V15.7012H2.37995V15.9997H3.44893V10.6913V2.28882e-05H2.37995ZM2.85694 0.224894H3.01594V0.670656H2.85694V0.224894ZM0.312994 0.224894H0.47099V0.670656H0.312994V0.224894ZM2.85694 2.38206H3.01594V2.82882H2.85694V2.38206ZM1.58497 2.38206H1.74296V2.82882H1.58497V2.38206ZM0.312994 2.38206H0.47099V2.82882H0.312994V2.38206ZM2.45795 3.42284H2.53795V3.19896H2.61795V2.97608H2.85494V3.19896H2.93494V3.42284H3.01494V3.72034H2.93494V3.94323H2.85494V4.16611H2.61795V3.94323H2.53795V3.72034H2.45795V3.42284ZM1.74396 3.20095V2.97807H1.98196V3.20095H2.06196V3.42582H2.14196V3.72134H2.06196V3.94522H1.98196V4.16909H1.74396V3.94522H1.58497V4.16909H1.34597V3.94522H1.26697V3.72134H1.18698V3.42582H1.26697V3.20095H1.34597V2.97807H1.58497V3.20095H1.74396ZM0.312994 3.42582H0.391992V3.20095H0.47099V2.97807H0.709985V3.20095H0.789984V3.42582H0.868982V3.72134H0.789984V3.94522H0.709985V4.16909H0.47099V3.94522H0.391992V3.72134H0.312994V3.42582ZM1.74396 5.35912V5.28449V4.98599H1.90296V4.61485H2.06196V4.24272H2.22195V3.87059H2.37995V4.24272H2.53895V4.61485H2.69894V4.98599H2.85694V5.35912H3.01594V5.73025H2.85694V6.10238H2.69894V6.47551H2.53895V6.84665H2.37995V6.47551H2.22195V6.10238H2.06196V5.73025H2.22195V5.35912V5.28449H2.06196V5.35912V5.582H1.90296V6.17701H1.88096H1.82396V6.54914H1.88096H1.92496H1.98196H2.06196V6.84665H2.22295V7.06953H2.37995V7.44166H2.53895V7.06953H2.69994V6.84665H2.85694V6.62377H3.01594V7.29341H2.85694V7.59091H2.69994V7.8516H2.53895V7.99787V8.00185V8.14911H2.69994V8.40881H2.85694V8.7083H3.01594V9.37695H2.85694V9.15506H2.69994V8.93118H2.53895V8.55706H2.37995V8.93118H2.22195V9.15506H2.06196V9.45257H1.98196H1.92496H1.88096H1.82396V9.82271H1.88096H1.90296V10.4187H2.06196V10.6416V10.7152H2.22195V10.6416V10.2685H2.06196V9.89833H2.22195V9.5252H2.37995V9.15506H2.53895V9.5252H2.69894V9.89833H2.85694V10.2685H3.01594V10.6416H2.85694V11.0127H2.69894V11.3859H2.53895V11.758H2.37995V12.1301H2.22295V11.758H2.06196V11.3859H1.90296V11.0127H1.74396V10.7152V10.6416H1.58497V11.0127H1.42597V11.3859H1.26697V11.758H1.10698V12.1301H0.94898V11.758H0.789984V11.3869H0.629987V11.0127H0.47099V10.7152V10.6416H0.311994V10.2685H0.47099V9.89932H0.629987V9.5252H0.789984V9.15506H0.94898V9.5252H1.10698V9.89932H1.26697V10.2685H1.10698V10.7152H1.26697V10.6416V10.4187H1.42597V9.82271H1.50497L1.50697 9.45456L1.26697 9.45257V9.15506H1.10698V8.93118H0.94898V8.55706H0.789984V8.93118H0.629987V9.15506H0.47099V9.37695H0.311994V8.7083H0.47099V8.40881H0.629987V8.14911H0.789984V8.00185V7.99787V7.8516H0.629987V7.59091H0.47099V7.29341H0.311994V6.62377H0.47099V6.84665H0.629987V7.06953H0.789984V7.44266H0.94898V7.06953H1.10698V6.84665H1.26697V6.55113L1.50697 6.54616L1.50497 6.17701H1.42597V5.582H1.26697V5.35912V5.28449H1.10698V5.73025H1.26697V6.10238H1.10698V6.47452H0.94898V6.84665H0.789984V6.47452H0.629987V6.10238H0.47099V5.73025H0.311994V5.35912H0.47099V5.28449V4.98599H0.629987V4.61485H0.789984V4.24272H0.94898V3.87059H1.10698V4.24272H1.26697V4.61485H1.42597V4.98599H1.58497V5.35912H1.74396ZM2.85694 4.31735H3.01594V4.76311H2.85694V4.31735ZM1.58497 4.31735H1.74296V4.76311H1.58497V4.31735ZM0.312994 4.31735H0.47099V4.76311H0.312994V4.31735ZM2.85694 6.17701H3.01594V6.47452H2.85694V6.17701ZM0.312994 6.17701H0.47099V6.47452H0.312994V6.17701ZM2.85694 8.00185V7.99787V7.77797H3.01594V7.99787V8.00185V8.22374H2.85694V8.00185ZM0.312994 8.00185V7.99886V7.77797H0.47099V7.99886V8.00185V8.22374H0.312994V8.00185ZM2.85694 9.5252H3.01594V9.82271H2.85694V9.5252ZM0.312994 9.5252H0.47099V9.82271H0.312994V9.5252ZM2.85694 11.2366H3.01594V11.6834H2.85694V11.2366ZM1.58497 11.2366H1.74296V11.6834H1.58497V11.2366ZM0.312994 11.2366H0.47099V11.6834H0.312994V11.2366ZM1.74396 12.0565V11.8326H1.98196V12.0565H2.06196V12.2794H2.14196V12.5769H2.06196V12.8008H1.98196V13.0226H1.74396V12.8008H1.58497V13.0226H1.34597V12.8008H1.26697V12.5769H1.18698V12.2794H1.26697V12.0565H1.34597V11.8326H1.58497V12.0565H1.74396ZM0.311994 12.2794H0.391992V12.0565H0.47099V11.8326H0.709985V12.0565H0.789984V12.2794H0.868982V12.5769H0.789984V12.8008H0.709985V13.0226H0.47099V12.8008H0.391992V12.5769H0.311994V12.2794ZM2.45795 12.2804H2.53795V12.0575H2.61795V11.8346H2.85494V12.0575H2.93494V12.2804H3.01494V12.5779H2.93494V12.8018H2.85494V13.0246H2.61795V12.8018H2.53795V12.5779H2.45795V12.2804ZM2.85694 13.1699H3.01594V13.6167H2.85694V13.1699ZM1.58497 13.1699H1.74296V13.6167H1.58497V13.1699ZM0.312994 13.1699H0.47099V13.6167H0.312994V13.1699ZM2.85694 15.3291H3.01594V15.7738H2.85694V15.3291ZM0.312994 15.3291H0.47099V15.7738H0.312994V15.3291Z" fill="white"/>
<path d="M1.58517 14.585V14.9572H1.42617V15.3293H1.26517V15.7004H1.10718V15.9999H2.22115V15.7004H2.06216V15.3293H1.90316V14.9572H1.74316V14.585H1.58517ZM1.58517 15.3293H1.74316V15.7751H1.58517V15.3293Z" fill="white"/>
<path d="M1.42595 12.2039V12.3522H1.34595V12.5034H1.42595V12.6507H1.50494V12.5034H1.58494V12.3522H1.50494V12.2039H1.42595Z" fill="white"/>
<path d="M1.82389 12.2039V12.3522H1.7439V12.5034H1.82389V12.6507H1.90289V12.5034H1.98189V12.3522H1.90289V12.2039H1.82389Z" fill="white"/>
<path d="M0.94912 13.4693V13.8414H0.790124V14.2145H0.630127V14.5837H0.790124V14.9578H0.94912V15.3279H1.10712V14.9578H1.26711V14.5837H1.42611V14.2145H1.26711V13.8414H1.10712V13.4693H0.94912ZM0.94912 14.2145H1.10712V14.5857H0.94912V14.2145Z" fill="white"/>
<path d="M2.22183 13.4693V13.8414H2.06283V14.2145H1.90283V14.5837H2.06283V14.9578H2.22183V15.3279H2.37882V14.9578H2.53982V14.5837H2.69882V14.2145H2.53982V13.8414H2.37882V13.4693H2.22183ZM2.22183 14.2145H2.37982V14.5857H2.22183V14.2145Z" fill="white"/>
<path d="M0.55119 12.2039V12.3522H0.471191V12.5034H0.55119V12.6507H0.630188V12.5034H0.710186V12.3522H0.630188V12.2039H0.55119Z" fill="white"/>
<path d="M2.69694 12.2057V12.354H2.61694V12.5032H2.69694V12.6515H2.77594V12.5032H2.85494V12.354H2.77594V12.2057H2.69694Z" fill="white"/>
<path d="M2.61674 2.97575V3.19863H2.53774V3.4225H2.45874V3.72001H2.53774V3.94289H2.61674V4.16577H2.85473V3.94289H2.93573V3.72001H3.01473V3.4225H2.93573V3.19863H2.85473V2.97575H2.61674ZM2.61674 3.49713H2.69674V3.34788H2.77573V3.49713H2.85473V3.64538H2.77573V3.79463H2.69674V3.64538H2.61674V3.49713Z" fill="#CB2026"/>
<path d="M0.470985 2.97756V3.20044H0.391987V3.42432H0.312988V3.72182H0.391987V3.9447H0.470985V4.16858H0.70898V3.9447H0.789978V3.72182H0.868977V3.42432H0.789978V3.20044H0.70898V2.97756H0.470985ZM0.470985 3.49894H0.550983V3.34969H0.628982V3.49894H0.70898V3.6472H0.628982V3.79744H0.550983V3.6472H0.470985V3.49894Z" fill="#CB2026"/>
<path d="M1.98242 7.77744V7.99634V8.00231V8.22321H2.14142V8.00231V7.99634V7.77744H1.98242Z" fill="#CB2026"/>
<path d="M0.3125 4.76337H0.470497V4.3176H0.3125V4.76337Z" fill="#CB2026"/>
<path d="M1.58569 2.8291H1.74369V2.38235H1.58569V2.8291Z" fill="#CB2026"/>
<path d="M0.3125 2.8291H0.470497V2.38235H0.3125V2.8291Z" fill="#CB2026"/>
<path d="M1.74376 2.97756V3.20044H1.58576V2.97756H1.34576V3.20044H1.26677V3.42432H1.18677V3.72182H1.26677V3.9447H1.34576V4.16858H1.58576V3.9447H1.74376V4.16858H1.98175V3.9447H2.06275V3.72182H2.14175V3.42432H2.06275V3.20044H1.98175V2.97756H1.74376ZM1.74376 3.49894H1.82375V3.34969H1.90275V3.49894H1.98175V3.6472H1.90275V3.79744H1.82375V3.6472H1.74376V3.49894ZM1.34576 3.49894H1.42576V3.34969H1.50576V3.49894H1.58576V3.6472H1.50576V3.79744H1.42576V3.6472H1.34576V3.49894Z" fill="#CB2026"/>
<path d="M1.58569 7.59119H1.74369V7.21906H1.58569V7.59119Z" fill="#CB2026"/>
<path d="M0.3125 6.47479H0.470497V6.17729H0.3125V6.47479Z" fill="#CB2026"/>
<path d="M2.85693 7.77744V7.99634V8.00231V8.22321H3.01593V8.00231V7.99634V7.77744H2.85693Z" fill="#CB2026"/>
<path d="M0.312744 7.77744V7.99734V8.00132V8.22321H0.470741V8.00132V7.99734V7.77744H0.312744Z" fill="#CB2026"/>
<path d="M0.3125 9.823H0.470497V9.52549H0.3125V9.823Z" fill="#CB2026"/>
<path d="M1.1875 7.77744V7.99634V8.00231V8.22321H1.3455V8.00231V7.99634V7.77744H1.1875Z" fill="#CB2026"/>
<path d="M1.82369 7.51595V7.6652H1.74369V7.77764H1.5857V7.6652H1.5047V7.51595H1.3457V7.73982H1.4257V7.85127H1.5047V7.99753V8.00251V8.14877H1.4257V8.26021H1.3457V8.48309H1.5047V8.33484H1.5857V8.2234H1.74369V8.33484H1.82369V8.48309H1.98169V8.26021H1.90269V8.14877H1.82369V8.00251V7.99753V7.85127H1.90269V7.73982H1.98169V7.51595H1.82369Z" fill="#CB2026"/>
<path d="M1.58569 8.78119H1.74369V8.40906H1.58569V8.78119Z" fill="#CB2026"/>
<path d="M1.58569 4.76337H1.74369V4.3176H1.58569V4.76337Z" fill="#CB2026"/>
<path d="M2.22173 -2.3365e-05V0.299473H2.06273V0.67061H1.90273V1.04374H1.74374V1.41487H1.58574V1.04374H1.42574V0.67061H1.26675V0.299473H1.10775V-2.3365e-05H0.948754V0.299473H0.789758V0.67061H0.630761V1.04374H0.470764V1.41487H0.311768V1.787H0.470764V2.15914H0.630761V2.53027H0.789758V2.9034H0.948754V3.27454H1.10775V2.9034H1.26675V2.53027H1.42574V2.15914H1.58574V1.787H1.74374V2.15914H1.90273V2.53027H2.06273V2.9034H2.22073V3.27454H2.37872V2.9034H2.53972V2.53027H2.69872V2.15914H2.85571V1.787H3.01771V1.41487H2.85671V1.04374H2.69872V0.67061H2.53972V0.299473H2.37872V-2.3365e-05H2.22173ZM1.90273 1.41487H2.06273V1.04374H2.22173V0.67061H2.37872V1.04374H2.53972V1.41487H2.69872V1.787H2.53972V2.15914H2.37872V2.53027H2.22173V2.15914H2.06273V1.787H1.90273V1.41487ZM0.630761 1.41487H0.789758V1.04374H0.948754V0.67061H1.10775V1.04374H1.26675V1.41487H1.42574V1.787H1.26675V2.15914H1.10775V2.53027H0.948754V2.15914H0.789758V1.787H0.630761V1.41487Z" fill="#CB2026"/>
<path d="M2.85669 0.670959H3.01569V0.225198H2.85669V0.670959Z" fill="#CB2026"/>
<path d="M0.948486 1.78735H1.10648V1.41522H0.948486V1.78735Z" fill="#CB2026"/>
<path d="M2.22168 1.78735H2.37968V1.41522H2.22168V1.78735Z" fill="#CB2026"/>
<path d="M1.58569 0.670959H1.74369V0.225198H1.58569V0.670959Z" fill="#CB2026"/>
<path d="M0.3125 0.670959H0.470497V0.225198H0.3125V0.670959Z" fill="#CB2026"/>
<path d="M2.85669 2.8291H3.01569V2.38235H2.85669V2.8291Z" fill="#CB2026"/>
<path d="M2.85669 4.76337H3.01569V4.3176H2.85669V4.76337Z" fill="#CB2026"/>
<path d="M2.85669 6.47479H3.01569V6.17729H2.85669V6.47479Z" fill="#CB2026"/>
<path d="M2.85669 9.823H3.01569V9.52549H2.85669V9.823Z" fill="#CB2026"/>
<path d="M2.85669 15.7751H3.01569V15.3293H2.85669V15.7751Z" fill="#CB2026"/>
<path d="M2.22073 3.87035V4.24248H2.06273V4.61461H1.90273V4.98575H1.74374V5.28425V5.35888H1.58574V4.98575H1.42574V4.61461H1.26675V4.24248H1.10875V3.87035H0.948754V4.24248H0.789758V4.61461H0.630761V4.98575H0.470764V5.28425V5.35888H0.311768V5.73001H0.470764V6.10414H0.630761V6.47428H0.789758V6.8474H0.948754V6.47428H1.10875V6.10414H1.26675V5.73001H1.10875V5.28425H1.26675V5.35888V5.58176H1.42574V6.17677H1.50574L1.50674 6.54592L1.26675 6.5499V6.8474H1.10875V7.07029H0.948754V7.44242H0.789758V7.07029H0.630761V6.8474H0.470764V6.62452H0.311768V7.29317H0.470764V7.59167H0.630761V7.85136H0.789758V7.99763V8.0026V8.14887H0.630761V8.40857H0.470764V8.70707H0.311768V9.37671H0.470764V9.15382H0.630761V8.93094H0.789758V8.55881H0.948754V8.93094H1.10875V9.15382H1.26675V9.45233L1.50674 9.45432L1.50574 9.82147H1.42574V10.4185H1.26675V10.6414V10.716H1.10875V10.2692H1.26675V9.89809H1.10875V9.52596H0.948754V9.15382H0.789758V9.52596H0.630761V9.89809H0.470764V10.2692H0.311768V10.6414H0.470764V10.716V11.0125H0.630761V11.3866H0.789758V11.7578H0.948754V12.1299H1.10875V11.7578H1.26675V11.3856H1.42574V11.0125H1.58574V10.6414H1.74374V10.716V11.0125H1.90273V11.3856H2.06273V11.7578H2.22173V12.1299H2.37972V11.7578H2.53972V11.3856H2.69772V11.0125H2.85671V10.6414H3.01671V10.2692H2.85671V9.89709H2.69772V9.52596H2.53972V9.15382H2.37972V9.52596H2.22073V9.89709H2.06273V10.2692H2.22073V10.6414V10.716H2.06273V10.6414V10.4185H1.90273V9.82147H1.88173H1.82374V9.45233H1.88173H1.92473H1.98173H2.06273V9.15382H2.22073V8.93094H2.37972V8.55881H2.53972V8.93094H2.69872V9.15382H2.85671V9.37671H3.01671V8.70707H2.85671V8.40857H2.69872V8.14887H2.53972V8.0026V7.99763V7.85136H2.69872V7.59167H2.85671V7.29317H3.01671V6.62452H2.85671V6.8474H2.69872V7.07029H2.53972V7.44142H2.37972V7.07029H2.22173V6.8474H2.06273V6.5489H1.98173H1.92473H1.88173H1.82374V6.17677H1.88173H1.90273V5.58176H2.06273V5.35888V5.28425H2.22073V5.35888V5.73001H2.06273V6.10414H2.22073V6.47527H2.37972V6.8474H2.53972V6.47527H2.69772V6.10414H2.85671V5.73001H3.01671V5.35888H2.85671V4.98575H2.69772V4.61461H2.53972V4.24248H2.37972V3.87035H2.22073ZM0.948754 8.0036V7.99663V7.85136H1.10875V7.59167H1.26675V7.29317H1.50574V6.94392H1.58574V6.77278H1.66474H1.74374V6.93994H1.82374V7.29317H2.06273V7.44142V7.59167H2.22173V7.85136H2.37972V7.99763V8.14887H2.22173V8.40857H2.06273V8.55881V8.70707H1.82374V9.0593H1.74374V9.22845H1.66474H1.58574V9.05731H1.50574V8.70707H1.26675V8.40857H1.10875V8.14887H0.948754V8.0036Z" fill="#CB2026"/>
<path d="M1.58569 15.7751H1.74369V15.3293H1.58569V15.7751Z" fill="#CB2026"/>
<path d="M2.85669 11.6837H3.01569V11.2369H2.85669V11.6837Z" fill="#CB2026"/>
<path d="M2.85669 13.6179H3.01569V13.1712H2.85669V13.6179Z" fill="#CB2026"/>
<path d="M2.61674 11.8341V12.057H2.53774V12.2789H2.45874V12.5774H2.53774V12.8012H2.61674V13.0231H2.85473V12.8012H2.93573V12.5774H3.01473V12.2789H2.93573V12.057H2.85473V11.8341H2.61674ZM2.61674 12.3545H2.69674V12.2062H2.77573V12.3545H2.85473V12.5027H2.77573V12.652H2.69674V12.5027H2.61674V12.3545Z" fill="#CB2026"/>
<path d="M2.22073 12.7251V13.0973H2.06273V13.4694H1.90273V13.8415H1.74374V14.2147H1.58574V13.8415H1.42574V13.4694H1.26675V13.0973H1.10875V12.7251H0.948754V13.0973H0.789758V13.4694H0.630761V13.8415H0.470764V14.2147H0.311768V14.5848H0.470764V14.9589H0.630761V15.3291H0.789758V15.7012H0.948754V15.9997H1.10875V15.7012H1.26675V15.3291H1.42574V14.9589H1.58574V14.5848H1.74374V14.9589H1.90273V15.3291H2.06273V15.7012H2.22173V15.9997H2.37972V15.7012H2.53972V15.3291H2.69872V14.9589H2.85771V14.5848H3.01671V14.2147H2.85671V13.8415H2.69872V13.4694H2.53972V13.0973H2.37972V12.7251H2.22073ZM1.90273 14.2147H2.06273V13.8415H2.22173V13.4694H2.37972V13.8415H2.53972V14.2147H2.69872V14.5848H2.53972V14.9589H2.37972V15.3291H2.22173V14.9589H2.06273V14.5848H1.90273V14.2147ZM0.630761 14.2147H0.789758V13.8415H0.948754V13.4694H1.10875V13.8415H1.26675V14.2147H1.42574V14.5848H1.26675V14.9589H1.10875V15.3291H0.948754V14.9589H0.789758V14.5848H0.630761V14.2147Z" fill="#CB2026"/>
<path d="M1.74376 11.8323V12.0552H1.58576V11.8323H1.34576V12.0552H1.26677V12.2791H1.18677V12.5766H1.26677V12.7995H1.34576V13.0223H1.58576V12.7995H1.74376V13.0223H1.98175V12.7995H2.06275V12.5766H2.14175V12.2791H2.06275V12.0552H1.98175V11.8323H1.74376ZM1.74376 12.3527H1.82375V12.2044H1.90275V12.3527H1.98175V12.502H1.90275V12.6522H1.82375V12.502H1.74376V12.3527ZM1.34576 12.3527H1.42576V12.2044H1.50576V12.3527H1.58576V12.502H1.50576V12.6522H1.42576V12.502H1.34576V12.3527Z" fill="#CB2026"/>
<path d="M0.471253 11.8323V12.0552H0.392254V12.2791H0.312256V12.5766H0.392254V12.7995H0.471253V13.0223H0.709248V12.7995H0.790246V12.5766H0.869244V12.2791H0.790246V12.0552H0.709248V11.8323H0.471253ZM0.471253 12.3527H0.551251V12.2044H0.629249V12.3527H0.709248V12.502H0.629249V12.6522H0.551251V12.502H0.471253V12.3527Z" fill="#CB2026"/>
<path d="M1.58569 13.6179H1.74369V13.1712H1.58569V13.6179Z" fill="#CB2026"/>
<path d="M0.948486 14.5851H1.10648V14.213H0.948486V14.5851Z" fill="#CB2026"/>
<path d="M0.3125 13.6179H0.470497V13.1712H0.3125V13.6179Z" fill="#CB2026"/>
<path d="M1.58569 11.6837H1.74369V11.2369H1.58569V11.6837Z" fill="#CB2026"/>
<path d="M0.3125 11.6837H0.470497V11.2369H0.3125V11.6837Z" fill="#CB2026"/>
<path d="M2.22168 14.5851H2.37968V14.213H2.22168V14.5851Z" fill="#CB2026"/>
<path d="M0.3125 15.7751H0.470497V15.3293H0.3125V15.7751Z" fill="#CB2026"/>
</g>
<defs>
<clipPath id="clip0_986_17629">
<rect width="24" height="16" fill="white"/>
</clipPath>
</defs>
</svg>
