<svg width="24" height="16" viewBox="0 0 24 16" fill="none" xmlns="http://www.w3.org/2000/svg">
<g clip-path="url(#clip0_986_17701)">
<mask id="mask0_986_17701" style="mask-type:luminance" maskUnits="userSpaceOnUse" x="0" y="0" width="24" height="16">
<path d="M0 16H24V1.90735e-06H0V16Z" fill="white"/>
</mask>
<g mask="url(#mask0_986_17701)">
<path d="M7.88276 5.49154C7.94576 5.92637 8.31776 6.31642 8.88576 6.15921C9.50876 5.98707 10.3128 6.45572 10.4078 7.21194C10.4778 7.76319 11.0658 8.39105 11.8358 8.07861C11.8578 8.06368 11.8788 8.04677 11.8988 8.03085C11.8958 8.0209 11.8928 8.01095 11.8928 8C11.8928 7.99005 11.8958 7.9801 11.8988 7.97114C11.8718 7.95323 11.8438 7.93532 11.8198 7.91642C10.6938 7.35523 10.1708 6.0209 10.6508 4.83881C11.0518 3.84876 12.0568 3.23582 13.1258 3.32836C12.7298 3.52239 12.4718 3.99503 12.7978 4.48358C13.1538 5.0199 12.9548 5.92637 12.2608 6.24975C11.7558 6.48657 11.3388 7.23582 11.8738 7.86965C11.8948 7.88458 11.9178 7.8995 11.9398 7.91443C11.9558 7.90249 11.9748 7.89453 11.9968 7.89453C12.0058 7.86368 12.0138 7.83184 12.0238 7.80299C12.2128 6.56518 13.3268 5.65771 14.6048 5.74528C15.6748 5.8199 16.5708 6.5811 16.8128 7.62189C16.5058 7.30647 15.9738 7.20896 15.6068 7.66866C15.2048 8.17114 14.2778 8.26269 13.7538 7.70647C13.3718 7.30149 12.5258 7.13731 12.0868 7.8398C12.0778 7.86468 12.0698 7.89055 12.0638 7.91642C12.0788 7.92836 12.0918 7.94229 12.0998 7.9612C12.1328 7.9602 12.1658 7.9602 12.1988 7.9612C13.4398 7.75821 14.6498 8.53234 14.9598 9.76816C15.2188 10.804 14.7688 11.8876 13.8488 12.4368C14.0548 12.0498 13.9848 11.5164 13.4318 11.3104C12.8258 11.0876 12.4528 10.2368 12.8218 9.56816C13.0908 9.08159 12.9868 8.23085 12.1798 8.03184C12.1538 8.03184 12.1268 8.03383 12.1008 8.03383C12.0938 8.05274 12.0828 8.06866 12.0678 8.08159C12.0788 8.11244 12.0898 8.14527 12.0988 8.17612C12.6748 9.28756 12.3098 10.6726 11.2248 11.3463C10.3148 11.9144 9.13976 11.8209 8.32976 11.1214C8.76476 11.196 9.25276 10.9642 9.27776 10.3791C9.30576 9.73532 10.0028 9.1194 10.7548 9.26368C11.3038 9.36717 12.0838 9.00498 12.0248 8.1801C12.0168 8.15522 12.0078 8.13134 11.9988 8.10647C11.9778 8.10647 11.9598 8.09851 11.9438 8.08856C11.9168 8.10945 11.8898 8.12836 11.8618 8.14726C10.9778 9.03682 9.54176 9.11841 8.56176 8.3005C7.73876 7.61393 7.46376 6.47463 7.88276 5.49154ZM-0.000244141 16H23.9998V1.90735e-06H-0.000244141V16Z" fill="#ED2F31"/>
</g>
<mask id="mask1_986_17701" style="mask-type:luminance" maskUnits="userSpaceOnUse" x="0" y="0" width="24" height="16">
<path d="M0 16H24V1.90735e-06H0V16Z" fill="white"/>
</mask>
<g mask="url(#mask1_986_17701)">
<path d="M11.6149 4.72522L11.8339 4.91726L12.0859 4.76999L11.9689 5.03666L12.1879 5.2287L11.8969 5.20183L11.7809 5.4685L11.7179 5.18392L11.4269 5.15706L11.6779 5.0088L11.6149 4.72522ZM11.4579 5.45656L11.5179 5.49437C11.0789 6.14213 11.0959 7.28342 11.8739 7.86949C11.3389 7.23566 11.7559 6.48641 12.2609 6.24959C12.9549 5.92621 13.1549 5.01974 12.7979 4.48342C12.4719 3.99487 12.7299 3.52223 13.1259 3.3282C12.0569 3.23566 11.0529 3.8486 10.6509 4.83865C10.1709 6.02074 10.6939 7.35507 11.8199 7.91626C10.9759 7.27546 11.0379 6.05258 11.4579 5.45656Z" fill="white"/>
</g>
<mask id="mask2_986_17701" style="mask-type:luminance" maskUnits="userSpaceOnUse" x="0" y="0" width="24" height="16">
<path d="M0 16H24V1.90735e-06H0V16Z" fill="white"/>
</mask>
<g mask="url(#mask2_986_17701)">
<path d="M11.7173 5.18444L11.7803 5.46802L11.8973 5.20135L12.1883 5.22921L11.9683 5.03717L12.0853 4.76951L11.8333 4.91777L11.6143 4.72573L11.6773 5.00931L11.4263 5.15657L11.7173 5.18444Z" fill="#ED2224"/>
</g>
<mask id="mask3_986_17701" style="mask-type:luminance" maskUnits="userSpaceOnUse" x="0" y="0" width="24" height="16">
<path d="M0 16H24V1.90735e-06H0V16Z" fill="white"/>
</mask>
<g mask="url(#mask3_986_17701)">
<path d="M11.9394 7.91374C11.9174 7.89882 11.8954 7.88489 11.8744 7.86897C11.0954 7.2829 11.0794 6.1426 11.5174 5.49384L11.4584 5.45603C11.0384 6.05305 10.9754 7.27494 11.8194 7.91573C11.8444 7.93464 11.8724 7.95255 11.8984 7.97046C11.9054 7.94658 11.9194 7.92767 11.9394 7.91374Z" fill="#ED2224"/>
</g>
<mask id="mask4_986_17701" style="mask-type:luminance" maskUnits="userSpaceOnUse" x="0" y="0" width="24" height="16">
<path d="M0 16H24V1.90735e-06H0V16Z" fill="white"/>
</mask>
<g mask="url(#mask4_986_17701)">
<path d="M14.6034 6.86192L14.5404 6.57834L14.7594 6.77038L15.0114 6.62312L14.8944 6.88978L15.1134 7.08282L14.8224 7.05496L14.7064 7.32163L14.6434 7.03705L14.3524 7.00919L14.6034 6.86192ZM14.2634 6.70073L14.2454 6.76939C13.4904 6.55446 12.4054 6.92262 12.0864 7.84003C12.5254 7.13755 13.3714 7.30073 13.7534 7.7067C14.2774 8.26292 15.2054 8.17138 15.6064 7.66789C15.9744 7.20819 16.5054 7.3067 16.8124 7.62113C16.5714 6.58133 15.6744 5.82013 14.6044 5.74551C13.3264 5.65695 12.2124 6.56441 12.0234 7.80222C12.3754 6.8062 13.5634 6.48779 14.2634 6.70073Z" fill="white"/>
</g>
<mask id="mask5_986_17701" style="mask-type:luminance" maskUnits="userSpaceOnUse" x="0" y="0" width="24" height="16">
<path d="M0 16H24V1.90735e-06H0V16Z" fill="white"/>
</mask>
<g mask="url(#mask5_986_17701)">
<path d="M14.7062 7.32153L14.8222 7.05487L15.1132 7.08273L14.8942 6.88969L15.0122 6.62303L14.7602 6.77029L14.5402 6.57825L14.6032 6.86183L14.3522 7.01009L14.6442 7.03696L14.7062 7.32153Z" fill="#ED2224"/>
</g>
<mask id="mask6_986_17701" style="mask-type:luminance" maskUnits="userSpaceOnUse" x="0" y="0" width="24" height="16">
<path d="M0 16H24V1.90735e-06H0V16Z" fill="white"/>
</mask>
<g mask="url(#mask6_986_17701)">
<path d="M12.0634 7.91577C12.0704 7.8909 12.0774 7.86403 12.0854 7.84015C12.4054 6.92274 13.4904 6.55458 14.2454 6.7695L14.2634 6.70085C13.5634 6.48791 12.3754 6.80632 12.0234 7.80234C12.0134 7.83219 12.0054 7.86304 11.9974 7.89388L12.0004 7.89289C12.0244 7.89289 12.0444 7.90284 12.0634 7.91577Z" fill="#ED2224"/>
</g>
<mask id="mask7_986_17701" style="mask-type:luminance" maskUnits="userSpaceOnUse" x="0" y="0" width="24" height="16">
<path d="M0 16H24V1.90735e-06H0V16Z" fill="white"/>
</mask>
<g mask="url(#mask7_986_17701)">
<path d="M9.00235 7.20496L8.93935 6.92038L9.15835 7.11342L9.41035 6.96615L9.29335 7.23282L9.51235 7.42486L9.22135 7.397L9.10535 7.66367L9.04135 7.38008L8.75035 7.35222L9.00235 7.20496ZM8.56135 8.30048C9.54235 9.11839 10.9783 9.0368 11.8623 8.14725C10.9893 8.74526 9.84135 8.30745 9.40135 7.72635L9.45635 7.68158C9.93935 8.2975 11.0353 8.63481 11.8353 8.07859C11.0653 8.39003 10.4783 7.76317 10.4083 7.21192C10.3133 6.45571 9.50835 5.98605 8.88535 6.15919C8.31735 6.31541 7.94535 5.92536 7.88235 5.49153C7.46335 6.47461 7.73935 7.61391 8.56135 8.30048Z" fill="white"/>
</g>
<mask id="mask8_986_17701" style="mask-type:luminance" maskUnits="userSpaceOnUse" x="0" y="0" width="24" height="16">
<path d="M0 16H24V1.90735e-06H0V16Z" fill="white"/>
</mask>
<g mask="url(#mask8_986_17701)">
<path d="M9.10498 7.66418L9.22198 7.39752L9.51198 7.42538L9.29298 7.23234L9.40998 6.96568L9.15798 7.11394L8.93898 6.9209L9.00198 7.20548L8.75098 7.35274L9.04198 7.3806L9.10498 7.66418Z" fill="#ED2224"/>
</g>
<mask id="mask9_986_17701" style="mask-type:luminance" maskUnits="userSpaceOnUse" x="0" y="0" width="24" height="16">
<path d="M0 16H24V1.90735e-06H0V16Z" fill="white"/>
</mask>
<g mask="url(#mask9_986_17701)">
<path d="M9.45622 7.68212L9.40222 7.7259C9.84122 8.30799 10.9892 8.7458 11.8622 8.14779C11.8902 8.12889 11.9162 8.10899 11.9432 8.08809C11.9222 8.07516 11.9072 8.05526 11.8992 8.03138C11.8782 8.0473 11.8572 8.06421 11.8362 8.07814C11.0362 8.63436 9.94022 8.29804 9.45622 7.68212Z" fill="#ED2224"/>
</g>
<mask id="mask10_986_17701" style="mask-type:luminance" maskUnits="userSpaceOnUse" x="0" y="0" width="24" height="16">
<path d="M0 16H24V1.90735e-06H0V16Z" fill="white"/>
</mask>
<g mask="url(#mask10_986_17701)">
<path d="M14.2461 10.4243L13.9551 10.3965L13.8401 10.6622L13.7751 10.3796L13.4841 10.3517L13.7361 10.2034L13.6741 9.91887L13.8921 10.1129L14.1431 9.96563L14.0271 10.2323L14.2461 10.4243ZM13.9401 9.74076L13.8701 9.74474C13.8431 8.96464 13.1541 8.05121 12.1801 8.0323C12.9861 8.23031 13.0921 9.08106 12.8221 9.56862C12.4521 10.2373 12.8261 11.087 13.4331 11.3109C13.9841 11.5169 14.0561 12.0502 13.8501 12.4363C14.7681 11.888 15.2201 10.8044 14.9601 9.76862C14.6491 8.5328 13.4391 7.75867 12.1991 7.96066C13.2591 7.98852 13.9291 9.01339 13.9401 9.74076Z" fill="white"/>
</g>
<mask id="mask11_986_17701" style="mask-type:luminance" maskUnits="userSpaceOnUse" x="0" y="0" width="24" height="16">
<path d="M0 16H24V1.90735e-06H0V16Z" fill="white"/>
</mask>
<g mask="url(#mask11_986_17701)">
<path d="M13.8917 10.1123L13.6727 9.91931L13.7367 10.2039L13.4857 10.3512L13.7767 10.38L13.8387 10.6626L13.9547 10.3959L14.2457 10.4238L14.0277 10.2318L14.1437 9.96608L13.8917 10.1123Z" fill="#ED2224"/>
</g>
<mask id="mask12_986_17701" style="mask-type:luminance" maskUnits="userSpaceOnUse" x="0" y="0" width="24" height="16">
<path d="M0 16H24V1.90735e-06H0V16Z" fill="white"/>
</mask>
<g mask="url(#mask12_986_17701)">
<path d="M12.1075 7.99984C12.1075 8.01178 12.1045 8.02273 12.1005 8.03367C12.1275 8.03367 12.1535 8.03168 12.1795 8.03168C13.1545 8.05059 13.8425 8.96402 13.8705 9.74512L13.9405 9.74114C13.9285 9.01278 13.2585 7.9879 12.1995 7.96104C12.1665 7.96004 12.1325 7.96004 12.0995 7.96104C12.1045 7.97298 12.1075 7.98591 12.1075 7.99984Z" fill="#ED2224"/>
</g>
<mask id="mask13_986_17701" style="mask-type:luminance" maskUnits="userSpaceOnUse" x="0" y="0" width="24" height="16">
<path d="M0 16H24V1.90735e-06H0V16Z" fill="white"/>
</mask>
<g mask="url(#mask13_986_17701)">
<path d="M10.3773 10.8752L10.3143 10.5916L10.0233 10.5637L10.2743 10.4164L10.2113 10.1319L10.4303 10.3239L10.6823 10.1766L10.5653 10.4423L10.7843 10.6363L10.4933 10.6075L10.3773 10.8752ZM10.9363 10.3747L10.9103 10.31C11.6483 10.0413 12.3083 9.10898 12.0243 8.18062C12.0843 9.0055 11.3033 9.36669 10.7543 9.26321C10.0023 9.11893 9.30632 9.73485 9.27732 10.3786C9.25232 10.9647 8.76432 11.1955 8.33032 11.1219C9.14032 11.8204 10.3153 11.913 11.2243 11.3468C12.3093 10.6722 12.6753 9.28709 12.0983 8.17664C12.4003 9.18759 11.6273 10.1378 10.9363 10.3747Z" fill="white"/>
</g>
<mask id="mask14_986_17701" style="mask-type:luminance" maskUnits="userSpaceOnUse" x="0" y="0" width="24" height="16">
<path d="M0 16H24V1.90735e-06H0V16Z" fill="white"/>
</mask>
<g mask="url(#mask14_986_17701)">
<path d="M10.5659 10.4436L10.6819 10.176L10.4309 10.3242L10.2119 10.1322L10.2749 10.4158L10.0229 10.5631L10.3139 10.5899L10.3779 10.8755L10.4939 10.6088L10.7849 10.6347L10.5659 10.4436Z" fill="#ED2224"/>
</g>
<mask id="mask15_986_17701" style="mask-type:luminance" maskUnits="userSpaceOnUse" x="0" y="0" width="24" height="16">
<path d="M0 16H24V1.90735e-06H0V16Z" fill="white"/>
</mask>
<g mask="url(#mask15_986_17701)">
<path d="M12 8.10685H11.999C12.007 8.13073 12.017 8.15561 12.024 8.18048C12.308 9.10884 11.648 10.0412 10.91 10.3088L10.936 10.3745C11.627 10.1377 12.399 9.18745 12.099 8.1765C12.089 8.14466 12.079 8.11282 12.067 8.08098C12.049 8.09591 12.026 8.10685 12 8.10685Z" fill="#ED2224"/>
</g>
<mask id="mask16_986_17701" style="mask-type:luminance" maskUnits="userSpaceOnUse" x="0" y="0" width="24" height="16">
<path d="M0 16H24V1.90735e-06H0V16Z" fill="white"/>
</mask>
<g mask="url(#mask16_986_17701)">
<path d="M11.9435 8.08827C11.9605 8.09822 11.9785 8.10618 11.9985 8.10618L12.0005 8.10718C12.0265 8.10718 12.0475 8.09623 12.0675 8.08131C12.0825 8.06837 12.0935 8.05245 12.1005 8.03355C12.1045 8.0236 12.1075 8.01166 12.1075 7.99972C12.1075 7.98578 12.1045 7.97285 12.0995 7.96091C12.0925 7.943 12.0795 7.92807 12.0635 7.91613C12.0455 7.9022 12.0245 7.89325 12.0005 7.89325L11.9975 7.89424C11.9755 7.89424 11.9565 7.9022 11.9395 7.91414C11.9205 7.92807 11.9055 7.94698 11.8985 7.97086C11.8965 7.97981 11.8925 7.98976 11.8925 7.99972C11.8925 8.01066 11.8965 8.02061 11.8995 8.03056C11.9065 8.05544 11.9225 8.07434 11.9435 8.08827Z" fill="#ED2224"/>
</g>
</g>
<defs>
<clipPath id="clip0_986_17701">
<rect width="24" height="16" fill="white"/>
</clipPath>
</defs>
</svg>
