<svg width="20" height="20" viewBox="0 0 20 20" fill="none" xmlns="http://www.w3.org/2000/svg">
<path d="M17.6536 3H2.34645L0 5.34625V15.7158L2.34965 17.9918H17.6536L20 15.6456V5.34625L17.6536 3.0001V3ZM16.1069 7.89219L15.1077 6.89329L17.5406 3.85195L19.1476 5.45936L16.1069 7.89219ZM14.5092 13.732H5.49089L4.25996 12.5009V8.49119L5.49089 7.25956H14.5092L15.7401 8.49119V12.5009L14.5092 13.732ZM14.4863 6.57728H10.3413V3.68208H16.8023L14.4863 6.57728ZM9.65866 6.57728H5.51371L3.1975 3.68208H9.65866V6.57728ZM4.89239 6.89319L3.89319 7.89209L0.852352 5.45946L2.45936 3.85205L4.89249 6.89339L4.89239 6.89319ZM3.57728 8.51351V12.4784L0.682583 14.7938V6.1976L3.57728 8.51351ZM3.89319 13.0995L4.89239 14.0984L2.45546 17.1443L0.818919 15.5587L3.89319 13.0995ZM5.51371 14.4141H9.65866V17.3093H3.1976L5.51381 14.4141H5.51371ZM10.3413 14.4141H14.4863L16.8023 17.3093H10.3413V14.4141ZM15.1077 14.0984L16.1068 13.0995L19.1475 15.532L17.5406 17.1394L15.1077 14.0984ZM16.4228 12.4783V8.51341L19.3172 6.1977V14.7937L16.4228 12.4783Z" fill="#001E28"/>
</svg>
