<svg width="20" height="20" viewBox="0 0 20 20" fill="none" xmlns="http://www.w3.org/2000/svg">
<path fill-rule="evenodd" clip-rule="evenodd" d="M14.079 14.4887L13.129 13.5387L14.406 9.60767L15.823 9.18167L18.589 10.7367C18.476 12.0777 18.057 13.3557 17.363 14.4887H14.079ZM16.096 16.0957C15.371 16.8207 14.538 17.4007 13.635 17.8217L14.289 15.8677H16.315C16.243 15.9447 16.171 16.0207 16.096 16.0957V16.0957ZM11.925 12.9307H8.076L6.887 9.27067L10 7.00967L13.114 9.27067L11.925 12.9307ZM11.99 18.3907C11.346 18.5427 10.679 18.6207 10 18.6207C9.322 18.6207 8.655 18.5427 8.01 18.3907L6.996 15.3637L8.096 14.2647H11.905L13.004 15.3637L11.99 18.3907ZM5.921 14.4887H2.637C1.944 13.3557 1.524 12.0777 1.411 10.7367L4.177 9.18167L5.595 9.60967L6.871 13.5387L5.921 14.4887ZM3.905 16.0957C3.83 16.0207 3.757 15.9447 3.685 15.8677H5.711L6.365 17.8217C5.462 17.4007 4.63 16.8207 3.905 16.0957V16.0957ZM2.522 5.70467L3.271 8.10967L1.421 9.14867C1.54 7.92467 1.916 6.75567 2.522 5.70467V5.70467ZM3.905 3.90467C4.569 3.23967 5.323 2.69767 6.138 2.28767L9.31 4.50367V5.86167L5.976 8.28467L4.645 7.88367L3.531 4.30267C3.651 4.16667 3.775 4.03367 3.905 3.90467V3.90467ZM10 1.37967C10.791 1.37967 11.566 1.48467 12.309 1.68967L10 3.30167L7.691 1.68967C8.434 1.48467 9.209 1.37967 10 1.37967V1.37967ZM16.096 3.90467C16.225 4.03367 16.35 4.16667 16.47 4.30267L15.355 7.88267L14.022 8.28267L10.69 5.86167V4.50367L13.862 2.28767C14.678 2.69767 15.432 3.23967 16.096 3.90467V3.90467ZM17.478 5.70467C18.084 6.75567 18.46 7.92467 18.579 9.14867L16.729 8.10967L17.478 5.70467ZM17.071 2.92867C15.183 1.04067 12.671 0.000671387 10 0.000671387C7.329 0.000671387 4.818 1.04067 2.929 2.92867C1.04 4.81767 0 7.32867 0 10.0007C0 12.6717 1.04 15.1817 2.929 17.0707C4.818 18.9597 7.329 20.0007 10 20.0007C12.671 20.0007 15.183 18.9597 17.071 17.0707C18.96 15.1817 20 12.6717 20 10.0007C20 7.32867 18.96 4.81767 17.071 2.92867V2.92867Z" fill="#001E28"/>
</svg>
