<svg width="24" height="16" viewBox="0 0 24 16" fill="none" xmlns="http://www.w3.org/2000/svg">
<g clip-path="url(#clip0_986_17703)">
<path d="M0 0.000760078V0.0325999L13.9389 8.00061H23.9998V0.000760078H0Z" fill="#1F449B"/>
<path d="M13.9391 8.00015L0.000244141 15.9672V16H24V8.00015H13.9391Z" fill="#CE2931"/>
<mask id="mask0_986_17703" style="mask-type:luminance" maskUnits="userSpaceOnUse" x="0" y="0" width="24" height="16">
<path d="M0 15.9997H23.9998V-5.72205e-06H0V15.9997Z" fill="white"/>
</mask>
<g mask="url(#mask0_986_17703)">
<path d="M11.0951 8.35445L10.4081 8.58131L10.8361 8.00122L10.4071 7.42113L11.0951 7.647L11.5161 7.06194L11.5121 7.78133L12.2021 7.99923L11.5131 8.21913L11.5181 8.93852L11.0951 8.35445ZM7.64812 8.32858L6.24113 8.17634C6.23713 8.21614 6.22913 8.25495 6.22313 8.29375L7.44212 8.51465L7.20212 8.70171L6.19413 8.42808L6.19513 8.42012C6.15613 8.57435 6.09513 8.71862 6.01713 8.85195L6.91213 9.35045L6.95212 9.65094L5.94213 8.96936C5.91913 9.0022 5.89513 9.03503 5.87013 9.06588L6.94313 9.87979L6.98512 10.3713L6.53713 10.3892L5.63614 9.30269C5.60514 9.32856 5.57314 9.35145 5.54014 9.37334L6.25913 10.3803L5.95613 10.3474L5.42614 9.45095L5.43214 9.44597C5.29114 9.53254 5.13614 9.59821 4.97114 9.64L5.24614 10.6231L5.05914 10.8629L4.83514 9.66786C4.79614 9.67582 4.75714 9.68278 4.71614 9.68676L4.88914 11.0171L4.56615 11.3932L4.24015 11.0887L4.38215 9.68676C4.34215 9.68278 4.30315 9.67681 4.26315 9.66985L4.05015 10.8857L3.86115 10.6479L4.12815 9.64199L4.13515 9.64298C3.96815 9.60219 3.81115 9.53552 3.66815 9.45095L3.15516 10.3345L2.85316 10.3683L3.55215 9.37334C3.51915 9.35045 3.48715 9.32757 3.45615 9.3017L2.62316 10.3564L2.12717 10.3912L2.11617 9.94646L3.22116 9.06488C3.19716 9.03404 3.17316 9.0022 3.15016 8.96936L2.12917 9.66786L2.16617 9.36836L3.07516 8.85394L3.07916 8.85792C2.99916 8.7236 2.93816 8.57833 2.89816 8.4231L1.91017 8.69574L1.66917 8.50967L2.86916 8.28679C2.86216 8.24798 2.85516 8.20918 2.85116 8.16838L1.51417 8.34052L1.13617 8.01913L1.44217 7.69376L2.85116 7.83605C2.85516 7.79625 2.86216 7.75745 2.86816 7.71765L1.64617 7.50571L1.88517 7.31765L2.89516 7.58332V7.59128C2.93416 7.43108 2.99716 7.27984 3.07916 7.14154L2.18616 6.64005L2.14817 6.33956L3.15516 7.02413C3.17816 6.99129 3.20116 6.95945 3.22716 6.92861L2.15816 6.11071L2.11917 5.61719L2.56616 5.60226L3.46215 6.69279C3.49315 6.66692 3.52615 6.64403 3.55815 6.62115L2.84516 5.61221L3.14716 5.64604L3.67315 6.54553L3.66815 6.54951C3.81015 6.46394 3.96615 6.39827 4.13215 6.35747L3.86515 5.37241L4.05315 5.13461L4.26915 6.32961C4.30815 6.32265 4.34815 6.31668 4.38815 6.3127L4.22415 4.98138L4.55015 4.60725L4.87414 4.91372L4.72214 6.31369C4.76214 6.31767 4.80214 6.32464 4.84114 6.3316L5.06214 5.11769L5.25014 5.35649L4.97514 6.36046L4.96914 6.35946C5.14014 6.40324 5.30214 6.4719 5.44814 6.56344L5.97513 5.68783L6.27813 5.65798L5.56314 6.64204C5.59514 6.66592 5.62714 6.6908 5.65714 6.71667L6.50813 5.6749L7.00412 5.64803L7.00812 6.09379L5.88713 6.95746C5.91213 6.98831 5.93713 7.01915 5.95913 7.05199L6.99012 6.36941L6.94813 6.6699L6.03113 7.17039C6.10413 7.29974 6.16013 7.44103 6.19813 7.58829L7.18812 7.32362L7.42712 7.51068L6.22513 7.72461C6.23213 7.76441 6.23813 7.80322 6.24213 7.84401L7.58012 7.68083L7.95612 8.0052L7.64812 8.32858ZM1.77917 14.4907L1.15417 14.1275L0.619178 14.613L0.773177 13.9086L0.144182 13.5534L0.864176 13.4797L1.01017 12.7753L1.30217 13.434L2.02017 13.3534L1.48117 13.8339L1.77917 14.4907ZM0.619178 1.2113L1.15417 1.69686L1.77917 1.33368L1.48117 1.99039L2.02017 2.46899L1.30217 2.38939L1.01017 3.04808L0.864176 2.34262L0.144182 2.27098L0.773177 1.91477L0.619178 1.2113ZM0.000183105 0.0322161V15.9662L13.9391 8.00023L0.000183105 0.0322161Z" fill="#FAFAFA"/>
</g>
<mask id="mask1_986_17703" style="mask-type:luminance" maskUnits="userSpaceOnUse" x="0" y="0" width="24" height="16">
<path d="M0 15.9997H23.9998V-5.72205e-06H0V15.9997Z" fill="white"/>
</mask>
<g mask="url(#mask1_986_17703)">
<path d="M1.3017 13.4344L1.00971 12.7757L0.864708 13.4802L0.144714 13.5528L0.773709 13.9091L0.61971 14.6135L1.15471 14.127L1.7797 14.4911L1.4807 13.8334L2.0207 13.3538L1.3017 13.4344Z" fill="#FBD118"/>
</g>
<mask id="mask2_986_17703" style="mask-type:luminance" maskUnits="userSpaceOnUse" x="0" y="0" width="24" height="16">
<path d="M0 15.9997H23.9998V-5.72205e-06H0V15.9997Z" fill="white"/>
</mask>
<g mask="url(#mask2_986_17703)">
<path d="M3.67323 6.54474L3.14724 5.64625L2.84424 5.61142L3.55823 6.62036C3.59323 6.59549 3.63023 6.57161 3.66823 6.54872L3.67323 6.54474Z" fill="#FBD118"/>
</g>
<mask id="mask3_986_17703" style="mask-type:luminance" maskUnits="userSpaceOnUse" x="0" y="0" width="24" height="16">
<path d="M0 15.9997H23.9998V-5.72205e-06H0V15.9997Z" fill="white"/>
</mask>
<g mask="url(#mask3_986_17703)">
<path d="M3.46243 6.69241L2.56644 5.60188L2.11945 5.6168L2.15845 6.11033L3.22744 6.92822C3.29744 6.84166 3.37644 6.76305 3.46243 6.69241Z" fill="#FBD118"/>
</g>
<mask id="mask4_986_17703" style="mask-type:luminance" maskUnits="userSpaceOnUse" x="0" y="0" width="24" height="16">
<path d="M0 15.9997H23.9998V-5.72205e-06H0V15.9997Z" fill="white"/>
</mask>
<g mask="url(#mask4_986_17703)">
<path d="M2.14789 6.3392L2.18689 6.63969L3.07988 7.14117C3.10288 7.10137 3.12788 7.06257 3.15488 7.02376L2.14789 6.3392Z" fill="#FBD118"/>
</g>
<mask id="mask5_986_17703" style="mask-type:luminance" maskUnits="userSpaceOnUse" x="0" y="0" width="24" height="16">
<path d="M0 15.9997H23.9998V-5.72205e-06H0V15.9997Z" fill="white"/>
</mask>
<g mask="url(#mask5_986_17703)">
<path d="M4.97558 6.3606L5.25057 5.35663L5.06257 5.11783L4.84058 6.33174C4.88458 6.3397 4.92658 6.34866 4.96958 6.3596L4.97558 6.3606Z" fill="#FBD118"/>
</g>
<mask id="mask6_986_17703" style="mask-type:luminance" maskUnits="userSpaceOnUse" x="0" y="0" width="24" height="16">
<path d="M0 15.9997H23.9998V-5.72205e-06H0V15.9997Z" fill="white"/>
</mask>
<g mask="url(#mask6_986_17703)">
<path d="M4.05329 5.13383L3.8653 5.37163L4.13229 6.35669C4.17729 6.34574 4.22229 6.33579 4.26929 6.32883L4.05329 5.13383Z" fill="#FBD118"/>
</g>
<mask id="mask7_986_17703" style="mask-type:luminance" maskUnits="userSpaceOnUse" x="0" y="0" width="24" height="16">
<path d="M0 15.9997H23.9998V-5.72205e-06H0V15.9997Z" fill="white"/>
</mask>
<g mask="url(#mask7_986_17703)">
<path d="M4.72212 6.3139L4.87412 4.91393L4.55012 4.60747L4.22412 4.98159L4.38912 6.31291C4.44012 6.30793 4.49312 6.30495 4.54612 6.30495C4.60612 6.30495 4.66412 6.30793 4.72212 6.3139Z" fill="#FBD118"/>
</g>
<mask id="mask8_986_17703" style="mask-type:luminance" maskUnits="userSpaceOnUse" x="0" y="0" width="24" height="16">
<path d="M0 15.9997H23.9998V-5.72205e-06H0V15.9997Z" fill="white"/>
</mask>
<g mask="url(#mask8_986_17703)">
<path d="M6.27832 5.6576L5.97532 5.68745L5.44733 6.56306C5.48733 6.58793 5.52633 6.6138 5.56333 6.64166L6.27832 5.6576Z" fill="#FBD118"/>
</g>
<mask id="mask9_986_17703" style="mask-type:luminance" maskUnits="userSpaceOnUse" x="0" y="0" width="24" height="16">
<path d="M0 15.9997H23.9998V-5.72205e-06H0V15.9997Z" fill="white"/>
</mask>
<g mask="url(#mask9_986_17703)">
<path d="M6.94828 6.67L6.99028 6.36951L5.95929 7.05208C5.98529 7.09089 6.00829 7.12969 6.03129 7.16949L6.94828 6.67Z" fill="#FBD118"/>
</g>
<mask id="mask10_986_17703" style="mask-type:luminance" maskUnits="userSpaceOnUse" x="0" y="0" width="24" height="16">
<path d="M0 15.9997H23.9998V-5.72205e-06H0V15.9997Z" fill="white"/>
</mask>
<g mask="url(#mask10_986_17703)">
<path d="M5.88765 6.95715L7.00764 6.09349L7.00364 5.64772L6.50765 5.67459L5.65765 6.71636C5.74165 6.789 5.81865 6.86959 5.88765 6.95715Z" fill="#FBD118"/>
</g>
<mask id="mask11_986_17703" style="mask-type:luminance" maskUnits="userSpaceOnUse" x="0" y="0" width="24" height="16">
<path d="M0 15.9997H23.9998V-5.72205e-06H0V15.9997Z" fill="white"/>
</mask>
<g mask="url(#mask11_986_17703)">
<path d="M7.58057 7.68064L6.24258 7.84382C6.24758 7.89456 6.24958 7.9473 6.24958 8.00004C6.24958 8.05874 6.24758 8.11745 6.24158 8.17615L7.64757 8.32739L7.95656 8.00501L7.58057 7.68064Z" fill="#FBD118"/>
</g>
<mask id="mask12_986_17703" style="mask-type:luminance" maskUnits="userSpaceOnUse" x="0" y="0" width="24" height="16">
<path d="M0 15.9997H23.9998V-5.72205e-06H0V15.9997Z" fill="white"/>
</mask>
<g mask="url(#mask12_986_17703)">
<path d="M7.4268 7.51062L7.18781 7.32356L6.19781 7.58823C6.20881 7.63301 6.21881 7.67778 6.22581 7.72455L7.4268 7.51062Z" fill="#FBD118"/>
</g>
<mask id="mask13_986_17703" style="mask-type:luminance" maskUnits="userSpaceOnUse" x="0" y="0" width="24" height="16">
<path d="M0 15.9997H23.9998V-5.72205e-06H0V15.9997Z" fill="white"/>
</mask>
<g mask="url(#mask13_986_17703)">
<path d="M6.19427 8.42828L7.20227 8.7019L7.44226 8.51484L6.22327 8.29395C6.21527 8.33674 6.20627 8.37853 6.19427 8.42032V8.42828Z" fill="#FBD118"/>
</g>
<mask id="mask14_986_17703" style="mask-type:luminance" maskUnits="userSpaceOnUse" x="0" y="0" width="24" height="16">
<path d="M0 15.9997H23.9998V-5.72205e-06H0V15.9997Z" fill="white"/>
</mask>
<g mask="url(#mask14_986_17703)">
<path d="M6.95195 9.65063L6.91195 9.35014L6.01695 8.85264C5.99396 8.89244 5.96896 8.93224 5.94196 8.96906L6.95195 9.65063Z" fill="#FBD118"/>
</g>
<mask id="mask15_986_17703" style="mask-type:luminance" maskUnits="userSpaceOnUse" x="0" y="0" width="24" height="16">
<path d="M0 15.9997H23.9998V-5.72205e-06H0V15.9997Z" fill="white"/>
</mask>
<g mask="url(#mask15_986_17703)">
<path d="M5.42572 9.45059L5.95572 10.3471L6.25871 10.3809L5.54072 9.37397C5.50572 9.39984 5.46872 9.42472 5.43172 9.44561L5.42572 9.45059Z" fill="#FBD118"/>
</g>
<mask id="mask16_986_17703" style="mask-type:luminance" maskUnits="userSpaceOnUse" x="0" y="0" width="24" height="16">
<path d="M0 15.9997H23.9998V-5.72205e-06H0V15.9997Z" fill="white"/>
</mask>
<g mask="url(#mask16_986_17703)">
<path d="M5.63605 9.3028L6.53704 10.3893L6.98504 10.3724L6.94304 9.8799L5.87005 9.06598C5.80005 9.15255 5.72105 9.23116 5.63605 9.3028Z" fill="#FBD118"/>
</g>
<mask id="mask17_986_17703" style="mask-type:luminance" maskUnits="userSpaceOnUse" x="0" y="0" width="24" height="16">
<path d="M0 15.9997H23.9998V-5.72205e-06H0V15.9997Z" fill="white"/>
</mask>
<g mask="url(#mask17_986_17703)">
<path d="M4.12841 9.64198L3.86041 10.6489L4.05041 10.8857L4.26341 9.66984C4.22041 9.66288 4.17741 9.65492 4.13541 9.64298L4.12841 9.64198Z" fill="#FBD118"/>
</g>
<mask id="mask18_986_17703" style="mask-type:luminance" maskUnits="userSpaceOnUse" x="0" y="0" width="24" height="16">
<path d="M0 15.9997H23.9998V-5.72205e-06H0V15.9997Z" fill="white"/>
</mask>
<g mask="url(#mask18_986_17703)">
<path d="M5.05896 10.8624L5.24596 10.6236L4.97196 9.6395C4.92696 9.65045 4.88196 9.6604 4.83496 9.66836L5.05896 10.8624Z" fill="#FBD118"/>
</g>
<mask id="mask19_986_17703" style="mask-type:luminance" maskUnits="userSpaceOnUse" x="0" y="0" width="24" height="16">
<path d="M0 15.9997H23.9998V-5.72205e-06H0V15.9997Z" fill="white"/>
</mask>
<g mask="url(#mask19_986_17703)">
<path d="M4.38238 9.68669L4.23938 11.0887L4.56638 11.3931L4.88937 11.017L4.71638 9.68669C4.66038 9.69167 4.60438 9.69565 4.54638 9.69565C4.49038 9.69565 4.43638 9.69167 4.38238 9.68669Z" fill="#FBD118"/>
</g>
<mask id="mask20_986_17703" style="mask-type:luminance" maskUnits="userSpaceOnUse" x="0" y="0" width="24" height="16">
<path d="M0 15.9997H23.9998V-5.72205e-06H0V15.9997Z" fill="white"/>
</mask>
<g mask="url(#mask20_986_17703)">
<path d="M3.22163 9.06483L2.11664 9.94641L2.12664 10.3912L2.62263 10.3563L3.45563 9.30065C3.36963 9.231 3.29163 9.1514 3.22163 9.06483Z" fill="#FBD118"/>
</g>
<mask id="mask21_986_17703" style="mask-type:luminance" maskUnits="userSpaceOnUse" x="0" y="0" width="24" height="16">
<path d="M0 15.9997H23.9998V-5.72205e-06H0V15.9997Z" fill="white"/>
</mask>
<g mask="url(#mask21_986_17703)">
<path d="M2.85284 10.3698L3.15484 10.3339L3.66784 9.45037C3.62784 9.42648 3.58884 9.40061 3.55184 9.37474L2.85284 10.3698Z" fill="#FBD118"/>
</g>
<mask id="mask22_986_17703" style="mask-type:luminance" maskUnits="userSpaceOnUse" x="0" y="0" width="24" height="16">
<path d="M0 15.9997H23.9998V-5.72205e-06H0V15.9997Z" fill="white"/>
</mask>
<g mask="url(#mask22_986_17703)">
<path d="M3.07557 8.85349L2.16658 9.3679L2.12958 9.6684L3.14957 8.96891C3.12457 8.93309 3.10157 8.89528 3.07857 8.85747L3.07557 8.85349Z" fill="#FBD118"/>
</g>
<mask id="mask23_986_17703" style="mask-type:luminance" maskUnits="userSpaceOnUse" x="0" y="0" width="24" height="16">
<path d="M0 15.9997H23.9998V-5.72205e-06H0V15.9997Z" fill="white"/>
</mask>
<g mask="url(#mask23_986_17703)">
<path d="M2.85097 7.83605L1.44198 7.69376L1.13599 8.01913L1.51398 8.34052L2.85097 8.16838C2.84597 8.11266 2.84297 8.05694 2.84297 8.00022C2.84297 7.9445 2.84597 7.89077 2.85097 7.83605Z" fill="#FBD118"/>
</g>
<mask id="mask24_986_17703" style="mask-type:luminance" maskUnits="userSpaceOnUse" x="0" y="0" width="24" height="16">
<path d="M0 15.9997H23.9998V-5.72205e-06H0V15.9997Z" fill="white"/>
</mask>
<g mask="url(#mask24_986_17703)">
<path d="M2.89541 7.58345L1.88442 7.31679L1.64642 7.50584L2.86841 7.71777C2.87541 7.67499 2.88441 7.6332 2.89541 7.59141V7.58345Z" fill="#FBD118"/>
</g>
<mask id="mask25_986_17703" style="mask-type:luminance" maskUnits="userSpaceOnUse" x="0" y="0" width="24" height="16">
<path d="M0 15.9997H23.9998V-5.72205e-06H0V15.9997Z" fill="white"/>
</mask>
<g mask="url(#mask25_986_17703)">
<path d="M1.66931 8.509L1.91031 8.69507L2.8983 8.42244C2.8863 8.37766 2.8773 8.33289 2.8693 8.28612L1.66931 8.509Z" fill="#FBD118"/>
</g>
<mask id="mask26_986_17703" style="mask-type:luminance" maskUnits="userSpaceOnUse" x="0" y="0" width="24" height="16">
<path d="M0 15.9997H23.9998V-5.72205e-06H0V15.9997Z" fill="white"/>
</mask>
<g mask="url(#mask26_986_17703)">
<path d="M6.24217 7.84385C6.23817 7.80305 6.23217 7.76425 6.22517 7.72445C6.21817 7.67868 6.20917 7.6339 6.19817 7.58913C6.16017 7.44087 6.10417 7.29958 6.03117 7.17023C6.00817 7.13043 5.98517 7.09063 5.95917 7.05282C5.93717 7.01899 5.91217 6.98814 5.88818 6.9573C5.81918 6.86974 5.74218 6.78914 5.65718 6.71651C5.62718 6.69064 5.59518 6.66576 5.56318 6.64188C5.52618 6.61402 5.48718 6.58815 5.44818 6.56328C5.30218 6.47273 5.14018 6.40308 4.96918 6.3593C4.92718 6.34935 4.88418 6.3394 4.84118 6.33144C4.80218 6.32547 4.76318 6.31751 4.72218 6.31353C4.66419 6.30855 4.60619 6.30457 4.54619 6.30457C4.49319 6.30457 4.44019 6.30855 4.38819 6.31253C4.34819 6.31651 4.30819 6.32249 4.26919 6.32945C4.22219 6.33642 4.17719 6.34637 4.13219 6.35731C3.96619 6.39811 3.81019 6.46378 3.66819 6.54935C3.63019 6.57223 3.59419 6.59611 3.55819 6.62099C3.52619 6.64387 3.4932 6.66676 3.4622 6.69263C3.3762 6.76327 3.2982 6.84188 3.2272 6.92844C3.2012 6.95929 3.1782 6.99212 3.1552 7.02396C3.1282 7.06177 3.1032 7.10158 3.0792 7.14138C2.9972 7.27968 2.9342 7.43092 2.8952 7.59211C2.8842 7.6339 2.8752 7.67569 2.8682 7.71848C2.8622 7.75728 2.8552 7.79609 2.8512 7.83589C2.8462 7.89062 2.8432 7.94534 2.8432 8.00007C2.8432 8.05678 2.8462 8.1135 2.8512 8.16822C2.8552 8.20902 2.8622 8.24782 2.8692 8.28663C2.8772 8.33339 2.8872 8.37817 2.8982 8.42294C2.9382 8.57816 2.9992 8.72344 3.0792 8.85876C3.1012 8.89657 3.1242 8.93338 3.1502 8.9692C3.1732 9.00204 3.1972 9.03388 3.2212 9.06472C3.2922 9.15129 3.3702 9.23089 3.4562 9.30054C3.4872 9.3274 3.51919 9.35128 3.55219 9.37417C3.58919 9.40103 3.62819 9.42591 3.66819 9.45079C3.81119 9.53735 3.96819 9.60203 4.13519 9.64382C4.17819 9.65377 4.22019 9.66272 4.26319 9.66869C4.30319 9.67566 4.34219 9.68362 4.38219 9.6866C4.43619 9.69158 4.49119 9.69556 4.54619 9.69556C4.60419 9.69556 4.66019 9.69158 4.71618 9.6866C4.75718 9.68262 4.79618 9.67466 4.83518 9.6677C4.88218 9.66173 4.92718 9.65078 4.97118 9.63984C5.13618 9.59805 5.29118 9.53238 5.43218 9.44581C5.46918 9.42292 5.50518 9.40004 5.54018 9.37516C5.57318 9.35128 5.60518 9.3284 5.63618 9.30153C5.72118 9.23188 5.80018 9.15228 5.87018 9.06671C5.89518 9.03487 5.91917 9.00303 5.94217 8.9692C5.96917 8.93239 5.99417 8.89259 6.01717 8.85279C6.09617 8.71846 6.15617 8.57418 6.19517 8.42095C6.20617 8.37916 6.21517 8.33737 6.22317 8.29359C6.22917 8.25479 6.23717 8.21598 6.24117 8.17618C6.24717 8.11847 6.25017 8.05977 6.25017 8.00007C6.25017 7.94733 6.24717 7.89559 6.24217 7.84385Z" fill="#FBD118"/>
</g>
<mask id="mask27_986_17703" style="mask-type:luminance" maskUnits="userSpaceOnUse" x="0" y="0" width="24" height="16">
<path d="M0 15.9997H23.9998V-5.72205e-06H0V15.9997Z" fill="white"/>
</mask>
<g mask="url(#mask27_986_17703)">
<path d="M12.2019 7.99882L11.5129 7.78092L11.5159 7.06153L11.0949 7.64659L10.4069 7.42073L10.8359 7.99982L10.4089 8.5809L11.0949 8.35404L11.5179 8.93811L11.5129 8.21872L12.2019 7.99882Z" fill="#FBD118"/>
</g>
<mask id="mask28_986_17703" style="mask-type:luminance" maskUnits="userSpaceOnUse" x="0" y="0" width="24" height="16">
<path d="M0 15.9997H23.9998V-5.72205e-06H0V15.9997Z" fill="white"/>
</mask>
<g mask="url(#mask28_986_17703)">
<path d="M0.864159 2.34314L1.01016 3.04761L1.30116 2.38891L2.02015 2.46851L1.48115 1.98992L1.77915 1.33421L1.15416 1.69738L0.619161 1.21182L0.77316 1.91529L0.144165 2.2715L0.864159 2.34314Z" fill="#FBD118"/>
</g>
</g>
<defs>
<clipPath id="clip0_986_17703">
<rect width="24" height="16" fill="white"/>
</clipPath>
</defs>
</svg>
