<svg width="20" height="20" viewBox="0 0 20 20" fill="none" xmlns="http://www.w3.org/2000/svg">
<path d="M19.9726 0.0142245H17.6774V0.0138245H0.0004V8.70162H0L0.0004 10.7514H1.3668V8.70162V1.38102H17.082H17.6774H18.6058V2.13862H18.6054L18.6058 10.7514H19.9722V2.74762H19.9726V0.0142245Z" fill="#DC0000"/>
<path d="M9.98621 3.23544C5.83521 3.23544 2.47021 6.60064 2.47021 10.7514C2.47021 14.9022 5.83521 18.2674 9.98621 18.2674C14.1372 18.2674 17.5022 14.9022 17.5022 10.7514C17.5022 6.60064 14.1372 3.23544 9.98621 3.23544ZM14.6158 6.70604L13.8904 9.03644L13.0374 9.29284L10.6566 7.56284V6.69824L12.7318 5.24884C13.452 5.60924 14.091 6.10604 14.6158 6.70604ZM9.98621 4.60224C10.3864 4.60224 10.7772 4.64144 11.156 4.71444L9.98621 5.53144L8.81641 4.71444C9.19521 4.64144 9.58601 4.60224 9.98621 4.60224ZM7.24101 5.24904L9.31621 6.69844V7.56304L6.93401 9.29404L6.08261 9.03724L5.35701 6.70644C5.88181 6.10604 6.52081 5.60924 7.24101 5.24924V5.24904ZM4.40741 8.16464L4.74741 9.25704L3.92481 9.71944C4.01721 9.17324 4.18121 8.65184 4.40741 8.16464ZM5.86221 15.3124H6.65321L6.90841 16.0744C6.53301 15.8568 6.18201 15.6018 5.86221 15.3124ZM6.85781 13.9718H4.74761C4.25961 13.1798 3.94701 12.2684 3.86181 11.2916L5.62781 10.2998L6.55541 10.5794L7.46141 13.3678L6.85781 13.9716V13.9718ZM11.4318 16.7284C10.968 16.8402 10.4844 16.9006 9.98621 16.9006C9.48801 16.9006 9.00461 16.8402 8.54081 16.7284L7.90261 14.8228L8.61781 14.1072H11.3548L12.07 14.8228L11.4318 16.7284ZM11.3224 12.8016H8.65061L7.82501 10.2604L9.98661 8.69004L12.1482 10.2604L11.3226 12.8016H11.3224ZM13.0644 16.0738L13.3194 15.3124H14.1102C13.7904 15.6016 13.4396 15.8566 13.0642 16.0738H13.0644ZM15.2248 13.9718H13.1148L12.5112 13.368L13.4178 10.5776L14.3442 10.2994L16.1104 11.2916C16.0252 12.2684 15.7128 13.1798 15.2246 13.9718H15.2248ZM16.0478 9.71944L15.2254 9.25704L15.5654 8.16524C15.7916 8.65244 15.9554 9.17344 16.0478 9.71964V9.71944Z" fill="#DC0000"/>
</svg>
