<svg width="24" height="16" viewBox="0 0 24 16" fill="none" xmlns="http://www.w3.org/2000/svg">
<path d="M0 16.0001H23.999V10.7075H0V16.0001Z" fill="#75AADB"/>
<path d="M0 5.29352H23.999V-1.33514e-05H0V5.29352Z" fill="#75AADB"/>
<mask id="mask0_2_572" style="mask-type:luminance" maskUnits="userSpaceOnUse" x="0" y="0" width="24" height="16">
<path d="M0 16.0001H24V6.29425e-05H0V16.0001Z" fill="white"/>
</mask>
<g mask="url(#mask0_2_572)">
<path d="M9.77488 7.97278L11.0969 7.92303L11.0989 7.90312C10.8999 7.83248 10.7639 7.89914 10.5099 7.76979C10.2099 7.61656 10.1249 7.70511 9.97488 7.6683C9.82588 7.63148 9.77488 7.53596 9.80088 7.51307C9.82688 7.48919 9.85788 7.58074 9.96988 7.58969C10.0819 7.59765 10.2829 7.51805 10.5279 7.64541C10.7269 7.7489 10.9169 7.69815 11.1309 7.74392C11.1329 7.73795 11.1339 7.73298 11.1359 7.728L9.93388 7.17875C9.93388 7.17875 9.89488 7.16283 9.90588 7.13696C9.91688 7.11108 9.95488 7.12701 9.95488 7.12701L11.1959 7.58472C11.1989 7.57875 11.2019 7.57278 11.2049 7.56581C11.0489 7.42551 10.8969 7.43546 10.7119 7.21954C10.4939 6.96382 10.3799 7.01357 10.2569 6.92203C10.1339 6.83148 10.1229 6.72402 10.1559 6.71208C10.1889 6.70114 10.1819 6.79666 10.2819 6.8474C10.3829 6.89815 10.5999 6.90113 10.7759 7.11208C10.9209 7.28422 11.1149 7.3081 11.2959 7.43248C11.2999 7.4285 11.3029 7.42352 11.3069 7.41954L10.4069 6.45437C10.4069 6.45437 10.3779 6.42452 10.3969 6.40561C10.4169 6.38571 10.4459 6.41556 10.4459 6.41556L11.4169 7.31009C11.4219 7.30611 11.4269 7.30113 11.4329 7.29715C11.3419 7.1071 11.1979 7.05934 11.1099 6.7887C11.0069 6.46929 10.8829 6.47228 10.8039 6.34094C10.7259 6.20959 10.7569 6.10611 10.7919 6.1081C10.8269 6.11009 10.7839 6.19666 10.8569 6.28123C10.9299 6.36581 11.1289 6.45138 11.2119 6.71407C11.2779 6.92701 11.4489 7.02352 11.5679 7.20661C11.5729 7.20462 11.5779 7.20263 11.5829 7.19964L11.1229 5.96482C11.1229 5.96482 11.1069 5.92701 11.1319 5.91606C11.1579 5.90512 11.1739 5.94392 11.1739 5.94392L11.7259 7.14094C11.7329 7.13795 11.7389 7.13696 11.7459 7.13497C11.7349 6.92502 11.6209 6.82551 11.6439 6.54193C11.6709 6.2086 11.5559 6.16283 11.5339 6.01158C11.5109 5.86034 11.5799 5.77676 11.6109 5.79168C11.6429 5.80661 11.5699 5.87029 11.6049 5.97676C11.6399 6.08322 11.7909 6.23745 11.7659 6.51109C11.7459 6.73397 11.8659 6.8882 11.9059 7.10312C11.9119 7.10213 11.9179 7.10213 11.9229 7.10213L11.9719 5.78671C11.9719 5.78671 11.9719 5.74492 11.9999 5.74492C12.0269 5.74492 12.0269 5.78671 12.0269 5.78671L12.0779 7.10213C12.0849 7.10213 12.0919 7.10213 12.0989 7.10312C12.1689 6.90611 12.1019 6.77079 12.2329 6.51706C12.3859 6.21954 12.2959 6.13397 12.3339 5.98472C12.3709 5.83745 12.4669 5.78571 12.4889 5.81158C12.5139 5.83745 12.4219 5.8683 12.4129 5.98074C12.4039 6.09218 12.4839 6.29218 12.3569 6.53596C12.2519 6.73397 12.3039 6.92203 12.2579 7.13596L12.2749 7.13994L12.8259 5.94392C12.8259 5.94392 12.8419 5.90512 12.8679 5.91606C12.8939 5.92701 12.8779 5.96482 12.8779 5.96482L12.4179 7.19964C12.4239 7.20362 12.4299 7.20561 12.4369 7.20959C12.5779 7.05337 12.5669 6.90313 12.7849 6.71905C13.0419 6.50113 12.9919 6.3887 13.0839 6.26631C13.1749 6.14293 13.2819 6.13198 13.2949 6.16482C13.3059 6.19765 13.2099 6.19168 13.1589 6.29118C13.1079 6.39168 13.1049 6.60661 12.8929 6.78273C12.7199 6.92601 12.6949 7.12004 12.5699 7.30014C12.5759 7.30312 12.5799 7.3071 12.5839 7.31009L13.5539 6.41556C13.5539 6.41556 13.5839 6.38571 13.6039 6.40561C13.6229 6.42452 13.5929 6.45437 13.5929 6.45437L12.6929 7.41954C12.6969 7.42551 12.7029 7.43049 12.7069 7.43546C12.8979 7.34591 12.9449 7.20263 13.2179 7.11506C13.5389 7.01258 13.5359 6.88919 13.6679 6.81059C13.7999 6.73198 13.9029 6.76283 13.9009 6.79765C13.8999 6.83248 13.8129 6.78969 13.7279 6.86233C13.6429 6.93596 13.5569 7.13397 13.2939 7.21556C13.0789 7.28223 12.9819 7.45138 12.7979 7.57079C12.7999 7.57576 12.8019 7.57974 12.8049 7.58472L14.0459 7.12701C14.0459 7.12701 14.0839 7.11108 14.0949 7.13696C14.1059 7.16283 14.0669 7.17875 14.0669 7.17875L12.8639 7.728C12.8669 7.73397 12.8679 7.74094 12.8699 7.74691C13.0809 7.73596 13.1809 7.62352 13.4659 7.64641C13.8019 7.67327 13.8469 7.55785 13.9989 7.53596C14.1499 7.51407 14.2339 7.58173 14.2199 7.61357C14.2049 7.64442 14.1409 7.57278 14.0339 7.60661C13.9269 7.64143 13.7719 7.79168 13.4969 7.7678C13.2729 7.74691 13.1179 7.8673 12.9009 7.9071C12.9019 7.91208 12.9019 7.91805 12.9019 7.92303L14.2259 7.97278C14.2259 7.97278 14.2669 7.97278 14.2669 8.00064C14.2669 8.0285 14.2259 8.0285 14.2259 8.0285L12.9019 8.07725C12.9009 8.08422 12.9009 8.09118 12.9009 8.09815C13.0999 8.1678 13.2349 8.10113 13.4899 8.23148C13.7909 8.38472 13.8759 8.29516 14.0249 8.33198C14.1739 8.36979 14.2259 8.46531 14.1989 8.4882C14.1729 8.51108 14.1429 8.41954 14.0289 8.41158C13.9179 8.40263 13.7169 8.48223 13.4719 8.35487C13.2729 8.25138 13.0839 8.30312 12.8689 8.25735C12.8679 8.26332 12.8649 8.2673 12.8639 8.27327L14.0669 8.82253C14.0669 8.82253 14.1059 8.83845 14.0949 8.86432C14.0839 8.88919 14.0459 8.87327 14.0459 8.87327L12.8049 8.41556L12.7959 8.43447C12.9519 8.57477 13.1039 8.56482 13.2879 8.78074C13.5059 9.03546 13.6199 8.9877 13.7429 9.07725C13.8669 9.16979 13.8779 9.27725 13.8449 9.2882C13.8119 9.30014 13.8169 9.20263 13.7179 9.15387C13.6179 9.10213 13.3999 9.09914 13.2239 8.8882C13.0799 8.71705 12.8849 8.69317 12.7039 8.5688C12.7009 8.57278 12.6959 8.57676 12.6929 8.58074L13.5929 9.54691C13.5929 9.54691 13.6229 9.57477 13.6039 9.59566C13.5839 9.61357 13.5539 9.58571 13.5539 9.58571L12.5839 8.69019C12.5789 8.69516 12.5719 8.69914 12.5669 8.70412C12.6569 8.89317 12.8019 8.94193 12.8899 9.21258C12.9929 9.52999 13.1169 9.528 13.1949 9.65835C13.2749 9.79069 13.2439 9.89516 13.2089 9.89317C13.1739 9.89118 13.2169 9.80462 13.1439 9.71904C13.0699 9.63447 12.8719 9.5489 12.7899 9.28621C12.7219 9.07228 12.5519 8.97676 12.4329 8.79367C12.4269 8.79666 12.4219 8.79865 12.4179 8.80163L12.8779 10.0355C12.8779 10.0355 12.8939 10.0723 12.8679 10.0852C12.8419 10.0952 12.8259 10.0564 12.8259 10.0564L12.2749 8.86034C12.2679 8.86233 12.2609 8.86432 12.2539 8.86631C12.2659 9.07427 12.3789 9.17576 12.3569 9.45934C12.3289 9.79268 12.4429 9.83845 12.4669 9.9877C12.4879 10.1399 12.4209 10.2245 12.3889 10.2096C12.3579 10.1927 12.4309 10.13 12.3959 10.0245C12.3589 9.91805 12.2099 9.76283 12.2329 9.4882C12.2539 9.26631 12.1339 9.11307 12.0939 8.89815C12.0889 8.89815 12.0829 8.89815 12.0779 8.89914L12.0269 10.2146C12.0269 10.2146 12.0269 10.2564 11.9999 10.2564C11.9719 10.2564 11.9719 10.2146 11.9719 10.2146L11.9229 8.89914C11.9159 8.89815 11.9089 8.89815 11.9019 8.89715C11.8319 9.09417 11.8989 9.23049 11.7679 9.48322C11.6149 9.78074 11.7039 9.86631 11.6669 10.0156C11.6289 10.1638 11.5329 10.2146 11.5099 10.1897C11.4869 10.1628 11.5789 10.132 11.5869 10.0205C11.5959 9.9081 11.5159 9.70909 11.6439 9.46531C11.7479 9.2673 11.6959 9.07725 11.7419 8.86531C11.7369 8.86332 11.7319 8.86233 11.7259 8.86034L11.1739 10.0564C11.1739 10.0564 11.1579 10.0952 11.1319 10.0852C11.1069 10.0723 11.1229 10.0355 11.1229 10.0355L11.5829 8.80163C11.5769 8.79765 11.5699 8.79467 11.5639 8.79168C11.4229 8.94691 11.4329 9.09815 11.2149 9.28123C10.9589 9.49914 11.0089 9.61059 10.9169 9.73497C10.8259 9.85735 10.7169 9.8673 10.7059 9.83646C10.6939 9.80263 10.7909 9.80959 10.8419 9.70909C10.8929 9.60959 10.8959 9.39367 11.1079 9.21755C11.2799 9.07327 11.3049 8.88123 11.4289 8.70113C11.4249 8.69815 11.4209 8.69417 11.4169 8.69019L10.4459 9.58571C10.4459 9.58571 10.4169 9.61357 10.3969 9.59566C10.3779 9.57477 10.4069 9.54691 10.4069 9.54691L11.3069 8.58074L11.2939 8.56482C11.1029 8.65536 11.0539 8.79865 10.7819 8.88521C10.4619 8.9887 10.4639 9.11208 10.3329 9.19069C10.1999 9.26929 10.0959 9.23745 10.0979 9.20163C10.1009 9.1688 10.1879 9.21158 10.2729 9.13795C10.3579 9.06531 10.4439 8.8673 10.7069 8.78571C10.9209 8.71904 11.0189 8.5489 11.2029 8.43049C11.1999 8.42551 11.1979 8.42054 11.1959 8.41556L9.95488 8.87327C9.95488 8.87327 9.91688 8.88919 9.90588 8.86432C9.89488 8.83845 9.93388 8.82253 9.93388 8.82253L11.1359 8.27327C11.1339 8.26631 11.1319 8.26034 11.1299 8.25337C10.9199 8.26432 10.8189 8.37775 10.5339 8.35487C10.1989 8.32701 10.1539 8.44243 10.0019 8.46432C9.84988 8.4872 9.76488 8.41855 9.77988 8.3877C9.79588 8.35586 9.85988 8.4285 9.96588 8.39367C10.0729 8.35885 10.2289 8.2086 10.5039 8.23347C10.7279 8.25337 10.8819 8.13397 11.0979 8.09417C11.0979 8.0882 11.0979 8.08322 11.0969 8.07725L9.77488 8.0285C9.77488 8.0285 9.73288 8.0285 9.73288 8.00064C9.73288 7.97278 9.77488 7.97278 9.77488 7.97278ZM-0.00012207 10.7081H23.9999V5.29417H-0.00012207V10.7081Z" fill="white"/>
</g>
<mask id="mask1_2_572" style="mask-type:luminance" maskUnits="userSpaceOnUse" x="0" y="0" width="24" height="16">
<path d="M0 16.0001H24V6.29425e-05H0V16.0001Z" fill="white"/>
</mask>
<g mask="url(#mask1_2_572)">
<path d="M12 9.51966L11.978 8.90076C11.959 8.90076 11.941 8.89976 11.923 8.89777L11.972 10.2142C11.972 10.2142 11.972 10.256 12 10.256C12.027 10.256 12.027 10.2142 12.027 10.2142L12.078 8.89777C12.06 8.89976 12.041 8.90076 12.022 8.90076L12 9.51966Z" fill="#FBBE4A"/>
</g>
<mask id="mask2_2_572" style="mask-type:luminance" maskUnits="userSpaceOnUse" x="0" y="0" width="24" height="16">
<path d="M0 16.0001H24V6.29425e-05H0V16.0001Z" fill="white"/>
</mask>
<g mask="url(#mask2_2_572)">
<path d="M12.0224 8.90166C12.0144 8.90166 12.0074 8.90266 11.9994 8.90266C11.9924 8.90266 11.9844 8.90166 11.9774 8.90166L11.9994 9.52057L12.0224 8.90166Z" fill="#84371B"/>
</g>
<mask id="mask3_2_572" style="mask-type:luminance" maskUnits="userSpaceOnUse" x="0" y="0" width="24" height="16">
<path d="M0 16.0001H24V6.29425e-05H0V16.0001Z" fill="white"/>
</mask>
<g mask="url(#mask3_2_572)">
<path d="M11.6968 9.48277C11.8148 9.27481 11.7478 9.10665 11.7988 8.87879C11.7798 8.87481 11.7608 8.86983 11.7418 8.86486C11.6958 9.07879 11.7478 9.26685 11.6438 9.46486C11.5158 9.70963 11.5958 9.90963 11.5878 10.0201C11.5788 10.1315 11.4868 10.1634 11.5098 10.1882C11.5328 10.2141 11.6298 10.1644 11.6668 10.0151C11.7038 9.86784 11.6148 9.78227 11.7678 9.48277C11.8988 9.23003 11.8318 9.09371 11.9018 8.8967C11.8838 8.89471 11.8658 8.89172 11.8478 8.88874C11.7648 9.1355 11.8318 9.33152 11.6968 9.48277Z" fill="#FBBE4A"/>
</g>
<mask id="mask4_2_572" style="mask-type:luminance" maskUnits="userSpaceOnUse" x="0" y="0" width="24" height="16">
<path d="M0 16.0001H24V6.29425e-05H0V16.0001Z" fill="white"/>
</mask>
<g mask="url(#mask4_2_572)">
<path d="M11.8477 8.889C11.8307 8.88602 11.8147 8.88303 11.7987 8.87905C11.7467 9.10691 11.8147 9.27507 11.6967 9.48303C11.8307 9.3298 11.7647 9.13676 11.8477 8.889Z" fill="#84371B"/>
</g>
<mask id="mask5_2_572" style="mask-type:luminance" maskUnits="userSpaceOnUse" x="0" y="0" width="24" height="16">
<path d="M0 16.0001H24V6.29425e-05H0V16.0001Z" fill="white"/>
</mask>
<g mask="url(#mask5_2_572)">
<path d="M12 6.48016L12.022 7.09907C12.041 7.10006 12.06 7.10006 12.078 7.10205L12.027 5.78663C12.027 5.78663 12.027 5.74484 12 5.74484C11.972 5.74484 11.972 5.78663 11.972 5.78663L11.923 7.10205C11.941 7.10006 11.959 7.10006 11.978 7.09907L12 6.48016Z" fill="#FBBE4A"/>
</g>
<mask id="mask6_2_572" style="mask-type:luminance" maskUnits="userSpaceOnUse" x="0" y="0" width="24" height="16">
<path d="M0 16.0001H24V6.29425e-05H0V16.0001Z" fill="white"/>
</mask>
<g mask="url(#mask6_2_572)">
<path d="M11.9774 7.09918C11.9844 7.09918 11.9924 7.09819 11.9994 7.09819C12.0064 7.09819 12.0154 7.09918 12.0224 7.09918L11.9994 6.48028L11.9774 7.09918Z" fill="#84371B"/>
</g>
<mask id="mask7_2_572" style="mask-type:luminance" maskUnits="userSpaceOnUse" x="0" y="0" width="24" height="16">
<path d="M0 16.0001H24V6.29425e-05H0V16.0001Z" fill="white"/>
</mask>
<g mask="url(#mask7_2_572)">
<path d="M12.3036 6.51759C12.1856 6.72555 12.2526 6.89371 12.2006 7.12057C12.2206 7.12555 12.2396 7.13052 12.2586 7.1355C12.3036 6.92256 12.2516 6.73351 12.3566 6.5355C12.4846 6.29172 12.4046 6.09172 12.4116 5.98027C12.4216 5.86883 12.5136 5.83799 12.4906 5.81212C12.4676 5.78624 12.3696 5.83699 12.3336 5.98525C12.2966 6.13351 12.3856 6.21908 12.2326 6.51759C12.1016 6.77032 12.1686 6.90565 12.0986 7.10366C12.1166 7.10565 12.1346 7.10863 12.1526 7.11162C12.2346 6.86386 12.1686 6.66983 12.3036 6.51759Z" fill="#FBBE4A"/>
</g>
<mask id="mask8_2_572" style="mask-type:luminance" maskUnits="userSpaceOnUse" x="0" y="0" width="24" height="16">
<path d="M0 16.0001H24V6.29425e-05H0V16.0001Z" fill="white"/>
</mask>
<g mask="url(#mask8_2_572)">
<path d="M12.1523 7.11183C12.1693 7.11482 12.1853 7.1178 12.2013 7.12079C12.2533 6.89392 12.1853 6.72576 12.3023 6.5178C12.1693 6.67004 12.2353 6.86407 12.1523 7.11183Z" fill="#84371B"/>
</g>
<mask id="mask9_2_572" style="mask-type:luminance" maskUnits="userSpaceOnUse" x="0" y="0" width="24" height="16">
<path d="M0 16.0001H24V6.29425e-05H0V16.0001Z" fill="white"/>
</mask>
<g mask="url(#mask9_2_572)">
<path d="M9.77479 8.02813L11.0968 8.07788C11.0958 8.05997 11.0948 8.04106 11.0948 8.02315L10.4728 8.00027L11.0948 7.97738C11.0948 7.95947 11.0958 7.94156 11.0968 7.92365L9.77479 7.97241C9.77479 7.97241 9.73279 7.97241 9.73279 8.00027C9.73279 8.02813 9.77479 8.02813 9.77479 8.02813Z" fill="#FBBE4A"/>
</g>
<mask id="mask10_2_572" style="mask-type:luminance" maskUnits="userSpaceOnUse" x="0" y="0" width="24" height="16">
<path d="M0 16.0001H24V6.29425e-05H0V16.0001Z" fill="white"/>
</mask>
<g mask="url(#mask10_2_572)">
<path d="M11.0947 7.97756L10.4727 8.00045L11.0947 8.02234C11.0947 8.01537 11.0937 8.00841 11.0937 8.00045C11.0937 7.99249 11.0947 7.98552 11.0947 7.97756Z" fill="#84371B"/>
</g>
<mask id="mask11_2_572" style="mask-type:luminance" maskUnits="userSpaceOnUse" x="0" y="0" width="24" height="16">
<path d="M0 16.0001H24V6.29425e-05H0V16.0001Z" fill="white"/>
</mask>
<g mask="url(#mask11_2_572)">
<path d="M10.5097 7.69867C10.7177 7.81608 10.8867 7.74842 11.1157 7.80016C11.1207 7.78126 11.1257 7.76136 11.1307 7.74344C10.9157 7.69767 10.7267 7.74942 10.5277 7.64593C10.2827 7.51757 10.0817 7.59718 9.96966 7.58922C9.85766 7.58026 9.82566 7.48971 9.80066 7.5126C9.77366 7.53548 9.82566 7.63101 9.97466 7.66782C10.1237 7.70563 10.2097 7.61608 10.5097 7.76932C10.7627 7.89867 10.8997 7.833 11.0977 7.90265C11.1007 7.88474 11.1037 7.86683 11.1067 7.84892C10.8577 7.76633 10.6627 7.832 10.5097 7.69867Z" fill="#FBBE4A"/>
</g>
<mask id="mask12_2_572" style="mask-type:luminance" maskUnits="userSpaceOnUse" x="0" y="0" width="24" height="16">
<path d="M0 16.0001H24V6.29425e-05H0V16.0001Z" fill="white"/>
</mask>
<g mask="url(#mask12_2_572)">
<path d="M11.1075 7.84882C11.1095 7.8319 11.1125 7.81598 11.1165 7.80006C10.8875 7.74832 10.7185 7.81598 10.5105 7.69857C10.6635 7.8319 10.8585 7.76623 11.1075 7.84882Z" fill="#84371B"/>
</g>
<mask id="mask13_2_572" style="mask-type:luminance" maskUnits="userSpaceOnUse" x="0" y="0" width="24" height="16">
<path d="M0 16.0001H24V6.29425e-05H0V16.0001Z" fill="white"/>
</mask>
<g mask="url(#mask13_2_572)">
<path d="M13.5273 7.99996L12.9053 8.02185C12.9053 8.04076 12.9043 8.05967 12.9023 8.07758L14.2253 8.02782C14.2253 8.02782 14.2663 8.02782 14.2663 7.99996C14.2663 7.9721 14.2253 7.9721 14.2253 7.9721L12.9023 7.92235C12.9043 7.94026 12.9053 7.95917 12.9053 7.97708L13.5273 7.99996Z" fill="#FBBE4A"/>
</g>
<mask id="mask14_2_572" style="mask-type:luminance" maskUnits="userSpaceOnUse" x="0" y="0" width="24" height="16">
<path d="M0 16.0001H24V6.29425e-05H0V16.0001Z" fill="white"/>
</mask>
<g mask="url(#mask14_2_572)">
<path d="M12.9054 7.97756C12.9054 7.98552 12.9064 7.99249 12.9064 8.00045C12.9064 8.00841 12.9054 8.01537 12.9054 8.02234L13.5274 8.00045L12.9054 7.97756Z" fill="#84371B"/>
</g>
<mask id="mask15_2_572" style="mask-type:luminance" maskUnits="userSpaceOnUse" x="0" y="0" width="24" height="16">
<path d="M0 16.0001H24V6.29425e-05H0V16.0001Z" fill="white"/>
</mask>
<g mask="url(#mask15_2_572)">
<path d="M13.4903 8.30166C13.2823 8.18425 13.1133 8.25092 12.8843 8.20017C12.8793 8.21908 12.8743 8.23898 12.8693 8.25689C13.0843 8.30266 13.2733 8.25092 13.4713 8.3544C13.7173 8.48176 13.9183 8.40216 14.0303 8.41111C14.1413 8.41908 14.1733 8.51062 14.1993 8.48773C14.2243 8.46485 14.1743 8.36932 14.0253 8.33151C13.8763 8.2947 13.7903 8.38425 13.4903 8.23102C13.2363 8.10067 13.0993 8.16733 12.9023 8.09768C12.8993 8.11559 12.8963 8.1335 12.8923 8.15141C13.1413 8.234 13.3373 8.16733 13.4903 8.30166Z" fill="#FBBE4A"/>
</g>
<mask id="mask16_2_572" style="mask-type:luminance" maskUnits="userSpaceOnUse" x="0" y="0" width="24" height="16">
<path d="M0 16.0001H24V6.29425e-05H0V16.0001Z" fill="white"/>
</mask>
<g mask="url(#mask16_2_572)">
<path d="M12.8934 8.15151C12.8904 8.16842 12.8874 8.18434 12.8824 8.20126C13.1124 8.25201 13.2814 8.18434 13.4904 8.30176C13.3354 8.16842 13.1424 8.2341 12.8934 8.15151Z" fill="#84371B"/>
</g>
<mask id="mask17_2_572" style="mask-type:luminance" maskUnits="userSpaceOnUse" x="0" y="0" width="24" height="16">
<path d="M0 16.0001H24V6.29425e-05H0V16.0001Z" fill="white"/>
</mask>
<g mask="url(#mask17_2_572)">
<path d="M10.92 9.07459L11.344 8.62086C11.331 8.60792 11.318 8.59499 11.307 8.58006L10.407 9.54722C10.407 9.54722 10.378 9.57508 10.397 9.59499C10.417 9.61389 10.446 9.58603 10.446 9.58603L11.417 8.68951C11.402 8.67857 11.389 8.66563 11.376 8.6527L10.92 9.07459Z" fill="#FBBE4A"/>
</g>
<mask id="mask18_2_572" style="mask-type:luminance" maskUnits="userSpaceOnUse" x="0" y="0" width="24" height="16">
<path d="M0 16.0001H24V6.29425e-05H0V16.0001Z" fill="white"/>
</mask>
<g mask="url(#mask18_2_572)">
<path d="M11.3759 8.65338C11.3649 8.64343 11.3539 8.63249 11.3439 8.62154L10.9199 9.07428L11.3759 8.65338Z" fill="#84371B"/>
</g>
<mask id="mask19_2_572" style="mask-type:luminance" maskUnits="userSpaceOnUse" x="0" y="0" width="24" height="16">
<path d="M0 16.0001H24V6.29425e-05H0V16.0001Z" fill="white"/>
</mask>
<g mask="url(#mask19_2_572)">
<path d="M10.7318 8.83556C10.9628 8.77188 11.0348 8.60471 11.2328 8.48033C11.2228 8.46342 11.2118 8.4475 11.2028 8.43058C11.0188 8.54899 10.9208 8.71814 10.7068 8.78581C10.4438 8.8674 10.3578 9.06441 10.2728 9.13805C10.1878 9.21068 10.1008 9.1679 10.0978 9.20272C10.0958 9.23655 10.1998 9.26939 10.3328 9.18879C10.4638 9.11118 10.4618 8.98879 10.7818 8.88531C11.0538 8.79775 11.1028 8.65546 11.2938 8.56491C11.2818 8.55098 11.2718 8.53606 11.2608 8.52213C11.0268 8.63854 10.9358 8.82262 10.7318 8.83556Z" fill="#FBBE4A"/>
</g>
<mask id="mask20_2_572" style="mask-type:luminance" maskUnits="userSpaceOnUse" x="0" y="0" width="24" height="16">
<path d="M0 16.0001H24V6.29425e-05H0V16.0001Z" fill="white"/>
</mask>
<g mask="url(#mask20_2_572)">
<path d="M11.2608 8.52128C11.2508 8.50735 11.2418 8.49342 11.2328 8.47949C11.0348 8.60387 10.9638 8.77104 10.7318 8.83472C10.9358 8.82178 11.0268 8.6377 11.2608 8.52128Z" fill="#84371B"/>
</g>
<mask id="mask21_2_572" style="mask-type:luminance" maskUnits="userSpaceOnUse" x="0" y="0" width="24" height="16">
<path d="M0 16.0001H24V6.29425e-05H0V16.0001Z" fill="white"/>
</mask>
<g mask="url(#mask21_2_572)">
<path d="M13.0801 6.92523L12.6561 7.37896C12.6691 7.3919 12.6831 7.40483 12.6931 7.41876L13.5941 6.45359C13.5941 6.45359 13.6221 6.42473 13.6031 6.40483C13.5831 6.38493 13.5551 6.41478 13.5551 6.41478L12.5831 7.3103C12.5981 7.32125 12.6111 7.33419 12.6241 7.34613L13.0801 6.92523Z" fill="#FBBE4A"/>
</g>
<mask id="mask22_2_572" style="mask-type:luminance" maskUnits="userSpaceOnUse" x="0" y="0" width="24" height="16">
<path d="M0 16.0001H24V6.29425e-05H0V16.0001Z" fill="white"/>
</mask>
<g mask="url(#mask22_2_572)">
<path d="M12.6241 7.34694C12.6361 7.35789 12.6461 7.36784 12.6561 7.37878L13.0801 6.92605L12.6241 7.34694Z" fill="#84371B"/>
</g>
<mask id="mask23_2_572" style="mask-type:luminance" maskUnits="userSpaceOnUse" x="0" y="0" width="24" height="16">
<path d="M0 16.0001H24V6.29425e-05H0V16.0001Z" fill="white"/>
</mask>
<g mask="url(#mask23_2_572)">
<path d="M13.2685 7.16522C13.0375 7.2289 12.9645 7.39507 12.7675 7.52044C12.7775 7.53735 12.7885 7.55328 12.7965 7.57019C12.9815 7.45178 13.0785 7.28163 13.2925 7.21497C13.5565 7.13337 13.6425 6.93536 13.7275 6.86273C13.8125 6.79009 13.8995 6.83288 13.9025 6.79706C13.9045 6.76323 13.7985 6.73138 13.6665 6.81099C13.5365 6.8886 13.5385 7.01198 13.2185 7.11447C12.9465 7.20203 12.8975 7.34531 12.7065 7.43586C12.7185 7.44979 12.7285 7.46472 12.7395 7.47865C12.9735 7.36223 13.0645 7.17815 13.2685 7.16522Z" fill="#FBBE4A"/>
</g>
<mask id="mask24_2_572" style="mask-type:luminance" maskUnits="userSpaceOnUse" x="0" y="0" width="24" height="16">
<path d="M0 16.0001H24V6.29425e-05H0V16.0001Z" fill="white"/>
</mask>
<g mask="url(#mask24_2_572)">
<path d="M12.7393 7.47908C12.7493 7.49301 12.7583 7.50595 12.7663 7.52087C12.9653 7.3955 13.0373 7.22933 13.2673 7.16565C13.0653 7.17859 12.9723 7.36167 12.7393 7.47908Z" fill="#84371B"/>
</g>
<mask id="mask25_2_572" style="mask-type:luminance" maskUnits="userSpaceOnUse" x="0" y="0" width="24" height="16">
<path d="M0 16.0001H24V6.29425e-05H0V16.0001Z" fill="white"/>
</mask>
<g mask="url(#mask25_2_572)">
<path d="M10.92 6.92523L11.376 7.34613C11.389 7.33419 11.402 7.32125 11.417 7.30931L10.446 6.41478C10.446 6.41478 10.417 6.38493 10.397 6.40483C10.378 6.42473 10.407 6.45359 10.407 6.45359L11.307 7.41876C11.318 7.40483 11.331 7.3919 11.344 7.37896L10.92 6.92523Z" fill="#FBBE4A"/>
</g>
<mask id="mask26_2_572" style="mask-type:luminance" maskUnits="userSpaceOnUse" x="0" y="0" width="24" height="16">
<path d="M0 16.0001H24V6.29425e-05H0V16.0001Z" fill="white"/>
</mask>
<g mask="url(#mask26_2_572)">
<path d="M11.3432 7.37897C11.3532 7.36802 11.3642 7.35807 11.3752 7.34713L10.9192 6.92524L11.3432 7.37897Z" fill="#84371B"/>
</g>
<mask id="mask27_2_572" style="mask-type:luminance" maskUnits="userSpaceOnUse" x="0" y="0" width="24" height="16">
<path d="M0 16.0001H24V6.29425e-05H0V16.0001Z" fill="white"/>
</mask>
<g mask="url(#mask27_2_572)">
<path d="M11.161 6.73867C11.225 6.96852 11.392 7.04016 11.518 7.23717C11.535 7.22722 11.551 7.21628 11.568 7.20732C11.449 7.02424 11.278 6.92673 11.211 6.71379C11.129 6.4511 10.93 6.36553 10.857 6.28195C10.784 6.19638 10.827 6.10981 10.791 6.10782C10.757 6.10583 10.725 6.20931 10.804 6.34066C10.883 6.472 11.007 6.46901 11.11 6.78842C11.198 7.05906 11.342 7.10782 11.433 7.29688C11.447 7.28593 11.461 7.27498 11.476 7.26503C11.359 7.0312 11.174 6.94066 11.161 6.73867Z" fill="#FBBE4A"/>
</g>
<mask id="mask28_2_572" style="mask-type:luminance" maskUnits="userSpaceOnUse" x="0" y="0" width="24" height="16">
<path d="M0 16.0001H24V6.29425e-05H0V16.0001Z" fill="white"/>
</mask>
<g mask="url(#mask28_2_572)">
<path d="M11.476 7.26483C11.49 7.25488 11.504 7.24593 11.518 7.23697C11.393 7.03996 11.225 6.96831 11.161 6.73846C11.174 6.94045 11.359 7.032 11.476 7.26483Z" fill="#84371B"/>
</g>
<mask id="mask29_2_572" style="mask-type:luminance" maskUnits="userSpaceOnUse" x="0" y="0" width="24" height="16">
<path d="M0 16.0001H24V6.29425e-05H0V16.0001Z" fill="white"/>
</mask>
<g mask="url(#mask29_2_572)">
<path d="M13.0801 9.07459L12.6241 8.65369C12.6111 8.66563 12.5981 8.67857 12.5831 8.68951L13.5551 9.58603C13.5551 9.58603 13.5831 9.61389 13.6031 9.59499C13.6221 9.57508 13.5941 9.54722 13.5941 9.54722L12.6931 8.58006C12.6831 8.59499 12.6691 8.60792 12.6561 8.62086L13.0801 9.07459Z" fill="#FBBE4A"/>
</g>
<mask id="mask30_2_572" style="mask-type:luminance" maskUnits="userSpaceOnUse" x="0" y="0" width="24" height="16">
<path d="M0 16.0001H24V6.29425e-05H0V16.0001Z" fill="white"/>
</mask>
<g mask="url(#mask30_2_572)">
<path d="M12.6561 8.62138C12.6461 8.63233 12.6351 8.64228 12.6241 8.65323L13.0801 9.07611L12.6561 8.62138Z" fill="#84371B"/>
</g>
<mask id="mask31_2_572" style="mask-type:luminance" maskUnits="userSpaceOnUse" x="0" y="0" width="24" height="16">
<path d="M0 16.0001H24V6.29425e-05H0V16.0001Z" fill="white"/>
</mask>
<g mask="url(#mask31_2_572)">
<path d="M12.8389 9.26213C12.7759 9.03228 12.6089 8.96064 12.4829 8.76362C12.4649 8.77357 12.4489 8.78452 12.4319 8.79348C12.5509 8.97656 12.7219 9.07407 12.7889 9.28601C12.8709 9.54969 13.0699 9.63427 13.1439 9.71885C13.2159 9.80442 13.1739 9.89099 13.2089 9.89298C13.2429 9.89497 13.2759 9.79049 13.1959 9.65815C13.1169 9.5288 12.9929 9.53178 12.8889 9.21238C12.8019 8.94173 12.6579 8.89298 12.5679 8.70392C12.5529 8.71487 12.5379 8.72581 12.5249 8.73576C12.6409 8.9686 12.8259 9.05915 12.8389 9.26213Z" fill="#FBBE4A"/>
</g>
<mask id="mask32_2_572" style="mask-type:luminance" maskUnits="userSpaceOnUse" x="0" y="0" width="24" height="16">
<path d="M0 16.0001H24V6.29425e-05H0V16.0001Z" fill="white"/>
</mask>
<g mask="url(#mask32_2_572)">
<path d="M12.5234 8.73596C12.5094 8.74591 12.4974 8.75487 12.4814 8.76382C12.6074 8.96084 12.7744 9.03248 12.8384 9.26233C12.8264 9.05934 12.6414 8.9688 12.5234 8.73596Z" fill="#84371B"/>
</g>
<mask id="mask33_2_572" style="mask-type:luminance" maskUnits="userSpaceOnUse" x="0" y="0" width="24" height="16">
<path d="M0 16.0001H24V6.29425e-05H0V16.0001Z" fill="white"/>
</mask>
<g mask="url(#mask33_2_572)">
<path d="M11.4155 9.40404L11.6325 8.82394C11.6155 8.81698 11.5995 8.80902 11.5825 8.80205L11.1235 10.0359C11.1235 10.0359 11.1065 10.0727 11.1325 10.0856C11.1585 10.0946 11.1745 10.0558 11.1745 10.0558L11.7265 8.85976C11.7085 8.85479 11.6915 8.84782 11.6745 8.84285L11.4155 9.40404Z" fill="#FBBE4A"/>
</g>
<mask id="mask34_2_572" style="mask-type:luminance" maskUnits="userSpaceOnUse" x="0" y="0" width="24" height="16">
<path d="M0 16.0001H24V6.29425e-05H0V16.0001Z" fill="white"/>
</mask>
<g mask="url(#mask34_2_572)">
<path d="M11.6744 8.84144C11.6604 8.83547 11.6464 8.83049 11.6324 8.82353L11.4154 9.40363L11.6744 8.84144Z" fill="#84371B"/>
</g>
<mask id="mask35_2_572" style="mask-type:luminance" maskUnits="userSpaceOnUse" x="0" y="0" width="24" height="16">
<path d="M0 16.0001H24V6.29425e-05H0V16.0001Z" fill="white"/>
</mask>
<g mask="url(#mask35_2_572)">
<path d="M11.1499 9.25441C11.3389 9.10814 11.3409 8.92605 11.4759 8.736C11.4599 8.72406 11.4439 8.71312 11.4289 8.70018C11.3049 8.88128 11.2799 9.07431 11.1079 9.2176C10.8959 9.39471 10.8929 9.60864 10.8419 9.70914C10.7909 9.80964 10.6939 9.80367 10.7059 9.83551C10.7169 9.86834 10.8259 9.8564 10.9169 9.73401C11.0089 9.61163 10.9589 9.49919 11.2149 9.28128C11.4329 9.09819 11.4229 8.94695 11.5639 8.79073C11.5479 8.78178 11.5329 8.77282 11.5179 8.76287C11.3459 8.95989 11.3329 9.16486 11.1499 9.25441Z" fill="#FBBE4A"/>
</g>
<mask id="mask36_2_572" style="mask-type:luminance" maskUnits="userSpaceOnUse" x="0" y="0" width="24" height="16">
<path d="M0 16.0001H24V6.29425e-05H0V16.0001Z" fill="white"/>
</mask>
<g mask="url(#mask36_2_572)">
<path d="M11.1499 9.25439C11.3329 9.16484 11.3459 8.95987 11.5179 8.76285C11.5039 8.7539 11.4889 8.74494 11.4759 8.73599C11.3409 8.92604 11.3389 9.10813 11.1499 9.25439Z" fill="#84371B"/>
</g>
<mask id="mask37_2_572" style="mask-type:luminance" maskUnits="userSpaceOnUse" x="0" y="0" width="24" height="16">
<path d="M0 16.0001H24V6.29425e-05H0V16.0001Z" fill="white"/>
</mask>
<g mask="url(#mask37_2_572)">
<path d="M12.5849 6.59579L12.3679 7.17589C12.3849 7.18285 12.3999 7.19181 12.4179 7.19977L12.8779 5.96494C12.8779 5.96494 12.8939 5.92713 12.8679 5.91619C12.8419 5.90524 12.8259 5.94405 12.8259 5.94405L12.2729 7.14007C12.2919 7.14604 12.3089 7.153 12.3259 7.15897L12.5849 6.59579Z" fill="#FBBE4A"/>
</g>
<mask id="mask38_2_572" style="mask-type:luminance" maskUnits="userSpaceOnUse" x="0" y="0" width="24" height="16">
<path d="M0 16.0001H24V6.29425e-05H0V16.0001Z" fill="white"/>
</mask>
<g mask="url(#mask38_2_572)">
<path d="M12.3263 7.15844C12.3403 7.16341 12.3533 7.16938 12.3683 7.17535L12.5853 6.59525L12.3263 7.15844Z" fill="#84371B"/>
</g>
<mask id="mask39_2_572" style="mask-type:luminance" maskUnits="userSpaceOnUse" x="0" y="0" width="24" height="16">
<path d="M0 16.0001H24V6.29425e-05H0V16.0001Z" fill="white"/>
</mask>
<g mask="url(#mask39_2_572)">
<path d="M12.8506 6.74594C12.6616 6.89321 12.6596 7.0743 12.5246 7.26435C12.5396 7.27629 12.5566 7.28724 12.5716 7.30017C12.6956 7.12007 12.7206 6.92604 12.8926 6.78276C13.1046 6.60664 13.1076 6.39171 13.1586 6.29122C13.2086 6.19171 13.3066 6.19768 13.2936 6.16485C13.2836 6.13201 13.1756 6.14296 13.0826 6.26634C12.9916 6.38873 13.0406 6.50117 12.7846 6.71908C12.5676 6.90316 12.5776 7.0534 12.4366 7.20962C12.4526 7.21858 12.4676 7.22753 12.4826 7.23748C12.6546 7.03947 12.6666 6.83549 12.8506 6.74594Z" fill="#FBBE4A"/>
</g>
<mask id="mask40_2_572" style="mask-type:luminance" maskUnits="userSpaceOnUse" x="0" y="0" width="24" height="16">
<path d="M0 16.0001H24V6.29425e-05H0V16.0001Z" fill="white"/>
</mask>
<g mask="url(#mask40_2_572)">
<path d="M12.8507 6.74594C12.6667 6.83549 12.6547 7.03947 12.4827 7.23748C12.4967 7.24544 12.5107 7.25539 12.5247 7.26434C12.6597 7.07429 12.6617 6.8932 12.8507 6.74594Z" fill="#84371B"/>
</g>
<mask id="mask41_2_572" style="mask-type:luminance" maskUnits="userSpaceOnUse" x="0" y="0" width="24" height="16">
<path d="M0 16.0001H24V6.29425e-05H0V16.0001Z" fill="white"/>
</mask>
<g mask="url(#mask41_2_572)">
<path d="M10.5889 7.41839L11.1719 7.63431C11.1789 7.6174 11.1869 7.60148 11.1959 7.58456L9.95489 7.12685C9.95489 7.12685 9.91689 7.11093 9.90589 7.1368C9.89489 7.16267 9.93389 7.17859 9.93389 7.17859L11.1359 7.72784C11.1409 7.70993 11.1479 7.69302 11.1549 7.6761L10.5889 7.41839Z" fill="#FBBE4A"/>
</g>
<mask id="mask42_2_572" style="mask-type:luminance" maskUnits="userSpaceOnUse" x="0" y="0" width="24" height="16">
<path d="M0 16.0001H24V6.29425e-05H0V16.0001Z" fill="white"/>
</mask>
<g mask="url(#mask42_2_572)">
<path d="M11.1549 7.6759C11.1599 7.66197 11.1659 7.64804 11.1719 7.63411L10.5889 7.41819L11.1549 7.6759Z" fill="#84371B"/>
</g>
<mask id="mask43_2_572" style="mask-type:luminance" maskUnits="userSpaceOnUse" x="0" y="0" width="24" height="16">
<path d="M0 16.0001H24V6.29425e-05H0V16.0001Z" fill="white"/>
</mask>
<g mask="url(#mask43_2_572)">
<path d="M10.7388 7.15361C10.8868 7.34167 11.0688 7.34366 11.2608 7.47799C11.2718 7.46306 11.2838 7.44615 11.2958 7.43122C11.1148 7.30784 10.9208 7.28296 10.7758 7.11182C10.5988 6.90088 10.3828 6.89789 10.2818 6.84714C10.1818 6.7964 10.1888 6.69988 10.1558 6.71182C10.1218 6.72277 10.1338 6.83122 10.2568 6.92177C10.3798 7.01331 10.4928 6.96356 10.7118 7.21928C10.8968 7.4352 11.0488 7.42525 11.2048 7.56555C11.2138 7.54963 11.2228 7.53471 11.2328 7.51978C11.0348 7.34963 10.8288 7.3357 10.7388 7.15361Z" fill="#FBBE4A"/>
</g>
<mask id="mask44_2_572" style="mask-type:luminance" maskUnits="userSpaceOnUse" x="0" y="0" width="24" height="16">
<path d="M0 16.0001H24V6.29425e-05H0V16.0001Z" fill="white"/>
</mask>
<g mask="url(#mask44_2_572)">
<path d="M10.7389 7.15361C10.8289 7.3357 11.0349 7.34963 11.2329 7.51978C11.2419 7.50585 11.2509 7.49191 11.2609 7.47798C11.0689 7.34366 10.8869 7.34167 10.7389 7.15361Z" fill="#84371B"/>
</g>
<mask id="mask45_2_572" style="mask-type:luminance" maskUnits="userSpaceOnUse" x="0" y="0" width="24" height="16">
<path d="M0 16.0001H24V6.29425e-05H0V16.0001Z" fill="white"/>
</mask>
<g mask="url(#mask45_2_572)">
<path d="M13.4112 8.58197L12.8282 8.36605C12.8212 8.38296 12.8132 8.39888 12.8052 8.4158L14.0452 8.87351C14.0452 8.87351 14.0832 8.88943 14.0952 8.86356C14.1052 8.83769 14.0662 8.82177 14.0662 8.82177L12.8642 8.27252C12.8592 8.29043 12.8522 8.30734 12.8462 8.32426L13.4112 8.58197Z" fill="#FBBE4A"/>
</g>
<mask id="mask46_2_572" style="mask-type:luminance" maskUnits="userSpaceOnUse" x="0" y="0" width="24" height="16">
<path d="M0 16.0001H24V6.29425e-05H0V16.0001Z" fill="white"/>
</mask>
<g mask="url(#mask46_2_572)">
<path d="M12.8458 8.32444C12.8408 8.33837 12.8348 8.3523 12.8278 8.36623L13.4108 8.58215L12.8458 8.32444Z" fill="#84371B"/>
</g>
<mask id="mask47_2_572" style="mask-type:luminance" maskUnits="userSpaceOnUse" x="0" y="0" width="24" height="16">
<path d="M0 16.0001H24V6.29425e-05H0V16.0001Z" fill="white"/>
</mask>
<g mask="url(#mask47_2_572)">
<path d="M13.2606 8.84586C13.1136 8.65879 12.9306 8.65581 12.7396 8.52148C12.7276 8.5374 12.7166 8.55332 12.7026 8.56825C12.8846 8.69262 13.0786 8.7165 13.2236 8.88765C13.4006 9.09859 13.6166 9.10158 13.7176 9.15332C13.8176 9.20307 13.8116 9.30058 13.8446 9.28765C13.8776 9.2767 13.8656 9.17024 13.7416 9.0777C13.6186 8.98715 13.5066 9.03591 13.2866 8.78118C13.1036 8.56427 12.9506 8.57422 12.7956 8.43392C12.7856 8.44984 12.7766 8.46476 12.7666 8.47969C12.9656 8.65083 13.1706 8.66377 13.2606 8.84586Z" fill="#FBBE4A"/>
</g>
<mask id="mask48_2_572" style="mask-type:luminance" maskUnits="userSpaceOnUse" x="0" y="0" width="24" height="16">
<path d="M0 16.0001H24V6.29425e-05H0V16.0001Z" fill="white"/>
</mask>
<g mask="url(#mask48_2_572)">
<path d="M13.2609 8.84583C13.1709 8.66374 12.9659 8.6508 12.7669 8.47966C12.7589 8.49359 12.7479 8.50851 12.7399 8.52145C12.9309 8.65578 13.1139 8.65876 13.2609 8.84583Z" fill="#84371B"/>
</g>
<mask id="mask49_2_572" style="mask-type:luminance" maskUnits="userSpaceOnUse" x="0" y="0" width="24" height="16">
<path d="M0 16.0001H24V6.29425e-05H0V16.0001Z" fill="white"/>
</mask>
<g mask="url(#mask49_2_572)">
<path d="M10.5889 8.58197L11.1549 8.32426C11.1479 8.30734 11.1409 8.29043 11.1359 8.27252L9.93389 8.82177C9.93389 8.82177 9.89489 8.83769 9.90589 8.86356C9.91689 8.88943 9.95489 8.87351 9.95489 8.87351L11.1959 8.4158C11.1869 8.39888 11.1789 8.38296 11.1719 8.36605L10.5889 8.58197Z" fill="#FBBE4A"/>
</g>
<mask id="mask50_2_572" style="mask-type:luminance" maskUnits="userSpaceOnUse" x="0" y="0" width="24" height="16">
<path d="M0 16.0001H24V6.29425e-05H0V16.0001Z" fill="white"/>
</mask>
<g mask="url(#mask50_2_572)">
<path d="M11.1719 8.36623C11.1659 8.3523 11.1599 8.33837 11.1549 8.32444L10.5889 8.58215L11.1719 8.36623Z" fill="#84371B"/>
</g>
<mask id="mask51_2_572" style="mask-type:luminance" maskUnits="userSpaceOnUse" x="0" y="0" width="24" height="16">
<path d="M0 16.0001H24V6.29425e-05H0V16.0001Z" fill="white"/>
</mask>
<g mask="url(#mask51_2_572)">
<path d="M10.5073 8.28904C10.7453 8.3179 10.8763 8.19153 11.1073 8.15173C11.1033 8.13183 11.1003 8.11292 11.0983 8.09402C10.8823 8.13382 10.7273 8.25322 10.5033 8.23332C10.2293 8.20844 10.0733 8.35869 9.96628 8.39352C9.86028 8.42834 9.79628 8.35571 9.78028 8.38755C9.76528 8.41839 9.84928 8.48705 10.0013 8.46417C10.1533 8.44227 10.1983 8.32785 10.5343 8.35471C10.8193 8.3776 10.9203 8.26417 11.1303 8.25322C11.1253 8.2363 11.1203 8.21839 11.1163 8.20048C10.8553 8.21939 10.7003 8.35372 10.5073 8.28904Z" fill="#FBBE4A"/>
</g>
<mask id="mask52_2_572" style="mask-type:luminance" maskUnits="userSpaceOnUse" x="0" y="0" width="24" height="16">
<path d="M0 16.0001H24V6.29425e-05H0V16.0001Z" fill="white"/>
</mask>
<g mask="url(#mask52_2_572)">
<path d="M10.5072 8.28899C10.7002 8.35366 10.8552 8.21933 11.1162 8.20043C11.1122 8.18451 11.1102 8.16759 11.1072 8.15167C10.8762 8.19147 10.7452 8.31784 10.5072 8.28899Z" fill="#84371B"/>
</g>
<mask id="mask53_2_572" style="mask-type:luminance" maskUnits="userSpaceOnUse" x="0" y="0" width="24" height="16">
<path d="M0 16.0001H24V6.29425e-05H0V16.0001Z" fill="white"/>
</mask>
<g mask="url(#mask53_2_572)">
<path d="M13.4112 7.41839L12.8462 7.6761C12.8522 7.69302 12.8592 7.70993 12.8642 7.72784L14.0662 7.17859C14.0662 7.17859 14.1052 7.16267 14.0952 7.1368C14.0832 7.11093 14.0452 7.12685 14.0452 7.12685L12.8052 7.58456C12.8132 7.60148 12.8212 7.6174 12.8282 7.63431L13.4112 7.41839Z" fill="#FBBE4A"/>
</g>
<mask id="mask54_2_572" style="mask-type:luminance" maskUnits="userSpaceOnUse" x="0" y="0" width="24" height="16">
<path d="M0 16.0001H24V6.29425e-05H0V16.0001Z" fill="white"/>
</mask>
<g mask="url(#mask54_2_572)">
<path d="M12.828 7.63411C12.834 7.64804 12.841 7.66197 12.846 7.6759L13.411 7.41819L12.828 7.63411Z" fill="#84371B"/>
</g>
<mask id="mask55_2_572" style="mask-type:luminance" maskUnits="userSpaceOnUse" x="0" y="0" width="24" height="16">
<path d="M0 16.0001H24V6.29425e-05H0V16.0001Z" fill="white"/>
</mask>
<g mask="url(#mask55_2_572)">
<path d="M13.4932 7.71129C13.2552 7.68243 13.1242 7.8088 12.8922 7.84959C12.8962 7.8685 12.9002 7.88741 12.9022 7.90631C13.1182 7.86751 13.2732 7.74711 13.4962 7.768C13.7712 7.79188 13.9272 7.64163 14.0342 7.60681C14.1402 7.57198 14.2042 7.64462 14.2202 7.61278C14.2352 7.58193 14.1502 7.51328 13.9992 7.53616C13.8472 7.55805 13.8022 7.67248 13.4662 7.64661C13.1812 7.62372 13.0802 7.73616 12.8702 7.74711C12.8752 7.76502 12.8802 7.78193 12.8842 7.79984C13.1442 7.78094 13.3002 7.64661 13.4932 7.71129Z" fill="#FBBE4A"/>
</g>
<mask id="mask56_2_572" style="mask-type:luminance" maskUnits="userSpaceOnUse" x="0" y="0" width="24" height="16">
<path d="M0 16.0001H24V6.29425e-05H0V16.0001Z" fill="white"/>
</mask>
<g mask="url(#mask56_2_572)">
<path d="M13.4933 7.7113C13.3003 7.64662 13.1443 7.78095 12.8843 7.79986C12.8883 7.81578 12.8893 7.83269 12.8923 7.84961C13.1243 7.80881 13.2553 7.68245 13.4933 7.7113Z" fill="#84371B"/>
</g>
<mask id="mask57_2_572" style="mask-type:luminance" maskUnits="userSpaceOnUse" x="0" y="0" width="24" height="16">
<path d="M0 16.0001H24V6.29425e-05H0V16.0001Z" fill="white"/>
</mask>
<g mask="url(#mask57_2_572)">
<path d="M11.4155 6.59579L11.6745 7.15897C11.6915 7.153 11.7085 7.14604 11.7265 7.14007L11.1745 5.94405C11.1745 5.94405 11.1585 5.90524 11.1325 5.91619C11.1065 5.92713 11.1235 5.96494 11.1235 5.96494L11.5825 7.19977C11.5995 7.19181 11.6155 7.18285 11.6325 7.17589L11.4155 6.59579Z" fill="#FBBE4A"/>
</g>
<mask id="mask58_2_572" style="mask-type:luminance" maskUnits="userSpaceOnUse" x="0" y="0" width="24" height="16">
<path d="M0 16.0001H24V6.29425e-05H0V16.0001Z" fill="white"/>
</mask>
<g mask="url(#mask58_2_572)">
<path d="M11.6324 7.1759C11.6464 7.16993 11.6604 7.16396 11.6744 7.15899L11.4154 6.5958L11.6324 7.1759Z" fill="#84371B"/>
</g>
<mask id="mask59_2_572" style="mask-type:luminance" maskUnits="userSpaceOnUse" x="0" y="0" width="24" height="16">
<path d="M0 16.0001H24V6.29425e-05H0V16.0001Z" fill="white"/>
</mask>
<g mask="url(#mask59_2_572)">
<path d="M11.7094 6.51468C11.6804 6.7515 11.8074 6.88085 11.8474 7.1117C11.8674 7.10772 11.8864 7.10473 11.9054 7.10274C11.8654 6.88782 11.7454 6.73359 11.7654 6.5107C11.7904 6.23707 11.6394 6.08284 11.6044 5.97637C11.5694 5.86991 11.6424 5.80622 11.6104 5.7913C11.5794 5.77637 11.5104 5.85996 11.5334 6.0112C11.5554 6.16244 11.6704 6.20722 11.6434 6.54155C11.6204 6.82513 11.7344 6.92463 11.7454 7.13458C11.7634 7.12961 11.7804 7.12463 11.7984 7.12065C11.7794 6.86095 11.6444 6.70672 11.7094 6.51468Z" fill="#FBBE4A"/>
</g>
<mask id="mask60_2_572" style="mask-type:luminance" maskUnits="userSpaceOnUse" x="0" y="0" width="24" height="16">
<path d="M0 16.0001H24V6.29425e-05H0V16.0001Z" fill="white"/>
</mask>
<g mask="url(#mask60_2_572)">
<path d="M11.7096 6.5147C11.6446 6.70674 11.7796 6.86097 11.7986 7.12067C11.8146 7.11669 11.8316 7.1147 11.8476 7.11171C11.8076 6.88087 11.6806 6.75151 11.7096 6.5147Z" fill="#84371B"/>
</g>
<mask id="mask61_2_572" style="mask-type:luminance" maskUnits="userSpaceOnUse" x="0" y="0" width="24" height="16">
<path d="M0 16.0001H24V6.29425e-05H0V16.0001Z" fill="white"/>
</mask>
<g mask="url(#mask61_2_572)">
<path d="M12.5849 9.40404L12.3259 8.84285C12.3089 8.84782 12.2919 8.85479 12.2729 8.85976L12.8259 10.0558C12.8259 10.0558 12.8419 10.0946 12.8679 10.0856C12.8939 10.0727 12.8779 10.0359 12.8779 10.0359L12.4179 8.80205C12.3999 8.80902 12.3849 8.81698 12.3679 8.82394L12.5849 9.40404Z" fill="#FBBE4A"/>
</g>
<mask id="mask62_2_572" style="mask-type:luminance" maskUnits="userSpaceOnUse" x="0" y="0" width="24" height="16">
<path d="M0 16.0001H24V6.29425e-05H0V16.0001Z" fill="white"/>
</mask>
<g mask="url(#mask62_2_572)">
<path d="M12.3683 8.82395C12.3533 8.82992 12.3403 8.83589 12.3263 8.84186L12.5853 9.40405L12.3683 8.82395Z" fill="#84371B"/>
</g>
<mask id="mask63_2_572" style="mask-type:luminance" maskUnits="userSpaceOnUse" x="0" y="0" width="24" height="16">
<path d="M0 16.0001H24V6.29425e-05H0V16.0001Z" fill="white"/>
</mask>
<g mask="url(#mask63_2_572)">
<path d="M12.2898 9.48566C12.3188 9.24885 12.1918 9.1185 12.1508 8.88865C12.1318 8.89263 12.1128 8.89561 12.0948 8.8976C12.1328 9.11253 12.2538 9.26576 12.2328 9.48964C12.2088 9.76228 12.3598 9.9175 12.3948 10.024C12.4308 10.1294 12.3568 10.1941 12.3898 10.209C12.4198 10.224 12.4888 10.1404 12.4658 9.98914C12.4438 9.8379 12.3288 9.79312 12.3558 9.4588C12.3788 9.17521 12.2658 9.07571 12.2538 8.86576C12.2358 8.87074 12.2198 8.87571 12.2008 8.87969C12.2208 9.1384 12.3548 9.29362 12.2898 9.48566Z" fill="#FBBE4A"/>
</g>
<mask id="mask64_2_572" style="mask-type:luminance" maskUnits="userSpaceOnUse" x="0" y="0" width="24" height="16">
<path d="M0 16.0001H24V6.29425e-05H0V16.0001Z" fill="white"/>
</mask>
<g mask="url(#mask64_2_572)">
<path d="M12.2901 9.48566C12.3551 9.29362 12.2211 9.13839 12.2011 8.87969C12.1861 8.88367 12.1681 8.88566 12.1511 8.88864C12.1921 9.11849 12.3191 9.24884 12.2901 9.48566Z" fill="#84371B"/>
</g>
<mask id="mask65_2_572" style="mask-type:luminance" maskUnits="userSpaceOnUse" x="0" y="0" width="24" height="16">
<path d="M0 16.0001H24V6.29425e-05H0V16.0001Z" fill="white"/>
</mask>
<g mask="url(#mask65_2_572)">
<path d="M11.9444 7.7366C11.9924 7.86098 11.9804 7.99929 11.9094 8.13163C11.9024 8.12566 11.8884 8.11869 11.8824 8.11869C11.9764 7.98536 11.9834 7.858 11.9024 7.75053C11.7914 7.64605 11.5894 7.66695 11.4284 7.80625C11.5824 7.5973 11.7914 7.61222 11.9444 7.7366ZM12.5724 7.80625C12.4114 7.66695 12.2094 7.64605 12.0974 7.75053C12.0154 7.858 12.0244 7.98536 12.1184 8.11869C12.1114 8.11869 12.0974 8.12566 12.0904 8.13163C12.0204 7.99929 12.0074 7.86098 12.0554 7.7366C12.2094 7.61222 12.4194 7.5973 12.5724 7.80625ZM12.1804 7.95849C12.1114 7.9177 12.1114 7.90277 12.1264 7.90277C12.1384 7.90277 12.1534 7.9177 12.2094 7.94456C12.2644 7.97242 12.3484 7.97242 12.4884 7.9177C12.3694 8.00725 12.2514 8.00028 12.1804 7.95849ZM12.0004 8.51372C12.0694 8.51372 12.1264 8.56944 12.1264 8.63909C12.1224 8.62416 12.1154 8.61023 12.1064 8.5973C12.1044 8.59431 12.1014 8.59133 12.0984 8.58735C12.0904 8.57839 12.0824 8.57043 12.0724 8.56347C12.0704 8.56247 12.0684 8.56048 12.0664 8.55849C12.0524 8.55153 12.0404 8.54655 12.0264 8.54357C12.0174 8.54158 12.0074 8.54257 12.0004 8.54257C11.9914 8.54257 11.9834 8.54158 11.9744 8.54357C11.9604 8.54655 11.9464 8.55153 11.9344 8.55849C11.9324 8.56048 11.9294 8.56247 11.9274 8.56347C11.9174 8.57043 11.9084 8.57839 11.9014 8.58735C11.8984 8.59133 11.8964 8.59431 11.8944 8.5973C11.8854 8.61023 11.8784 8.62416 11.8744 8.63909C11.8744 8.56944 11.9304 8.51372 12.0004 8.51372C11.8464 8.51372 11.9164 8.43113 11.7704 8.4172C11.8334 8.37541 11.8614 8.31272 11.9304 8.31272C11.9444 8.31272 11.9724 8.31969 12.0004 8.33362C12.0284 8.31969 12.0554 8.31272 12.0694 8.31272C12.1384 8.31272 12.1684 8.37541 12.2304 8.4172C12.0844 8.43113 12.1534 8.51372 12.0004 8.51372ZM11.5124 7.9177C11.6514 7.97242 11.7354 7.97242 11.7914 7.94456C11.8464 7.9177 11.8614 7.90277 11.8744 7.90277C11.8884 7.90277 11.8884 7.9177 11.8194 7.95849C11.7494 8.00028 11.6304 8.00725 11.5124 7.9177ZM11.6944 7.9376H11.6914C11.6324 7.9366 11.5694 7.91969 11.5194 7.88188C11.6104 7.78536 11.7774 7.77839 11.8464 7.88884C11.8114 7.92068 11.7554 7.93859 11.6944 7.9376ZM12.1534 7.88884C12.2224 7.77839 12.3904 7.78536 12.4814 7.88188C12.4294 7.91969 12.3684 7.9366 12.3094 7.9376H12.3064H12.3054C12.2454 7.93859 12.1894 7.92068 12.1534 7.88884ZM12.3214 7.76446C12.4614 7.76446 12.5444 7.87591 12.5304 7.88188C12.5154 7.88884 12.4464 7.78536 12.3214 7.78536C12.2794 7.78536 12.2374 7.78536 12.1954 7.81919C12.1534 7.85501 12.1264 7.86795 12.1114 7.87591C12.0974 7.88188 12.0904 7.86098 12.0974 7.85501C12.1054 7.84804 12.1264 7.85501 12.1684 7.81919C12.2094 7.78536 12.2304 7.76446 12.3214 7.76446ZM11.8284 8.17839C11.8364 8.20028 11.8604 8.21123 11.8824 8.20327C11.8974 8.19829 11.9084 8.18337 11.9094 8.16745C11.9164 8.18038 11.9444 8.22217 12.0004 8.22217C12.0554 8.22217 12.0844 8.18038 12.0904 8.16745C12.0904 8.18337 12.1034 8.19829 12.1184 8.20327C12.1394 8.21123 12.1644 8.20028 12.1724 8.17839C12.1784 8.1565 12.1684 8.13262 12.1464 8.12566C12.1634 8.12864 12.1764 8.1376 12.1874 8.15153C12.2064 8.17939 12.1994 8.21819 12.1714 8.23809C12.1434 8.25799 12.1044 8.25103 12.0844 8.22217C12.0554 8.24307 12.0134 8.24307 12.0004 8.24307C11.9864 8.24307 11.9444 8.24307 11.9164 8.22217C11.8964 8.25103 11.8574 8.25799 11.8294 8.23809C11.8004 8.21819 11.7934 8.17939 11.8134 8.15153C11.8234 8.1376 11.8374 8.12864 11.8534 8.12566C11.8324 8.13262 11.8204 8.1565 11.8284 8.17839ZM11.6794 7.76446C11.7704 7.76446 11.7914 7.78536 11.8334 7.81919C11.8744 7.85501 11.8954 7.84804 11.9024 7.85501C11.9094 7.86098 11.9024 7.88188 11.8884 7.87591C11.8744 7.86795 11.8464 7.85501 11.8054 7.81919C11.7634 7.78536 11.7214 7.78536 11.6794 7.78536C11.5534 7.78536 11.4844 7.88884 11.4704 7.88188C11.4564 7.87591 11.5404 7.76446 11.6794 7.76446ZM11.0934 8.00028C11.0934 8.00824 11.0944 8.01521 11.0944 8.02317C11.0954 8.04108 11.0954 8.05998 11.0974 8.0779C11.0974 8.08287 11.0974 8.08884 11.0984 8.09382C11.1004 8.11272 11.1034 8.13163 11.1074 8.15153C11.1104 8.16844 11.1124 8.18436 11.1164 8.20028C11.1204 8.21819 11.1254 8.2361 11.1304 8.25401C11.1324 8.25998 11.1334 8.26695 11.1354 8.27292C11.1414 8.29083 11.1484 8.30775 11.1544 8.32466C11.1604 8.33859 11.1654 8.35252 11.1724 8.36645C11.1794 8.38237 11.1874 8.39929 11.1954 8.41521C11.1984 8.42018 11.2004 8.42516 11.2024 8.43013C11.2124 8.44705 11.2224 8.46297 11.2334 8.47989C11.2424 8.49382 11.2514 8.50775 11.2604 8.52168C11.2714 8.5366 11.2824 8.55053 11.2934 8.56546L11.3064 8.58138C11.3184 8.59531 11.3314 8.60824 11.3434 8.62118C11.3544 8.63212 11.3644 8.64307 11.3764 8.65302C11.3894 8.66596 11.4024 8.67889 11.4164 8.68984C11.4204 8.69382 11.4244 8.6978 11.4294 8.70078C11.4444 8.71272 11.4604 8.72466 11.4764 8.73561C11.4894 8.74556 11.5034 8.75451 11.5184 8.76347C11.5334 8.77342 11.5484 8.78237 11.5644 8.79133C11.5704 8.79431 11.5764 8.7973 11.5834 8.80128C11.5994 8.80924 11.6154 8.8172 11.6324 8.82416C11.6464 8.83113 11.6604 8.8361 11.6744 8.84207C11.6914 8.84804 11.7084 8.85501 11.7264 8.85998C11.7314 8.86197 11.7364 8.86297 11.7414 8.86496C11.7604 8.87093 11.7794 8.87591 11.7984 8.87889C11.8154 8.88287 11.8314 8.88586 11.8484 8.88884C11.8654 8.89183 11.8834 8.89581 11.9024 8.8978C11.9084 8.8978 11.9164 8.8978 11.9234 8.89879C11.9414 8.89979 11.9594 8.90078 11.9774 8.90178C11.9854 8.90178 11.9924 8.90277 12.0004 8.90277C12.0064 8.90277 12.0144 8.90178 12.0234 8.90178C12.0414 8.90078 12.0594 8.89979 12.0774 8.89879C12.0834 8.8978 12.0894 8.8978 12.0934 8.8978C12.1134 8.89581 12.1314 8.89282 12.1524 8.88884C12.1694 8.88586 12.1854 8.88287 12.2014 8.87989C12.2184 8.87591 12.2364 8.87093 12.2544 8.86596L12.2744 8.85998C12.2924 8.85501 12.3094 8.84804 12.3264 8.84207C12.3404 8.8361 12.3544 8.83113 12.3684 8.82416C12.3834 8.8172 12.4014 8.80924 12.4174 8.80128C12.4224 8.79829 12.4264 8.7963 12.4314 8.79332C12.4494 8.78436 12.4654 8.77342 12.4824 8.76347C12.4964 8.75451 12.5094 8.74556 12.5244 8.73561C12.5384 8.72566 12.5524 8.71471 12.5674 8.70377C12.5734 8.69979 12.5784 8.69481 12.5844 8.68984C12.5964 8.67889 12.6114 8.66596 12.6244 8.65401C12.6344 8.64307 12.6464 8.63212 12.6564 8.62217C12.6694 8.60824 12.6814 8.59531 12.6944 8.58138C12.6974 8.5774 12.7004 8.57242 12.7044 8.56844C12.7154 8.55352 12.7284 8.5376 12.7394 8.52267C12.7494 8.50874 12.7574 8.49481 12.7674 8.48088C12.7774 8.46496 12.7864 8.45003 12.7954 8.43411L12.8034 8.4162C12.8134 8.39929 12.8214 8.38237 12.8284 8.36645C12.8354 8.35252 12.8404 8.33859 12.8444 8.32466C12.8524 8.30775 12.8594 8.29083 12.8644 8.27292C12.8664 8.26795 12.8674 8.26297 12.8694 8.257C12.8744 8.23909 12.8794 8.22018 12.8824 8.20128C12.8864 8.18436 12.8894 8.16844 12.8934 8.15153L12.9024 8.0978C12.9024 8.09083 12.9024 8.08486 12.9034 8.0779C12.9044 8.05998 12.9054 8.04108 12.9054 8.02317C12.9064 8.01521 12.9074 8.00824 12.9074 8.00028C12.9074 7.99232 12.9064 7.98536 12.9054 7.9774C12.9054 7.95949 12.9044 7.94158 12.9034 7.92267C12.9024 7.9177 12.9024 7.91173 12.9024 7.90675C12.9004 7.88685 12.8964 7.86795 12.8934 7.84904C12.8894 7.83312 12.8864 7.8162 12.8824 7.80028C12.8804 7.78237 12.8754 7.76446 12.8704 7.74755C12.8684 7.74058 12.8664 7.73461 12.8644 7.72765C12.8594 7.71073 12.8524 7.69382 12.8444 7.67591C12.8404 7.66198 12.8354 7.64804 12.8284 7.63411C12.8214 7.6172 12.8134 7.60128 12.8034 7.58536L12.7984 7.57043C12.7884 7.55352 12.7774 7.5366 12.7674 7.52068C12.7574 7.50675 12.7494 7.49282 12.7394 7.47889C12.7294 7.46496 12.7174 7.45003 12.7074 7.4361C12.7024 7.43013 12.6984 7.42516 12.6944 7.41919C12.6814 7.40526 12.6694 7.39232 12.6564 7.37939C12.6464 7.36844 12.6344 7.3575 12.6244 7.34655C12.6114 7.33461 12.5964 7.32168 12.5844 7.31073C12.5794 7.30675 12.5754 7.30277 12.5714 7.29979C12.5554 7.28785 12.5404 7.27591 12.5244 7.26496C12.5094 7.25501 12.4974 7.24605 12.4824 7.2371C12.4664 7.22814 12.4524 7.21819 12.4364 7.20924C12.4294 7.20625 12.4234 7.20327 12.4174 7.19929C12.4014 7.19133 12.3834 7.18337 12.3684 7.1764C12.3544 7.17043 12.3404 7.16446 12.3264 7.15849C12.3094 7.15252 12.2924 7.14556 12.2744 7.13959L12.2574 7.13561C12.2394 7.13063 12.2204 7.12566 12.2014 7.12068C12.1854 7.1177 12.1694 7.11471 12.1524 7.11173C12.1334 7.10874 12.1164 7.10576 12.0974 7.10377C12.0904 7.10277 12.0844 7.10277 12.0774 7.10178C12.0594 7.09979 12.0414 7.09979 12.0234 7.09879C12.0144 7.09879 12.0064 7.0978 12.0004 7.0978C11.9924 7.0978 11.9854 7.09879 11.9774 7.09879C11.9594 7.09979 11.9414 7.09979 11.9234 7.10178C11.9174 7.10277 11.9114 7.10277 11.9064 7.10277C11.8864 7.10476 11.8674 7.10874 11.8484 7.11173C11.8314 7.11471 11.8154 7.1177 11.7994 7.12068C11.7814 7.12466 11.7634 7.12964 11.7464 7.13461C11.7394 7.1366 11.7324 7.1376 11.7264 7.14058C11.7084 7.14556 11.6914 7.15252 11.6744 7.15849C11.6604 7.16446 11.6464 7.17043 11.6324 7.1764C11.6154 7.18337 11.5994 7.19133 11.5834 7.19929C11.5784 7.20227 11.5724 7.20426 11.5684 7.20725C11.5504 7.2162 11.5344 7.22715 11.5184 7.2371C11.5044 7.24605 11.4894 7.25501 11.4764 7.26496C11.4614 7.27491 11.4464 7.28586 11.4334 7.2968C11.4274 7.30178 11.4224 7.30576 11.4164 7.30974C11.4024 7.32168 11.3894 7.33461 11.3764 7.34655C11.3644 7.3575 11.3544 7.36844 11.3434 7.37939C11.3314 7.39232 11.3184 7.40526 11.3064 7.41919C11.3034 7.42416 11.2994 7.42814 11.2964 7.43212C11.2844 7.44705 11.2724 7.46297 11.2614 7.47889C11.2514 7.49183 11.2424 7.50675 11.2334 7.52068C11.2234 7.53561 11.2144 7.55053 11.2054 7.56645C11.2024 7.57242 11.1984 7.57839 11.1954 7.58536C11.1874 7.60128 11.1794 7.6172 11.1724 7.63411C11.1654 7.64804 11.1604 7.66198 11.1544 7.67591C11.1484 7.69382 11.1414 7.71073 11.1354 7.72765C11.1344 7.73262 11.1324 7.7376 11.1314 7.74357C11.1264 7.76148 11.1214 7.78038 11.1164 7.79929C11.1124 7.8162 11.1104 7.83212 11.1074 7.84904C11.1044 7.86695 11.1014 7.88387 11.0984 7.90277L11.0974 7.92267C11.0954 7.94158 11.0954 7.95949 11.0944 7.9774C11.0944 7.98536 11.0934 7.99232 11.0934 8.00028Z" fill="#FBBE4A"/>
</g>
<mask id="mask66_2_572" style="mask-type:luminance" maskUnits="userSpaceOnUse" x="0" y="0" width="24" height="16">
<path d="M0 16.0001H24V6.29425e-05H0V16.0001Z" fill="white"/>
</mask>
<g mask="url(#mask66_2_572)">
<path d="M11.7921 8.41626C11.9311 8.37546 11.9591 8.40332 12.0001 8.40332C12.0421 8.40332 12.0691 8.37546 12.2091 8.41626H12.2291C12.1951 8.40332 12.1681 8.37447 12.1191 8.3476C12.0691 8.31974 12.0271 8.35457 12.0001 8.35457C11.9721 8.35457 11.9301 8.31974 11.8821 8.3476C11.8331 8.37447 11.8051 8.40332 11.7701 8.41626H11.7921Z" fill="#FBBE4A"/>
</g>
<mask id="mask67_2_572" style="mask-type:luminance" maskUnits="userSpaceOnUse" x="0" y="0" width="24" height="16">
<path d="M0 16.0001H24V6.29425e-05H0V16.0001Z" fill="white"/>
</mask>
<g mask="url(#mask67_2_572)">
<path d="M11.6305 7.87506C11.6305 7.85416 11.6415 7.83526 11.6585 7.82431C11.6125 7.83227 11.5745 7.85317 11.5685 7.87506C11.5945 7.90391 11.6275 7.92083 11.6615 7.9278C11.6435 7.91685 11.6305 7.89794 11.6305 7.87506Z" fill="#FBBE4A"/>
</g>
<mask id="mask68_2_572" style="mask-type:luminance" maskUnits="userSpaceOnUse" x="0" y="0" width="24" height="16">
<path d="M0 16.0001H24V6.29425e-05H0V16.0001Z" fill="white"/>
</mask>
<g mask="url(#mask68_2_572)">
<path d="M11.7343 7.82895C11.7473 7.83989 11.7553 7.85681 11.7553 7.87571C11.7553 7.89959 11.7423 7.91949 11.7223 7.92944C11.7573 7.92546 11.7913 7.91153 11.8183 7.88964C11.7973 7.85482 11.7663 7.8379 11.7343 7.82895Z" fill="#FBBE4A"/>
</g>
<mask id="mask69_2_572" style="mask-type:luminance" maskUnits="userSpaceOnUse" x="0" y="0" width="24" height="16">
<path d="M0 16.0001H24V6.29425e-05H0V16.0001Z" fill="white"/>
</mask>
<g mask="url(#mask69_2_572)">
<path d="M12.3417 7.82505C12.3587 7.83599 12.3687 7.8539 12.3687 7.87579C12.3687 7.89868 12.3577 7.91758 12.3387 7.92853C12.3727 7.92156 12.4047 7.90465 12.4317 7.87579C12.4257 7.85291 12.3877 7.83201 12.3417 7.82505Z" fill="#FBBE4A"/>
</g>
<mask id="mask70_2_572" style="mask-type:luminance" maskUnits="userSpaceOnUse" x="0" y="0" width="24" height="16">
<path d="M0 16.0001H24V6.29425e-05H0V16.0001Z" fill="white"/>
</mask>
<g mask="url(#mask70_2_572)">
<path d="M12.2441 7.8751C12.2441 7.8562 12.2531 7.84028 12.2651 7.82834C12.2341 7.83729 12.2031 7.85421 12.1821 7.88903C12.2091 7.91092 12.2431 7.92485 12.2781 7.92883C12.2581 7.91888 12.2441 7.89898 12.2441 7.8751Z" fill="#FBBE4A"/>
</g>
<mask id="mask71_2_572" style="mask-type:luminance" maskUnits="userSpaceOnUse" x="0" y="0" width="24" height="16">
<path d="M0 16.0001H24V6.29425e-05H0V16.0001Z" fill="white"/>
</mask>
<g mask="url(#mask71_2_572)">
<path d="M12 8.43043C11.945 8.43043 11.917 8.38864 11.793 8.41551C11.917 8.41352 11.882 8.49213 12 8.49213C12.118 8.49213 12.084 8.41352 12.208 8.41551C12.083 8.38864 12.056 8.43043 12 8.43043Z" fill="#FBBE4A"/>
</g>
<mask id="mask72_2_572" style="mask-type:luminance" maskUnits="userSpaceOnUse" x="0" y="0" width="24" height="16">
<path d="M0 16.0001H24V6.29425e-05H0V16.0001Z" fill="white"/>
</mask>
<g mask="url(#mask72_2_572)">
<path d="M12.0556 7.73657C12.0076 7.86095 12.0196 7.99925 12.0906 8.13159C12.0976 8.12562 12.1126 8.11866 12.1176 8.11866C12.0236 7.98532 12.0156 7.85796 12.0976 7.7505C12.2086 7.64602 12.4106 7.66692 12.5726 7.80622C12.4186 7.59726 12.2086 7.61219 12.0556 7.73657Z" fill="#84371B"/>
</g>
<mask id="mask73_2_572" style="mask-type:luminance" maskUnits="userSpaceOnUse" x="0" y="0" width="24" height="16">
<path d="M0 16.0001H24V6.29425e-05H0V16.0001Z" fill="white"/>
</mask>
<g mask="url(#mask73_2_572)">
<path d="M12.1679 7.81967C12.1259 7.8545 12.1049 7.84753 12.0979 7.8545C12.0909 7.86146 12.0979 7.88236 12.1109 7.87539C12.1259 7.86843 12.1529 7.8545 12.1949 7.81967C12.2359 7.78484 12.2779 7.78484 12.3199 7.78484C12.4469 7.78484 12.5159 7.88932 12.5299 7.88236C12.5439 7.87539 12.4609 7.76395 12.3199 7.76395C12.2299 7.76395 12.2099 7.78484 12.1679 7.81967Z" fill="#84371B"/>
</g>
<mask id="mask74_2_572" style="mask-type:luminance" maskUnits="userSpaceOnUse" x="0" y="0" width="24" height="16">
<path d="M0 16.0001H24V6.29425e-05H0V16.0001Z" fill="white"/>
</mask>
<g mask="url(#mask74_2_572)">
<path d="M12.1816 7.87511V7.88904C12.2026 7.85421 12.2336 7.8373 12.2656 7.82834C12.2776 7.81839 12.2906 7.81242 12.3066 7.81242C12.3206 7.81242 12.3306 7.8174 12.3426 7.82436C12.3886 7.83232 12.4266 7.85322 12.4326 7.87511L12.4816 7.88207C12.3906 7.78456 12.2236 7.7776 12.1536 7.88904L12.1816 7.87511Z" fill="#84371B"/>
</g>
<mask id="mask75_2_572" style="mask-type:luminance" maskUnits="userSpaceOnUse" x="0" y="0" width="24" height="16">
<path d="M0 16.0001H24V6.29425e-05H0V16.0001Z" fill="white"/>
</mask>
<g mask="url(#mask75_2_572)">
<path d="M12.3691 7.87511C12.3691 7.85421 12.3581 7.83531 12.3431 7.82436C12.3311 7.8174 12.3201 7.81242 12.3071 7.81242C12.2911 7.81242 12.2771 7.81839 12.2651 7.82834C12.2521 7.84028 12.2441 7.8562 12.2441 7.87511C12.2441 7.89899 12.2581 7.91889 12.2771 7.92884C12.2991 7.93183 12.3181 7.93183 12.3391 7.92785C12.3561 7.9169 12.3691 7.898 12.3691 7.87511Z" fill="#84371B"/>
</g>
<mask id="mask76_2_572" style="mask-type:luminance" maskUnits="userSpaceOnUse" x="0" y="0" width="24" height="16">
<path d="M0 16.0001H24V6.29425e-05H0V16.0001Z" fill="white"/>
</mask>
<g mask="url(#mask76_2_572)">
<path d="M12.4813 7.88233L12.4323 7.87536C12.4053 7.90422 12.3733 7.92213 12.3373 7.9281C12.3183 7.93208 12.2973 7.93208 12.2773 7.92909C12.2423 7.92511 12.2093 7.91118 12.1813 7.88929V7.87536L12.1533 7.88929C12.1893 7.92113 12.2453 7.93805 12.3063 7.93805H12.3093C12.3683 7.93705 12.4303 7.92014 12.4813 7.88233Z" fill="#84371B"/>
</g>
<mask id="mask77_2_572" style="mask-type:luminance" maskUnits="userSpaceOnUse" x="0" y="0" width="24" height="16">
<path d="M0 16.0001H24V6.29425e-05H0V16.0001Z" fill="white"/>
</mask>
<g mask="url(#mask77_2_572)">
<path d="M12.209 7.94506C12.153 7.9172 12.14 7.90327 12.126 7.90327C12.111 7.90327 12.111 7.9172 12.182 7.95899C12.251 8.00078 12.369 8.00675 12.488 7.9172C12.35 7.97292 12.266 7.97292 12.209 7.94506Z" fill="#84371B"/>
</g>
<mask id="mask78_2_572" style="mask-type:luminance" maskUnits="userSpaceOnUse" x="0" y="0" width="24" height="16">
<path d="M0 16.0001H24V6.29425e-05H0V16.0001Z" fill="white"/>
</mask>
<g mask="url(#mask78_2_572)">
<path d="M12 8.24337C12.014 8.24337 12.056 8.24337 12.084 8.22248C12.104 8.25034 12.143 8.2583 12.171 8.2384C12.2 8.2185 12.207 8.17969 12.187 8.15083C12.178 8.1379 12.163 8.12795 12.146 8.12496C12.168 8.13292 12.18 8.1568 12.172 8.17869C12.164 8.20059 12.14 8.21153 12.119 8.20357C12.103 8.1986 12.092 8.18367 12.091 8.16675C12.084 8.18068 12.056 8.22248 12 8.22248H12.014L12 8.24337Z" fill="#84371B"/>
</g>
<mask id="mask79_2_572" style="mask-type:luminance" maskUnits="userSpaceOnUse" x="0" y="0" width="24" height="16">
<path d="M0 16.0001H24V6.29425e-05H0V16.0001Z" fill="white"/>
</mask>
<g mask="url(#mask79_2_572)">
<path d="M12 8.35406C12.027 8.35406 12.069 8.31924 12.119 8.3471C12.168 8.37496 12.195 8.40282 12.229 8.41675C12.168 8.37496 12.14 8.31227 12.069 8.31227C12.056 8.31227 12.027 8.31924 12 8.33317H12.014L12 8.35406Z" fill="#84371B"/>
</g>
<mask id="mask80_2_572" style="mask-type:luminance" maskUnits="userSpaceOnUse" x="0" y="0" width="24" height="16">
<path d="M0 16.0001H24V6.29425e-05H0V16.0001Z" fill="white"/>
</mask>
<g mask="url(#mask80_2_572)">
<path d="M12 8.40317H12.014L12 8.43103C12.056 8.43103 12.083 8.38924 12.208 8.4161C12.069 8.37531 12.042 8.40317 12 8.40317Z" fill="#84371B"/>
</g>
<mask id="mask81_2_572" style="mask-type:luminance" maskUnits="userSpaceOnUse" x="0" y="0" width="24" height="16">
<path d="M0 16.0001H24V6.29425e-05H0V16.0001Z" fill="white"/>
</mask>
<g mask="url(#mask81_2_572)">
<path d="M12.208 8.41628H12.207C12.083 8.41429 12.118 8.4929 12 8.4929H12.015L12 8.51379C12.153 8.51379 12.083 8.43121 12.23 8.41628H12.208Z" fill="#84371B"/>
</g>
<mask id="mask82_2_572" style="mask-type:luminance" maskUnits="userSpaceOnUse" x="0" y="0" width="24" height="16">
<path d="M0 16.0001H24V6.29425e-05H0V16.0001Z" fill="white"/>
</mask>
<g mask="url(#mask82_2_572)">
<path d="M11.9009 8.58783C11.9089 8.57887 11.9179 8.56992 11.9279 8.56395C11.9179 8.57091 11.9089 8.57887 11.9009 8.58783Z" fill="#84371B"/>
</g>
<mask id="mask83_2_572" style="mask-type:luminance" maskUnits="userSpaceOnUse" x="0" y="0" width="24" height="16">
<path d="M0 16.0001H24V6.29425e-05H0V16.0001Z" fill="white"/>
</mask>
<g mask="url(#mask83_2_572)">
<path d="M12 8.54185C12.0086 8.54185 12.0163 8.54054 12.024 8.54315C12.0173 8.54054 12.0086 8.54185 12 8.54185Z" fill="#84371B"/>
</g>
<mask id="mask84_2_572" style="mask-type:luminance" maskUnits="userSpaceOnUse" x="0" y="0" width="24" height="16">
<path d="M0 16.0001H24V6.29425e-05H0V16.0001Z" fill="white"/>
</mask>
<g mask="url(#mask84_2_572)">
<path d="M11.9347 8.55865C11.9467 8.55169 11.9607 8.54671 11.9747 8.54373H11.9707C11.9577 8.54671 11.9457 8.55169 11.9347 8.55865Z" fill="#84371B"/>
</g>
<mask id="mask85_2_572" style="mask-type:luminance" maskUnits="userSpaceOnUse" x="0" y="0" width="24" height="16">
<path d="M0 16.0001H24V6.29425e-05H0V16.0001Z" fill="white"/>
</mask>
<g mask="url(#mask85_2_572)">
<path d="M11.9029 7.75023C11.9839 7.8577 11.9759 7.98506 11.8819 8.11839C11.8889 8.11839 11.9029 8.12536 11.9099 8.13232C11.9799 7.99899 11.9919 7.86168 11.9449 7.7363C11.7909 7.61193 11.5819 7.598 11.4279 7.80596C11.5889 7.66765 11.7909 7.64675 11.9029 7.75023Z" fill="#84371B"/>
</g>
<mask id="mask86_2_572" style="mask-type:luminance" maskUnits="userSpaceOnUse" x="0" y="0" width="24" height="16">
<path d="M0 16.0001H24V6.29425e-05H0V16.0001Z" fill="white"/>
</mask>
<g mask="url(#mask86_2_572)">
<path d="M11.6793 7.78511C11.7213 7.78511 11.7633 7.78511 11.8053 7.81994C11.8463 7.85476 11.8743 7.8677 11.8883 7.87566C11.9033 7.88262 11.9093 7.86173 11.9033 7.85476C11.8953 7.8478 11.8743 7.85476 11.8333 7.81994C11.7913 7.78511 11.7703 7.76422 11.6793 7.76422C11.5403 7.76422 11.4563 7.87566 11.4703 7.88262C11.4843 7.88859 11.5543 7.78511 11.6793 7.78511Z" fill="#84371B"/>
</g>
<mask id="mask87_2_572" style="mask-type:luminance" maskUnits="userSpaceOnUse" x="0" y="0" width="24" height="16">
<path d="M0 16.0001H24V6.29425e-05H0V16.0001Z" fill="white"/>
</mask>
<g mask="url(#mask87_2_572)">
<path d="M11.6582 7.82505C11.6682 7.81809 11.6802 7.81311 11.6932 7.81311C11.7092 7.81311 11.7232 7.81908 11.7342 7.82903C11.7662 7.83799 11.7972 7.8549 11.8192 7.88873V7.8758L11.8462 7.88873C11.7772 7.77829 11.6102 7.78525 11.5192 7.88276L11.5682 7.8758C11.5742 7.85291 11.6122 7.83202 11.6582 7.82505Z" fill="#84371B"/>
</g>
<mask id="mask88_2_572" style="mask-type:luminance" maskUnits="userSpaceOnUse" x="0" y="0" width="24" height="16">
<path d="M0 16.0001H24V6.29425e-05H0V16.0001Z" fill="white"/>
</mask>
<g mask="url(#mask88_2_572)">
<path d="M11.7555 7.87511C11.7555 7.8562 11.7475 7.83929 11.7345 7.82834C11.7225 7.81839 11.7085 7.81242 11.6935 7.81242C11.6795 7.81242 11.6685 7.8174 11.6575 7.82436C11.6415 7.83531 11.6305 7.85421 11.6305 7.87511C11.6305 7.898 11.6435 7.9169 11.6615 7.92785C11.6815 7.93183 11.7015 7.93183 11.7225 7.92884C11.7415 7.91889 11.7555 7.89899 11.7555 7.87511Z" fill="#84371B"/>
</g>
<mask id="mask89_2_572" style="mask-type:luminance" maskUnits="userSpaceOnUse" x="0" y="0" width="24" height="16">
<path d="M0 16.0001H24V6.29425e-05H0V16.0001Z" fill="white"/>
</mask>
<g mask="url(#mask89_2_572)">
<path d="M11.8466 7.88911L11.8186 7.87518V7.88911C11.7916 7.911 11.7576 7.92493 11.7226 7.92991C11.7016 7.9319 11.6816 7.9319 11.6616 7.92792C11.6276 7.92195 11.5946 7.90503 11.5676 7.87518L11.5186 7.88214C11.5696 7.91996 11.6326 7.93687 11.6916 7.93787H11.6946C11.7546 7.93787 11.8116 7.92095 11.8466 7.88911Z" fill="#84371B"/>
</g>
<mask id="mask90_2_572" style="mask-type:luminance" maskUnits="userSpaceOnUse" x="0" y="0" width="24" height="16">
<path d="M0 16.0001H24V6.29425e-05H0V16.0001Z" fill="white"/>
</mask>
<g mask="url(#mask90_2_572)">
<path d="M11.8185 7.95818C11.8885 7.91639 11.8885 7.90246 11.8745 7.90246C11.8605 7.90246 11.8465 7.91639 11.7905 7.94425C11.7355 7.97211 11.6515 7.97211 11.5115 7.91639C11.6305 8.00694 11.7485 7.99997 11.8185 7.95818Z" fill="#84371B"/>
</g>
<mask id="mask91_2_572" style="mask-type:luminance" maskUnits="userSpaceOnUse" x="0" y="0" width="24" height="16">
<path d="M0 16.0001H24V6.29425e-05H0V16.0001Z" fill="white"/>
</mask>
<g mask="url(#mask91_2_572)">
<path d="M11.8135 8.15102C11.7935 8.17888 11.8005 8.21768 11.8295 8.23758C11.8575 8.25748 11.8965 8.25052 11.9165 8.22266C11.9445 8.24355 11.9865 8.24355 12.0005 8.24355L12.0145 8.22266H12.0005C11.9445 8.22266 11.9165 8.18087 11.9095 8.16694C11.9085 8.18385 11.8975 8.19778 11.8815 8.20375C11.8595 8.21171 11.8355 8.19977 11.8285 8.17888C11.8205 8.15699 11.8325 8.13311 11.8535 8.12515C11.8375 8.12813 11.8235 8.13709 11.8135 8.15102Z" fill="#84371B"/>
</g>
<mask id="mask92_2_572" style="mask-type:luminance" maskUnits="userSpaceOnUse" x="0" y="0" width="24" height="16">
<path d="M0 16.0001H24V6.29425e-05H0V16.0001Z" fill="white"/>
</mask>
<g mask="url(#mask92_2_572)">
<path d="M11.8819 8.34734C11.9299 8.31948 11.9719 8.35431 11.9999 8.35431L12.0139 8.33341H11.9999C11.9719 8.31948 11.9439 8.31251 11.9299 8.31251C11.8609 8.31251 11.8329 8.3752 11.7699 8.41699C11.8049 8.40306 11.8329 8.3752 11.8819 8.34734Z" fill="#84371B"/>
</g>
<mask id="mask93_2_572" style="mask-type:luminance" maskUnits="userSpaceOnUse" x="0" y="0" width="24" height="16">
<path d="M0 16.0001H24V6.29425e-05H0V16.0001Z" fill="white"/>
</mask>
<g mask="url(#mask93_2_572)">
<path d="M12 8.43042L12.014 8.40256H12C11.958 8.40256 11.931 8.3747 11.792 8.41549H11.793C11.917 8.38863 11.945 8.43042 12 8.43042Z" fill="#84371B"/>
</g>
<mask id="mask94_2_572" style="mask-type:luminance" maskUnits="userSpaceOnUse" x="0" y="0" width="24" height="16">
<path d="M0 16.0001H24V6.29425e-05H0V16.0001Z" fill="white"/>
</mask>
<g mask="url(#mask94_2_572)">
<path d="M12.0001 8.49259C11.8821 8.49259 11.9171 8.41399 11.7931 8.41598H11.7921C11.7851 8.41598 11.7791 8.41498 11.7701 8.41598C11.9171 8.4309 11.8471 8.51349 12.0001 8.51349L12.0141 8.49259H12.0001Z" fill="#84371B"/>
</g>
<mask id="mask95_2_572" style="mask-type:luminance" maskUnits="userSpaceOnUse" x="0" y="0" width="24" height="16">
<path d="M0 16.0001H24V6.29425e-05H0V16.0001Z" fill="white"/>
</mask>
<g mask="url(#mask95_2_572)">
<path d="M11.8744 8.63837C11.8774 8.62344 11.8854 8.60951 11.8944 8.59658C11.8954 8.59359 11.8984 8.59061 11.9004 8.58762C11.9084 8.57767 11.9174 8.57071 11.9274 8.56274C11.9294 8.56175 11.9324 8.55976 11.9344 8.55777C11.9454 8.5518 11.9574 8.54583 11.9704 8.54284H11.9744C11.9824 8.54085 11.9914 8.54185 11.9994 8.54185C12.0074 8.54185 12.0174 8.54085 12.0254 8.54284C12.0404 8.54583 12.0534 8.5508 12.0654 8.55777C12.0684 8.55976 12.0704 8.56175 12.0724 8.56274C12.0824 8.56971 12.0904 8.57767 12.0994 8.58762C12.1024 8.59061 12.1044 8.59359 12.1064 8.59658C12.1154 8.60951 12.1224 8.62344 12.1244 8.63837C12.1244 8.56971 12.0694 8.51399 11.9994 8.51399C11.9304 8.51399 11.8744 8.56971 11.8744 8.63837Z" fill="#84371B"/>
</g>
</svg>
