<svg width="24" height="16" viewBox="0 0 24 16" fill="none" xmlns="http://www.w3.org/2000/svg">
<g clip-path="url(#clip0_986_12927)">
<path d="M13.7525 10.6845H10.2477H0V15.9998H23.9992V10.6845H13.7525Z" fill="#166C48"/>
<path d="M0.000244141 5.31667V10.6847H10.2469L10.9169 8.63499L9.16394 7.36637H11.3309L11.9998 5.31667H0.000244141Z" fill="#FBD632"/>
<path d="M10.2471 10.6839H13.752L11.999 9.41826L10.2471 10.6839Z" fill="#FBD632"/>
<path d="M11.9994 5.31667L12.6704 7.36637H14.8353L13.0844 8.63499L13.7523 10.6847H24V5.31667H11.9994Z" fill="#FBD632"/>
<path d="M0.000244141 -1.90735e-06V5.31628H11.9998H23.9994V-1.90735e-06H0.000244141Z" fill="#CE2931"/>
<path d="M9.16382 7.36708L10.9158 8.63371L10.2468 10.6834L11.9987 9.41777L13.7517 10.6834L13.0827 8.63371L14.8356 7.36708H12.6687L11.9987 5.31638L11.3307 7.36708H9.16382Z" fill="#121212"/>
</g>
<defs>
<clipPath id="clip0_986_12927">
<rect width="24" height="16" fill="white"/>
</clipPath>
</defs>
</svg>
