<svg width="361" height="574" viewBox="0 0 361 574" fill="none" xmlns="http://www.w3.org/2000/svg">
<g clip-path="url(#clip0_2115_179)">
<rect x="1" y="1" width="359" height="572" rx="71" stroke="#C8CDCD" stroke-width="2"/>
<line y1="285" x2="361" y2="285" stroke="#C8CDCD" stroke-width="2"/>
<line x1="12.6299" y1="35.7275" x2="348.37" y2="35.7275" stroke="#C8CDCD" stroke-width="2"/>
<line x1="12.6299" y1="540.47" x2="348.37" y2="540.47" stroke="#C8CDCD" stroke-width="2"/>
<line y1="202.576" x2="361" y2="202.576" stroke="#C8CDCD" stroke-width="2"/>
<line y1="368.375" x2="361" y2="368.375" stroke="#C8CDCD" stroke-width="2"/>
<path d="M179.974 250.748C199.769 250.748 215.811 266.746 215.811 286.475C215.811 306.204 199.769 322.203 179.974 322.203C160.179 322.203 144.137 306.204 144.137 286.475C144.137 266.746 160.179 250.748 179.974 250.748Z" stroke="#C8CDCD" stroke-width="2"/>
<path d="M76.8311 77.6033C96.6258 77.6034 112.668 93.6019 112.668 113.331C112.668 133.06 96.6259 149.058 76.8311 149.058C57.0362 149.058 40.9941 133.06 40.9941 113.331C40.9942 93.6018 57.0362 77.6033 76.8311 77.6033Z" stroke="#C8CDCD" stroke-width="2"/>
<path d="M284.169 77.6033C303.964 77.6034 320.006 93.6019 320.006 113.331C320.006 133.06 303.964 149.058 284.169 149.058C264.375 149.058 248.333 133.06 248.333 113.331C248.333 93.6018 264.375 77.6033 284.169 77.6033Z" stroke="#C8CDCD" stroke-width="2"/>
<path d="M284.169 421.793C303.964 421.794 320.006 437.792 320.006 457.521C320.006 477.25 303.964 493.248 284.169 493.249C264.375 493.249 248.333 477.25 248.333 457.521C248.333 437.792 264.375 421.793 284.169 421.793Z" stroke="#C8CDCD" stroke-width="2"/>
<path d="M76.8311 421.793C96.6258 421.794 112.668 437.792 112.668 457.521C112.668 477.25 96.6259 493.248 76.8311 493.249C57.0362 493.249 40.9941 477.25 40.9941 457.521C40.9942 437.792 57.0362 421.793 76.8311 421.793Z" stroke="#C8CDCD" stroke-width="2"/>
<ellipse cx="76.831" cy="113.331" rx="6.31487" ry="6.29649" fill="#C8CDCD"/>
<ellipse cx="284.169" cy="113.331" rx="6.31487" ry="6.29649" fill="#C8CDCD"/>
<ellipse cx="76.831" cy="457.521" rx="6.31487" ry="6.29649" fill="#C8CDCD"/>
<ellipse cx="284.169" cy="457.521" rx="6.31487" ry="6.29649" fill="#C8CDCD"/>
<ellipse cx="179.974" cy="286.476" rx="6.31487" ry="6.29649" fill="#C8CDCD"/>
<path d="M2.10514 321.104C11.3166 321.104 20.1507 317.456 26.6642 310.962C33.1777 304.467 36.8369 295.659 36.8369 286.475C36.8369 277.291 33.1777 268.483 26.6642 261.989C20.1507 255.495 11.3166 251.846 2.10515 251.846" stroke="#C8CDCD" stroke-width="2"/>
<path d="M157.872 36.7276C157.872 42.5721 160.2 48.1771 164.345 52.3098C168.49 56.4425 174.112 58.7642 179.974 58.7642C185.835 58.7642 191.457 56.4425 195.602 52.3098C199.747 48.1771 202.076 42.5721 202.076 36.7276" stroke="#C8CDCD" stroke-width="2"/>
<path d="M202.076 541.47C202.076 535.625 199.747 530.02 195.602 525.888C191.457 521.755 185.835 519.433 179.974 519.433C174.112 519.433 168.49 521.755 164.345 525.888C160.2 530.02 157.872 535.625 157.872 541.47" stroke="#C8CDCD" stroke-width="2"/>
</g>
<defs>
<clipPath id="clip0_2115_179">
<rect width="361" height="574" rx="72" fill="white"/>
</clipPath>
</defs>
</svg>
