<svg width="20" height="20" viewBox="0 0 20 20" fill="none" xmlns="http://www.w3.org/2000/svg">
<path fill-rule="evenodd" clip-rule="evenodd" d="M18.6315 18.6343H14.8165V16.2473L13.7185 15.1423L9.33149 14.0493V13.4953C11.6535 11.6313 12.3925 6.22231 9.39149 4.61031C9.42049 3.71531 9.66349 2.91631 10.1035 2.35631C10.6165 1.69831 11.3925 1.36531 12.4065 1.36531C13.8095 1.36531 14.7415 1.99231 15.1775 3.22931C15.8165 5.03931 15.1335 7.7873 13.7715 8.8813L13.5155 9.08631V10.4623L17.9405 11.5653L18.6315 12.2623V18.6343ZM18.6435 10.3323L15.1395 9.4593C16.5965 7.8343 17.2195 4.90431 16.4685 2.77431C15.8375 0.985305 14.3945 0.000305176 12.4065 0.000305176C10.9705 0.000305176 9.80049 0.524305 9.02549 1.51531C8.46749 2.22631 8.14349 3.16031 8.05149 4.19531C7.84349 4.16831 7.63849 4.13731 7.40749 4.13731C2.18749 4.13731 2.74349 11.2953 5.48449 13.4953V14.0493L1.09749 15.1423L0.000488281 16.2473V20.0003H7.40749H12.4065H14.8165H20.0005V11.6993L18.6435 10.3323Z" fill="#2F5491"/>
</svg>
