<svg width="20" height="20" viewBox="0 0 20 20" fill="none" xmlns="http://www.w3.org/2000/svg">
<path d="M10.0471 0C15.5852 0 19.9999 4.58872 19.9953 9.96582C19.9952 16.3751 14.768 19.8974 14.7287 19.9238H9.69452V17.0225C8.36088 18.8472 6.23688 19.9269 3.97675 19.9277H0.076355V18.5537H3.97675C5.33845 18.5542 6.65545 18.0667 7.68866 17.1797H0.076355V15.8057H8.85956C9.12173 15.3767 9.32595 14.9145 9.466 14.4316H0.076355V13.0576H9.68964L9.69452 10.9961H0.076355V9.97754C0.07514 7.33213 1.12529 4.79401 2.9953 2.92285C4.86522 1.05189 7.40185 0.000481723 10.0471 0ZM10.0471 1.37402C5.42435 1.37418 1.64237 5.05421 1.45526 9.61816H11.0685V18.5498H14.2639C14.2639 18.5498 18.6259 15.4498 18.6262 9.97754C18.6262 5.29357 14.8181 1.37402 10.0471 1.37402ZM13.8146 10.9961H12.4406V9.62207H13.8146V10.9961Z" fill="#001E28"/>
</svg>
