<svg width="20" height="20" viewBox="0 0 20 20" fill="none" xmlns="http://www.w3.org/2000/svg">
<path d="M18.9172 0L20.0002 1.08691V3.06934L11.1857 11.9004L5.92889 15.0586L2.4787 18.4609L3.04413 19.0264L2.06854 20L0.000183105 17.9326L0.974792 16.9561L1.50409 17.4863L4.95331 14.082L8.11249 8.8252L16.9416 0H18.9172ZM9.20721 9.68164L7.51581 12.4951L10.3303 10.8047L18.632 2.50195L18.6252 1.66309L18.343 1.38086L17.5099 1.37793L9.20721 9.68164ZM3.1037 0C4.81436 0.000225423 6.20698 1.3919 6.20721 3.10156C6.20721 4.81142 4.81451 6.2029 3.1037 6.20312C1.3927 6.20312 0.000183105 4.81156 0.000183105 3.10156C0.0004205 1.39176 1.39284 0 3.1037 0ZM3.1037 1.38086C2.15384 1.38086 1.38128 2.15276 1.38104 3.10156C1.38104 4.04956 2.1537 4.82227 3.1037 4.82227C4.05351 4.82204 4.82635 4.04942 4.82635 3.10156C4.82612 2.1529 4.05336 1.38108 3.1037 1.38086Z" fill="#001E28"/>
</svg>
