<svg width="24" height="16" viewBox="0 0 24 16" fill="none" xmlns="http://www.w3.org/2000/svg">
<g clip-path="url(#clip0_986_17573)">
<path d="M4.53955 1.90735e-05L7.31548 0.842805L4.37256 1.73833L7.31548 2.63285L4.37256 3.52639L7.31548 4.42091L4.37256 5.31544L7.31548 6.21096L4.37256 7.10549L7.31548 8.00002L4.37256 8.89355L7.31548 9.78907L4.37256 10.6826L7.31548 11.5771L4.37256 12.4717L7.31548 13.3662L4.37256 14.2617L7.31548 15.1552L4.53955 15.999H24.0001V1.90735e-05H4.53955Z" fill="#6E2240"/>
<path d="M0 1.90735e-05V15.999H4.53989L7.31482 15.1552L4.37389 14.2617L7.31482 13.3662L4.37389 12.4717L7.31482 11.5771L4.37389 10.6826L7.31482 9.78907L4.37389 8.89355L7.31482 8.00002L4.37389 7.10549L7.31482 6.21096L4.37389 5.31544L7.31482 4.42091L4.37389 3.52639L7.31482 2.63285L4.37389 1.73833L7.31482 0.842805L4.53989 1.90735e-05H0Z" fill="#FAFAFA"/>
</g>
<defs>
<clipPath id="clip0_986_17573">
<rect width="24" height="16" fill="white"/>
</clipPath>
</defs>
</svg>
