<svg width="24" height="16" viewBox="0 0 24 16" fill="none" xmlns="http://www.w3.org/2000/svg">
<g clip-path="url(#clip0_986_17674)">
<path d="M2.64511 16.0004H21.0761L11.9201 10.1497L2.64511 16.0004Z" fill="#348B42"/>
<path d="M2.64511 8.39233e-05L11.9201 5.85083L21.0761 8.39233e-05H2.64511Z" fill="#348B42"/>
<path d="M0 13.4678L8.557 8.00017L0 2.53152V13.4678Z" fill="#121212"/>
<path d="M15.3297 8.00072L24.0007 13.4684V2.53306L15.3297 8.00072Z" fill="#121212"/>
<path d="M21.0762 0.000123978L11.9212 5.85087L2.64521 0.000123978H0.000213623V2.53147L8.55721 8.00211L0.000213623 13.4678V16.0001H2.64521L11.9212 10.1514L21.0762 16.0001H23.9992V13.4678L15.3292 8.00211L23.9992 2.53246V0.000123978H21.0762Z" fill="#F9E032"/>
</g>
<defs>
<clipPath id="clip0_986_17674">
<rect width="24" height="16" fill="white"/>
</clipPath>
</defs>
</svg>
