<svg width="20" height="20" viewBox="0 0 20 20" fill="none" xmlns="http://www.w3.org/2000/svg">
<path d="M19.5345 11.0595C20.0346 12.9266 16.5481 15.4831 11.747 16.7696C6.94591 18.056 2.64825 17.5853 2.14782 15.7182L1.13984 11.9564C2.56287 12.5918 4.58737 12.769 6.87484 12.5206L7.44644 12.4503C8.40782 12.3189 9.40955 12.1154 10.4269 11.8428C11.4442 11.5702 12.4135 11.2456 13.3118 10.8787L13.842 10.6538C15.9471 9.72513 17.6118 8.55944 18.5265 7.29765L19.5345 11.0595ZM8.25296 3.72959C13.0542 2.44311 17.3519 2.91383 17.8522 4.78096C18.3525 6.64809 14.8659 9.20459 10.0647 10.4911C5.2635 11.7775 0.965794 11.3068 0.465498 9.4397C-0.0347983 7.57257 3.45177 5.01606 8.25296 3.72959Z" fill="#001E28"/>
</svg>
