<svg width="20" height="20" viewBox="0 0 20 20" fill="none" xmlns="http://www.w3.org/2000/svg">
<path d="M10 4.2C14.1968 4.2 18.0543 6.34216 19.8271 9.65605L20 9.98027L19.8271 10.3035C18.0542 13.6182 14.1967 15.7596 10 15.7596C5.80233 15.7596 1.9448 13.6182 0.172852 10.3025L0 9.97929L0.172852 9.65508C1.94572 6.34117 5.80317 4.2 10 4.2ZM6.54199 6.14726C4.42501 6.86062 2.62997 8.20042 1.56445 9.97929C2.62999 11.758 4.42512 13.097 6.54199 13.8113C5.49157 12.8622 4.81744 11.5042 4.81738 9.98027C4.81738 8.45524 5.49153 7.0974 6.54199 6.14726ZM13.458 6.14726C14.5085 7.0974 15.1826 8.45524 15.1826 9.98027C15.1826 11.5042 14.5084 12.8622 13.458 13.8113C15.5749 13.097 17.37 11.758 18.4355 9.98027C17.37 8.2014 15.575 6.86162 13.458 6.14726ZM10 6.16777C7.89806 6.16777 6.1875 7.87833 6.1875 9.98027C6.18761 12.0811 7.89813 13.7918 10 13.7918C12.1019 13.7918 13.8124 12.0811 13.8125 9.98027C13.8125 7.87833 12.1019 6.16777 10 6.16777ZM10 8.25761C10.9501 8.25761 11.7227 9.03013 11.7227 9.98027C11.7225 10.9303 10.95 11.7029 10 11.7029C9.05006 11.7028 8.27653 10.9302 8.27637 9.98027C8.27637 9.0302 9.04996 8.25772 10 8.25761Z" fill="#001E28"/>
</svg>
