<svg width="20" height="20" viewBox="0 0 20 20" fill="none" xmlns="http://www.w3.org/2000/svg">
<path d="M1.37891 20.0002H0V11.7238H1.37891V20.0002ZM4.82715 20.0002H3.44824V6.20721H4.82715V20.0002ZM16.5518 20.0002H15.1729V6.20721H16.5518V20.0002ZM20 20.0002H18.6211V11.7238H20V20.0002ZM6.09375 8.61346C4.72542 3.73696 9.58543 -1.13466 14.4727 0.234558L14.8164 0.359558L14.9424 0.703308C16.2979 5.54086 11.5173 10.4479 6.5625 9.08319L6.21875 8.95819L6.09375 8.61346ZM7.56445 5.11932C7.25102 5.99303 7.1704 6.93328 7.3291 7.84784C7.77849 7.9258 8.2359 7.94619 8.69043 7.90839C9.15729 7.87048 9.61719 7.77094 10.0576 7.61151L7.56445 5.11932ZM9.70117 2.37909C9.13715 2.78372 8.64292 3.27797 8.23828 3.84198L11.334 6.93768C11.8981 6.53318 12.3924 6.03895 12.7969 5.47479L9.70117 2.37909ZM12.3457 1.40936C11.8789 1.44693 11.419 1.54698 10.9785 1.70624L13.4717 4.19843C13.7851 3.32468 13.8658 2.38449 13.707 1.46991C13.2577 1.39122 12.8002 1.37084 12.3457 1.40936Z" fill="#001E28"/>
</svg>
