<svg width="20" height="20" viewBox="0 0 20 20" fill="none" xmlns="http://www.w3.org/2000/svg">
<path fill-rule="evenodd" clip-rule="evenodd" d="M20 4.13937V2.75958H10.3261L11.1348 0H6.2021L4.8223 1.37979V4.13937H6.2021V2.06969L6.89199 1.37979H9.36948L7.72216 7.00397C4.2874 6.38051 0.967126 8.55998 0.173 11.9593C-0.621126 15.3587 1.38991 18.7836 4.74539 19.7464C8.10088 20.7092 11.6219 18.8717 12.751 15.5684C13.8801 12.2652 12.2206 8.65681 8.97777 7.36425L9.26216 6.39303L20 11.7589V10.2196L9.65617 5.04773L9.92216 4.13937H20ZM11.7213 13.4522C11.7209 15.6171 10.3731 17.5529 8.34293 18.3045C6.31272 19.0561 4.02923 18.4646 2.6193 16.8218C1.20937 15.179 0.971007 12.8322 2.02184 10.9395C3.07267 9.04679 5.19059 8.00819 7.33046 8.33624L5.63868 14.1206L6.89199 14.4878L8.5876 8.69651C10.4875 9.51448 11.7192 11.3837 11.7213 13.4522Z" fill="#001E28"/>
</svg>
