<svg width="20" height="20" viewBox="0 0 20 20" fill="none" xmlns="http://www.w3.org/2000/svg">
<path d="M10.6742 20.001H9.30896V13.5703C9.52096 13.6003 9.73249 13.6357 9.95349 13.6357C10.2004 13.6357 10.4373 13.6005 10.6742 13.5625V20.001ZM5.46521 20H4.09998V0.0078125H5.46521V20ZM15.806 19.9922H14.4408V0H15.806V19.9922ZM9.95349 5.67188C11.7724 5.67194 13.2533 7.15077 13.2533 8.96973C13.2533 10.7917 11.7724 12.2704 9.95349 12.2705C8.1335 12.2705 6.65272 10.7917 6.65271 8.96973C6.65271 7.15073 8.13349 5.67188 9.95349 5.67188ZM9.95349 7.03613C8.88649 7.03613 8.01794 7.90373 8.01794 8.96973C8.01796 10.0377 8.8865 10.9062 9.95349 10.9062C11.0204 10.9062 11.888 10.0377 11.8881 8.96973C11.8881 7.90377 11.0204 7.0362 9.95349 7.03613ZM10.6742 4.37793C10.4373 4.34096 10.2003 4.30664 9.95349 4.30664C9.73266 4.30665 9.52178 4.34113 9.30994 4.37012V0.00878906H10.6742V4.37793Z" fill="#001E28"/>
</svg>
