<svg width="24" height="16" viewBox="0 0 24 16" fill="none" xmlns="http://www.w3.org/2000/svg">
<path d="M0.000488281 5.99048H6.03516V0.000612259H0.000488281V5.99048Z" fill="#EE2E2F"/>
<path d="M0.000488281 16H6.03516V10.0121H0.000488281V16Z" fill="#EE2E2F"/>
<path d="M10.0759 16H23.9992V10.0121H10.0759V16Z" fill="#EE2E2F"/>
<path d="M10.0759 5.99036H23.9992V0.000490189H10.0759V5.99036Z" fill="#EE2E2F"/>
<path d="M6.03467 0.000428677V5.99029H0V6.99524H7.04462V5.99029V0.000428677H6.03467Z" fill="white"/>
<path d="M9.06494 0.000184536V5.99005V6.995H24.0001V5.99005H10.0759V0.000184536H9.06494Z" fill="white"/>
<path d="M0.000488281 9.00531V10.0122H6.03516V16.0001H7.04411V10.0122V9.00531H0.000488281Z" fill="white"/>
<path d="M9.06494 9.00531V10.0122V16.0001H10.0759V10.0122H24.0001V9.00531H9.06494Z" fill="white"/>
<path d="M7.04433 0.000123978V5.98999V6.99494H0.00170898V9.00482H7.04433V10.0108V15.9996H9.06522V10.0108V9.00482H23.9994V6.99494H9.06522V5.98999V0.000123978H7.04433Z" fill="#213065"/>
</svg>
