<svg width="20" height="20" viewBox="0 0 20 20" fill="none" xmlns="http://www.w3.org/2000/svg">
<path fill-rule="evenodd" clip-rule="evenodd" d="M18.7372 4.213L17.4302 7.368C16.3872 4.225 13.4282 2 9.99916 2C6.69716 2 3.73116 4.086 2.61816 7.193L3.90416 7.653C4.82416 5.089 7.27316 3.367 9.99916 3.367C12.8882 3.367 15.3742 5.278 16.1852 7.959L12.9382 6.615L12.4162 7.877L17.7792 10.098L20.0002 4.736L18.7372 4.213Z" fill="#DC0000"/>
<path fill-rule="evenodd" clip-rule="evenodd" d="M10.0022 16.3087C7.11224 16.3087 4.62624 14.3967 3.81524 11.7167L7.06224 13.0627L7.58524 11.7997L2.22224 9.57874H2.22124L1.90224 10.3487L1.69824 10.8397H1.69924L0.000244141 14.9417L1.26224 15.4647L2.57024 12.3087C3.61324 15.4527 6.57224 17.6757 10.0022 17.6757C13.3032 17.6757 16.2692 15.5887 17.3812 12.4827L16.0952 12.0227C15.1762 14.5857 12.7282 16.3087 10.0022 16.3087" fill="#1AB546"/>
</svg>
