<svg width="20" height="20" viewBox="0 0 20 20" fill="none" xmlns="http://www.w3.org/2000/svg">
<path d="M12.8076 6.60361H19.5284C19.5716 6.60361 19.6 6.57561 19.6 6.53281V4.88841C19.6 4.84561 19.5716 4.81641 19.5284 4.81641H12.6784C12.5496 4.81641 12.3784 4.88841 12.2924 4.97361L10.8196 6.43241C10.734 6.51881 10.6624 6.68961 10.6624 6.81801V13.1676C10.6624 13.2968 10.734 13.468 10.8196 13.554L12.2924 15.0272C12.3784 15.1132 12.5496 15.1844 12.6784 15.1844H19.5284C19.5716 15.1844 19.6 15.1552 19.6 15.1132V13.468C19.6 13.4252 19.5716 13.3968 19.5284 13.3968H12.8076C12.6072 13.3968 12.4496 13.2396 12.4496 13.0392V6.96121C12.4496 6.76081 12.6076 6.60361 12.8076 6.60361V6.60361Z" fill="#001E28"/>
<path d="M2.41639 4.81599C2.28759 4.81599 2.11679 4.88799 2.03039 4.97319L0.557194 6.43239C0.471594 6.51879 0.399994 6.68959 0.399994 6.81799V13.1676C0.399994 13.2968 0.471594 13.468 0.557194 13.554L2.02999 15.0272C2.11639 15.1132 2.28719 15.1844 2.41599 15.1844H9.26639C9.30959 15.1844 9.33799 15.1552 9.33799 15.1132V13.468C9.33799 13.4252 9.30959 13.3968 9.26639 13.3968H2.54559C2.34519 13.3968 2.18759 13.2396 2.18759 13.0392V6.96119C2.18759 6.76079 2.34519 6.60359 2.54559 6.60359H9.26639C9.30959 6.60359 9.33799 6.57559 9.33799 6.53279V4.88839C9.33799 4.84559 9.30959 4.81639 9.26639 4.81639H2.41639V4.81599Z" fill="#001E28"/>
</svg>
