<svg width="24" height="16" viewBox="0 0 24 16" fill="none" xmlns="http://www.w3.org/2000/svg">
<g clip-path="url(#clip0_986_17643)">
<mask id="mask0_986_17643" style="mask-type:luminance" maskUnits="userSpaceOnUse" x="0" y="0" width="24" height="16">
<path d="M0 16H24V1.90735e-06H0V16Z" fill="white"/>
</mask>
<g mask="url(#mask0_986_17643)">
<path d="M1.77689 5.6669C1.63289 5.65197 1.47589 5.56341 1.41589 5.40421C1.35589 5.56341 1.19789 5.65197 1.05389 5.6669C1.19789 5.68182 1.35589 5.76938 1.41589 5.92859C1.47589 5.76938 1.63289 5.68182 1.77689 5.6669Z" fill="#28B4C7"/>
</g>
<mask id="mask1_986_17643" style="mask-type:luminance" maskUnits="userSpaceOnUse" x="0" y="0" width="24" height="16">
<path d="M0 16H24V1.90735e-06H0V16Z" fill="white"/>
</mask>
<g mask="url(#mask1_986_17643)">
<path d="M1.5503 9.13784C1.5503 9.21147 1.5073 9.24928 1.4663 9.2662C1.6343 9.24928 1.7083 9.31595 1.7433 9.43933C1.6493 9.40749 1.5013 9.40451 1.5053 9.51098C1.5053 9.51098 1.5123 9.79356 1.5143 9.8652C1.5523 9.81147 1.6183 9.79754 1.7023 9.79754C1.8163 9.79754 1.8033 9.72093 1.7843 9.65426C1.8453 9.67515 1.9063 9.71396 1.8833 9.80451C1.9353 9.8055 1.9683 9.83137 1.9953 9.8652C1.9613 9.90501 1.9243 9.92292 1.8833 9.92789C1.8953 9.98759 1.8543 10.0423 1.7843 10.0732C1.8073 10.0135 1.8143 9.91993 1.7023 9.91993C1.6553 9.91993 1.6223 9.95476 1.6223 10.0145C1.6223 10.108 1.7233 10.1826 1.8223 10.1826C1.9053 10.1826 2.0513 10.1279 2.0513 9.96968C2.0513 9.907 2.0363 9.84829 2.0103 9.79356C1.8883 9.53585 1.4983 8.71396 1.4153 8.54182C1.3333 8.71396 0.942297 9.53585 0.821297 9.79356C0.795297 9.84829 0.779297 9.907 0.779297 9.96968C0.779297 10.1279 0.925297 10.1826 1.0083 10.1826C1.1073 10.1826 1.2083 10.108 1.2083 10.0145C1.2083 9.97068 1.1903 9.94083 1.1623 9.9269C1.1553 9.94282 1.1353 9.95476 1.1093 9.96073C1.0843 9.9667 1.0553 9.97267 1.0393 9.96869C1.0273 10.0005 1.0343 10.0423 1.0463 10.0732C0.976297 10.0423 0.935297 9.98759 0.946297 9.92789C0.907297 9.92292 0.869297 9.90501 0.835297 9.8652C0.862297 9.83137 0.895297 9.8055 0.946297 9.80451C0.924297 9.71396 0.986297 9.67515 1.0463 9.65426C1.0273 9.72093 1.0143 9.79754 1.1293 9.79754C1.2123 9.79754 1.2783 9.81147 1.3163 9.8652C1.3183 9.79356 1.3253 9.51098 1.3253 9.51098C1.3303 9.40451 1.1813 9.40749 1.0873 9.43933C1.1233 9.31595 1.1963 9.24928 1.3643 9.2662C1.3233 9.24928 1.2803 9.21147 1.2803 9.13784C1.2803 9.03734 1.3623 8.9269 1.4153 8.89406C1.4683 8.9269 1.5503 9.03734 1.5503 9.13784Z" fill="#28B4C7"/>
</g>
<mask id="mask2_986_17643" style="mask-type:luminance" maskUnits="userSpaceOnUse" x="0" y="0" width="24" height="16">
<path d="M0 16H24V1.90735e-06H0V16Z" fill="white"/>
</mask>
<g mask="url(#mask2_986_17643)">
<path d="M1.65331 8.00441C1.65731 8.00242 1.66231 8.00142 1.66631 8.00043C1.66231 7.99943 1.65731 7.99744 1.65331 7.99645C1.52831 7.98252 1.44131 7.88699 1.41531 7.83824C1.38931 7.88699 1.30231 7.98252 1.17731 7.99645C1.17431 7.99744 1.16931 7.99943 1.16431 8.00043C1.16931 8.00142 1.17431 8.00242 1.17731 8.00441C1.30231 8.01834 1.38931 8.11386 1.41531 8.16162C1.44131 8.11386 1.52831 8.01834 1.65331 8.00441Z" fill="#28B4C7"/>
</g>
<mask id="mask3_986_17643" style="mask-type:luminance" maskUnits="userSpaceOnUse" x="0" y="0" width="24" height="16">
<path d="M0 16H24V1.90735e-06H0V16Z" fill="white"/>
</mask>
<g mask="url(#mask3_986_17643)">
<path d="M2.05178 10.6974C2.05178 10.5392 1.90578 10.4844 1.82279 10.4844C1.72379 10.4844 1.62278 10.5591 1.62278 10.6526C1.62278 10.7123 1.65578 10.7481 1.70178 10.7481C1.81378 10.7481 1.80678 10.6536 1.78479 10.5939C1.85478 10.6247 1.89578 10.6795 1.88379 10.7392C1.92378 10.7441 1.96079 10.7621 1.99578 10.8009C1.96878 10.8357 1.93479 10.8616 1.88379 10.8626C1.90679 10.9531 1.84478 10.9919 1.78479 11.0128C1.80379 10.9461 1.81678 10.8695 1.70178 10.8695C1.61878 10.8695 1.55279 10.8556 1.51479 10.8009C1.51179 10.8735 1.50579 11.1561 1.50579 11.1561C1.50078 11.2626 1.64979 11.2596 1.74379 11.2287C1.70779 11.3511 1.63478 11.4178 1.46579 11.4009C1.50678 11.4178 1.55079 11.4556 1.55079 11.5292C1.55079 11.6297 1.46879 11.7402 1.41579 11.773C1.36179 11.7402 1.28079 11.6297 1.28079 11.5292C1.28079 11.4556 1.32379 11.4178 1.36479 11.4009C1.19579 11.4178 1.12279 11.3511 1.08779 11.2287C1.18179 11.2596 1.32979 11.2626 1.32479 11.1561C1.32479 11.1561 1.31879 10.8735 1.31679 10.8009C1.27779 10.8556 1.21279 10.8695 1.12879 10.8695C1.01479 10.8695 1.02679 10.9461 1.04579 11.0128C0.985785 10.9919 0.924785 10.9531 0.946785 10.8626C0.895785 10.8616 0.862785 10.8357 0.834785 10.8009C0.869785 10.7621 0.906785 10.7441 0.946785 10.7392C0.935785 10.6795 0.975785 10.6247 1.04579 10.5939C1.02379 10.6536 1.01679 10.7481 1.12879 10.7481C1.17579 10.7481 1.20779 10.7123 1.20779 10.6526C1.20779 10.5591 1.10779 10.4844 1.00879 10.4844C0.925785 10.4844 0.779785 10.5392 0.779785 10.6974C0.779785 10.7601 0.794785 10.8188 0.820785 10.8735C0.942785 11.1312 1.33279 11.9531 1.41579 12.1252C1.49779 11.9531 1.88878 11.1312 2.00978 10.8735C2.03578 10.8188 2.05178 10.7601 2.05178 10.6974Z" fill="#28B4C7"/>
</g>
<mask id="mask4_986_17643" style="mask-type:luminance" maskUnits="userSpaceOnUse" x="0" y="0" width="24" height="16">
<path d="M0 16H24V1.90735e-06H0V16Z" fill="white"/>
</mask>
<g mask="url(#mask4_986_17643)">
<path d="M1.77689 10.333C1.63289 10.3181 1.47589 10.2295 1.41589 10.0703C1.35589 10.2295 1.19789 10.3181 1.05389 10.333C1.19789 10.3489 1.35589 10.4365 1.41589 10.5967C1.47589 10.4365 1.63289 10.3489 1.77689 10.333Z" fill="#28B4C7"/>
</g>
<mask id="mask5_986_17643" style="mask-type:luminance" maskUnits="userSpaceOnUse" x="0" y="0" width="24" height="16">
<path d="M0 16H24V1.90735e-06H0V16Z" fill="white"/>
</mask>
<g mask="url(#mask5_986_17643)">
<path d="M1.24459 13.6688C1.28759 13.7216 1.41559 13.6161 1.41559 13.6161C1.41559 13.6161 1.54259 13.7216 1.58559 13.6688C1.63859 13.6051 1.49159 13.3484 1.41559 13.1614C1.33859 13.3484 1.19259 13.6051 1.24459 13.6688Z" fill="#28B4C7"/>
</g>
<mask id="mask6_986_17643" style="mask-type:luminance" maskUnits="userSpaceOnUse" x="0" y="0" width="24" height="16">
<path d="M0 16H24V1.90735e-06H0V16Z" fill="white"/>
</mask>
<g mask="url(#mask6_986_17643)">
<path d="M1.41548 12.8293C1.46748 12.7398 1.56248 12.696 1.67648 12.6701C1.66848 12.6682 1.66048 12.6662 1.65348 12.6632C1.52848 12.6483 1.44048 12.5537 1.41548 12.505C1.38948 12.5537 1.30248 12.6483 1.17748 12.6632C1.17048 12.6662 1.16248 12.6682 1.15448 12.6701C1.26848 12.696 1.36348 12.7398 1.41548 12.8293Z" fill="#28B4C7"/>
</g>
<mask id="mask7_986_17643" style="mask-type:luminance" maskUnits="userSpaceOnUse" x="0" y="0" width="24" height="16">
<path d="M0 16H24V1.90735e-06H0V16Z" fill="white"/>
</mask>
<g mask="url(#mask7_986_17643)">
<path d="M2.05178 6.03088C2.05178 5.87267 1.90578 5.81695 1.82279 5.81695C1.72379 5.81695 1.62278 5.89158 1.62278 5.9861C1.62278 6.04581 1.65578 6.08063 1.70178 6.08063C1.81378 6.08063 1.80678 5.9861 1.78479 5.9264C1.85478 5.95824 1.89578 6.01297 1.88379 6.07267C1.92378 6.07765 1.96079 6.09556 1.99578 6.13436C1.96878 6.16919 1.93479 6.19506 1.88379 6.19605C1.90679 6.2866 1.84478 6.32441 1.78479 6.3463C1.80379 6.27964 1.81678 6.20302 1.70178 6.20302C1.61878 6.20302 1.55279 6.18909 1.51479 6.13436C1.51179 6.206 1.50579 6.48959 1.50579 6.48959C1.50078 6.59605 1.64979 6.59307 1.74379 6.56123C1.70779 6.68461 1.63478 6.75028 1.46579 6.73436C1.50678 6.75128 1.55079 6.78909 1.55079 6.86272C1.55079 6.96322 1.46879 7.07367 1.41579 7.1065C1.36179 7.07367 1.28079 6.96322 1.28079 6.86272C1.28079 6.78909 1.32379 6.75128 1.36479 6.73436C1.19579 6.75028 1.12279 6.68461 1.08779 6.56123C1.18179 6.59307 1.32979 6.59605 1.32479 6.48959C1.32479 6.48959 1.31879 6.206 1.31679 6.13436C1.27779 6.18909 1.21279 6.20302 1.12879 6.20302C1.01479 6.20302 1.02679 6.27964 1.04579 6.3463C0.985785 6.32441 0.924785 6.2866 0.946785 6.19605C0.895785 6.19506 0.862785 6.16919 0.834785 6.13436C0.869785 6.09556 0.906785 6.07765 0.946785 6.07267C0.935785 6.01297 0.975785 5.95824 1.04579 5.9264C1.02379 5.9861 1.01679 6.08063 1.12879 6.08063C1.17579 6.08063 1.20779 6.04581 1.20779 5.9861C1.20779 5.89158 1.10779 5.81695 1.00879 5.81695C0.925785 5.81695 0.779785 5.87267 0.779785 6.03088C0.779785 6.09357 0.794785 6.15227 0.820785 6.206C0.942785 6.46471 1.33279 7.28561 1.41579 7.45874C1.49779 7.28561 1.88878 6.46471 2.00978 6.206C2.03578 6.15227 2.05178 6.09357 2.05178 6.03088Z" fill="#28B4C7"/>
</g>
<mask id="mask8_986_17643" style="mask-type:luminance" maskUnits="userSpaceOnUse" x="0" y="0" width="24" height="16">
<path d="M0 16H24V1.90735e-06H0V16Z" fill="white"/>
</mask>
<g mask="url(#mask8_986_17643)">
<path d="M1.58589 2.33153C1.54289 2.2778 1.41589 2.38426 1.41589 2.38426C1.41589 2.38426 1.28789 2.2778 1.24489 2.33153C1.19289 2.39521 1.33889 2.65192 1.41589 2.83899C1.49189 2.65192 1.63789 2.39521 1.58589 2.33153Z" fill="#28B4C7"/>
</g>
<mask id="mask9_986_17643" style="mask-type:luminance" maskUnits="userSpaceOnUse" x="0" y="0" width="24" height="16">
<path d="M0 16H24V1.90735e-06H0V16Z" fill="white"/>
</mask>
<g mask="url(#mask9_986_17643)">
<path d="M0.620451 9.98708C0.620451 9.87564 0.641451 9.804 0.693451 9.69654C0.693451 9.69654 1.11445 8.82788 1.27845 8.49256C1.29845 8.45077 1.30545 8.40201 1.30545 8.33136C1.30545 8.2249 1.19945 8.13634 1.08945 8.13236C0.988451 8.13037 0.878451 8.22589 0.878451 8.33534C0.878451 8.46868 0.947451 8.52838 1.01845 8.52838C1.10645 8.52838 1.14145 8.49256 1.14145 8.43186C1.14145 8.38907 1.12045 8.37017 1.09045 8.37017C1.01645 8.37017 1.03745 8.47067 1.03745 8.47067C0.999451 8.46171 0.969451 8.4249 0.986451 8.37614C0.958451 8.37017 0.933451 8.35624 0.913451 8.33335C0.933451 8.31445 0.956451 8.30052 0.986451 8.29355C0.969451 8.23783 0.992451 8.20798 1.04345 8.19703C1.03345 8.21992 1.03245 8.23982 1.03645 8.25873C1.11645 8.23584 1.23845 8.27166 1.23845 8.40997C1.23845 8.54529 1.14345 8.66072 0.964451 8.63186C1.00745 8.65276 1.02845 8.69355 1.03345 8.74032C1.00045 8.72639 0.964451 8.7244 0.964451 8.7244C0.985451 8.76221 1.01445 8.79305 1.01345 8.86569C0.980451 8.84977 0.949451 8.82291 0.907451 8.84082C0.973451 8.97017 0.891451 9.14828 0.683451 9.19106C0.759451 9.10251 0.797451 9.00699 0.797451 8.91047C0.797451 8.60201 0.710451 8.55126 0.710451 8.33534C0.710451 8.24579 0.756451 8.15126 0.846451 8.0846C0.787451 8.06868 0.748451 8.03883 0.726451 7.99902C0.748451 7.96022 0.787451 7.93136 0.846451 7.91445C0.756451 7.84977 0.710451 7.75226 0.710451 7.6647C0.710451 7.44977 0.797451 7.39704 0.797451 7.08758C0.797451 6.99405 0.759451 6.89853 0.683451 6.80997C0.891451 6.85176 0.973451 7.02987 0.907451 7.16121C0.949451 7.17713 0.980451 7.14927 1.01345 7.13435C1.01445 7.20798 0.985451 7.23783 0.964451 7.27465C0.964451 7.27465 1.00045 7.27266 1.03345 7.26072C1.02845 7.30748 1.00745 7.34927 0.964451 7.36917C1.14345 7.33932 1.23845 7.45475 1.23845 7.59007C1.23845 7.72738 1.11645 7.7642 1.03645 7.74231C1.03245 7.76121 1.03345 7.78012 1.04345 7.804C0.992451 7.79106 0.969451 7.7642 0.986451 7.70649C0.956451 7.70151 0.933451 7.68559 0.913451 7.66569C0.933451 7.6438 0.958451 7.62888 0.986451 7.6239C0.969451 7.57614 0.999451 7.53833 1.03745 7.52937C1.03745 7.52937 1.01645 7.62987 1.09045 7.62987C1.12045 7.62987 1.14145 7.61096 1.14145 7.56917C1.14145 7.50748 1.10645 7.47266 1.01845 7.47266C0.947451 7.47266 0.878451 7.53136 0.878451 7.6647C0.878451 7.77315 0.988451 7.86967 1.08945 7.86768C1.19945 7.8647 1.30545 7.77514 1.30545 7.66768C1.30545 7.59902 1.29845 7.54927 1.27845 7.50748C1.11445 7.17116 0.693451 6.30251 0.693451 6.30251C0.641451 6.19504 0.620451 6.12539 0.620451 6.01196C0.620451 5.82689 0.740451 5.6846 0.963451 5.66768C0.740451 5.64878 0.620451 5.50649 0.620451 5.32141C0.620451 5.20798 0.641451 5.13733 0.693451 5.03087C0.693451 5.03087 1.11445 4.16221 1.27845 3.82589C1.29845 3.7841 1.30545 3.73435 1.30545 3.6647C1.30545 3.55823 1.19945 3.46967 1.08945 3.46569C0.988451 3.4637 0.878451 3.56022 0.878451 3.66868C0.878451 3.80201 0.947451 3.86072 1.01845 3.86072C1.10645 3.86072 1.14145 3.82589 1.14145 3.7642C1.14145 3.72241 1.12045 3.7035 1.09045 3.7035C1.01645 3.7035 1.03745 3.804 1.03745 3.804C0.999451 3.79504 0.969451 3.75723 0.986451 3.70947C0.958451 3.70549 0.933451 3.68957 0.913451 3.66669C0.933451 3.64679 0.956451 3.63286 0.986451 3.62689C0.969451 3.56917 0.992451 3.54131 1.04345 3.52937C1.03345 3.55325 1.03245 3.57316 1.03645 3.59107C1.11645 3.56917 1.23845 3.605 1.23845 3.7433C1.23845 3.87863 1.14345 3.99405 0.964451 3.9642C1.00745 3.9841 1.02845 4.02589 1.03345 4.07266C1.00045 4.05972 0.964451 4.05873 0.964451 4.05873C0.985451 4.09554 1.01445 4.12539 1.01345 4.19903C0.980451 4.18311 0.949451 4.15624 0.907451 4.17216C0.973451 4.3035 0.891451 4.48161 0.683451 4.5244C0.759451 4.43485 0.797451 4.34032 0.797451 4.2448C0.797451 3.93534 0.710451 3.8846 0.710451 3.66868C0.710451 3.58111 0.756451 3.4836 0.846451 3.41793C0.787451 3.40201 0.748451 3.37415 0.726451 3.33335C0.769451 3.27664 0.796451 3.25972 0.867451 3.25574C0.788451 3.21495 0.707451 3.12639 0.707451 2.98907C0.707451 2.77614 0.795451 2.69057 0.795451 2.44977C0.795451 2.31743 0.686451 2.14927 0.686451 2.14927C0.880451 2.16818 0.975451 2.34529 0.921451 2.48758C0.952451 2.49256 0.980451 2.48559 1.00445 2.46271C1.01845 2.5035 0.995451 2.54828 0.966451 2.58708C0.990451 2.60201 1.00845 2.59306 1.04645 2.58609C1.04245 2.62689 1.01845 2.66967 0.958451 2.71047C1.13245 2.66569 1.23945 2.78609 1.23945 2.91246C1.23945 3.00599 1.17245 3.07564 1.10645 3.07564C1.08545 3.07564 1.05445 3.06569 1.03645 3.05276C1.02445 3.08062 1.03045 3.11445 1.04345 3.14131C0.995451 3.12738 0.964451 3.10052 0.986451 3.04181C0.949451 3.03783 0.919451 3.0239 0.899451 3.00102C0.920451 2.97614 0.951451 2.96022 0.986451 2.96122C0.959451 2.90649 0.989451 2.87664 1.03345 2.85176C1.03345 2.85176 1.00545 2.96122 1.07645 2.96122C1.10845 2.96122 1.13745 2.95226 1.13745 2.9045C1.13745 2.8637 1.10145 2.80798 1.01845 2.81196C0.935451 2.81495 0.868451 2.86868 0.868451 3.00002C0.868451 3.12141 0.967451 3.18111 1.09745 3.18509C1.21345 3.18808 1.30245 3.12539 1.30245 3.005C1.30245 2.84579 1.07045 2.48261 1.07045 2.34032C1.07045 2.23385 1.16645 2.17415 1.26145 2.17415C1.32045 2.17415 1.37445 2.20201 1.41545 2.23186C1.45545 2.20201 1.51045 2.17415 1.56945 2.17415C1.66345 2.17415 1.76045 2.23385 1.76045 2.34032C1.76045 2.48261 1.52845 2.84579 1.52845 3.005C1.52845 3.12539 1.61645 3.18808 1.73345 3.18509C1.86345 3.18111 1.96145 3.12141 1.96145 3.00002C1.96145 2.86868 1.89445 2.81495 1.81145 2.81196C1.72845 2.80798 1.69345 2.8637 1.69345 2.9045C1.69345 2.95226 1.72245 2.96122 1.75445 2.96122C1.82545 2.96122 1.79745 2.85176 1.79745 2.85176C1.84145 2.87664 1.87145 2.90649 1.84445 2.96122C1.87945 2.96022 1.91045 2.97614 1.93045 3.00102C1.91145 3.0239 1.88145 3.03783 1.84445 3.04181C1.86645 3.10052 1.83545 3.12738 1.78745 3.14131C1.80045 3.11445 1.80645 3.08062 1.79345 3.05276C1.77645 3.06569 1.74545 3.07564 1.72445 3.07564C1.65845 3.07564 1.59045 3.00599 1.59045 2.91246C1.59045 2.78609 1.69845 2.66569 1.87245 2.71047C1.81245 2.66967 1.78745 2.62689 1.78445 2.58609C1.82245 2.59306 1.84045 2.60201 1.86445 2.58708C1.83445 2.54828 1.81145 2.5035 1.82645 2.46271C1.85045 2.48559 1.87845 2.49256 1.90945 2.48758C1.85445 2.34529 1.95045 2.16818 2.14445 2.14927C2.14445 2.14927 2.03445 2.31743 2.03445 2.44977C2.03445 2.69057 2.12245 2.77614 2.12245 2.98907C2.12245 3.12639 2.04145 3.21495 1.96345 3.25574C2.03445 3.25972 2.06145 3.27664 2.10345 3.33335C2.08145 3.37415 2.04345 3.40201 1.98345 3.41793C2.07445 3.4836 2.12045 3.58111 2.12045 3.66868C2.12045 3.8846 2.03345 3.93534 2.03345 4.2448C2.03345 4.34032 2.07145 4.43485 2.14745 4.5244C1.93845 4.48161 1.85645 4.3035 1.92345 4.17216C1.88145 4.15624 1.85045 4.18311 1.81745 4.19903C1.81545 4.12539 1.84545 4.09554 1.86545 4.05873C1.86545 4.05873 1.82945 4.05972 1.79745 4.07266C1.80145 4.02589 1.82345 3.9841 1.86545 3.9642C1.68745 3.99405 1.59145 3.87863 1.59145 3.7433C1.59145 3.605 1.71445 3.56917 1.79445 3.59107C1.79845 3.57316 1.79745 3.55325 1.78745 3.52937C1.83845 3.54131 1.86145 3.56917 1.84445 3.62689C1.87345 3.63286 1.89745 3.64679 1.91745 3.66669C1.89745 3.68957 1.87145 3.70549 1.84445 3.70947C1.86145 3.75723 1.83045 3.79504 1.79345 3.804C1.79345 3.804 1.81445 3.7035 1.73945 3.7035C1.70945 3.7035 1.68945 3.72241 1.68945 3.7642C1.68945 3.82589 1.72445 3.86072 1.81145 3.86072C1.88345 3.86072 1.95245 3.80201 1.95245 3.66868C1.95245 3.56022 1.84245 3.4637 1.74145 3.46569C1.63145 3.46967 1.52545 3.55823 1.52545 3.6647C1.52545 3.73435 1.53145 3.7841 1.55245 3.82589C1.71645 4.16221 2.13745 5.03087 2.13745 5.03087C2.18945 5.13733 2.21045 5.20798 2.21045 5.32141C2.21045 5.50649 2.09045 5.64878 1.86745 5.66768C2.09045 5.6846 2.21045 5.82689 2.21045 6.01196C2.21045 6.12539 2.18945 6.19504 2.13745 6.30251C2.13745 6.30251 1.71645 7.17116 1.55245 7.50748C1.53145 7.54927 1.52545 7.59902 1.52545 7.66768C1.52545 7.77514 1.63145 7.8647 1.74145 7.86768C1.84245 7.86967 1.95245 7.77315 1.95245 7.6647C1.95245 7.53136 1.88345 7.47266 1.81145 7.47266C1.72445 7.47266 1.68945 7.50748 1.68945 7.56917C1.68945 7.61096 1.70945 7.62987 1.73945 7.62987C1.81445 7.62987 1.79345 7.52937 1.79345 7.52937C1.83045 7.53833 1.86145 7.57614 1.84445 7.6239C1.87145 7.62888 1.89745 7.6438 1.91745 7.66569C1.89745 7.68559 1.87345 7.70151 1.84445 7.70649C1.86145 7.7642 1.83845 7.79106 1.78745 7.804C1.79745 7.78012 1.79845 7.76121 1.79445 7.74231C1.71445 7.7642 1.59145 7.72738 1.59145 7.59007C1.59145 7.45475 1.68745 7.33932 1.86545 7.36917C1.82345 7.34927 1.80145 7.30748 1.79745 7.26072C1.82945 7.27266 1.86545 7.27465 1.86545 7.27465C1.84545 7.23783 1.81545 7.20798 1.81745 7.13435C1.85045 7.14927 1.88145 7.17713 1.92345 7.16121C1.85645 7.02987 1.93845 6.85176 2.14745 6.80997C2.07145 6.89853 2.03345 6.99405 2.03345 7.08758C2.03345 7.39704 2.12045 7.44977 2.12045 7.6647C2.12045 7.75226 2.07445 7.84977 1.98345 7.91445C2.04345 7.93136 2.08145 7.96022 2.10345 7.99902C2.08145 8.03883 2.04345 8.06868 1.98345 8.0846C2.07445 8.15126 2.12045 8.24579 2.12045 8.33534C2.12045 8.55126 2.03345 8.60201 2.03345 8.91047C2.03345 9.00699 2.07145 9.10251 2.14745 9.19106C1.93845 9.14828 1.85645 8.97017 1.92345 8.84082C1.88145 8.82291 1.85045 8.84977 1.81745 8.86569C1.81545 8.79305 1.84545 8.76221 1.86545 8.7244C1.86545 8.7244 1.82945 8.72639 1.79745 8.74032C1.80145 8.69355 1.82345 8.65276 1.86545 8.63186C1.68745 8.66072 1.59145 8.54529 1.59145 8.40997C1.59145 8.27166 1.71445 8.23584 1.79445 8.25873C1.79845 8.23982 1.79745 8.21992 1.78745 8.19703C1.83845 8.20798 1.86145 8.23783 1.84445 8.29355C1.87345 8.30052 1.89745 8.31445 1.91745 8.33335C1.89745 8.35624 1.87145 8.37017 1.84445 8.37614C1.86145 8.4249 1.83045 8.46171 1.79345 8.47067C1.79345 8.47067 1.81445 8.37017 1.73945 8.37017C1.70945 8.37017 1.68945 8.38907 1.68945 8.43186C1.68945 8.49256 1.72445 8.52838 1.81145 8.52838C1.88345 8.52838 1.95245 8.46868 1.95245 8.33534C1.95245 8.22589 1.84245 8.13037 1.74145 8.13236C1.63145 8.13634 1.52545 8.2249 1.52545 8.33136C1.52545 8.40201 1.53145 8.45077 1.55245 8.49256C1.71645 8.82788 2.13745 9.69654 2.13745 9.69654C2.18945 9.804 2.21045 9.87564 2.21045 9.98708C2.21045 10.1732 2.09045 10.3144 1.86745 10.3343C2.09045 10.3513 2.21045 10.4955 2.21045 10.6786C2.21045 10.7931 2.18945 10.8627 2.13745 10.9692C2.13745 10.9692 1.71645 11.8388 1.55245 12.1751C1.53145 12.2169 1.52545 12.2647 1.52545 12.3343C1.52545 12.4438 1.63145 12.5314 1.74145 12.5343C1.84245 12.5373 1.95245 12.4408 1.95245 12.3304C1.95245 12.199 1.88345 12.1393 1.81145 12.1393C1.72445 12.1393 1.68945 12.1751 1.68945 12.2368C1.68945 12.2796 1.70945 12.2965 1.73945 12.2965C1.81445 12.2965 1.79345 12.197 1.79345 12.197C1.83045 12.205 1.86145 12.2438 1.84445 12.2896C1.87145 12.2955 1.89745 12.3095 1.91745 12.3324C1.89745 12.3523 1.87345 12.3682 1.84445 12.3722C1.86145 12.4299 1.83845 12.4577 1.78745 12.4697C1.79745 12.4488 1.79845 12.4269 1.79445 12.409C1.71445 12.4309 1.59145 12.395 1.59145 12.2577C1.59145 12.1224 1.68745 12.006 1.86545 12.0358C1.82345 12.0149 1.80145 11.9732 1.79745 11.9274C1.82945 11.9403 1.86545 11.9423 1.86545 11.9423C1.84545 11.9065 1.81545 11.8737 1.81745 11.802C1.85045 11.8179 1.88145 11.8438 1.92345 11.8279C1.85645 11.6975 1.93845 11.5174 2.14745 11.4756C2.07145 11.5652 2.03345 11.6607 2.03345 11.7552C2.03345 12.0647 2.12045 12.1174 2.12045 12.3304C2.12045 12.4189 2.07445 12.5154 1.98345 12.5811C2.04345 12.598 2.08145 12.6269 2.10345 12.6667C2.06145 12.7234 2.03445 12.7403 1.96345 12.7443C2.04145 12.7861 2.12245 12.8727 2.12245 13.011C2.12245 13.2239 2.03445 13.3115 2.03445 13.5493C2.03445 13.6826 2.14445 13.8518 2.14445 13.8518C1.95045 13.8319 1.85445 13.6547 1.90945 13.5115C1.87845 13.5065 1.85045 13.5144 1.82645 13.5363C1.81145 13.4965 1.83445 13.4508 1.86445 13.412C1.84045 13.4 1.82245 13.408 1.78445 13.4139C1.78745 13.3741 1.81245 13.3304 1.87245 13.2896C1.69845 13.3353 1.59045 13.2139 1.59045 13.0886C1.59045 12.9931 1.65845 12.9244 1.72445 12.9244C1.74545 12.9244 1.77645 12.9343 1.79345 12.9473C1.80645 12.9204 1.80045 12.8856 1.78745 12.8597C1.83545 12.8707 1.86645 12.9005 1.84445 12.9592C1.88145 12.9622 1.91145 12.9751 1.93045 12.998C1.91045 13.0249 1.87945 13.0388 1.84445 13.0378C1.87145 13.0936 1.84145 13.1244 1.79745 13.1503C1.79745 13.1503 1.82545 13.0378 1.75445 13.0378C1.72245 13.0378 1.69345 13.0478 1.69345 13.0955C1.69345 13.1363 1.72845 13.1931 1.81145 13.1891C1.89445 13.1861 1.96145 13.1324 1.96145 13C1.96145 12.8796 1.86345 12.8199 1.73345 12.8159C1.61645 12.812 1.52845 12.8746 1.52845 12.994C1.52845 13.1552 1.76045 13.5174 1.76045 13.6587C1.76045 13.7672 1.66345 13.8249 1.56945 13.8249C1.51045 13.8249 1.45545 13.798 1.41545 13.7692C1.37445 13.798 1.32045 13.8249 1.26145 13.8249C1.16645 13.8249 1.07045 13.7672 1.07045 13.6587C1.07045 13.5174 1.30245 13.1552 1.30245 12.994C1.30245 12.8746 1.21345 12.812 1.09745 12.8159C0.967451 12.8199 0.868451 12.8796 0.868451 13C0.868451 13.1324 0.935451 13.1861 1.01845 13.1891C1.10145 13.1931 1.13745 13.1363 1.13745 13.0955C1.13745 13.0478 1.10845 13.0378 1.07645 13.0378C1.00545 13.0378 1.03345 13.1503 1.03345 13.1503C0.989451 13.1244 0.959451 13.0936 0.986451 13.0378C0.951451 13.0388 0.920451 13.0249 0.899451 12.998C0.919451 12.9751 0.949451 12.9622 0.986451 12.9592C0.964451 12.9005 0.995451 12.8707 1.04345 12.8597C1.03045 12.8856 1.02445 12.9204 1.03645 12.9473C1.05445 12.9343 1.08545 12.9244 1.10645 12.9244C1.17245 12.9244 1.23945 12.9931 1.23945 13.0886C1.23945 13.2139 1.13245 13.3353 0.958451 13.2896C1.01845 13.3304 1.04245 13.3741 1.04645 13.4139C1.00845 13.408 0.990451 13.4 0.966451 13.412C0.995451 13.4508 1.01845 13.4965 1.00445 13.5363C0.980451 13.5144 0.952451 13.5065 0.921451 13.5115C0.975451 13.6547 0.880451 13.8319 0.686451 13.8518C0.686451 13.8518 0.795451 13.6826 0.795451 13.5493C0.795451 13.3115 0.707451 13.2239 0.707451 13.011C0.707451 12.8727 0.788451 12.7861 0.867451 12.7443C0.796451 12.7403 0.769451 12.7234 0.726451 12.6667C0.748451 12.6269 0.787451 12.598 0.846451 12.5811C0.756451 12.5154 0.710451 12.4189 0.710451 12.3304C0.710451 12.1174 0.797451 12.0647 0.797451 11.7552C0.797451 11.6607 0.759451 11.5652 0.683451 11.4756C0.891451 11.5174 0.973451 11.6975 0.907451 11.8279C0.949451 11.8438 0.980451 11.8179 1.01345 11.802C1.01445 11.8737 0.985451 11.9065 0.964451 11.9423C0.964451 11.9423 1.00045 11.9403 1.03345 11.9274C1.02845 11.9732 1.00745 12.0149 0.964451 12.0358C1.14345 12.006 1.23845 12.1224 1.23845 12.2577C1.23845 12.395 1.11645 12.4309 1.03645 12.409C1.03245 12.4269 1.03345 12.4488 1.04345 12.4697C0.992451 12.4577 0.969451 12.4299 0.986451 12.3722C0.956451 12.3682 0.933451 12.3523 0.913451 12.3324C0.933451 12.3095 0.958451 12.2955 0.986451 12.2896C0.969451 12.2438 0.999451 12.205 1.03745 12.197C1.03745 12.197 1.01645 12.2965 1.09045 12.2965C1.12045 12.2965 1.14145 12.2796 1.14145 12.2368C1.14145 12.1751 1.10645 12.1393 1.01845 12.1393C0.947451 12.1393 0.878451 12.199 0.878451 12.3304C0.878451 12.4408 0.988451 12.5373 1.08945 12.5343C1.19945 12.5314 1.30545 12.4438 1.30545 12.3343C1.30545 12.2647 1.29845 12.2169 1.27845 12.1751C1.11445 11.8388 0.693451 10.9692 0.693451 10.9692C0.641451 10.8627 0.620451 10.7931 0.620451 10.6786C0.620451 10.4955 0.740451 10.3513 0.963451 10.3343C0.740451 10.3144 0.620451 10.1732 0.620451 9.98708ZM9.25545 8.43883C9.30445 8.37017 9.88845 9.02689 9.90645 8.89554C9.91245 8.85375 9.12045 7.87465 9.27745 7.57415C9.31845 7.49455 9.83145 8.57315 9.92245 8.46569C9.94745 8.43584 9.50045 7.43982 9.58045 7.31246C9.64045 7.21793 9.96845 8.09455 10.0125 8.15226C10.0355 8.1841 9.97245 7.71743 9.99445 7.56519C10.0035 7.50251 10.0745 7.52937 10.0745 7.52937C10.1885 8.96519 11.4525 10.397 13.2505 10.3911C13.2505 10.3911 13.2825 10.4229 13.2555 10.4468C13.2465 10.4547 13.2215 10.4159 13.1945 10.4567C13.1275 10.5562 12.9875 10.6458 12.9865 10.6418C12.9865 10.6418 12.9335 10.5085 12.6815 10.4577C12.2115 10.3602 12.0525 10.4189 12.0175 10.3881C11.7745 10.1801 11.6775 10.0806 11.4435 9.93435C11.2105 9.79106 11.2085 9.91047 11.1055 9.82489C10.8905 9.6448 10.8255 9.39504 10.5965 9.13335C10.3685 8.86768 10.1915 8.77017 10.1915 8.77017L10.1705 8.81096C10.1705 8.81096 10.0205 8.76022 10.0315 8.83684C10.0655 9.07365 10.1755 9.02092 10.1715 9.10251C10.1685 9.15425 9.99145 9.0836 10.0215 9.16519C10.0645 9.28559 10.2745 9.37514 10.3115 9.42689C10.3685 9.5035 10.1525 9.41196 10.1955 9.49156C10.2375 9.57216 10.4655 9.63087 10.5495 9.67664C10.6275 9.72042 10.4595 9.71146 10.4705 9.74728C10.4805 9.7831 10.6205 9.82987 10.6175 9.85574C10.6125 9.89256 10.4745 9.8836 10.5135 9.93833C10.5525 9.99305 10.7705 10.0438 10.7735 10.0737C10.7765 10.1045 10.6605 10.1055 10.7005 10.1562C10.7625 10.2339 10.9225 10.1722 10.9635 10.2259C11.0055 10.2806 10.8075 10.3383 10.8555 10.3662C11.0095 10.4557 11.3875 10.6319 11.6705 10.6836C11.9535 10.7353 12.1565 10.6886 12.1415 10.7135C12.1275 10.7403 11.9245 10.8269 11.5255 10.7503C11.1265 10.6707 10.8355 10.5314 10.5815 10.404C10.3265 10.2766 10.6545 10.3174 10.5835 10.2707C10.5135 10.2239 10.2265 10.2388 10.2165 10.1732C10.2035 10.0955 10.3935 10.1254 10.3885 10.0836C10.3845 10.0438 10.0915 10.0289 10.0715 9.93634C10.0595 9.8836 10.3475 9.93236 10.2955 9.86768C10.2435 9.803 9.89745 9.83385 9.87945 9.69057C9.87045 9.61793 10.2015 9.71345 10.1675 9.65475C10.1215 9.57813 10.0705 9.60499 9.91245 9.51445C9.75445 9.42589 9.48945 9.21793 9.50245 9.11345C9.51845 8.98808 10.0385 9.35226 9.92445 9.21992C9.88545 9.17713 9.14545 8.59803 9.25545 8.43883ZM11.1695 6.82092C11.2465 6.82092 11.3115 6.85972 11.3125 6.96221C11.3125 7.0647 11.2465 7.1045 11.1695 7.1045C11.0665 7.1045 10.5765 6.96221 10.5765 6.96221C10.5765 6.96221 11.0665 6.82092 11.1695 6.82092ZM11.2385 6.41495C11.3135 6.42888 11.3695 6.48062 11.3505 6.58111C11.3305 6.68062 11.2585 6.70649 11.1825 6.69057C11.0815 6.67067 10.6285 6.43783 10.6285 6.43783C10.6285 6.43783 11.1365 6.39504 11.2385 6.41495ZM11.3845 6.02788C11.4555 6.05773 11.5005 6.11743 11.4625 6.21395C11.4225 6.30748 11.3475 6.31743 11.2765 6.28957C11.1815 6.24977 10.7825 5.93236 10.7825 5.93236C10.7825 5.93236 11.2895 5.98907 11.3845 6.02788ZM11.6045 5.67763C11.6685 5.72042 11.7005 5.78808 11.6445 5.87465C11.5865 5.96022 11.5115 5.95525 11.4465 5.91246C11.3615 5.85674 11.0325 5.46768 11.0325 5.46768C11.0325 5.46768 11.5185 5.62092 11.6045 5.67763ZM11.8885 5.37813C11.9425 5.43087 11.9615 5.5045 11.8895 5.57713C11.8165 5.65077 11.7425 5.63186 11.6875 5.57614C11.6155 5.5045 11.3685 5.05873 11.3685 5.05873C11.3685 5.05873 11.8155 5.3045 11.8885 5.37813ZM12.2255 5.13733C12.2685 5.20101 12.2725 5.27664 12.1875 5.33335C12.1015 5.39007 12.0345 5.35823 11.9905 5.29455C11.9335 5.20898 11.7785 4.7244 11.7785 4.7244C11.7785 4.7244 12.1685 5.05276 12.2255 5.13733ZM12.6035 4.96818C12.6335 5.03783 12.6225 5.11345 12.5275 5.15325C12.4325 5.19306 12.3715 5.14629 12.3425 5.07465C12.3025 4.98012 12.2455 4.47564 12.2455 4.47564C12.2455 4.47564 12.5645 4.87266 12.6035 4.96818ZM12.7535 4.3234C12.7535 4.3234 12.9875 4.77415 13.0075 4.87465C13.0225 4.95027 12.9975 5.01992 12.8965 5.04082C12.7955 5.06072 12.7455 5.00599 12.7305 4.92937C12.7105 4.82888 12.7535 4.3234 12.7535 4.3234ZM13.2815 4.27067C13.2815 4.27067 13.4225 4.76022 13.4225 4.86271C13.4225 4.93833 13.3845 5.00201 13.2815 5.005C13.1785 5.005 13.1395 4.93833 13.1395 4.86271C13.1395 4.76022 13.2815 4.27067 13.2815 4.27067ZM13.5545 4.87465C13.5745 4.77415 13.8085 4.3234 13.8085 4.3234C13.8085 4.3234 13.8515 4.82888 13.8315 4.92937C13.8165 5.00599 13.7665 5.05972 13.6645 5.04082C13.5635 5.02092 13.5385 4.95027 13.5545 4.87465ZM13.9585 4.96818C13.9975 4.87266 14.3165 4.47564 14.3165 4.47564C14.3165 4.47564 14.2595 4.98012 14.2195 5.07465C14.1905 5.14629 14.1295 5.19206 14.0355 5.15325C13.9395 5.11445 13.9285 5.03783 13.9585 4.96818ZM14.7855 4.7244C14.7855 4.7244 14.6285 5.20898 14.5715 5.29455C14.5285 5.35823 14.4605 5.38907 14.3745 5.33335C14.2885 5.27763 14.2935 5.20101 14.3365 5.13733C14.3935 5.05276 14.7855 4.7244 14.7855 4.7244ZM14.8735 5.57614C14.8195 5.63186 14.7465 5.64977 14.6735 5.57713C14.5995 5.50549 14.6205 5.43087 14.6745 5.37813C14.7465 5.3045 15.1935 5.05873 15.1935 5.05873C15.1935 5.05873 14.9475 5.5045 14.8735 5.57614ZM15.1155 5.91246C15.0505 5.95525 14.9755 5.95922 14.9175 5.87465C14.8605 5.78907 14.8935 5.72042 14.9575 5.67763C15.0435 5.62092 15.5305 5.46768 15.5305 5.46768C15.5305 5.46768 15.2025 5.85674 15.1155 5.91246ZM15.2875 6.28957C15.2145 6.31743 15.1405 6.30649 15.0995 6.21395C15.0605 6.11843 15.1065 6.05773 15.1775 6.02788C15.2725 5.98907 15.7805 5.93236 15.7805 5.93236C15.7805 5.93236 15.3815 6.24977 15.2875 6.28957ZM15.3795 6.69057C15.3035 6.70649 15.2335 6.68062 15.2115 6.58111C15.1915 6.48062 15.2485 6.42888 15.3245 6.41495C15.4255 6.39504 15.9335 6.43783 15.9335 6.43783C15.9335 6.43783 15.4805 6.67067 15.3795 6.69057ZM15.3925 7.1045C15.3155 7.1045 15.2505 7.0647 15.2495 6.96221C15.2495 6.85972 15.3155 6.82092 15.3925 6.82092C15.4955 6.82092 15.9855 6.96221 15.9855 6.96221C15.9855 6.96221 15.4955 7.1045 15.3925 7.1045ZM13.2815 8.92141C13.3845 8.92141 13.4225 8.98708 13.4225 9.06271C13.4225 9.16619 13.2815 9.65375 13.2815 9.65375C13.2815 9.65375 13.1395 9.16619 13.1395 9.06271C13.1395 8.98708 13.1785 8.9234 13.2815 8.92141ZM13.8085 9.60201C13.8085 9.60201 13.5745 9.15027 13.5545 9.05077C13.5385 8.97415 13.5645 8.90549 13.6645 8.8846C13.7665 8.8647 13.8165 8.91942 13.8315 8.99504C13.8515 9.09554 13.8085 9.60201 13.8085 9.60201ZM14.6745 8.54828C14.6205 8.49355 14.6005 8.42092 14.6735 8.34828C14.7455 8.27465 14.8195 8.29355 14.8735 8.34927C14.9475 8.42092 15.1935 8.86669 15.1935 8.86669C15.1935 8.86669 14.7465 8.61893 14.6745 8.54828ZM14.3165 9.44778C14.3165 9.44778 13.9975 9.05276 13.9585 8.95723C13.9285 8.88758 13.9395 8.81196 14.0355 8.77116C14.1295 8.73236 14.1905 8.77912 14.2195 8.84878C14.2595 8.94529 14.3165 9.44778 14.3165 9.44778ZM14.3745 8.59106C14.4605 8.53435 14.5285 8.56718 14.5715 8.63186C14.6285 8.71644 14.7855 9.20002 14.7855 9.20002C14.7855 9.20002 14.3935 8.87166 14.3365 8.78708C14.2935 8.7234 14.2895 8.64878 14.3745 8.59106ZM15.1155 8.01295C15.2025 8.06868 15.5305 8.45674 15.5305 8.45674C15.5305 8.45674 15.0435 8.3045 14.9575 8.24579C14.8935 8.204 14.8615 8.13733 14.9175 8.05077C14.9745 7.96519 15.0505 7.97017 15.1155 8.01295ZM15.2115 7.3443C15.2315 7.2448 15.3035 7.21893 15.3795 7.23385C15.4805 7.25375 15.9335 7.48758 15.9335 7.48758C15.9335 7.48758 15.4255 7.53037 15.3245 7.51047C15.2485 7.49654 15.1925 7.4448 15.2115 7.3443ZM15.2875 7.63684C15.3815 7.67465 15.7805 7.99305 15.7805 7.99305C15.7805 7.99305 15.2725 7.93534 15.1775 7.89654C15.1065 7.86768 15.0615 7.80798 15.0995 7.71146C15.1395 7.61793 15.2145 7.60599 15.2875 7.63684ZM12.3425 8.84878C12.3715 8.77912 12.4325 8.73335 12.5275 8.77116C12.6225 8.81096 12.6335 8.88758 12.6035 8.95723C12.5645 9.05276 12.2455 9.44778 12.2455 9.44778C12.2455 9.44778 12.3025 8.94529 12.3425 8.84878ZM11.9905 8.63186C12.0345 8.56718 12.1005 8.53634 12.1875 8.59106C12.2725 8.64778 12.2685 8.7234 12.2255 8.78708C12.1685 8.87166 11.7785 9.20002 11.7785 9.20002C11.7785 9.20002 11.9335 8.71644 11.9905 8.63186ZM11.6875 8.34927C11.7425 8.29355 11.8155 8.27564 11.8895 8.34828C11.9615 8.41992 11.9425 8.49355 11.8885 8.54828C11.8155 8.61893 11.3685 8.86669 11.3685 8.86669C11.3685 8.86669 11.6155 8.42092 11.6875 8.34927ZM11.4465 8.01295C11.5115 7.97017 11.5855 7.96619 11.6445 8.05077C11.7015 8.13634 11.6685 8.204 11.6045 8.24579C11.5185 8.3045 11.0325 8.45674 11.0325 8.45674C11.0325 8.45674 11.3615 8.06868 11.4465 8.01295ZM10.6285 7.48758C10.6285 7.48758 11.0815 7.25375 11.1825 7.23385C11.2585 7.21893 11.3285 7.2448 11.3505 7.3443C11.3705 7.4448 11.3135 7.49654 11.2385 7.51047C11.1365 7.53037 10.6285 7.48758 10.6285 7.48758ZM11.2765 7.63684C11.3475 7.60599 11.4215 7.61793 11.4625 7.71146C11.5015 7.80698 11.4555 7.86768 11.3845 7.89654C11.2895 7.93534 10.7825 7.99305 10.7825 7.99305C10.7825 7.99305 11.1815 7.67465 11.2765 7.63684ZM13.0075 9.05077C12.9875 9.15027 12.7535 9.60201 12.7535 9.60201C12.7535 9.60201 12.7105 9.09554 12.7305 8.99504C12.7455 8.91942 12.7955 8.86569 12.8965 8.8846C12.9975 8.9045 13.0225 8.97415 13.0075 9.05077ZM11.5455 6.9642C11.5455 6.01196 12.3215 5.23982 13.2785 5.23982C14.2355 5.23982 15.0125 6.01196 15.0125 6.9642C15.0125 7.91644 14.2355 8.68858 13.2785 8.68858C12.3215 8.68858 11.5455 7.91644 11.5455 6.9642ZM16.5055 7.56519C16.5275 7.71743 16.4795 8.21196 16.5025 8.18211C16.5245 8.15126 16.6325 7.91146 16.7315 7.69156C16.8295 7.47465 16.9195 7.27664 16.9635 7.33435C17.0555 7.45574 16.4795 8.63982 16.5044 8.66868C16.5954 8.77514 17.2404 7.5443 17.2815 7.6239C17.4375 7.92639 16.5805 8.89057 16.5865 8.93136C16.6045 9.06171 17.1505 8.41295 17.2355 8.51445C17.3615 8.66072 16.5954 9.26271 16.5805 9.31942C16.5394 9.48062 17.0175 9.05972 17.0345 9.18609C17.0475 9.29057 16.8085 9.46868 16.6605 9.57315C16.5635 9.63982 16.4675 9.66669 16.4545 9.68957C16.4235 9.75027 16.6625 9.66171 16.6565 9.73435C16.6474 9.85674 16.3615 9.87166 16.3095 9.93534C16.2575 10.001 16.4734 9.9632 16.4615 10.0149C16.4415 10.1095 16.0835 10.1085 16.0795 10.1483C16.0745 10.1901 16.2514 10.1672 16.2395 10.2438C16.2295 10.3085 15.9305 10.2866 15.8605 10.3334C15.7905 10.3801 16.2215 10.3861 15.8785 10.4955C15.5785 10.5891 15.4675 10.6139 15.2745 10.6458C14.8315 10.7224 14.6205 10.7254 14.6065 10.7005C14.5925 10.6727 14.9265 10.6309 14.9865 10.6169C15.0785 10.5921 15.2365 10.5632 15.2715 10.5423C15.3645 10.4826 15.4445 10.4378 15.5535 10.4189C15.6325 10.404 15.5155 10.3304 15.5305 10.2945C15.5565 10.2299 15.6055 10.3085 15.6675 10.2299C15.7075 10.1801 15.6665 10.1493 15.6695 10.1184C15.6725 10.0886 15.8505 10.0816 15.8955 10.0319C15.9215 10.004 15.8695 10.001 15.8635 9.9642C15.8595 9.93634 16.0765 9.85773 16.0855 9.82092C16.0965 9.78609 15.9925 9.77813 16.0415 9.74728C16.1224 9.69554 16.3315 9.61395 16.3735 9.53435C16.4155 9.45475 16.2095 9.55723 16.2665 9.48062C16.3035 9.42888 16.4355 9.35425 16.4745 9.23186C16.4895 9.18509 16.3245 9.25972 16.3215 9.20798C16.3175 9.12639 16.4144 9.01296 16.4235 8.89654C16.4305 8.81992 16.3075 8.91047 16.3075 8.91047L16.2765 8.85176C16.2765 8.85176 16.1425 8.87266 15.9135 9.13733C15.6855 9.40002 15.6155 9.65773 15.3995 9.83783C15.1285 9.9433 14.8555 9.97614 14.4825 10.3881C14.4485 10.4189 14.2865 10.3861 13.8145 10.4826C13.5625 10.5353 13.4225 10.5881 13.4225 10.5881C13.4225 10.5881 12.8855 10.8309 12.7035 10.9662C12.6895 10.9771 12.7035 11.001 12.7395 10.997C12.7755 10.9931 12.8465 10.9523 12.8465 10.9523H12.9645C12.9645 10.9523 12.8155 11.1125 12.8135 11.1284C12.8105 11.1682 12.8495 11.1692 12.8495 11.1692C13.0855 11.1841 13.4175 11.1682 13.6715 11.1851C13.7325 11.1831 13.8295 11.1622 13.8435 11.201C13.7975 11.2498 13.6895 11.2756 13.6255 11.2766C13.2665 11.2876 12.4285 11.2896 12.4285 11.2896C12.4285 11.2896 12.3805 11.3284 12.3395 11.3304C12.2975 11.3324 12.2975 11.2806 12.2625 11.2965C12.2265 11.3135 12.2285 11.412 12.1975 11.397C12.1645 11.3841 12.1305 11.2727 12.1555 11.2348C12.2045 11.1562 12.3125 11.0289 12.4635 10.9453C12.6145 10.8607 12.7885 10.8309 12.9025 10.7662C13.2395 10.5771 13.3375 10.4319 13.6465 10.3881C14.8345 10.2189 16.3274 9.07266 16.4265 7.52937C16.4265 7.52937 16.4965 7.50251 16.5055 7.56519ZM15.1225 11.2587C15.1225 11.2587 15.1445 11.3881 15.0615 11.4279C14.9435 11.4846 14.7665 11.4149 14.7665 11.4149C14.7665 11.4149 14.7225 11.5055 14.6565 11.5284C14.5895 11.5493 14.5165 11.4896 14.5165 11.4896C14.5165 11.4896 14.4375 11.5741 14.3545 11.597C14.2715 11.6219 14.1845 11.5831 14.1845 11.5831C14.1845 11.5831 14.0995 11.6657 14.0275 11.6746C13.9565 11.6836 13.9015 11.6199 13.9015 11.6199C13.9015 11.6199 13.7815 11.7174 13.7045 11.7144C13.6285 11.7105 13.6085 11.6229 13.6085 11.6229C13.6085 11.6229 13.5425 11.6707 13.4655 11.6806C13.3885 11.6906 13.2875 11.6448 13.2875 11.6448C13.2875 11.6448 13.1655 11.6896 13.0995 11.6836C13.0325 11.6786 13.0205 11.6239 13.0205 11.6239C13.0205 11.6239 12.9265 11.6906 12.8545 11.6876C12.7825 11.6866 12.7245 11.6577 12.7425 11.601C12.7585 11.5463 12.8115 11.5314 12.8895 11.4627C12.9685 11.394 13.0555 11.3284 13.0555 11.3284C13.4725 11.3751 13.8205 11.3234 14.0975 11.1712L14.2715 11.1801C14.2875 11.1533 14.2655 11.1224 14.3075 11.1115C14.3605 11.0965 14.4095 11.0289 14.4025 10.9632C14.4025 10.9632 14.3945 10.9135 14.4595 10.9244C14.8055 10.9901 15.5865 10.9781 15.5885 11.011C15.6105 11.3304 15.1225 11.2587 15.1225 11.2587ZM-0.000549316 15.999H23.9995V-0.000974655H-0.000549316V15.999Z" fill="#28B4C7"/>
</g>
<mask id="mask10_986_17643" style="mask-type:luminance" maskUnits="userSpaceOnUse" x="0" y="0" width="24" height="16">
<path d="M0 16H24V1.90735e-06H0V16Z" fill="white"/>
</mask>
<g mask="url(#mask10_986_17643)">
<path d="M1.6533 3.33727C1.6603 3.33429 1.6693 3.3323 1.6763 3.33031C1.5623 3.30444 1.4673 3.25966 1.4153 3.17111C1.3633 3.25966 1.2683 3.30444 1.1543 3.33031C1.1623 3.3323 1.1703 3.33429 1.1773 3.33727C1.3023 3.3522 1.3893 3.44673 1.4153 3.49548C1.4413 3.44673 1.5283 3.3522 1.6533 3.33727Z" fill="#28B4C7"/>
</g>
<mask id="mask11_986_17643" style="mask-type:luminance" maskUnits="userSpaceOnUse" x="0" y="0" width="24" height="16">
<path d="M0 16H24V1.90735e-06H0V16Z" fill="white"/>
</mask>
<g mask="url(#mask11_986_17643)">
<path d="M1.5503 4.47071C1.5503 4.54434 1.5073 4.58315 1.4663 4.60006C1.6343 4.58315 1.7083 4.64981 1.7433 4.7722C1.6493 4.74036 1.5013 4.73738 1.5053 4.84384C1.5053 4.84384 1.5123 5.12742 1.5143 5.19807C1.5523 5.14534 1.6183 5.13041 1.7023 5.13041C1.8163 5.13041 1.8033 5.05379 1.7843 4.98713C1.8453 5.00902 1.9063 5.04683 1.8833 5.13738C1.9353 5.13837 1.9683 5.16424 1.9953 5.19807C1.9613 5.23787 1.9243 5.25578 1.8833 5.26175C1.8953 5.32046 1.8543 5.37618 1.7843 5.40703C1.8073 5.34733 1.8143 5.2528 1.7023 5.2528C1.6553 5.2528 1.6223 5.28862 1.6223 5.34733C1.6223 5.44185 1.7233 5.51648 1.8223 5.51648C1.9053 5.51648 2.0513 5.46076 2.0513 5.30255C2.0513 5.23986 2.0363 5.18116 2.0103 5.12742C1.8883 4.86872 1.4983 4.04782 1.4153 3.87469C1.3333 4.04782 0.942297 4.86872 0.821297 5.12742C0.795297 5.18116 0.779297 5.23986 0.779297 5.30255C0.779297 5.46076 0.925297 5.51648 1.0083 5.51648C1.1073 5.51648 1.2083 5.44185 1.2083 5.34733C1.2083 5.28862 1.1753 5.2528 1.1293 5.2528C1.0163 5.2528 1.0233 5.34733 1.0463 5.40703C0.976297 5.37618 0.935297 5.32046 0.946297 5.26175C0.907297 5.25578 0.869297 5.23787 0.835297 5.19807C0.862297 5.16424 0.895297 5.13837 0.946297 5.13738C0.924297 5.04683 0.986297 5.00902 1.0463 4.98713C1.0273 5.05379 1.0143 5.13041 1.1293 5.13041C1.2123 5.13041 1.2783 5.14534 1.3163 5.19807C1.3183 5.12742 1.3253 4.84384 1.3253 4.84384C1.3303 4.73738 1.1813 4.74036 1.0873 4.7722C1.1233 4.64981 1.1963 4.58315 1.3643 4.60006C1.3233 4.58315 1.2803 4.54434 1.2803 4.47071C1.2803 4.37021 1.3623 4.25976 1.4153 4.22693C1.4683 4.25976 1.5503 4.37021 1.5503 4.47071Z" fill="#28B4C7"/>
</g>
<mask id="mask12_986_17643" style="mask-type:luminance" maskUnits="userSpaceOnUse" x="0" y="0" width="24" height="16">
<path d="M0 16H24V1.90735e-06H0V16Z" fill="white"/>
</mask>
<g mask="url(#mask12_986_17643)">
<path d="M1.77689 10.3331C1.63289 10.349 1.47589 10.4366 1.41589 10.5968C1.43089 10.6376 1.44289 10.6833 1.44289 10.7331L1.41589 11.7729C1.46889 11.74 1.54989 11.6296 1.54989 11.5291C1.54989 11.4555 1.50689 11.4177 1.46589 11.3997C1.63489 11.4177 1.70789 11.35 1.74389 11.2276C1.64989 11.2604 1.50089 11.2634 1.50589 11.156C1.50589 11.156 1.51189 10.8724 1.51489 10.8017C1.55289 10.8545 1.61889 10.8694 1.70189 10.8694C1.81689 10.8694 1.80389 10.946 1.78489 11.0137C1.84489 10.9918 1.90689 10.953 1.88389 10.8624C1.93489 10.8614 1.96789 10.8356 1.99589 10.8017C1.96089 10.7629 1.92389 10.744 1.88389 10.7381C1.89589 10.6803 1.85489 10.6236 1.78489 10.5938C1.80689 10.6525 1.81389 10.748 1.70189 10.748C1.65489 10.748 1.62289 10.7122 1.62289 10.6525C1.62289 10.5599 1.72389 10.4833 1.82289 10.4833C1.90589 10.4833 2.05189 10.539 2.05189 10.6973C2.05189 10.7609 2.03589 10.8177 2.00989 10.8724C1.88889 11.1321 1.49789 11.952 1.41589 12.1251C1.49089 12.2813 1.44089 12.4575 1.41589 12.5062C1.44089 12.553 1.52789 12.6485 1.65289 12.6634C1.66089 12.6664 1.66889 12.6684 1.67689 12.6714C1.69789 12.6664 1.71989 12.6614 1.74289 12.6565C1.87989 12.6346 2.10389 12.6674 2.10389 12.6674C2.08189 12.6276 2.04389 12.5978 1.98389 12.5818C2.07389 12.5152 2.11989 12.4206 2.11989 12.3321C2.11989 12.1162 2.03389 12.0644 2.03389 11.756C2.03389 11.6594 2.07089 11.5639 2.14789 11.4754C1.93889 11.5172 1.85689 11.6973 1.92389 11.8266C1.88089 11.8455 1.85089 11.8167 1.81789 11.8027C1.81589 11.8744 1.84489 11.9052 1.86589 11.942C1.86589 11.942 1.82989 11.94 1.79789 11.9281C1.80189 11.9729 1.82389 12.0147 1.86589 12.0346C1.68789 12.0077 1.59189 12.1221 1.59189 12.2585C1.59189 12.3948 1.71489 12.4306 1.79489 12.4077C1.79789 12.4266 1.79789 12.4475 1.78789 12.4694C1.83889 12.4585 1.86189 12.4296 1.84389 12.3729C1.87389 12.3669 1.89789 12.352 1.91789 12.3341C1.89789 12.3102 1.87189 12.2963 1.84389 12.2903C1.86189 12.2425 1.83089 12.2057 1.79389 12.1968C1.79389 12.1968 1.81489 12.2983 1.73989 12.2983C1.70989 12.2983 1.68989 12.2784 1.68989 12.2356C1.68989 12.1759 1.72489 12.139 1.81189 12.139C1.88289 12.139 1.95289 12.1988 1.95289 12.3321C1.95289 12.4395 1.84289 12.5371 1.74189 12.5331C1.63089 12.5301 1.52589 12.4425 1.52589 12.3351C1.52589 12.2644 1.53189 12.2177 1.55189 12.1759C1.71589 11.8395 2.13689 10.9709 2.13689 10.9709C2.18989 10.8624 2.21089 10.7918 2.21089 10.6803C2.21089 10.4943 2.08989 10.353 1.86689 10.3331C1.85189 10.3341 1.83689 10.3381 1.81889 10.3381C1.80589 10.3381 1.79089 10.3341 1.77689 10.3331Z" fill="#FFCA1D"/>
</g>
<mask id="mask13_986_17643" style="mask-type:luminance" maskUnits="userSpaceOnUse" x="0" y="0" width="24" height="16">
<path d="M0 16H24V1.90735e-06H0V16Z" fill="white"/>
</mask>
<g mask="url(#mask13_986_17643)">
<path d="M0.620605 10.6789C0.620605 10.7913 0.641605 10.863 0.693605 10.9694C0.693605 10.9694 1.11461 11.8391 1.27861 12.1754C1.29861 12.2172 1.30561 12.2649 1.30561 12.3346C1.30561 12.4421 1.19961 12.5306 1.08961 12.5336C0.988605 12.5356 0.878605 12.4411 0.878605 12.3306C0.878605 12.1983 0.947605 12.1396 1.01861 12.1396C1.10661 12.1396 1.14161 12.1754 1.14161 12.2351C1.14161 12.2779 1.12061 12.2968 1.09061 12.2968C1.01661 12.2968 1.03761 12.1963 1.03761 12.1963C0.999605 12.2043 0.969605 12.2421 0.986605 12.2898C0.958605 12.2958 0.933605 12.3107 0.913605 12.3326C0.933605 12.3525 0.956605 12.3664 0.986605 12.3724C0.969605 12.4301 0.992605 12.458 1.04361 12.4709C1.03361 12.447 1.03261 12.4281 1.03661 12.4082C1.11661 12.4311 1.23861 12.3953 1.23861 12.258C1.23861 12.1207 1.14361 12.0062 0.964605 12.0351C1.00761 12.0152 1.02861 11.9744 1.03361 11.9276C1.00061 11.9406 0.964605 11.9426 0.964605 11.9426C0.985605 11.9047 1.01461 11.8729 1.01361 11.8023C0.980605 11.8182 0.949605 11.845 0.907605 11.8271C0.973605 11.6968 0.891605 11.5187 0.683605 11.4759C0.759605 11.5654 0.797605 11.66 0.797605 11.7555C0.797605 12.0649 0.710605 12.1157 0.710605 12.3306C0.710605 12.4192 0.756605 12.5157 0.846605 12.5814C0.787605 12.5983 0.748605 12.6271 0.726605 12.6669C0.726605 12.6669 0.950605 12.6341 1.08761 12.656C1.11061 12.66 1.13261 12.6649 1.15461 12.6699C1.16261 12.6679 1.17061 12.6659 1.17761 12.663C1.30261 12.648 1.38961 12.5535 1.41561 12.5057C1.44061 12.456 1.49161 12.2819 1.41561 12.1246C1.33261 11.9525 0.942605 11.1306 0.820605 10.8729C0.794605 10.8192 0.779605 10.7595 0.779605 10.6978C0.779605 10.5386 0.925605 10.4848 1.00861 10.4848C1.10761 10.4848 1.20761 10.5595 1.20761 10.653C1.20761 10.7117 1.17561 10.7475 1.12861 10.7475C1.01661 10.7475 1.02361 10.654 1.04561 10.5933C0.975605 10.6242 0.935605 10.6789 0.946605 10.7396C0.907605 10.7436 0.869605 10.7615 0.834605 10.8013C0.862605 10.8351 0.895605 10.862 0.946605 10.863C0.924605 10.9525 0.985605 10.9913 1.04561 11.0132C1.02661 10.9465 1.01461 10.8689 1.12861 10.8689C1.21261 10.8689 1.27761 10.856 1.31661 10.8013C1.31861 10.8729 1.32561 11.1555 1.32561 11.1555C1.32961 11.263 1.18161 11.259 1.08761 11.2291C1.12261 11.3515 1.19561 11.4172 1.36461 11.4013C1.32361 11.4172 1.28061 11.455 1.28061 11.5286C1.28061 11.6291 1.36161 11.7396 1.41561 11.7734L1.44261 10.7336C1.44261 10.6829 1.43161 10.6371 1.41561 10.5953C1.35561 10.4371 1.19761 10.3475 1.05361 10.3326C1.03961 10.3346 1.02561 10.3366 1.01161 10.3366C0.994605 10.3366 0.979605 10.3346 0.963605 10.3326C0.740605 10.3525 0.620605 10.4938 0.620605 10.6789Z" fill="#FFCA1D"/>
</g>
<mask id="mask14_986_17643" style="mask-type:luminance" maskUnits="userSpaceOnUse" x="0" y="0" width="24" height="16">
<path d="M0 16H24V1.90735e-06H0V16Z" fill="white"/>
</mask>
<g mask="url(#mask14_986_17643)">
<path d="M1.74271 12.6563L1.67671 12.6712C1.56271 12.6961 1.46771 12.7389 1.41571 12.8294C1.44271 12.8752 1.45871 12.9309 1.45871 13.0065C1.45871 13.0444 1.44071 13.0981 1.41571 13.1618C1.49171 13.3478 1.63871 13.6046 1.58571 13.6692C1.54271 13.721 1.41571 13.6165 1.41571 13.6165L1.48771 13.706C1.48771 13.706 1.45971 13.7379 1.41571 13.7687C1.45571 13.7976 1.51071 13.8264 1.56971 13.8264C1.66371 13.8264 1.76071 13.7657 1.76071 13.6603C1.76071 13.517 1.52871 13.1538 1.52871 12.9946C1.52871 12.8752 1.61671 12.8115 1.73371 12.8155C1.86371 12.8195 1.96171 12.8802 1.96171 13.0016C1.96171 13.1329 1.89471 13.1847 1.81171 13.1886C1.72871 13.1926 1.69371 13.1359 1.69371 13.0951C1.69371 13.0493 1.72171 13.0384 1.75471 13.0384C1.82571 13.0384 1.79771 13.1488 1.79771 13.1488C1.84171 13.125 1.87171 13.0931 1.84471 13.0384C1.87971 13.0394 1.91071 13.0245 1.93071 12.9996C1.91071 12.9747 1.88171 12.9638 1.84471 12.9598C1.86671 12.9001 1.83571 12.8722 1.78771 12.8583C1.80071 12.8851 1.80671 12.921 1.79371 12.9468C1.77671 12.9329 1.74471 12.9259 1.72371 12.9259C1.65871 12.9259 1.59071 12.9936 1.59071 13.0891C1.59071 13.2155 1.69871 13.3359 1.87271 13.2911C1.81271 13.3319 1.78771 13.3747 1.78471 13.4155C1.82271 13.4075 1.84071 13.3986 1.86471 13.4125C1.83471 13.4523 1.81171 13.4981 1.82571 13.5369C1.85071 13.514 1.87871 13.506 1.90971 13.511C1.85471 13.6543 1.95071 13.8324 2.14471 13.8513C2.14471 13.8513 2.03471 13.6822 2.03471 13.5488C2.03471 13.31 2.12271 13.2225 2.12271 13.0105C2.12271 12.8742 2.04171 12.7856 1.96371 12.7449C2.03471 12.7389 2.06171 12.723 2.10371 12.6672C2.10371 12.6672 1.87971 12.6344 1.74271 12.6563Z" fill="#FFCA1D"/>
</g>
<mask id="mask15_986_17643" style="mask-type:luminance" maskUnits="userSpaceOnUse" x="0" y="0" width="24" height="16">
<path d="M0 16H24V1.90735e-06H0V16Z" fill="white"/>
</mask>
<g mask="url(#mask15_986_17643)">
<path d="M1.48728 13.7049L1.41528 13.6154C1.41528 13.6154 1.28828 13.7228 1.24428 13.6691C1.19328 13.6044 1.33928 13.3497 1.41528 13.1606C1.44128 13.099 1.45928 13.0432 1.45928 13.0064C1.45928 12.9318 1.44228 12.8751 1.41528 12.8293C1.36328 12.7398 1.26828 12.696 1.15428 12.6701C1.13328 12.6651 1.11128 12.6602 1.08828 12.6562C0.950279 12.6343 0.727279 12.6671 0.727279 12.6671C0.769279 12.7238 0.796279 12.7398 0.867279 12.7437C0.788279 12.7845 0.708279 12.8731 0.708279 13.0114C0.708279 13.2243 0.796279 13.3109 0.796279 13.5507C0.796279 13.683 0.686279 13.8512 0.686279 13.8512C0.880279 13.8313 0.976279 13.6542 0.922279 13.5119C0.952279 13.5079 0.980279 13.5149 1.00428 13.5368C1.01828 13.497 0.996279 13.4512 0.966279 13.4124C0.990279 13.3985 1.00828 13.4064 1.04628 13.4144C1.04328 13.3736 1.01828 13.3308 0.958279 13.29C1.13328 13.3358 1.23928 13.2154 1.23928 13.089C1.23928 12.9925 1.17228 12.9258 1.10728 12.9258C1.08528 12.9258 1.05428 12.9348 1.03628 12.9467C1.02428 12.9208 1.03028 12.886 1.04328 12.8582C0.995279 12.8711 0.965279 12.9 0.986279 12.9587C0.949279 12.9636 0.920279 12.9756 0.900279 12.9985C0.920279 13.0243 0.951279 13.0393 0.986279 13.0383C0.959279 13.094 0.989279 13.1248 1.03328 13.1487C1.03328 13.1487 1.00528 13.0383 1.07628 13.0383C1.10928 13.0383 1.13728 13.0492 1.13728 13.096C1.13728 13.1368 1.10228 13.1925 1.01928 13.1885C0.936279 13.1865 0.868279 13.1328 0.868279 13.0005C0.868279 12.8801 0.967279 12.8194 1.09728 12.8154C1.21428 12.8124 1.30228 12.8751 1.30228 12.9945C1.30228 13.1537 1.07028 13.5179 1.07028 13.6592C1.07028 13.7666 1.16728 13.8253 1.26128 13.8253C1.32028 13.8253 1.37428 13.7985 1.41528 13.7686C1.45928 13.7378 1.48728 13.7049 1.48728 13.7049Z" fill="#FFCA1D"/>
</g>
<mask id="mask16_986_17643" style="mask-type:luminance" maskUnits="userSpaceOnUse" x="0" y="0" width="24" height="16">
<path d="M0 16H24V1.90735e-06H0V16Z" fill="white"/>
</mask>
<g mask="url(#mask16_986_17643)">
<path d="M1.77689 5.66691C1.63289 5.68184 1.47589 5.7694 1.41589 5.9286C1.43089 5.97039 1.44289 6.01517 1.44289 6.06592L1.41589 7.10572C1.46889 7.07388 1.54989 6.96243 1.54989 6.86293C1.54989 6.7893 1.50689 6.75049 1.46589 6.73358C1.63489 6.75049 1.70789 6.68383 1.74389 6.56144C1.64989 6.59328 1.50089 6.59626 1.50589 6.4898C1.50589 6.4898 1.51189 6.20621 1.51489 6.13457C1.55289 6.1883 1.61889 6.20323 1.70189 6.20323C1.81689 6.20323 1.80389 6.27985 1.78489 6.34651C1.84489 6.32462 1.90689 6.28681 1.88389 6.19527C1.93489 6.19427 1.96789 6.1684 1.99589 6.13457C1.96089 6.09577 1.92389 6.07786 1.88389 6.07189C1.89589 6.01318 1.85489 5.95746 1.78489 5.92661C1.80689 5.98631 1.81389 6.08084 1.70189 6.08084C1.65489 6.08084 1.62289 6.04502 1.62289 5.98532C1.62289 5.89179 1.72389 5.81716 1.82289 5.81716C1.90589 5.81716 2.05189 5.87288 2.05189 6.03109C2.05189 6.09378 2.03589 6.15149 2.00989 6.20621C1.88889 6.46492 1.49789 7.28582 1.41589 7.45796C1.49089 7.61517 1.44089 7.79029 1.41589 7.83905C1.44089 7.88681 1.52789 7.98233 1.65289 7.99626C1.65689 7.99726 1.66189 7.99925 1.66689 8.00024C1.77689 7.96243 1.96989 7.96243 2.10389 8.00024C2.08189 7.96044 2.04389 7.93059 1.98389 7.91467C2.07389 7.849 2.11989 7.75348 2.11989 7.66393C2.11989 7.45 2.03389 7.39726 2.03389 7.0888C2.03389 6.99328 2.07089 6.89776 2.14789 6.8092C1.93889 6.85099 1.85689 7.03009 1.92389 7.16044C1.88089 7.17835 1.85089 7.15049 1.81789 7.13557C1.81589 7.20721 1.84489 7.23905 1.86589 7.27487C1.86589 7.27487 1.82989 7.27288 1.79789 7.26094C1.80189 7.30671 1.82389 7.3485 1.86589 7.3684C1.68789 7.33955 1.59189 7.45398 1.59189 7.59129C1.59189 7.72761 1.71489 7.76343 1.79489 7.74154C1.79789 7.76044 1.79789 7.78134 1.78789 7.80323C1.83889 7.79129 1.86189 7.76343 1.84389 7.70572C1.87389 7.70074 1.89789 7.68582 1.91789 7.66592C1.89789 7.64303 1.87189 7.6291 1.84389 7.62313C1.86189 7.57537 1.83089 7.53756 1.79389 7.5296C1.79389 7.5296 1.81489 7.63009 1.73989 7.63009C1.70989 7.63009 1.68989 7.61218 1.68989 7.5694C1.68989 7.5087 1.72489 7.47189 1.81189 7.47189C1.88289 7.47189 1.95289 7.53159 1.95289 7.66393C1.95289 7.77338 1.84289 7.8689 1.74189 7.86691C1.63089 7.86393 1.52589 7.77636 1.52589 7.66791C1.52589 7.59825 1.53189 7.55049 1.55189 7.5087C1.71589 7.17238 2.13689 6.30373 2.13689 6.30373C2.18989 6.19527 2.21089 6.12462 2.21089 6.01318C2.21089 5.8281 2.08989 5.68582 1.86789 5.66691C1.85189 5.66791 1.83689 5.6699 1.81889 5.6699C1.80589 5.6699 1.79089 5.66791 1.77689 5.66691Z" fill="#FFCA1D"/>
</g>
<mask id="mask17_986_17643" style="mask-type:luminance" maskUnits="userSpaceOnUse" x="0" y="0" width="24" height="16">
<path d="M0 16H24V1.90735e-06H0V16Z" fill="white"/>
</mask>
<g mask="url(#mask17_986_17643)">
<path d="M1.16461 8C1.16861 7.999 1.17361 7.99801 1.17761 7.99602C1.30261 7.98209 1.38961 7.88657 1.41561 7.83881C1.44061 7.79005 1.49161 7.61592 1.41561 7.45871C1.33261 7.28557 0.942605 6.46468 0.820605 6.20597C0.794605 6.15224 0.779606 6.09353 0.779606 6.03085C0.779606 5.87264 0.925605 5.81692 1.00861 5.81692C1.10761 5.81692 1.20761 5.89154 1.20761 5.98607C1.20761 6.04577 1.17561 6.0806 1.12861 6.0806C1.01661 6.0806 1.02361 5.98607 1.04561 5.92637C0.976605 5.95821 0.935605 6.01294 0.946606 6.07264C0.907605 6.07761 0.869605 6.09552 0.834605 6.13433C0.862605 6.16915 0.895606 6.19503 0.946606 6.19602C0.924605 6.28657 0.985605 6.32438 1.04561 6.34627C1.02661 6.2796 1.01461 6.20299 1.12861 6.20299C1.21261 6.20299 1.27761 6.18905 1.31661 6.13433C1.31861 6.20597 1.32561 6.48955 1.32561 6.48955C1.33061 6.59602 1.18161 6.59303 1.08761 6.56119C1.12261 6.68458 1.19561 6.75025 1.36461 6.73433C1.32361 6.75124 1.28061 6.78905 1.28061 6.86269C1.28061 6.96318 1.36161 7.07363 1.41561 7.10647L1.44261 6.06667C1.44261 6.01493 1.43161 5.97015 1.41561 5.92836C1.35561 5.76915 1.19761 5.68159 1.05361 5.66667C1.03961 5.66866 1.02561 5.67065 1.01161 5.67065C0.994606 5.67065 0.979605 5.66766 0.963605 5.66667C0.740605 5.68557 0.620605 5.82786 0.620605 6.01294C0.620605 6.12537 0.641606 6.19602 0.693606 6.30348C0.693606 6.30348 1.11461 7.17214 1.27861 7.50846C1.29861 7.55025 1.30561 7.59801 1.30561 7.66866C1.30561 7.77612 1.19961 7.86468 1.08961 7.86667C0.988605 7.86965 0.878605 7.77313 0.878605 7.66468C0.878605 7.53134 0.947605 7.47264 1.01861 7.47264C1.10661 7.47264 1.14161 7.50846 1.14161 7.56915C1.14161 7.61194 1.12161 7.62985 1.09061 7.62985C1.01661 7.62985 1.03761 7.52935 1.03761 7.52935C0.999606 7.53831 0.969606 7.57612 0.986605 7.62289C0.958605 7.62886 0.933606 7.64378 0.913606 7.66667C0.933606 7.68557 0.956605 7.7005 0.986605 7.70547C0.969606 7.76318 0.992606 7.79204 1.04361 7.80398C1.03361 7.78109 1.03261 7.76119 1.03661 7.74129C1.11661 7.76418 1.23861 7.72836 1.23861 7.59104C1.23861 7.45473 1.14361 7.3393 0.964606 7.36816C1.00761 7.34826 1.02861 7.30746 1.03361 7.2607C1.00061 7.27363 0.964606 7.27463 0.964606 7.27463C0.985606 7.23881 1.01461 7.20697 1.01361 7.13532C0.980606 7.15025 0.949605 7.17811 0.907605 7.1602C0.973606 7.02985 0.892605 6.85174 0.683605 6.80896C0.759605 6.89751 0.797605 6.99303 0.797605 7.08856C0.797605 7.39801 0.710606 7.44975 0.710606 7.66468C0.710606 7.75323 0.756606 7.84876 0.846606 7.91443C0.787606 7.93134 0.748605 7.9602 0.727605 8C0.861605 7.96219 1.05361 7.96219 1.16461 8Z" fill="#FFCA1D"/>
</g>
<mask id="mask18_986_17643" style="mask-type:luminance" maskUnits="userSpaceOnUse" x="0" y="0" width="24" height="16">
<path d="M0 16H24V1.90735e-06H0V16Z" fill="white"/>
</mask>
<g mask="url(#mask18_986_17643)">
<path d="M1.05373 5.66681C1.19773 5.65189 1.35573 5.56333 1.41573 5.40413C1.39973 5.36234 1.38873 5.31756 1.38873 5.26681L1.41573 4.22701C1.36173 4.25985 1.28073 4.3703 1.28073 4.47079C1.28073 4.54443 1.32373 4.58323 1.36473 4.60015C1.19573 4.58323 1.12273 4.6499 1.08773 4.77229C1.18173 4.74045 1.32973 4.73647 1.32473 4.84393C1.32473 4.84393 1.31873 5.12751 1.31673 5.19816C1.27773 5.14542 1.21273 5.1305 1.12873 5.1305C1.01473 5.1305 1.02673 5.05388 1.04573 4.98721C0.985728 5.00811 0.924728 5.04691 0.946728 5.13746C0.895728 5.13846 0.862728 5.16433 0.834728 5.19816C0.869728 5.23696 0.907728 5.25587 0.946728 5.26184C0.935728 5.31955 0.975728 5.37627 1.04573 5.40711C1.02373 5.34741 1.01673 5.25189 1.12873 5.25189C1.17573 5.25189 1.20773 5.28871 1.20773 5.34741C1.20773 5.44094 1.10773 5.51657 1.00873 5.51657C0.925728 5.51657 0.779728 5.46084 0.779728 5.30264C0.779728 5.23995 0.794728 5.18124 0.820728 5.12751C0.942728 4.8688 1.33273 4.04791 1.41573 3.87477C1.33973 3.71856 1.38973 3.54343 1.41573 3.49468C1.38973 3.44691 1.30273 3.35139 1.17773 3.33746C1.17073 3.33448 1.16173 3.33249 1.15473 3.3295C1.13273 3.33448 1.11073 3.33945 1.08773 3.34343C0.950728 3.36632 0.726728 3.33348 0.726728 3.33348C0.748728 3.37328 0.787728 3.40214 0.846728 3.41905C0.756728 3.48473 0.710728 3.58025 0.710728 3.6688C0.710728 3.88373 0.797728 3.93547 0.797728 4.24492C0.797728 4.34045 0.759728 4.43597 0.683728 4.52453C0.891728 4.48174 0.973728 4.30264 0.907728 4.17328C0.949728 4.15537 0.980728 4.18323 1.01373 4.19816C1.01473 4.12652 0.985728 4.09468 0.964728 4.05786C0.964728 4.05786 1.00073 4.05985 1.03273 4.07179C1.02873 4.02602 1.00773 3.98522 0.964728 3.96532C1.14373 3.99318 1.23873 3.87875 1.23873 3.74244C1.23873 3.60512 1.11573 3.5693 1.03573 3.59219C1.03273 3.57229 1.03273 3.55239 1.04373 3.5305C0.992728 3.54144 0.969728 3.5703 0.986728 3.62801C0.956728 3.63298 0.933728 3.64791 0.913728 3.66681C0.933728 3.6897 0.958728 3.70463 0.986728 3.7106C0.969728 3.75736 0.999728 3.79517 1.03673 3.80313C1.03673 3.80313 1.01573 3.70264 1.09073 3.70264C1.12073 3.70264 1.14173 3.72154 1.14173 3.76333C1.14173 3.82502 1.10673 3.86084 1.01873 3.86084C0.947728 3.86084 0.878728 3.80114 0.878728 3.6688C0.878728 3.55935 0.988728 3.46383 1.08973 3.46681C1.19973 3.4688 1.30573 3.55736 1.30573 3.66482C1.30573 3.73547 1.29873 3.78323 1.27873 3.82502C1.11473 4.16134 0.693728 5.03 0.693728 5.03C0.640728 5.13746 0.620728 5.20811 0.620728 5.32055C0.620728 5.50562 0.740728 5.64791 0.963728 5.66681C0.979728 5.66781 0.994728 5.6698 1.01173 5.6698C1.02573 5.6698 1.03973 5.66781 1.05373 5.66681Z" fill="#FFCA1D"/>
</g>
<mask id="mask19_986_17643" style="mask-type:luminance" maskUnits="userSpaceOnUse" x="0" y="0" width="24" height="16">
<path d="M0 16H24V1.90735e-06H0V16Z" fill="white"/>
</mask>
<g mask="url(#mask19_986_17643)">
<path d="M1.74269 3.34355C1.72069 3.33957 1.69869 3.3346 1.67669 3.32962C1.66869 3.33261 1.66069 3.3346 1.65369 3.33758C1.52869 3.35151 1.44069 3.44704 1.41569 3.4948C1.38969 3.54355 1.33969 3.71768 1.41569 3.8749C1.49769 4.04803 1.88869 4.86893 2.01069 5.12664C2.03569 5.18136 2.05169 5.24007 2.05169 5.30276C2.05169 5.46097 1.90569 5.51669 1.82269 5.51669C1.72369 5.51669 1.62269 5.44107 1.62269 5.34753C1.62269 5.28883 1.65569 5.25201 1.70169 5.25201C1.81369 5.25201 1.80669 5.34753 1.78469 5.40724C1.85469 5.37539 1.89569 5.31967 1.88369 5.26196C1.92369 5.25599 1.96069 5.23709 1.99569 5.19828C1.96869 5.16445 1.93469 5.13858 1.88369 5.13758C1.90669 5.04704 1.84569 5.00823 1.78469 4.98733C1.80369 5.054 1.81669 5.13062 1.70169 5.13062C1.61869 5.13062 1.55269 5.14554 1.51469 5.19828C1.51269 5.12664 1.50569 4.84405 1.50569 4.84405C1.50069 4.73659 1.64969 4.74057 1.74369 4.77241C1.70769 4.64903 1.63469 4.58335 1.46569 4.60027C1.50669 4.58335 1.55069 4.54455 1.55069 4.47092C1.55069 4.37042 1.46869 4.25997 1.41569 4.22714L1.38869 5.26694C1.38869 5.31768 1.39969 5.36246 1.41569 5.40425C1.47569 5.56345 1.63369 5.65201 1.77669 5.66694C1.79069 5.66793 1.80569 5.66992 1.81969 5.66992C1.83669 5.66992 1.85169 5.66793 1.86769 5.66694C2.09069 5.64803 2.21069 5.50574 2.21069 5.32067C2.21069 5.20823 2.18969 5.13758 2.13769 5.03012C2.13769 5.03012 1.71669 4.16146 1.55269 3.82515C1.53169 3.78335 1.52569 3.73559 1.52569 3.66495C1.52569 3.55748 1.63169 3.46893 1.74169 3.46694C1.84269 3.46395 1.95269 3.55947 1.95269 3.66893C1.95269 3.80127 1.88369 3.86097 1.81169 3.86097C1.72469 3.86097 1.68969 3.82515 1.68969 3.76345C1.68969 3.72166 1.70969 3.70276 1.73969 3.70276C1.81469 3.70276 1.79369 3.80326 1.79369 3.80326C1.83069 3.7953 1.86169 3.75748 1.84469 3.71072C1.87169 3.70475 1.89769 3.68982 1.91769 3.66694C1.89769 3.64803 1.87369 3.63311 1.84469 3.62813C1.86169 3.57042 1.83869 3.54156 1.78769 3.52962C1.79769 3.55251 1.79869 3.57241 1.79469 3.59231C1.71469 3.56942 1.59169 3.60525 1.59169 3.74256C1.59169 3.87888 1.68769 3.9933 1.86569 3.96544C1.82369 3.98534 1.80169 4.02614 1.79769 4.07191C1.82969 4.05997 1.86569 4.05798 1.86569 4.05798C1.84569 4.0948 1.81569 4.12664 1.81769 4.19828C1.85069 4.18335 1.88169 4.15549 1.92369 4.17241C1.85669 4.30276 1.93869 4.48186 2.14769 4.52465C2.07169 4.43609 2.03369 4.33957 2.03369 4.24505C2.03369 3.93559 2.11969 3.88385 2.11969 3.66893C2.11969 3.58037 2.07469 3.48485 1.98369 3.41918C2.04369 3.40226 2.08169 3.3734 2.10369 3.3336C2.10369 3.3336 1.87969 3.36644 1.74269 3.34355Z" fill="#FFCA1D"/>
</g>
<mask id="mask20_986_17643" style="mask-type:luminance" maskUnits="userSpaceOnUse" x="0" y="0" width="24" height="16">
<path d="M0 16H24V1.90735e-06H0V16Z" fill="white"/>
</mask>
<g mask="url(#mask20_986_17643)">
<path d="M1.05373 10.333C1.19773 10.3181 1.35573 10.2296 1.41573 10.0704C1.39973 10.0296 1.38873 9.98378 1.38873 9.93403L1.41573 8.89423C1.36173 8.92607 1.28073 9.03752 1.28073 9.13801C1.28073 9.21065 1.32373 9.24946 1.36473 9.26737C1.19573 9.24946 1.12273 9.31712 1.08773 9.43951C1.18173 9.40667 1.32973 9.40368 1.32473 9.51115C1.32473 9.51115 1.31873 9.79373 1.31673 9.86538C1.27773 9.81264 1.21273 9.79672 1.12873 9.79672C1.01473 9.79672 1.02673 9.7211 1.04573 9.65344C0.985728 9.67533 0.924728 9.71314 0.946728 9.80468C0.895728 9.80567 0.862728 9.83155 0.834728 9.86538C0.869728 9.90418 0.907728 9.92309 0.946728 9.92906C0.935728 9.98677 0.975728 10.0425 1.04573 10.0733C1.03373 10.0415 1.02773 10.0007 1.03973 9.96985C1.03273 9.96786 1.02773 9.96488 1.02773 9.95692C1.02573 9.93602 1.04573 9.91811 1.08173 9.91015C1.11673 9.90219 1.16373 9.89025 1.16573 9.91115C1.16573 9.91712 1.16473 9.9211 1.16273 9.92707C1.19073 9.94 1.20773 9.97085 1.20773 10.0146C1.20773 10.1072 1.10773 10.1838 1.00873 10.1838C0.925728 10.1838 0.779728 10.1271 0.779728 9.96985C0.779728 9.90617 0.794728 9.84946 0.820728 9.79373C0.942728 9.53503 1.33273 8.71513 1.41573 8.54199C1.33973 8.38478 1.38973 8.20965 1.41573 8.1609C1.38973 8.11413 1.30273 8.01761 1.17773 8.00368C1.17373 8.00169 1.16873 8.0007 1.16473 7.9997C1.05373 7.96189 0.861728 7.96189 0.726728 7.9997C0.748728 8.03951 0.787728 8.07035 0.846728 8.08528C0.756728 8.15194 0.710728 8.24647 0.710728 8.33503C0.710728 8.54995 0.797728 8.60169 0.797728 8.91115C0.797728 9.00667 0.759728 9.10319 0.683728 9.19174C0.891728 9.14995 0.973728 8.96886 0.907728 8.8405C0.949728 8.82159 0.980728 8.84946 1.01373 8.86438C1.01473 8.79373 0.985728 8.7609 0.964728 8.72408C0.964728 8.72408 1.00073 8.72607 1.03273 8.73901C1.02873 8.69423 1.00773 8.65244 0.964728 8.63254C1.14373 8.6604 1.23873 8.54597 1.23873 8.40866C1.23873 8.27135 1.11573 8.23652 1.03573 8.25941C1.03273 8.23951 1.03273 8.21861 1.04373 8.19771C0.992728 8.20866 0.969728 8.23751 0.986728 8.29423C0.956728 8.3002 0.933728 8.31413 0.913728 8.33403C0.933728 8.35791 0.958728 8.37085 0.986728 8.37682C0.969728 8.42557 0.999728 8.46339 1.03673 8.46936C1.03673 8.46936 1.01573 8.36886 1.09073 8.36886C1.12073 8.36886 1.14173 8.38776 1.14173 8.43055C1.14173 8.49125 1.10673 8.52806 1.01873 8.52806C0.947728 8.52806 0.878728 8.46737 0.878728 8.33503C0.878728 8.22657 0.988728 8.13105 1.08973 8.13403C1.19973 8.13602 1.30573 8.22358 1.30573 8.33204C1.30573 8.40269 1.29873 8.44946 1.27873 8.49125C1.11473 8.82756 0.693728 9.69622 0.693728 9.69622C0.640728 9.80468 0.620728 9.87433 0.620728 9.98677C0.620728 10.1728 0.740728 10.3141 0.963728 10.333C0.979728 10.334 0.994728 10.338 1.01173 10.338C1.02573 10.338 1.03973 10.334 1.05373 10.333Z" fill="#FFCA1D"/>
</g>
<mask id="mask21_986_17643" style="mask-type:luminance" maskUnits="userSpaceOnUse" x="0" y="0" width="24" height="16">
<path d="M0 16H24V1.90735e-06H0V16Z" fill="white"/>
</mask>
<g mask="url(#mask21_986_17643)">
<path d="M1.66651 7.99997C1.66251 8.00096 1.65751 8.00196 1.65351 8.00395C1.52851 8.01887 1.44051 8.1134 1.41551 8.16216C1.38951 8.20992 1.33951 8.38504 1.41551 8.54226C1.49851 8.71439 1.88851 9.53529 2.01051 9.794C2.03651 9.84872 2.05151 9.90743 2.05151 9.96912C2.05151 10.1283 1.90551 10.1831 1.82251 10.1831C1.72351 10.1831 1.62251 10.1084 1.62251 10.0139C1.62251 9.95519 1.65551 9.91937 1.70251 9.91937C1.81351 9.91937 1.80751 10.0139 1.78451 10.0736C1.85451 10.0428 1.89551 9.98703 1.88351 9.92733C1.92351 9.92335 1.96051 9.90444 1.99551 9.86564C1.96851 9.83181 1.93551 9.80395 1.88351 9.80295C1.90651 9.7134 1.84551 9.67559 1.78451 9.6537C1.80351 9.72036 1.81651 9.79798 1.70251 9.79798C1.61851 9.79798 1.55251 9.81191 1.51451 9.86564C1.51251 9.794 1.50551 9.51041 1.50551 9.51041C1.50051 9.40395 1.64951 9.40693 1.74351 9.43877C1.70851 9.31638 1.63451 9.24972 1.46551 9.26564C1.50651 9.24972 1.55051 9.21091 1.55051 9.13828C1.55051 9.03778 1.46851 8.92733 1.41551 8.89449L1.38851 9.9333C1.38851 9.98504 1.39951 10.0298 1.41551 10.0716C1.47551 10.2308 1.63351 10.3194 1.77651 10.3333C1.79151 10.3353 1.80551 10.3373 1.81951 10.3373C1.83651 10.3373 1.85151 10.3353 1.86751 10.3333C2.09051 10.3154 2.21051 10.1721 2.21051 9.98803C2.21051 9.87459 2.18951 9.80295 2.13751 9.69748C2.13751 9.69748 1.71651 8.82882 1.55251 8.49151C1.53151 8.44972 1.52551 8.40196 1.52551 8.33231C1.52551 8.22385 1.63151 8.13629 1.74151 8.1333C1.84251 8.13032 1.95251 8.22683 1.95251 8.33529C1.95251 8.46862 1.88351 8.52733 1.81251 8.52733C1.72451 8.52733 1.68951 8.49151 1.68951 8.43081C1.68951 8.38803 1.70951 8.37012 1.73951 8.37012C1.81451 8.37012 1.79351 8.47061 1.79351 8.47061C1.83151 8.46265 1.86151 8.42484 1.84451 8.37708C1.87151 8.37111 1.89751 8.35718 1.91751 8.3343C1.89751 8.31439 1.87451 8.29947 1.84451 8.29449C1.86151 8.23678 1.83851 8.20892 1.78751 8.19698C1.79751 8.21887 1.79851 8.23977 1.79451 8.25867C1.71451 8.23579 1.59151 8.27161 1.59151 8.40992C1.59151 8.54524 1.68751 8.66066 1.86551 8.63181C1.82351 8.65171 1.80151 8.6935 1.79751 8.73927C1.83051 8.72634 1.86551 8.72534 1.86551 8.72534C1.84551 8.76116 1.81551 8.793 1.81751 8.86464C1.85051 8.84972 1.88151 8.82285 1.92351 8.83977C1.85651 8.97012 1.93851 9.14922 2.14751 9.19101C2.07151 9.10245 2.03351 9.00693 2.03351 8.91141C2.03351 8.60196 2.12051 8.55022 2.12051 8.33529C2.12051 8.24673 2.07451 8.15121 1.98351 8.08554C2.04351 8.06962 2.08251 8.03977 2.10351 7.99997C1.96951 7.96216 1.77751 7.96216 1.66651 7.99997Z" fill="#FFCA1D"/>
</g>
<mask id="mask22_986_17643" style="mask-type:luminance" maskUnits="userSpaceOnUse" x="0" y="0" width="24" height="16">
<path d="M0 16H24V1.90735e-06H0V16Z" fill="white"/>
</mask>
<g mask="url(#mask22_986_17643)">
<path d="M1.48728 2.29464L1.41528 2.38419C1.41528 2.38419 1.54328 2.27773 1.58628 2.33146C1.63828 2.39613 1.49128 2.65185 1.41528 2.83892C1.44128 2.90161 1.45928 2.95633 1.45928 2.99414C1.45928 3.06877 1.44228 3.12549 1.41528 3.17126C1.46728 3.25981 1.56228 3.30459 1.67628 3.33046C1.69828 3.33444 1.72028 3.33942 1.74228 3.3434C1.88028 3.36728 2.10428 3.33345 2.10428 3.33345C2.06128 3.27673 2.03428 3.26081 1.96328 3.25583C2.04228 3.21504 2.12328 3.12648 2.12328 2.98917C2.12328 2.77723 2.03428 2.68967 2.03428 2.45086C2.03428 2.31753 2.14428 2.14937 2.14428 2.14937C1.95028 2.16827 1.85428 2.34638 1.90928 2.48867C1.87828 2.49265 1.85028 2.48569 1.82628 2.4628C1.81228 2.5026 1.83428 2.54837 1.86428 2.58817C1.84028 2.60111 1.82228 2.59315 1.78428 2.58519C1.78728 2.62598 1.81228 2.66877 1.87228 2.70957C1.69828 2.66479 1.59128 2.78519 1.59128 2.91156C1.59128 3.00708 1.65828 3.07574 1.72428 3.07574C1.74528 3.07574 1.77728 3.06678 1.79428 3.05384C1.80628 3.07972 1.80028 3.11454 1.78728 3.14141C1.83528 3.12847 1.86628 3.10061 1.84428 3.04091C1.88128 3.03792 1.91128 3.02499 1.93028 3.00111C1.91028 2.97623 1.88028 2.96031 1.84428 2.9623C1.87128 2.90658 1.84128 2.87574 1.79728 2.85086C1.79728 2.85086 1.82528 2.9623 1.75428 2.9623C1.72228 2.9623 1.69328 2.95136 1.69328 2.90459C1.69328 2.86379 1.72928 2.80807 1.81228 2.81205C1.89528 2.81504 1.96228 2.86777 1.96228 2.99912C1.96228 3.12051 1.86328 3.18121 1.73428 3.18519C1.61628 3.18817 1.52828 3.12549 1.52828 3.00509C1.52828 2.84588 1.76028 2.4827 1.76028 2.34041C1.76028 2.23394 1.66428 2.17424 1.56928 2.17424C1.51028 2.17424 1.45628 2.2021 1.41528 2.23195C1.45928 2.2628 1.48728 2.29464 1.48728 2.29464Z" fill="#FFCA1D"/>
</g>
<mask id="mask23_986_17643" style="mask-type:luminance" maskUnits="userSpaceOnUse" x="0" y="0" width="24" height="16">
<path d="M0 16H24V1.90735e-06H0V16Z" fill="white"/>
</mask>
<g mask="url(#mask23_986_17643)">
<path d="M1.08789 3.34358C1.11089 3.3396 1.13289 3.33462 1.15389 3.32965C1.26889 3.30378 1.36289 3.26 1.41589 3.17144C1.44189 3.12567 1.45889 3.06895 1.45889 2.99432C1.45889 2.95651 1.44089 2.90179 1.41589 2.8391C1.33889 2.65204 1.19289 2.39532 1.24489 2.33164C1.28789 2.27791 1.41589 2.38437 1.41589 2.38437L1.48689 2.29482C1.48689 2.29482 1.45989 2.26298 1.41589 2.23114C1.37489 2.20228 1.32089 2.17442 1.26189 2.17442C1.16689 2.17442 1.06989 2.23412 1.06989 2.34059C1.06989 2.48288 1.30189 2.84606 1.30189 3.00527C1.30189 3.12567 1.21389 3.18835 1.09689 3.18437C0.96689 3.18039 0.86889 3.12069 0.86889 2.9993C0.86889 2.86796 0.93589 2.81522 1.01889 2.81124C1.10189 2.80726 1.13789 2.86398 1.13789 2.90477C1.13789 2.95154 1.10889 2.96248 1.07689 2.96248C1.00489 2.96248 1.03289 2.85104 1.03289 2.85104C0.98989 2.87592 0.95989 2.90676 0.98589 2.96248C0.95089 2.96049 0.92089 2.97542 0.89989 3.00129C0.91989 3.02517 0.94989 3.03711 0.98589 3.04109C0.96489 3.0998 0.99489 3.12865 1.04389 3.14059C1.03089 3.11472 1.02489 3.0799 1.03689 3.05303C1.05389 3.06696 1.08589 3.07492 1.10689 3.07492C1.17189 3.07492 1.23989 3.00726 1.23989 2.91174C1.23989 2.78537 1.13289 2.66497 0.95889 2.70975C1.01889 2.66895 1.04289 2.62616 1.04589 2.58537C1.00789 2.59333 0.99089 2.60129 0.96589 2.58835C0.99589 2.54855 1.01889 2.50278 1.00489 2.46298C0.98089 2.48587 0.95189 2.49283 0.92189 2.48885C0.97589 2.34656 0.87989 2.16746 0.68689 2.14855C0.68689 2.14855 0.79589 2.31771 0.79589 2.45104C0.79589 2.68985 0.70789 2.77741 0.70789 2.98935C0.70789 3.12666 0.78889 3.21522 0.86789 3.25602C0.79589 3.26099 0.76989 3.27691 0.72689 3.33363C0.72689 3.33363 0.95089 3.36646 1.08789 3.34358Z" fill="#FFCA1D"/>
</g>
<mask id="mask24_986_17643" style="mask-type:luminance" maskUnits="userSpaceOnUse" x="0" y="0" width="24" height="16">
<path d="M0 16H24V1.90735e-06H0V16Z" fill="white"/>
</mask>
<g mask="url(#mask24_986_17643)">
<path d="M1.10889 9.96095C1.13589 9.95498 1.15489 9.94105 1.16289 9.92712C1.16489 9.92215 1.16589 9.91717 1.16589 9.9122C1.16389 9.89031 1.11689 9.90324 1.08189 9.9112C1.04589 9.91916 1.02589 9.93608 1.02689 9.95797C1.02789 9.96394 1.03289 9.96692 1.03989 9.96891C1.05589 9.97289 1.08389 9.96593 1.10889 9.96095Z" fill="#04B0C7"/>
</g>
<mask id="mask25_986_17643" style="mask-type:luminance" maskUnits="userSpaceOnUse" x="0" y="0" width="24" height="16">
<path d="M0 16H24V1.90735e-06H0V16Z" fill="white"/>
</mask>
<g mask="url(#mask25_986_17643)">
<path d="M9.92427 9.22034C10.0383 9.35368 9.51927 8.98751 9.50327 9.11487C9.48927 9.21636 9.75527 9.42432 9.91327 9.51587C10.0703 9.60542 10.1223 9.57656 10.1673 9.65517C10.2013 9.71288 9.87027 9.61636 9.88027 9.69099C9.89827 9.83328 10.2433 9.80343 10.2953 9.86711C10.3473 9.93278 10.0603 9.88303 10.0713 9.93676C10.0913 10.0293 10.3843 10.0432 10.3883 10.083C10.3933 10.1248 10.2043 10.096 10.2163 10.1726C10.2263 10.2383 10.5133 10.2253 10.5843 10.2721C10.6543 10.3179 10.3263 10.2771 10.5813 10.4034C10.8363 10.5298 11.1273 10.6711 11.5263 10.7487C11.9243 10.8263 12.1283 10.7397 12.1423 10.7129C12.1563 10.689 11.9533 10.7348 11.6703 10.684C11.3873 10.6333 11.0093 10.4542 10.8553 10.3646C10.8073 10.3368 11.0063 10.28 10.9643 10.2263C10.9233 10.1716 10.7623 10.2343 10.7003 10.1547C10.6603 10.1059 10.7763 10.1049 10.7733 10.0721C10.7703 10.0422 10.5523 9.99248 10.5133 9.93875C10.4743 9.88403 10.6123 9.89298 10.6173 9.85616C10.6213 9.8293 10.4803 9.78253 10.4703 9.74671C10.4603 9.7099 10.6283 9.72184 10.5493 9.67607C10.4653 9.63029 10.2373 9.57258 10.1953 9.49099C10.1533 9.41139 10.3683 9.50194 10.3123 9.42631C10.2743 9.37457 10.0653 9.28502 10.0213 9.16462C9.99127 9.08204 10.1693 9.15567 10.1713 9.10293C10.1753 9.02034 10.0663 9.07408 10.0313 8.83626C10.0203 8.76064 10.1703 8.81139 10.1703 8.81139L10.1913 8.7696C10.1913 8.7696 10.3683 8.86811 10.5963 9.13179C10.8253 9.39646 10.8903 9.64621 11.1063 9.82432C11.2083 9.9099 11.2103 9.7895 11.4443 9.93577C11.6773 10.0791 11.7753 10.1815 12.0183 10.3895C12.0523 10.4174 12.2123 10.3606 12.6813 10.4562C12.9343 10.5089 12.9873 10.6422 12.9873 10.6422C12.9873 10.6472 13.1283 10.5567 13.1943 10.4552C13.2213 10.4154 13.2473 10.4532 13.2563 10.4462C13.2823 10.4223 13.2523 10.3925 13.2523 10.3925C11.4523 10.3985 10.1883 8.96462 10.0743 7.5288C10.0743 7.5288 10.0043 7.50194 9.99427 7.56562C9.97227 7.71686 10.0353 8.18353 10.0123 8.15169C9.96827 8.09398 9.64027 7.21835 9.58027 7.31288C9.50027 7.44024 9.94727 8.43527 9.92327 8.46611C9.83227 8.57258 9.31927 7.49398 9.27827 7.57258C9.12127 7.87507 9.91227 8.85417 9.90627 8.89497C9.88827 9.02731 9.30427 8.3696 9.25627 8.43825C9.14627 8.59845 9.88527 9.17656 9.92427 9.22034Z" fill="#FFCA1D"/>
</g>
<mask id="mask26_986_17643" style="mask-type:luminance" maskUnits="userSpaceOnUse" x="0" y="0" width="24" height="16">
<path d="M0 16H24V1.90735e-06H0V16Z" fill="white"/>
</mask>
<g mask="url(#mask26_986_17643)">
<path d="M14.4033 10.9637C14.4083 11.0273 14.3613 11.097 14.3063 11.1099C14.2653 11.1219 14.2863 11.1517 14.2723 11.1806L14.0973 11.1716C13.8203 11.3229 13.4723 11.3746 13.0553 11.3278C13.0553 11.3278 12.9673 11.3945 12.8893 11.4632C12.8113 11.5308 12.7573 11.5467 12.7423 11.6015C12.7243 11.6572 12.7833 11.687 12.8553 11.689C12.9263 11.689 13.0213 11.6234 13.0213 11.6234C13.0213 11.6234 13.0333 11.6791 13.0983 11.6841C13.1663 11.689 13.2873 11.6452 13.2873 11.6452C13.2873 11.6452 13.3873 11.689 13.4663 11.6811C13.5433 11.6711 13.6093 11.6224 13.6093 11.6224C13.6093 11.6224 13.6293 11.7109 13.7053 11.7149C13.7823 11.7179 13.9023 11.6194 13.9023 11.6194C13.9023 11.6194 13.9573 11.6841 14.0283 11.6751C14.0983 11.6671 14.1843 11.5846 14.1843 11.5846C14.1843 11.5846 14.2723 11.6214 14.3553 11.5975C14.4383 11.5736 14.5153 11.489 14.5153 11.489C14.5153 11.489 14.5903 11.5497 14.6563 11.5278C14.7223 11.5059 14.7653 11.4144 14.7653 11.4144C14.7653 11.4144 14.9443 11.4831 15.0613 11.4283C15.1443 11.3885 15.1233 11.2592 15.1233 11.2592C15.1233 11.2592 15.6113 11.3298 15.5893 11.0114C15.5873 10.9786 14.8053 10.9895 14.4603 10.9248C14.3943 10.9129 14.4033 10.9637 14.4033 10.9637Z" fill="#FFCA1D"/>
</g>
<mask id="mask27_986_17643" style="mask-type:luminance" maskUnits="userSpaceOnUse" x="0" y="0" width="24" height="16">
<path d="M0 16H24V1.90735e-06H0V16Z" fill="white"/>
</mask>
<g mask="url(#mask27_986_17643)">
<path d="M12.5449 11.1347C12.5149 11.1417 12.4779 11.1507 12.4769 11.1328C12.4749 11.1139 12.4909 11.0999 12.5219 11.093C12.5519 11.087 12.5899 11.075 12.5919 11.094C12.5939 11.1129 12.5729 11.1278 12.5449 11.1347ZM13.6479 10.3885C13.3379 10.4323 13.2389 10.5755 12.9019 10.7666C12.7889 10.8303 12.6139 10.8611 12.4639 10.9447C12.3129 11.0283 12.2049 11.1556 12.1549 11.2342C12.1309 11.2731 12.1659 11.3845 12.1969 11.3974C12.2299 11.4114 12.2269 11.3148 12.2629 11.2979C12.2979 11.28 12.2979 11.3318 12.3399 11.3298C12.3809 11.3278 12.4289 11.289 12.4289 11.289C12.4289 11.289 13.2669 11.287 13.6259 11.277C13.6909 11.275 13.7979 11.2492 13.8439 11.2004C13.8299 11.1616 13.7319 11.1835 13.6719 11.1855C13.4189 11.1686 13.0869 11.1845 12.8499 11.1696C12.8499 11.1696 12.8109 11.1676 12.8149 11.1298C12.8159 11.1129 12.9649 10.9517 12.9649 10.9517H12.8469C12.8469 10.9517 12.7749 10.9925 12.7389 10.9964C12.7049 11.0004 12.6909 10.9775 12.7049 10.9676C12.8859 10.8303 13.4229 10.5895 13.4229 10.5895C13.4229 10.5895 13.5629 10.5338 13.8159 10.483C14.2849 10.3865 14.4479 10.4183 14.4819 10.3885C14.8569 9.97654 15.1289 9.9437 15.3989 9.83724C15.6149 9.65813 15.6859 9.40042 15.9149 9.13773C16.1439 8.87405 16.2759 8.85316 16.2759 8.85316L16.3079 8.91186C16.3079 8.91186 16.4309 8.81932 16.4239 8.89694C16.4149 9.01335 16.3169 9.1248 16.3209 9.20738C16.3239 9.25913 16.4889 9.18549 16.4749 9.23226C16.4369 9.35465 16.3039 9.43027 16.2669 9.48102C16.2109 9.55763 16.4169 9.45415 16.3749 9.53375C16.3319 9.61534 16.1229 9.69594 16.0419 9.74569C15.9909 9.77853 16.0969 9.78549 16.0869 9.82231C16.0749 9.85813 15.8589 9.93674 15.8629 9.9636C15.8679 10.0004 15.9219 10.0034 15.8969 10.0323C15.8509 10.081 15.6729 10.088 15.6699 10.1178C15.6679 10.1497 15.7079 10.1805 15.6679 10.2303C15.6059 10.3089 15.5569 10.2303 15.5299 10.294C15.5159 10.3298 15.6329 10.4044 15.5539 10.4183C15.4439 10.4382 15.3639 10.483 15.2719 10.5417C15.2359 10.5636 15.0779 10.5935 14.9859 10.6163C14.9269 10.6323 14.5929 10.6731 14.6079 10.6999C14.6199 10.7258 14.8319 10.7228 15.2739 10.6462C15.4679 10.6134 15.5779 10.5895 15.8789 10.4949C16.2219 10.3875 15.7909 10.3795 15.8599 10.3328C15.9309 10.285 16.2299 10.3089 16.2389 10.2432C16.2519 10.1666 16.0739 10.1905 16.0799 10.1487C16.0849 10.1089 16.4409 10.1099 16.4619 10.0153C16.4739 9.96261 16.2579 10.0004 16.3099 9.93574C16.3609 9.87007 16.6479 9.85714 16.6559 9.73475C16.6629 9.66211 16.4239 9.74967 16.4559 9.68997C16.4679 9.66609 16.5649 9.64022 16.6589 9.57355C16.8099 9.47007 17.0479 9.28997 17.0329 9.18649C17.0189 9.06112 16.5399 9.48102 16.5809 9.31982C16.5959 9.26311 17.3609 8.66012 17.2349 8.51385C17.1499 8.41435 16.6049 9.06211 16.5869 8.93276C16.5819 8.89097 17.4389 7.92579 17.2809 7.6243C17.2399 7.5447 16.5959 8.77554 16.5049 8.66908C16.4799 8.63923 17.0559 7.45515 16.9639 7.33475C16.9199 7.27704 16.8309 7.47405 16.7319 7.69296C16.6329 7.91087 16.5239 8.15166 16.5029 8.18151C16.4799 8.21236 16.5269 7.71783 16.5059 7.56659C16.4979 7.50291 16.4269 7.52977 16.4269 7.52977C16.3259 9.07306 14.8359 10.2193 13.6479 10.3885Z" fill="#FFCA1D"/>
</g>
<mask id="mask28_986_17643" style="mask-type:luminance" maskUnits="userSpaceOnUse" x="0" y="0" width="24" height="16">
<path d="M0 16H24V1.90735e-06H0V16Z" fill="white"/>
</mask>
<g mask="url(#mask28_986_17643)">
<path d="M12.5215 11.0929C12.4915 11.0999 12.4745 11.1138 12.4765 11.1327C12.4775 11.1506 12.5145 11.1416 12.5445 11.1347C12.5735 11.1277 12.5935 11.1128 12.5915 11.0939C12.5895 11.075 12.5515 11.0869 12.5215 11.0929Z" fill="#04B0C7"/>
</g>
<mask id="mask29_986_17643" style="mask-type:luminance" maskUnits="userSpaceOnUse" x="0" y="0" width="24" height="16">
<path d="M0 16H24V1.90735e-06H0V16Z" fill="white"/>
</mask>
<g mask="url(#mask29_986_17643)">
<path d="M13.665 5.04158C13.767 5.06048 13.817 5.00476 13.832 4.92914C13.852 4.82964 13.81 4.32317 13.81 4.32317C13.81 4.32317 13.574 4.77391 13.555 4.87541C13.539 4.95003 13.564 5.02168 13.665 5.04158Z" fill="#FFCA1D"/>
</g>
<mask id="mask30_986_17643" style="mask-type:luminance" maskUnits="userSpaceOnUse" x="0" y="0" width="24" height="16">
<path d="M0 16H24V1.90735e-06H0V16Z" fill="white"/>
</mask>
<g mask="url(#mask30_986_17643)">
<path d="M14.0342 5.15279C14.1302 5.1916 14.1902 5.14682 14.2212 5.07518C14.2602 4.98065 14.3162 4.47617 14.3162 4.47617C14.3162 4.47617 13.9972 4.87319 13.9582 4.96772C13.9302 5.03836 13.9392 5.11399 14.0342 5.15279Z" fill="#FFCA1D"/>
</g>
<mask id="mask31_986_17643" style="mask-type:luminance" maskUnits="userSpaceOnUse" x="0" y="0" width="24" height="16">
<path d="M0 16H24V1.90735e-06H0V16Z" fill="white"/>
</mask>
<g mask="url(#mask31_986_17643)">
<path d="M14.375 5.33418C14.461 5.3899 14.528 5.35806 14.571 5.29438C14.629 5.2098 14.784 4.72523 14.784 4.72523C14.784 4.72523 14.394 5.05259 14.337 5.13816C14.294 5.20184 14.29 5.27746 14.375 5.33418Z" fill="#FFCA1D"/>
</g>
<mask id="mask32_986_17643" style="mask-type:luminance" maskUnits="userSpaceOnUse" x="0" y="0" width="24" height="16">
<path d="M0 16H24V1.90735e-06H0V16Z" fill="white"/>
</mask>
<g mask="url(#mask32_986_17643)">
<path d="M14.6738 5.57748C14.7458 5.64912 14.8198 5.63121 14.8738 5.57649C14.9468 5.50385 15.1948 5.05907 15.1948 5.05907C15.1948 5.05907 14.7458 5.30484 14.6748 5.37748C14.6188 5.43221 14.6008 5.50484 14.6738 5.57748Z" fill="#FFCA1D"/>
</g>
<mask id="mask33_986_17643" style="mask-type:luminance" maskUnits="userSpaceOnUse" x="0" y="0" width="24" height="16">
<path d="M0 16H24V1.90735e-06H0V16Z" fill="white"/>
</mask>
<g mask="url(#mask33_986_17643)">
<path d="M14.918 5.87438C14.977 5.95896 15.051 5.95597 15.115 5.91318C15.201 5.85547 15.53 5.46741 15.53 5.46741C15.53 5.46741 15.044 5.62164 14.958 5.67836C14.895 5.72115 14.861 5.7898 14.918 5.87438Z" fill="#FFCA1D"/>
</g>
<mask id="mask34_986_17643" style="mask-type:luminance" maskUnits="userSpaceOnUse" x="0" y="0" width="24" height="16">
<path d="M0 16H24V1.90735e-06H0V16Z" fill="white"/>
</mask>
<g mask="url(#mask34_986_17643)">
<path d="M15.0996 6.213C15.1406 6.30752 15.2146 6.31847 15.2866 6.28862C15.3816 6.24981 15.7806 5.9324 15.7806 5.9324C15.7806 5.9324 15.2726 5.98911 15.1776 6.02792C15.1066 6.05777 15.0606 6.11847 15.0996 6.213Z" fill="#FFCA1D"/>
</g>
<mask id="mask35_986_17643" style="mask-type:luminance" maskUnits="userSpaceOnUse" x="0" y="0" width="24" height="16">
<path d="M0 16H24V1.90735e-06H0V16Z" fill="white"/>
</mask>
<g mask="url(#mask35_986_17643)">
<path d="M15.3242 6.41459C15.2482 6.42951 15.1912 6.48026 15.2122 6.58076C15.2332 6.68125 15.3032 6.70613 15.3802 6.6912C15.4802 6.6713 15.9342 6.43747 15.9342 6.43747C15.9342 6.43747 15.4262 6.39469 15.3242 6.41459Z" fill="#FFCA1D"/>
</g>
<mask id="mask36_986_17643" style="mask-type:luminance" maskUnits="userSpaceOnUse" x="0" y="0" width="24" height="16">
<path d="M0 16H24V1.90735e-06H0V16Z" fill="white"/>
</mask>
<g mask="url(#mask36_986_17643)">
<path d="M15.25 6.96271C15.251 7.0652 15.315 7.104 15.393 7.104C15.495 7.104 15.985 6.96271 15.985 6.96271C15.985 6.96271 15.495 6.82142 15.393 6.82142C15.315 6.82142 15.25 6.86022 15.25 6.96271Z" fill="#FFCA1D"/>
</g>
<mask id="mask37_986_17643" style="mask-type:luminance" maskUnits="userSpaceOnUse" x="0" y="0" width="24" height="16">
<path d="M0 16H24V1.90735e-06H0V16Z" fill="white"/>
</mask>
<g mask="url(#mask37_986_17643)">
<path d="M15.9346 7.48783C15.9346 7.48783 15.4806 7.254 15.3786 7.2341C15.3046 7.21917 15.2326 7.24405 15.2116 7.34454C15.1936 7.44604 15.2476 7.49579 15.3246 7.51071C15.4246 7.53061 15.9346 7.48783 15.9346 7.48783Z" fill="#FFCA1D"/>
</g>
<mask id="mask38_986_17643" style="mask-type:luminance" maskUnits="userSpaceOnUse" x="0" y="0" width="24" height="16">
<path d="M0 16H24V1.90735e-06H0V16Z" fill="white"/>
</mask>
<g mask="url(#mask38_986_17643)">
<path d="M15.0996 7.71232C15.0616 7.80685 15.1066 7.86755 15.1776 7.8974C15.2726 7.9362 15.7806 7.99292 15.7806 7.99292C15.7806 7.99292 15.3816 7.67551 15.2866 7.6367C15.2146 7.60685 15.1396 7.6168 15.0996 7.71232Z" fill="#FFCA1D"/>
</g>
<mask id="mask39_986_17643" style="mask-type:luminance" maskUnits="userSpaceOnUse" x="0" y="0" width="24" height="16">
<path d="M0 16H24V1.90735e-06H0V16Z" fill="white"/>
</mask>
<g mask="url(#mask39_986_17643)">
<path d="M14.918 8.05043C14.862 8.136 14.895 8.20367 14.958 8.24645C15.044 8.30416 15.53 8.4574 15.53 8.4574C15.53 8.4574 15.201 8.06934 15.115 8.01262C15.051 7.96984 14.976 7.96586 14.918 8.05043Z" fill="#FFCA1D"/>
</g>
<mask id="mask40_986_17643" style="mask-type:luminance" maskUnits="userSpaceOnUse" x="0" y="0" width="24" height="16">
<path d="M0 16H24V1.90735e-06H0V16Z" fill="white"/>
</mask>
<g mask="url(#mask40_986_17643)">
<path d="M14.874 8.34831C14.82 8.29358 14.746 8.27468 14.673 8.34731C14.602 8.42095 14.619 8.49358 14.674 8.54731C14.747 8.61995 15.194 8.86572 15.194 8.86572C15.194 8.86572 14.947 8.42095 14.874 8.34831Z" fill="#FFCA1D"/>
</g>
<mask id="mask41_986_17643" style="mask-type:luminance" maskUnits="userSpaceOnUse" x="0" y="0" width="24" height="16">
<path d="M0 16H24V1.90735e-06H0V16Z" fill="white"/>
</mask>
<g mask="url(#mask41_986_17643)">
<path d="M14.7842 9.19995C14.7842 9.19995 14.6292 8.71637 14.5722 8.63179C14.5292 8.56712 14.4602 8.53428 14.3742 8.591C14.2892 8.64871 14.2932 8.72333 14.3362 8.78702C14.3932 8.87159 14.7842 9.19995 14.7842 9.19995Z" fill="#FFCA1D"/>
</g>
<mask id="mask42_986_17643" style="mask-type:luminance" maskUnits="userSpaceOnUse" x="0" y="0" width="24" height="16">
<path d="M0 16H24V1.90735e-06H0V16Z" fill="white"/>
</mask>
<g mask="url(#mask42_986_17643)">
<path d="M14.0342 8.77199C13.9392 8.81279 13.9302 8.88642 13.9582 8.95806C13.9972 9.05159 14.3162 9.44861 14.3162 9.44861C14.3162 9.44861 14.2602 8.94413 14.2212 8.8496C14.1902 8.77796 14.1302 8.73319 14.0342 8.77199Z" fill="#FFCA1D"/>
</g>
<mask id="mask43_986_17643" style="mask-type:luminance" maskUnits="userSpaceOnUse" x="0" y="0" width="24" height="16">
<path d="M0 16H24V1.90735e-06H0V16Z" fill="white"/>
</mask>
<g mask="url(#mask43_986_17643)">
<path d="M12.2266 8.7875C12.2686 8.72382 12.2736 8.6482 12.1876 8.59049C12.1016 8.53576 12.0336 8.5676 11.9906 8.63129C11.9336 8.71586 11.7786 9.20044 11.7786 9.20044C11.7786 9.20044 12.1676 8.87208 12.2266 8.7875Z" fill="#FFCA1D"/>
</g>
<mask id="mask44_986_17643" style="mask-type:luminance" maskUnits="userSpaceOnUse" x="0" y="0" width="24" height="16">
<path d="M0 16H24V1.90735e-06H0V16Z" fill="white"/>
</mask>
<g mask="url(#mask44_986_17643)">
<path d="M11.8892 8.34731C11.8152 8.27567 11.7432 8.29358 11.6882 8.34831C11.6152 8.42095 11.3682 8.86572 11.3682 8.86572C11.3682 8.86572 11.8152 8.61995 11.8882 8.54731C11.9432 8.49259 11.9622 8.41995 11.8892 8.34731Z" fill="#FFCA1D"/>
</g>
<mask id="mask45_986_17643" style="mask-type:luminance" maskUnits="userSpaceOnUse" x="0" y="0" width="24" height="16">
<path d="M0 16H24V1.90735e-06H0V16Z" fill="white"/>
</mask>
<g mask="url(#mask45_986_17643)">
<path d="M11.6445 8.05043C11.5855 7.96685 11.5115 7.96984 11.4465 8.01262C11.3615 8.06934 11.0325 8.4574 11.0325 8.4574C11.0325 8.4574 11.5185 8.30416 11.6045 8.24645C11.6685 8.20367 11.7015 8.136 11.6445 8.05043Z" fill="#FFCA1D"/>
</g>
<mask id="mask46_986_17643" style="mask-type:luminance" maskUnits="userSpaceOnUse" x="0" y="0" width="24" height="16">
<path d="M0 16H24V1.90735e-06H0V16Z" fill="white"/>
</mask>
<g mask="url(#mask46_986_17643)">
<path d="M11.4624 7.71232C11.4214 7.6178 11.3474 7.60685 11.2764 7.6367C11.1814 7.67551 10.7824 7.99292 10.7824 7.99292C10.7824 7.99292 11.2894 7.9362 11.3844 7.8974C11.4564 7.86755 11.5024 7.80685 11.4624 7.71232Z" fill="#FFCA1D"/>
</g>
<mask id="mask47_986_17643" style="mask-type:luminance" maskUnits="userSpaceOnUse" x="0" y="0" width="24" height="16">
<path d="M0 16H24V1.90735e-06H0V16Z" fill="white"/>
</mask>
<g mask="url(#mask47_986_17643)">
<path d="M11.3506 7.34454C11.3296 7.24405 11.2586 7.21917 11.1826 7.2341C11.0816 7.254 10.6286 7.48783 10.6286 7.48783C10.6286 7.48783 11.1366 7.53061 11.2386 7.51071C11.3136 7.49579 11.3706 7.44504 11.3506 7.34454Z" fill="#FFCA1D"/>
</g>
<mask id="mask48_986_17643" style="mask-type:luminance" maskUnits="userSpaceOnUse" x="0" y="0" width="24" height="16">
<path d="M0 16H24V1.90735e-06H0V16Z" fill="white"/>
</mask>
<g mask="url(#mask48_986_17643)">
<path d="M11.3125 6.96271C11.3115 6.86022 11.2475 6.82142 11.1695 6.82142C11.0665 6.82142 10.5765 6.96271 10.5765 6.96271C10.5765 6.96271 11.0665 7.104 11.1695 7.104C11.2475 7.104 11.3125 7.0652 11.3125 6.96271Z" fill="#FFCA1D"/>
</g>
<mask id="mask49_986_17643" style="mask-type:luminance" maskUnits="userSpaceOnUse" x="0" y="0" width="24" height="16">
<path d="M0 16H24V1.90735e-06H0V16Z" fill="white"/>
</mask>
<g mask="url(#mask49_986_17643)">
<path d="M11.3506 6.58027C11.3696 6.47977 11.3136 6.43002 11.2386 6.4141C11.1366 6.3942 10.6286 6.43698 10.6286 6.43698C10.6286 6.43698 11.0816 6.67081 11.1826 6.69071C11.2586 6.70564 11.3306 6.68076 11.3506 6.58027Z" fill="#FFCA1D"/>
</g>
<mask id="mask50_986_17643" style="mask-type:luminance" maskUnits="userSpaceOnUse" x="0" y="0" width="24" height="16">
<path d="M0 16H24V1.90735e-06H0V16Z" fill="white"/>
</mask>
<g mask="url(#mask50_986_17643)">
<path d="M11.4624 6.213C11.5014 6.11847 11.4564 6.05777 11.3844 6.02792C11.2894 5.98911 10.7824 5.9324 10.7824 5.9324C10.7824 5.9324 11.1814 6.24981 11.2764 6.28862C11.3474 6.31847 11.4224 6.30752 11.4624 6.213Z" fill="#FFCA1D"/>
</g>
<mask id="mask51_986_17643" style="mask-type:luminance" maskUnits="userSpaceOnUse" x="0" y="0" width="24" height="16">
<path d="M0 16H24V1.90735e-06H0V16Z" fill="white"/>
</mask>
<g mask="url(#mask51_986_17643)">
<path d="M11.4468 5.91275C11.5108 5.95554 11.5868 5.95952 11.6448 5.87394C11.7008 5.78837 11.6688 5.7217 11.6048 5.67792C11.5188 5.62121 11.0318 5.46698 11.0318 5.46698C11.0318 5.46698 11.3618 5.85603 11.4468 5.91275Z" fill="#FFCA1D"/>
</g>
<mask id="mask52_986_17643" style="mask-type:luminance" maskUnits="userSpaceOnUse" x="0" y="0" width="24" height="16">
<path d="M0 16H24V1.90735e-06H0V16Z" fill="white"/>
</mask>
<g mask="url(#mask52_986_17643)">
<path d="M11.8892 5.57757C11.9612 5.50394 11.9432 5.4323 11.8882 5.37757C11.8152 5.30493 11.3682 5.05916 11.3682 5.05916C11.3682 5.05916 11.6152 5.50394 11.6882 5.57658C11.7432 5.6313 11.8162 5.65021 11.8892 5.57757Z" fill="#FFCA1D"/>
</g>
<mask id="mask53_986_17643" style="mask-type:luminance" maskUnits="userSpaceOnUse" x="0" y="0" width="24" height="16">
<path d="M0 16H24V1.90735e-06H0V16Z" fill="white"/>
</mask>
<g mask="url(#mask53_986_17643)">
<path d="M15.0127 6.96459C15.0127 6.01235 14.2367 5.24021 13.2797 5.24021C12.3227 5.24021 11.5467 6.01235 11.5467 6.96459C11.5467 7.91683 12.3227 8.68896 13.2797 8.68896C14.2367 8.68896 15.0127 7.91683 15.0127 6.96459Z" fill="#FFCA1D"/>
</g>
<mask id="mask54_986_17643" style="mask-type:luminance" maskUnits="userSpaceOnUse" x="0" y="0" width="24" height="16">
<path d="M0 16H24V1.90735e-06H0V16Z" fill="white"/>
</mask>
<g mask="url(#mask54_986_17643)">
<path d="M13.2812 5.00415C13.3852 5.00316 13.4242 4.93848 13.4242 4.86186C13.4242 4.75937 13.2812 4.27082 13.2812 4.27082C13.2812 4.27082 13.1392 4.75937 13.1392 4.86186C13.1392 4.93848 13.1782 5.00415 13.2812 5.00415Z" fill="#FFCA1D"/>
</g>
<mask id="mask55_986_17643" style="mask-type:luminance" maskUnits="userSpaceOnUse" x="0" y="0" width="24" height="16">
<path d="M0 16H24V1.90735e-06H0V16Z" fill="white"/>
</mask>
<g mask="url(#mask55_986_17643)">
<path d="M13.665 8.88364C13.564 8.90454 13.539 8.97519 13.555 9.04981C13.574 9.1513 13.81 9.60205 13.81 9.60205C13.81 9.60205 13.852 9.09558 13.832 8.99509C13.817 8.92046 13.767 8.86374 13.665 8.88364Z" fill="#FFCA1D"/>
</g>
<mask id="mask56_986_17643" style="mask-type:luminance" maskUnits="userSpaceOnUse" x="0" y="0" width="24" height="16">
<path d="M0 16H24V1.90735e-06H0V16Z" fill="white"/>
</mask>
<g mask="url(#mask56_986_17643)">
<path d="M13.4229 9.06301C13.4229 8.98639 13.3839 8.92072 13.2809 8.92072C13.1779 8.92271 13.1389 8.98639 13.1389 9.06301C13.1389 9.16649 13.2809 9.65405 13.2809 9.65405C13.2809 9.65405 13.4229 9.16649 13.4229 9.06301Z" fill="#FFCA1D"/>
</g>
<mask id="mask57_986_17643" style="mask-type:luminance" maskUnits="userSpaceOnUse" x="0" y="0" width="24" height="16">
<path d="M0 16H24V1.90735e-06H0V16Z" fill="white"/>
</mask>
<g mask="url(#mask57_986_17643)">
<path d="M12.7305 8.99545C12.7105 9.09595 12.7535 9.60242 12.7535 9.60242C12.7535 9.60242 12.9875 9.15068 13.0075 9.05018C13.0225 8.97456 12.9995 8.90391 12.8975 8.88401C12.7955 8.8651 12.7455 8.91983 12.7305 8.99545Z" fill="#FFCA1D"/>
</g>
<mask id="mask58_986_17643" style="mask-type:luminance" maskUnits="userSpaceOnUse" x="0" y="0" width="24" height="16">
<path d="M0 16H24V1.90735e-06H0V16Z" fill="white"/>
</mask>
<g mask="url(#mask58_986_17643)">
<path d="M12.5283 8.77199C12.4313 8.73418 12.3723 8.77796 12.3413 8.8496C12.3023 8.94413 12.2463 9.44861 12.2463 9.44861C12.2463 9.44861 12.5653 9.05159 12.6033 8.95806C12.6333 8.88642 12.6233 8.81179 12.5283 8.77199Z" fill="#FFCA1D"/>
</g>
<mask id="mask59_986_17643" style="mask-type:luminance" maskUnits="userSpaceOnUse" x="0" y="0" width="24" height="16">
<path d="M0 16H24V1.90735e-06H0V16Z" fill="white"/>
</mask>
<g mask="url(#mask59_986_17643)">
<path d="M12.1875 5.33411C12.2725 5.27639 12.2685 5.20177 12.2265 5.13809C12.1685 5.05251 11.7785 4.72515 11.7785 4.72515C11.7785 4.72515 11.9335 5.20973 11.9905 5.29431C12.0335 5.35799 12.1025 5.39082 12.1875 5.33411Z" fill="#FFCA1D"/>
</g>
<mask id="mask60_986_17643" style="mask-type:luminance" maskUnits="userSpaceOnUse" x="0" y="0" width="24" height="16">
<path d="M0 16H24V1.90735e-06H0V16Z" fill="white"/>
</mask>
<g mask="url(#mask60_986_17643)">
<path d="M12.5283 5.15286C12.6233 5.11206 12.6333 5.03843 12.6033 4.96778C12.5653 4.87326 12.2463 4.47624 12.2463 4.47624C12.2463 4.47624 12.3023 4.98072 12.3413 5.07525C12.3723 5.14689 12.4323 5.19266 12.5283 5.15286Z" fill="#FFCA1D"/>
</g>
<mask id="mask61_986_17643" style="mask-type:luminance" maskUnits="userSpaceOnUse" x="0" y="0" width="24" height="16">
<path d="M0 16H24V1.90735e-06H0V16Z" fill="white"/>
</mask>
<g mask="url(#mask61_986_17643)">
<path d="M12.8975 5.04164C12.9985 5.02075 13.0235 4.9501 13.0075 4.87547C12.9885 4.77398 12.7525 4.32323 12.7525 4.32323C12.7525 4.32323 12.7105 4.8297 12.7305 4.9292C12.7465 5.00482 12.7955 5.06154 12.8975 5.04164Z" fill="#FFCA1D"/>
</g>
</g>
<defs>
<clipPath id="clip0_986_17643">
<rect width="24" height="16" fill="white"/>
</clipPath>
</defs>
</svg>
