<svg width="197" height="32" viewBox="0 0 197 32" fill="none" xmlns="http://www.w3.org/2000/svg">
<g clip-path="url(#clip0_1238_3041)">
<path d="M57.8576 7.94482H48.491C48.1985 7.94474 47.9179 8.06083 47.7109 8.26758L45.5989 10.3801C45.3919 10.587 45.2756 10.8676 45.2756 11.1603V23.8345C45.2756 23.8637 45.2872 23.8918 45.3079 23.9125C45.3286 23.9332 45.3567 23.9448 45.3859 23.9448H47.9238C47.9531 23.9448 47.9812 23.9332 48.0019 23.9125C48.0226 23.8918 48.0342 23.8637 48.0342 23.8345V17.8759C48.0342 17.7295 48.0923 17.5892 48.1958 17.4857C48.2993 17.3823 48.4396 17.3241 48.5859 17.3241H56.7514C56.7807 17.3241 56.8088 17.3125 56.8295 17.2918C56.8502 17.2711 56.8618 17.2431 56.8618 17.2138V14.6759C56.8618 14.6466 56.8502 14.6185 56.8295 14.5978C56.8088 14.5771 56.7807 14.5655 56.7514 14.5655H48.5859C48.4396 14.5655 48.2993 14.5074 48.1958 14.4039C48.0923 14.3004 48.0342 14.1601 48.0342 14.0138V11.2552C48.0342 11.1088 48.0923 10.9685 48.1958 10.865C48.2993 10.7616 48.4396 10.7034 48.5859 10.7034H57.8576C57.8869 10.7034 57.915 10.6918 57.9357 10.6711C57.9564 10.6504 57.968 10.6224 57.968 10.5931V8.05517C57.968 8.0259 57.9564 7.99784 57.9357 7.97714C57.915 7.95645 57.8869 7.94482 57.8576 7.94482Z" fill="#001E28"/>
<path d="M87.0555 10.3807L84.9435 8.26813C84.7365 8.06138 84.4559 7.94529 84.1633 7.94537H76.8033C76.5108 7.94529 76.2302 8.06138 76.0232 8.26813L73.9106 10.3807C73.7039 10.5877 73.5878 10.8683 73.5879 11.1608V23.8345C73.5879 23.8637 73.5995 23.8918 73.6202 23.9125C73.6409 23.9332 73.669 23.9448 73.6982 23.9448H76.2362C76.2654 23.9448 76.2935 23.9332 76.3142 23.9125C76.3349 23.8918 76.3465 23.8637 76.3465 23.8345V18.9793C76.3465 18.833 76.4046 18.6926 76.5081 18.5892C76.6116 18.4857 76.7519 18.4276 76.8982 18.4276H84.0706C84.217 18.4276 84.3573 18.4857 84.4608 18.5892C84.5642 18.6926 84.6224 18.833 84.6224 18.9793V23.8345C84.6224 23.8637 84.634 23.8918 84.6547 23.9125C84.6754 23.9332 84.7035 23.9448 84.7327 23.9448H87.2706C87.2991 23.9449 87.3264 23.9339 87.347 23.9143C87.3675 23.8946 87.3797 23.8678 87.381 23.8394V11.1658C87.3813 11.0199 87.3527 10.8754 87.2969 10.7406C87.241 10.6059 87.1589 10.4835 87.0555 10.3807ZM84.6196 15.1172C84.6196 15.2636 84.5615 15.4039 84.458 15.5074C84.3545 15.6108 84.2142 15.669 84.0679 15.669H76.8955C76.7491 15.669 76.6088 15.6108 76.5053 15.5074C76.4019 15.4039 76.3438 15.2636 76.3438 15.1172V11.2552C76.3438 11.1088 76.4019 10.9685 76.5053 10.865C76.6088 10.7616 76.7491 10.7034 76.8955 10.7034H84.0679C84.2142 10.7034 84.3545 10.7616 84.458 10.865C84.5615 10.9685 84.6196 11.1088 84.6196 11.2552V15.1172Z" fill="#001E28"/>
<path d="M71.184 23.9448H63.477C63.1844 23.9449 62.9038 23.8288 62.6968 23.6221L60.5843 21.5095C60.3775 21.3025 60.2615 21.0219 60.2615 20.7294V8.05517C60.2615 8.0259 60.2732 7.99784 60.2939 7.97714C60.3146 7.95645 60.3426 7.94482 60.3719 7.94482H62.9098C62.9391 7.94482 62.9671 7.95645 62.9878 7.97714C63.0085 7.99784 63.0202 8.0259 63.0202 8.05517V20.6345C63.0202 20.7069 63.0344 20.7787 63.0622 20.8456C63.0899 20.9126 63.1305 20.9734 63.1818 21.0246C63.233 21.0758 63.2938 21.1165 63.3607 21.1442C63.4277 21.1719 63.4994 21.1862 63.5719 21.1862H71.1857C71.2149 21.1862 71.243 21.1978 71.2637 21.2185C71.2844 21.2392 71.296 21.2673 71.296 21.2965V23.8345C71.296 23.8491 71.2931 23.8636 71.2875 23.8771C71.2818 23.8906 71.2735 23.9028 71.2631 23.9131C71.2527 23.9234 71.2403 23.9315 71.2268 23.9369C71.2132 23.9424 71.1986 23.945 71.184 23.9448Z" fill="#001E28"/>
<path d="M102.381 17.0003L100.269 14.8883C100.062 14.6813 99.7812 14.565 99.4886 14.565H93.3263C93.18 14.565 93.0397 14.5068 92.9362 14.4034C92.8327 14.2999 92.7746 14.1596 92.7746 14.0132V11.2546C92.7746 11.1083 92.8327 10.968 92.9362 10.8645C93.0397 10.761 93.18 10.7029 93.3263 10.7029H102.044C102.073 10.7029 102.101 10.6913 102.122 10.6706C102.142 10.6499 102.154 10.6218 102.154 10.5925V8.05517C102.154 8.0259 102.142 7.99784 102.122 7.97714C102.101 7.95645 102.073 7.94482 102.044 7.94482H93.2292C92.9367 7.94474 92.6561 8.06083 92.4491 8.26758L90.3371 10.3801C90.1302 10.587 90.0139 10.8676 90.0138 11.1603V14.1092C90.0139 14.4019 90.1302 14.6825 90.3371 14.8894L92.4491 17.0019C92.5517 17.1044 92.6734 17.1856 92.8073 17.241C92.9413 17.2964 93.0848 17.3248 93.2298 17.3247H99.392C99.5383 17.3247 99.6787 17.3828 99.7821 17.4863C99.8856 17.5898 99.9437 17.7301 99.9437 17.8764V20.635C99.9437 20.7814 99.8856 20.9217 99.7821 21.0252C99.6787 21.1286 99.5383 21.1868 99.392 21.1868H90.6803C90.651 21.1868 90.6229 21.1984 90.6023 21.2191C90.5816 21.2398 90.5699 21.2678 90.5699 21.2971V23.835C90.5699 23.8643 90.5816 23.8924 90.6023 23.9131C90.6229 23.9338 90.651 23.9454 90.6803 23.9454H99.4886C99.7812 23.9453 100.062 23.829 100.269 23.6221L102.381 21.5101C102.588 21.3032 102.704 21.0226 102.704 20.7299V17.7804C102.704 17.4878 102.588 17.2072 102.381 17.0003Z" fill="#001E28"/>
<path d="M134.132 17.0003L132.02 14.8883C131.813 14.6813 131.532 14.565 131.24 14.565L125.076 14.5655C124.93 14.5655 124.789 14.5074 124.686 14.4039C124.582 14.3004 124.524 14.1601 124.524 14.0138V11.2552C124.524 11.1088 124.582 10.9685 124.686 10.865C124.789 10.7616 124.93 10.7034 125.076 10.7034H133.793C133.822 10.7034 133.85 10.6918 133.871 10.6711C133.892 10.6504 133.903 10.6224 133.903 10.5931V8.05517C133.903 8.0259 133.892 7.99784 133.871 7.97714C133.85 7.95645 133.822 7.94482 133.793 7.94482H124.98C124.688 7.94474 124.407 8.06083 124.2 8.26758L122.088 10.3801C121.881 10.587 121.765 10.8676 121.765 11.1603V14.1092C121.765 14.4019 121.881 14.6825 122.088 14.8894L124.2 17.0019C124.407 17.2087 124.688 17.3248 124.98 17.3247L131.145 17.3241C131.291 17.3241 131.431 17.3823 131.535 17.4857C131.638 17.5892 131.697 17.7295 131.697 17.8759V20.6345C131.697 20.7069 131.682 20.7787 131.655 20.8456C131.627 20.9126 131.586 20.9734 131.535 21.0246C131.484 21.0758 131.423 21.1165 131.356 21.1442C131.289 21.1719 131.217 21.1862 131.145 21.1862H122.431C122.402 21.1862 122.374 21.1978 122.353 21.2185C122.333 21.2392 122.321 21.2673 122.321 21.2965V23.8345C122.321 23.8637 122.333 23.8918 122.353 23.9125C122.374 23.9332 122.402 23.9448 122.431 23.9448H131.24C131.532 23.9448 131.813 23.8285 132.02 23.6215L134.132 21.5095C134.339 21.3026 134.455 21.022 134.455 20.7294V17.7804C134.455 17.4878 134.339 17.2072 134.132 17.0003Z" fill="#001E28"/>
<path d="M139.848 11.2552C139.848 11.1088 139.906 10.9685 140.01 10.865C140.113 10.7616 140.254 10.7034 140.4 10.7034H148.566C148.595 10.7034 148.623 10.6918 148.644 10.6711C148.664 10.6504 148.676 10.6224 148.676 10.5931V8.05517C148.676 8.0259 148.664 7.99784 148.644 7.97714C148.623 7.95645 148.595 7.94482 148.566 7.94482H140.303C140.011 7.94474 139.73 8.06083 139.523 8.26758L137.411 10.3801C137.204 10.5871 137.088 10.8677 137.088 11.1603V20.7272C137.088 21.0197 137.204 21.3003 137.411 21.5073L139.523 23.6199C139.626 23.7226 139.747 23.8042 139.881 23.86C140.015 23.9157 140.158 23.9446 140.303 23.9448H148.565C148.594 23.9448 148.622 23.9332 148.643 23.9125C148.664 23.8918 148.675 23.8637 148.675 23.8345V21.2965C148.675 21.2673 148.664 21.2392 148.643 21.2185C148.622 21.1978 148.594 21.1862 148.565 21.1862H140.399C140.327 21.1862 140.255 21.1719 140.188 21.1442C140.121 21.1165 140.061 21.0758 140.009 21.0246C139.958 20.9734 139.917 20.9126 139.89 20.8456C139.862 20.7787 139.848 20.7069 139.848 20.6345L139.848 11.2552Z" fill="#001E28"/>
<path d="M164.783 10.3807L162.671 8.26813C162.464 8.06138 162.184 7.94529 161.891 7.94537H154.528C154.235 7.94529 153.955 8.06138 153.748 8.26813L151.635 10.3807C151.428 10.5876 151.312 10.8682 151.312 11.1608V20.7272C151.312 21.0198 151.428 21.3004 151.635 21.5073L153.748 23.6199C153.955 23.8266 154.235 23.9427 154.528 23.9426H161.891C162.184 23.9427 162.464 23.8266 162.671 23.6199L164.783 21.5073C164.99 21.3004 165.107 21.0198 165.107 20.7272V11.1608C165.107 10.8682 164.99 10.5876 164.783 10.3807ZM162.348 20.6345C162.348 20.7069 162.334 20.7787 162.306 20.8456C162.278 20.9126 162.238 20.9734 162.187 21.0246C162.135 21.0758 162.074 21.1165 162.008 21.1442C161.941 21.1719 161.869 21.1862 161.796 21.1862H154.624C154.552 21.1862 154.48 21.1719 154.413 21.1442C154.346 21.1165 154.285 21.0758 154.234 21.0246C154.183 20.9734 154.142 20.9126 154.114 20.8456C154.087 20.7787 154.072 20.7069 154.072 20.6345V11.2552C154.072 11.1088 154.13 10.9685 154.234 10.865C154.337 10.7616 154.478 10.7034 154.624 10.7034H161.796C161.943 10.7034 162.083 10.7616 162.187 10.865C162.29 10.9685 162.348 11.1088 162.348 11.2552V20.6345Z" fill="#001E28"/>
<path d="M119.02 7.94482H116.482C116.452 7.94482 116.424 7.95645 116.404 7.97714C116.383 7.99784 116.371 8.0259 116.371 8.05517V14.0138C116.371 14.1601 116.313 14.3004 116.21 14.4039C116.106 14.5074 115.966 14.5655 115.82 14.5655H108.647C108.501 14.5655 108.361 14.5074 108.257 14.4039C108.154 14.3004 108.095 14.1601 108.095 14.0138V8.05517C108.095 8.0259 108.084 7.99784 108.063 7.97714C108.042 7.95645 108.014 7.94482 107.985 7.94482H105.447C105.418 7.94482 105.39 7.95645 105.369 7.97714C105.348 7.99784 105.337 8.0259 105.337 8.05517V23.8345C105.337 23.8637 105.348 23.8918 105.369 23.9125C105.39 23.9332 105.418 23.9448 105.447 23.9448H107.985C108.014 23.9448 108.042 23.9332 108.063 23.9125C108.084 23.8918 108.095 23.8637 108.095 23.8345V17.8759C108.095 17.7295 108.154 17.5892 108.257 17.4857C108.361 17.3823 108.501 17.3241 108.647 17.3241H115.82C115.966 17.3241 116.106 17.3823 116.21 17.4857C116.313 17.5892 116.371 17.7295 116.371 17.8759V23.8345C116.371 23.8637 116.383 23.8918 116.404 23.9125C116.424 23.9332 116.452 23.9448 116.482 23.9448H119.02C119.049 23.9448 119.077 23.9332 119.098 23.9125C119.118 23.8918 119.13 23.8637 119.13 23.8345V8.05517C119.13 8.0259 119.118 7.99784 119.098 7.97714C119.077 7.95645 119.049 7.94482 119.02 7.94482Z" fill="#001E28"/>
<path d="M181.536 11.1608C181.536 10.8683 181.42 10.5877 181.213 10.3807L179.145 8.26813C178.938 8.06138 178.657 7.94529 178.365 7.94537H167.852C167.823 7.94537 167.795 7.957 167.774 7.97769C167.753 7.99839 167.742 8.02645 167.742 8.05572V23.8345C167.742 23.8637 167.753 23.8918 167.774 23.9125C167.795 23.9332 167.823 23.9448 167.852 23.9448H170.39C170.419 23.9448 170.447 23.9332 170.468 23.9125C170.489 23.8918 170.5 23.8637 170.5 23.8345V17.8698C170.502 17.7326 170.554 17.6007 170.647 17.5C170.741 17.3994 170.868 17.337 171.005 17.3252H174.572L178.392 23.9448H181.576L177.756 17.3241H178.363C178.656 17.3242 178.936 17.2081 179.143 17.0014L181.213 14.8888C181.419 14.6818 181.536 14.4012 181.535 14.1087L181.536 11.1608ZM178.777 14.0154C178.777 14.1618 178.719 14.3021 178.616 14.4056C178.512 14.509 178.372 14.5672 178.226 14.5672H171.048C170.903 14.5672 170.763 14.5097 170.66 14.4073C170.557 14.3049 170.498 14.1659 170.497 14.0204V11.2502C170.498 11.1057 170.556 10.9675 170.658 10.8652C170.76 10.763 170.898 10.7049 171.043 10.7034H178.225C178.371 10.7034 178.512 10.7616 178.615 10.865C178.719 10.9685 178.777 11.1088 178.777 11.2552L178.777 14.0154Z" fill="#001E28"/>
<path d="M187.512 10.7034H196.781C196.81 10.7034 196.838 10.6918 196.859 10.6711C196.879 10.6504 196.891 10.6224 196.891 10.5931V8.05517C196.891 8.0259 196.879 7.99784 196.859 7.97714C196.838 7.95645 196.81 7.94482 196.781 7.94482H187.417C187.125 7.94474 186.844 8.06083 186.637 8.26758L184.525 10.3801C184.318 10.5871 184.202 10.8677 184.202 11.1603V20.7272C184.202 21.0197 184.318 21.3003 184.525 21.5073L186.637 23.6199C186.844 23.8266 187.125 23.9427 187.417 23.9426H196.779C196.808 23.9426 196.836 23.931 196.857 23.9103C196.878 23.8896 196.889 23.8615 196.889 23.8323V21.2965C196.889 21.2673 196.878 21.2392 196.857 21.2185C196.836 21.1978 196.808 21.1862 196.779 21.1862H187.51C187.438 21.1862 187.366 21.1719 187.299 21.1442C187.232 21.1165 187.171 21.0758 187.12 21.0246C187.069 20.9734 187.028 20.9126 187 20.8456C186.973 20.7787 186.958 20.7069 186.958 20.6345V17.8759C186.958 17.7295 187.016 17.5892 187.12 17.4857C187.223 17.3823 187.364 17.3241 187.51 17.3241L194.02 17.3197C194.05 17.3197 194.078 17.3081 194.098 17.2874C194.119 17.2667 194.131 17.2386 194.131 17.2094V14.6714C194.131 14.6422 194.119 14.6141 194.098 14.5934C194.078 14.5727 194.05 14.5611 194.02 14.5611L187.51 14.5655C187.364 14.5655 187.223 14.5074 187.12 14.4039C187.016 14.3004 186.958 14.1601 186.958 14.0138V11.2552C186.958 11.1826 186.973 11.1107 187 11.0437C187.028 10.9766 187.069 10.9157 187.121 10.8645C187.172 10.8132 187.233 10.7726 187.3 10.745C187.367 10.7173 187.439 10.7032 187.512 10.7034Z" fill="#001E28"/>
<path d="M6.75973 17.6298C6.61732 16.8223 6.58152 15.9997 6.65325 15.1829L0.0612511 14.6058C-0.182939 17.4038 0.313104 20.2168 1.4996 22.7625L7.49739 19.9663C7.15 19.2232 6.90198 18.4376 6.75973 17.6298Z" fill="#001E28"/>
<path d="M8.816 22.0292L3.74731 26.2825C5.2521 28.0678 7.12665 29.5051 9.24138 30.4949L12.037 24.4965C10.7975 23.9168 9.69855 23.075 8.816 22.0292Z" fill="#001E28"/>
<path d="M17.6298 25.2408C16.8221 25.3831 15.9993 25.4187 15.1823 25.3468L14.6052 31.9388C15.9983 32.0611 17.4014 31.9997 18.7785 31.7561C19.2414 31.6745 19.6949 31.5724 20.1407 31.4538L18.4276 25.0615C18.1666 25.1316 17.9012 25.1928 17.6298 25.2408Z" fill="#001E28"/>
<path d="M14.3707 6.76027C15.473 6.56459 16.6014 6.56889 17.7021 6.77296L20.5451 0.662066C18.17 -0.0458985 15.6623 -0.188921 13.2221 0.244411C6.91199 1.35724 2.1153 6.04745 0.547852 11.8621L6.93958 13.5724C7.85875 10.1633 10.6703 7.41241 14.3707 6.76027Z" fill="#001E28"/>
<path d="M22.0281 23.1846L26.2825 28.2527C27.3514 27.3528 28.2986 26.3175 29.1001 25.173L23.6828 21.3799C23.2119 22.0507 22.6557 22.6574 22.0281 23.1846Z" fill="#001E28"/>
<path d="M31.9382 14.6058L25.3456 15.1829C25.3936 15.7271 25.3936 16.2745 25.3456 16.8188L31.9393 17.3959C32.0206 16.4676 32.0202 15.534 31.9382 14.6058Z" fill="#001E28"/>
<path d="M23.4598 0L17.3037 13.2022L43.9156 0H23.4598Z" fill="#FF0046"/>
</g>
<defs>
<clipPath id="clip0_1238_3041">
<rect width="196.889" height="32" fill="white"/>
</clipPath>
</defs>
</svg>
