<svg width="20" height="20" viewBox="0 0 20 20" fill="none" xmlns="http://www.w3.org/2000/svg">
<path d="M20.0004 19.0042V20.0003H19.0287L15.4721 15.1907H11.3159L9.00726 16.9095V20.0003H7.63324V16.222L10.8578 13.8196H16.1645L20.0004 19.0042ZM5.45258 10.3831H13.8012L14.7172 11.7562H4.88519L2.27679 9.15363L3.24652 8.18195L5.45258 10.3831ZM10.725 2.82452C12.4325 2.82452 13.8168 4.20888 13.8168 5.91632C13.8167 7.62363 12.4324 9.00714 10.725 9.00714C9.01847 9.00537 7.63509 7.62287 7.63324 5.91632C7.63324 4.20893 9.01767 2.82461 10.725 2.82452ZM7.9223 1.04718L1.0473 7.9173L0.0765991 6.94562L6.9516 0.0755005L7.9223 1.04718ZM10.725 4.21417C9.77818 4.21507 9.01048 4.98185 9.00922 5.92902C9.00892 6.6231 9.42668 7.24908 10.0678 7.51495C10.7088 7.78073 11.447 7.63425 11.9379 7.14386C12.4289 6.65314 12.5765 5.9141 12.311 5.27277C12.0453 4.6316 11.4191 4.21417 10.725 4.21417ZM17.9389 0.0764771C19.0771 0.0764771 20.0002 0.998895 20.0004 2.13702C20.0004 3.27532 19.0772 4.19855 17.9389 4.19855C16.8006 4.19853 15.8784 3.27531 15.8784 2.13702C15.8786 0.998906 16.8007 0.0764956 17.9389 0.0764771ZM17.9389 1.4505C17.5596 1.45052 17.2526 1.75777 17.2524 2.13702C17.2524 2.51644 17.5595 2.82451 17.9389 2.82452C18.3183 2.82452 18.6264 2.51646 18.6264 2.13702C18.6262 1.75776 18.3182 1.4505 17.9389 1.4505Z" fill="#001E28"/>
</svg>
