<svg width="24" height="16" viewBox="0 0 24 16" fill="none" xmlns="http://www.w3.org/2000/svg">
<path d="M18.0679 16H23.9999V1.90735e-06H18.0679V16Z" fill="#ED2224"/>
<path d="M0 16.0001H5.934V9.34601e-05H0V16.0001Z" fill="#ED2224"/>
<mask id="mask0_2_559" style="mask-type:luminance" maskUnits="userSpaceOnUse" x="0" y="0" width="24" height="16">
<path d="M0 16.0001H24V9.34601e-05H0V16.0001Z" fill="white"/>
</mask>
<g mask="url(#mask0_2_559)">
<path d="M12.2763 10.5817C12.2103 10.5807 12.1093 10.6434 12.1093 10.725L12.1683 13.113H11.8003L11.9003 10.72C11.9013 10.6404 11.7903 10.5807 11.7233 10.5817C10.9703 10.6722 10.2963 10.7528 9.54335 10.8434L9.73435 10.1887C9.76535 10.0752 9.72135 9.94886 9.63535 9.8802L7.44935 8.03244L7.90235 7.81254C8.10135 7.73791 8.04535 7.6205 7.97435 7.3409L7.64035 6.0802L8.91035 6.35682C9.03435 6.37572 9.11635 6.29413 9.13535 6.21751L9.29835 5.62349L10.3033 6.79165C10.4453 6.97871 10.7353 6.97871 10.6453 6.54687L10.2163 4.17771L10.7913 4.48717C10.9533 4.58169 11.1143 4.59762 11.2043 4.42846L11.9993 2.88816L12.7963 4.42846C12.7963 4.42846 13.0473 4.58169 13.2093 4.48717L13.7833 4.17771L13.3543 6.54687C13.2643 6.97871 13.5533 6.97871 13.6963 6.79165L14.7003 5.62349L14.8633 6.21751C14.8823 6.29413 14.9653 6.37572 15.0893 6.35682L16.3593 6.0802L16.0253 7.3409C15.9553 7.6205 15.8983 7.73791 16.0973 7.81254L16.5503 8.03244L14.3643 9.8802C14.2773 9.94886 14.2343 10.0752 14.2643 10.1887L14.4573 10.8434C13.7033 10.7528 13.0283 10.6722 12.2763 10.5817ZM5.93335 15.9996H18.0673V-0.000394821H5.93335V15.9996Z" fill="#FAFAFA"/>
</g>
<mask id="mask1_2_559" style="mask-type:luminance" maskUnits="userSpaceOnUse" x="0" y="0" width="24" height="16">
<path d="M0 16.0001H24V9.34601e-05H0V16.0001Z" fill="white"/>
</mask>
<g mask="url(#mask1_2_559)">
<path d="M14.3643 9.8802L16.5513 8.03344L16.0973 7.81154C15.8983 7.73791 15.9543 7.6215 16.0253 7.3409L16.3593 6.07921L15.0903 6.35682C14.9663 6.37672 14.8833 6.29413 14.8643 6.21652L14.7003 5.62249L13.6963 6.79164C13.5533 6.97871 13.2643 6.97871 13.3543 6.54687L13.7833 4.17871L13.2093 4.48816C13.0473 4.58169 12.7963 4.42946 12.7963 4.42946L11.9993 2.88717L11.2043 4.42946C11.1143 4.59662 10.9533 4.58169 10.7913 4.48816L10.2163 4.17871L10.6453 6.54687C10.7353 6.97871 10.4463 6.97871 10.3033 6.79164L9.29934 5.62249L9.13534 6.21652C9.11634 6.29413 9.03434 6.37672 8.91034 6.35682L7.64034 6.07921L7.97434 7.3409C8.04534 7.6215 8.10134 7.73791 7.90234 7.81154L7.44934 8.03344L9.63534 9.8802C9.72134 9.94985 9.76534 10.0752 9.73534 10.1906L9.54334 10.8424C10.2963 10.7518 10.9703 10.6712 11.7233 10.5817C11.7903 10.5807 11.9013 10.6394 11.9003 10.72L11.8013 13.113H12.1683L12.1093 10.725C12.1093 10.6454 12.2103 10.5807 12.2763 10.5817C13.0293 10.6712 13.7033 10.7518 14.4563 10.8424L14.2643 10.1906C14.2343 10.0752 14.2783 9.94985 14.3643 9.8802Z" fill="#ED2224"/>
</g>
</svg>
