<svg width="24" height="16" viewBox="0 0 24 16" fill="none" xmlns="http://www.w3.org/2000/svg">
<g clip-path="url(#clip0_986_17520)">
<mask id="mask0_986_17520" style="mask-type:luminance" maskUnits="userSpaceOnUse" x="0" y="0" width="24" height="16">
<path d="M0 16H24V1.90735e-06H0V16Z" fill="white"/>
</mask>
<g mask="url(#mask0_986_17520)">
<path d="M12 3.97712C14.233 3.97712 16.043 5.77911 16.043 8C16.043 10.2209 14.233 12.0229 12 12.0229C9.767 12.0229 7.957 10.2209 7.957 8C7.957 5.77911 9.767 3.97712 12 3.97712ZM0 16H24V1.90735e-06H0V16Z" fill="#E52E34"/>
</g>
<mask id="mask1_986_17520" style="mask-type:luminance" maskUnits="userSpaceOnUse" x="0" y="0" width="24" height="16">
<path d="M0 16H24V1.90735e-06H0V16Z" fill="white"/>
</mask>
<g mask="url(#mask1_986_17520)">
<path d="M12.0001 11.0171C13.0111 11.0171 13.9061 10.5246 14.4571 9.76833C14.0241 10.1673 13.4461 10.4141 12.8101 10.4141C11.4691 10.4141 10.3831 9.33351 10.3831 8.00017C10.3831 6.66684 11.4691 5.58624 12.8101 5.58624C13.4461 5.58624 14.0241 5.83301 14.4571 6.23301C13.9061 5.4758 13.0111 4.98326 12.0001 4.98326C10.3251 4.98326 8.96811 6.33351 8.96811 8.00017C8.96811 9.66684 10.3251 11.0171 12.0001 11.0171Z" fill="#E52E34"/>
</g>
<mask id="mask2_986_17520" style="mask-type:luminance" maskUnits="userSpaceOnUse" x="0" y="0" width="24" height="16">
<path d="M0 16H24V1.90735e-06H0V16Z" fill="white"/>
</mask>
<g mask="url(#mask2_986_17520)">
<path d="M14.2812 9.06399L13.0232 8.65802L12.2462 9.7217V8.40628L10.9892 8.00031L12.2462 7.59334V6.27891L13.0232 7.3426L14.2812 6.93563L13.5042 8.00031L14.2812 9.06399ZM12.0002 11.0172C10.3242 11.0172 8.96821 9.66498 8.96821 8.00031C8.96821 6.33364 10.3242 4.9824 12.0002 4.9824C13.0102 4.9824 13.9062 5.47593 14.4572 6.23314C14.0232 5.83215 13.4452 5.58638 12.8082 5.58638C11.4682 5.58638 10.3832 6.66697 10.3832 8.00031C10.3832 9.33364 11.4682 10.4132 12.8082 10.4132C13.4452 10.4132 14.0232 10.1665 14.4572 9.76847C13.9062 10.5247 13.0102 11.0172 12.0002 11.0172ZM12.0002 3.97742C9.76621 3.97742 7.95721 5.77842 7.95721 8.00031C7.95721 10.2222 9.76621 12.0232 12.0002 12.0232C14.2322 12.0232 16.0432 10.2222 16.0432 8.00031C16.0432 5.77842 14.2322 3.97742 12.0002 3.97742Z" fill="white"/>
</g>
<mask id="mask3_986_17520" style="mask-type:luminance" maskUnits="userSpaceOnUse" x="0" y="0" width="24" height="16">
<path d="M0 16H24V1.90735e-06H0V16Z" fill="white"/>
</mask>
<g mask="url(#mask3_986_17520)">
<path d="M12.5195 7.91162H12.5355L12.5175 7.89869L12.5195 7.91162Z" fill="#E51E25"/>
</g>
<mask id="mask4_986_17520" style="mask-type:luminance" maskUnits="userSpaceOnUse" x="0" y="0" width="24" height="16">
<path d="M0 16H24V1.90735e-06H0V16Z" fill="white"/>
</mask>
<g mask="url(#mask4_986_17520)">
<path d="M12.6396 7.76827L12.5796 7.72549L12.5636 7.823L12.6436 7.7822L12.6396 7.76827Z" fill="#E51E25"/>
</g>
<mask id="mask5_986_17520" style="mask-type:luminance" maskUnits="userSpaceOnUse" x="0" y="0" width="24" height="16">
<path d="M0 16H24V1.90735e-06H0V16Z" fill="white"/>
</mask>
<g mask="url(#mask5_986_17520)">
<path d="M12.6436 7.78185L12.5636 7.82364L12.5096 7.8515L12.4756 7.86841L12.5176 7.89926L12.5346 7.9112L12.6576 7.99976L12.7326 7.94602L12.8156 7.69329L12.6436 7.78185Z" fill="#E52E34"/>
</g>
<mask id="mask6_986_17520" style="mask-type:luminance" maskUnits="userSpaceOnUse" x="0" y="0" width="24" height="16">
<path d="M0 16H24V1.90735e-06H0V16Z" fill="white"/>
</mask>
<g mask="url(#mask6_986_17520)">
<path d="M12.6571 8.00009L12.4751 8.13143L12.6431 8.21899L12.7331 7.94536L12.6571 8.00009Z" fill="#E51E25"/>
</g>
<mask id="mask7_986_17520" style="mask-type:luminance" maskUnits="userSpaceOnUse" x="0" y="0" width="24" height="16">
<path d="M0 16H24V1.90735e-06H0V16Z" fill="white"/>
</mask>
<g mask="url(#mask7_986_17520)">
<path d="M14.2811 6.93585L13.0231 7.34282L12.2461 6.27814V7.59357L10.9891 7.99954L12.2461 8.4065V9.72192L13.0231 8.65725L14.2811 9.06421L13.5041 7.99954L14.2811 6.93585Z" fill="#E52E34"/>
</g>
</g>
<defs>
<clipPath id="clip0_986_17520">
<rect width="24" height="16" fill="white"/>
</clipPath>
</defs>
</svg>
