<svg width="24" height="16" viewBox="0 0 24 16" fill="none" xmlns="http://www.w3.org/2000/svg">
<g clip-path="url(#clip0_915_15)">
<path d="M0 16H24V0H0V16Z" fill="#FFE01B"/>
<path d="M0.959961 14.7204H4.20496V1.26766H0.959961V14.7204Z" fill="#006A53"/>
<path d="M4.20605 1.26766H7.45205V14.7204H4.20605V1.26766Z" fill="#F4812A"/>
<path d="M8.41699 14.7204H23.036V1.26766H8.41699V14.7204Z" fill="#A9273D"/>
<mask id="mask0_915_15" style="mask-type:luminance" maskUnits="userSpaceOnUse" x="0" y="0" width="24" height="16">
<path d="M0 16H24V0H0V16Z" fill="white"/>
</mask>
<g mask="url(#mask0_915_15)">
<path d="M16.293 7.41943C16.686 7.34679 17.338 7.51197 17.848 7.37465C18.303 7.25127 18.808 7.4463 19.2 7.30202C19.39 7.23237 19.797 7.21545 19.818 6.78858C19.835 6.47018 19.522 6.25923 18.858 6.4045C18.197 6.54878 17.564 6.54878 17.178 6.3249C16.793 6.10102 16.749 6.46918 16.793 6.60052C16.451 6.33187 16.553 6.0861 16.684 5.93386C15.927 5.10202 16.822 4.42938 17.615 4.42938C18.393 4.42938 18.75 4.68212 19.36 5.13087C19.539 5.26222 19.924 5.67714 20.051 5.60152C19.92 5.31595 20.341 5.15376 20.44 5.48908C20.517 5.7458 20.306 5.96371 20.008 5.906C19.542 5.81445 19.593 5.57963 19.077 5.25426C19.193 5.3448 19.041 5.56868 19.338 5.67714C19.084 5.70998 18.8 5.5259 18.72 5.28311C18.684 5.55774 18.495 5.68112 18.27 5.64431C18.589 5.26819 18.4 4.97863 18.059 4.87018C18.342 5.25426 18.037 5.63734 17.637 5.63734C17.957 5.305 17.811 4.98659 17.513 4.84132C17.41 4.79157 17.273 4.78361 17.338 4.85625C17.404 4.92888 17.346 5.15973 17.208 5.20351C17.215 4.93585 16.826 5.0055 16.749 5.20351C16.689 5.36271 16.698 5.51097 16.917 5.64431C17.069 5.305 17.52 5.37664 17.513 5.54381C17.135 5.60848 17.2 5.91197 17.36 6.05724C17.367 5.91197 17.542 5.78162 17.644 5.83336C17.571 6.20948 18.109 6.19455 18.502 6.15177C18.895 6.10799 19.375 5.94878 19.811 6.1657C20.248 6.38261 20.393 7.10699 19.782 7.45426C20.393 8.16371 20.131 8.91595 19.87 9.65525C19.612 10.3796 19.884 10.8403 20.044 10.8403C20.153 10.8403 20.211 10.8771 20.175 10.9926C20.094 11.2513 19.782 11.2334 19.768 11.5428C19.753 11.8553 20.109 11.9995 19.957 12.1508C19.695 12.1508 19.664 12.113 19.589 12.0095C19.535 12.101 19.524 12.1508 19.397 12.1508C19.272 12.1508 19.211 12.107 19.168 12.0095C19.104 12.1189 19.047 12.1508 18.946 12.1508C18.829 12.1508 18.804 12.103 18.772 12.0095C18.706 12.104 18.622 12.1508 18.495 12.1508C18.495 11.7687 18.931 11.6951 19.084 11.6662C19.237 11.6373 19.273 11.5498 19.273 11.4562C19.273 11.3617 19.266 11.1667 19.251 10.9796C19.231 10.71 18.903 10.5508 18.587 10.3468C18.505 10.498 18.335 10.5806 18.466 10.7766C18.564 10.9219 18.764 10.8771 18.786 10.7975C18.917 11.1458 18.298 11.2543 18.495 11.7199C18.564 11.8831 18.55 11.9657 18.46 12.1458C18.258 12.1458 18.193 12.1329 18.102 12.0244C18.044 12.1219 18.04 12.1647 17.885 12.1647C17.746 12.1647 17.735 12.0752 17.706 12.0065C17.655 12.0891 17.651 12.1458 17.506 12.1458C17.378 12.1458 17.367 12.107 17.316 12.0065C17.229 12.1189 17.127 12.1498 17.015 12.1458C17.015 11.8712 17.222 11.713 17.455 11.7418C17.689 11.7727 17.796 11.702 17.84 11.5657C17.884 11.4274 17.804 11.297 17.84 11.0503C17.914 10.5518 17.108 10.1816 17.258 9.57565C16.421 9.57565 15.815 10.1319 15.299 10.2393C15.199 10.4234 15.102 10.5776 15.047 10.6742C14.873 10.9856 15.251 11.0662 15.447 11.0145C15.389 11.2642 15.189 11.4125 15.003 11.4493C14.818 11.4851 14.814 11.5796 14.88 11.71C14.945 11.8393 14.923 11.9269 14.767 12.1488C14.455 12.1488 14.451 12.0861 14.418 12.0314C14.367 12.0712 14.345 12.1488 14.2 12.1488C14.023 12.1488 14.02 12.1219 13.953 12.0314C13.883 12.111 13.876 12.1488 13.738 12.1488C13.6 12.1488 13.591 12.1199 13.549 12.0314C13.491 12.104 13.454 12.1488 13.287 12.1488C13.443 11.2174 13.993 12.0214 14.305 11.4413C14.439 11.1955 14.264 10.8503 14.142 10.4463C13.925 10.3528 13.724 10.2363 13.57 10.1169C13.025 10.8622 12.748 10.2324 12.574 10.0811C12.381 9.91495 12.309 10.0921 12.341 10.1946C12.229 10.0712 12.178 9.98858 12.218 9.71993C12.258 9.45127 12.116 9.40152 11.825 9.3657C11.534 9.32789 11.527 8.95276 11.512 8.6045C11.498 8.25724 12.043 8.35873 12.094 8.40948C12.37 8.68411 12.742 9.03834 12.99 9.30998C12.779 8.58858 13.191 7.80251 13.865 7.43635C14.098 7.30898 14.138 7.16172 14.025 7.0851C13.945 7.03038 13.789 7.19356 13.825 7.29107C13.6 7.17863 13.676 7.02042 13.582 6.94381C13.6 7.02042 13.531 7.13883 13.556 7.21147C13.52 7.12092 13.407 7.14978 13.363 6.95077C13.24 7.04829 13.112 7.07018 12.989 7.05227C13.145 6.98659 13.073 6.87913 13.134 6.8463C12.949 6.95873 12.742 6.8861 12.647 6.94779C12.789 6.8463 12.716 6.54878 12.895 6.40052C12.825 6.35674 12.778 6.306 12.756 6.24928C12.71 6.12789 12.752 6.03137 13.003 6.18062C13.266 6.33585 13.644 6.46222 14.036 6.47714C13.905 6.27416 13.732 6.18659 13.698 5.96669C13.647 6.07217 13.647 6.15177 13.684 6.2453C13.636 6.14381 13.491 6.17366 13.393 5.97764C13.425 6.05724 13.393 6.13684 13.436 6.2055C13.134 6.10102 13.21 5.98162 12.978 5.79356C12.692 5.56172 12.807 5.47117 12.738 5.35575C12.675 5.24928 12.662 4.97465 12.934 4.92888C13.156 4.89008 13.28 5.17465 13.152 5.29008C13.247 5.21047 13.449 5.27018 13.593 5.19256C13.8 5.08013 13.945 5.27913 14.171 4.97465C14.251 4.86719 14.124 4.79057 14.16 4.71893C14.182 4.81943 14.578 4.61545 14.749 4.8453C14.905 5.05525 15 4.73684 14.88 4.56669C14.993 4.67913 15.229 4.55575 15.44 4.93187C15.433 4.83436 15.589 4.74381 15.52 4.59555C15.738 4.65724 15.901 4.74878 15.96 4.8453C16.043 4.98261 16.309 4.93585 16.415 4.66719C16.451 4.91694 16.356 5.09505 16.153 5.31197C16.364 5.51396 16.338 5.83435 16.302 6.02241C16.299 6.01047 16.306 6.03236 16.302 6.02241C16.342 6.17764 16.262 6.47714 16.287 6.58958C16.282 6.55674 16.252 6.5259 16.211 6.48908C16.178 6.76072 16.364 6.86421 16.294 7.06321C16.309 7.00948 16.231 6.94679 16.127 6.87515C16.095 7.07416 16.211 7.29804 16.309 7.31296C16.286 7.32092 16.263 7.32689 16.24 7.33087C16.254 7.36271 16.272 7.39256 16.293 7.41943Z" fill="#FFE01B"/>
<path d="M18.7853 10.7732L18.7933 10.7951C18.8543 10.9593 18.7553 11.0698 18.6493 11.1882C18.5253 11.3275 18.3973 11.4688 18.5023 11.7175C18.5393 11.8071 18.5523 11.8717 18.5433 11.9374C18.6643 11.7374 18.9443 11.6847 19.0703 11.6618L19.0833 11.6598C19.2473 11.628 19.2653 11.5285 19.2653 11.4568C19.2653 11.3583 19.2583 11.1643 19.2443 10.9792C19.2253 10.7533 18.9933 10.6081 18.7223 10.4399C18.6793 10.414 18.6343 10.3862 18.5903 10.3573C18.5673 10.3961 18.5423 10.429 18.5153 10.4628C18.4423 10.5533 18.3793 10.6329 18.4723 10.7722C18.5123 10.8309 18.5743 10.8638 18.6443 10.8638C18.7093 10.8638 18.7673 10.8349 18.7783 10.7951L18.7853 10.7732ZM17.7073 11.9911L17.7133 12.0031C17.7173 12.013 17.7213 12.023 17.7233 12.0339C17.7473 12.0936 17.7693 12.1583 17.8853 12.1583C18.0173 12.1583 18.0353 12.1265 18.0773 12.0528C18.0833 12.0419 18.0893 12.0329 18.0963 12.02L18.1003 12.011L18.1073 12.019C18.1953 12.1235 18.2583 12.1384 18.4553 12.1394C18.4753 12.0956 18.4923 12.0618 18.5033 12.0329C18.5073 12.018 18.5123 12.0051 18.5153 11.9931C18.5423 11.9056 18.5353 11.8339 18.4873 11.7235C18.3803 11.4658 18.5163 11.3125 18.6393 11.1772C18.7363 11.0678 18.8303 10.9633 18.7853 10.818C18.7633 10.8538 18.7073 10.8787 18.6443 10.8787C18.5683 10.8787 18.5023 10.8429 18.4603 10.7802C18.3603 10.6319 18.4313 10.5454 18.5043 10.4518C18.5303 10.419 18.5583 10.3832 18.5813 10.3434L18.5843 10.3374L18.5923 10.3404C18.6383 10.3712 18.6833 10.4001 18.7283 10.427C18.9933 10.5902 19.2403 10.7454 19.2593 10.9782C19.2723 11.1643 19.2803 11.3583 19.2803 11.4568C19.2803 11.5782 19.2173 11.6489 19.0863 11.6737L19.0733 11.6757C18.9393 11.7016 18.6263 11.7593 18.5303 11.9971C18.5263 12.0101 18.5223 12.023 18.5163 12.0379C18.5083 12.0707 18.5033 12.1056 18.5033 12.1434C18.6193 12.1414 18.6993 12.0996 18.7643 12.0061L18.7733 11.9951L18.7783 12.0071C18.8093 12.0966 18.8323 12.1434 18.9453 12.1434C19.0483 12.1434 19.0993 12.1105 19.1613 12.0061L19.1693 11.9951L19.1753 12.0071C19.2193 12.1066 19.2793 12.1434 19.3963 12.1434C19.5043 12.1434 19.5233 12.1086 19.5633 12.0379C19.5693 12.028 19.5773 12.017 19.5833 12.0061L19.5893 11.9961L19.5963 12.0051C19.6683 12.1056 19.6953 12.1434 19.9543 12.1434C20.0233 12.0717 19.9723 12.0011 19.9033 11.9056C19.8373 11.812 19.7533 11.6986 19.7613 11.5424C19.7683 11.3683 19.8713 11.2936 19.9703 11.222C20.0503 11.1653 20.1333 11.1046 20.1683 10.9911C20.1823 10.9434 20.1813 10.9086 20.1653 10.8857C20.1463 10.8608 20.1063 10.8489 20.0443 10.8489C19.9963 10.8489 19.9393 10.8101 19.8913 10.7414C19.7643 10.5613 19.6803 10.1693 19.8623 9.65184C20.1213 8.92249 20.3893 8.16926 19.7763 7.45881L19.7703 7.45184L19.7783 7.44786C20.0433 7.29662 20.1903 7.05483 20.1823 6.78319C20.1763 6.52149 20.0283 6.28169 19.8073 6.17224C19.6593 6.09761 19.4903 6.06179 19.2953 6.06179C19.1153 6.06179 18.9383 6.09065 18.7673 6.1195C18.6763 6.13443 18.5883 6.14936 18.5033 6.15831C18.3703 6.17324 18.2593 6.1802 18.1603 6.1802C17.9133 6.1802 17.7563 6.13642 17.6803 6.04488C17.6363 5.99115 17.6203 5.92149 17.6363 5.83692C17.6233 5.83194 17.6083 5.82896 17.5943 5.82896C17.4993 5.82896 17.3743 5.93642 17.3683 6.05781L17.3673 6.07274L17.3543 6.06279C17.2723 5.98717 17.1993 5.85184 17.2343 5.72946C17.2563 5.6598 17.3183 5.57025 17.5063 5.53742C17.5053 5.51453 17.4963 5.49463 17.4773 5.47572C17.4393 5.43592 17.3653 5.41105 17.2863 5.41105C17.2253 5.41105 17.0213 5.42796 16.9243 5.64786L16.9203 5.65483L16.9133 5.65085C16.7203 5.53244 16.6673 5.39413 16.7433 5.2001C16.7863 5.08766 16.9253 5.02 17.0343 5.02C17.0913 5.02 17.1383 5.03791 17.1703 5.07075C17.1993 5.1006 17.2153 5.1414 17.2153 5.19314C17.2853 5.16528 17.3293 5.08766 17.3473 5.02299C17.3653 4.95433 17.3593 4.89065 17.3333 4.8608C17.3153 4.84289 17.3103 4.82697 17.3153 4.81503C17.3213 4.80209 17.3393 4.79513 17.3653 4.79513C17.4073 4.79513 17.4673 4.81105 17.5153 4.83493C17.6813 4.91552 17.7933 5.04488 17.8183 5.18916C17.8453 5.33344 17.7883 5.48567 17.6543 5.62995C17.8553 5.62398 18.0363 5.51951 18.1183 5.35931C18.1943 5.20707 18.1723 5.03493 18.0533 4.87473L18.0393 4.85582L18.0603 4.86378C18.2543 4.92448 18.3883 5.0399 18.4283 5.1802C18.4683 5.31851 18.4183 5.47771 18.2843 5.63891C18.3053 5.64189 18.3243 5.64388 18.3453 5.64388C18.5463 5.64388 18.6823 5.50756 18.7133 5.28169L18.7273 5.2807C18.8033 5.50955 19.0623 5.68667 19.3063 5.67274C19.1443 5.60309 19.1343 5.49164 19.1253 5.40209C19.1193 5.34239 19.1133 5.29264 19.0713 5.2598L19.0813 5.24786C19.3003 5.38518 19.4193 5.50955 19.5143 5.60906C19.6463 5.74637 19.7433 5.84587 20.0103 5.89761C20.0413 5.90358 20.0723 5.90756 20.1023 5.90756C20.2223 5.90756 20.3273 5.8598 20.3893 5.77622C20.4483 5.69662 20.4653 5.59513 20.4323 5.49065C20.3993 5.37722 20.3213 5.30856 20.2243 5.30856C20.1603 5.30856 20.0973 5.34239 20.0623 5.39513C20.0253 5.45184 20.0243 5.52448 20.0573 5.59811L20.0603 5.60408L20.0563 5.60806C20.0443 5.61403 20.0303 5.61801 20.0143 5.61801C19.9043 5.61801 19.7123 5.44587 19.5423 5.29463C19.4723 5.23194 19.4053 5.17324 19.3553 5.13642C18.7613 4.6996 18.4013 4.43592 17.6143 4.43592C17.1133 4.43592 16.6183 4.70159 16.4613 5.05284C16.3763 5.24388 16.3463 5.55135 16.6893 5.92946L16.6933 5.93443L16.6893 5.93941C16.5993 6.04289 16.5593 6.14836 16.5693 6.25284C16.5813 6.36528 16.6513 6.47473 16.7793 6.5802C16.7643 6.51055 16.7673 6.39513 16.8223 6.31851C16.8913 6.22398 17.0163 6.22199 17.1813 6.31851C17.3863 6.43692 17.6653 6.49761 18.0113 6.49761C18.2683 6.49761 18.5543 6.46378 18.8563 6.39712C18.9993 6.36627 19.1303 6.35035 19.2473 6.35035C19.4633 6.35035 19.6293 6.40508 19.7273 6.50756C19.7983 6.5812 19.8323 6.67871 19.8273 6.78916C19.8073 7.14538 19.5263 7.22 19.3203 7.27373C19.2773 7.28567 19.2363 7.29662 19.2033 7.30955C19.0973 7.34836 18.9763 7.36627 18.8213 7.36627C18.7253 7.36627 18.6303 7.35931 18.5273 7.35234C18.4273 7.34637 18.3223 7.33841 18.2203 7.33841C18.0743 7.33841 17.9573 7.35234 17.8493 7.3812C17.7053 7.42 17.5413 7.43891 17.3333 7.43891C17.1903 7.43891 17.0493 7.43095 16.9123 7.42199C16.7853 7.41503 16.6643 7.40806 16.5523 7.40806C16.4483 7.40806 16.3643 7.41403 16.2953 7.42697L16.2903 7.42796L16.2873 7.42398C16.2643 7.39612 16.2483 7.36627 16.2333 7.33344L16.2293 7.32548L16.2383 7.32348C16.2543 7.3205 16.2683 7.31751 16.2853 7.31254C16.2593 7.30159 16.2313 7.27771 16.2083 7.24488C16.1463 7.16229 16.0973 7.01602 16.1203 6.87373L16.1223 6.86179L16.1323 6.86876C16.2083 6.92249 16.2773 6.97423 16.2983 7.02299C16.3133 6.94239 16.2883 6.87672 16.2593 6.80309C16.2243 6.7195 16.1873 6.62498 16.2043 6.48866L16.2063 6.47473L16.2173 6.48368C16.2403 6.50557 16.2623 6.52548 16.2743 6.54438C16.2733 6.49363 16.2813 6.42498 16.2893 6.35433C16.3023 6.23891 16.3163 6.10955 16.2953 6.02498V6.02299C16.2943 6.02 16.2943 6.01702 16.2963 6.01403L16.2973 6.01304C16.3373 5.79811 16.3433 5.50458 16.1473 5.31751L16.1413 5.31254L16.1473 5.30657C16.3293 5.11353 16.4363 4.9414 16.4113 4.69662C16.3383 4.85582 16.2073 4.92746 16.1043 4.92746C16.0393 4.92746 15.9833 4.89861 15.9543 4.84886C15.8973 4.75732 15.7423 4.66776 15.5343 4.60707C15.5653 4.69363 15.5253 4.7603 15.4893 4.82C15.4673 4.85881 15.4443 4.89562 15.4473 4.93145L15.4333 4.93543C15.2963 4.69065 15.1483 4.6598 15.0303 4.63592C14.9833 4.62597 14.9413 4.61702 14.9063 4.59612C14.9543 4.68866 14.9513 4.80508 14.9173 4.87075C14.8983 4.90358 14.8753 4.92149 14.8473 4.92149C14.8133 4.92149 14.7783 4.89761 14.7433 4.84886C14.6853 4.77324 14.5993 4.73841 14.4723 4.73841C14.4203 4.73841 14.3693 4.74339 14.3233 4.74836C14.2863 4.75234 14.2543 4.75632 14.2263 4.75632C14.2033 4.75632 14.1763 4.75433 14.1623 4.73742C14.1573 4.7603 14.1693 4.78418 14.1813 4.81105C14.2023 4.8598 14.2253 4.91353 14.1773 4.97921C14.0523 5.14936 13.9473 5.16329 13.8603 5.16329C13.8443 5.16329 13.8283 5.16229 13.8103 5.16229C13.7953 5.1613 13.7773 5.1603 13.7623 5.1603C13.7153 5.1603 13.6593 5.16528 13.5973 5.19911C13.5233 5.23791 13.4393 5.24289 13.3583 5.24786C13.2783 5.25284 13.2043 5.25682 13.1573 5.29562L13.1473 5.28468C13.1973 5.23891 13.2113 5.15931 13.1813 5.08169C13.1523 5.01204 13.0833 4.93244 12.9743 4.93244C12.9623 4.93244 12.9483 4.93343 12.9353 4.93543C12.8393 4.95234 12.7683 5.0011 12.7333 5.07672C12.6893 5.17125 12.7073 5.28766 12.7443 5.35135C12.7663 5.39015 12.7703 5.42498 12.7743 5.46378C12.7813 5.54239 12.7913 5.63194 12.9823 5.78717C13.0783 5.86378 13.1223 5.92946 13.1603 5.98717C13.2153 6.06776 13.2583 6.13244 13.4213 6.19214C13.4043 6.15831 13.4033 6.12149 13.4023 6.08667C13.4013 6.05184 13.3993 6.01602 13.3863 5.9802L13.3993 5.97423C13.4553 6.08567 13.5243 6.12149 13.5863 6.15334C13.6143 6.16826 13.6403 6.18219 13.6623 6.20209C13.6393 6.1215 13.6493 6.04886 13.6913 5.96428L13.7023 5.94239L13.7063 5.96528C13.7263 6.10358 13.8043 6.18816 13.8913 6.28567C13.9423 6.3414 13.9953 6.39911 14.0433 6.47274L14.0513 6.48468H14.0363C13.6813 6.47174 13.2933 6.3603 13.0003 6.18717C12.9163 6.13741 12.8503 6.11254 12.8063 6.11254C12.7853 6.11254 12.7673 6.1195 12.7583 6.13244C12.7433 6.15533 12.7443 6.19612 12.7643 6.24687C12.7843 6.3006 12.8293 6.35035 12.8983 6.39413L12.9073 6.39911L12.8993 6.40607C12.8073 6.48269 12.7853 6.59811 12.7623 6.70955C12.7443 6.79214 12.7273 6.87075 12.6833 6.92348C12.7223 6.91254 12.7673 6.91154 12.8183 6.90955C12.9143 6.90657 13.0223 6.90259 13.1263 6.84189C13.1263 6.84189 13.1293 6.8399 13.1313 6.83891L13.1393 6.85284L13.1343 6.85483C13.1183 6.86677 13.1133 6.88667 13.1093 6.91154C13.1023 6.95234 13.0943 7.00707 13.0153 7.04786C13.1433 7.0608 13.2553 7.02697 13.3583 6.94538L13.3683 6.93841L13.3713 6.94936C13.3963 7.06876 13.4483 7.10358 13.4933 7.13443C13.5123 7.14637 13.5283 7.15931 13.5433 7.17523C13.5433 7.14339 13.5523 7.10657 13.5603 7.07174C13.5713 7.02597 13.5833 6.9802 13.5743 6.94538L13.5693 6.92448L13.5873 6.93841C13.6243 6.96826 13.6373 7.01204 13.6483 7.05781C13.6693 7.12946 13.6903 7.21005 13.8133 7.27672C13.8073 7.24189 13.8203 7.2001 13.8493 7.15831C13.8883 7.10358 13.9433 7.06677 13.9883 7.06677C14.0043 7.06677 14.0173 7.07075 14.0293 7.07871C14.0733 7.10856 14.0963 7.14836 14.0943 7.19413C14.0893 7.27672 14.0083 7.36727 13.8693 7.44189C13.1723 7.82199 12.7983 8.62398 12.9983 9.30856L12.9843 9.31552C12.8033 9.11552 12.5493 8.86677 12.3243 8.64687C12.2423 8.56528 12.1623 8.48766 12.0893 8.41403C12.0703 8.39612 11.9593 8.36329 11.8323 8.36329C11.7503 8.36329 11.6393 8.37722 11.5743 8.44587C11.5353 8.48567 11.5163 8.53841 11.5193 8.60408L11.5203 8.63294C11.5353 8.97224 11.5503 9.32249 11.8273 9.35732C12.0113 9.3812 12.1293 9.40906 12.1883 9.48766C12.2293 9.5404 12.2423 9.61503 12.2243 9.7205C12.1883 9.96627 12.2273 10.0528 12.3283 10.1683C12.3223 10.1255 12.3323 10.0777 12.3543 10.0469C12.3753 10.019 12.4023 10.0061 12.4343 10.0061C12.4763 10.0061 12.5253 10.029 12.5793 10.0757C12.6093 10.1016 12.6423 10.1414 12.6813 10.1882C12.7823 10.3115 12.9093 10.4658 13.0823 10.4658C13.2303 10.4658 13.3923 10.3474 13.5633 10.1125L13.5683 10.1066L13.5743 10.1105C13.7323 10.2329 13.9343 10.3494 14.1443 10.4399L14.1483 10.4409L14.1493 10.4439C14.1753 10.5285 14.2023 10.6091 14.2283 10.6887C14.3313 10.9882 14.4193 11.2489 14.3113 11.4449C14.1983 11.6548 14.0563 11.6827 13.9313 11.6827C13.8883 11.6827 13.8453 11.6797 13.8033 11.6757C13.7613 11.6717 13.7223 11.6688 13.6813 11.6688C13.4993 11.6688 13.3633 11.7494 13.2963 12.1414C13.4523 12.1404 13.4863 12.0976 13.5433 12.027L13.5513 12.017L13.5593 12.0379C13.5983 12.1185 13.6083 12.1414 13.7373 12.1414C13.8523 12.1414 13.8743 12.1165 13.9203 12.0588C13.9283 12.0489 13.9363 12.0379 13.9463 12.027L13.9533 12.019L13.9593 12.027C13.9653 12.0359 13.9703 12.0419 13.9733 12.0489C14.0263 12.1205 14.0423 12.1414 14.1993 12.1414C14.3063 12.1414 14.3453 12.0986 14.3783 12.0608C14.3893 12.0479 14.4003 12.0369 14.4143 12.026L14.4203 12.02L14.4253 12.028C14.4283 12.0339 14.4313 12.0379 14.4323 12.0429C14.4603 12.0916 14.4863 12.1414 14.7643 12.1414C14.9163 11.9245 14.9363 11.8399 14.8733 11.7125C14.8333 11.6319 14.8233 11.5752 14.8463 11.5305C14.8673 11.4867 14.9183 11.4578 15.0023 11.4419C15.1633 11.411 15.3723 11.2837 15.4363 11.025C15.4033 11.0319 15.3653 11.0379 15.3273 11.0379C15.2153 11.0379 15.0743 11.0021 15.0183 10.9086C14.9803 10.8439 14.9883 10.7643 15.0413 10.6707C15.0603 10.6349 15.0873 10.5902 15.1183 10.5414C15.1683 10.4568 15.2293 10.3513 15.2933 10.2359L15.2943 10.2329H15.2983C15.4893 10.1921 15.6993 10.0877 15.9223 9.97523C16.3023 9.78418 16.7333 9.56727 17.2593 9.56727H17.2673L17.2643 9.57622C17.1853 9.8996 17.3793 10.1543 17.5653 10.4001C17.7283 10.615 17.8833 10.818 17.8483 11.0518C17.8293 11.1772 17.8413 11.2707 17.8503 11.3533C17.8603 11.4309 17.8693 11.4986 17.8483 11.5673C17.7993 11.7205 17.6773 11.7772 17.4543 11.7494C17.4353 11.7474 17.4183 11.7474 17.4003 11.7474C17.1833 11.7474 17.0253 11.9125 17.0223 12.1394H17.0313C17.1483 12.1394 17.2373 12.0956 17.3103 12.0011L17.3173 11.9931L17.3323 12.021C17.3763 12.1096 17.3903 12.1394 17.5073 12.1394C17.6243 12.1394 17.6433 12.1016 17.6783 12.0399C17.6833 12.03 17.6903 12.016 17.6993 12.0021L17.7073 11.9911ZM17.8853 12.1722C17.7603 12.1722 17.7333 12.1006 17.7103 12.0379C17.7083 12.0339 17.7063 12.028 17.7043 12.023C17.6993 12.0329 17.6943 12.0399 17.6903 12.0479C17.6563 12.1096 17.6333 12.1553 17.5073 12.1553C17.3823 12.1553 17.3633 12.1185 17.3183 12.028L17.3143 12.02C17.2403 12.1125 17.1493 12.1553 17.0313 12.1553H17.0143L17.0083 12.1543V12.1464C17.0083 11.9066 17.1733 11.7314 17.4003 11.7314C17.4193 11.7314 17.4363 11.7324 17.4563 11.7344C17.6693 11.7613 17.7873 11.7076 17.8333 11.5623C17.8533 11.4986 17.8463 11.4309 17.8373 11.3553C17.8263 11.2717 17.8133 11.1772 17.8333 11.0499C17.8673 10.822 17.7153 10.623 17.5543 10.4101C17.3673 10.1623 17.1733 9.90756 17.2493 9.58319C16.7313 9.58617 16.3053 9.79911 15.9293 9.98816C15.7073 10.0996 15.4983 10.2061 15.3043 10.2479C15.2423 10.3603 15.1813 10.4638 15.1313 10.5474C15.0993 10.5981 15.0733 10.6419 15.0543 10.6777C15.0043 10.7673 14.9973 10.8419 15.0313 10.9006C15.0843 10.9902 15.2193 11.022 15.3273 11.022C15.3693 11.022 15.4103 11.017 15.4453 11.0071L15.4583 11.0041L15.4553 11.017C15.3903 11.2897 15.1733 11.424 15.0053 11.4568C14.9263 11.4717 14.8783 11.4986 14.8583 11.5384C14.8403 11.5772 14.8473 11.63 14.8873 11.7056C14.9543 11.8399 14.9313 11.9285 14.7733 12.1543L14.7703 12.1573H14.7663C14.4773 12.1573 14.4483 12.1026 14.4203 12.0499C14.4193 12.0479 14.4183 12.0449 14.4163 12.0429C14.4063 12.0508 14.3973 12.0608 14.3893 12.0717C14.3533 12.1125 14.3123 12.1573 14.1993 12.1573C14.0353 12.1573 14.0153 12.1314 13.9623 12.0578C13.9593 12.0528 13.9563 12.0479 13.9523 12.0439C13.9443 12.0528 13.9373 12.0608 13.9313 12.0688C13.8843 12.1275 13.8593 12.1573 13.7373 12.1573C13.6003 12.1573 13.5863 12.1265 13.5483 12.0459C13.4933 12.1135 13.4513 12.1573 13.2873 12.1573H13.2783L13.2793 12.1474C13.3483 11.7374 13.4903 11.6538 13.6813 11.6538C13.7223 11.6538 13.7643 11.6588 13.8043 11.6618C13.8463 11.6648 13.8893 11.6678 13.9313 11.6678C14.0523 11.6678 14.1893 11.6409 14.2993 11.4379C14.4023 11.2469 14.3153 10.9902 14.2153 10.6926C14.1883 10.615 14.1613 10.5354 14.1363 10.4518C13.9293 10.3623 13.7283 10.2479 13.5713 10.1285C13.3963 10.3653 13.2363 10.4807 13.0823 10.4817C12.9013 10.4817 12.7723 10.3235 12.6693 10.1971C12.6323 10.1513 12.5983 10.1125 12.5693 10.0877C12.5173 10.0439 12.4733 10.02 12.4343 10.02C12.4073 10.02 12.3843 10.0319 12.3683 10.0548C12.3433 10.0897 12.3353 10.1464 12.3483 10.1911L12.3363 10.1981C12.2213 10.0727 12.1713 9.98418 12.2113 9.71851C12.2253 9.61702 12.2153 9.54737 12.1773 9.49662C12.1203 9.42299 12.0053 9.39413 11.8253 9.37224C11.5353 9.33742 11.5203 8.97921 11.5063 8.63393L11.5053 8.60508C11.5013 8.53443 11.5203 8.47771 11.5613 8.43493C11.6323 8.36329 11.7473 8.34737 11.8323 8.34737C11.9523 8.34737 12.0733 8.37821 12.0993 8.40408C12.1733 8.47672 12.2533 8.55533 12.3353 8.63592C12.5513 8.84786 12.7943 9.08766 12.9743 9.28269C12.8853 8.94637 12.9253 8.57622 13.0903 8.23692C13.2533 7.89761 13.5273 7.61105 13.8613 7.42995C13.9963 7.35632 14.0743 7.27075 14.0783 7.19413C14.0803 7.15334 14.0603 7.11752 14.0203 7.09065C14.0123 7.08468 14.0013 7.08169 13.9883 7.08169C13.9493 7.08169 13.8963 7.11652 13.8613 7.16727C13.8313 7.21005 13.8203 7.25582 13.8333 7.28866L13.8393 7.30657L13.8213 7.29761C13.6803 7.22697 13.6543 7.13543 13.6353 7.06179C13.6243 7.02398 13.6143 6.99015 13.5923 6.96428C13.5943 6.99811 13.5843 7.03692 13.5743 7.07473C13.5623 7.12349 13.5513 7.17324 13.5633 7.20906L13.5503 7.21403C13.5363 7.18219 13.5133 7.16528 13.4843 7.14637C13.4403 7.11751 13.3883 7.0807 13.3583 6.96428C13.2483 7.04786 13.1253 7.0807 12.9873 7.0598L12.9613 7.05582L12.9853 7.04488C13.0793 7.00707 13.0883 6.95234 13.0953 6.90955C13.0973 6.89562 13.0983 6.88269 13.1033 6.87174C13.0063 6.91851 12.9023 6.92149 12.8183 6.92448C12.7503 6.92647 12.6893 6.92846 12.6513 6.95334L12.6423 6.9414C12.7083 6.89463 12.7263 6.80309 12.7473 6.70657C12.7673 6.6011 12.7933 6.48169 12.8833 6.4011C12.8143 6.35732 12.7693 6.30657 12.7493 6.25184C12.7273 6.19612 12.7263 6.15135 12.7463 6.12448C12.7783 6.07572 12.8703 6.09264 13.0083 6.17324C13.2953 6.34339 13.6733 6.45383 14.0213 6.46876C13.9763 6.4011 13.9293 6.34737 13.8813 6.29562C13.7963 6.20209 13.7223 6.1205 13.6943 5.99115C13.6563 6.0807 13.6553 6.15234 13.6903 6.24289L13.6773 6.24886C13.6573 6.20806 13.6233 6.19015 13.5793 6.16727C13.5273 6.1404 13.4673 6.10856 13.4143 6.02896C13.4163 6.04786 13.4173 6.06776 13.4183 6.08667C13.4193 6.12747 13.4203 6.16627 13.4423 6.20209L13.4543 6.22L13.4333 6.21304C13.2523 6.14936 13.2063 6.08169 13.1473 5.99513C13.1093 5.93841 13.0663 5.87373 12.9733 5.79911C12.7753 5.6399 12.7663 5.54637 12.7603 5.46478C12.7563 5.42697 12.7533 5.39413 12.7313 5.35931C12.6913 5.29264 12.6753 5.16926 12.7203 5.07075C12.7573 4.99015 12.8313 4.93841 12.9323 4.9205C12.9463 4.91851 12.9613 4.91751 12.9743 4.91751C13.0703 4.91751 13.1563 4.97921 13.1933 5.07572C13.2203 5.14239 13.2173 5.21105 13.1853 5.2608C13.2333 5.2399 13.2943 5.23692 13.3573 5.23294C13.4363 5.22796 13.5193 5.22299 13.5893 5.18617C13.6533 5.15135 13.7133 5.14637 13.7623 5.14637C13.7783 5.14637 13.7953 5.14637 13.8113 5.14737C13.8283 5.14836 13.8453 5.14836 13.8603 5.14836C13.9473 5.14836 14.0433 5.13443 14.1653 4.97025C14.2093 4.91154 14.1863 4.86378 14.1673 4.81702C14.1503 4.78219 14.1373 4.74836 14.1533 4.71553L14.1633 4.69662L14.1673 4.71652C14.1703 4.72846 14.1793 4.7414 14.2263 4.7414C14.2533 4.7414 14.2853 4.73841 14.3213 4.73344C14.3683 4.72846 14.4193 4.72249 14.4723 4.72249C14.6043 4.72249 14.6953 4.7603 14.7553 4.8409C14.7873 4.88368 14.8183 4.90657 14.8473 4.90657C14.8753 4.90657 14.8923 4.88368 14.9023 4.86378C14.9393 4.79413 14.9363 4.65881 14.8743 4.57125L14.8863 4.5613C14.9223 4.59712 14.9733 4.60806 15.0343 4.621C15.1513 4.64488 15.2973 4.67572 15.4333 4.90657C15.4393 4.87473 15.4583 4.84488 15.4763 4.81204C15.5143 4.74936 15.5543 4.68468 15.5143 4.59811L15.5073 4.58319L15.5213 4.58816C15.7453 4.65085 15.9063 4.74239 15.9673 4.8409C15.9943 4.88667 16.0453 4.91254 16.1043 4.91254C16.2073 4.91254 16.3413 4.83592 16.4073 4.66478L16.4183 4.63891L16.4223 4.66677C16.4613 4.93045 16.3513 5.10955 16.1633 5.31154C16.3593 5.50557 16.3513 5.80309 16.3093 6.021C16.3103 6.02299 16.3103 6.02597 16.3103 6.02597C16.3313 6.11353 16.3163 6.24189 16.3043 6.35632C16.2943 6.44687 16.2853 6.53145 16.2943 6.58219C16.2943 6.58418 16.2953 6.58617 16.2953 6.58816L16.2793 6.59115C16.2793 6.58916 16.2793 6.58717 16.2783 6.58518C16.2723 6.5603 16.2503 6.53443 16.2183 6.50458C16.2063 6.62896 16.2403 6.71851 16.2713 6.79712C16.3063 6.88169 16.3383 6.96229 16.3023 7.06577L16.2873 7.06179C16.3013 7.01204 16.2203 6.94936 16.1333 6.88866C16.1143 7.02199 16.1633 7.15831 16.2203 7.23592C16.2493 7.27672 16.2813 7.30159 16.3093 7.30557L16.3113 7.31951C16.2923 7.32747 16.2703 7.33244 16.2513 7.33642C16.2643 7.36329 16.2783 7.38816 16.2963 7.41105C16.3673 7.39911 16.4493 7.39314 16.5523 7.39314C16.6643 7.39314 16.7853 7.4001 16.9133 7.40707C17.0503 7.41503 17.1913 7.42398 17.3333 7.42398C17.5403 7.42398 17.7033 7.40607 17.8463 7.36727C17.9553 7.33742 18.0733 7.32448 18.2203 7.32448C18.3223 7.32448 18.4283 7.33145 18.5283 7.33742C18.6313 7.34438 18.7253 7.35135 18.8213 7.35135C18.9743 7.35135 19.0953 7.33244 19.1973 7.29463C19.2313 7.28269 19.2723 7.27174 19.3163 7.2598C19.5173 7.20707 19.7943 7.13344 19.8103 6.78816C19.8163 6.68169 19.7843 6.58816 19.7173 6.51851C19.6213 6.41901 19.4593 6.36528 19.2473 6.36528C19.1313 6.36528 19.0013 6.3812 18.8593 6.41204C18.5563 6.47871 18.2693 6.51254 18.0113 6.51254C17.6623 6.51254 17.3813 6.45184 17.1753 6.33144C17.0173 6.2399 16.8993 6.23891 16.8353 6.32747C16.7763 6.40806 16.7793 6.53642 16.8003 6.59811L16.8073 6.621L16.7883 6.60607C16.6453 6.49463 16.5663 6.37622 16.5563 6.25383C16.5453 6.14737 16.5853 6.0399 16.6743 5.93443C16.3303 5.55234 16.3603 5.2409 16.4473 5.04687C16.6063 4.69065 17.1083 4.421 17.6143 4.421C18.4063 4.421 18.7673 4.68567 19.3643 5.12448C19.4153 5.1613 19.4803 5.22 19.5523 5.28269C19.7123 5.42498 19.9113 5.60309 20.0143 5.60309C20.0243 5.60309 20.0343 5.6011 20.0423 5.59811C20.0093 5.52149 20.0123 5.44687 20.0503 5.38717C20.0883 5.32945 20.1543 5.29363 20.2243 5.29363C20.3293 5.29363 20.4123 5.36627 20.4473 5.48766C20.4793 5.59612 20.4643 5.70159 20.4003 5.78518C20.3363 5.87174 20.2263 5.92249 20.1023 5.92249C20.0713 5.92249 20.0393 5.9195 20.0073 5.91254C19.7343 5.8598 19.6383 5.75931 19.5043 5.61901C19.4153 5.52747 19.3063 5.41304 19.1143 5.28667C19.1323 5.3195 19.1363 5.35931 19.1393 5.4001C19.1493 5.49562 19.1603 5.60508 19.3423 5.67075L19.3403 5.68468C19.3193 5.68766 19.3003 5.68866 19.2793 5.68866C19.0473 5.68866 18.8073 5.52548 18.7233 5.31254C18.6843 5.52946 18.5453 5.65781 18.3453 5.65781C18.3193 5.65781 18.2943 5.65582 18.2673 5.65184L18.2553 5.64985L18.2643 5.6399C18.4003 5.47871 18.4533 5.32149 18.4133 5.18418C18.3763 5.05383 18.2543 4.94637 18.0783 4.88468C18.1883 5.04488 18.2083 5.21503 18.1313 5.36528C18.0453 5.53543 17.8503 5.64488 17.6373 5.64488H17.6193L17.6313 5.63194C17.7693 5.48766 17.8303 5.33542 17.8043 5.19214C17.7783 5.05184 17.6723 4.92647 17.5103 4.84786C17.4633 4.82498 17.4043 4.81005 17.3653 4.81005C17.3463 4.81005 17.3333 4.81403 17.3303 4.821C17.3273 4.82697 17.3323 4.83791 17.3443 4.85085C17.3753 4.88567 17.3823 4.95234 17.3613 5.02697C17.3423 5.09861 17.2923 5.18418 17.2103 5.21005L17.1993 5.21403V5.20309C17.2023 5.15135 17.1873 5.11055 17.1603 5.0807C17.1303 5.05085 17.0873 5.03493 17.0343 5.03493C16.9303 5.03493 16.7983 5.09861 16.7573 5.20607C16.6833 5.39115 16.7303 5.51951 16.9133 5.63393C17.0163 5.41403 17.2233 5.39612 17.2863 5.39612C17.3713 5.39612 17.4463 5.42199 17.4883 5.46577C17.5113 5.48866 17.5213 5.51552 17.5203 5.54339L17.5193 5.54936L17.5143 5.55035C17.3693 5.57523 17.2773 5.63891 17.2503 5.73443C17.2183 5.84388 17.2793 5.96727 17.3533 6.0409C17.3703 5.9195 17.4973 5.81403 17.5943 5.81403C17.6133 5.81403 17.6323 5.81901 17.6463 5.82597L17.6523 5.82896L17.6513 5.83393C17.6363 5.91652 17.6483 5.98418 17.6913 6.03493C17.7643 6.12149 17.9213 6.16528 18.1603 6.16528C18.2583 6.16528 18.3693 6.15831 18.5023 6.14438C18.5863 6.13443 18.6733 6.1205 18.7653 6.10458C18.9363 6.07572 19.1133 6.04687 19.2953 6.04687C19.4933 6.04687 19.6633 6.08368 19.8143 6.15931C20.0403 6.27174 20.1903 6.51552 20.1973 6.78219C20.2063 7.05781 20.0583 7.30259 19.7943 7.45582C20.4033 8.17025 20.1363 8.92647 19.8773 9.65682C19.6953 10.1693 19.7773 10.5553 19.9033 10.7324C19.9493 10.7971 20.0013 10.8349 20.0443 10.8349C20.1113 10.8349 20.1553 10.8479 20.1783 10.8767C20.1963 10.9036 20.1983 10.9424 20.1813 10.9961C20.1443 11.1135 20.0603 11.1742 19.9783 11.2339C19.8783 11.3066 19.7843 11.3752 19.7743 11.5434C19.7673 11.6926 19.8493 11.8061 19.9163 11.8956C19.9843 11.9931 20.0453 12.0757 19.9623 12.1573L19.9603 12.1593H19.9573C19.6953 12.1593 19.6603 12.1195 19.5903 12.023C19.5863 12.0319 19.5813 12.0379 19.5773 12.0459C19.5373 12.1175 19.5133 12.1593 19.3963 12.1593C19.2783 12.1593 19.2143 12.1205 19.1673 12.026C19.1053 12.1245 19.0493 12.1593 18.9453 12.1593C18.8293 12.1593 18.8003 12.1086 18.7683 12.026C18.7013 12.1185 18.6153 12.1593 18.4953 12.1593H18.4873V12.1513C18.4873 12.1334 18.4883 12.1185 18.4893 12.1006C18.4823 12.1165 18.4743 12.1324 18.4663 12.1494L18.4643 12.1553H18.4603C18.2613 12.1553 18.1913 12.1394 18.1023 12.0379C18.0983 12.0449 18.0953 12.0528 18.0913 12.0598C18.0473 12.1374 18.0263 12.1722 17.8853 12.1722Z" fill="black"/>
<path d="M12.0146 8.27932C12.0146 5.84748 12.1226 4.06738 12.4076 3.8644C11.2716 4.45047 11.4036 5.86241 11.4036 8.27932L11.5476 8.4027V9.54599C11.4556 9.58977 11.3716 9.39773 11.2746 9.56091C11.2056 9.67236 11.4056 9.78877 11.5476 9.69723C11.5426 9.80668 11.4636 9.91813 11.3836 9.95096C11.5566 10.0853 11.5826 10.3987 11.3756 10.4763C11.4156 10.4176 11.2476 10.2952 11.1726 10.4176C11.0966 10.541 11.2856 10.7112 11.4736 10.7042C11.4716 10.7619 11.3796 10.8375 11.2856 10.8773C11.3316 10.9072 11.4586 10.934 11.5476 10.9281C11.5546 11.0365 11.5696 11.1231 11.6666 11.1957C11.7646 11.1231 11.7806 11.0365 11.7866 10.9281C11.8736 10.934 12.0006 10.9072 12.0486 10.8773C11.9536 10.8375 11.8636 10.7619 11.8606 10.7042C12.0486 10.7112 12.2386 10.541 12.1606 10.4176C12.0846 10.2952 11.9176 10.4176 11.9576 10.4763C11.7496 10.3987 11.7766 10.0853 11.9516 9.95096C11.8696 9.91813 11.7896 9.80569 11.7866 9.69624C11.8786 9.65246 11.9616 9.8445 12.0596 9.68131C12.1266 9.56788 11.9296 9.45445 11.7866 9.54499V8.4027L12.0146 8.27932Z" fill="#FFE01B"/>
<path d="M11.5537 10.9199V10.9269C11.5617 11.0304 11.5747 11.1149 11.6667 11.1876C11.7597 11.1149 11.7727 11.0304 11.7797 10.9269V10.9199H11.7877C11.7967 10.9209 11.8057 10.9209 11.8157 10.9209C11.8937 10.9209 11.9857 10.899 12.0317 10.8781C11.9437 10.8373 11.8557 10.7647 11.8517 10.704V10.695L11.8597 10.696H11.8717C11.9837 10.696 12.1037 10.6313 12.1517 10.5458C12.1697 10.5159 12.1837 10.4682 12.1557 10.4214C12.1357 10.3896 12.1067 10.3726 12.0727 10.3726C12.0257 10.3726 11.9817 10.4035 11.9657 10.4343C11.9597 10.4443 11.9557 10.4592 11.9637 10.4711L11.9777 10.4901L11.9547 10.4841C11.8737 10.4522 11.8217 10.3846 11.8067 10.292C11.7877 10.1697 11.8417 10.0313 11.9367 9.95274C11.8617 9.91493 11.7827 9.80746 11.7797 9.69702V9.69304L11.7837 9.69105C11.7937 9.68508 11.8047 9.68209 11.8157 9.68209C11.8437 9.68209 11.8707 9.69702 11.8967 9.71294C11.9217 9.72587 11.9477 9.7408 11.9717 9.7408C12.0017 9.7408 12.0277 9.7209 12.0537 9.67712C12.0697 9.65125 12.0697 9.6214 12.0547 9.59453C12.0297 9.55075 11.9657 9.51891 11.9007 9.51891C11.8607 9.51891 11.8237 9.53085 11.7907 9.55075L11.7797 9.55771V8.39751L11.7827 8.39552L12.0067 8.27413C12.0067 6.46319 12.0707 4.27115 12.3657 3.89503C11.3907 4.43334 11.3977 5.63433 11.4077 7.5995C11.4097 7.81642 11.4107 8.0403 11.4107 8.27612L11.5537 8.39851V9.55075L11.5507 9.55174C11.5397 9.55672 11.5297 9.5597 11.5177 9.5597C11.4907 9.5597 11.4627 9.54478 11.4367 9.53085C11.4117 9.51493 11.3867 9.501 11.3617 9.501C11.3327 9.501 11.3067 9.52189 11.2807 9.56468C11.2637 9.59055 11.2637 9.61941 11.2797 9.64727C11.3047 9.69204 11.3677 9.72189 11.4337 9.72189C11.4727 9.72189 11.5107 9.71194 11.5427 9.69204L11.5547 9.68309L11.5537 9.69801C11.5507 9.80846 11.4717 9.91493 11.3977 9.95274C11.4927 10.0313 11.5457 10.1697 11.5267 10.292C11.5117 10.3846 11.4597 10.4522 11.3787 10.4841L11.3567 10.4901L11.3697 10.4711C11.3787 10.4592 11.3737 10.4443 11.3677 10.4343C11.3527 10.4035 11.3077 10.3726 11.2617 10.3726C11.2267 10.3726 11.1987 10.3896 11.1787 10.4214C11.1497 10.4682 11.1647 10.5159 11.1817 10.5458C11.2317 10.6343 11.3587 10.7 11.4737 10.696L11.4827 10.695L11.4817 10.704C11.4777 10.7647 11.3897 10.8373 11.3027 10.8781C11.3477 10.899 11.4407 10.9209 11.5177 10.9209C11.5277 10.9209 11.5367 10.9209 11.5467 10.9199H11.5537ZM11.6667 11.2055L11.6627 11.2015C11.5627 11.1279 11.5477 11.0383 11.5397 10.9368C11.5327 10.9378 11.5257 10.9378 11.5177 10.9378C11.4377 10.9378 11.3267 10.9119 11.2817 10.8831L11.2687 10.8761L11.2827 10.8702C11.3757 10.8313 11.4547 10.7617 11.4657 10.7109H11.4627C11.3457 10.7109 11.2197 10.6443 11.1687 10.5527C11.1417 10.504 11.1407 10.4552 11.1657 10.4134C11.1947 10.3667 11.2337 10.3587 11.2617 10.3587C11.3137 10.3587 11.3637 10.3935 11.3817 10.4264C11.3877 10.4403 11.3907 10.4512 11.3887 10.4622C11.4557 10.4313 11.4997 10.3706 11.5117 10.2901C11.5307 10.1687 11.4757 10.0313 11.3787 9.95672L11.3677 9.94876L11.3807 9.94478C11.4507 9.91493 11.5287 9.81742 11.5387 9.71095C11.5067 9.72985 11.4707 9.73881 11.4337 9.73881C11.3637 9.73881 11.2937 9.70299 11.2657 9.65523C11.2477 9.62239 11.2487 9.58756 11.2677 9.55572C11.2967 9.50896 11.3267 9.48707 11.3617 9.48707C11.3907 9.48707 11.4177 9.501 11.4447 9.51592C11.4697 9.53085 11.4937 9.54478 11.5177 9.54478C11.5257 9.54478 11.5327 9.54378 11.5397 9.5408V8.40547L11.3957 8.28209V8.27911C11.3957 8.04329 11.3947 7.81742 11.3927 7.5995C11.3827 5.59751 11.3757 4.38856 12.4037 3.85722L12.4107 3.87015C12.1567 4.05224 12.0217 5.57662 12.0217 8.27911V8.28408L12.0177 8.28607L11.7947 8.40647V9.53085C11.8267 9.51393 11.8627 9.50498 11.9007 9.50498C11.9707 9.50498 12.0397 9.53881 12.0677 9.58756C12.0857 9.61841 12.0847 9.65523 12.0657 9.68508C12.0377 9.73383 12.0067 9.75572 11.9717 9.75572C11.9437 9.75572 11.9157 9.7398 11.8897 9.72488C11.8637 9.71095 11.8397 9.69702 11.8157 9.69702C11.8087 9.69702 11.8017 9.69801 11.7947 9.701C11.8007 9.81144 11.8807 9.91393 11.9537 9.94478L11.9657 9.94876L11.9547 9.95672C11.8577 10.0313 11.8037 10.1687 11.8227 10.2901C11.8347 10.3716 11.8777 10.4313 11.9447 10.4622C11.9437 10.4512 11.9457 10.4403 11.9517 10.4264C11.9707 10.3935 12.0197 10.3587 12.0727 10.3587C12.0997 10.3587 12.1387 10.3667 12.1677 10.4134C12.1937 10.4542 12.1927 10.504 12.1647 10.5527C12.1147 10.6443 11.9887 10.7109 11.8717 10.7109H11.8677C11.8787 10.7617 11.9587 10.8313 12.0517 10.8702L12.0647 10.8761L12.0527 10.8831C12.0067 10.9119 11.8957 10.9378 11.8157 10.9378C11.8077 10.9378 11.8007 10.9378 11.7937 10.9368C11.7867 11.0383 11.7707 11.1279 11.6717 11.2015L11.6667 11.2055Z" fill="black"/>
<path d="M11.7031 8.51791C12.5111 8.51791 12.4361 7.98259 12.1601 7.90299C11.8831 7.82339 11.8651 8.14876 12.0031 8.15572C11.9711 8.26518 11.8021 8.27115 11.7031 8.27115C11.6051 8.27115 11.4361 8.26518 11.4031 8.15572C11.5411 8.14876 11.5231 7.82339 11.2471 7.90299C10.9711 7.98259 10.8961 8.51791 11.7031 8.51791Z" fill="#FFE01B"/>
<path d="M11.3281 7.89793C11.3041 7.89793 11.2771 7.90191 11.2491 7.90987C11.1281 7.94469 11.0481 8.07007 11.0651 8.19444C11.0761 8.26907 11.1531 8.51086 11.7031 8.51086C12.2531 8.51086 12.3301 8.26907 12.3411 8.19444C12.3591 8.07007 12.2781 7.94469 12.1581 7.90987C12.1291 7.90191 12.1031 7.89793 12.0781 7.89793C11.9761 7.89793 11.9291 7.96957 11.9271 8.04121C11.9251 8.09196 11.9511 8.14668 12.0041 8.14867L12.0131 8.14967L12.0111 8.15862C11.9781 8.26708 11.8191 8.28002 11.7031 8.28002C11.5871 8.28002 11.4291 8.26708 11.3961 8.15862L11.3931 8.14967L11.4031 8.14867C11.4581 8.14668 11.4811 8.09096 11.4801 8.04121C11.4781 7.96957 11.4311 7.89793 11.3281 7.89793ZM11.7031 8.52579C11.1411 8.52579 11.0621 8.27405 11.0511 8.19643C11.0321 8.06509 11.1171 7.93275 11.2451 7.89594C11.2741 7.88798 11.3021 7.883 11.3281 7.883C11.4401 7.883 11.4931 7.96459 11.4951 8.04022C11.4961 8.09594 11.4691 8.15365 11.4131 8.1626C11.4491 8.25415 11.5951 8.26509 11.7031 8.26509C11.8111 8.26509 11.9571 8.25415 11.9931 8.1626C11.9371 8.15365 11.9101 8.09594 11.9111 8.04022C11.9131 7.96459 11.9671 7.883 12.0781 7.883C12.1041 7.883 12.1321 7.88798 12.1621 7.89594C12.2891 7.93275 12.3741 8.06509 12.3561 8.19643C12.3451 8.27405 12.2651 8.52579 11.7031 8.52579Z" fill="black"/>
<path d="M11.938 8.69863C11.97 8.63495 12.116 8.61206 12.149 8.54341C12.2 8.68769 12.109 8.69565 12.069 8.77127C12.054 8.79913 11.949 8.88669 11.869 8.80709C11.853 8.79117 11.913 8.74938 11.938 8.69863Z" fill="#FFE01B"/>
<path d="M12.1465 8.56161C12.1245 8.59046 12.0845 8.61136 12.0435 8.63126C12.0015 8.65216 11.9595 8.67405 11.9445 8.7029C11.9335 8.72579 11.9145 8.74768 11.8995 8.76459C11.8875 8.77753 11.8695 8.79842 11.8745 8.8024C11.8945 8.8223 11.9175 8.83225 11.9435 8.83225C11.9985 8.83225 12.0525 8.78748 12.0625 8.76857C12.0745 8.74469 12.0915 8.72778 12.1075 8.71086C12.1425 8.67604 12.1725 8.64619 12.1465 8.56161ZM11.9435 8.84818C11.9135 8.84818 11.8865 8.83623 11.8635 8.81235C11.8495 8.79942 11.8665 8.77952 11.8885 8.75464C11.9035 8.73673 11.9205 8.71683 11.9315 8.69594C11.9475 8.6631 11.9905 8.64121 12.0365 8.61832C12.0805 8.59643 12.1265 8.57355 12.1425 8.54071L12.1495 8.5238L12.1555 8.54071C12.1925 8.64619 12.1565 8.683 12.1185 8.72181C12.1035 8.73673 12.0865 8.75365 12.0755 8.77454C12.0645 8.79544 12.0085 8.84818 11.9435 8.84818Z" fill="black"/>
<path d="M11.687 8.55384C11.88 8.61852 11.967 8.64041 11.941 8.74986C11.914 8.86827 11.752 8.81454 11.654 8.7817C11.556 8.74986 11.385 8.73095 11.396 8.59066C11.403 8.5011 11.561 8.51205 11.687 8.55384Z" fill="#FFE01B"/>
<path d="M11.5143 8.52958C11.4663 8.52958 11.4073 8.54053 11.4033 8.59127C11.3953 8.70271 11.5053 8.73257 11.6023 8.75943C11.6223 8.76441 11.6403 8.76938 11.6573 8.77535C11.7083 8.79227 11.7793 8.81515 11.8353 8.81515C11.8913 8.81515 11.9233 8.79326 11.9343 8.74749C11.9563 8.65296 11.8873 8.62908 11.7193 8.57237L11.6843 8.56142C11.6253 8.54152 11.5633 8.52958 11.5143 8.52958ZM11.8353 8.83008C11.7763 8.83008 11.7053 8.80719 11.6543 8.78928H11.6523C11.6363 8.78331 11.6183 8.77834 11.5983 8.77336C11.5003 8.7465 11.3793 8.71366 11.3893 8.59028C11.3923 8.54152 11.4373 8.51466 11.5143 8.51466C11.5653 8.51466 11.6293 8.5266 11.6893 8.54749L11.7233 8.55844C11.8903 8.61416 11.9743 8.64301 11.9493 8.75147C11.9363 8.80321 11.8983 8.83008 11.8353 8.83008Z" fill="black"/>
<path d="M11.938 8.91284C11.97 8.84915 12.116 8.82627 12.149 8.75761C12.2 8.90189 12.109 8.90886 12.069 8.98547C12.054 9.01234 11.949 9.1009 11.869 9.02129C11.853 9.00537 11.913 8.96358 11.938 8.91284Z" fill="#FFE01B"/>
<path d="M12.1476 8.77444C12.1256 8.80429 12.0846 8.82419 12.0436 8.84409C12.0016 8.86498 11.9596 8.88688 11.9446 8.91573C11.9336 8.93862 11.9156 8.96051 11.8986 8.97742C11.8886 8.99036 11.8706 9.01125 11.8746 9.01523C11.8946 9.03712 11.9186 9.04608 11.9436 9.04608C11.9996 9.04608 12.0516 9.00031 12.0616 8.9814C12.0756 8.95752 12.0916 8.94061 12.1086 8.92369C12.1426 8.88986 12.1716 8.85901 12.1476 8.77444ZM11.9436 9.061C11.9146 9.061 11.8876 9.04906 11.8626 9.02618C11.8496 9.01225 11.8666 8.99235 11.8886 8.96747C11.9026 8.94956 11.9196 8.93066 11.9316 8.90877C11.9486 8.87593 11.9916 8.85404 12.0376 8.83115C12.0816 8.80926 12.1266 8.78638 12.1416 8.75354L12.1506 8.73663L12.1566 8.75354C12.1936 8.86001 12.1576 8.89683 12.1196 8.93464C12.1026 8.95056 12.0866 8.96648 12.0756 8.98837C12.0656 9.00827 12.0076 9.061 11.9436 9.061Z" fill="black"/>
<path d="M11.687 8.76807C11.88 8.83275 11.967 8.85464 11.941 8.9631C11.914 9.0825 11.752 9.02877 11.654 8.99593C11.556 8.9631 11.321 8.96807 11.338 8.76807C11.349 8.63374 11.561 8.72529 11.687 8.76807Z" fill="#FFE01B"/>
<path d="M11.4254 8.70498C11.3744 8.70498 11.3484 8.72488 11.3454 8.76766C11.3334 8.9209 11.4714 8.94876 11.5834 8.97164C11.6104 8.97662 11.6364 8.98159 11.6564 8.98856L11.6584 8.98955C11.7094 9.00548 11.7794 9.02936 11.8354 9.02936C11.8914 9.02936 11.9234 9.00647 11.9344 8.9607C11.9564 8.86617 11.8864 8.84229 11.7184 8.78657L11.6844 8.77463C11.6714 8.76965 11.6564 8.76567 11.6414 8.7597C11.5724 8.73483 11.4864 8.70498 11.4254 8.70498ZM11.8354 9.04428C11.7764 9.04428 11.7054 9.0204 11.6544 9.00349L11.6524 9.00249C11.6324 8.99552 11.6074 8.99154 11.5804 8.98557C11.4684 8.96368 11.3174 8.93284 11.3304 8.76667C11.3344 8.71592 11.3664 8.69005 11.4254 8.69005C11.4884 8.69005 11.5764 8.7209 11.6464 8.74577C11.6614 8.75075 11.6754 8.75572 11.6894 8.7607L11.7234 8.77164C11.8904 8.82836 11.9744 8.85622 11.9484 8.96468C11.9364 9.01742 11.8984 9.04428 11.8354 9.04428Z" fill="black"/>
<path d="M11.938 9.1262C11.97 9.06251 12.116 9.03963 12.149 8.97097C12.2 9.11426 12.109 9.12321 12.069 9.19784C12.054 9.22669 11.949 9.31326 11.869 9.23366C11.853 9.21873 11.913 9.17694 11.938 9.1262Z" fill="#FFE01B"/>
<path d="M12.1476 8.98818C12.1256 9.01803 12.0846 9.03893 12.0436 9.05783C12.0016 9.07873 11.9596 9.09963 11.9446 9.12948C11.9336 9.15336 11.9156 9.17425 11.8986 9.19117C11.8886 9.2051 11.8706 9.224 11.8746 9.22997C11.8946 9.24987 11.9186 9.25883 11.9436 9.25883C11.9996 9.25883 12.0516 9.21405 12.0616 9.19515C12.0756 9.17127 12.0916 9.15435 12.1086 9.13644C12.1426 9.10361 12.1716 9.07375 12.1476 8.98818ZM11.9436 9.27475C11.9146 9.27475 11.8876 9.26181 11.8626 9.23992C11.8496 9.22599 11.8666 9.20609 11.8886 9.18022C11.9026 9.1643 11.9196 9.1444 11.9316 9.12251C11.9486 9.08968 11.9916 9.06778 12.0376 9.0449C12.0816 9.02301 12.1266 9.00012 12.1416 8.96729L12.1506 8.95137L12.1566 8.96828C12.1936 9.07375 12.1576 9.11057 12.1196 9.14838C12.1026 9.1643 12.0866 9.17923 12.0756 9.20211C12.0656 9.22102 12.0076 9.27475 11.9436 9.27475Z" fill="black"/>
<path d="M11.6871 8.9809C11.8801 9.04558 11.9671 9.06747 11.9411 9.17593C11.9141 9.29533 11.7521 9.2416 11.6541 9.20876C11.5561 9.17593 11.4031 9.2018 11.4111 9.01772C11.4141 8.92816 11.5611 8.93811 11.6871 8.9809Z" fill="#FFE01B"/>
<path d="M11.5191 8.95664C11.4741 8.95664 11.4201 8.96759 11.4181 9.01734C11.4131 9.15465 11.4961 9.16958 11.5851 9.1855C11.6091 9.18948 11.6341 9.19445 11.6571 9.20341C11.7091 9.21933 11.7791 9.24321 11.8351 9.24321C11.8911 9.24321 11.9231 9.22033 11.9341 9.17455C11.9561 9.08102 11.8871 9.05615 11.7181 8.99943L11.6851 8.98848C11.6241 8.96759 11.5661 8.95664 11.5191 8.95664ZM11.8351 9.25714C11.7761 9.25714 11.7051 9.23426 11.6531 9.21635C11.6311 9.20938 11.6071 9.2054 11.5821 9.20142C11.4961 9.1845 11.3971 9.16759 11.4031 9.01734C11.4051 8.96858 11.4461 8.94172 11.5191 8.94172C11.5671 8.94172 11.6281 8.95366 11.6891 8.97455L11.7231 8.9855C11.8901 9.04122 11.9741 9.06908 11.9491 9.17853C11.9361 9.23028 11.8981 9.25714 11.8351 9.25714Z" fill="black"/>
<path d="M11.938 9.32151C11.97 9.25783 12.116 9.23494 12.149 9.16628C12.2 9.30957 12.109 9.31852 12.069 9.39315C12.054 9.42201 11.949 9.50857 11.869 9.42897C11.853 9.41405 11.913 9.37225 11.938 9.32151Z" fill="#FFE01B"/>
<path d="M12.1465 9.1835C12.1245 9.21235 12.0845 9.23325 12.0435 9.25315C12.0015 9.27404 11.9595 9.29593 11.9445 9.32578C11.9335 9.34767 11.9145 9.36956 11.8995 9.38648C11.8875 9.39942 11.8695 9.42031 11.8745 9.42429C11.8945 9.44419 11.9175 9.45414 11.9435 9.45414C11.9985 9.45414 12.0525 9.41036 12.0625 9.39046C12.0745 9.36757 12.0915 9.34966 12.1075 9.33275C12.1425 9.29892 12.1725 9.26807 12.1465 9.1835ZM11.9435 9.47006C11.9135 9.47006 11.8865 9.45812 11.8635 9.43524C11.8495 9.42131 11.8665 9.40141 11.8885 9.37653C11.9035 9.35862 11.9205 9.33872 11.9315 9.31782C11.9475 9.28598 11.9915 9.2631 12.0365 9.24121C12.0805 9.21832 12.1265 9.19544 12.1425 9.1626L12.1495 9.14568L12.1555 9.1626C12.1925 9.26907 12.1565 9.30489 12.1185 9.34369C12.1035 9.35862 12.0865 9.37454 12.0755 9.39643C12.0645 9.41733 12.0085 9.47006 11.9435 9.47006Z" fill="black"/>
<path d="M11.687 9.19513C11.88 9.25881 11.967 9.2817 11.941 9.38916C11.914 9.50856 11.752 9.45583 11.654 9.42299C11.556 9.38916 11.451 9.37622 11.451 9.24588C11.451 9.15632 11.561 9.15234 11.687 9.19513Z" fill="#FFE01B"/>
<path d="M11.5514 9.17573C11.4894 9.17573 11.4584 9.19862 11.4584 9.24538C11.4584 9.35583 11.5334 9.37772 11.6214 9.40359C11.6334 9.40757 11.6444 9.41155 11.6564 9.41553H11.6584C11.7094 9.43245 11.7794 9.45633 11.8354 9.45633C11.8914 9.45633 11.9234 9.43344 11.9344 9.38767C11.9564 9.29314 11.8864 9.26926 11.7184 9.21255L11.6844 9.2016C11.6344 9.18469 11.5884 9.17573 11.5514 9.17573ZM11.8354 9.47125C11.7764 9.47125 11.7054 9.44737 11.6544 9.43046L11.6524 9.42946C11.6404 9.42548 11.6284 9.4225 11.6164 9.41852C11.5314 9.39265 11.4434 9.36478 11.4434 9.24538C11.4434 9.19165 11.4814 9.1608 11.5514 9.1608C11.5904 9.1608 11.6374 9.16976 11.6894 9.18767L11.7224 9.19862C11.8904 9.25533 11.9744 9.28319 11.9484 9.39165C11.9364 9.44538 11.8984 9.47125 11.8354 9.47125Z" fill="black"/>
<path d="M8.76463 3.73563C8.79163 3.61723 8.82663 3.49583 8.71163 3.45703C8.61263 3.4232 8.57663 3.33563 8.66963 3.2421C8.76363 3.14956 8.85163 3.18538 8.88563 3.28389C8.92463 3.39832 9.04963 3.37444 9.16563 3.33663C9.74063 3.15056 10.1456 4.0819 10.0536 4.72867C10.0536 4.30379 8.53563 4.73265 8.76463 3.73563Z" fill="#FFE01B"/>
<path d="M8.77736 3.19582C8.74436 3.19582 8.70936 3.21373 8.67536 3.24756C8.63336 3.28936 8.61636 3.33015 8.62536 3.36796C8.63336 3.40378 8.66536 3.43363 8.71436 3.44955C8.82936 3.48936 8.80236 3.60776 8.77636 3.7212L8.77236 3.73712C8.72836 3.92518 8.74436 4.07145 8.82136 4.18289C8.96036 4.38687 9.27536 4.43562 9.55336 4.47841C9.79536 4.51523 10.0074 4.54707 10.0524 4.67543C10.0914 4.2814 9.95336 3.8008 9.72136 3.53413C9.59936 3.39383 9.45836 3.3202 9.31336 3.3202C9.26536 3.3202 9.21636 3.32816 9.16836 3.34408C9.12336 3.35901 9.06436 3.37493 9.01236 3.37493C8.94436 3.37493 8.89936 3.34508 8.87836 3.28637C8.85936 3.22866 8.82136 3.19582 8.77736 3.19582ZM10.0604 4.72916L10.0464 4.72816C10.0464 4.56796 9.81736 4.53314 9.55136 4.49234C9.27036 4.44955 8.95136 4.4008 8.80836 4.19184C8.73036 4.07642 8.71336 3.92617 8.75736 3.73413L8.76136 3.71722C8.78736 3.60577 8.81236 3.49931 8.70936 3.46448C8.65536 3.44557 8.62036 3.41274 8.61036 3.37194C8.60336 3.3411 8.60736 3.29433 8.66436 3.23761C8.70136 3.1998 8.74036 3.1809 8.77736 3.1809C8.82736 3.1809 8.87136 3.21871 8.89236 3.2814C8.91136 3.33513 8.95036 3.36 9.01236 3.36C9.06236 3.36 9.11936 3.34408 9.16336 3.32916C9.21336 3.31324 9.26436 3.30528 9.31336 3.30528C9.46336 3.30528 9.60836 3.3809 9.73336 3.52418C9.97836 3.80577 10.1184 4.32319 10.0604 4.72916Z" fill="black"/>
<path d="M22.4238 3.73563C22.3978 3.61723 22.3628 3.49583 22.4778 3.45703C22.5768 3.4232 22.6118 3.33563 22.5198 3.2421C22.4258 3.14956 22.3368 3.18538 22.3038 3.28389C22.2648 3.39832 22.1398 3.37444 22.0238 3.33663C21.4488 3.15056 21.0428 4.0819 21.1358 4.72867C21.1358 4.30379 22.6528 4.73265 22.4238 3.73563Z" fill="#FFE01B"/>
<path d="M21.8761 3.3202C21.7301 3.3202 21.5901 3.39383 21.4681 3.53413C21.2351 3.7998 21.0981 4.2814 21.1381 4.67543C21.1821 4.54707 21.3951 4.51523 21.6361 4.47841C21.9131 4.43562 22.2301 4.38687 22.3681 4.18289C22.4441 4.07145 22.4611 3.92518 22.4181 3.73712L22.4131 3.7202C22.3871 3.60677 22.3591 3.48936 22.4751 3.44955C22.5231 3.43363 22.5561 3.40378 22.5631 3.36796C22.5721 3.33115 22.5561 3.28936 22.5141 3.24756C22.4801 3.21373 22.4441 3.19582 22.4121 3.19582C22.3671 3.19582 22.3301 3.22866 22.3111 3.28637C22.2901 3.34508 22.2451 3.37493 22.1771 3.37493C22.1241 3.37493 22.0651 3.35901 22.0221 3.34408C21.9731 3.32816 21.9241 3.3202 21.8761 3.3202ZM21.1291 4.72916C21.0701 4.32319 21.2111 3.80577 21.4561 3.52418C21.5811 3.3809 21.7271 3.30528 21.8761 3.30528C21.9261 3.30528 21.9761 3.31324 22.0251 3.32916C22.0691 3.34408 22.1271 3.36 22.1771 3.36C22.2381 3.36 22.2781 3.33513 22.2971 3.2814C22.3171 3.21871 22.3611 3.1809 22.4121 3.1809C22.4481 3.1809 22.4871 3.1998 22.5241 3.23761C22.5811 3.29433 22.5861 3.3411 22.5781 3.37194C22.5681 3.41274 22.5331 3.44557 22.4801 3.46448C22.3781 3.49931 22.4011 3.60577 22.4281 3.71722L22.4321 3.73413C22.4771 3.92617 22.4591 4.07642 22.3811 4.19184C22.2371 4.4008 21.9191 4.44955 21.6381 4.49234C21.3721 4.53314 21.1441 4.56796 21.1441 4.72816L21.1291 4.72916Z" fill="black"/>
<path d="M8.76463 12.2707C8.79163 12.3891 8.82663 12.5105 8.71163 12.5483C8.61263 12.5821 8.57663 12.6697 8.66963 12.7642C8.76363 12.8567 8.85163 12.8219 8.88563 12.7224C8.92463 12.609 9.04963 12.6309 9.16563 12.6687C9.74063 12.8557 10.1456 11.9234 10.0536 11.2776C10.0536 11.7035 8.53563 11.2736 8.76463 12.2707Z" fill="#FFE01B"/>
<path d="M10.0522 11.331C10.0072 11.4583 9.79524 11.4912 9.55324 11.528C9.27524 11.5708 8.96024 11.6195 8.82124 11.8225C8.74424 11.9339 8.72824 12.0802 8.77224 12.2683L8.77624 12.2842C8.80224 12.3986 8.82924 12.516 8.71424 12.5558C8.66524 12.5728 8.63324 12.6016 8.62524 12.6374C8.61624 12.6762 8.63424 12.718 8.67524 12.7598C8.70924 12.7917 8.74424 12.8106 8.77724 12.8106C8.82224 12.8106 8.85924 12.7767 8.87824 12.72C8.89924 12.6603 8.94424 12.6325 9.01224 12.6325C9.06424 12.6325 9.12324 12.6474 9.16824 12.6623C9.21724 12.6782 9.26524 12.6862 9.31324 12.6862C9.45824 12.6862 9.59924 12.6116 9.72124 12.4713C9.95324 12.2056 10.0912 11.725 10.0522 11.331ZM8.77724 12.8245C8.74024 12.8245 8.70124 12.8056 8.66424 12.7688C8.60724 12.7121 8.60324 12.6643 8.61024 12.6354C8.62024 12.5946 8.65524 12.5598 8.70924 12.5419C8.81224 12.5081 8.78724 12.4006 8.76124 12.2882L8.75724 12.2723C8.71324 12.0792 8.73024 11.931 8.80824 11.8145C8.95124 11.6046 9.27024 11.5578 9.55124 11.514C9.81724 11.4732 10.0462 11.4374 10.0462 11.2772L10.0602 11.2762C10.1182 11.6832 9.97824 12.2006 9.73324 12.4812C9.60824 12.6255 9.46324 12.7011 9.31324 12.7011C9.26424 12.7011 9.21324 12.6922 9.16324 12.6772C9.11924 12.6623 9.06224 12.6454 9.01224 12.6454C8.95024 12.6454 8.91124 12.6723 8.89224 12.724C8.87124 12.7877 8.82724 12.8245 8.77724 12.8245Z" fill="black"/>
<path d="M22.4238 12.2707C22.3978 12.3891 22.3628 12.5105 22.4778 12.5483C22.5768 12.5821 22.6118 12.6697 22.5198 12.7642C22.4258 12.8567 22.3368 12.8219 22.3038 12.7224C22.2648 12.609 22.1398 12.6309 22.0238 12.6687C21.4488 12.8557 21.0428 11.9234 21.1358 11.2776C21.1358 11.7035 22.6528 11.2736 22.4238 12.2707Z" fill="#FFE01B"/>
<path d="M22.1769 12.6312C22.2449 12.6312 22.2899 12.661 22.3109 12.7187C22.3309 12.7764 22.3669 12.8113 22.4119 12.8113C22.4449 12.8113 22.4799 12.7924 22.5139 12.7585C22.5549 12.7167 22.5729 12.6749 22.5639 12.6381C22.5559 12.6033 22.5239 12.5725 22.4749 12.5555C22.3599 12.5167 22.3869 12.4003 22.4129 12.2849L22.4169 12.27C22.4609 12.0809 22.4449 11.9346 22.3679 11.8232C22.2289 11.6192 21.9139 11.5715 21.6349 11.5287C21.3939 11.4909 21.1819 11.458 21.1369 11.3307C21.0979 11.7237 21.2359 12.2053 21.4679 12.472C21.5899 12.6113 21.7309 12.6869 21.8759 12.6869C21.9239 12.6869 21.9729 12.6779 22.0209 12.662C22.0659 12.6491 22.1249 12.6312 22.1769 12.6312ZM22.4119 12.8252C22.3619 12.8252 22.3179 12.7874 22.2969 12.7257C22.2789 12.672 22.2389 12.6471 22.1769 12.6471C22.1269 12.6471 22.0699 12.662 22.0259 12.6759C21.9759 12.6929 21.9259 12.7008 21.8759 12.7008C21.7259 12.7008 21.5809 12.6252 21.4559 12.4829C21.2109 12.2003 21.0709 11.6829 21.1289 11.2779L21.1439 11.2789C21.1439 11.4371 21.3729 11.472 21.6379 11.5128C21.9189 11.5565 22.2389 11.6063 22.3809 11.8152C22.4589 11.9297 22.4759 12.0799 22.4319 12.273L22.4279 12.2889C22.4019 12.4023 22.3769 12.5068 22.4799 12.5416C22.5339 12.5615 22.5689 12.5934 22.5789 12.6342C22.5859 12.664 22.5819 12.7118 22.5249 12.7695C22.4889 12.8053 22.4489 12.8252 22.4119 12.8252Z" fill="black"/>
<path d="M14.087 6.79266C14.035 6.79266 13.987 6.78172 13.937 6.77077C13.848 6.74988 13.757 6.72998 13.635 6.76679L13.629 6.75286C13.662 6.73396 13.678 6.70013 13.694 6.66729C13.707 6.64241 13.718 6.61853 13.736 6.60261C13.35 6.57973 13.058 6.51207 12.891 6.40659L12.899 6.39465C13.065 6.49814 13.371 6.56779 13.76 6.58868L13.763 6.60361C13.737 6.61455 13.723 6.64341 13.708 6.67326C13.697 6.69714 13.684 6.72202 13.665 6.74291C13.774 6.71804 13.858 6.73694 13.94 6.75585C14.01 6.77177 14.076 6.78669 14.151 6.77177C14.126 6.66331 14.087 6.56779 14.03 6.48122L14.043 6.47326C14.101 6.56381 14.142 6.66232 14.167 6.77575L14.169 6.78271L14.162 6.7847C14.136 6.79067 14.111 6.79266 14.087 6.79266Z" fill="black"/>
<path d="M13.5645 10.1232C13.2695 9.89534 13.0745 9.6237 12.9825 9.31325L12.9985 9.30927C13.0875 9.61673 13.2825 9.88638 13.5745 10.1103L13.5645 10.1232Z" fill="black"/>
<path d="M14.1357 10.4487C14.0437 10.1462 13.9707 9.78797 14.1157 9.40588L14.1297 9.41185C13.9867 9.78897 14.0597 10.1442 14.1507 10.4447L14.1357 10.4487Z" fill="black"/>
<path d="M18.5812 10.3524C18.4332 10.2549 18.2652 10.1375 18.1462 9.98429C17.9212 9.69076 17.6812 9.5823 17.2592 9.5823V9.56737C17.6852 9.56737 17.9302 9.67782 18.1592 9.97633C18.2752 10.1256 18.4412 10.245 18.5902 10.3385L18.5812 10.3524Z" fill="black"/>
<path d="M15.3028 10.2427L15.2898 10.2357C15.6148 9.63773 15.7268 9.21485 15.6298 8.94718L15.6438 8.94221C15.7418 9.21385 15.6308 9.64072 15.3028 10.2427Z" fill="black"/>
<path d="M14.2521 5.69702H14.2481C14.2041 5.69603 14.1611 5.67414 14.1331 5.63931C14.1111 5.61443 14.0901 5.57264 14.1001 5.51095C14.1091 5.44329 14.1461 5.39652 14.2021 5.37563C14.3011 5.3408 14.4501 5.39055 14.5281 5.45921C14.6531 5.56966 14.8261 5.61941 15.0431 5.61344C14.9811 5.57762 14.9651 5.54279 14.9451 5.502C14.9341 5.47613 14.9211 5.44827 14.8951 5.41642C14.8801 5.4015 14.8641 5.38657 14.8521 5.36866L14.8621 5.35871C14.8801 5.37563 14.8951 5.39155 14.9051 5.40647C15.1061 5.59055 15.4651 5.52588 15.5851 5.49702C15.5231 5.47314 15.4911 5.42836 15.4611 5.38558C15.4271 5.33881 15.3961 5.29503 15.3301 5.27414L15.3351 5.26021C15.6231 5.31195 15.9791 5.21543 16.1261 5.04329L16.1371 5.05225C15.9951 5.21841 15.6661 5.31692 15.3841 5.2821C15.4231 5.30697 15.4471 5.34279 15.4731 5.37662C15.5081 5.42538 15.5411 5.47115 15.6121 5.49105L15.6401 5.49802L15.6121 5.50598C15.5321 5.52687 15.1631 5.61145 14.9361 5.44926C14.9441 5.46618 14.9521 5.4811 14.9601 5.49503C14.9811 5.5408 14.9971 5.57563 15.0721 5.61244L15.0991 5.62538L15.0691 5.62637C14.8381 5.63931 14.6521 5.58757 14.5191 5.47016C14.4431 5.40448 14.3011 5.35672 14.2071 5.38956C14.1551 5.40846 14.1241 5.45026 14.1131 5.51195C14.1061 5.56966 14.1261 5.60747 14.1451 5.63035C14.1701 5.6612 14.2101 5.6811 14.2481 5.6821H14.2521C14.2811 5.6821 14.3111 5.67115 14.3321 5.65026C14.3531 5.63135 14.3641 5.60548 14.3641 5.58458C14.3661 5.51294 14.3401 5.48011 14.2761 5.47812V5.46319C14.3491 5.46518 14.3821 5.50498 14.3801 5.58458C14.3801 5.61045 14.3651 5.63832 14.3431 5.66021C14.3171 5.68409 14.2851 5.69702 14.2521 5.69702Z" fill="black"/>
<path d="M15.3672 7.483L15.3522 7.48002C15.3462 7.33773 15.2462 7.28499 15.1482 7.23425C15.0912 7.20439 15.0352 7.17454 15.0092 7.12778C15.0052 7.14768 15.0042 7.17653 15.0022 7.20937C14.9982 7.29494 14.9942 7.40141 14.9392 7.45216L14.9262 7.46609L14.9272 7.44619C14.9332 7.33474 14.8262 7.19643 14.7282 7.08798C14.6762 7.18847 14.5932 7.31982 14.4822 7.35962L14.4602 7.36857L14.4732 7.34867C14.5142 7.29096 14.4972 7.19643 14.4532 7.07305C14.4302 7.16658 14.3582 7.29793 14.2712 7.33176L14.2542 7.33773L14.2632 7.32081C14.2812 7.28201 14.2632 7.22629 14.2422 7.16161C14.2212 7.10191 14.1972 7.03325 14.2032 6.96559L14.2192 6.96658C14.2132 7.03126 14.2352 7.09793 14.2562 7.15663C14.2752 7.21634 14.2932 7.26808 14.2822 7.30987C14.3622 7.26609 14.4302 7.13076 14.4432 7.0442L14.4482 7.01634L14.4582 7.0432C14.5052 7.17056 14.5292 7.27007 14.4982 7.33773C14.6082 7.283 14.6882 7.13076 14.7212 7.07106L14.7252 7.06111L14.7322 7.06907C14.8342 7.1825 14.9362 7.31186 14.9412 7.42728C14.9792 7.37554 14.9832 7.284 14.9862 7.20937C14.9892 7.16061 14.9902 7.1228 15.0012 7.1039L15.0092 7.08897L15.0132 7.10489C15.0342 7.15763 15.0942 7.18847 15.1552 7.22131C15.2452 7.26808 15.3462 7.32081 15.3642 7.44917C15.4052 7.3427 15.4202 7.18847 15.3962 7.07604L15.4112 7.07305C15.4362 7.19743 15.4182 7.37454 15.3672 7.483Z" fill="black"/>
<path d="M16.292 6.01385C16.27 5.95614 16.233 5.92629 16.19 5.89147C16.143 5.85366 16.09 5.81087 16.037 5.72132L16.05 5.71336C16.101 5.80191 16.153 5.84371 16.2 5.88052C16.244 5.91634 16.282 5.94719 16.306 6.00888L16.292 6.01385Z" fill="black"/>
<path d="M16.2062 6.49286C16.1852 6.47395 16.1622 6.45604 16.1382 6.43614C16.0402 6.35754 15.9322 6.26898 15.9152 6.15953C15.8922 5.97744 15.8602 5.86599 15.7682 5.7844C15.8362 5.96052 15.8362 6.16152 15.7672 6.29186L15.7532 6.28788C15.7602 6.2043 15.6882 6.15853 15.6132 6.10977C15.5592 6.07495 15.5022 6.03714 15.4732 5.9854C15.4752 6.10977 15.4352 6.18042 15.4042 6.23415C15.3942 6.25505 15.3842 6.27395 15.3782 6.29087L15.3632 6.28689C15.3822 6.18938 15.3302 6.14958 15.2812 6.11176C15.2692 6.09982 15.2552 6.08987 15.2422 6.07793C15.2442 6.13963 15.2182 6.19137 15.1932 6.23515C15.1782 6.265 15.1632 6.29186 15.1632 6.31375L15.1482 6.31475C15.1442 6.25604 15.0992 6.2043 15.0592 6.15953L15.0442 6.14162C15.0642 6.21425 15.0572 6.26798 15.0492 6.31773C15.0412 6.35953 15.0352 6.39933 15.0482 6.44609L15.0322 6.45007C15.0122 6.36948 14.9592 6.33863 14.9062 6.30778C14.8642 6.2839 14.8242 6.26102 14.8082 6.21326C14.7972 6.2451 14.7722 6.27395 14.7472 6.3038C14.7172 6.34062 14.6842 6.38042 14.6782 6.42918C14.6782 6.43316 14.6782 6.43714 14.6772 6.44211L14.6612 6.44012C14.6612 6.43614 14.6622 6.43216 14.6622 6.42918C14.6612 6.40132 14.6352 6.3844 14.5912 6.35953C14.5202 6.31972 14.4252 6.265 14.4352 6.09982L14.4512 6.10082C14.4402 6.25704 14.5272 6.30679 14.5992 6.34659C14.6282 6.36351 14.6542 6.37843 14.6692 6.40032C14.6822 6.35953 14.7092 6.32669 14.7362 6.29385C14.7692 6.25505 14.8002 6.21823 14.8002 6.17346L14.8142 6.17246C14.8192 6.24112 14.8632 6.26599 14.9142 6.29584C14.9532 6.31873 14.9972 6.34361 15.0252 6.39236C15.0252 6.36649 15.0292 6.34062 15.0332 6.31475C15.0432 6.25604 15.0532 6.19535 15.0162 6.10679C15.0032 6.08788 14.9922 6.06997 14.9882 6.05107L15.0032 6.04609C15.0142 6.065 15.0212 6.08291 15.0282 6.09883C15.0402 6.11574 15.0562 6.13266 15.0702 6.14958C15.1032 6.18739 15.1412 6.23017 15.1562 6.27893C15.1622 6.26301 15.1712 6.24609 15.1812 6.22719C15.2052 6.18142 15.2342 6.12569 15.2262 6.05803C15.2142 6.04112 15.2062 6.02122 15.2062 5.99535L15.2222 5.99236C15.2302 6.01425 15.2362 6.03415 15.2402 6.05306C15.2532 6.06997 15.2712 6.0839 15.2902 6.09982C15.3342 6.13266 15.3812 6.16948 15.3822 6.2451C15.3862 6.23913 15.3892 6.23316 15.3922 6.22719C15.4252 6.16848 15.4682 6.08987 15.4552 5.94062C15.4522 5.92868 15.4502 5.91574 15.4502 5.90181L15.4662 5.90082C15.4682 5.91375 15.4692 5.92569 15.4702 5.93764C15.4872 6.01027 15.5562 6.05505 15.6212 6.09783C15.6872 6.14062 15.7562 6.1844 15.7672 6.25704C15.8222 6.1247 15.8132 5.92768 15.7422 5.76351L15.7302 5.73764L15.7542 5.75455C15.8692 5.84112 15.9032 5.95754 15.9322 6.15754C15.9452 6.26201 16.0532 6.34759 16.1472 6.4242C16.1722 6.4441 16.1952 6.46301 16.2172 6.48191L16.2062 6.49286Z" fill="black"/>
<path d="M14.2217 8.10788L14.2067 8.1039C14.2367 7.97853 14.2047 7.89395 14.1817 7.82529C14.1647 7.77952 14.1527 7.74072 14.1607 7.7039C14.0917 7.75763 13.9507 7.82032 13.8467 7.82032C13.8417 7.82032 13.8367 7.81932 13.8317 7.81932L13.8287 7.80539C13.9337 7.7646 13.9587 7.6641 13.9827 7.57654C14.0007 7.5039 14.0187 7.43524 14.0767 7.41136L14.0817 7.4243C14.0317 7.44519 14.0157 7.50788 13.9957 7.57952C13.9757 7.66211 13.9507 7.75564 13.8667 7.8044C13.9807 7.79644 14.1367 7.71783 14.1797 7.66708L14.1917 7.67504C14.1597 7.71783 14.1747 7.76062 14.1967 7.82032C14.2177 7.883 14.2437 7.95863 14.2297 8.06609C14.2507 8.04221 14.2807 8.02927 14.3107 8.01733C14.3887 7.98549 14.4827 7.94569 14.5257 7.69295C14.5227 7.67305 14.5247 7.65315 14.5347 7.63126L14.5487 7.63624C14.5467 7.65614 14.5437 7.67504 14.5407 7.69295C14.5437 7.71385 14.5547 7.73574 14.5667 7.75962C14.5927 7.81733 14.6257 7.88698 14.5887 7.99445C14.7067 7.92281 14.7917 7.7845 14.8277 7.60141L14.8287 7.59743L14.8437 7.60042L14.8427 7.6044C14.8337 7.65614 14.8757 7.71186 14.9157 7.76559C14.9547 7.81733 14.9927 7.86509 14.9847 7.90987C15.0517 7.85216 15.0757 7.74967 15.0947 7.65813C15.1177 7.55564 15.1387 7.46708 15.2137 7.46111L15.2267 7.46012L15.2217 7.47106C15.1947 7.53674 15.2427 7.64221 15.2907 7.75465C15.3377 7.86012 15.3857 7.96858 15.3757 8.05415C15.3967 8.03325 15.4237 8.01534 15.4537 7.99445C15.5277 7.94569 15.6177 7.884 15.6587 7.75962L15.6637 7.73972L15.6717 7.75863C15.7067 7.8442 15.8617 7.87902 15.9847 7.90688C16.0357 7.91882 16.0807 7.92878 16.1107 7.94171C16.0917 7.89693 16.0997 7.84022 16.1067 7.78649C16.1157 7.72081 16.1227 7.65415 16.0877 7.60738L16.0997 7.59644C16.1897 7.67305 16.3947 7.63723 16.5157 7.59445C16.4127 7.54669 16.3387 7.49096 16.2867 7.4243L16.2987 7.41534C16.3527 7.484 16.4307 7.54072 16.5367 7.58848L16.5547 7.59544L16.5367 7.60241C16.4617 7.63126 16.2387 7.69295 16.1177 7.62629C16.1357 7.67405 16.1277 7.73176 16.1207 7.78848C16.1137 7.85415 16.1047 7.91584 16.1367 7.95962L16.1247 7.96858C16.1107 7.95067 16.0467 7.93674 15.9807 7.92181C15.8627 7.89395 15.7157 7.86111 15.6667 7.78052C15.6227 7.89892 15.5337 7.95863 15.4617 8.00738C15.4177 8.03723 15.3797 8.0631 15.3677 8.09395L15.3537 8.08798C15.3857 8.0044 15.3297 7.88101 15.2777 7.76062C15.2297 7.65216 15.1837 7.54868 15.2027 7.47803C15.1487 7.49096 15.1297 7.57057 15.1107 7.66111C15.0867 7.7646 15.0607 7.88101 14.9717 7.93773L14.9607 7.92778C14.9887 7.88499 14.9477 7.83126 14.9047 7.77455C14.8737 7.73475 14.8437 7.69395 14.8317 7.65315C14.7877 7.8243 14.6997 7.95365 14.5777 8.01833L14.5597 8.02728L14.5677 8.00838C14.6147 7.89594 14.5807 7.82728 14.5527 7.76659C14.5457 7.75266 14.5387 7.73873 14.5337 7.72579C14.4887 7.95962 14.3937 7.99942 14.3167 8.03126C14.2737 8.04917 14.2397 8.0631 14.2217 8.10788Z" fill="black"/>
<path d="M16.1632 7.34598C15.9362 7.34598 15.7382 7.17881 15.6482 7.03254C15.6482 7.10419 15.6312 7.20667 15.6092 7.2415L15.6012 7.25742L15.5972 7.23852C15.5862 7.19175 15.5292 7.15692 15.4632 7.11812C15.3812 7.06837 15.2802 7.00866 15.2412 6.89921C15.2252 6.97384 15.1752 7.03553 15.1582 7.05444L15.1462 7.06737L15.1442 7.04946C15.1362 6.89125 15.0222 6.79473 14.9232 6.70916C14.9262 6.76588 14.8862 6.82657 14.8512 6.87533C14.8352 6.9022 14.8172 6.92707 14.8102 6.94697L14.7962 6.94598C14.7912 6.90817 14.7532 6.87434 14.7102 6.83653C14.6482 6.7818 14.5802 6.72011 14.5702 6.62259L14.5862 6.6216C14.5942 6.71215 14.6602 6.77185 14.7202 6.82558C14.7582 6.85842 14.7912 6.88926 14.8062 6.9221C14.8132 6.90618 14.8262 6.88727 14.8402 6.86737C14.8772 6.81165 14.9202 6.74797 14.9052 6.69324L14.8992 6.67036L14.9312 6.69623C15.0242 6.77583 15.1412 6.87434 15.1582 7.03055C15.1842 6.99971 15.2262 6.93603 15.2322 6.86439L15.2472 6.86339C15.2732 6.98677 15.3792 7.04946 15.4712 7.10518C15.5312 7.141 15.5852 7.17384 15.6042 7.21762C15.6232 7.16886 15.6402 7.06339 15.6332 7.00269L15.6462 6.99871C15.7332 7.1619 15.9762 7.37185 16.2382 7.32409L16.2412 7.33901C16.2152 7.34399 16.1882 7.34598 16.1632 7.34598Z" fill="black"/>
<path d="M16.1231 6.8815C16.1061 6.86956 16.0891 6.85861 16.0721 6.84667C15.9281 6.74717 15.7681 6.63672 15.7271 6.50837C15.7191 6.5412 15.7001 6.57802 15.6811 6.61384C15.6571 6.65961 15.6341 6.70439 15.6331 6.73523L15.6181 6.73424C15.6191 6.70638 15.5761 6.67155 15.5301 6.63473C15.4981 6.60886 15.4641 6.582 15.4361 6.55115C15.4491 6.63075 15.4191 6.67553 15.3921 6.71732C15.3731 6.74518 15.3561 6.77205 15.3521 6.80588H15.3381V6.80488C15.3431 6.72429 15.2041 6.58896 15.1171 6.54916L15.1231 6.53623C15.1961 6.56906 15.3191 6.67553 15.3471 6.76508C15.3551 6.74518 15.3671 6.72727 15.3791 6.70936C15.4091 6.66359 15.4401 6.61682 15.4171 6.52628C15.4001 6.5024 15.3901 6.47653 15.3891 6.44866L15.4031 6.44568C15.4151 6.47255 15.4251 6.49742 15.4311 6.51931C15.4571 6.55712 15.5001 6.59095 15.5401 6.62279C15.5761 6.65264 15.6081 6.67852 15.6241 6.70339C15.6331 6.67454 15.6501 6.6417 15.6681 6.60687C15.6931 6.55812 15.7191 6.50837 15.7211 6.47055C15.7201 6.46458 15.7201 6.45861 15.7201 6.45165L15.7341 6.45065C15.7361 6.45662 15.7361 6.46359 15.7361 6.46956C15.7521 6.60787 15.9261 6.72827 16.0811 6.83374C16.0981 6.84568 16.1151 6.85762 16.1321 6.86956L16.1231 6.8815Z" fill="black"/>
</g>
</g>
<defs>
<clipPath id="clip0_915_15">
<rect width="24" height="16" fill="white"/>
</clipPath>
</defs>
</svg>
