<svg width="20" height="20" viewBox="0 0 20 20" fill="none" xmlns="http://www.w3.org/2000/svg">
<path d="M12.2119 17.9385H4.1377L2.75879 9.65527H1.37891V20H0V8.27539H13.793L12.2119 17.9385ZM5.29688 16.5557H11.0342L12.1582 9.65527H4.1377L5.29688 16.5557ZM16.5518 0C18.4553 0.00212966 19.9979 1.54471 20 3.44824C20 5.35266 18.4562 6.89647 16.5518 6.89648C14.6473 6.89648 13.1035 5.35267 13.1035 3.44824C13.1035 1.54383 14.6473 0 16.5518 0ZM16.5518 1.37891C15.4091 1.37891 14.4824 2.3056 14.4824 3.44824C14.4824 4.5909 15.4091 5.51758 16.5518 5.51758C17.1005 5.51757 17.6266 5.29913 18.0146 4.91113C18.4026 4.52313 18.6211 3.99695 18.6211 3.44824C18.6211 2.30561 17.6944 1.37892 16.5518 1.37891Z" fill="#001E28"/>
</svg>
