<svg width="20" height="20" viewBox="0 0 20 20" fill="none" xmlns="http://www.w3.org/2000/svg">
<path fill-rule="evenodd" clip-rule="evenodd" d="M13.884 8.47C13.884 8.608 13.823 8.715 13.7 8.792L7.995 12.503C7.964 12.518 7.964 12.548 7.964 12.565V13.04C7.964 13.085 7.995 13.116 8.042 13.116H13.807C13.853 13.116 13.884 13.148 13.884 13.193V14.896C13.884 14.941 13.853 14.972 13.807 14.972H6.185C6.14 14.972 6.109 14.941 6.109 14.896V11.644C6.109 11.629 6.124 11.598 6.14 11.583L11.997 7.811C12.013 7.796 12.029 7.78 12.029 7.748V6.461C12.029 6.261 11.86 6.093 11.66 6.093H6.185C6.14 6.093 6.109 6.063 6.109 6.017V4.315C6.109 4.269 6.14 4.238 6.185 4.238H11.721C11.921 4.238 12.105 4.315 12.243 4.452L13.669 5.878C13.807 6.017 13.884 6.2 13.884 6.4V8.47ZM17.527 0H2.473L0 2.47V17.529L2.47 20H17.53L20 17.529V2.472L17.527 0Z" fill="#FFCD00"/>
<path fill-rule="evenodd" clip-rule="evenodd" d="M12.2434 4.45243C12.1044 4.31443 11.9214 4.23743 11.7214 4.23743H6.1854C6.1394 4.23743 6.1084 4.26843 6.1084 4.31443V6.01643C6.1084 6.06243 6.1394 6.09343 6.1854 6.09343H11.6604C11.8604 6.09343 12.0284 6.26143 12.0284 6.46143V7.74843C12.0284 7.77943 12.0134 7.79643 11.9974 7.81043L6.1394 11.5834C6.1244 11.5984 6.1084 11.6294 6.1084 11.6434V14.8954C6.1084 14.9404 6.1394 14.9724 6.1854 14.9724H13.8074C13.8524 14.9724 13.8844 14.9404 13.8844 14.8954V13.1924C13.8844 13.1474 13.8524 13.1164 13.8074 13.1164H8.0414C7.9954 13.1164 7.9644 13.0854 7.9644 13.0404V12.5644C7.9644 12.5484 7.9644 12.5174 7.9954 12.5034L13.7004 8.79243C13.8234 8.71543 13.8844 8.60743 13.8844 8.47043V6.39943C13.8844 6.20043 13.8074 6.01643 13.6694 5.87843L12.2434 4.45243Z" fill="#001E28"/>
</svg>
