<svg width="20" height="20" viewBox="0 0 20 20" fill="none" xmlns="http://www.w3.org/2000/svg">
<path d="M13.0799 0V1.375H10.6629V3.51855C11.9849 3.62955 13.2159 4.03531 14.2879 4.69531L15.8211 2.67871L16.9149 3.50879L15.3904 5.5166C17.1293 7.03452 18.2516 9.24078 18.2518 11.7256C18.2518 16.2875 14.5392 19.9998 9.97638 20C5.41338 20 1.70001 16.2876 1.70001 11.7256C1.70023 7.39681 5.05106 3.87359 9.28888 3.51855V1.375H6.87091V0H13.0799ZM9.97638 4.82324C6.17152 4.82324 3.07524 7.91978 3.07501 11.7256C3.07501 15.5296 6.17138 18.626 9.97638 18.626C13.7812 18.6258 16.8768 15.5295 16.8768 11.7256C16.8765 7.9199 13.7811 4.82344 9.97638 4.82324ZM9.97638 6.54883C12.8341 6.54903 15.1521 8.86582 15.1522 11.7246C15.1522 14.5835 12.8342 16.9012 9.97638 16.9014V6.54883Z" fill="#001E28"/>
</svg>
