<svg width="20" height="20" viewBox="0 0 20 20" fill="none" xmlns="http://www.w3.org/2000/svg">
<path d="M13.0799 0V1.37402H10.6619V3.51758C11.9839 3.62858 13.2149 4.03431 14.2879 4.69531L15.8211 2.67871L16.9139 3.50879L15.3904 5.5166C17.1283 7.03452 18.2507 9.23979 18.2508 11.7246C18.2508 16.2865 14.5382 19.9998 9.9754 20C5.4134 20 1.70001 16.2866 1.70001 11.7246C1.70021 7.39681 5.05107 3.8736 9.2879 3.51758V1.37402H6.87091V0H13.0799ZM9.9754 4.82227C6.17053 4.82227 3.07522 7.91979 3.07501 11.7246C3.07501 15.5296 6.1704 18.626 9.9754 18.626C13.7802 18.6258 16.8758 15.5295 16.8758 11.7246C16.8756 7.91992 13.7801 4.82248 9.9754 4.82227ZM9.9754 6.54883C12.8343 6.54883 15.151 8.86474 15.1512 11.7246H9.9754V6.54883Z" fill="#001E28"/>
</svg>
