<svg width="20" height="20" viewBox="0 0 20 20" fill="none" xmlns="http://www.w3.org/2000/svg">
<path d="M6.99023 0L9.09277 2.07129C12.5395 2.12417 15.2542 3.11354 17.1699 5.01465C19.9998 7.82149 20 11.5707 20 11.7295V20H18.5996V11.7422C18.5995 11.6905 18.5766 8.3796 16.1982 5.99512C14.5309 4.31642 12.0835 3.46686 8.9375 3.4668H8.65137L6.86621 1.68555V4.66113L1.40039 11.2725V12.0625L2.68848 13.0518L6.7207 10.333H9.66699V8.93359H11.0645V11.7334H7.12598L2.61914 14.7754L0 12.7637V10.793L5.4668 4.17578V0H6.99023ZM9.50684 13.0635C8.16309 17.1764 4.32691 19.9591 0 19.96V18.5811C1.15318 18.5839 2.29539 18.3536 3.35742 17.9043C4.38193 17.4714 5.31226 16.8432 6.09766 16.0557C6.8851 15.2703 7.51314 14.3397 7.94629 13.3154C7.98074 13.2327 8.01374 13.1499 8.0459 13.0664L9.50684 13.0635Z" fill="#001E28"/>
</svg>
