<svg width="24" height="16" viewBox="0 0 24 16" fill="none" xmlns="http://www.w3.org/2000/svg">
<g clip-path="url(#clip0_986_17549)">
<mask id="mask0_986_17549" style="mask-type:luminance" maskUnits="userSpaceOnUse" x="0" y="0" width="24" height="16">
<path d="M0 16H24V1.90735e-06H0V16Z" fill="white"/>
</mask>
<g mask="url(#mask0_986_17549)">
<path d="M7.41888 5.68492C6.83788 5.14462 6.80788 5.7685 5.70988 5.31178L6.70688 6.74562L5.35188 5.81228C5.36688 6.77248 6.00188 6.74661 5.64088 7.45407C5.61388 6.66303 5.14888 7.08392 4.69688 5.9884L4.38288 7.70283L4.08788 6.08989C3.41688 6.77945 3.88388 7.20731 3.12588 7.45407C3.66888 6.87596 3.04188 6.84611 3.50088 5.75358L2.05988 6.74562L2.99788 5.39736C2.03288 5.41228 2.05888 6.04412 1.34788 5.68492C2.14288 5.65805 1.72088 5.19537 2.82088 4.74562L1.09788 4.43417L2.71888 4.14064C2.02588 3.47198 1.59588 3.93666 1.34788 3.18243C1.92888 3.72273 1.95888 3.09885 3.05688 3.55457L2.05988 2.12174L3.41488 3.05507C3.39988 2.09487 2.76488 2.12074 3.12588 1.41328C3.15288 2.20432 3.61788 1.78442 4.06988 2.87895L4.38288 1.16452L4.67788 2.77746C5.34988 2.0879 4.88288 1.66004 5.64088 1.41328C5.09788 1.99139 5.72488 2.02124 5.26688 3.11477L6.70688 2.12174L5.76888 3.46999C6.73388 3.45507 6.70788 2.82422 7.41888 3.18243C6.62388 3.2093 7.04588 3.67198 5.94588 4.12174L7.66888 4.43417L6.04688 4.72771C6.74088 5.39537 7.17088 4.93069 7.41888 5.68492ZM23.9999 7.13169H8.86888V5.33865H23.9999V3.57348H8.86888V1.78144H23.9999V0.000342369H-0.00012207V8.92273H23.9999V7.13169Z" fill="#FAFAFA"/>
</g>
<mask id="mask1_986_17549" style="mask-type:luminance" maskUnits="userSpaceOnUse" x="0" y="0" width="24" height="16">
<path d="M0 16H24V1.90735e-06H0V16Z" fill="white"/>
</mask>
<g mask="url(#mask1_986_17549)">
<path d="M24 10.6747H0V12.4786H24V10.6747Z" fill="#FAFAFA"/>
</g>
<mask id="mask2_986_17549" style="mask-type:luminance" maskUnits="userSpaceOnUse" x="0" y="0" width="24" height="16">
<path d="M0 16H24V1.90735e-06H0V16Z" fill="white"/>
</mask>
<g mask="url(#mask2_986_17549)">
<path d="M24 14.2328H0V16H24V14.2328Z" fill="#FAFAFA"/>
</g>
<mask id="mask3_986_17549" style="mask-type:luminance" maskUnits="userSpaceOnUse" x="0" y="0" width="24" height="16">
<path d="M0 16H24V1.90735e-06H0V16Z" fill="white"/>
</mask>
<g mask="url(#mask3_986_17549)">
<path d="M3.95804 5.43769L3.50004 5.75312C3.04104 6.84565 3.66904 6.8755 3.12604 7.45361C3.88404 7.20685 3.41604 6.77899 4.08804 6.08943L3.97104 5.44267C3.96604 5.44068 3.96204 5.43968 3.95804 5.43769Z" fill="#FBD118"/>
</g>
<mask id="mask4_986_17549" style="mask-type:luminance" maskUnits="userSpaceOnUse" x="0" y="0" width="24" height="16">
<path d="M0 16H24V1.90735e-06H0V16Z" fill="white"/>
</mask>
<g mask="url(#mask4_986_17549)">
<path d="M4.80859 3.42957L5.26659 3.11414C5.72559 2.02161 5.09759 1.99175 5.64059 1.41365C4.88259 1.65942 5.35059 2.08827 4.67859 2.77782L4.79659 3.42459C4.80059 3.42658 4.80459 3.42758 4.80859 3.42957Z" fill="#FBD118"/>
</g>
<mask id="mask5_986_17549" style="mask-type:luminance" maskUnits="userSpaceOnUse" x="0" y="0" width="24" height="16">
<path d="M0 16H24V1.90735e-06H0V16Z" fill="white"/>
</mask>
<g mask="url(#mask5_986_17549)">
<path d="M3.37414 4.01017L3.05714 3.55445C1.95914 3.09774 1.92914 3.72261 1.34814 3.18231C1.59614 3.93654 2.02614 3.47087 2.71914 4.13953L3.36914 4.02211C3.37114 4.01813 3.37214 4.01415 3.37414 4.01017Z" fill="#FBD118"/>
</g>
<mask id="mask6_986_17549" style="mask-type:luminance" maskUnits="userSpaceOnUse" x="0" y="0" width="24" height="16">
<path d="M0 16H24V1.90735e-06H0V16Z" fill="white"/>
</mask>
<g mask="url(#mask6_986_17549)">
<path d="M5.39319 4.85647L5.70919 5.31219C6.80819 5.7689 6.83819 5.14403 7.41919 5.68433C7.17119 4.9301 6.74119 5.39477 6.04719 4.72711L5.39719 4.84453C5.39519 4.84851 5.39419 4.85249 5.39319 4.85647Z" fill="#FBD118"/>
</g>
<mask id="mask7_986_17549" style="mask-type:luminance" maskUnits="userSpaceOnUse" x="0" y="0" width="24" height="16">
<path d="M0 16H24V1.90735e-06H0V16Z" fill="white"/>
</mask>
<g mask="url(#mask7_986_17549)">
<path d="M3.36914 4.84434L2.82114 4.74483C1.72114 5.19558 2.14214 5.65727 1.34814 5.68414C2.05914 6.04334 2.03314 5.4115 2.99814 5.39657L3.37414 4.85628C3.37214 4.8523 3.37114 4.84832 3.36914 4.84434Z" fill="#FBD118"/>
</g>
<mask id="mask8_986_17549" style="mask-type:luminance" maskUnits="userSpaceOnUse" x="0" y="0" width="24" height="16">
<path d="M0 16H24V1.90735e-06H0V16Z" fill="white"/>
</mask>
<g mask="url(#mask8_986_17549)">
<path d="M5.39749 4.02232L5.94549 4.12183C7.04649 3.67108 6.62449 3.20939 7.41849 3.18252C6.70749 2.82332 6.73349 3.45516 5.76849 3.47008L5.39349 4.00939C5.39449 4.01436 5.39549 4.01834 5.39749 4.02232Z" fill="#FBD118"/>
</g>
<mask id="mask9_986_17549" style="mask-type:luminance" maskUnits="userSpaceOnUse" x="0" y="0" width="24" height="16">
<path d="M0 16H24V1.90735e-06H0V16Z" fill="white"/>
</mask>
<g mask="url(#mask9_986_17549)">
<path d="M3.97074 3.42471L4.07074 2.87944C3.61774 1.78392 3.15274 2.20382 3.12574 1.41377C2.76474 2.12123 3.39974 2.09536 3.41474 3.05556L3.95774 3.42969C3.96174 3.4277 3.96674 3.4267 3.97074 3.42471Z" fill="#FBD118"/>
</g>
<mask id="mask10_986_17549" style="mask-type:luminance" maskUnits="userSpaceOnUse" x="0" y="0" width="24" height="16">
<path d="M0 16H24V1.90735e-06H0V16Z" fill="white"/>
</mask>
<g mask="url(#mask10_986_17549)">
<path d="M4.79641 5.44291L4.69641 5.98819C5.14941 7.08371 5.61341 6.66381 5.64041 7.45386C6.00141 6.74639 5.36641 6.77227 5.35241 5.81207L4.80841 5.43794C4.80441 5.43993 4.80041 5.44092 4.79641 5.44291Z" fill="#FBD118"/>
</g>
<mask id="mask11_986_17549" style="mask-type:luminance" maskUnits="userSpaceOnUse" x="0" y="0" width="24" height="16">
<path d="M0 16H24V1.90735e-06H0V16Z" fill="white"/>
</mask>
<g mask="url(#mask11_986_17549)">
<path d="M4.38334 5.52304C4.23734 5.52304 4.09834 5.49419 3.97034 5.44245L4.08834 6.08921L4.38334 7.70215L4.69634 5.98772L4.79634 5.44245C4.66934 5.49419 4.52934 5.52304 4.38334 5.52304Z" fill="#FBD118"/>
</g>
<mask id="mask12_986_17549" style="mask-type:luminance" maskUnits="userSpaceOnUse" x="0" y="0" width="24" height="16">
<path d="M0 16H24V1.90735e-06H0V16Z" fill="white"/>
</mask>
<g mask="url(#mask12_986_17549)">
<path d="M4.38334 3.3436V1.16449L4.07034 2.87892L3.97034 3.42419C4.09834 3.37245 4.23734 3.3436 4.38334 3.3436Z" fill="#FBD118"/>
</g>
<mask id="mask13_986_17549" style="mask-type:luminance" maskUnits="userSpaceOnUse" x="0" y="0" width="24" height="16">
<path d="M0 16H24V1.90735e-06H0V16Z" fill="white"/>
</mask>
<g mask="url(#mask13_986_17549)">
<path d="M4.38336 3.3436C4.52936 3.3436 4.66936 3.37245 4.79636 3.42419L4.67836 2.77743L4.38336 1.16449V3.3436Z" fill="#FBD118"/>
</g>
<mask id="mask14_986_17549" style="mask-type:luminance" maskUnits="userSpaceOnUse" x="0" y="0" width="24" height="16">
<path d="M0 16H24V1.90735e-06H0V16Z" fill="white"/>
</mask>
<g mask="url(#mask14_986_17549)">
<path d="M3.28814 4.43329C3.28814 4.28802 3.31714 4.14872 3.36914 4.02235L2.71914 4.13976L1.09814 4.43329L2.82114 4.74474L3.36914 4.84424C3.31714 4.71787 3.28814 4.57857 3.28814 4.43329Z" fill="#FBD118"/>
</g>
<mask id="mask15_986_17549" style="mask-type:luminance" maskUnits="userSpaceOnUse" x="0" y="0" width="24" height="16">
<path d="M0 16H24V1.90735e-06H0V16Z" fill="white"/>
</mask>
<g mask="url(#mask15_986_17549)">
<path d="M5.94583 4.12183L5.39783 4.02233C5.44883 4.14969 5.47883 4.288 5.47883 4.43327C5.47883 4.57855 5.44883 4.71785 5.39783 4.84521L6.04783 4.72681L7.66883 4.43327L5.94583 4.12183Z" fill="#FBD118"/>
</g>
<mask id="mask16_986_17549" style="mask-type:luminance" maskUnits="userSpaceOnUse" x="0" y="0" width="24" height="16">
<path d="M0 16H24V1.90735e-06H0V16Z" fill="white"/>
</mask>
<g mask="url(#mask16_986_17549)">
<path d="M3.37394 4.85656L2.99794 5.39686L2.05994 6.74512L3.49994 5.75308L3.95794 5.43765C3.69494 5.32721 3.48494 5.11825 3.37394 4.85656Z" fill="#FBD118"/>
</g>
<mask id="mask17_986_17549" style="mask-type:luminance" maskUnits="userSpaceOnUse" x="0" y="0" width="24" height="16">
<path d="M0 16H24V1.90735e-06H0V16Z" fill="white"/>
</mask>
<g mask="url(#mask17_986_17549)">
<path d="M5.39308 4.01013L5.76808 3.47083L6.70608 2.12257L5.26708 3.11461L4.80908 3.43003C5.07208 3.53949 5.28208 3.74844 5.39308 4.01013Z" fill="#FBD118"/>
</g>
<mask id="mask18_986_17549" style="mask-type:luminance" maskUnits="userSpaceOnUse" x="0" y="0" width="24" height="16">
<path d="M0 16H24V1.90735e-06H0V16Z" fill="white"/>
</mask>
<g mask="url(#mask18_986_17549)">
<path d="M3.95794 3.42953L3.41494 3.0554L2.05994 2.12206L3.05694 3.5549L3.37394 4.01062C3.48494 3.74893 3.69494 3.53997 3.95794 3.42953Z" fill="#FBD118"/>
</g>
<mask id="mask19_986_17549" style="mask-type:luminance" maskUnits="userSpaceOnUse" x="0" y="0" width="24" height="16">
<path d="M0 16H24V1.90735e-06H0V16Z" fill="white"/>
</mask>
<g mask="url(#mask19_986_17549)">
<path d="M4.80853 5.43765L5.35153 5.81178L6.70653 6.74512L5.70953 5.31228L5.39253 4.85656C5.28153 5.11825 5.07153 5.32721 4.80853 5.43765Z" fill="#FBD118"/>
</g>
<mask id="mask20_986_17549" style="mask-type:luminance" maskUnits="userSpaceOnUse" x="0" y="0" width="24" height="16">
<path d="M0 16H24V1.90735e-06H0V16Z" fill="white"/>
</mask>
<g mask="url(#mask20_986_17549)">
<path d="M4.38327 5.21646C4.20427 5.21646 4.33327 5.18661 4.38327 5.18661C4.43327 5.18661 4.56227 5.21646 4.38327 5.21646ZM3.97527 3.83935C4.05427 3.8493 4.30327 4.02741 4.26327 4.05726C4.22427 4.08711 4.18427 3.93786 3.93527 3.93786C3.68627 3.93786 3.64627 4.07716 3.57727 3.99756C3.66627 3.909 3.89527 3.8294 3.97527 3.83935ZM4.79127 4.75079C4.74127 4.71099 4.63227 4.68114 4.55227 4.68114C4.47327 4.68114 4.45327 4.73089 4.38327 4.73089C4.31327 4.73089 4.29327 4.68114 4.21427 4.68114C4.13427 4.68114 4.02527 4.71099 3.97527 4.75079C3.96527 4.76074 4.00527 4.67119 4.08427 4.66124C4.16427 4.65228 4.13427 4.52293 4.22427 4.50303C4.22427 4.54283 4.19427 4.53288 4.18427 4.59258C4.18427 4.64134 4.27427 4.64134 4.29327 4.59258C4.27427 4.67119 4.33327 4.67119 4.38327 4.67119C4.43327 4.67119 4.49227 4.67119 4.47327 4.59258C4.49227 4.64134 4.58227 4.64134 4.58227 4.59258C4.57227 4.53288 4.54227 4.54283 4.54227 4.50303C4.63227 4.52293 4.60227 4.65228 4.68227 4.66124C4.76127 4.67119 4.80127 4.76074 4.79127 4.75079ZM4.84127 4.03736C5.00027 4.03736 5.07027 4.15676 5.13027 4.18562C5.08927 4.18562 5.05027 4.15179 4.99427 4.12293C5.01027 4.1488 5.01827 4.17965 5.00127 4.21149C5.01327 4.20353 5.02727 4.19557 5.04027 4.18562C5.11027 4.13686 4.94127 4.30502 4.83127 4.30502C4.72127 4.30502 4.57227 4.24532 4.60227 4.20552C4.64227 4.14681 4.69227 4.26522 4.80127 4.26522H4.80227C4.74027 4.23935 4.67027 4.16174 4.69227 4.09806C4.65627 4.11 4.62927 4.13487 4.57227 4.18562V4.17666C4.58227 4.05726 4.68227 4.03736 4.84127 4.03736ZM3.72627 4.18562C3.73927 4.19557 3.75327 4.20353 3.76627 4.21149C3.74827 4.17965 3.75627 4.1488 3.77227 4.12293C3.71627 4.15179 3.67727 4.18562 3.63627 4.18562C3.69627 4.15676 3.76627 4.03736 3.92527 4.03736C4.08427 4.03736 4.18427 4.05726 4.19427 4.17666V4.18562C4.13727 4.13487 4.11027 4.11 4.07427 4.09806C4.09627 4.16174 4.02627 4.23935 3.96427 4.26522H3.96527C4.07427 4.26522 4.12427 4.14681 4.16427 4.20552C4.19427 4.24532 4.04527 4.30502 3.93527 4.30502C3.82527 4.30502 3.65627 4.13686 3.72627 4.18562ZM4.38327 5.09706C4.13827 5.09706 4.17227 5.0493 3.85927 4.91497C3.83727 4.94582 3.83227 4.95278 3.80627 4.99855C3.81627 4.9289 3.83527 4.89905 3.91527 4.84034C3.88927 4.87517 3.87427 4.89607 3.86227 4.91199C3.87427 4.91298 3.88427 4.91497 3.89527 4.91696C4.00627 4.91995 4.15527 4.84034 4.22427 4.84034C4.30327 4.84034 4.32327 4.86024 4.38327 4.86024C4.44327 4.86024 4.46327 4.84034 4.54227 4.84034C4.61127 4.84034 4.76027 4.91995 4.87127 4.91696C4.88227 4.91497 4.89227 4.91298 4.90427 4.91199C4.89227 4.89607 4.87727 4.87517 4.85127 4.84034C4.93127 4.89905 4.95027 4.9289 4.96027 4.99855C4.93427 4.95278 4.92927 4.94582 4.90727 4.91497C4.59427 5.0493 4.62827 5.09706 4.38327 5.09706ZM5.19027 3.99756C5.12027 4.07716 5.08027 3.93786 4.83127 3.93786C4.58227 3.93786 4.54227 4.08711 4.50327 4.05726C4.46327 4.02741 4.71227 3.8493 4.79127 3.83935C4.87127 3.8294 5.10027 3.909 5.19027 3.99756ZM4.80827 3.4294C4.80427 3.42741 4.80027 3.42641 4.79627 3.42442C4.66927 3.37268 4.52927 3.34383 4.38327 3.34383C4.23727 3.34383 4.09827 3.37268 3.97027 3.42442C3.96627 3.42641 3.96227 3.42741 3.95827 3.4294C3.69527 3.53985 3.48527 3.7488 3.37427 4.01049C3.37227 4.01447 3.37127 4.01845 3.36927 4.02243C3.31727 4.1498 3.28827 4.2881 3.28827 4.43338C3.28827 4.57865 3.31727 4.71796 3.36927 4.84432C3.37127 4.8483 3.37227 4.85328 3.37427 4.85726C3.48527 5.11796 3.69527 5.32791 3.95827 5.43835C3.96227 5.44034 3.96627 5.44134 3.97027 5.44333C4.09827 5.49408 4.23727 5.52393 4.38327 5.52393C4.52927 5.52393 4.66927 5.49408 4.79627 5.44333C4.80027 5.44134 4.80427 5.44034 4.80827 5.43835C5.07127 5.32791 5.28127 5.11796 5.39327 4.85726C5.39427 4.85328 5.39527 4.8483 5.39727 4.84432C5.44927 4.71796 5.47827 4.57865 5.47827 4.43338C5.47827 4.2881 5.44927 4.1498 5.39727 4.02243C5.39527 4.01845 5.39427 4.01447 5.39327 4.01049C5.28227 3.7488 5.07127 3.53985 4.80827 3.4294Z" fill="#FBD118"/>
</g>
<mask id="mask21_986_17549" style="mask-type:luminance" maskUnits="userSpaceOnUse" x="0" y="0" width="24" height="16">
<path d="M0 16H24V1.90735e-06H0V16Z" fill="white"/>
</mask>
<g mask="url(#mask21_986_17549)">
<path d="M4.88483 4.25732C4.91983 4.25036 4.94883 4.23941 4.97783 4.22449C4.99983 4.18369 4.98583 4.14091 4.96683 4.11205C4.94883 4.10409 4.92883 4.09812 4.90583 4.09315C4.95183 4.14091 4.92883 4.2215 4.88483 4.25732Z" fill="#FBD118"/>
</g>
<mask id="mask22_986_17549" style="mask-type:luminance" maskUnits="userSpaceOnUse" x="0" y="0" width="24" height="16">
<path d="M0 16H24V1.90735e-06H0V16Z" fill="white"/>
</mask>
<g mask="url(#mask22_986_17549)">
<path d="M3.86033 4.09315C3.83833 4.09713 3.81833 4.10409 3.79933 4.11106C3.78133 4.14091 3.76733 4.18369 3.78933 4.22449C3.81733 4.23842 3.84733 4.25036 3.88133 4.25732C3.83733 4.2215 3.81433 4.13991 3.86033 4.09315Z" fill="#FBD118"/>
</g>
<mask id="mask23_986_17549" style="mask-type:luminance" maskUnits="userSpaceOnUse" x="0" y="0" width="24" height="16">
<path d="M0 16H24V1.90735e-06H0V16Z" fill="white"/>
</mask>
<g mask="url(#mask23_986_17549)">
<path d="M4.38327 4.93859C4.19027 4.93859 4.11227 4.95252 4.05627 4.9565C4.15027 4.98734 4.22827 5.01819 4.38327 5.01819C4.53827 5.01819 4.61627 4.98734 4.71027 4.9565C4.65427 4.95252 4.57627 4.93859 4.38327 4.93859Z" fill="#FBD118"/>
</g>
<mask id="mask24_986_17549" style="mask-type:luminance" maskUnits="userSpaceOnUse" x="0" y="0" width="24" height="16">
<path d="M0 16H24V1.90735e-06H0V16Z" fill="white"/>
</mask>
<g mask="url(#mask24_986_17549)">
<path d="M4.79161 3.83915C4.71161 3.8491 4.46261 4.02721 4.50261 4.05706C4.54261 4.08692 4.58261 3.93866 4.83161 3.93866C5.08061 3.93866 5.12061 4.07697 5.18961 3.99836C5.10061 3.90881 4.87161 3.8292 4.79161 3.83915Z" fill="#010101"/>
</g>
<mask id="mask25_986_17549" style="mask-type:luminance" maskUnits="userSpaceOnUse" x="0" y="0" width="24" height="16">
<path d="M0 16H24V1.90735e-06H0V16Z" fill="white"/>
</mask>
<g mask="url(#mask25_986_17549)">
<path d="M4.90612 4.09326C4.88612 4.08928 4.86512 4.08629 4.84112 4.08629C4.76412 4.08629 4.72512 4.08729 4.69212 4.09724C4.67012 4.16092 4.74012 4.23853 4.80212 4.2644C4.83412 4.2644 4.86112 4.26142 4.88512 4.25744C4.92912 4.22162 4.95212 4.14003 4.90612 4.09326Z" fill="#010101"/>
</g>
<mask id="mask26_986_17549" style="mask-type:luminance" maskUnits="userSpaceOnUse" x="0" y="0" width="24" height="16">
<path d="M0 16H24V1.90735e-06H0V16Z" fill="white"/>
</mask>
<g mask="url(#mask26_986_17549)">
<path d="M4.57281 4.17584V4.18579C4.62981 4.13405 4.65681 4.11017 4.69281 4.09723C4.72581 4.08728 4.76481 4.08629 4.84181 4.08629C4.86481 4.08629 4.88581 4.08927 4.90581 4.09325C4.92881 4.09723 4.94881 4.1042 4.96681 4.11116C4.95681 4.09425 4.94681 4.08231 4.94081 4.07634C4.95881 4.0833 4.97981 4.10121 4.99381 4.1231C5.05081 4.15097 5.08881 4.18579 5.12981 4.18579C5.07081 4.15594 5.00081 4.03654 4.84181 4.03654C4.68181 4.03654 4.58281 4.05644 4.57281 4.17584Z" fill="#010101"/>
</g>
<mask id="mask27_986_17549" style="mask-type:luminance" maskUnits="userSpaceOnUse" x="0" y="0" width="24" height="16">
<path d="M0 16H24V1.90735e-06H0V16Z" fill="white"/>
</mask>
<g mask="url(#mask27_986_17549)">
<path d="M4.94091 4.26513C4.95891 4.2522 4.96991 4.23926 4.97791 4.22433C4.94891 4.23926 4.91991 4.25021 4.88491 4.25717C4.86091 4.26215 4.83391 4.26513 4.80291 4.26513H4.80191C4.69191 4.26513 4.64191 4.14672 4.60291 4.20543C4.57291 4.24523 4.72191 4.30493 4.83191 4.30493C4.94091 4.30493 5.10991 4.13677 5.04091 4.18553C5.02691 4.19548 5.01391 4.20344 5.00091 4.2114C4.98991 4.2303 4.97191 4.24822 4.94091 4.26513Z" fill="#010101"/>
</g>
<mask id="mask28_986_17549" style="mask-type:luminance" maskUnits="userSpaceOnUse" x="0" y="0" width="24" height="16">
<path d="M0 16H24V1.90735e-06H0V16Z" fill="white"/>
</mask>
<g mask="url(#mask28_986_17549)">
<path d="M4.9408 4.07671C4.9468 4.08268 4.9568 4.09462 4.9668 4.11154C4.9848 4.14039 4.9998 4.18318 4.9778 4.22397C4.9698 4.2389 4.9588 4.25184 4.9408 4.26477C4.9718 4.24786 4.9898 4.22994 5.0008 4.21104C5.0178 4.18019 5.0108 4.14835 4.9938 4.12248C4.9798 4.10059 4.9588 4.08368 4.9408 4.07671Z" fill="#010101"/>
</g>
<mask id="mask29_986_17549" style="mask-type:luminance" maskUnits="userSpaceOnUse" x="0" y="0" width="24" height="16">
<path d="M0 16H24V1.90735e-06H0V16Z" fill="white"/>
</mask>
<g mask="url(#mask29_986_17549)">
<path d="M4.43306 4.93863H4.38306C4.57706 4.93863 4.65506 4.95256 4.71006 4.95654C4.75606 4.94162 4.80706 4.92769 4.87106 4.91674C4.76106 4.91973 4.61106 4.83913 4.54206 4.83913C4.46306 4.83913 4.44306 4.85903 4.38306 4.85903L4.43306 4.93863Z" fill="#010101"/>
</g>
<mask id="mask30_986_17549" style="mask-type:luminance" maskUnits="userSpaceOnUse" x="0" y="0" width="24" height="16">
<path d="M0 16H24V1.90735e-06H0V16Z" fill="white"/>
</mask>
<g mask="url(#mask30_986_17549)">
<path d="M4.96026 4.99792C4.95026 4.92827 4.93126 4.89842 4.85126 4.83972C4.87726 4.87454 4.89226 4.89544 4.90426 4.91136C4.91026 4.91036 4.91526 4.90937 4.92026 4.90837C4.91626 4.91136 4.91226 4.91335 4.90726 4.91534C4.92926 4.94519 4.93426 4.95315 4.96026 4.99792Z" fill="#010101"/>
</g>
<mask id="mask31_986_17549" style="mask-type:luminance" maskUnits="userSpaceOnUse" x="0" y="0" width="24" height="16">
<path d="M0 16H24V1.90735e-06H0V16Z" fill="white"/>
</mask>
<g mask="url(#mask31_986_17549)">
<path d="M4.90436 4.91146C4.89236 4.91246 4.88236 4.91445 4.87136 4.91644C4.80736 4.92838 4.75636 4.94231 4.71036 4.95624C4.61636 4.98709 4.53836 5.01793 4.38336 5.01793H4.43336L4.38336 5.09753C4.62836 5.09753 4.59436 5.04878 4.90736 4.91445C4.91236 4.91246 4.91636 4.91146 4.92136 4.90848C4.91536 4.90947 4.91036 4.91047 4.90436 4.91146Z" fill="#010101"/>
</g>
<mask id="mask32_986_17549" style="mask-type:luminance" maskUnits="userSpaceOnUse" x="0" y="0" width="24" height="16">
<path d="M0 16H24V1.90735e-06H0V16Z" fill="white"/>
</mask>
<g mask="url(#mask32_986_17549)">
<path d="M4.68206 4.66125C4.60206 4.6513 4.63206 4.52294 4.54206 4.50304C4.54206 4.54185 4.57306 4.53289 4.58206 4.5916C4.58206 4.64135 4.49306 4.64135 4.47306 4.5916C4.49306 4.6712 4.43306 4.6712 4.38306 4.6712V4.7309C4.45306 4.7309 4.47306 4.68115 4.55306 4.68115C4.63206 4.68115 4.74206 4.711 4.79106 4.74981C4.80206 4.76075 4.76206 4.6712 4.68206 4.66125Z" fill="#010101"/>
</g>
<mask id="mask33_986_17549" style="mask-type:luminance" maskUnits="userSpaceOnUse" x="0" y="0" width="24" height="16">
<path d="M0 16H24V1.90735e-06H0V16Z" fill="white"/>
</mask>
<g mask="url(#mask33_986_17549)">
<path d="M3.57715 3.99749C3.64615 4.07709 3.68615 3.93778 3.93515 3.93778C4.18415 3.93778 4.22415 4.08604 4.26415 4.05719C4.30415 4.02734 4.05515 3.84923 3.97515 3.83828C3.89515 3.82933 3.66615 3.90793 3.57715 3.99749Z" fill="#010101"/>
</g>
<mask id="mask34_986_17549" style="mask-type:luminance" maskUnits="userSpaceOnUse" x="0" y="0" width="24" height="16">
<path d="M0 16H24V1.90735e-06H0V16Z" fill="white"/>
</mask>
<g mask="url(#mask34_986_17549)">
<path d="M3.9254 4.08678C3.9014 4.08678 3.8804 4.08977 3.8604 4.09375C3.8144 4.14051 3.8374 4.22211 3.8824 4.25693C3.9064 4.26191 3.9324 4.26489 3.9644 4.26489C4.0264 4.23902 4.0964 4.16141 4.0744 4.09773C4.0414 4.08678 4.0024 4.08678 3.9254 4.08678Z" fill="#010101"/>
</g>
<mask id="mask35_986_17549" style="mask-type:luminance" maskUnits="userSpaceOnUse" x="0" y="0" width="24" height="16">
<path d="M0 16H24V1.90735e-06H0V16Z" fill="white"/>
</mask>
<g mask="url(#mask35_986_17549)">
<path d="M3.82566 4.07672C3.82066 4.08269 3.80966 4.09463 3.79966 4.11155C3.81766 4.10359 3.83766 4.09762 3.86066 4.09364C3.88066 4.08966 3.90166 4.08667 3.92566 4.08667C4.00166 4.08667 4.04166 4.08667 4.07466 4.09762C4.10966 4.10956 4.13766 4.13443 4.19366 4.18518V4.17623C4.18366 4.05682 4.08466 4.03692 3.92566 4.03692C3.76566 4.03692 3.69666 4.15632 3.63666 4.18518C3.67766 4.18518 3.71566 4.15135 3.77266 4.12249C3.78666 4.1006 3.80766 4.08369 3.82566 4.07672Z" fill="#010101"/>
</g>
<mask id="mask36_986_17549" style="mask-type:luminance" maskUnits="userSpaceOnUse" x="0" y="0" width="24" height="16">
<path d="M0 16H24V1.90735e-06H0V16Z" fill="white"/>
</mask>
<g mask="url(#mask36_986_17549)">
<path d="M3.93537 4.30457C4.04437 4.30457 4.19337 4.24486 4.16437 4.20506C4.12437 4.14636 4.07437 4.26476 3.96437 4.26476C3.93337 4.26476 3.90637 4.26178 3.88137 4.2568C3.84737 4.24984 3.81737 4.23889 3.78937 4.22397C3.79637 4.23889 3.80737 4.25183 3.82537 4.26476C3.79437 4.24785 3.77637 4.22994 3.76637 4.21103C3.75237 4.20307 3.73937 4.19511 3.72637 4.18516C3.65637 4.13641 3.82537 4.30457 3.93537 4.30457Z" fill="#010101"/>
</g>
<mask id="mask37_986_17549" style="mask-type:luminance" maskUnits="userSpaceOnUse" x="0" y="0" width="24" height="16">
<path d="M0 16H24V1.90735e-06H0V16Z" fill="white"/>
</mask>
<g mask="url(#mask37_986_17549)">
<path d="M3.8257 4.26514C3.8077 4.2522 3.7967 4.23927 3.7887 4.22434C3.7667 4.18354 3.7817 4.14076 3.7997 4.1119C3.8097 4.09499 3.8207 4.08305 3.8257 4.07708C3.8077 4.08404 3.7867 4.10096 3.7727 4.12285C3.7557 4.14872 3.7487 4.18056 3.7657 4.21141C3.7767 4.23031 3.7947 4.24822 3.8257 4.26514Z" fill="#010101"/>
</g>
<mask id="mask38_986_17549" style="mask-type:luminance" maskUnits="userSpaceOnUse" x="0" y="0" width="24" height="16">
<path d="M0 16H24V1.90735e-06H0V16Z" fill="white"/>
</mask>
<g mask="url(#mask38_986_17549)">
<path d="M4.05632 4.95654C4.11232 4.95256 4.19032 4.93863 4.38332 4.93863H4.43332L4.38332 4.85903C4.32432 4.85903 4.30432 4.83913 4.22432 4.83913C4.15532 4.83913 4.00632 4.91973 3.89532 4.91674C3.95932 4.92769 4.01132 4.94162 4.05632 4.95654Z" fill="#010101"/>
</g>
<mask id="mask39_986_17549" style="mask-type:luminance" maskUnits="userSpaceOnUse" x="0" y="0" width="24" height="16">
<path d="M0 16H24V1.90735e-06H0V16Z" fill="white"/>
</mask>
<g mask="url(#mask39_986_17549)">
<path d="M3.86227 4.91148C3.87427 4.89556 3.88927 4.87466 3.91527 4.83984C3.83527 4.89854 3.81627 4.9284 3.80627 4.99805C3.83227 4.95327 3.83727 4.94531 3.85927 4.91446C3.85427 4.91247 3.85027 4.91148 3.84527 4.90849C3.85127 4.90949 3.85627 4.91048 3.86227 4.91148Z" fill="#010101"/>
</g>
<mask id="mask40_986_17549" style="mask-type:luminance" maskUnits="userSpaceOnUse" x="0" y="0" width="24" height="16">
<path d="M0 16H24V1.90735e-06H0V16Z" fill="white"/>
</mask>
<g mask="url(#mask40_986_17549)">
<path d="M4.43295 5.01781H4.38295C4.22795 5.01781 4.14995 4.98696 4.05595 4.95612C4.01095 4.94219 3.95895 4.92826 3.89495 4.91632C3.88495 4.91433 3.87395 4.91333 3.86195 4.91134C3.85595 4.91035 3.85095 4.90935 3.84595 4.90836C3.84995 4.91134 3.85395 4.91333 3.85895 4.91433C4.17195 5.04866 4.13795 5.09741 4.38295 5.09741L4.43295 5.01781Z" fill="#010101"/>
</g>
<mask id="mask41_986_17549" style="mask-type:luminance" maskUnits="userSpaceOnUse" x="0" y="0" width="24" height="16">
<path d="M0 16H24V1.90735e-06H0V16Z" fill="white"/>
</mask>
<g mask="url(#mask41_986_17549)">
<path d="M4.29343 4.59175C4.27343 4.6415 4.18443 4.6415 4.18443 4.59175C4.19343 4.53204 4.22443 4.54199 4.22443 4.50319C4.13443 4.52309 4.16443 4.65145 4.08443 4.6614C4.00443 4.67135 3.96443 4.7599 3.97543 4.74995C4.02443 4.71115 4.13443 4.6813 4.21343 4.6813C4.29343 4.6813 4.31343 4.73105 4.38343 4.73105V4.67135C4.33343 4.67135 4.27343 4.67135 4.29343 4.59175Z" fill="#010101"/>
</g>
<mask id="mask42_986_17549" style="mask-type:luminance" maskUnits="userSpaceOnUse" x="0" y="0" width="24" height="16">
<path d="M0 16H24V1.90735e-06H0V16Z" fill="white"/>
</mask>
<g mask="url(#mask42_986_17549)">
<path d="M4.38338 5.18646C4.33338 5.18646 4.20438 5.21631 4.38338 5.21631C4.56238 5.21631 4.43338 5.18646 4.38338 5.18646Z" fill="#010101"/>
</g>
<mask id="mask43_986_17549" style="mask-type:luminance" maskUnits="userSpaceOnUse" x="0" y="0" width="24" height="16">
<path d="M0 16H24V1.90735e-06H0V16Z" fill="white"/>
</mask>
<g mask="url(#mask43_986_17549)">
<path d="M8.8689 3.57312H23.9999V1.78108H8.8689V3.57312Z" fill="#1D439B"/>
</g>
<mask id="mask44_986_17549" style="mask-type:luminance" maskUnits="userSpaceOnUse" x="0" y="0" width="24" height="16">
<path d="M0 16H24V1.90735e-06H0V16Z" fill="white"/>
</mask>
<g mask="url(#mask44_986_17549)">
<path d="M8.8689 7.13135H23.9999V5.33831H8.8689V7.13135Z" fill="#1D439B"/>
</g>
<mask id="mask45_986_17549" style="mask-type:luminance" maskUnits="userSpaceOnUse" x="0" y="0" width="24" height="16">
<path d="M0 16H24V1.90735e-06H0V16Z" fill="white"/>
</mask>
<g mask="url(#mask45_986_17549)">
<path d="M24 8.92244H0V10.6747H24V8.92244Z" fill="#1D439B"/>
</g>
<mask id="mask46_986_17549" style="mask-type:luminance" maskUnits="userSpaceOnUse" x="0" y="0" width="24" height="16">
<path d="M0 16H24V1.90735e-06H0V16Z" fill="white"/>
</mask>
<g mask="url(#mask46_986_17549)">
<path d="M24 12.4805H0V14.2328H24V12.4805Z" fill="#1D439B"/>
</g>
</g>
<defs>
<clipPath id="clip0_986_17549">
<rect width="24" height="16" fill="white"/>
</clipPath>
</defs>
</svg>
