<svg width="20" height="20" viewBox="0 0 20 20" fill="none" xmlns="http://www.w3.org/2000/svg">
<path fill-rule="evenodd" clip-rule="evenodd" d="M18.636 18.6343H14.779V16.2243L13.684 15.1213L9.308 14.0303V13.4793C10.038 13.1583 10.951 12.7613 11.905 12.3783C11.905 9.9663 11.58 5.98731 9.247 4.62331C9.775 2.4703 10.825 1.36531 12.399 1.36531C15.191 1.36531 15.882 4.82931 15.941 7.92531C15.199 8.23031 14.499 8.53431 13.922 8.78631L13.513 8.96731V10.4633L17.944 11.5673L18.636 12.2633V18.6343ZM18.642 10.3313L15.562 9.56631C15.98 9.38731 16.425 9.2003 16.881 9.0183L17.309 8.8463V8.38331C17.309 1.08931 14.233 0.000305176 12.399 0.000305176C10.769 0.000305176 8.815 0.797305 7.946 4.19131C7.766 4.16631 7.585 4.14431 7.389 4.14431C3.354 4.14431 2.874 9.43231 2.874 12.3783C3.828 12.7613 4.741 13.1583 5.471 13.4793V14.0303L1.095 15.1213L0 16.2243V20.0003H7.389H12.399H14.779H20V11.6983L18.642 10.3313Z" fill="#EB0037"/>
</svg>
