<svg width="20" height="20" viewBox="0 0 20 20" fill="none" xmlns="http://www.w3.org/2000/svg">
<path d="M12.618 13.3496C11.95 13.6156 11.246 13.7467 10.5291 13.8037H10.6375L10.6024 19.3389L9.92365 20L9.26251 19.3223L9.29767 13.8037H9.36993C8.65401 13.7467 7.949 13.6156 7.28107 13.3496L7.78693 12.0723C8.4749 12.3453 9.21206 12.4805 9.94904 12.4805C10.687 12.4805 11.4251 12.3453 12.1121 12.0723L12.618 13.3496ZM9.95001 0C13.125 0 15.7 2.574 15.7 5.75C15.7 8.926 13.125 11.5 9.95001 11.5C6.77501 11.5 4.20001 8.926 4.20001 5.75C4.20001 2.574 6.77501 0 9.95001 0ZM9.95001 1.375C7.53701 1.375 5.57501 3.338 5.57501 5.75C5.57501 8.162 7.53701 10.125 9.95001 10.125C12.362 10.125 14.325 8.162 14.325 5.75C14.325 3.338 12.362 1.375 9.95001 1.375ZM8.56915 7.5918C8.63215 7.5918 8.69656 7.60114 8.76056 7.61914C9.12626 7.72529 9.33809 8.10683 9.23322 8.47266C9.14622 8.77566 8.86915 8.97266 8.56915 8.97266C8.50728 8.97265 8.44357 8.96325 8.3797 8.94531C8.01271 8.83932 7.80109 8.45879 7.90607 8.0918C7.99306 7.78882 8.26918 7.59182 8.56915 7.5918ZM11.3299 7.5918C11.3929 7.5918 11.4573 7.60114 11.5213 7.61914C11.887 7.72531 12.0988 8.10685 11.994 8.47266C11.907 8.77566 11.6299 8.97266 11.3299 8.97266C11.2679 8.97265 11.2025 8.96331 11.1395 8.94531C10.7728 8.8391 10.5609 8.45861 10.6668 8.0918C10.7538 7.7888 11.0299 7.5918 11.3299 7.5918ZM7.30743 5.52148C7.66435 5.52148 7.96778 5.79633 7.99591 6.1582C8.02491 6.5392 7.74017 6.87039 7.36017 6.90039C7.34228 6.90138 7.32435 6.90234 7.30646 6.90234C6.94953 6.90232 6.64801 6.62653 6.61993 6.26562C6.58993 5.88462 6.87372 5.55244 7.25372 5.52344C7.27163 5.52146 7.28953 5.52148 7.30743 5.52148ZM9.95001 5.52148C10.3069 5.52148 10.6104 5.79633 10.6385 6.1582C10.6675 6.5392 10.3827 6.87039 10.0027 6.90039C9.98484 6.90139 9.96694 6.90234 9.94904 6.90234C9.59206 6.90234 9.28958 6.62658 9.26154 6.26562C9.23154 5.88462 9.5163 5.55244 9.8963 5.52344C9.9142 5.52147 9.93211 5.52148 9.95001 5.52148ZM12.5936 5.52148C12.9503 5.52172 13.253 5.7965 13.2801 6.1582C13.3101 6.53914 13.0262 6.87029 12.6463 6.90039C12.6283 6.90139 12.6096 6.90234 12.5906 6.90234C12.2349 6.9021 11.9321 6.6264 11.9051 6.26562C11.8751 5.8847 12.159 5.55255 12.5389 5.52344C12.5569 5.52144 12.5756 5.52148 12.5936 5.52148Z" fill="#001E28"/>
</svg>
