<svg width="20" height="20" viewBox="0 0 20 20" fill="none" xmlns="http://www.w3.org/2000/svg">
<path d="M7.57812 13.3535C9.60397 13.8639 11.0342 15.1028 11.0342 16.5518C11.0342 18.4559 8.56415 19.9999 5.51758 20C2.47085 20 2.88284e-05 18.456 0 16.5518C0 15.1027 1.43098 13.8639 3.45703 13.3535V14.7725C2.17274 15.1725 1.3291 15.8974 1.3291 16.5518C1.32912 16.9717 1.68618 17.4355 2.30762 17.8232C3.13212 18.3388 4.30243 18.6348 5.51758 18.6348C7.87601 18.6347 9.70504 17.5149 9.70508 16.5518C9.70508 16.1319 9.3489 15.668 8.72754 15.2803C8.36806 15.0611 7.98154 14.8891 7.57812 14.7686V13.3535ZM16.5518 5.51758L6.20703 11.0342V17.2412H4.82715V0L16.5518 5.51758ZM16.8965 10.3447C18.6105 10.3447 20 11.7343 20 13.4482C19.9979 15.1614 18.6096 16.5496 16.8965 16.5518C15.1825 16.5517 13.793 15.1622 13.793 13.4482C13.793 11.7343 15.1825 10.3448 16.8965 10.3447ZM16.8965 11.7246C15.9443 11.7246 15.1729 12.4961 15.1729 13.4482C15.1729 14.4004 15.9443 15.1728 16.8965 15.1729C17.8487 15.1729 18.6211 14.4005 18.6211 13.4482C18.6202 12.4964 17.8483 11.7255 16.8965 11.7246ZM6.20703 9.66699L13.793 5.51758L6.20703 2.06934V9.66699Z" fill="#001E28"/>
</svg>
