<svg width="20" height="20" viewBox="0 0 20 20" fill="none" xmlns="http://www.w3.org/2000/svg">
<path d="M17.5283 3.40002L20 5.8717V14.0309L17.5312 16.5016H2.46973L0 14.0309V5.8717L2.47266 3.40002H17.5283ZM3.04199 4.77405L1.37402 6.44104V13.4615L3.04004 15.1266H16.9609L18.626 13.4615V6.44104L16.959 4.77405H3.04199ZM3.25 7.09924C3.266 7.09924 3.28202 7.11349 3.29102 7.13049L4.33594 11.692C4.33594 11.714 4.35316 11.7233 4.36816 11.7233H4.8877C4.90367 11.7233 4.91873 11.714 4.92773 11.692L5.95801 7.13049C5.96601 7.11349 5.98205 7.09924 5.99805 7.09924H7.03711L5.72559 12.6647C5.71759 12.6817 5.70955 12.6901 5.68555 12.6901H3.57031C3.55431 12.6901 3.53827 12.6729 3.53027 12.6569L2.21973 7.09924H3.25ZM11.0068 7.09827C11.1107 7.09835 11.2064 7.13773 11.2773 7.20959L12.0127 7.95374C12.0855 8.02563 12.1259 8.12147 12.126 8.22327V12.649C12.1258 12.6727 12.1086 12.6899 12.0928 12.6901H11.2061C11.1824 12.6899 11.1662 12.6727 11.166 12.649V10.9557C11.166 10.8447 11.0785 10.7643 10.9756 10.7643H8.4668C8.3628 10.7643 8.27441 10.8447 8.27441 10.9557V12.649C8.27423 12.6728 8.25823 12.6901 8.23438 12.6901H7.34863C7.32477 12.6901 7.30878 12.6728 7.30859 12.649V8.22327C7.30869 8.1214 7.349 8.02565 7.41992 7.95374L8.16309 7.20959C8.23409 7.13759 8.33157 7.09827 8.43457 7.09827H11.0068ZM16.6299 7.09827C16.7347 7.09839 16.8305 7.13777 16.9014 7.20862L17.6201 7.95276C17.7 8.02565 17.7401 8.12044 17.7402 8.22327V9.25354C17.7402 9.35854 17.7001 9.45398 17.6201 9.52698L16.9014 10.2604C16.8305 10.3333 16.7347 10.3726 16.6299 10.3727H16.3994L17.7324 12.6901H16.6221L15.2881 10.3727H14.0586C13.9546 10.3807 13.8828 10.4691 13.8828 10.5651V12.649C13.8827 12.6728 13.8665 12.6899 13.8428 12.6901H12.9561C12.9324 12.6899 12.9162 12.6728 12.916 12.649V7.13733C12.9162 7.11367 12.9324 7.09841 12.9561 7.09827H16.6299ZM8.4668 8.06506C8.36284 8.06506 8.27448 8.14356 8.27441 8.25549V9.60608C8.27467 9.70988 8.36295 9.79749 8.4668 9.79749H10.9756C11.0784 9.79744 11.1658 9.70985 11.166 9.60608V8.25549C11.1659 8.14359 11.0785 8.06511 10.9756 8.06506H8.4668ZM14.0742 8.06506C13.9624 8.06515 13.8829 8.14368 13.8828 8.25549V9.22327C13.8828 9.32621 13.9703 9.4136 14.0742 9.4137H16.583C16.686 9.4137 16.7744 9.32627 16.7744 9.22327V8.25549C16.7743 8.14362 16.6859 8.06506 16.583 8.06506H14.0742Z" fill="#001E28"/>
</svg>
