<svg width="24" height="16" viewBox="0 0 24 16" fill="none" xmlns="http://www.w3.org/2000/svg">
<g clip-path="url(#clip0_986_17710)">
<g clip-path="url(#clip1_986_17710)">
<mask id="mask0_986_17710" style="mask-type:luminance" maskUnits="userSpaceOnUse" x="0" y="0" width="24" height="16">
<path d="M0 16H24V0H0V16Z" fill="white"/>
</mask>
<g mask="url(#mask0_986_17710)">
<path d="M12 5.5907C13.337 5.5907 14.421 6.6693 14.421 7.99965C14.421 9.33 13.337 10.4096 12 10.4096C10.663 10.4096 9.579 9.33 9.579 7.99965C9.579 6.6693 10.663 5.5907 12 5.5907ZM0 10.6763H24V5.32304H0V10.6763Z" fill="#FAFAFA"/>
<path d="M9.8721 7.85657C9.9461 7.86553 10.0131 7.81478 10.0231 7.74016C10.0331 7.66752 9.9811 7.59986 9.9071 7.58991C9.9151 7.54613 9.9261 7.50334 9.9371 7.45956L11.1601 7.8516L11.5721 7.92424C11.5771 7.89936 11.5831 7.87548 11.5921 7.85259L11.1981 7.71031L9.9421 7.44165C9.9541 7.39886 9.9671 7.35608 9.9811 7.31329C10.0501 7.34115 10.1291 7.30931 10.1581 7.24065C10.1861 7.172 10.1531 7.09339 10.0851 7.06553C10.1041 7.02473 10.1251 6.98593 10.1481 6.94613L11.2261 7.64065L11.6061 7.81677C11.6171 7.79488 11.6291 7.77299 11.6431 7.7521L11.3011 7.51329L10.1571 6.93021C10.1801 6.8924 10.2041 6.85359 10.2291 6.81677C10.2881 6.86155 10.3721 6.8506 10.4181 6.7919C10.4631 6.73319 10.4521 6.64961 10.3931 6.60384C10.4231 6.57001 10.4531 6.53717 10.4851 6.50633L11.3471 7.45359L11.6681 7.72225C11.6841 7.70334 11.7021 7.68543 11.7211 7.66951L11.4511 7.35011L10.4981 6.4924C10.5301 6.46155 10.5631 6.4307 10.5971 6.40085C10.6421 6.45956 10.7271 6.4705 10.7861 6.42573C10.8451 6.38095 10.8561 6.29638 10.8111 6.23767C10.8481 6.21279 10.8861 6.18891 10.9251 6.16603L11.5111 7.30434L11.7511 7.64563C11.7711 7.6307 11.7931 7.61876 11.8161 7.60782L11.6391 7.2307L10.9411 6.15707C10.9801 6.13518 11.0201 6.11429 11.0601 6.09439C11.0891 6.16304 11.1681 6.19588 11.2371 6.16702C11.3061 6.13817 11.3381 6.05956 11.3091 5.9909C11.3521 5.97697 11.3951 5.96404 11.4391 5.9521L11.7081 7.20185L11.8511 7.59389C11.8751 7.58593 11.8991 7.57896 11.9241 7.57399L11.8511 7.16404L11.4561 5.94712C11.5001 5.93618 11.5441 5.92623 11.5881 5.91727C11.5981 5.9909 11.6651 6.04264 11.7391 6.03269C11.8131 6.02374 11.8651 5.95608 11.8551 5.88245C11.9001 5.87946 11.9451 5.87747 11.9911 5.87747L11.9261 7.15409L11.9621 7.57001C11.9751 7.56901 11.9871 7.56603 11.9991 7.56603C12.0141 7.56603 12.0251 7.56901 12.0371 7.57001L12.0741 7.15409L12.0101 5.87747C12.0551 5.87747 12.1001 5.87946 12.1441 5.88245C12.1351 5.95608 12.1861 6.02374 12.2611 6.03269C12.3331 6.04264 12.4021 5.9909 12.4111 5.91727C12.4551 5.92623 12.4991 5.93618 12.5431 5.94712L12.1481 7.16404L12.0751 7.57399C12.1011 7.57896 12.1241 7.58593 12.1481 7.59389L12.2911 7.20185L12.5611 5.9521C12.6041 5.96404 12.6471 5.97697 12.6901 5.9909C12.6611 6.05956 12.6941 6.13817 12.7641 6.16702C12.8311 6.19588 12.9111 6.16304 12.9391 6.09439C12.9791 6.11429 13.0191 6.13518 13.0591 6.15707L12.3611 7.2307L12.1851 7.60782C12.2061 7.61876 12.2281 7.6307 12.2491 7.64563L12.4891 7.30434L13.0741 6.16603C13.1131 6.18891 13.1511 6.21279 13.1881 6.23767C13.1431 6.29638 13.1541 6.38095 13.2131 6.42573C13.2721 6.4705 13.3571 6.45956 13.4031 6.40085C13.4361 6.4307 13.4711 6.46155 13.5011 6.4924L12.5491 7.35011L12.2781 7.66951C12.2981 7.68543 12.3151 7.70334 12.3311 7.72225L12.6531 7.45359L13.5161 6.50633C13.5461 6.53717 13.5771 6.57001 13.6061 6.60384C13.5471 6.64961 13.5361 6.73319 13.5811 6.7919C13.6271 6.8506 13.7111 6.86155 13.7701 6.81677C13.7961 6.85359 13.8201 6.8924 13.8431 6.93021L12.6991 7.51329L12.3561 7.7521C12.3701 7.77299 12.3821 7.79488 12.3931 7.81677L12.7721 7.64065L13.8511 6.94613C13.8741 6.98593 13.8951 7.02473 13.9151 7.06553C13.8471 7.09339 13.8131 7.172 13.8431 7.24065C13.8701 7.30931 13.9491 7.34115 14.0181 7.31329C14.0321 7.35608 14.0461 7.39886 14.0591 7.44165L12.8031 7.71031L12.4081 7.85259C12.4161 7.87548 12.4231 7.89936 12.4281 7.92424L12.8401 7.8516L14.0621 7.45956C14.0741 7.50334 14.0841 7.54613 14.0941 7.58991C14.0191 7.59986 13.9681 7.66752 13.9761 7.74016C13.9861 7.81478 14.0551 7.86553 14.1281 7.85657C14.1311 7.90036 14.1321 7.94613 14.1321 7.9909L12.8511 7.92623L12.4321 7.96205C12.4341 7.97498 12.4351 7.98692 12.4351 7.99986C12.4351 8.01279 12.4341 8.02473 12.4321 8.03767L12.8511 8.07349L14.1321 8.00881C14.1321 8.05359 14.1311 8.09837 14.1281 8.14314C14.0551 8.13319 13.9861 8.18493 13.9761 8.25856C13.9681 8.3322 14.0191 8.39886 14.0941 8.40981C14.0841 8.45359 14.0741 8.49737 14.0621 8.54016L12.8401 8.14712L12.4281 8.07548C12.4231 8.10036 12.4161 8.12424 12.4081 8.14712L12.8031 8.28941L14.0591 8.55807C14.0461 8.60185 14.0321 8.64463 14.0181 8.68643C13.9491 8.65757 13.8701 8.69041 13.8431 8.75906C13.8131 8.82772 13.8471 8.90633 13.9151 8.93419C13.8951 8.97498 13.8741 9.01379 13.8511 9.05458L12.7721 8.35906L12.3931 8.18294C12.3821 8.20583 12.3701 8.22772 12.3561 8.24762L12.6991 8.48643L13.8431 9.06951C13.8201 9.10732 13.7961 9.14513 13.7701 9.18294C13.7111 9.13916 13.6271 9.14812 13.5811 9.20682C13.5361 9.26652 13.5471 9.35011 13.6061 9.39588C13.5771 9.4307 13.5461 9.46254 13.5161 9.49439L12.6531 8.54613L12.3311 8.27647C12.3151 8.29638 12.2981 8.31329 12.2791 8.33021L12.5491 8.64961L13.5011 9.50832C13.4711 9.53817 13.4361 9.56901 13.4031 9.59787C13.3571 9.53916 13.2721 9.52921 13.2131 9.57399C13.1541 9.61876 13.1431 9.70334 13.1881 9.76304C13.1511 9.78692 13.1131 9.8108 13.0741 9.83269L12.4891 8.69538L12.2491 8.35409C12.2281 8.36901 12.2061 8.37996 12.1851 8.3909L12.3611 8.76901L13.0591 9.84364C13.0191 9.86453 12.9791 9.88643 12.9391 9.90533C12.9111 9.83667 12.8311 9.80483 12.7641 9.83269C12.6941 9.86155 12.6611 9.93916 12.6901 10.0088C12.6471 10.0227 12.6041 10.0357 12.5611 10.0486L12.2911 8.79787L12.1481 8.40583C12.1241 8.41379 12.1011 8.42075 12.0751 8.42573L12.1481 8.83568L12.5431 10.0536C12.4991 10.0635 12.4551 10.0735 12.4111 10.0824C12.4021 10.0098 12.3331 9.95707 12.2611 9.96802C12.1861 9.97598 12.1351 10.0436 12.1441 10.1173C12.1001 10.1203 12.0551 10.1213 12.0101 10.1222L12.0741 8.84563L12.0371 8.42971C12.0251 8.4307 12.0141 8.43269 11.9991 8.43269C11.9871 8.43269 11.9751 8.4307 11.9621 8.42971L11.9261 8.84563L11.9911 10.1222C11.9451 10.1213 11.9001 10.1203 11.8551 10.1173C11.8651 10.0436 11.8131 9.97598 11.7391 9.96802C11.6651 9.95707 11.5981 10.0098 11.5881 10.0824C11.5441 10.0735 11.5001 10.0635 11.4561 10.0536L11.8511 8.83568L11.9241 8.42573C11.8991 8.42075 11.8751 8.41379 11.8511 8.40583L11.7081 8.79787L11.4391 10.0486C11.3951 10.0357 11.3521 10.0227 11.3091 10.0088C11.3381 9.93916 11.3061 9.86155 11.2371 9.83269C11.1681 9.80483 11.0891 9.83667 11.0601 9.90533C11.0201 9.88643 10.9801 9.86453 10.9411 9.84364L11.6391 8.76901L11.8161 8.3909C11.7931 8.37996 11.7711 8.36901 11.7511 8.35409L11.5111 8.69538L10.9251 9.83269C10.8861 9.8108 10.8481 9.78692 10.8111 9.76304C10.8561 9.70334 10.8451 9.61876 10.7861 9.57399C10.7271 9.52921 10.6421 9.53916 10.5971 9.59787C10.5631 9.56901 10.5301 9.53817 10.4981 9.50832L11.4511 8.64961L11.7211 8.33021C11.7021 8.31329 11.6841 8.29638 11.6681 8.27647L11.3471 8.54613L10.4851 9.49439C10.4531 9.46254 10.4231 9.4307 10.3931 9.39588C10.4521 9.35011 10.4631 9.26652 10.4181 9.20682C10.3721 9.14812 10.2881 9.13916 10.2291 9.18294C10.2041 9.14513 10.1801 9.10732 10.1571 9.06951L11.3011 8.48643L11.6431 8.24762C11.6291 8.22772 11.6171 8.20583 11.6061 8.18294L11.2261 8.35906L10.1481 9.05458C10.1251 9.01379 10.1041 8.97498 10.0851 8.93419C10.1531 8.90633 10.1861 8.82772 10.1581 8.75906C10.1291 8.69041 10.0501 8.65757 9.9811 8.68643C9.9671 8.64463 9.9541 8.60185 9.9421 8.55807L11.1981 8.28941L11.5921 8.14712C11.5831 8.12424 11.5771 8.10036 11.5721 8.07548L11.1601 8.14712L9.9371 8.54016C9.9261 8.49737 9.9151 8.45359 9.9071 8.40981C9.9811 8.39886 10.0331 8.3322 10.0231 8.25856C10.0131 8.18493 9.9461 8.13319 9.8721 8.14314C9.8691 8.09837 9.8671 8.05359 9.8671 8.00881L11.1501 8.07349L11.5681 8.03767C11.5671 8.02473 11.5641 8.01279 11.5641 7.99986C11.5641 7.98692 11.5671 7.97498 11.5681 7.96205L11.1501 7.92623L9.8671 7.9909C9.8671 7.94613 9.8691 7.90036 9.8721 7.85657ZM11.9991 10.4088C13.3371 10.4088 14.4211 9.33021 14.4211 7.99986C14.4211 6.66951 13.3371 5.5909 11.9991 5.5909C10.6631 5.5909 9.5791 6.66951 9.5791 7.99986C9.5791 9.33021 10.6631 10.4088 11.9991 10.4088Z" fill="#21205F"/>
<path d="M11.9263 7.15407L11.9913 5.87746C11.9463 5.87746 11.9013 5.87945 11.8563 5.88243C11.8653 5.95606 11.8143 6.02373 11.7393 6.03368C11.6663 6.04263 11.5983 5.99089 11.5893 5.91726C11.5443 5.92621 11.5013 5.93616 11.4573 5.94711L11.8513 7.16402L11.9253 7.57397C11.9373 7.57198 11.9503 7.57099 11.9633 7.56999L11.9263 7.15407Z" fill="white"/>
<path d="M12.0743 8.84582L12.0103 10.1224C12.0533 10.1214 12.0983 10.1204 12.1433 10.1175C12.1353 10.0448 12.1863 9.97617 12.2613 9.96622C12.3343 9.95726 12.4023 10.009 12.4113 10.0826C12.4563 10.0737 12.5003 10.0637 12.5433 10.0518L12.1493 8.83587L12.0753 8.42592C12.0633 8.42791 12.0513 8.42791 12.0373 8.4299L12.0743 8.84582Z" fill="white"/>
<path d="M12.4893 8.69568L13.0743 9.83398C13.1143 9.8111 13.1523 9.78722 13.1893 9.76135C13.1423 9.70364 13.1553 9.61906 13.2143 9.57329C13.2733 9.52851 13.3583 9.53946 13.4033 9.59816C13.4363 9.56931 13.4693 9.53846 13.5023 9.50662L12.5493 8.6499L12.2793 8.32951C12.2683 8.33846 12.2603 8.34642 12.2493 8.35438L12.4893 8.69568Z" fill="white"/>
<path d="M12.2909 8.79773L12.5619 10.0475C12.6039 10.0355 12.6469 10.0226 12.6899 10.0077C12.6609 9.93903 12.6939 9.86142 12.7639 9.83256C12.8319 9.8047 12.9109 9.83654 12.9389 9.9052C12.9789 9.8853 13.0199 9.8644 13.0589 9.84251L12.3609 8.76888L12.1849 8.39077C12.1719 8.39674 12.1599 8.40171 12.1479 8.40569L12.2909 8.79773Z" fill="white"/>
<path d="M12.6533 8.54613L13.5143 9.49438C13.5463 9.46254 13.5773 9.4307 13.6073 9.39588C13.5483 9.3521 13.5363 9.26752 13.5823 9.20782C13.6273 9.14812 13.7123 9.13817 13.7713 9.18394C13.7963 9.14712 13.8203 9.10732 13.8413 9.06951L12.6993 8.48642L12.3563 8.24762C12.3483 8.25757 12.3403 8.26752 12.3323 8.27647L12.6533 8.54613Z" fill="white"/>
<path d="M12.8398 8.14761L14.0638 8.54065C14.0738 8.49687 14.0838 8.45309 14.0928 8.40931C14.0198 8.39936 13.9668 8.33269 13.9778 8.25906C13.9858 8.18543 14.0538 8.13368 14.1278 8.14363C14.1308 8.09886 14.1318 8.05408 14.1318 8.00931L12.8508 8.07299L12.4308 8.03717C12.4298 8.0501 12.4298 8.06304 12.4268 8.07498L12.8398 8.14761Z" fill="white"/>
<path d="M12.8496 7.92655L14.1326 7.99023C14.1326 7.94645 14.1306 7.90068 14.1276 7.8569C14.0546 7.86586 13.9876 7.81411 13.9766 7.74048C13.9666 7.66785 14.0186 7.60018 14.0926 7.59023C14.0836 7.54645 14.0746 7.50267 14.0626 7.45989L12.8396 7.85193L12.4276 7.92456C12.4296 7.9365 12.4306 7.94944 12.4316 7.96237L12.8496 7.92655Z" fill="white"/>
<path d="M12.7726 8.35906L13.8516 9.05359C13.8756 9.01379 13.8956 8.97498 13.9166 8.93419C13.8456 8.90633 13.8136 8.82772 13.8416 8.75906C13.8716 8.6904 13.9496 8.65757 14.0186 8.68642C14.0326 8.64463 14.0456 8.60185 14.0576 8.55807L12.8016 8.28941L12.4076 8.14712C12.4036 8.15906 12.3986 8.171 12.3936 8.18294L12.7726 8.35906Z" fill="white"/>
<path d="M11.8511 8.83563L11.4561 10.0535C11.5001 10.0635 11.5441 10.0734 11.5881 10.0824C11.5981 10.0088 11.6651 9.95702 11.7391 9.96697C11.8131 9.97592 11.8651 10.0436 11.8551 10.1172C11.9001 10.1202 11.9451 10.1212 11.9911 10.1222L11.9261 8.84558L11.9621 8.42966C11.9501 8.42767 11.9361 8.42767 11.9241 8.42568L11.8511 8.83563Z" fill="white"/>
<path d="M11.1982 8.28951L9.94324 8.55817C9.95424 8.60096 9.96724 8.64374 9.98224 8.68653C10.0512 8.65767 10.1302 8.69051 10.1582 8.75917C10.1862 8.82782 10.1542 8.90643 10.0852 8.93429C10.1052 8.97409 10.1262 9.01389 10.1482 9.05469L11.2272 8.35917L11.6072 8.18305C11.6012 8.17111 11.5972 8.15917 11.5932 8.14722L11.1982 8.28951Z" fill="white"/>
<path d="M11.3013 8.4863L10.1573 9.06939C10.1803 9.10819 10.2043 9.147 10.2293 9.18282C10.2883 9.13804 10.3733 9.14998 10.4183 9.2077C10.4643 9.2664 10.4523 9.35197 10.3933 9.39675C10.4233 9.42959 10.4533 9.46242 10.4863 9.49426L11.3473 8.546L11.6683 8.27735C11.6603 8.2674 11.6513 8.25844 11.6443 8.2475L11.3013 8.4863Z" fill="white"/>
<path d="M11.6387 8.7691L10.9417 9.84373C10.9807 9.86463 11.0207 9.88652 11.0607 9.90542C11.0897 9.83677 11.1677 9.80592 11.2367 9.83279C11.3057 9.86164 11.3387 9.93925 11.3097 10.0089C11.3527 10.0228 11.3957 10.0358 11.4387 10.0487L11.7087 8.79796L11.8517 8.40592C11.8397 8.40094 11.8277 8.39597 11.8167 8.39099L11.6387 8.7691Z" fill="white"/>
<path d="M11.4512 8.65005L10.4982 9.50676C10.5302 9.5396 10.5632 9.56945 10.5972 9.5983C10.6422 9.54059 10.7272 9.52865 10.7862 9.57343C10.8452 9.6192 10.8562 9.70477 10.8112 9.76149C10.8482 9.78835 10.8862 9.81124 10.9252 9.83313L11.5112 8.69582L11.7512 8.35452C11.7402 8.34656 11.7312 8.3386 11.7212 8.32965L11.4512 8.65005Z" fill="white"/>
<path d="M11.1504 8.07337L9.86743 8.00969C9.86743 8.05347 9.86943 8.09825 9.87243 8.14302C9.94643 8.13407 10.0134 8.18482 10.0234 8.25944C10.0334 8.33208 9.98143 8.39974 9.90743 8.40969C9.91643 8.45347 9.92643 8.49725 9.93743 8.54004L11.1604 8.148L11.5724 8.07536C11.5704 8.06243 11.5694 8.05049 11.5684 8.03755L11.1504 8.07337Z" fill="white"/>
<path d="M11.3472 7.45381L10.4862 6.50555C10.4532 6.53739 10.4232 6.57023 10.3932 6.60406C10.4522 6.64884 10.4642 6.73341 10.4182 6.79212C10.3732 6.85083 10.2882 6.86177 10.2292 6.817C10.2042 6.85381 10.1802 6.89262 10.1582 6.93043L11.3012 7.51351L11.6442 7.75232C11.6512 7.74137 11.6602 7.73242 11.6682 7.72247L11.3472 7.45381Z" fill="white"/>
<path d="M11.5117 7.30414L10.9257 6.16583C10.8867 6.18871 10.8487 6.2126 10.8117 6.23747C10.8567 6.29618 10.8457 6.38075 10.7867 6.42553C10.7277 6.4713 10.6427 6.45936 10.5977 6.40065C10.5637 6.43051 10.5307 6.46135 10.4987 6.49319L11.4517 7.34991L11.7217 7.66931C11.7317 7.66135 11.7407 7.6524 11.7517 7.64543L11.5117 7.30414Z" fill="white"/>
<path d="M11.709 7.20168L11.439 5.95193C11.396 5.96387 11.353 5.9778 11.31 5.99173C11.339 6.06038 11.306 6.13899 11.237 6.16685C11.168 6.19571 11.09 6.16287 11.061 6.09421C11.021 6.11412 10.981 6.13501 10.942 6.1569L11.639 7.23053L11.817 7.60864C11.828 7.60267 11.84 7.59869 11.852 7.59471L11.709 7.20168Z" fill="white"/>
<path d="M11.2266 7.64035L10.1476 6.94682C10.1256 6.98563 10.1046 7.02443 10.0846 7.06523C10.1536 7.09409 10.1856 7.1717 10.1576 7.24035C10.1296 7.30901 10.0506 7.34185 9.98163 7.31299C9.96663 7.35578 9.95463 7.39856 9.94263 7.44135L11.1976 7.71001L11.5926 7.85229C11.5966 7.84035 11.6016 7.82841 11.6066 7.81647L11.2266 7.64035Z" fill="white"/>
<path d="M12.1484 7.16376L12.5444 5.94685C12.5004 5.9359 12.4564 5.92595 12.4124 5.91799C12.4014 5.99063 12.3344 6.04237 12.2604 6.03341C12.1864 6.02346 12.1344 5.9558 12.1444 5.88217C12.0994 5.87918 12.0544 5.87819 12.0094 5.87819L12.0734 7.15381L12.0384 7.57073C12.0504 7.57172 12.0634 7.57172 12.0764 7.57471L12.1484 7.16376Z" fill="white"/>
<path d="M12.8018 7.71001L14.0578 7.44135C14.0458 7.39856 14.0318 7.35578 14.0178 7.31399C13.9488 7.34185 13.8698 7.30901 13.8418 7.24035C13.8148 7.1717 13.8458 7.09409 13.9148 7.06523C13.8948 7.02543 13.8738 6.98563 13.8518 6.94682L12.7738 7.64035L12.3928 7.81647C12.3998 7.82841 12.4048 7.84035 12.4078 7.85229L12.8018 7.71001Z" fill="white"/>
<path d="M11.5685 7.96262C11.5695 7.94968 11.5695 7.93675 11.5725 7.92481L11.1595 7.85217L9.93746 7.46013C9.92546 7.50292 9.91546 7.5467 9.90746 7.59048C9.98146 7.60043 10.0325 7.66809 10.0235 7.74073C10.0135 7.81436 9.94546 7.8661 9.87246 7.85715C9.86846 7.90093 9.86746 7.9457 9.86646 7.99048L11.1505 7.9268L11.5685 7.96262Z" fill="white"/>
<path d="M12.6992 7.51315L13.8432 6.93106C13.8202 6.89225 13.7962 6.85345 13.7712 6.81663C13.7122 6.8624 13.6272 6.85046 13.5822 6.79175C13.5362 6.73305 13.5482 6.64947 13.6072 6.60369C13.5772 6.56986 13.5462 6.53802 13.5142 6.50618L12.6532 7.45345L12.3322 7.7221C12.3402 7.73205 12.3482 7.74101 12.3562 7.75195L12.6992 7.51315Z" fill="white"/>
<path d="M12.3613 7.2308L13.0573 6.15716C13.0193 6.13527 12.9803 6.11338 12.9393 6.09448C12.9113 6.16313 12.8323 6.19497 12.7623 6.16711C12.6943 6.13826 12.6613 6.05965 12.6903 5.99099C12.6483 5.97706 12.6043 5.96413 12.5613 5.95219L12.2913 7.20194L12.1483 7.59398C12.1603 7.59895 12.1723 7.60294 12.1843 7.60791L12.3613 7.2308Z" fill="white"/>
<path d="M12.5488 7.34991L13.5018 6.49319C13.4698 6.46135 13.4378 6.43051 13.4028 6.40065C13.3588 6.45936 13.2738 6.4713 13.2138 6.42553C13.1538 6.38075 13.1438 6.29618 13.1898 6.23747C13.1528 6.2126 13.1128 6.18871 13.0738 6.16682L12.4888 7.30414L12.2488 7.64543C12.2588 7.6524 12.2698 7.66135 12.2778 7.66931L12.5488 7.34991Z" fill="white"/>
<path d="M11.5649 8.00003C11.5649 8.01296 11.5679 8.0249 11.5689 8.03784C11.5699 8.04978 11.5699 8.06271 11.5729 8.07565C11.5769 8.10052 11.5839 8.1244 11.5929 8.14729C11.5969 8.15923 11.6019 8.17117 11.6069 8.18311C11.6179 8.206 11.6299 8.22789 11.6439 8.24779C11.6509 8.25774 11.6599 8.26769 11.6689 8.27664C11.6849 8.29654 11.7019 8.31346 11.7219 8.33037C11.7319 8.33833 11.7409 8.34729 11.7519 8.35425C11.7719 8.36918 11.7939 8.38013 11.8169 8.39107C11.8279 8.39605 11.8399 8.40102 11.8519 8.406C11.8759 8.41396 11.8989 8.42092 11.9239 8.4259C11.9369 8.42789 11.9499 8.42789 11.9629 8.42988C11.9759 8.43087 11.9869 8.43286 11.9999 8.43286C12.0129 8.43286 12.0239 8.43087 12.0379 8.42988C12.0509 8.42789 12.0639 8.42789 12.0759 8.4259C12.1009 8.42092 12.1249 8.41396 12.1479 8.406C12.1609 8.40102 12.1719 8.39605 12.1839 8.39107C12.2069 8.38013 12.2289 8.36918 12.2499 8.35425C12.2599 8.34729 12.2689 8.33833 12.2779 8.33037C12.2979 8.31346 12.3149 8.29654 12.3319 8.27664C12.3399 8.26769 12.3489 8.25774 12.3569 8.24779C12.3709 8.22789 12.3829 8.206 12.3939 8.18311C12.3979 8.17117 12.4029 8.15923 12.4069 8.14729C12.4169 8.1244 12.4229 8.10052 12.4279 8.07565C12.4299 8.06271 12.4309 8.04978 12.4319 8.03784C12.4329 8.0249 12.4359 8.01296 12.4359 8.00003C12.4359 7.98709 12.4329 7.97515 12.4319 7.96221C12.4309 7.95027 12.4299 7.93734 12.4279 7.9244C12.4229 7.89953 12.4169 7.87565 12.4069 7.85276C12.4029 7.83983 12.3979 7.82888 12.3939 7.81694C12.3829 7.79406 12.3709 7.77216 12.3569 7.75226C12.3489 7.74132 12.3399 7.73236 12.3319 7.72241C12.3149 7.70351 12.2979 7.6856 12.2779 7.66968C12.2689 7.66172 12.2599 7.65276 12.2499 7.6458C12.2289 7.63087 12.2069 7.61893 12.1839 7.60799C12.1719 7.60301 12.1609 7.59903 12.1479 7.59406C12.1249 7.5851 12.1009 7.57913 12.0759 7.57415C12.0639 7.57216 12.0509 7.57117 12.0379 7.57017C12.0239 7.56918 12.0129 7.56619 11.9999 7.56619C11.9869 7.56619 11.9759 7.56918 11.9629 7.57017C11.9499 7.57117 11.9369 7.57216 11.9249 7.57415C11.8999 7.57913 11.8759 7.5851 11.8519 7.59406C11.8399 7.59903 11.8279 7.60301 11.8169 7.60799C11.7939 7.61893 11.7719 7.63087 11.7519 7.6458C11.7409 7.65276 11.7319 7.66172 11.7219 7.66968C11.7019 7.6856 11.6849 7.70351 11.6689 7.72241C11.6599 7.73236 11.6509 7.74132 11.6439 7.75226C11.6299 7.77216 11.6179 7.79406 11.6069 7.81694C11.6019 7.82888 11.5969 7.83983 11.5929 7.85276C11.5839 7.87565 11.5769 7.89953 11.5729 7.9244C11.5699 7.93734 11.5699 7.95027 11.5689 7.96221C11.5679 7.97515 11.5649 7.98709 11.5649 8.00003Z" fill="#21205F"/>
<path d="M0 5.32336H24V-1.90735e-05H0V5.32336Z" fill="#F89939"/>
<path d="M0 16H24V10.6766H0V16Z" fill="#1E8943"/>
</g>
</g>
</g>
<defs>
<clipPath id="clip0_986_17710">
<rect width="24" height="16" fill="white"/>
</clipPath>
<clipPath id="clip1_986_17710">
<rect width="24" height="16" fill="white"/>
</clipPath>
</defs>
</svg>
