<svg width="20" height="20" viewBox="0 0 20 20" fill="none" xmlns="http://www.w3.org/2000/svg">
<path d="M9.99738 0C12.5743 2.32591e-05 14.4412 1.274 15.2532 3.58691C16.2782 6.50491 15.3347 10.5643 13.2347 12.6104L16.2005 13.3477L15.0677 14.4814L11.7259 13.6504V12.0898L11.9847 11.8848C13.9154 10.3386 14.8563 6.60082 13.9573 4.04297C13.5303 2.82498 12.4953 1.37405 9.99738 1.37402C7.49842 1.37402 6.46443 2.82498 6.03741 4.04297C5.13845 6.60086 6.07824 10.3386 8.01007 11.8848L8.26691 12.0898V13.6504L2.4173 15.1035L1.37433 16.1533V18.627H10.1634L11.5364 20H0.000305176V15.5869L1.71417 13.8633L6.76007 12.6104C4.65907 10.5644 3.71652 6.50491 4.74152 3.58691C5.55354 1.274 7.41943 0 9.99738 0ZM19.9944 20H15.262L16.6341 18.627H18.6204V16.6396L19.9944 15.2646V20ZM20.0003 13.373L13.3987 19.9785L10.1546 16.7324L11.1263 15.7627L13.3987 18.0352L19.0286 12.4033L20.0003 13.373Z" fill="#001E28"/>
</svg>
