<svg width="20" height="20" viewBox="0 0 20 20" fill="none" xmlns="http://www.w3.org/2000/svg">
<path d="M10 4.82715C12.012 4.82715 13.9416 5.62712 15.3643 7.0498C16.7869 8.47248 17.5859 10.4021 17.5859 12.4141C17.5858 16.6037 14.1897 20 10 20C5.81034 20 2.41421 16.6037 2.41406 12.4141C2.41406 8.22432 5.81025 4.82715 10 4.82715ZM8.61719 15.8018L7.89551 16.5234L8.54004 18.4463C9.49885 18.6782 10.4992 18.6781 11.458 18.4463L12.1025 16.5234L11.3809 15.8018H8.61719ZM13.3613 17.0195L13.1035 17.7861C13.4813 17.5684 13.835 17.3112 14.1592 17.0195H13.3613ZM5.83789 17.0176C6.16181 17.3095 6.5156 17.5667 6.89355 17.7842L6.63574 17.0176H5.83789ZM3.81836 12.959C3.90104 13.9181 4.20763 14.8447 4.71289 15.6641H6.8418L7.45117 15.0547L6.53711 12.2402L5.60059 11.958L3.81836 12.959ZM13.46 12.2383L12.5449 15.0547L13.1582 15.6641H15.2871C15.7909 14.8443 16.0961 13.9177 16.1777 12.959L14.3945 11.958L13.46 12.2383ZM1.37891 15.1729H0V13.1035H1.37891V15.1729ZM20 15.1729H18.6211V13.1035H20V15.1729ZM7.81641 11.918L8.65137 14.4824H11.3486L12.1836 11.918L9.99805 10.333L7.81641 11.918ZM4.36816 9.80273C4.13642 10.3016 3.97201 10.8296 3.88086 11.3721L4.71094 10.9053L4.36816 9.80273ZM15.2891 10.9053L16.1191 11.3721C16.0271 10.83 15.8628 10.3017 15.6318 9.80273L15.2891 10.9053ZM1.37891 11.0342H0V8.96582H1.37891V11.0342ZM20 11.0342H18.6211V8.96582H20V11.0342ZM7.22949 6.85938C6.50601 7.22126 5.85951 7.721 5.32715 8.33008L6.05957 10.6836L6.91895 10.9424L9.32324 9.19531V8.32227L7.22949 6.85938ZM10.6768 8.32227V9.19531L13.0801 10.9414L13.9414 10.6826L14.6738 8.33105H14.6729C14.1405 7.72171 13.4941 7.22155 12.7705 6.85938L10.6768 8.32227ZM10 6.20703C9.60374 6.20728 9.2084 6.24515 8.81934 6.32031L10 7.14453L11.1807 6.32031C10.7916 6.24515 10.3963 6.20728 10 6.20703ZM1.37891 6.89648H0V4.82715H1.37891V6.89648ZM20 6.89648H18.6211V4.82715H20V6.89648ZM2.75879 1.37891H1.37891V2.75879H0V0H2.75879V1.37891ZM20 2.75879H18.6211V1.37891H17.2412V0.000976562H20V2.75879ZM6.89648 1.37891H4.82715V0H6.89648V1.37891ZM11.0342 1.37891H8.96582V0H11.0342V1.37891ZM15.1729 1.37891H13.1035V0H15.1729V1.37891Z" fill="#001E28"/>
</svg>
