<svg width="20" height="20" viewBox="0 0 20 20" fill="none" xmlns="http://www.w3.org/2000/svg">
<path d="M9.9826 19.0322C10.0085 19.0322 10.0216 19.0455 10.0217 19.0713V19.9619C10.0216 19.9877 10.0085 20.001 9.9826 20.001H9.09198C9.06609 20.001 9.05302 19.9877 9.05292 19.9619V19.0713C9.05302 19.0455 9.06608 19.0322 9.09198 19.0322H9.9826ZM7.18671 14.3838C7.22254 14.3838 7.25923 14.3923 7.29803 14.4082C7.33703 14.4232 7.36969 14.4438 7.39569 14.4688L8.19354 15.2676C8.21954 15.2926 8.23907 15.3262 8.25507 15.3652C8.26999 15.4031 8.27844 15.4397 8.2785 15.4756V16.5771C8.27847 16.613 8.26715 16.6487 8.24725 16.6846C8.22639 16.7203 8.20372 16.7486 8.17792 16.7695L5.22675 18.6836C5.19587 18.7045 5.18097 18.7328 5.18085 18.7686V18.9941C5.18089 19.02 5.19398 19.0332 5.21893 19.0332H8.23944C8.26544 19.0332 8.2785 19.0453 8.2785 19.0723V19.9609C8.2785 19.9879 8.26544 20 8.23944 20H4.25018C4.22439 19.9999 4.21112 19.9878 4.21112 19.9609V18.3662C4.21112 18.3302 4.22137 18.2928 4.24237 18.2578C4.26336 18.2219 4.2867 18.1929 4.31268 18.1719L7.26385 16.2666C7.29555 16.2456 7.31073 16.2165 7.31073 16.1816V15.5459C7.31071 15.4899 7.29202 15.4432 7.25604 15.4072C7.21906 15.3723 7.17333 15.3525 7.11639 15.3525H4.25018C4.22454 15.3524 4.21127 15.3401 4.21112 15.3145V14.4229C4.21117 14.3971 4.22443 14.3839 4.25018 14.3838H7.18671ZM13.7697 14.3848C13.8057 14.3848 13.844 14.3922 13.882 14.4072C13.921 14.4232 13.9527 14.4437 13.9787 14.4697L14.7775 15.2686C14.8034 15.2935 14.8241 15.3255 14.8391 15.3643C14.8541 15.4023 14.8625 15.4406 14.8625 15.4766V18.9072C14.8625 18.9442 14.8541 18.9825 14.8391 19.0215C14.8241 19.0603 14.8034 19.0913 14.7775 19.1162L13.9787 19.9141C13.9527 19.941 13.921 19.9616 13.882 19.9775C13.8441 19.9925 13.8057 20 13.7697 20H11.8879C11.8521 20 11.8143 19.9924 11.7756 19.9775C11.7376 19.9615 11.7039 19.9411 11.6789 19.9141L10.881 19.1162C10.8551 19.0913 10.8345 19.0603 10.8195 19.0215C10.8035 18.9825 10.7951 18.9442 10.7951 18.9072V15.4766C10.7951 15.4406 10.8035 15.4023 10.8195 15.3643C10.8345 15.3254 10.8552 15.2935 10.881 15.2686L11.6789 14.4697C11.7039 14.4437 11.7376 14.4232 11.7756 14.4072C11.8143 14.3924 11.8521 14.3848 11.8879 14.3848H13.7697ZM18.6115 14.3848C18.6485 14.3848 18.6859 14.3922 18.7238 14.4072C18.7627 14.4232 18.7946 14.4438 18.8205 14.4697L19.6183 15.2686C19.6443 15.2935 19.6659 15.3253 19.6808 15.3643C19.6968 15.4022 19.7043 15.4406 19.7043 15.4766V18.9072C19.7043 18.9442 19.6968 18.9825 19.6808 19.0215C19.6659 19.0605 19.6443 19.0912 19.6183 19.1162L18.8205 19.9141C18.7946 19.941 18.7627 19.9616 18.7238 19.9775C18.6859 19.9925 18.6485 20 18.6115 20H16.7297C16.6937 20 16.6554 19.9925 16.6164 19.9775C16.5784 19.9615 16.5467 19.941 16.5207 19.9141L15.7228 19.1162C15.6969 19.0912 15.6753 19.0604 15.6603 19.0215C15.6443 18.9825 15.6359 18.9442 15.6359 18.9072V15.4766C15.6359 15.4406 15.6443 15.4023 15.6603 15.3643C15.6753 15.3253 15.6968 15.2936 15.7228 15.2686L16.5207 14.4697C16.5467 14.4437 16.5784 14.4232 16.6164 14.4072C16.6554 14.3922 16.6937 14.3848 16.7297 14.3848H18.6115ZM11.9572 15.3535C11.9063 15.3535 11.8614 15.3714 11.8224 15.4062C11.7835 15.4422 11.7639 15.4891 11.7639 15.5459V18.8379C11.7639 18.8899 11.7834 18.9356 11.8224 18.9746C11.8614 19.0134 11.9064 19.0322 11.9572 19.0322H13.7004C13.7572 19.0322 13.8041 19.0134 13.84 18.9746C13.876 18.9356 13.8937 18.8899 13.8937 18.8379V15.5459C13.8937 15.4891 13.8759 15.4422 13.84 15.4062C13.8041 15.3713 13.7572 15.3536 13.7004 15.3535H11.9572ZM16.799 15.3535C16.7472 15.3536 16.7022 15.3713 16.6633 15.4062C16.6244 15.4422 16.6057 15.4891 16.6057 15.5459V18.8379C16.6057 18.8899 16.6243 18.9356 16.6633 18.9746C16.7022 19.0135 16.7472 19.0321 16.799 19.0322H18.5412C18.5982 19.0322 18.6458 19.0136 18.6818 18.9746C18.7178 18.9356 18.7355 18.8899 18.7355 18.8379V15.5459C18.7355 15.4892 18.7176 15.4421 18.6818 15.4062C18.6458 15.3712 18.5982 15.3535 18.5412 15.3535H16.799ZM3.39764 16.708C3.42354 16.708 3.4366 16.7213 3.43671 16.7461V17.6387C3.43661 17.6635 3.42355 17.6777 3.39764 17.6777H0.33905C0.313145 17.6777 0.300082 17.6635 0.299988 17.6387V16.7461C0.300094 16.7213 0.313157 16.708 0.33905 16.708H3.39764ZM7.17694 7.26758C7.21294 7.26758 7.25125 7.27504 7.28925 7.29004C7.32816 7.30603 7.35997 7.32658 7.38593 7.35254L8.18378 8.15137C8.20977 8.17636 8.23128 8.20808 8.24628 8.24707C8.26126 8.28604 8.26874 8.3234 8.26874 8.35938V11.79C8.26874 11.827 8.26128 11.8653 8.24628 11.9043C8.23128 11.9433 8.20976 11.974 8.18378 11.999L7.38593 12.7969C7.35995 12.8238 7.32819 12.8444 7.28925 12.8604C7.25125 12.8754 7.21294 12.8828 7.17694 12.8828H5.2951C5.2581 12.8828 5.22082 12.8754 5.18182 12.8604C5.14384 12.8444 5.11111 12.8239 5.08612 12.7969L4.28827 11.999C4.26229 11.974 4.24077 11.9433 4.22577 11.9043C4.20977 11.8653 4.20233 11.827 4.20233 11.79V8.35938C4.20233 8.32339 4.20978 8.28605 4.22577 8.24707C4.24077 8.20807 4.26227 8.17637 4.28827 8.15137L5.08612 7.35254C5.11109 7.32657 5.14387 7.30603 5.18182 7.29004C5.22082 7.27504 5.2581 7.26758 5.2951 7.26758H7.17694ZM9.97284 11.915C9.99881 11.915 10.0119 11.9282 10.0119 11.9541V12.8438C10.0119 12.8698 9.99884 12.8828 9.97284 12.8828H9.08221C9.05621 12.8828 9.04413 12.8698 9.04413 12.8438V11.9541C9.04416 11.9282 9.05625 11.915 9.08221 11.915H9.97284ZM14.4269 7.26758C14.4519 7.26758 14.466 7.27964 14.466 7.30664V8.19629C14.466 8.22323 14.4519 8.23633 14.4269 8.23633H11.7932C11.7672 8.23637 11.7551 8.24844 11.7551 8.27539V9.55273C11.7551 9.57769 11.7672 9.59077 11.7932 9.59082H13.7609C13.7969 9.59082 13.8342 9.59929 13.8732 9.61328C13.912 9.6292 13.944 9.64996 13.9699 9.67578L14.7687 10.4658C14.7947 10.4918 14.8143 10.5255 14.8303 10.5645C14.8452 10.6022 14.8536 10.64 14.8537 10.6748V11.79C14.8537 11.827 14.8453 11.8643 14.8303 11.9043C14.8143 11.9431 14.7946 11.9741 14.7687 11.999L13.9699 12.7969C13.9439 12.8229 13.9122 12.8444 13.8732 12.8604C13.8343 12.8753 13.7969 12.8828 13.7609 12.8828H10.8254C10.7994 12.8828 10.7863 12.8698 10.7863 12.8438V11.9541C10.7863 11.9282 10.7994 11.915 10.8254 11.915H13.6916C13.7484 11.915 13.7943 11.8963 13.8303 11.8574C13.8662 11.8185 13.8848 11.7735 13.8849 11.7217V10.7529C13.8849 10.6951 13.8662 10.6502 13.8303 10.6133C13.7943 10.5773 13.7485 10.5606 13.6916 10.5605H10.8254C10.7995 10.5605 10.7864 10.5463 10.7863 10.5215V7.30664C10.7863 7.27964 10.7994 7.26758 10.8254 7.26758H14.4269ZM18.6027 7.26758C18.6385 7.26764 18.6763 7.27516 18.7141 7.29004C18.7531 7.30604 18.7857 7.32654 18.8117 7.35254L19.6096 8.15137C19.6354 8.17631 19.6561 8.20825 19.6711 8.24707C19.6871 8.28607 19.6955 8.32338 19.6955 8.35938V11.79C19.6955 11.827 19.6871 11.8653 19.6711 11.9043C19.6561 11.9431 19.6354 11.9741 19.6096 11.999L18.8117 12.7969C18.7857 12.8239 18.7531 12.8444 18.7141 12.8604C18.6763 12.8752 18.6385 12.8827 18.6027 12.8828H16.7199C16.6831 12.8828 16.6463 12.8752 16.6076 12.8604C16.5696 12.8444 16.5359 12.8239 16.5109 12.7969L15.7131 11.999C15.6872 11.9741 15.6665 11.9431 15.6516 11.9043C15.6356 11.8653 15.6281 11.827 15.6281 11.79V8.35938C15.6281 8.32338 15.6356 8.28607 15.6516 8.24707C15.6665 8.20824 15.6872 8.17631 15.7131 8.15137L16.5109 7.35254C16.5359 7.32654 16.5696 7.30604 16.6076 7.29004C16.6464 7.27516 16.6831 7.26763 16.7199 7.26758H18.6027ZM5.36542 8.23633C5.31342 8.23633 5.2677 8.25406 5.2287 8.28906C5.18988 8.32496 5.17117 8.37195 5.17108 8.42871V11.7207C5.17108 11.7727 5.1897 11.8184 5.2287 11.8574C5.26769 11.8964 5.31342 11.915 5.36542 11.915H7.10663C7.16361 11.915 7.21126 11.8964 7.24725 11.8574C7.28325 11.8184 7.30096 11.7727 7.30096 11.7207V8.42871C7.30088 8.37195 7.2831 8.32497 7.24725 8.28906C7.21125 8.25406 7.16363 8.23633 7.10663 8.23633H5.36542ZM16.7902 8.23633C16.7383 8.23634 16.6934 8.25415 16.6545 8.28906C16.6156 8.32498 16.596 8.37189 16.5959 8.42871V11.7207C16.5959 11.7727 16.6155 11.8184 16.6545 11.8574C16.6934 11.8962 16.7384 11.915 16.7902 11.915H18.5324C18.5892 11.915 18.6361 11.8962 18.6721 11.8574C18.7081 11.8184 18.7267 11.7727 18.7267 11.7207V8.42871C18.7267 8.37189 18.708 8.32498 18.6721 8.28906C18.6361 8.25417 18.5893 8.23635 18.5324 8.23633H16.7902ZM12.2971 0C12.313 0 12.3252 0.00476933 12.3322 0.015625C12.3392 0.0265658 12.3391 0.0369287 12.3293 0.046875L10.0978 5.57812C10.0868 5.60397 10.0691 5.61717 10.0432 5.61719H9.08221C9.06721 5.61719 9.05696 5.61159 9.05096 5.60059C9.0462 5.59079 9.04618 5.5801 9.05096 5.57031L11.2902 0.0390625C11.3002 0.013114 11.318 5.14276e-05 11.3439 0H12.2971ZM5.62714 0.000976562C5.66307 0.000976562 5.70149 0.00848774 5.74042 0.0234375C5.77839 0.0394256 5.81113 0.0599659 5.83612 0.0859375L6.63495 0.884766C6.66079 0.909692 6.68153 0.94069 6.69647 0.979492C6.71147 1.01849 6.71991 1.05577 6.71991 1.09277V4.6084C6.71991 4.6354 6.73297 4.64746 6.75897 4.64746H8.23065C8.25658 4.64748 8.26969 4.6606 8.26971 4.68652V5.57715C8.26971 5.60313 8.25661 5.61619 8.23065 5.61621H4.24139C4.21552 5.61615 4.20233 5.60308 4.20233 5.57715V4.68652C4.20236 4.66064 4.21555 4.64753 4.24139 4.64746H5.71307C5.73875 4.64731 5.75116 4.63523 5.75116 4.6084V1.16309C5.75116 1.10609 5.73345 1.05846 5.69745 1.02246C5.66151 0.986594 5.61462 0.96879 5.55878 0.96875H4.24139C4.21555 0.968686 4.20236 0.955565 4.20233 0.929688V0.0400391C4.20233 0.0131065 4.21552 0.00103641 4.24139 0.000976562H5.62714ZM16.0851 0.000976562C16.1211 0.000976562 16.1584 0.0084375 16.1974 0.0234375C16.2364 0.039432 16.2681 0.0599555 16.2941 0.0859375L17.092 0.884766C17.117 0.90976 17.1385 0.940504 17.1545 0.979492C17.1695 1.01849 17.1769 1.05577 17.1769 1.09277V2.19238C17.1769 2.22838 17.1667 2.26379 17.1467 2.30078C17.1257 2.33778 17.1024 2.36572 17.0764 2.38672L14.1252 4.30078C14.0943 4.32077 14.0783 4.34783 14.0783 4.38477V4.6084C14.0783 4.6354 14.0914 4.64746 14.1174 4.64746H17.1379C17.1639 4.64746 17.1769 4.66057 17.1769 4.68652V5.57715C17.1769 5.60315 17.1639 5.61621 17.1379 5.61621H13.1496C13.1236 5.61621 13.1105 5.60315 13.1105 5.57715V3.98145C13.1106 3.94567 13.12 3.9098 13.1408 3.87402C13.1607 3.83818 13.1852 3.80905 13.2111 3.78906L16.1623 1.88379C16.1932 1.86184 16.2081 1.83373 16.2082 1.79785V1.16309C16.2082 1.10609 16.1904 1.05846 16.1555 1.02246C16.1185 0.986461 16.0718 0.96875 16.0148 0.96875H13.1496C13.1236 0.96875 13.1106 0.955629 13.1105 0.929688V0.0400391C13.1105 0.0130391 13.1236 0.000976562 13.1496 0.000976562H16.0851Z" fill="#001E28"/>
</svg>
