<svg width="20" height="20" viewBox="0 0 20 20" fill="none" xmlns="http://www.w3.org/2000/svg">
<path d="M1.37891 20H0V18.6211H1.37891V20ZM7.58594 20H6.20703V18.6211H7.58594V20ZM13.793 20H12.4141V18.6211H13.793V20ZM20 20H18.6211V18.6211H20V20ZM4.52148 17.9307H3.1416V16.5518H4.52148V17.9307ZM10.7275 17.9307H9.34863V16.5518H10.7275V17.9307ZM16.8584 17.9307H15.4785V16.5518H16.8584V17.9307ZM10 0C12.0119 1.26278e-07 13.9416 0.799074 15.3643 2.22168C16.7869 3.64431 17.5859 5.57405 17.5859 7.58594C17.5859 11.7757 14.1897 15.1729 10 15.1729C5.81025 15.1729 2.41406 11.7757 2.41406 7.58594C2.41421 3.39631 5.81034 0 10 0ZM7.90918 11.4746C7.71157 12.0641 7.59783 12.6786 7.57129 13.2998C8.33936 13.6262 9.16547 13.7938 10 13.793C10.2711 13.7923 10.5418 13.7739 10.8105 13.7383C9.71777 13.1603 8.73554 12.3941 7.90918 11.4746ZM9.88281 8.56055C9.36649 9.00056 8.92059 9.51722 8.56152 10.0928C9.66618 11.4931 11.1565 12.5397 12.8486 13.1035C13.6684 12.6784 14.3837 12.0762 14.9424 11.3408C14.1473 11.2344 13.3723 11.0103 12.6436 10.6748C11.5792 10.1815 10.6366 9.45945 9.88281 8.56055ZM9.22949 4.66016C7.01422 5.95744 5.37305 8.04581 4.57227 10.5967C4.98967 11.3491 5.55889 12.0067 6.24316 12.5283C6.5249 10.401 7.65077 8.47645 9.36719 7.18848C9.48425 6.34471 9.43758 5.4862 9.22949 4.66016ZM13.3115 2.33691C13.6808 3.14514 13.9632 3.99063 14.1543 4.8584C14.5134 6.47168 14.5167 8.14406 14.1641 9.75879C14.6682 9.90562 15.1883 9.99143 15.7129 10.0156C16.9039 7.2136 15.8869 3.96092 13.3115 2.33691ZM10 1.37891C9.72796 1.37955 9.45623 1.39803 9.18652 1.43359C10.4852 3.13296 11.0458 5.28316 10.7432 7.40039C11.3102 8.15009 12.0307 8.77056 12.8564 9.21973C13.1145 7.87471 13.0944 6.49115 12.7969 5.1543C12.5077 3.86392 11.9987 2.63236 11.292 1.51465C10.8672 1.42463 10.4342 1.37905 10 1.37891ZM7.70117 1.82129C5.34166 2.76209 3.79338 5.0458 3.79297 7.58594C3.79366 7.91626 3.82116 8.2462 3.87402 8.57227C4.90741 6.36009 6.61 4.52837 8.74121 3.33691C8.46625 2.78613 8.11608 2.27606 7.70117 1.82129Z" fill="#001E28"/>
</svg>
