<svg width="20" height="20" viewBox="0 0 20 20" fill="none" xmlns="http://www.w3.org/2000/svg">
<path d="M8.19329 7.4475V10.8825C7.76068 10.7684 7.30797 10.7529 6.86855 10.837C6.42913 10.9211 6.01419 11.1028 5.65432 11.3686C5.29445 11.6345 4.99883 11.9777 4.78923 12.3729C4.57964 12.7682 4.46142 13.2055 4.44329 13.6525C4.41785 14.0379 4.47528 14.4243 4.61173 14.7857C4.74818 15.147 4.96047 15.475 5.23431 15.7474C5.50815 16.0198 5.83718 16.2304 6.19924 16.365C6.56131 16.4995 6.948 16.5549 7.33329 16.5275C7.7218 16.557 8.1121 16.5019 8.47725 16.366C8.8424 16.23 9.17371 16.0165 9.44833 15.7401C9.72295 15.4637 9.93434 15.131 10.0679 14.765C10.2015 14.399 10.2541 14.0083 10.222 13.62V0H13.6208C14.1995 3.595 15.9958 4.43 18.4045 4.815V8.26C16.7362 8.12366 15.1267 7.5803 13.717 6.6775V13.4837C13.7145 16.5625 11.8895 20 7.35829 20C6.50836 19.9961 5.66775 19.8226 4.88572 19.4897C4.10369 19.1569 3.39596 18.6712 2.80399 18.0613C2.21203 17.4515 1.74773 16.7295 1.43831 15.9379C1.12889 15.1463 0.980572 14.3009 1.00204 13.4512C1.02876 12.5664 1.24277 11.6973 1.62994 10.9013C2.01711 10.1052 2.56864 9.40028 3.24817 8.83297C3.9277 8.26565 4.71979 7.84884 5.57218 7.61002C6.42458 7.37121 7.31792 7.31582 8.19329 7.4475Z" fill="#001E28"/>
</svg>
