<svg width="20" height="20" viewBox="0 0 20 20" fill="none" xmlns="http://www.w3.org/2000/svg">
<path d="M12.8799 0V1.37402H10.4619V3.51855C11.7839 3.62855 13.0159 4.03431 14.0879 4.69531L15.6211 2.67871L16.7148 3.50879L15.1904 5.5166C16.9283 7.03452 18.0507 9.24079 18.0508 11.7246C18.0508 16.2865 14.3382 19.9998 9.77539 20C5.21239 20 1.5 16.2866 1.5 11.7246C1.5002 7.39681 4.85105 3.87358 9.08789 3.51855V1.37402H6.6709V0H12.8799ZM9.77539 4.82324C5.97052 4.82324 2.87424 7.91979 2.87402 11.7246C2.87402 15.5296 5.97039 18.626 9.77539 18.626C13.5812 18.6258 16.6758 15.5295 16.6758 11.7246C16.6756 7.91992 13.5811 4.82345 9.77539 4.82324ZM10.46 6.20703V11.7236H9.09375V6.20703H10.46Z" fill="#001E28"/>
</svg>
