<svg width="20" height="20" viewBox="0 0 20 20" fill="none" xmlns="http://www.w3.org/2000/svg">
<path fill-rule="evenodd" clip-rule="evenodd" d="M14.726 15.0081L4.994 5.27412C6.208 2.96812 8.6 1.37312 11.382 1.37312C15.377 1.37312 18.626 4.62412 18.626 8.61812C18.626 11.4021 17.033 13.7941 14.726 15.0081V15.0081ZM4.137 8.61812C4.137 7.93612 4.263 7.28712 4.44 6.66112L13.339 15.5621C12.712 15.7391 12.065 15.8641 11.382 15.8641C7.387 15.8641 4.137 12.6141 4.137 8.61812V8.61812ZM0.975 20.0001L5.823 15.1501C7.328 16.4341 9.254 17.2381 11.382 17.2381C16.134 17.2381 20 13.3711 20 8.61812C20 3.86512 16.134 0.00012207 11.382 0.00012207C6.63 0.00012207 2.764 3.86512 2.764 8.61812C2.764 10.7471 3.569 12.6731 4.852 14.1791L0 19.0321L0.975 20.0001Z" fill="#001E28"/>
</svg>
