<svg width="20" height="20" viewBox="0 0 20 20" fill="none" xmlns="http://www.w3.org/2000/svg">
<path d="M17.2412 14.4824C18.7647 14.4824 19.9999 15.7177 20 17.2412C20 18.7648 18.7648 20 17.2412 20C15.7177 19.9999 14.4824 18.7647 14.4824 17.2412C14.4825 15.7178 15.7178 14.4825 17.2412 14.4824ZM17.2412 15.8623C16.4796 15.8624 15.8624 16.4796 15.8623 17.2412C15.8623 18.0029 16.4795 18.621 17.2412 18.6211C18.003 18.6211 18.6211 18.003 18.6211 17.2412C18.621 16.4795 18.0029 15.8623 17.2412 15.8623ZM8.96582 0C12.2436 0.000528972 15.1507 2.10631 16.1729 5.2207C17.1949 8.33502 16.1009 11.7536 13.4609 13.6963C10.8207 15.639 7.23089 15.6661 4.56152 13.7637L1.07812 17.2471L0 17.2412V16.1689L3.4082 12.749C1.35479 10.5383 0.806129 7.32063 2.01172 4.55469C3.2174 1.78869 5.94846 0.000375085 8.96582 0ZM2.96484 5.99707C2.82779 6.51558 2.75856 7.04962 2.75879 7.58594C2.75846 9.50862 3.64948 11.3234 5.1709 12.499C6.69219 13.6743 8.67206 14.0781 10.5322 13.5928L2.96484 5.99707ZM10.0088 1.4668C7.40024 1.02308 4.79736 2.28231 3.52539 4.60254L11.9297 13.041C14.255 11.7784 15.5241 9.17964 15.0908 6.56934C14.6575 3.95927 12.6171 1.9106 10.0088 1.4668Z" fill="#001E28"/>
</svg>
