<svg width="20" height="20" viewBox="0 0 20 20" fill="none" xmlns="http://www.w3.org/2000/svg">
<path d="M20 5.344H15.602L15.6464 5.3288L14.1996 1.1516H12.9404L10.67 3.3472C10.4568 3.2816 10.2348 3.2356 10 3.2356C9.7652 3.2356 9.5432 3.2816 9.33 3.3472L7.0596 1.1516H5.8004L4.3536 5.3288L4.398 5.344H0V10.1968H1.5368V18.8488H18.4628V10.1968H19.9996V5.344H20ZM13.3036 2.6664L14.2308 5.344H12.2708C12.2344 4.8848 12.0652 4.4668 11.7972 4.1236L13.3036 2.6664ZM12.0392 8.8556H7.9608V6.6852H12.0392V8.8556ZM10.9108 5.344H9.0896C9.1764 4.9108 9.5416 4.5764 10.0004 4.5764C10.4592 4.5764 10.8244 4.9108 10.9112 5.344H10.9108ZM6.6964 2.6664L8.2028 4.1236C7.9344 4.4664 7.7656 4.8848 7.7292 5.344H5.7692L6.6964 2.6664ZM1.3424 6.6852H6.6188V8.8556H1.3424V6.6852ZM2.8792 17.5076V10.1968H7.6352V17.5076H2.8792ZM8.9772 17.5076V10.1968H11.0228V17.5076H8.9772ZM17.1208 17.5076H12.3648V10.1968H17.1208V17.5076ZM18.6576 8.8556H13.3812V6.6852H18.6576V8.8556Z" fill="#001E28"/>
</svg>
