<svg width="20" height="20" viewBox="0 0 20 20" fill="none" xmlns="http://www.w3.org/2000/svg">
<path d="M20.0004 19.057V19.9994H19.0102L12.3657 13.3344L13.3344 12.3686L20.0004 19.057ZM5.46234 0.000396729C7.71034 0.000396729 9.73037 1.3908 10.5444 3.4418H20.0004V4.80313H10.0551L9.39789 4.30997C8.8968 2.57511 7.27825 1.3627 5.46234 1.3627C3.20538 1.36275 1.36957 3.19188 1.36957 5.43985C1.36977 7.24867 2.58667 8.85786 4.32953 9.35782L4.82465 10.0111V19.9574H3.45551V10.5004C1.39764 9.68745 0.000615827 7.67667 0.000427246 5.43985C0.000427246 2.43988 2.45038 0.000443063 5.46234 0.000396729ZM9.43011 6.25137C11.207 6.25137 12.6536 7.69247 12.6537 9.46036C12.6537 11.2304 11.2071 12.6693 9.43011 12.6693C7.65312 12.6693 6.20746 11.2304 6.20746 9.46036C6.20759 7.69247 7.6532 6.25138 9.43011 6.25137ZM9.43011 7.61563C8.4082 7.61564 7.57673 8.44347 7.5766 9.46036C7.5766 10.4784 8.40812 11.308 9.43011 11.308C10.4521 11.308 11.2846 10.4784 11.2846 9.46036C11.2845 8.44347 10.452 7.61563 9.43011 7.61563Z" fill="#001E28"/>
</svg>
