<svg width="20" height="20" viewBox="0 0 20 20" fill="none" xmlns="http://www.w3.org/2000/svg">
<g clip-path="url(#clip0_8438_67542)">
<path d="M10 4.632C7.04201 4.632 4.63501 7.041 4.63501 10C4.63501 12.959 7.04201 15.368 10 15.368C12.958 15.368 15.365 12.959 15.365 10C15.365 7.041 12.9575 4.632 10 4.632ZM6.00751 10C6.00751 7.798 7.79851 6.006 10 6.006V13.9945C7.79851 13.9945 6.00751 12.2025 6.00751 10.0005V10Z" fill="#001E28"/>
<path d="M10.693 17.241H9.32001V20H10.693V17.241Z" fill="#001E28"/>
<path d="M15.5747 14.6439L14.6039 15.614L16.5523 17.5639L17.5232 16.5937L15.5747 14.6439Z" fill="#001E28"/>
<path d="M4.44471 14.5962L2.49518 16.5478L3.46619 17.5178L5.41572 15.5662L4.44471 14.5962Z" fill="#001E28"/>
<path d="M3.4661 2.49344L2.49509 3.46343L4.44462 5.41501L5.41563 4.44501L3.4661 2.49344Z" fill="#001E28"/>
<path d="M16.5528 2.49395L14.604 4.44482L15.575 5.41481L17.5238 3.46394L16.5528 2.49395Z" fill="#001E28"/>
<path d="M20 9.313H17.243V10.6865H20V9.313Z" fill="#001E28"/>
<path d="M2.757 9.313H0V10.6865H2.757V9.313Z" fill="#001E28"/>
<path d="M10.693 0H9.32001V2.759H10.693V0Z" fill="#001E28"/>
</g>
<defs>
<clipPath id="clip0_8438_67542">
<rect width="20" height="20" fill="white"/>
</clipPath>
</defs>
</svg>
