<svg width="20" height="20" viewBox="0 0 20 20" fill="none" xmlns="http://www.w3.org/2000/svg">
<g clip-path="url(#clip0_8438_69458)">
<path d="M10.9646 8.125H8.74521H7.51001H3.01941V8.849H7.51001H8.74521H10.9646V8.125Z" fill="#001E28"/>
<path d="M6.47401 10.4606H3.01941V11.1846H6.47401V10.4606Z" fill="#001E28"/>
<path d="M10.9646 10.4606H7.51001V11.1846H10.9646V10.4606Z" fill="#001E28"/>
<path d="M14.4876 9.44501H13.3166L7.80463 18.9554L8.86023 20.009H18.944L20.0002 18.9554L14.4878 9.44501H14.4876ZM18.6426 19.2852H9.16143L8.71243 18.8364L13.7352 10.169H14.0688L19.092 18.8364L18.6424 19.2852H18.6426Z" fill="#001E28"/>
<path d="M13.4382 17.3028C13.4142 17.3028 13.398 17.3186 13.398 17.342V18.2676C13.398 18.292 13.4142 18.3076 13.4382 18.3076H14.3664C14.3904 18.3076 14.4062 18.292 14.4062 18.2676V17.342C14.4062 17.3186 14.3904 17.3028 14.3664 17.3028H13.4382Z" fill="#001E28"/>
<path d="M13.4382 12.4764C13.4142 12.4764 13.398 12.492 13.398 12.5166V16.8598C13.398 16.8842 13.4142 16.9 13.4382 16.9H14.3664C14.3904 16.9 14.4062 16.8842 14.4062 16.8598V12.5166C14.4062 12.492 14.3904 12.4764 14.3664 12.4764H13.4382Z" fill="#001E28"/>
<path d="M4.5268 6.36799C4.5784 6.36799 4.6476 6.33939 4.6822 6.30499L5.2738 5.71479C5.3088 5.67999 5.3374 5.61139 5.3374 5.56019V3.02059C5.3374 2.96879 5.3088 2.90019 5.2738 2.86519L4.6822 2.27499C4.6478 2.24059 4.5784 2.21179 4.5268 2.21179H3.13C3.078 2.21179 3.0092 2.24059 2.9744 2.27499L2.3826 2.86519C2.3482 2.89999 2.3194 2.96879 2.3194 3.02059V5.56019C2.3194 5.61139 2.348 5.67999 2.3826 5.71479L2.9744 6.30499C3.0092 6.33939 3.0778 6.36799 3.13 6.36799H4.5268ZM3.038 5.50839V3.07179C3.038 2.99179 3.1012 2.92819 3.1816 2.92819H4.4748C4.5558 2.92819 4.6188 2.99179 4.6188 3.07179V5.50839C4.6188 5.58879 4.5556 5.65179 4.4748 5.65179H3.1816C3.1012 5.65179 3.038 5.58879 3.038 5.50839Z" fill="#001E28"/>
<path d="M8.15622 4.6196V3.96C8.15622 3.9434 8.14442 3.9314 8.12742 3.9314H5.85662C5.83902 3.9314 5.82782 3.9434 5.82782 3.96V4.6196C5.82782 4.6366 5.83902 4.6484 5.85662 4.6484H8.12742C8.14462 4.6484 8.15622 4.6366 8.15622 4.6196Z" fill="#001E28"/>
<path d="M11.348 3.84583H11.9228C11.9402 3.84583 11.9514 3.83383 11.9514 3.81703V3.21483C11.9514 3.19823 11.9402 3.18623 11.9228 3.18623H11.348C11.3306 3.18623 11.3192 3.17503 11.3192 3.15743V2.58403C11.3192 2.56723 11.3074 2.55603 11.2904 2.55603H10.687C10.6696 2.55603 10.6582 2.56723 10.6582 2.58403V3.15743C10.6582 3.17503 10.6468 3.18623 10.6296 3.18623H9.96842C9.95102 3.18623 9.93962 3.17503 9.93962 3.15743V2.58403C9.93962 2.56723 9.92822 2.55603 9.91082 2.55603H9.30742C9.29022 2.55603 9.27862 2.56723 9.27862 2.58403V3.15743C9.27862 3.17503 9.26722 3.18623 9.24982 3.18623H8.67522C8.65762 3.18623 8.64642 3.19823 8.64642 3.21483V3.81703C8.64642 3.83383 8.65762 3.84583 8.67522 3.84583H9.24982C9.26722 3.84583 9.27862 3.85703 9.27862 3.87463V4.70563C9.27862 4.72243 9.26722 4.73443 9.24982 4.73443H8.67522C8.65762 4.73443 8.64642 4.74563 8.64642 4.76323V5.36463C8.64642 5.38203 8.65762 5.39323 8.67522 5.39323H9.24982C9.26722 5.39323 9.27862 5.40523 9.27862 5.42203V5.99543C9.27862 6.01303 9.29042 6.02423 9.30742 6.02423H9.91082C9.92822 6.02423 9.93962 6.01303 9.93962 5.99543V5.42203C9.93962 5.40523 9.95102 5.39323 9.96842 5.39323H10.6296C10.6468 5.39323 10.6582 5.40523 10.6582 5.42203V5.99543C10.6582 6.01303 10.6696 6.02423 10.687 6.02423H11.2904C11.3076 6.02423 11.3192 6.01303 11.3192 5.99543V5.42203C11.3192 5.40523 11.3306 5.39323 11.348 5.39323H11.9228C11.9402 5.39323 11.9514 5.38203 11.9514 5.36463V4.76323C11.9514 4.74563 11.9402 4.73443 11.9228 4.73443H11.348C11.3306 4.73443 11.3192 4.72243 11.3192 4.70563V3.87463C11.3192 3.85703 11.3306 3.84583 11.348 3.84583ZM10.658 4.70563C10.658 4.72243 10.6466 4.73443 10.6294 4.73443H9.96822C9.95082 4.73443 9.93942 4.72243 9.93942 4.70563V3.87463C9.93942 3.85703 9.95082 3.84583 9.96822 3.84583H10.6294C10.6466 3.84583 10.658 3.85703 10.658 3.87463V4.70563Z" fill="#001E28"/>
<path d="M8.7738 15.8206H1.6828L0.7264 14.8668V1.68722L1.6828 0.733616H12.588L13.5442 1.68722V8.72222H14.2706V1.38722L12.889 0.00921631H1.382L0 1.38722V15.1668L1.382 16.545H8.3538L8.7738 15.8206Z" fill="#001E28"/>
</g>
<defs>
<clipPath id="clip0_8438_69458">
<rect width="20" height="20" fill="white"/>
</clipPath>
</defs>
</svg>
