<svg width="20" height="20" viewBox="0 0 20 20" fill="none" xmlns="http://www.w3.org/2000/svg">
<path fill-rule="evenodd" clip-rule="evenodd" d="M6.606 2.5L3.45 5.666V9.395H2.472L0 11.868V15.929L2.472 18.402H6.204V9.395H4.824V6.233L7.176 3.873H9V2.5H6.606ZM1.37109 12.4376V15.3596L3.04009 17.0276H4.82809V10.7686H3.04009L1.37109 12.4376Z" fill="#001E28"/>
<path fill-rule="evenodd" clip-rule="evenodd" d="M15.1808 9.39453H13.8008V9.49953V18.4015H17.5308L20.0018 15.9285V11.8675L17.5318 9.39453H16.5548H15.1808ZM16.9599 10.7686H15.1719V17.0276H16.9599L18.6259 15.3596V12.4376L16.9599 10.7686Z" fill="#001E28"/>
<path d="M10.7992 1.50012H12.1992V6.50012H10.7992V1.50012Z" fill="#001E28"/>
<rect x="16.7992" y="2.50012" width="1.4" height="3" fill="#001E28"/>
<rect x="13.7992" y="0.500122" width="1.4" height="7" fill="#001E28"/>
</svg>
