<svg width="24" height="16" viewBox="0 0 24 16" fill="none" xmlns="http://www.w3.org/2000/svg">
<g clip-path="url(#clip0_986_17568)">
<path d="M0 16H23.999V0.000995636H0V16Z" fill="#F9F9F9"/>
<path d="M11.9995 16H24V0.000995636H11.9995V16Z" fill="#D02A36"/>
<mask id="mask0_986_17568" style="mask-type:luminance" maskUnits="userSpaceOnUse" x="0" y="0" width="24" height="16">
<path d="M0 16H23.999V1.90735e-06H0V16Z" fill="white"/>
</mask>
<g mask="url(#mask0_986_17568)">
<path d="M3.33774 3.76331C3.32974 3.7653 3.32174 3.76729 3.31374 3.76928V4.94838H2.12579V3.76928C2.11679 3.76729 2.10879 3.7653 2.10079 3.76331C1.9198 3.74838 1.74681 3.57724 1.73181 3.39714C1.72981 3.38818 1.72781 3.38022 1.72581 3.37226H0.540856V2.18918H1.72581C1.72781 2.18122 1.72981 2.17326 1.73181 2.1643C1.74681 1.9842 1.9198 1.81306 2.10079 1.79813C2.10879 1.79515 2.11679 1.79415 2.12579 1.79216V0.612064H3.31374V1.79216C3.32074 1.79415 3.32874 1.79515 3.33774 1.79813C3.51873 1.81306 3.69172 1.9842 3.70672 2.1643C3.70972 2.17226 3.71072 2.18122 3.71272 2.18918H4.89867V3.37226H3.71272C3.71072 3.38022 3.70972 3.38918 3.70672 3.39714C3.69172 3.57724 3.51873 3.74838 3.33774 3.76331ZM-0.00012207 16.0001H11.9994V0.000123978H-0.00012207V16.0001Z" fill="#FAFAFA"/>
</g>
<mask id="mask1_986_17568" style="mask-type:luminance" maskUnits="userSpaceOnUse" x="0" y="0" width="24" height="16">
<path d="M0 16H23.999V1.90735e-06H0V16Z" fill="white"/>
</mask>
<g mask="url(#mask1_986_17568)">
<path d="M3.70645 2.16443C3.69145 1.98433 3.51946 1.81219 3.33746 1.79826C3.40846 1.81916 3.48946 1.86891 3.56345 1.94154C3.63545 2.01418 3.68545 2.09378 3.70645 2.16443Z" fill="#E51D30"/>
</g>
<mask id="mask2_986_17568" style="mask-type:luminance" maskUnits="userSpaceOnUse" x="0" y="0" width="24" height="16">
<path d="M0 16H23.999V1.90735e-06H0V16Z" fill="white"/>
</mask>
<g mask="url(#mask2_986_17568)">
<path d="M4.85823 2.22903V3.33251H3.71728C3.71728 3.34545 3.71528 3.35838 3.71228 3.37231H4.89823V2.18923H3.71228C3.71528 2.20316 3.71728 2.2161 3.71728 2.22903H4.85823Z" fill="#E51D30"/>
</g>
<mask id="mask3_986_17568" style="mask-type:luminance" maskUnits="userSpaceOnUse" x="0" y="0" width="24" height="16">
<path d="M0 16H23.999V1.90735e-06H0V16Z" fill="white"/>
</mask>
<g mask="url(#mask3_986_17568)">
<path d="M0.580159 3.33239V2.22891H1.72111C1.72211 2.21597 1.72311 2.20304 1.72611 2.1901H0.540161V3.37219H1.72611C1.72311 3.35826 1.72211 3.34533 1.72111 3.33239H0.580159Z" fill="#E51D30"/>
</g>
<mask id="mask4_986_17568" style="mask-type:luminance" maskUnits="userSpaceOnUse" x="0" y="0" width="24" height="16">
<path d="M0 16H23.999V1.90735e-06H0V16Z" fill="white"/>
</mask>
<g mask="url(#mask4_986_17568)">
<path d="M3.27368 4.90942H2.16473V3.77409C2.15173 3.7731 2.13873 3.7721 2.12573 3.76912V4.94922H3.31368V3.76912C3.29968 3.7721 3.28668 3.7731 3.27368 3.77409V4.90942Z" fill="#E51D30"/>
</g>
<mask id="mask5_986_17568" style="mask-type:luminance" maskUnits="userSpaceOnUse" x="0" y="0" width="24" height="16">
<path d="M0 16H23.999V1.90735e-06H0V16Z" fill="white"/>
</mask>
<g mask="url(#mask5_986_17568)">
<path d="M3.33771 3.76331C3.5187 3.74838 3.69169 3.57724 3.70669 3.39714C3.68569 3.46778 3.6357 3.54838 3.5637 3.62002C3.4897 3.69266 3.4087 3.74241 3.33771 3.76331Z" fill="#E51D30"/>
</g>
<mask id="mask6_986_17568" style="mask-type:luminance" maskUnits="userSpaceOnUse" x="0" y="0" width="24" height="16">
<path d="M0 16H23.999V1.90735e-06H0V16Z" fill="white"/>
</mask>
<g mask="url(#mask6_986_17568)">
<path d="M1.73181 3.39701C1.74681 3.57711 1.9188 3.74925 2.1008 3.76318C2.0298 3.74229 1.9488 3.69254 1.87581 3.6209C1.80281 3.54826 1.75281 3.46766 1.73181 3.39701Z" fill="#E51D30"/>
</g>
<mask id="mask7_986_17568" style="mask-type:luminance" maskUnits="userSpaceOnUse" x="0" y="0" width="24" height="16">
<path d="M0 16H23.999V1.90735e-06H0V16Z" fill="white"/>
</mask>
<g mask="url(#mask7_986_17568)">
<path d="M2.10104 1.79814C1.91905 1.81306 1.74706 1.98421 1.73206 2.16431C1.75305 2.09366 1.80305 2.01406 1.87605 1.94142C1.94905 1.86878 2.03004 1.81903 2.10104 1.79814Z" fill="#E51D30"/>
</g>
<mask id="mask8_986_17568" style="mask-type:luminance" maskUnits="userSpaceOnUse" x="0" y="0" width="24" height="16">
<path d="M0 16H23.999V1.90735e-06H0V16Z" fill="white"/>
</mask>
<g mask="url(#mask8_986_17568)">
<path d="M2.16449 0.651938H3.27344V1.78726C3.28644 1.78826 3.29944 1.78925 3.31344 1.79224V0.612137H2.12549V1.79224C2.13949 1.78925 2.15149 1.78826 2.16449 1.78726V0.651938Z" fill="#E51D30"/>
</g>
<mask id="mask9_986_17568" style="mask-type:luminance" maskUnits="userSpaceOnUse" x="0" y="0" width="24" height="16">
<path d="M0 16H23.999V1.90735e-06H0V16Z" fill="white"/>
</mask>
<g mask="url(#mask9_986_17568)">
<path d="M0.619527 2.26835H1.72448C1.72248 2.25641 1.72048 2.24347 1.72148 2.22855H0.579529V3.33203H1.72148C1.72048 3.3181 1.72248 3.30517 1.72448 3.29323H0.619527V2.26835Z" fill="#D0202D"/>
</g>
<mask id="mask10_986_17568" style="mask-type:luminance" maskUnits="userSpaceOnUse" x="0" y="0" width="24" height="16">
<path d="M0 16H23.999V1.90735e-06H0V16Z" fill="white"/>
</mask>
<g mask="url(#mask10_986_17568)">
<path d="M3.23432 0.691269V1.79077C3.24632 1.78878 3.25932 1.78679 3.27432 1.78779V0.651468H2.16437V1.78779C2.17937 1.78679 2.19237 1.78878 2.20437 1.79077V0.691269H3.23432Z" fill="#D0202D"/>
</g>
<mask id="mask11_986_17568" style="mask-type:luminance" maskUnits="userSpaceOnUse" x="0" y="0" width="24" height="16">
<path d="M0 16H23.999V1.90735e-06H0V16Z" fill="white"/>
</mask>
<g mask="url(#mask11_986_17568)">
<path d="M2.20412 4.87011V3.77061C2.19212 3.7726 2.17912 3.77459 2.16412 3.77359V4.90991H3.27408V3.77359C3.26008 3.77459 3.24608 3.7726 3.23408 3.77061V4.87011H2.20412Z" fill="#D0202D"/>
</g>
<mask id="mask12_986_17568" style="mask-type:luminance" maskUnits="userSpaceOnUse" x="0" y="0" width="24" height="16">
<path d="M0 16H23.999V1.90735e-06H0V16Z" fill="white"/>
</mask>
<g mask="url(#mask12_986_17568)">
<path d="M4.85827 2.22904H3.71732C3.71832 2.24297 3.71632 2.2559 3.71332 2.26884H4.81827V3.29272H3.71332C3.71632 3.30565 3.71832 3.31859 3.71732 3.33252H4.85827V2.22904Z" fill="#D0202D"/>
</g>
<mask id="mask13_986_17568" style="mask-type:luminance" maskUnits="userSpaceOnUse" x="0" y="0" width="24" height="16">
<path d="M0 16H23.999V1.90735e-06H0V16Z" fill="white"/>
</mask>
<g mask="url(#mask13_986_17568)">
<path d="M0.6592 2.30777H1.74315C1.73416 2.29683 1.72816 2.2829 1.72416 2.26797H0.619202V3.29285H1.72416C1.72816 3.27892 1.73416 3.26499 1.74315 3.25404H0.6592V2.30777Z" fill="#96877D"/>
</g>
<mask id="mask14_986_17568" style="mask-type:luminance" maskUnits="userSpaceOnUse" x="0" y="0" width="24" height="16">
<path d="M0 16H23.999V1.90735e-06H0V16Z" fill="white"/>
</mask>
<g mask="url(#mask14_986_17568)">
<path d="M3.19476 0.731104V1.80872C3.20575 1.80076 3.21875 1.79479 3.23475 1.79081V0.691303H2.2038V1.79081C2.2188 1.79479 2.2328 1.80076 2.24379 1.80872V0.731104H3.19476Z" fill="#96877D"/>
</g>
<mask id="mask15_986_17568" style="mask-type:luminance" maskUnits="userSpaceOnUse" x="0" y="0" width="24" height="16">
<path d="M0 16H23.999V1.90735e-06H0V16Z" fill="white"/>
</mask>
<g mask="url(#mask15_986_17568)">
<path d="M2.24404 4.8308V3.7522C2.23304 3.76115 2.21904 3.76712 2.20404 3.77011V4.87061H3.234V3.77011C3.219 3.76712 3.206 3.76115 3.195 3.7522V4.8308H2.24404Z" fill="#96877D"/>
</g>
<mask id="mask16_986_17568" style="mask-type:luminance" maskUnits="userSpaceOnUse" x="0" y="0" width="24" height="16">
<path d="M0 16H23.999V1.90735e-06H0V16Z" fill="white"/>
</mask>
<g mask="url(#mask16_986_17568)">
<path d="M4.81845 2.26834H3.71349C3.71049 2.28326 3.7045 2.2962 3.6955 2.30814H4.77845V3.25341H3.6955C3.7045 3.26436 3.71049 3.27829 3.71349 3.29321H4.81845V2.26834Z" fill="#96877D"/>
</g>
<mask id="mask17_986_17568" style="mask-type:luminance" maskUnits="userSpaceOnUse" x="0" y="0" width="24" height="16">
<path d="M0 16H23.999V1.90735e-06H0V16Z" fill="white"/>
</mask>
<g mask="url(#mask17_986_17568)">
<path d="M3.45013 2.72115V2.72513V2.72712C3.45113 2.74105 3.45413 2.751 3.46113 2.75796C3.46713 2.76393 3.47413 2.76692 3.48413 2.76592C3.49213 2.76592 3.49913 2.76294 3.50513 2.75697C3.51013 2.751 3.51213 2.74304 3.51213 2.73508C3.51213 2.7301 3.51113 2.72513 3.51013 2.71816L3.45013 2.72115Z" fill="#CDCCCC"/>
</g>
<mask id="mask18_986_17568" style="mask-type:luminance" maskUnits="userSpaceOnUse" x="0" y="0" width="24" height="16">
<path d="M0 16H23.999V1.90735e-06H0V16Z" fill="white"/>
</mask>
<g mask="url(#mask18_986_17568)">
<path d="M2.61996 2.3709C2.62796 2.37289 2.63296 2.37488 2.63296 2.37488C2.63296 2.37488 2.63996 2.3699 2.64496 2.36592C2.63696 2.35697 2.63096 2.34602 2.62696 2.33408C2.61096 2.34204 2.59396 2.351 2.58496 2.36194C2.59296 2.36393 2.59896 2.36592 2.60696 2.36791C2.61196 2.36791 2.61596 2.3699 2.61996 2.3709Z" fill="#CDCCCC"/>
</g>
<mask id="mask19_986_17568" style="mask-type:luminance" maskUnits="userSpaceOnUse" x="0" y="0" width="24" height="16">
<path d="M0 16H23.999V1.90735e-06H0V16Z" fill="white"/>
</mask>
<g mask="url(#mask19_986_17568)">
<path d="M2.73028 2.62114C2.72728 2.61815 2.72428 2.61616 2.72128 2.61318L2.72028 2.64502C2.72628 2.63606 2.73128 2.62412 2.73328 2.61218L2.73028 2.61517V2.62114Z" fill="#CDCCCC"/>
</g>
<mask id="mask20_986_17568" style="mask-type:luminance" maskUnits="userSpaceOnUse" x="0" y="0" width="24" height="16">
<path d="M0 16H23.999V1.90735e-06H0V16Z" fill="white"/>
</mask>
<g mask="url(#mask20_986_17568)">
<path d="M2.51211 2.04243L2.50311 2.10413L2.55011 2.09119L2.51211 2.04243Z" fill="#CDCCCC"/>
</g>
<mask id="mask21_986_17568" style="mask-type:luminance" maskUnits="userSpaceOnUse" x="0" y="0" width="24" height="16">
<path d="M0 16H23.999V1.90735e-06H0V16Z" fill="white"/>
</mask>
<g mask="url(#mask21_986_17568)">
<path d="M3.16008 2.15329L3.10608 2.18613L3.14608 2.21399L3.16008 2.15329Z" fill="#CDCCCC"/>
</g>
<mask id="mask22_986_17568" style="mask-type:luminance" maskUnits="userSpaceOnUse" x="0" y="0" width="24" height="16">
<path d="M0 16H23.999V1.90735e-06H0V16Z" fill="white"/>
</mask>
<g mask="url(#mask22_986_17568)">
<path d="M1.98136 2.7912C2.00436 2.7922 2.02236 2.78921 2.03536 2.77926C2.04536 2.7723 2.05036 2.76235 2.05136 2.74941C2.05236 2.73647 2.04736 2.72553 2.03836 2.71657C2.02736 2.70762 2.01136 2.70165 1.98936 2.70065C1.96436 2.69966 1.94636 2.70264 1.93436 2.7116C1.92336 2.71856 1.91836 2.72951 1.91836 2.74244C1.91736 2.75538 1.92136 2.76633 1.93036 2.77329C1.94136 2.78424 1.95836 2.79021 1.98136 2.7912Z" fill="#CDCCCC"/>
</g>
<mask id="mask23_986_17568" style="mask-type:luminance" maskUnits="userSpaceOnUse" x="0" y="0" width="24" height="16">
<path d="M0 16H23.999V1.90735e-06H0V16Z" fill="white"/>
</mask>
<g mask="url(#mask23_986_17568)">
<path d="M3.119 2.89021L3.117 2.88921V2.89221L3.119 2.89021Z" fill="#CDCCCC"/>
</g>
<mask id="mask24_986_17568" style="mask-type:luminance" maskUnits="userSpaceOnUse" x="0" y="0" width="24" height="16">
<path d="M0 16H23.999V1.90735e-06H0V16Z" fill="white"/>
</mask>
<g mask="url(#mask24_986_17568)">
<path d="M2.7295 2.3903C2.7275 2.39528 2.7095 2.41418 2.7005 2.4112C2.6955 2.41518 2.6875 2.41816 2.6875 2.41816L2.7175 2.43408H2.7185V2.42513L2.7425 2.40523L2.7595 2.37538C2.7555 2.37836 2.7525 2.38035 2.7495 2.38234C2.7495 2.38433 2.7485 2.38931 2.7485 2.38931C2.7465 2.39329 2.7385 2.39329 2.7295 2.3903Z" fill="#CDCCCC"/>
</g>
<mask id="mask25_986_17568" style="mask-type:luminance" maskUnits="userSpaceOnUse" x="0" y="0" width="24" height="16">
<path d="M0 16H23.999V1.90735e-06H0V16Z" fill="white"/>
</mask>
<g mask="url(#mask25_986_17568)">
<path d="M2.52186 2.72607C2.55086 2.71612 2.58186 2.70916 2.60985 2.70319C2.58586 2.69423 2.55586 2.62359 2.55286 2.58777C2.53186 2.57085 2.52686 2.53503 2.53486 2.50518H2.53286C2.53286 2.50518 2.50986 2.53304 2.45686 2.55692C2.44086 2.57483 2.42386 2.58876 2.42386 2.58876C2.42386 2.58876 2.41286 2.61065 2.41586 2.62657C2.41886 2.64249 2.43186 2.64548 2.43386 2.64946C2.43586 2.65344 2.44086 2.66239 2.43686 2.66538C2.43286 2.66836 2.42286 2.6614 2.41786 2.6604L2.43686 2.67135L2.52186 2.72607Z" fill="#CDCCCC"/>
</g>
<mask id="mask26_986_17568" style="mask-type:luminance" maskUnits="userSpaceOnUse" x="0" y="0" width="24" height="16">
<path d="M0 16H23.999V1.90735e-06H0V16Z" fill="white"/>
</mask>
<g mask="url(#mask26_986_17568)">
<path d="M2.73569 2.57344V2.57039L2.73436 2.56938L2.73169 2.59985L2.73569 2.57344Z" fill="#CDCCCC"/>
</g>
<mask id="mask27_986_17568" style="mask-type:luminance" maskUnits="userSpaceOnUse" x="0" y="0" width="24" height="16">
<path d="M0 16H23.999V1.90735e-06H0V16Z" fill="white"/>
</mask>
<g mask="url(#mask27_986_17568)">
<path d="M2.94028 2.42235H2.93428C2.91328 2.43827 2.86829 2.44325 2.86829 2.44325C2.86829 2.44325 2.87929 2.45419 2.89329 2.46912C2.91328 2.4522 2.92928 2.43529 2.94028 2.42235Z" fill="#CDCCCC"/>
</g>
<mask id="mask28_986_17568" style="mask-type:luminance" maskUnits="userSpaceOnUse" x="0" y="0" width="24" height="16">
<path d="M0 16H23.999V1.90735e-06H0V16Z" fill="white"/>
</mask>
<g mask="url(#mask28_986_17568)">
<path d="M2.71289 2.88196C2.72489 2.90783 2.73489 2.95161 2.71389 2.97151C2.72089 2.98046 2.71289 2.99638 2.72589 2.99837C2.73689 3.00036 2.80189 2.99837 2.82489 2.98544C2.84489 2.99439 2.87388 3.02026 2.88888 3.03519C2.90888 3.03619 2.92888 3.04116 2.95088 3.0531C2.94588 3.04216 2.93288 3.02126 2.91588 3.03022C2.91188 3.00832 2.88588 3.02026 2.88588 3.02026C2.88588 3.02026 2.88488 2.98743 2.85588 2.99141C2.86488 2.95459 2.81389 2.95758 2.81389 2.95758C2.81389 2.95758 2.81189 2.91579 2.73589 2.92375C2.80789 2.89191 2.87188 2.91081 2.92188 2.94066C2.92488 2.93768 2.92988 2.93171 2.93888 2.92275C2.92888 2.91977 2.92088 2.91579 2.91688 2.91081C2.91588 2.91479 2.88988 2.9128 2.88488 2.90584C2.87888 2.89887 2.87888 2.89091 2.87988 2.88494C2.85888 2.87101 2.83989 2.85211 2.82289 2.83221C2.80389 2.84514 2.78489 2.85907 2.76289 2.86902C2.73589 2.88096 2.72089 2.88196 2.71289 2.88196Z" fill="#CDCCCC"/>
</g>
<mask id="mask29_986_17568" style="mask-type:luminance" maskUnits="userSpaceOnUse" x="0" y="0" width="24" height="16">
<path d="M0 16H23.999V1.90735e-06H0V16Z" fill="white"/>
</mask>
<g mask="url(#mask29_986_17568)">
<path d="M2.9682 3.06516C2.9722 3.06715 2.9762 3.07014 2.9802 3.07312C2.9762 3.06914 2.9722 3.06615 2.9682 3.06516Z" fill="#CDCCCC"/>
</g>
<mask id="mask30_986_17568" style="mask-type:luminance" maskUnits="userSpaceOnUse" x="0" y="0" width="24" height="16">
<path d="M0 16H23.999V1.90735e-06H0V16Z" fill="white"/>
</mask>
<g mask="url(#mask30_986_17568)">
<path d="M2.83391 3.01468C2.81592 3.01369 2.82792 3.03757 2.79892 3.02065C2.79892 3.02065 2.73392 3.04155 2.69692 3.03259C2.69692 3.03259 2.67692 3.04851 2.66192 3.03757C2.64992 3.02762 2.66692 2.98085 2.64392 2.94801C2.65092 2.96592 2.63192 3.01767 2.60992 3.02762C2.61892 3.05747 2.63992 3.0714 2.66392 3.08533C2.68592 3.05647 2.71392 3.03458 2.75992 3.05846C2.79692 3.0515 2.82592 3.04155 2.85391 3.03757C2.84591 3.03259 2.83791 3.02563 2.83391 3.01468Z" fill="#CDCCCC"/>
</g>
<mask id="mask31_986_17568" style="mask-type:luminance" maskUnits="userSpaceOnUse" x="0" y="0" width="24" height="16">
<path d="M0 16H23.999V1.90735e-06H0V16Z" fill="white"/>
</mask>
<g mask="url(#mask31_986_17568)">
<path d="M2.73471 3.10303L2.74571 3.09706C2.74471 3.09507 2.74371 3.09407 2.74271 3.09208C2.73871 3.09407 2.73471 3.09706 2.73071 3.10004L2.73371 3.10104L2.73471 3.10303Z" fill="#CDCCCC"/>
</g>
<mask id="mask32_986_17568" style="mask-type:luminance" maskUnits="userSpaceOnUse" x="0" y="0" width="24" height="16">
<path d="M0 16H23.999V1.90735e-06H0V16Z" fill="white"/>
</mask>
<g mask="url(#mask32_986_17568)">
<path d="M3.51855 2.76252C3.51655 2.76949 3.51255 2.77645 3.50755 2.78143C3.50155 2.7864 3.49455 2.78939 3.48655 2.78939C3.47755 2.79038 3.46955 2.7874 3.46355 2.78242C3.45655 2.77745 3.45155 2.76849 3.44855 2.75754L3.40955 2.78839C3.39955 2.79536 3.39355 2.80133 3.39155 2.8063C3.38855 2.81128 3.38655 2.81824 3.38655 2.82521H3.38255L3.38055 2.78839L3.44455 2.73665C3.44355 2.73267 3.44355 2.72968 3.44355 2.72769V2.72471V2.72172L3.40255 2.72371C3.39355 2.72471 3.38755 2.7257 3.38555 2.72769C3.38255 2.73068 3.38155 2.73466 3.38155 2.73963V2.7456H3.37755L3.37455 2.68491H3.37855V2.68988C3.37955 2.69585 3.38155 2.70083 3.38555 2.70282C3.38755 2.70381 3.39355 2.70481 3.40155 2.70381L3.49355 2.69983C3.50155 2.69884 3.50755 2.69784 3.50955 2.69585C3.51255 2.69287 3.51455 2.68889 3.51355 2.68292V2.67794H3.51755L3.51955 2.72869C3.52055 2.74361 3.51955 2.75555 3.51855 2.76252ZM3.49855 2.97446L3.49555 2.97347L3.49655 2.97048C3.49755 2.96849 3.49755 2.96451 3.49655 2.96153C3.49555 2.95854 3.49355 2.95655 3.49055 2.95555C3.48855 2.95555 3.48355 2.95655 3.47655 2.95854L3.42355 2.97546L3.45955 3.01327C3.46455 3.01924 3.46955 3.02222 3.47255 3.02322C3.47455 3.02421 3.47555 3.02421 3.47755 3.02322C3.47955 3.02322 3.48055 3.02123 3.48155 3.02023C3.48355 3.01824 3.48455 3.01526 3.48555 3.01227L3.48955 3.01327L3.47655 3.06103L3.47355 3.06003V3.05705C3.47455 3.05506 3.47455 3.05307 3.47355 3.04909C3.47255 3.04511 3.47155 3.04113 3.46955 3.03814C3.46655 3.03416 3.46255 3.03018 3.45755 3.02421L3.41455 2.97745L3.37955 2.96849C3.37056 2.9665 3.36556 2.96551 3.36256 2.9675C3.35956 2.96949 3.35656 2.97247 3.35556 2.97844L3.35356 2.98242L3.35056 2.98143L3.36556 2.92371L3.36955 2.92471L3.36856 2.92869C3.36655 2.93466 3.36756 2.93963 3.37055 2.94262C3.37256 2.9456 3.37655 2.94759 3.38455 2.94859L3.41655 2.95754L3.48455 2.93466C3.49255 2.93267 3.49755 2.92968 3.49955 2.92869C3.50155 2.92869 3.50455 2.9257 3.50855 2.92073C3.50955 2.91973 3.51055 2.91774 3.51055 2.91575H3.51555L3.49855 2.97446ZM3.33456 2.53665L3.33656 2.54162C3.33856 2.54759 3.34156 2.55058 3.34656 2.55157C3.34856 2.55257 3.35356 2.55157 3.36156 2.54859L3.46355 2.51277L3.45755 2.49685C3.45655 2.49088 3.45355 2.4859 3.45255 2.48391C3.44955 2.48093 3.44655 2.47894 3.44155 2.47794C3.43655 2.47595 3.43155 2.47695 3.42555 2.47794L3.42455 2.47496L3.45655 2.46501L3.49555 2.57446L3.46355 2.5864L3.46255 2.58342C3.46855 2.58043 3.47155 2.57745 3.47355 2.57645C3.47655 2.57247 3.47855 2.56949 3.47955 2.56451C3.47955 2.56053 3.47955 2.55555 3.47655 2.55058L3.47055 2.53167L3.36856 2.5675C3.35956 2.57048 3.35456 2.57347 3.35356 2.57645C3.35156 2.57944 3.35156 2.58342 3.35256 2.58939L3.35456 2.59337L3.35156 2.59536L3.33156 2.53864L3.33456 2.53665ZM3.27956 2.43814L3.27756 2.43516L3.31356 2.29187L3.24356 2.34461C3.23556 2.34958 3.23256 2.35356 3.23156 2.35655C3.23056 2.36053 3.23156 2.36451 3.23556 2.36849L3.23856 2.37247L3.23556 2.37546L3.20656 2.33565L3.20856 2.33366L3.21156 2.33764C3.21556 2.34262 3.21956 2.34461 3.22356 2.34461C3.22656 2.34461 3.23056 2.34162 3.23756 2.33665L3.31756 2.27894C3.31856 2.27197 3.31956 2.26799 3.31956 2.26501C3.31956 2.26302 3.31856 2.25904 3.31756 2.25506C3.31656 2.25307 3.31456 2.25008 3.31156 2.2471L3.31556 2.24511L3.33856 2.27595L3.30456 2.40929L3.37055 2.36053C3.37755 2.35456 3.38155 2.35058 3.38155 2.34759C3.38255 2.34461 3.38155 2.33963 3.37755 2.33565L3.37555 2.33167L3.37855 2.32869L3.40755 2.36849L3.40455 2.37148L3.40155 2.3675C3.39855 2.36252 3.39355 2.36053 3.38955 2.36053C3.38755 2.36053 3.38255 2.36252 3.37555 2.3675L3.27956 2.43814ZM3.21756 2.65207C3.19456 2.65406 3.14356 2.59834 3.07557 2.61625C3.07357 2.67695 3.00557 2.72073 3.00557 2.72073C3.00557 2.72073 3.06857 2.71078 3.10257 2.73167C3.13956 2.76252 3.19156 2.80232 3.19156 2.80232L3.23856 2.88292C3.23856 2.88292 3.19556 2.88988 3.17956 2.83416C3.16356 2.87894 3.16356 2.8063 3.09957 2.77347C3.07957 2.77546 3.07057 2.77645 3.05357 2.76351C3.00757 2.77645 2.95357 2.80332 2.88958 2.79635C2.88158 2.79834 2.87558 2.80232 2.86958 2.80431C2.87558 2.81924 2.88258 2.83317 2.88758 2.84312C2.89857 2.85307 2.93457 2.87894 2.95957 2.89983C2.99457 2.86401 3.04157 2.82123 3.06657 2.82819C3.01857 2.86899 3.00457 2.95954 3.00057 3.00431C3.00957 3.01327 3.01657 3.02123 3.02057 3.0272C3.03157 3.01725 3.04057 3.01327 3.04057 3.01327C3.04057 3.01327 2.98357 2.95954 3.02257 2.93068C3.05957 2.90282 3.09057 2.96252 3.11657 2.96551C3.14256 2.9675 3.13257 2.94262 3.13257 2.94262C3.13257 2.94262 3.11657 2.93366 3.11157 2.91675C3.10057 2.91675 3.07157 2.92172 3.07357 2.89884C3.07757 2.89983 3.08157 2.89983 3.08557 2.89983C3.06457 2.8869 3.05157 2.866 3.05157 2.866C3.05157 2.866 3.09457 2.89187 3.11057 2.8859C3.09957 2.87894 3.07857 2.86501 3.07757 2.84909C3.07757 2.8272 3.11657 2.80133 3.11657 2.80133L3.13556 2.8461L3.15656 2.84809C3.15656 2.84809 3.17456 2.87695 3.18556 2.89983C3.19656 2.89884 3.20856 2.90083 3.20856 2.90083C3.20856 2.90083 3.21056 2.90978 3.20456 2.91277C3.21156 2.91675 3.23556 2.91575 3.23556 2.91575C3.23556 2.91575 3.22556 2.92371 3.22156 2.9257C3.22956 2.9267 3.24056 2.93764 3.24056 2.93764C3.24056 2.93764 3.22056 2.94162 3.21156 2.93665C3.21756 2.94759 3.21656 2.95655 3.21656 2.95655C3.21656 2.95655 3.19756 2.95157 3.18356 2.93963C3.17556 2.96451 3.16156 2.9874 3.13856 2.99436C3.10457 3.00531 3.06657 2.94859 3.05557 2.97048C3.04257 2.99237 3.10157 3.04013 3.10157 3.07396C3.11757 3.067 3.15956 3.03416 3.15956 3.03416C3.15956 3.03416 3.16056 2.97347 3.18556 2.96849C3.18556 2.96849 3.19456 2.97247 3.19156 2.97844C3.20456 2.97645 3.21256 2.98242 3.21256 2.99138C3.22656 2.99138 3.22556 3.00829 3.22556 3.00829L3.19956 3.01327L3.18256 3.0471C3.18256 3.0471 3.15156 3.09685 3.11857 3.12172C3.12957 3.13167 3.14256 3.14063 3.15156 3.14063C3.17056 3.14162 3.17256 3.09983 3.17256 3.09983C3.17256 3.09983 3.17956 3.11774 3.18856 3.11376C3.18756 3.1257 3.20156 3.12968 3.20156 3.12968C3.20156 3.12968 3.16856 3.20232 3.07857 3.13864C3.06857 3.14859 3.04657 3.14958 3.04657 3.14958C3.04657 3.14958 3.03957 3.15754 3.02957 3.16053L3.03757 3.16352L3.12457 3.21028L3.07257 3.25207H2.3956L2.3496 3.21227L2.53159 3.22123L2.3106 3.1864L2.44259 3.18939L2.52659 3.18242L2.55459 3.15157L2.62259 3.14361C2.62859 3.13565 2.63659 3.1267 2.64359 3.11476C2.58359 3.08192 2.55159 3.09884 2.54459 3.08391C2.53559 3.06501 2.56559 3.01625 2.55659 2.98541C2.51059 2.97645 2.43759 2.93466 2.41359 2.87595C2.3706 2.90381 2.3216 2.83814 2.2926 2.85705C2.2676 2.87396 2.3386 2.90978 2.3386 2.94262C2.3386 2.97645 2.2946 2.99038 2.2946 2.99038C2.2946 2.99038 2.2986 3.01227 2.3096 3.01924H2.2996C2.2996 3.01924 2.3156 3.04909 2.3076 3.06302C2.2996 3.07595 2.2676 3.07396 2.2676 3.07396C2.2676 3.07396 2.2566 3.11177 2.2626 3.12471C2.2446 3.12272 2.2506 3.10083 2.2446 3.09386C2.2416 3.10282 2.2336 3.09585 2.2336 3.09585L2.2256 3.06799L2.2276 3.04411L2.2116 3.03317C2.2116 3.03317 2.1926 3.01327 2.2066 2.99536C2.2226 2.97745 2.2796 2.96551 2.2566 2.93466C2.2326 2.90282 2.2156 2.83814 2.2506 2.81227C2.2866 2.78541 2.3626 2.85406 2.4066 2.84212H2.4076C2.42059 2.79635 2.44559 2.7665 2.47659 2.74759L2.41559 2.69486L2.4076 2.68988C2.4016 2.68988 2.3956 2.68988 2.3956 2.6869C2.3906 2.68789 2.3806 2.68491 2.3796 2.67894C2.3756 2.67993 2.3676 2.67496 2.3676 2.66799C2.3626 2.66998 2.3596 2.66401 2.3576 2.65804C2.3576 2.65804 2.3336 2.63317 2.3386 2.6272C2.3416 2.62322 2.3556 2.6272 2.3656 2.63018C2.3686 2.6272 2.3696 2.62421 2.3696 2.62421C2.3696 2.62421 2.3706 2.6073 2.3736 2.5864C2.3186 2.61824 2.2746 2.71177 2.2056 2.63317C2.2196 2.63018 2.2256 2.62123 2.2216 2.60531C2.1906 2.61824 2.1726 2.6063 2.1876 2.56949C2.1916 2.55257 2.1856 2.49187 2.2336 2.48988C2.2156 2.47197 2.2416 2.38441 2.2976 2.4073C2.2926 2.39735 2.3136 2.34859 2.3446 2.35058C2.3456 2.34162 2.3586 2.31874 2.3876 2.31675C2.42959 2.33764 2.49159 2.3456 2.54759 2.35456C2.52359 2.3466 2.49659 2.33267 2.46159 2.33366C2.47259 2.3058 2.51459 2.30779 2.51459 2.30779C2.51459 2.30779 2.52859 2.26899 2.58459 2.29287C2.59459 2.2859 2.61059 2.2859 2.62559 2.28889C2.63459 2.25108 2.66758 2.22222 2.70858 2.22222C2.75658 2.22222 2.79558 2.26103 2.79558 2.30779C2.79558 2.31177 2.79358 2.31476 2.79258 2.31774L2.79558 2.31277C2.79558 2.31277 2.81058 2.3068 2.82258 2.31376C2.84158 2.29983 2.85858 2.29486 2.85858 2.29486C2.85858 2.29486 2.86358 2.31575 2.85558 2.32869C2.89757 2.32471 2.95657 2.34759 2.99657 2.35058C3.00757 2.37446 3.00657 2.38342 3.00457 2.39735C3.00157 2.41128 2.98557 2.40829 2.98557 2.40829C2.97857 2.41426 2.96957 2.41924 2.95857 2.42123C2.94557 2.43615 2.92557 2.45804 2.90157 2.47993C2.92657 2.51078 2.95557 2.55257 2.94657 2.57048C2.96557 2.57944 2.99457 2.62222 2.99457 2.62222C2.99457 2.62222 3.05857 2.58939 3.07957 2.55854C3.11657 2.55854 3.17656 2.59735 3.20656 2.60133C3.24356 2.63118 3.28056 2.66103 3.28056 2.66103C3.28056 2.66103 3.23656 2.68988 3.21756 2.65207ZM3.05657 3.48491C3.04357 3.49187 3.02857 3.49187 3.01657 3.48491C3.00457 3.47794 2.99657 3.46501 2.99657 3.45108C2.99657 3.43715 3.00457 3.42421 3.01657 3.41725C3.02857 3.40929 3.04357 3.40929 3.05657 3.41725C3.06857 3.42421 3.07657 3.43715 3.07657 3.45108C3.07657 3.46501 3.06857 3.47794 3.05657 3.48491ZM2.79858 3.53267H2.74558L2.74258 3.57745C2.73858 3.62222 2.69358 3.61625 2.69258 3.57446V3.53267H2.64059C2.58759 3.53267 2.58759 3.49187 2.64059 3.49187H2.69258V3.45108C2.69258 3.40929 2.74558 3.40929 2.74558 3.45108V3.49187H2.79858C2.85158 3.49187 2.85158 3.53267 2.79858 3.53267ZM2.42259 3.48491C2.4106 3.49187 2.3946 3.49187 2.3826 3.48491C2.3706 3.47794 2.3626 3.46501 2.3626 3.45108C2.3626 3.43715 2.3706 3.42421 2.3826 3.41725C2.3946 3.40929 2.4106 3.40929 2.42259 3.41725C2.43459 3.42421 2.44259 3.43715 2.44159 3.45108C2.44259 3.46501 2.43459 3.47794 2.42259 3.48491ZM2.2556 2.13665C2.2616 2.1257 2.2696 2.11675 2.2816 2.10879C2.2866 2.1058 2.2906 2.10381 2.2946 2.10182C2.2986 2.10083 2.3046 2.09884 2.3126 2.09685C2.3166 2.09685 2.3196 2.09585 2.3206 2.09486C2.3216 2.09386 2.3226 2.09287 2.3226 2.09088C2.3226 2.08988 2.3216 2.08789 2.3196 2.08391L2.3226 2.08192L2.3506 2.11774L2.3476 2.11973C2.3386 2.11277 2.3296 2.10779 2.3216 2.1068C2.3106 2.10381 2.2986 2.1068 2.2876 2.11376C2.2726 2.12371 2.2646 2.13764 2.2646 2.15456C2.2646 2.16849 2.2686 2.18242 2.2776 2.19735C2.2856 2.20829 2.2946 2.21725 2.3046 2.22322C2.3156 2.23018 2.3256 2.23317 2.3356 2.23317C2.3456 2.23317 2.3546 2.23018 2.3616 2.22521C2.3666 2.22322 2.3706 2.21924 2.3736 2.21526L2.3826 2.20332L2.3596 2.16849C2.3556 2.16252 2.3526 2.15953 2.3506 2.15754C2.3486 2.15655 2.3466 2.15556 2.3446 2.15655C2.3416 2.15655 2.3376 2.15854 2.3326 2.16153L2.3306 2.15754L2.3766 2.12769L2.3796 2.13167L2.3766 2.13267C2.3726 2.13565 2.3706 2.13963 2.3706 2.14361C2.3706 2.1466 2.3726 2.15058 2.3766 2.15754L2.4006 2.19436C2.3966 2.20232 2.3916 2.20829 2.3856 2.21526C2.3806 2.22123 2.3736 2.2262 2.3656 2.23118C2.3426 2.2461 2.3206 2.25008 2.2986 2.24312C2.2826 2.23814 2.2696 2.22819 2.2606 2.21327C2.2536 2.20332 2.2496 2.19138 2.2476 2.17844C2.2466 2.16352 2.2496 2.14958 2.2556 2.13665ZM2.48259 2.15854C2.48559 2.15456 2.48759 2.1466 2.48959 2.13565L2.50759 2.01028L2.51059 2.00929L2.58959 2.11078C2.59559 2.11874 2.60059 2.12272 2.60459 2.12471C2.60859 2.1267 2.61359 2.12769 2.61959 2.1267L2.62059 2.13068L2.56559 2.14461L2.56459 2.14063C2.56959 2.13963 2.57359 2.13764 2.57559 2.13565C2.57659 2.13267 2.57759 2.13068 2.57659 2.12869C2.57559 2.1257 2.57359 2.12172 2.56859 2.11575L2.55559 2.09884L2.50159 2.11277L2.49759 2.13665V2.14958C2.49859 2.15157 2.49959 2.15257 2.50259 2.15456C2.50459 2.15555 2.50959 2.15456 2.51659 2.15356L2.51759 2.15754L2.47359 2.16849L2.47259 2.16551C2.47759 2.16252 2.48159 2.16053 2.48259 2.15854ZM2.68158 2.12172H2.68658C2.69258 2.12172 2.69658 2.11973 2.69958 2.11675C2.70158 2.11376 2.70258 2.10879 2.70258 2.10083L2.70658 2.00929C2.70658 2.00033 2.70558 1.99536 2.70458 1.99337C2.70158 1.98939 2.69758 1.98839 2.69158 1.9874H2.68658V1.98342L2.75058 1.9864V1.99038C2.74358 1.98939 2.73858 1.99038 2.73558 1.99138C2.73158 1.99337 2.72958 1.99436 2.72858 1.99635C2.72758 1.99934 2.72658 2.00431 2.72658 2.01327L2.72358 2.10182C2.72258 2.10779 2.72358 2.11177 2.72458 2.11376C2.72558 2.11575 2.72658 2.11675 2.72758 2.11774C2.72958 2.11774 2.73458 2.11874 2.74458 2.11874L2.75458 2.11973C2.76558 2.11973 2.77258 2.11973 2.77758 2.11774C2.78258 2.11675 2.78658 2.11376 2.78958 2.10978C2.79358 2.1058 2.79758 2.09884 2.80158 2.09088L2.80558 2.09187L2.79158 2.12968L2.68158 2.1257V2.12172ZM2.86758 2.13764L2.87258 2.13963C2.87758 2.14063 2.88258 2.14063 2.88658 2.13764C2.88858 2.13665 2.89057 2.13167 2.89357 2.12371L2.92257 2.03715C2.92457 2.02819 2.92557 2.02322 2.92457 2.02023C2.92357 2.01625 2.91957 2.01426 2.91457 2.01227L2.90957 2.01028L2.91057 2.0073L2.97257 2.0272L2.97157 2.03118C2.96357 2.02819 2.95857 2.0272 2.95557 2.0272C2.95157 2.02819 2.94957 2.02919 2.94757 2.03118C2.94557 2.03317 2.94357 2.03715 2.94057 2.04511L2.91257 2.12968C2.91057 2.13565 2.91057 2.13963 2.91057 2.14162C2.91057 2.14361 2.91157 2.14461 2.91357 2.1466C2.91457 2.14759 2.91957 2.14958 2.92857 2.15257L2.93757 2.15555C2.94857 2.15953 2.95657 2.16053 2.96057 2.16053C2.96557 2.16053 2.97057 2.15953 2.97557 2.15655C2.97957 2.15356 2.98557 2.14859 2.99157 2.14063L2.99457 2.14262L2.97157 2.17546L2.86658 2.14162L2.86758 2.13764ZM3.03957 2.20232C3.04557 2.20431 3.04957 2.20531 3.05157 2.20531C3.05657 2.20431 3.06357 2.20133 3.07357 2.19536L3.18256 2.12869L3.18556 2.13068L3.15756 2.25605C3.15456 2.266 3.15456 2.27297 3.15556 2.27695C3.15656 2.28192 3.15956 2.2859 3.16356 2.28889L3.16156 2.29187L3.11557 2.26003L3.11757 2.25705C3.12257 2.26003 3.12557 2.26103 3.12857 2.26103C3.13156 2.26103 3.13356 2.26003 3.13456 2.25804C3.13656 2.25506 3.13856 2.25008 3.13956 2.24411L3.14456 2.22222L3.09957 2.19038L3.07857 2.20332C3.07357 2.2063 3.06957 2.20829 3.06857 2.21028C3.06657 2.21227 3.06657 2.21526 3.06757 2.21725C3.06857 2.22023 3.07157 2.22322 3.07657 2.2272L3.07457 2.23118L3.03857 2.20431L3.03957 2.20232ZM2.11061 2.51874L2.03161 2.54063C2.03061 2.54361 2.02961 2.5466 2.02861 2.54859C2.02861 2.54958 2.02761 2.55058 2.02761 2.55157L2.02561 2.55456L2.06461 2.56949C2.07361 2.57247 2.07861 2.57347 2.08161 2.57247C2.08561 2.57048 2.08761 2.5675 2.08961 2.56252L2.09161 2.55754L2.09561 2.55854L2.07361 2.61526L2.06961 2.61426L2.07261 2.60929C2.07461 2.60332 2.07461 2.59834 2.07161 2.59536C2.06961 2.59337 2.06461 2.59038 2.05761 2.5874L1.97161 2.55555C1.96361 2.55157 1.95761 2.55058 1.95561 2.55157C1.95161 2.55357 1.94861 2.55655 1.94661 2.56153L1.94461 2.5665L1.94061 2.56551L1.95861 2.51675C1.96461 2.50282 1.96961 2.49287 1.97461 2.4869C1.97861 2.48093 1.98461 2.47695 1.99261 2.47396C1.99961 2.47197 2.00661 2.47197 2.01461 2.47496C2.02261 2.47794 2.02861 2.48292 2.03261 2.49088C2.03661 2.49784 2.03861 2.50879 2.03661 2.52073L2.08461 2.50779C2.09561 2.50481 2.10361 2.50083 2.10861 2.49784C2.11261 2.49386 2.11761 2.48988 2.12061 2.48192L2.12361 2.48391L2.11061 2.51874ZM2.08161 2.99337V2.98939C2.07961 2.98342 2.07661 2.97944 2.07261 2.97745C2.07061 2.97645 2.06461 2.97745 2.05661 2.97944L1.96661 3.00033C1.95961 3.00232 1.95561 3.00332 1.95361 3.00531C1.95261 3.0063 1.95061 3.00829 1.95061 3.01028C1.94961 3.01327 1.94961 3.01725 1.94961 3.02023L1.95161 3.02521L1.94761 3.0262L1.92262 2.92371L1.95261 2.91476L1.95361 2.91874C1.94761 2.92172 1.94361 2.92471 1.94061 2.92769C1.93861 2.93068 1.93661 2.93466 1.93661 2.93864C1.93561 2.94162 1.93661 2.94759 1.93761 2.95456L1.94561 2.98541L1.99961 2.97148L1.99361 2.9466C1.99261 2.94162 1.99061 2.93665 1.98661 2.93466C1.98361 2.93267 1.97861 2.93267 1.97061 2.93267L1.96961 2.92968L2.01661 2.91874L2.01761 2.92272C2.01261 2.92371 2.00861 2.9257 2.00561 2.92769C2.00361 2.92869 2.00261 2.93068 2.00161 2.93366C2.00061 2.93665 2.00161 2.94063 2.00261 2.94461L2.00861 2.96949L2.05161 2.95954C2.05861 2.95754 2.06361 2.95655 2.06561 2.95456C2.06661 2.95356 2.06861 2.95157 2.06961 2.94958V2.93963L2.06761 2.93466L2.07161 2.93366L2.08561 2.99237L2.08161 2.99337ZM1.93461 2.69386C1.94861 2.68093 1.96661 2.67496 1.98761 2.67695C2.00961 2.67794 2.02661 2.68491 2.03961 2.69983C2.05361 2.71476 2.06061 2.73068 2.05861 2.75058C2.05761 2.76949 2.05061 2.78541 2.03561 2.79834C2.02061 2.81028 2.00261 2.81625 1.98061 2.81526C1.95761 2.81426 1.93961 2.80431 1.92662 2.78939C1.91462 2.77546 1.90962 2.75854 1.91062 2.74063C1.91162 2.72172 1.91962 2.7058 1.93461 2.69386ZM4.7795 2.30779H3.69554C3.69354 2.31078 3.69254 2.31476 3.68954 2.31774C3.61954 2.3874 3.45055 2.33068 3.31056 2.19237C3.17156 2.05406 3.11557 1.88491 3.18556 1.81526C3.18756 1.81327 3.19156 1.81128 3.19456 1.80929V0.730679H2.2446V1.80929L2.2536 1.81526C2.3236 1.88491 2.2676 2.05406 2.12761 2.19237C1.98861 2.33068 1.81962 2.3874 1.74962 2.31774C1.74762 2.31476 1.74562 2.31078 1.74362 2.30779H0.659668V3.25406H1.74362C1.74562 3.25108 1.74762 3.2471 1.74962 3.24411C1.81962 3.17446 1.98861 3.23118 2.12761 3.36949C2.2676 3.50879 2.3236 3.67595 2.2536 3.7456C2.2506 3.74859 2.2476 3.74958 2.2446 3.75257V4.83118H3.19456V3.75257C3.19156 3.74958 3.18756 3.74859 3.18556 3.7456C3.11557 3.67595 3.17156 3.50879 3.31056 3.36949C3.45055 3.23118 3.61954 3.17446 3.68954 3.24411C3.69154 3.2471 3.69354 3.25108 3.69554 3.25406H4.7795V2.30779Z" fill="#CDCCCC"/>
</g>
<mask id="mask33_986_17568" style="mask-type:luminance" maskUnits="userSpaceOnUse" x="0" y="0" width="24" height="16">
<path d="M0 16H23.999V1.90735e-06H0V16Z" fill="white"/>
</mask>
<g mask="url(#mask33_986_17568)">
<path d="M1.98374 2.49728C1.97674 2.50026 1.97174 2.50623 1.96774 2.51519C1.96674 2.51817 1.96575 2.52414 1.96375 2.53111L2.01974 2.552L2.02074 2.54902L2.02174 2.54603C2.02674 2.53409 2.02774 2.52315 2.02474 2.51519C2.02174 2.50623 2.01574 2.50026 2.00674 2.49728C1.99874 2.49429 1.99074 2.49429 1.98374 2.49728Z" fill="#CDCCCC"/>
</g>
<mask id="mask34_986_17568" style="mask-type:luminance" maskUnits="userSpaceOnUse" x="0" y="0" width="24" height="16">
<path d="M0 16H23.999V1.90735e-06H0V16Z" fill="white"/>
</mask>
<g mask="url(#mask34_986_17568)">
<path d="M1.72464 2.26836C1.72864 2.28329 1.73464 2.29622 1.74364 2.30816C1.74564 2.31015 1.74664 2.31413 1.74964 2.31712C1.81964 2.38677 1.98863 2.33005 2.12762 2.19174C2.26662 2.05344 2.32362 1.88528 2.25362 1.81562C2.25062 1.81264 2.24662 1.81164 2.24462 1.80965C2.23262 1.8007 2.21962 1.79473 2.20362 1.79174C2.19262 1.78876 2.17962 1.78677 2.16462 1.78776C2.15162 1.78776 2.13962 1.78975 2.12562 1.79174C2.11762 1.79373 2.10962 1.79572 2.10062 1.79771C2.02963 1.8196 1.94863 1.86836 1.87563 1.941C1.96863 1.84846 2.09962 1.83055 2.16962 1.89921C2.23962 1.96886 2.22062 2.1002 2.12762 2.19174C2.03463 2.28428 1.90363 2.30319 1.83364 2.23354C1.76464 2.16488 1.78264 2.03354 1.87563 1.941C1.80264 2.01363 1.75364 2.09423 1.73164 2.16488C1.72964 2.17284 1.72764 2.18179 1.72564 2.18975C1.72364 2.20368 1.72164 2.21662 1.72164 2.22856C1.72064 2.24349 1.72264 2.25642 1.72464 2.26836Z" fill="#D0D1D1"/>
</g>
<mask id="mask35_986_17568" style="mask-type:luminance" maskUnits="userSpaceOnUse" x="0" y="0" width="24" height="16">
<path d="M0 16H23.999V1.90735e-06H0V16Z" fill="white"/>
</mask>
<g mask="url(#mask35_986_17568)">
<path d="M2.18362 2.08085L2.15562 2.10871L1.98762 1.94154L2.01562 1.91368L2.18362 2.08085ZM1.81963 2.10871L1.84763 2.08085L1.95963 2.13657L1.90363 2.02513L1.93163 1.99726L2.04362 2.22015L1.81963 2.10871ZM1.83363 2.23408C1.90363 2.30373 2.03462 2.28483 2.12762 2.19229C2.22062 2.09975 2.23961 1.96841 2.16962 1.89975C2.10062 1.8301 1.96863 1.84901 1.87563 1.94154C1.78263 2.03408 1.76463 2.16443 1.83363 2.23408Z" fill="#96877D"/>
</g>
<mask id="mask36_986_17568" style="mask-type:luminance" maskUnits="userSpaceOnUse" x="0" y="0" width="24" height="16">
<path d="M0 16H23.999V1.90735e-06H0V16Z" fill="white"/>
</mask>
<g mask="url(#mask36_986_17568)">
<path d="M1.93151 1.99721L1.90352 2.02507L1.95951 2.13651L1.84752 2.08079L1.81952 2.10865L2.04351 2.22009L1.93151 1.99721Z" fill="#D0D1D1"/>
</g>
<mask id="mask37_986_17568" style="mask-type:luminance" maskUnits="userSpaceOnUse" x="0" y="0" width="24" height="16">
<path d="M0 16H23.999V1.90735e-06H0V16Z" fill="white"/>
</mask>
<g mask="url(#mask37_986_17568)">
<path d="M1.98761 1.94136L2.1556 2.10852L2.1836 2.08066L2.01561 1.9135L1.98761 1.94136Z" fill="#D0D1D1"/>
</g>
<mask id="mask38_986_17568" style="mask-type:luminance" maskUnits="userSpaceOnUse" x="0" y="0" width="24" height="16">
<path d="M0 16H23.999V1.90735e-06H0V16Z" fill="white"/>
</mask>
<g mask="url(#mask38_986_17568)">
<path d="M3.60478 2.23378C3.53578 2.30343 3.40379 2.28453 3.31079 2.19199C3.44979 2.3303 3.61978 2.38701 3.68878 2.31736C3.69178 2.31438 3.69278 2.3104 3.69577 2.30741C3.70477 2.29647 3.70977 2.28254 3.71377 2.26861C3.71677 2.25567 3.71777 2.24273 3.71777 2.2288C3.71677 2.21587 3.71577 2.20293 3.71277 2.19C3.71077 2.18104 3.70877 2.17209 3.70677 2.16413C3.68578 2.09348 3.63578 2.01388 3.56278 1.94124C3.65578 2.03378 3.67478 2.16413 3.60478 2.23378Z" fill="#D0D1D1"/>
</g>
<mask id="mask39_986_17568" style="mask-type:luminance" maskUnits="userSpaceOnUse" x="0" y="0" width="24" height="16">
<path d="M0 16H23.999V1.90735e-06H0V16Z" fill="white"/>
</mask>
<g mask="url(#mask39_986_17568)">
<path d="M3.23435 1.79127C3.21935 1.79425 3.20635 1.80022 3.19435 1.80918C3.19235 1.81216 3.18835 1.81316 3.18535 1.81515C3.11535 1.8848 3.17235 2.05395 3.31134 2.19226C3.21735 2.09972 3.19935 1.96838 3.26935 1.89972C3.33834 1.83007 3.47034 1.84898 3.56333 1.94151C3.48934 1.86888 3.40834 1.81913 3.33834 1.79823C3.32934 1.79525 3.32134 1.79326 3.31334 1.79226C3.29935 1.78928 3.28635 1.78828 3.27435 1.78729C3.25935 1.78729 3.24635 1.78828 3.23435 1.79127Z" fill="#D0D1D1"/>
</g>
<mask id="mask40_986_17568" style="mask-type:luminance" maskUnits="userSpaceOnUse" x="0" y="0" width="24" height="16">
<path d="M0 16H23.999V1.90735e-06H0V16Z" fill="white"/>
</mask>
<g mask="url(#mask40_986_17568)">
<path d="M3.39481 2.21978L3.5628 2.05262L3.5908 2.08048L3.42281 2.24764L3.39481 2.21978ZM3.28281 2.10834L3.39481 1.88546L3.42281 1.91332L3.36681 2.02476L3.47881 1.96904L3.5068 1.9969L3.28281 2.10834ZM3.6048 2.23371C3.6748 2.16406 3.6558 2.03371 3.5628 1.94118C3.46981 1.84864 3.33781 1.82973 3.26881 1.89939C3.19882 1.96904 3.21782 2.09939 3.31081 2.19192C3.40381 2.28446 3.5358 2.30337 3.6048 2.23371Z" fill="#96877D"/>
</g>
<mask id="mask41_986_17568" style="mask-type:luminance" maskUnits="userSpaceOnUse" x="0" y="0" width="24" height="16">
<path d="M0 16H23.999V1.90735e-06H0V16Z" fill="white"/>
</mask>
<g mask="url(#mask41_986_17568)">
<path d="M3.50652 1.9972L3.47852 1.96934L3.36653 2.02506L3.42253 1.91362L3.39453 1.88576L3.28253 2.10864L3.50652 1.9972Z" fill="#D0D1D1"/>
</g>
<mask id="mask42_986_17568" style="mask-type:luminance" maskUnits="userSpaceOnUse" x="0" y="0" width="24" height="16">
<path d="M0 16H23.999V1.90735e-06H0V16Z" fill="white"/>
</mask>
<g mask="url(#mask42_986_17568)">
<path d="M3.59119 2.08076L3.5632 2.0529L3.3952 2.22006L3.4232 2.24792L3.59119 2.08076Z" fill="#D0D1D1"/>
</g>
<mask id="mask43_986_17568" style="mask-type:luminance" maskUnits="userSpaceOnUse" x="0" y="0" width="24" height="16">
<path d="M0 16H23.999V1.90735e-06H0V16Z" fill="white"/>
</mask>
<g mask="url(#mask43_986_17568)">
<path d="M3.26886 3.66235C3.19886 3.59269 3.21786 3.46235 3.31086 3.36981C3.17186 3.50812 3.11486 3.67628 3.18486 3.74593C3.18786 3.74891 3.19186 3.74991 3.19486 3.7519C3.20586 3.76085 3.21886 3.76682 3.23386 3.76981C3.24686 3.77279 3.25986 3.77478 3.27386 3.77379C3.28686 3.77379 3.29986 3.7718 3.31286 3.76881C3.32186 3.76782 3.32986 3.76583 3.33786 3.76384C3.40885 3.74294 3.48985 3.69319 3.56285 3.62056C3.46985 3.71309 3.33786 3.731 3.26886 3.66235Z" fill="#D0D1D1"/>
</g>
<mask id="mask44_986_17568" style="mask-type:luminance" maskUnits="userSpaceOnUse" x="0" y="0" width="24" height="16">
<path d="M0 16H23.999V1.90735e-06H0V16Z" fill="white"/>
</mask>
<g mask="url(#mask44_986_17568)">
<path d="M3.71777 3.33229C3.71777 3.31836 3.71677 3.30543 3.71377 3.29249C3.71077 3.27856 3.70477 3.26463 3.69577 3.25369C3.69378 3.2507 3.69178 3.24672 3.68978 3.24374C3.61978 3.17408 3.44979 3.2308 3.31079 3.36911C3.40379 3.27657 3.53578 3.25866 3.60478 3.32732C3.67478 3.39697 3.65578 3.52732 3.56378 3.62085C3.63578 3.54821 3.68578 3.46762 3.70677 3.39697C3.70977 3.38901 3.71077 3.38005 3.71277 3.37209C3.71577 3.35816 3.71777 3.34523 3.71777 3.33229Z" fill="#D0D1D1"/>
</g>
<mask id="mask45_986_17568" style="mask-type:luminance" maskUnits="userSpaceOnUse" x="0" y="0" width="24" height="16">
<path d="M0 16H23.999V1.90735e-06H0V16Z" fill="white"/>
</mask>
<g mask="url(#mask45_986_17568)">
<path d="M3.45111 3.62045L3.42311 3.64831L3.25512 3.48115L3.28312 3.45329L3.45111 3.62045ZM3.6191 3.45329L3.59111 3.48115L3.47911 3.42543L3.53511 3.53687L3.50711 3.56473L3.39511 3.34184L3.6191 3.45329ZM3.26912 3.66224C3.33812 3.7309 3.47011 3.71299 3.56311 3.62045C3.6561 3.52791 3.6751 3.39657 3.6051 3.32791C3.53511 3.25826 3.40411 3.27717 3.31112 3.3697C3.21812 3.46224 3.19912 3.59259 3.26912 3.66224Z" fill="#96877D"/>
</g>
<mask id="mask46_986_17568" style="mask-type:luminance" maskUnits="userSpaceOnUse" x="0" y="0" width="24" height="16">
<path d="M0 16H23.999V1.90735e-06H0V16Z" fill="white"/>
</mask>
<g mask="url(#mask46_986_17568)">
<path d="M3.50671 3.56458L3.53471 3.53671L3.47871 3.42527L3.59071 3.48099L3.61871 3.45313L3.39471 3.34169L3.50671 3.56458Z" fill="#D0D1D1"/>
</g>
<mask id="mask47_986_17568" style="mask-type:luminance" maskUnits="userSpaceOnUse" x="0" y="0" width="24" height="16">
<path d="M0 16H23.999V1.90735e-06H0V16Z" fill="white"/>
</mask>
<g mask="url(#mask47_986_17568)">
<path d="M3.42281 3.64819L3.45081 3.62033L3.28282 3.45317L3.25482 3.48103L3.42281 3.64819Z" fill="#D0D1D1"/>
</g>
<mask id="mask48_986_17568" style="mask-type:luminance" maskUnits="userSpaceOnUse" x="0" y="0" width="24" height="16">
<path d="M0 16H23.999V1.90735e-06H0V16Z" fill="white"/>
</mask>
<g mask="url(#mask48_986_17568)">
<path d="M1.83339 3.32758C1.90339 3.25892 2.03438 3.27683 2.12738 3.36937C1.98839 3.23106 1.81939 3.17435 1.7494 3.244C1.7474 3.24698 1.7454 3.25096 1.7434 3.25395C1.7344 3.26489 1.7284 3.27882 1.7244 3.29275C1.7224 3.30569 1.7204 3.31862 1.7214 3.33256C1.7214 3.34549 1.7234 3.35843 1.7264 3.37236C1.7274 3.38032 1.7294 3.38828 1.7314 3.39723C1.7534 3.46788 1.80239 3.54848 1.87539 3.62012C1.78239 3.52758 1.76439 3.39723 1.83339 3.32758Z" fill="#D0D1D1"/>
</g>
<mask id="mask49_986_17568" style="mask-type:luminance" maskUnits="userSpaceOnUse" x="0" y="0" width="24" height="16">
<path d="M0 16H23.999V1.90735e-06H0V16Z" fill="white"/>
</mask>
<g mask="url(#mask49_986_17568)">
<path d="M2.20396 3.77019C2.21896 3.7672 2.23296 3.76123 2.24396 3.75228C2.24696 3.74929 2.25096 3.74929 2.25396 3.74631C2.32296 3.67666 2.26696 3.5085 2.12797 3.36919C2.22096 3.46173 2.23896 3.59308 2.16896 3.66273C2.09997 3.73138 1.96897 3.71248 1.87598 3.62094C1.94897 3.69258 2.02997 3.74233 2.09997 3.76322C2.10897 3.76621 2.11697 3.7682 2.12497 3.77019C2.13897 3.77218 2.15197 3.77317 2.16396 3.77417C2.17896 3.77417 2.19196 3.77317 2.20396 3.77019Z" fill="#D0D1D1"/>
</g>
<mask id="mask50_986_17568" style="mask-type:luminance" maskUnits="userSpaceOnUse" x="0" y="0" width="24" height="16">
<path d="M0 16H23.999V1.90735e-06H0V16Z" fill="white"/>
</mask>
<g mask="url(#mask50_986_17568)">
<path d="M2.04331 3.34154L1.87632 3.5087L1.84732 3.48084L2.01531 3.31368L2.04331 3.34154ZM2.15531 3.45298L2.04331 3.67587L2.01531 3.64801L2.07131 3.53656L1.95931 3.59228L1.93132 3.56442L2.15531 3.45298ZM1.83332 3.32761C1.76432 3.39726 1.78232 3.52761 1.87632 3.62015C1.96831 3.71268 2.10031 3.73159 2.16931 3.66194C2.2393 3.59228 2.2203 3.46194 2.12731 3.3694C2.03431 3.27686 1.90332 3.25895 1.83332 3.32761Z" fill="#96877D"/>
</g>
<mask id="mask51_986_17568" style="mask-type:luminance" maskUnits="userSpaceOnUse" x="0" y="0" width="24" height="16">
<path d="M0 16H23.999V1.90735e-06H0V16Z" fill="white"/>
</mask>
<g mask="url(#mask51_986_17568)">
<path d="M1.93146 3.56458L1.95946 3.59244L2.07145 3.53672L2.01545 3.64816L2.04345 3.67603L2.15545 3.45314L1.93146 3.56458Z" fill="#D0D1D1"/>
</g>
<mask id="mask52_986_17568" style="mask-type:luminance" maskUnits="userSpaceOnUse" x="0" y="0" width="24" height="16">
<path d="M0 16H23.999V1.90735e-06H0V16Z" fill="white"/>
</mask>
<g mask="url(#mask52_986_17568)">
<path d="M1.84753 3.48105L1.87553 3.50891L2.04353 3.34175L2.01553 3.31389L1.84753 3.48105Z" fill="#D0D1D1"/>
</g>
<mask id="mask53_986_17568" style="mask-type:luminance" maskUnits="userSpaceOnUse" x="0" y="0" width="24" height="16">
<path d="M0 16H23.999V1.90735e-06H0V16Z" fill="white"/>
</mask>
<g mask="url(#mask53_986_17568)">
<path d="M2.42224 3.41697C2.41024 3.41 2.39524 3.41 2.38224 3.41697C2.37024 3.42393 2.36224 3.43687 2.36224 3.4508C2.36224 3.46473 2.37024 3.47866 2.38224 3.48463C2.39524 3.49259 2.41024 3.49259 2.42224 3.48463C2.43424 3.47866 2.44224 3.46473 2.44224 3.4508C2.44224 3.43687 2.43424 3.42393 2.42224 3.41697Z" fill="#010101"/>
</g>
<mask id="mask54_986_17568" style="mask-type:luminance" maskUnits="userSpaceOnUse" x="0" y="0" width="24" height="16">
<path d="M0 16H23.999V1.90735e-06H0V16Z" fill="white"/>
</mask>
<g mask="url(#mask54_986_17568)">
<path d="M3.05621 3.41697C3.04421 3.41 3.02921 3.41 3.01621 3.41697C3.00422 3.42393 2.99622 3.43687 2.99622 3.4508C2.99622 3.46473 3.00422 3.47866 3.01621 3.48463C3.02921 3.49259 3.04421 3.49259 3.05621 3.48463C3.06821 3.47866 3.07621 3.46473 3.07621 3.4508C3.07621 3.43687 3.06821 3.42393 3.05621 3.41697Z" fill="#010101"/>
</g>
<mask id="mask55_986_17568" style="mask-type:luminance" maskUnits="userSpaceOnUse" x="0" y="0" width="24" height="16">
<path d="M0 16H23.999V1.90735e-06H0V16Z" fill="white"/>
</mask>
<g mask="url(#mask55_986_17568)">
<path d="M2.79876 3.49177H2.74576V3.45097C2.74576 3.40918 2.69277 3.40918 2.69277 3.45097V3.49177H2.63977C2.58777 3.49177 2.58777 3.53356 2.63977 3.53356H2.69277V3.57436C2.69377 3.61615 2.73876 3.62212 2.74276 3.57734L2.74576 3.53356H2.79876C2.85176 3.53356 2.85176 3.49177 2.79876 3.49177Z" fill="#010101"/>
</g>
<mask id="mask56_986_17568" style="mask-type:luminance" maskUnits="userSpaceOnUse" x="0" y="0" width="24" height="16">
<path d="M0 16H23.999V1.90735e-06H0V16Z" fill="white"/>
</mask>
<g mask="url(#mask56_986_17568)">
<path d="M3.18286 2.93926C3.19686 2.9512 3.21686 2.95618 3.21686 2.95618C3.21686 2.95618 3.21686 2.94722 3.21186 2.93628C3.21986 2.94125 3.24086 2.93827 3.24086 2.93827C3.24086 2.93827 3.22986 2.92633 3.22086 2.92533C3.22486 2.92334 3.23486 2.91638 3.23486 2.91638C3.23486 2.91638 3.21086 2.91737 3.20386 2.91339C3.20986 2.91041 3.20786 2.90046 3.20786 2.90046C3.20786 2.90046 3.19686 2.89847 3.18486 2.89946C3.18586 2.90245 3.18786 2.90543 3.18886 2.90742C3.18786 2.91837 3.18586 2.92832 3.18286 2.93926Z" fill="#96877D"/>
</g>
<mask id="mask57_986_17568" style="mask-type:luminance" maskUnits="userSpaceOnUse" x="0" y="0" width="24" height="16">
<path d="M0 16H23.999V1.90735e-06H0V16Z" fill="white"/>
</mask>
<g mask="url(#mask57_986_17568)">
<path d="M3.11663 2.89222V2.88923C3.11663 2.88923 3.11463 2.88824 3.11063 2.88625C3.09463 2.89222 3.05164 2.86635 3.05164 2.86635C3.05164 2.86635 3.06464 2.88625 3.08563 2.89918C3.09963 2.90018 3.11263 2.89421 3.11663 2.89222Z" fill="#96877D"/>
</g>
<mask id="mask58_986_17568" style="mask-type:luminance" maskUnits="userSpaceOnUse" x="0" y="0" width="24" height="16">
<path d="M0 16H23.999V1.90735e-06H0V16Z" fill="white"/>
</mask>
<g mask="url(#mask58_986_17568)">
<path d="M2.85299 3.15169C2.84699 3.14671 2.84099 3.14174 2.83699 3.13676C2.82799 3.14771 2.81699 3.15467 2.82199 3.15865C2.82699 3.16164 2.83999 3.15766 2.85299 3.15169Z" fill="#96877D"/>
</g>
<mask id="mask59_986_17568" style="mask-type:luminance" maskUnits="userSpaceOnUse" x="0" y="0" width="24" height="16">
<path d="M0 16H23.999V1.90735e-06H0V16Z" fill="white"/>
</mask>
<g mask="url(#mask59_986_17568)">
<path d="M3.01858 3.16141C3.01358 3.17235 2.98858 3.16738 2.98858 3.16738C2.98858 3.16738 2.96658 3.18131 2.94858 3.16638C2.92758 3.17733 2.90858 3.17832 2.89258 3.17335H2.88658C2.88958 3.17832 2.88758 3.18628 2.88758 3.18628C2.88758 3.18628 2.86858 3.18429 2.85959 3.16539C2.84659 3.17733 2.80459 3.1823 2.80459 3.1823C2.80459 3.1823 2.77759 3.19126 2.77259 3.18827C2.76759 3.18429 2.78459 3.16937 2.78459 3.16937L2.79159 3.13952C2.77659 3.14051 2.75959 3.13156 2.74559 3.09772L2.73459 3.1027C2.75359 3.1216 2.77259 3.16738 2.77259 3.16738C2.77259 3.16738 2.73259 3.17036 2.72059 3.16539C2.70759 3.16041 2.70659 3.14648 2.69159 3.15046C2.68559 3.14449 2.68059 3.14051 2.67459 3.13653C2.65559 3.14748 2.63659 3.15544 2.6146 3.15146C2.6166 3.14947 2.6196 3.14648 2.62259 3.1435L2.5546 3.15146L2.5266 3.1823L2.4426 3.18927L2.31061 3.18628L2.5316 3.22111L2.34961 3.21215L2.3956 3.25195H3.07258L3.12457 3.21016L3.03758 3.1634L3.02958 3.16141C3.02558 3.1624 3.02258 3.1624 3.01858 3.16141Z" fill="#96877D"/>
</g>
<mask id="mask60_986_17568" style="mask-type:luminance" maskUnits="userSpaceOnUse" x="0" y="0" width="24" height="16">
<path d="M0 16H23.999V1.90735e-06H0V16Z" fill="white"/>
</mask>
<g mask="url(#mask60_986_17568)">
<path d="M3.01605 3.08273C3.01605 3.08273 3.00305 3.09169 2.98705 3.08273C2.98505 3.07875 2.98305 3.07577 2.98005 3.07378C2.97605 3.0698 2.97205 3.06781 2.96805 3.06482C2.96105 3.06184 2.95405 3.06184 2.95405 3.06184C2.95405 3.06184 2.95405 3.05786 2.95105 3.05388C2.92905 3.04094 2.90905 3.03597 2.88905 3.03497C2.89605 3.04094 2.90105 3.04691 2.90105 3.04691C2.90105 3.04691 2.87405 3.0499 2.85405 3.03796C2.82606 3.04194 2.79706 3.05089 2.76006 3.05885C2.71406 3.03398 2.68606 3.05587 2.66406 3.08472C2.67106 3.0887 2.67806 3.09268 2.68506 3.09766C2.68506 3.09766 2.71206 3.08572 2.73106 3.09965C2.73506 3.09766 2.73906 3.09467 2.74306 3.09169C2.74406 3.09467 2.74506 3.09567 2.74506 3.09766C2.76006 3.13149 2.77706 3.14044 2.79106 3.13945L2.79806 3.11457L2.84605 3.10462C2.85105 3.11756 2.84505 3.12751 2.83706 3.13646C2.84106 3.14144 2.84705 3.14641 2.85305 3.15139C2.86505 3.14542 2.87605 3.13845 2.88405 3.13049C2.90405 3.1295 2.89805 3.13945 2.89705 3.15039C2.90905 3.15636 2.90405 3.17129 2.90405 3.17129C2.90405 3.17129 2.89805 3.17328 2.89205 3.17328C2.90905 3.17825 2.92705 3.17726 2.94805 3.16631C2.96705 3.18124 2.98805 3.16731 2.98805 3.16731C2.98805 3.16731 3.01305 3.17228 3.01805 3.16134C3.02205 3.16233 3.02605 3.16233 3.02905 3.16134C3.03905 3.15835 3.04705 3.1494 3.04705 3.1494C3.04705 3.1494 3.06905 3.1484 3.07805 3.13845C3.07505 3.13646 3.07305 3.13547 3.07005 3.13348L3.09404 3.09865C3.09404 3.09865 3.10504 3.11059 3.11804 3.12253C3.15104 3.09766 3.18304 3.04691 3.18304 3.04691L3.20004 3.01308L3.22504 3.0081C3.22504 3.0081 3.22704 2.99119 3.21304 2.99218C3.21304 2.98223 3.20404 2.97726 3.19104 2.97925C3.19404 2.97228 3.18504 2.9683 3.18504 2.9683C3.16104 2.97427 3.15904 3.03497 3.15904 3.03497C3.15904 3.03497 3.11704 3.06681 3.10204 3.07477C3.10104 3.03995 3.04305 2.99318 3.05505 2.97029C3.06705 2.9484 3.10504 3.00512 3.13804 2.99517C3.16104 2.98721 3.17604 2.96432 3.18304 2.93945C3.18604 2.9285 3.18804 2.91756 3.18904 2.90761C3.18804 2.90562 3.18604 2.90263 3.18504 2.89965C3.17504 2.87676 3.15704 2.84791 3.15704 2.84791L3.13604 2.84691L3.11704 2.80114C3.11704 2.80114 3.07705 2.82701 3.07805 2.8489C3.07805 2.86482 3.09904 2.87875 3.11104 2.88572C3.11404 2.88771 3.11704 2.8897 3.11704 2.8897L3.11904 2.89069L3.11704 2.89268C3.11204 2.89467 3.10004 2.89965 3.08604 2.89965C3.08205 2.89965 3.07805 2.89965 3.07405 2.89865C3.07205 2.92154 3.10004 2.91656 3.11104 2.91656C3.11704 2.93348 3.13304 2.94243 3.13304 2.94243C3.13304 2.94243 3.14204 2.96731 3.11704 2.96532C3.09004 2.96233 3.05905 2.90263 3.02305 2.93049C2.98405 2.95935 3.04005 3.01308 3.04005 3.01308C3.04005 3.01308 3.03205 3.01805 3.02105 3.02701C3.02605 3.03398 3.03005 3.03895 3.03005 3.03895L3.01605 3.08273Z" fill="#96877D"/>
</g>
<mask id="mask61_986_17568" style="mask-type:luminance" maskUnits="userSpaceOnUse" x="0" y="0" width="24" height="16">
<path d="M0 16H23.999V1.90735e-06H0V16Z" fill="white"/>
</mask>
<g mask="url(#mask61_986_17568)">
<path d="M2.67426 3.13662C2.66326 3.12767 2.65326 3.1207 2.64326 3.11573C2.63626 3.12667 2.62926 3.13662 2.62226 3.14359L2.61426 3.15155C2.63626 3.15553 2.65526 3.14757 2.67426 3.13662Z" fill="#96877D"/>
</g>
<mask id="mask62_986_17568" style="mask-type:luminance" maskUnits="userSpaceOnUse" x="0" y="0" width="24" height="16">
<path d="M0 16H23.999V1.90735e-06H0V16Z" fill="white"/>
</mask>
<g mask="url(#mask62_986_17568)">
<path d="M2.72545 2.99866C2.71245 2.99667 2.72045 2.98075 2.71445 2.97179C2.73545 2.95189 2.72445 2.90811 2.71245 2.88224C2.70545 2.88125 2.70245 2.88025 2.70245 2.88025L2.66446 2.88125C2.65946 2.90413 2.66246 2.93796 2.64246 2.94393L2.64346 2.94791C2.66746 2.98075 2.64946 3.02752 2.66246 3.03747C2.67645 3.04841 2.69745 3.03249 2.69745 3.03249C2.73345 3.04145 2.79945 3.02055 2.79945 3.02055C2.82745 3.03747 2.81645 3.01359 2.83345 3.01458C2.83845 3.02553 2.84545 3.03249 2.85345 3.03747C2.87445 3.04941 2.90045 3.04642 2.90045 3.04642L2.88945 3.03548C2.87345 3.02055 2.84445 2.99468 2.82445 2.98572C2.80245 2.99866 2.73645 3.00065 2.72545 2.99866Z" fill="#96877D"/>
</g>
<mask id="mask63_986_17568" style="mask-type:luminance" maskUnits="userSpaceOnUse" x="0" y="0" width="24" height="16">
<path d="M0 16H23.999V1.90735e-06H0V16Z" fill="white"/>
</mask>
<g mask="url(#mask63_986_17568)">
<path d="M2.40713 2.84217C2.36313 2.85411 2.28613 2.78545 2.25113 2.81232C2.21613 2.83819 2.23213 2.90287 2.25613 2.93471C2.27913 2.96555 2.22213 2.97749 2.20614 2.9954C2.19214 3.01331 2.21113 3.03321 2.21113 3.03321L2.22713 3.04416L2.22513 3.06804L2.23313 3.0959C2.23313 3.0959 2.24113 3.10287 2.24413 3.09391C2.25113 3.10088 2.24413 3.12277 2.26213 3.12476C2.25613 3.11182 2.26713 3.07401 2.26713 3.07401C2.26713 3.07401 2.29913 3.076 2.30713 3.06306C2.31513 3.04913 2.30013 3.01928 2.30013 3.01928H2.30913C2.29813 3.01232 2.29513 2.98943 2.29513 2.98943C2.29513 2.98943 2.33913 2.9765 2.33913 2.94267C2.33813 2.90983 2.26713 2.87401 2.29313 2.85709C2.32113 2.83819 2.37013 2.90386 2.41313 2.876C2.40913 2.86704 2.40613 2.85809 2.40513 2.84814C2.40613 2.84515 2.40713 2.84416 2.40713 2.84217Z" fill="#96877D"/>
</g>
<mask id="mask64_986_17568" style="mask-type:luminance" maskUnits="userSpaceOnUse" x="0" y="0" width="24" height="16">
<path d="M0 16H23.999V1.90735e-06H0V16Z" fill="white"/>
</mask>
<g mask="url(#mask64_986_17568)">
<path d="M2.41831 2.50551C2.44431 2.46372 2.46031 2.45377 2.47231 2.45576C2.47631 2.44084 2.49831 2.42293 2.51231 2.42193C2.51431 2.40402 2.54131 2.39009 2.56831 2.37915C2.57731 2.37318 2.59231 2.3682 2.6073 2.3682C2.59931 2.36621 2.59331 2.36323 2.58531 2.36223C2.57331 2.36323 2.56031 2.36024 2.54731 2.35527C2.49131 2.34532 2.42931 2.33735 2.38731 2.31646C2.35832 2.31845 2.34532 2.34134 2.34432 2.35029C2.31332 2.3493 2.29332 2.39706 2.29732 2.40701C2.24132 2.38412 2.21532 2.47168 2.23332 2.48959C2.18632 2.49158 2.19132 2.55228 2.18732 2.5692C2.17232 2.60601 2.19032 2.61795 2.22132 2.60502C2.22532 2.62094 2.21932 2.62989 2.20532 2.63288C2.27432 2.71248 2.31832 2.61895 2.37431 2.58711C2.37931 2.55626 2.39131 2.51745 2.41831 2.50551Z" fill="#96877D"/>
</g>
<mask id="mask65_986_17568" style="mask-type:luminance" maskUnits="userSpaceOnUse" x="0" y="0" width="24" height="16">
<path d="M0 16H23.999V1.90735e-06H0V16Z" fill="white"/>
</mask>
<g mask="url(#mask65_986_17568)">
<path d="M2.53305 2.50551H2.53405C2.53705 2.49357 2.54205 2.48362 2.54905 2.47466C2.53805 2.4866 2.51705 2.52044 2.48005 2.51645C2.47705 2.53039 2.46705 2.54432 2.45605 2.55725C2.51005 2.53238 2.53305 2.50551 2.53305 2.50551Z" fill="#96877D"/>
</g>
<mask id="mask66_986_17568" style="mask-type:luminance" maskUnits="userSpaceOnUse" x="0" y="0" width="24" height="16">
<path d="M0 16H23.999V1.90735e-06H0V16Z" fill="white"/>
</mask>
<g mask="url(#mask66_986_17568)">
<path d="M2.6512 2.36124C2.6552 2.35726 2.6552 2.3483 2.6512 2.33238C2.6512 2.33238 2.6512 2.32641 2.6532 2.32044C2.6452 2.32541 2.6362 2.3294 2.6272 2.33437C2.6312 2.34631 2.6372 2.35726 2.6452 2.36621C2.6482 2.36422 2.6512 2.36124 2.6512 2.36124Z" fill="#96877D"/>
</g>
<mask id="mask67_986_17568" style="mask-type:luminance" maskUnits="userSpaceOnUse" x="0" y="0" width="24" height="16">
<path d="M0 16H23.999V1.90735e-06H0V16Z" fill="white"/>
</mask>
<g mask="url(#mask67_986_17568)">
<path d="M2.67516 2.28593C2.67716 2.28394 2.68016 2.28294 2.68316 2.28195C2.68816 2.27896 2.69516 2.27697 2.70116 2.27598C2.70216 2.27598 2.70316 2.27498 2.70516 2.27498L2.70616 2.27598C2.70716 2.27598 2.70816 2.27498 2.70916 2.27498C2.71916 2.27697 2.72716 2.27996 2.73416 2.28394C2.73516 2.28493 2.73516 2.28493 2.73616 2.28493C2.75815 2.29787 2.76515 2.32075 2.76415 2.3307V2.33469C2.76315 2.34265 2.76015 2.35061 2.75415 2.35658C2.75215 2.36454 2.75015 2.37548 2.74915 2.38245C2.75315 2.38046 2.75615 2.37847 2.75915 2.37548L2.79315 2.31777C2.79315 2.31478 2.79515 2.3118 2.79515 2.30782C2.79515 2.26105 2.75615 2.22225 2.70816 2.22225C2.66716 2.22225 2.63416 2.2511 2.62616 2.28891C2.64416 2.29289 2.66116 2.29986 2.66116 2.29986C2.66116 2.29986 2.66616 2.29289 2.67516 2.28593Z" fill="#96877D"/>
</g>
<mask id="mask68_986_17568" style="mask-type:luminance" maskUnits="userSpaceOnUse" x="0" y="0" width="24" height="16">
<path d="M0 16H23.999V1.90735e-06H0V16Z" fill="white"/>
</mask>
<g mask="url(#mask68_986_17568)">
<path d="M2.75271 2.4408V2.44279C2.73371 2.49254 2.74971 2.51941 2.74971 2.51941C2.74971 2.51941 2.75371 2.53633 2.75671 2.55225C2.8137 2.53135 2.8587 2.49951 2.8927 2.46966C2.8787 2.45374 2.8687 2.44279 2.8687 2.44279C2.8687 2.44279 2.9127 2.43881 2.9347 2.42289C2.9367 2.42289 2.9377 2.4219 2.9397 2.4219C2.9527 2.40797 2.9597 2.39901 2.9597 2.39901H2.9757C2.9757 2.39901 2.9687 2.40797 2.9587 2.4209C2.9697 2.41891 2.9787 2.41394 2.9847 2.40797C2.9847 2.40797 3.0017 2.41195 3.0037 2.39702C3.0067 2.38309 3.0077 2.37414 2.9957 2.35026C2.9557 2.34827 2.8977 2.32439 2.8557 2.32936C2.8637 2.31543 2.8577 2.29453 2.8577 2.29453C2.8577 2.29453 2.8407 2.29951 2.8217 2.31344C2.8237 2.31444 2.8267 2.31643 2.8267 2.31643C2.8157 2.34827 2.77271 2.39006 2.75271 2.4408Z" fill="#96877D"/>
</g>
<mask id="mask69_986_17568" style="mask-type:luminance" maskUnits="userSpaceOnUse" x="0" y="0" width="24" height="16">
<path d="M0 16H23.999V1.90735e-06H0V16Z" fill="white"/>
</mask>
<g mask="url(#mask69_986_17568)">
<path d="M3.07899 2.5584C3.05799 2.58925 2.995 2.62208 2.995 2.62208C2.995 2.62208 2.966 2.5793 2.947 2.57034C2.955 2.55243 2.926 2.51064 2.901 2.47979C2.864 2.51263 2.815 2.54646 2.75901 2.56238C2.76001 2.56835 2.76001 2.57333 2.76001 2.57631C2.75701 2.58726 2.74201 2.60417 2.73401 2.61213C2.73101 2.62407 2.72601 2.63601 2.72101 2.64497C2.72101 2.64497 2.79201 2.64397 2.834 2.69273C2.839 2.72954 2.854 2.77134 2.869 2.80517C2.876 2.80218 2.882 2.7982 2.889 2.79621C2.954 2.80318 3.008 2.77631 3.05399 2.76437C3.06999 2.77631 3.07899 2.77532 3.09899 2.77333C3.16299 2.80716 3.16299 2.8788 3.17999 2.83402C3.19599 2.88974 3.23899 2.88278 3.23899 2.88278L3.19099 2.80218C3.19099 2.80218 3.13899 2.76238 3.10299 2.73153C3.06899 2.71064 3.005 2.72059 3.005 2.72059C3.005 2.72059 3.07299 2.67681 3.07499 2.61611C3.14399 2.5992 3.19399 2.65392 3.21699 2.65193C3.23599 2.68974 3.27999 2.66188 3.27999 2.66188C3.27999 2.66188 3.24299 2.63104 3.20599 2.60119C3.17599 2.59721 3.11599 2.5584 3.07899 2.5584Z" fill="#96877D"/>
</g>
<mask id="mask70_986_17568" style="mask-type:luminance" maskUnits="userSpaceOnUse" x="0" y="0" width="24" height="16">
<path d="M0 16H23.999V1.90735e-06H0V16Z" fill="white"/>
</mask>
<g mask="url(#mask70_986_17568)">
<path d="M2.6742 3.1366C2.6802 3.14058 2.6852 3.14456 2.6922 3.15053C2.7062 3.14655 2.7072 3.15949 2.7202 3.16546C2.7322 3.17043 2.7722 3.16745 2.7722 3.16745C2.7722 3.16745 2.7542 3.12168 2.7352 3.10277L2.7332 3.10078L2.7312 3.09979C2.7122 3.08585 2.6852 3.0968 2.6852 3.0968C2.6782 3.09282 2.6712 3.08884 2.6642 3.08486C2.6392 3.07192 2.6182 3.057 2.6102 3.02814C2.6322 3.01819 2.6512 2.96645 2.6432 2.94854L2.6422 2.94357C2.6622 2.9376 2.6592 2.90377 2.6652 2.88088L2.7022 2.87988C2.7022 2.87988 2.7062 2.88187 2.7132 2.88187C2.7212 2.88287 2.7362 2.88088 2.7622 2.86894C2.7842 2.85899 2.8042 2.84605 2.8222 2.83212C2.7982 2.80327 2.7812 2.76844 2.7852 2.72964C2.7442 2.73561 2.6382 2.71173 2.6112 2.70377L2.6102 2.70277C2.58121 2.70974 2.55021 2.71571 2.52221 2.72566L2.56021 2.75053L2.6032 2.81421L2.52521 2.78834L2.47721 2.74755C2.44521 2.76645 2.42121 2.7963 2.40721 2.84207C2.40621 2.84406 2.40521 2.84605 2.40521 2.84804C2.40621 2.85799 2.40921 2.86695 2.41321 2.8759C2.43821 2.93461 2.51021 2.9764 2.55621 2.98536C2.56621 3.0162 2.53521 3.06496 2.54421 3.08386C2.55121 3.09879 2.5842 3.08187 2.6432 3.11571C2.6532 3.12068 2.6632 3.12765 2.6742 3.1366Z" fill="#96877D"/>
</g>
<mask id="mask71_986_17568" style="mask-type:luminance" maskUnits="userSpaceOnUse" x="0" y="0" width="24" height="16">
<path d="M0 16H23.999V1.90735e-06H0V16Z" fill="white"/>
</mask>
<g mask="url(#mask71_986_17568)">
<path d="M2.36551 2.63036C2.35551 2.62738 2.34151 2.6234 2.33851 2.62738C2.33352 2.63235 2.35751 2.65723 2.35751 2.65723C2.35751 2.65524 2.35651 2.65325 2.35651 2.65126C2.35651 2.64529 2.36251 2.63633 2.36551 2.63036Z" fill="#96877D"/>
</g>
<mask id="mask72_986_17568" style="mask-type:luminance" maskUnits="userSpaceOnUse" x="0" y="0" width="24" height="16">
<path d="M0 16H23.999V1.90735e-06H0V16Z" fill="white"/>
</mask>
<g mask="url(#mask72_986_17568)">
<path d="M2.60346 2.81396L2.56046 2.75128L2.52147 2.7264L2.43647 2.67168L2.41847 2.65974L2.41547 2.65874C2.41447 2.66073 2.41647 2.68262 2.41547 2.6866C2.41547 2.68859 2.41147 2.68859 2.40747 2.68959L2.41647 2.69456L2.47747 2.7473L2.52547 2.78809L2.60346 2.81396Z" fill="#96877D"/>
</g>
<mask id="mask73_986_17568" style="mask-type:luminance" maskUnits="userSpaceOnUse" x="0" y="0" width="24" height="16">
<path d="M0 16H23.999V1.90735e-06H0V16Z" fill="white"/>
</mask>
<g mask="url(#mask73_986_17568)">
<path d="M2.98773 2.92617C2.98473 2.93115 2.95873 2.92916 2.93873 2.92219C2.92973 2.93115 2.92473 2.93712 2.92273 2.9411C2.95473 2.96 2.98173 2.98388 3.00073 3.00378C3.00473 2.96 3.01873 2.86946 3.06672 2.82766C3.04172 2.82169 2.99373 2.86448 2.95973 2.89931C2.97673 2.91224 2.98873 2.92418 2.98773 2.92617Z" fill="#96877D"/>
</g>
<mask id="mask74_986_17568" style="mask-type:luminance" maskUnits="userSpaceOnUse" x="0" y="0" width="24" height="16">
<path d="M0 16H23.999V1.90735e-06H0V16Z" fill="white"/>
</mask>
<g mask="url(#mask74_986_17568)">
<path d="M2.67529 2.28589C2.67729 2.28489 2.68029 2.2829 2.68329 2.28191C2.68029 2.2829 2.67729 2.2839 2.67529 2.28589Z" fill="#96877D"/>
</g>
<mask id="mask75_986_17568" style="mask-type:luminance" maskUnits="userSpaceOnUse" x="0" y="0" width="24" height="16">
<path d="M0 16H23.999V1.90735e-06H0V16Z" fill="white"/>
</mask>
<g mask="url(#mask75_986_17568)">
<path d="M2.65136 2.3612C2.65136 2.3612 2.64836 2.36419 2.64536 2.36618C2.64036 2.37016 2.63236 2.37513 2.63236 2.37513C2.63236 2.37513 2.62836 2.37314 2.62036 2.37115C2.62436 2.37215 2.62736 2.37314 2.63036 2.37513C2.65236 2.39901 2.68536 2.4209 2.68536 2.4209L2.71736 2.43384L2.68836 2.41891C2.68836 2.41891 2.69536 2.41493 2.70036 2.41095C2.70936 2.41493 2.72736 2.39603 2.72936 2.39006C2.73836 2.39404 2.74636 2.39404 2.74836 2.38906C2.74836 2.38906 2.74936 2.38409 2.74936 2.3821C2.75036 2.37513 2.75236 2.36419 2.75436 2.35623C2.76036 2.35026 2.76336 2.3423 2.76436 2.33533C2.73636 2.3413 2.69036 2.31344 2.65336 2.32041C2.65136 2.32638 2.65136 2.33235 2.65136 2.33235C2.65536 2.34827 2.65536 2.35722 2.65136 2.3612Z" fill="#96877D"/>
</g>
<mask id="mask76_986_17568" style="mask-type:luminance" maskUnits="userSpaceOnUse" x="0" y="0" width="24" height="16">
<path d="M0 16H23.999V1.90735e-06H0V16Z" fill="white"/>
</mask>
<g mask="url(#mask76_986_17568)">
<path d="M2.70117 2.27612H2.70617L2.70517 2.27482C2.70317 2.27482 2.70117 2.27612 2.70117 2.27612Z" fill="#96877D"/>
</g>
<mask id="mask77_986_17568" style="mask-type:luminance" maskUnits="userSpaceOnUse" x="0" y="0" width="24" height="16">
<path d="M0 16H23.999V1.90735e-06H0V16Z" fill="white"/>
</mask>
<g mask="url(#mask77_986_17568)">
<path d="M2.72061 2.64484V2.613C2.68961 2.58415 2.65962 2.57519 2.63662 2.53639C2.62262 2.51848 2.63362 2.47469 2.60962 2.44584C2.58562 2.41698 2.56062 2.39708 2.56562 2.37917L2.56862 2.37818C2.54162 2.39012 2.51362 2.40405 2.51262 2.42096C2.49862 2.42295 2.47562 2.44086 2.47162 2.45579C2.46062 2.4538 2.44462 2.46375 2.41863 2.50554C2.39163 2.51748 2.37963 2.55629 2.37363 2.58614C2.36963 2.60703 2.36963 2.62395 2.36963 2.62395L2.36563 2.62992C2.36263 2.63688 2.35663 2.64484 2.35663 2.65181C2.35663 2.6538 2.35763 2.65579 2.35763 2.65778C2.35963 2.66474 2.36263 2.66972 2.36663 2.66773C2.36763 2.67469 2.37563 2.68066 2.37963 2.67867C2.38063 2.68464 2.38963 2.68763 2.39563 2.68663C2.39563 2.68962 2.40163 2.68962 2.40763 2.68962C2.41063 2.68862 2.41563 2.68663 2.41563 2.68663C2.41663 2.68265 2.41363 2.66076 2.41563 2.65877L2.41863 2.65977C2.42263 2.66176 2.43263 2.66773 2.43663 2.66574C2.44062 2.66275 2.43563 2.6528 2.43363 2.64882C2.43163 2.64584 2.41863 2.64186 2.41563 2.62594C2.41263 2.61101 2.42363 2.58912 2.42363 2.58912C2.42363 2.58912 2.44062 2.57519 2.45662 2.55728C2.46762 2.54435 2.47762 2.53042 2.47962 2.51649C2.51762 2.52047 2.53762 2.48663 2.54862 2.47469C2.54162 2.48265 2.53762 2.4936 2.53462 2.50554C2.52762 2.53539 2.53162 2.57022 2.55362 2.58813C2.55562 2.62395 2.58562 2.6936 2.61062 2.70255L2.61162 2.70355C2.63762 2.71151 2.74361 2.73539 2.78561 2.72942C2.78161 2.76922 2.79861 2.80305 2.82261 2.83191C2.83961 2.85181 2.85961 2.87071 2.87961 2.88564C2.87861 2.89161 2.87861 2.89857 2.88461 2.90554C2.88961 2.9135 2.91561 2.9145 2.91661 2.91052C2.9206 2.91549 2.9286 2.91947 2.9386 2.92246C2.9586 2.92942 2.9846 2.93141 2.9876 2.92644C2.9896 2.92345 2.9766 2.91251 2.9596 2.89957C2.9346 2.87867 2.89861 2.8528 2.88761 2.84285C2.88261 2.8329 2.87561 2.81897 2.86861 2.80504C2.85461 2.77121 2.83861 2.72942 2.83361 2.6926C2.79261 2.64484 2.72061 2.64484 2.72061 2.64484Z" fill="#96877D"/>
</g>
<mask id="mask78_986_17568" style="mask-type:luminance" maskUnits="userSpaceOnUse" x="0" y="0" width="24" height="16">
<path d="M0 16H23.999V1.90735e-06H0V16Z" fill="white"/>
</mask>
<g mask="url(#mask78_986_17568)">
<path d="M2.58487 2.36211C2.59387 2.35117 2.61087 2.34221 2.62687 2.33425C2.63687 2.32928 2.64587 2.3253 2.65287 2.32032C2.68887 2.31336 2.73686 2.34122 2.76386 2.33525H2.76486V2.33425V2.33027C2.76486 2.32032 2.75886 2.29843 2.73586 2.2845C2.73487 2.2845 2.73487 2.2845 2.73387 2.28351C2.72687 2.27953 2.71987 2.27654 2.70887 2.27555H2.70687C2.70487 2.27555 2.70287 2.27654 2.70087 2.27654C2.69487 2.27754 2.68887 2.27853 2.68387 2.28152C2.68087 2.28251 2.67787 2.2845 2.67487 2.2855C2.66687 2.29246 2.66087 2.29943 2.66087 2.29943C2.66087 2.29943 2.64487 2.29346 2.62587 2.28948C2.61087 2.28649 2.59387 2.2855 2.58487 2.29246C2.52887 2.26958 2.51387 2.30838 2.51387 2.30838C2.51387 2.30838 2.47288 2.3054 2.46088 2.33326C2.49687 2.33226 2.52287 2.34619 2.54687 2.35515C2.56087 2.36012 2.57287 2.36311 2.58487 2.36211Z" fill="#96877D"/>
</g>
<mask id="mask79_986_17568" style="mask-type:luminance" maskUnits="userSpaceOnUse" x="0" y="0" width="24" height="16">
<path d="M0 16H23.999V1.90735e-06H0V16Z" fill="white"/>
</mask>
<g mask="url(#mask79_986_17568)">
<path d="M2.73031 2.61488L2.72931 2.61587L2.73131 2.59995L2.73331 2.5701C2.68531 2.56712 2.70531 2.47458 2.70531 2.47458L2.71031 2.47259C2.70931 2.4706 2.70731 2.46662 2.70631 2.46364C2.70131 2.46065 2.69131 2.45866 2.68831 2.4517C2.68031 2.4507 2.67432 2.44672 2.67332 2.43876C2.66632 2.44075 2.65732 2.4298 2.65732 2.4298C2.65732 2.4298 2.67732 2.42682 2.68331 2.4308C2.69031 2.43378 2.69631 2.43577 2.69831 2.44175C2.70631 2.44374 2.71131 2.44772 2.71131 2.45369C2.71431 2.45369 2.71631 2.45667 2.71731 2.45966L2.71831 2.43378H2.71731L2.68531 2.42085C2.68531 2.42085 2.65232 2.39896 2.63032 2.37508C2.62732 2.37309 2.62432 2.37209 2.62032 2.3711C2.61632 2.36911 2.61132 2.36811 2.60732 2.36811C2.59232 2.36811 2.57732 2.37309 2.56832 2.37906L2.56532 2.38005C2.56132 2.39796 2.58532 2.41687 2.60932 2.44672C2.63332 2.47458 2.62232 2.51836 2.63632 2.53627C2.65932 2.57508 2.68931 2.58503 2.72131 2.61388C2.72431 2.61587 2.72731 2.61786 2.73031 2.62085V2.61488Z" fill="#96877D"/>
</g>
<mask id="mask80_986_17568" style="mask-type:luminance" maskUnits="userSpaceOnUse" x="0" y="0" width="24" height="16">
<path d="M0 16H23.999V1.90735e-06H0V16Z" fill="white"/>
</mask>
<g mask="url(#mask80_986_17568)">
<path d="M2.71387 2.47637C2.71287 2.49428 2.70687 2.55896 2.73487 2.55896L2.71687 2.49727V2.47538L2.71487 2.47737L2.71387 2.47637Z" fill="#96877D"/>
</g>
<mask id="mask81_986_17568" style="mask-type:luminance" maskUnits="userSpaceOnUse" x="0" y="0" width="24" height="16">
<path d="M0 16H23.999V1.90735e-06H0V16Z" fill="white"/>
</mask>
<g mask="url(#mask81_986_17568)">
<path d="M2.69871 2.44133C2.69671 2.43536 2.69071 2.43337 2.68371 2.43138C2.67771 2.42641 2.65771 2.43039 2.65771 2.43039C2.65771 2.43039 2.66571 2.44133 2.67371 2.43934C2.67471 2.44631 2.67971 2.45029 2.68871 2.45128C2.69171 2.45825 2.70171 2.46123 2.70671 2.46322C2.70671 2.46621 2.70871 2.47019 2.71071 2.47317L2.71471 2.47218C2.71471 2.47218 2.71471 2.47417 2.71371 2.47616L2.71571 2.47815L2.71771 2.47516V2.45924C2.71671 2.45725 2.71471 2.45427 2.71171 2.45327C2.71171 2.4473 2.70671 2.44332 2.69871 2.44133Z" fill="#96877D"/>
</g>
<mask id="mask82_986_17568" style="mask-type:luminance" maskUnits="userSpaceOnUse" x="0" y="0" width="24" height="16">
<path d="M0 16H23.999V1.90735e-06H0V16Z" fill="white"/>
</mask>
<g mask="url(#mask82_986_17568)">
<path d="M2.74198 2.40539L2.71898 2.42529V2.43424L2.71798 2.45912L2.71698 2.47504V2.49693L2.73398 2.55763L2.73498 2.55962C2.73498 2.55962 2.73698 2.56061 2.73898 2.55962C2.74498 2.55763 2.75098 2.55464 2.75698 2.55265C2.75398 2.53673 2.74898 2.51882 2.74898 2.51882C2.74898 2.51882 2.73398 2.49195 2.75198 2.4432L2.75298 2.44121C2.77198 2.39046 2.81598 2.34867 2.82698 2.31683C2.82498 2.31484 2.82398 2.31484 2.82198 2.31385C2.80998 2.30688 2.79598 2.31285 2.79598 2.31285L2.79298 2.31783L2.75898 2.37554L2.74198 2.40539Z" fill="#96877D"/>
</g>
<mask id="mask83_986_17568" style="mask-type:luminance" maskUnits="userSpaceOnUse" x="0" y="0" width="24" height="16">
<path d="M0 16H23.999V1.90735e-06H0V16Z" fill="white"/>
</mask>
<g mask="url(#mask83_986_17568)">
<path d="M2.73468 2.57393L2.73168 2.5998L2.72968 2.61572L2.73068 2.61473C2.73068 2.61473 2.73168 2.61373 2.73368 2.61174C2.74167 2.60378 2.75667 2.58687 2.75967 2.57592C2.75967 2.57393 2.75967 2.56896 2.75867 2.56299C2.75167 2.56597 2.74367 2.56896 2.73468 2.57095V2.57393Z" fill="#96877D"/>
</g>
<mask id="mask84_986_17568" style="mask-type:luminance" maskUnits="userSpaceOnUse" x="0" y="0" width="24" height="16">
<path d="M0 16H23.999V1.90735e-06H0V16Z" fill="white"/>
</mask>
<g mask="url(#mask84_986_17568)">
<path d="M2.95929 2.39866C2.95929 2.39866 2.95229 2.40861 2.94029 2.42254C2.92929 2.43548 2.9133 2.45239 2.8933 2.46931C2.8593 2.50015 2.8133 2.53199 2.7573 2.55289C2.7513 2.55488 2.7453 2.55787 2.7383 2.55986C2.7373 2.56085 2.7363 2.55986 2.7343 2.55986C2.7073 2.55886 2.7123 2.49418 2.7133 2.47627C2.7143 2.47428 2.7143 2.47229 2.7143 2.47229L2.7103 2.47329L2.7053 2.47528C2.7053 2.47528 2.6853 2.56682 2.7333 2.56981L2.7343 2.5708C2.7423 2.56881 2.7513 2.56583 2.7593 2.56284C2.8143 2.54593 2.8643 2.51309 2.9013 2.48025C2.92529 2.45836 2.94529 2.43647 2.95829 2.42155C2.96929 2.40861 2.97529 2.39966 2.97529 2.39966L2.95929 2.39866Z" fill="#96877D"/>
</g>
<mask id="mask85_986_17568" style="mask-type:luminance" maskUnits="userSpaceOnUse" x="0" y="0" width="24" height="16">
<path d="M0 16H23.999V1.90735e-06H0V16Z" fill="white"/>
</mask>
<g mask="url(#mask85_986_17568)">
<path d="M2.92226 2.94077C2.87226 2.91092 2.80726 2.89201 2.73627 2.92385C2.81226 2.91589 2.81426 2.95768 2.81426 2.95768C2.81426 2.95768 2.86526 2.9547 2.85526 2.99151C2.88526 2.98753 2.88626 3.02037 2.88626 3.02037C2.88626 3.02037 2.91226 3.00843 2.91626 3.03032C2.93326 3.02136 2.94526 3.04226 2.95126 3.05321C2.95326 3.05818 2.95426 3.06117 2.95426 3.06117C2.95426 3.06117 2.96126 3.06216 2.96826 3.06515C2.97226 3.06614 2.97626 3.06913 2.98026 3.07311C2.98326 3.07609 2.98426 3.07908 2.98626 3.08306C3.00326 3.09201 3.01626 3.08306 3.01626 3.08306L3.02925 3.03828C3.02925 3.03828 3.02625 3.0343 3.02126 3.02733C3.01626 3.02136 3.00926 3.0134 3.00026 3.00345C2.98226 2.98355 2.95526 2.96067 2.92226 2.94077Z" fill="#96877D"/>
</g>
<mask id="mask86_986_17568" style="mask-type:luminance" maskUnits="userSpaceOnUse" x="0" y="0" width="24" height="16">
<path d="M0 16H23.999V1.90735e-06H0V16Z" fill="white"/>
</mask>
<g mask="url(#mask86_986_17568)">
<path d="M3.09419 3.09872L3.07019 3.13354C3.07319 3.13553 3.07519 3.13653 3.07819 3.13852C3.16819 3.2022 3.20118 3.12956 3.20118 3.12956C3.20118 3.12956 3.18819 3.12558 3.18919 3.11364C3.17919 3.11762 3.17319 3.09971 3.17319 3.09971C3.17319 3.09971 3.17119 3.1415 3.15119 3.14051C3.14219 3.14051 3.12919 3.13155 3.11819 3.1216C3.10519 3.11066 3.09419 3.09872 3.09419 3.09872Z" fill="#96877D"/>
</g>
<mask id="mask87_986_17568" style="mask-type:luminance" maskUnits="userSpaceOnUse" x="0" y="0" width="24" height="16">
<path d="M0 16H23.999V1.90735e-06H0V16Z" fill="white"/>
</mask>
<g mask="url(#mask87_986_17568)">
<path d="M2.77228 3.18811C2.77728 3.1911 2.80428 3.18214 2.80428 3.18214C2.80428 3.18214 2.84628 3.17717 2.85928 3.16523C2.86828 3.18513 2.88728 3.18712 2.88728 3.18712C2.88728 3.18712 2.88928 3.17816 2.88628 3.17319H2.89228C2.89828 3.17319 2.90328 3.1712 2.90328 3.1712C2.90328 3.1712 2.90928 3.15627 2.89728 3.1503C2.89828 3.13936 2.90328 3.12941 2.88328 3.1304C2.87628 3.13836 2.86428 3.14632 2.85328 3.1513C2.83928 3.15826 2.82628 3.16224 2.82128 3.15826C2.81628 3.15528 2.82828 3.14732 2.83728 3.13637C2.84528 3.12741 2.85128 3.11746 2.84628 3.10552L2.79728 3.11448L2.79128 3.13936L2.78428 3.16921C2.78428 3.16921 2.76728 3.18413 2.77228 3.18811Z" fill="#96877D"/>
</g>
<mask id="mask88_986_17568" style="mask-type:luminance" maskUnits="userSpaceOnUse" x="0" y="0" width="24" height="16">
<path d="M0 16H23.999V1.90735e-06H0V16Z" fill="white"/>
</mask>
<g mask="url(#mask88_986_17568)">
<path d="M2.80509 2.09158L2.80209 2.09059C2.79809 2.09954 2.79409 2.10551 2.79009 2.10949C2.78609 2.11347 2.78209 2.11646 2.77809 2.11745C2.77309 2.11944 2.76509 2.11944 2.75509 2.11944L2.74409 2.11845C2.73509 2.11845 2.72809 2.11745 2.72809 2.11745C2.72609 2.11646 2.72509 2.11546 2.72409 2.11347C2.72309 2.11148 2.72209 2.1075 2.72309 2.10153L2.72609 2.01298C2.72609 2.00402 2.72709 1.99905 2.72809 1.99706C2.73009 1.99407 2.73209 1.99308 2.73509 1.99109C2.73809 1.99009 2.74309 1.9891 2.75109 1.99009V1.98611L2.68609 1.98412V1.9881H2.69209C2.69709 1.9881 2.70109 1.9891 2.70409 1.99308C2.70509 1.99507 2.70609 2.00104 2.70609 2.009L2.70209 2.10054C2.70209 2.10949 2.70109 2.11347 2.70009 2.11646C2.69709 2.12044 2.69309 2.12243 2.68609 2.12143H2.68109V2.12541L2.79109 2.12939L2.80509 2.09158Z" fill="#010101"/>
</g>
<mask id="mask89_986_17568" style="mask-type:luminance" maskUnits="userSpaceOnUse" x="0" y="0" width="24" height="16">
<path d="M0 16H23.999V1.90735e-06H0V16Z" fill="white"/>
</mask>
<g mask="url(#mask89_986_17568)">
<path d="M2.06778 2.93446L2.06878 2.93943C2.06978 2.94242 2.06978 2.9464 2.06878 2.94938C2.06778 2.95237 2.06578 2.95535 2.06578 2.95535C2.06378 2.95635 2.05878 2.95734 2.05179 2.95933L2.00779 2.97028L2.00279 2.94441C2.00179 2.94043 2.00079 2.93645 2.00179 2.93446C2.00279 2.93147 2.00379 2.92948 2.00579 2.92749C2.00779 2.9255 2.01179 2.92351 2.01779 2.92252L2.01679 2.91854L1.96979 2.92948V2.93346C1.97879 2.93247 1.98379 2.93346 1.98679 2.93446C1.98979 2.93645 1.99279 2.94142 1.99379 2.9464L1.99979 2.97227L1.94479 2.9852L1.93779 2.95436C1.93679 2.94739 1.93579 2.94142 1.93679 2.93844C1.93679 2.93446 1.93879 2.93048 1.94079 2.92749C1.94279 2.92451 1.94679 2.92152 1.95379 2.91854L1.95279 2.91456L1.92279 2.92351L1.94679 3.026L1.95079 3.02501L1.94979 3.02003C1.94879 3.01705 1.94879 3.01406 1.94979 3.01008C1.95079 3.00809 1.95279 3.00511 1.95279 3.00511C1.95579 3.00312 1.95979 3.00212 1.96679 3.00013L2.05678 2.97923C2.06478 2.97724 2.06978 2.97625 2.07278 2.97724C2.07678 2.97923 2.07978 2.98321 2.08078 2.98919L2.08178 2.99416L2.08578 2.99317L2.07178 2.93346L2.06778 2.93446Z" fill="#010101"/>
</g>
<mask id="mask90_986_17568" style="mask-type:luminance" maskUnits="userSpaceOnUse" x="0" y="0" width="24" height="16">
<path d="M0 16H23.999V1.90735e-06H0V16Z" fill="white"/>
</mask>
<g mask="url(#mask90_986_17568)">
<path d="M1.93391 2.71146C1.94591 2.7025 1.96491 2.69952 1.98891 2.70051C2.01191 2.70151 2.02791 2.70748 2.03791 2.71643C2.04791 2.72539 2.05191 2.73633 2.05191 2.75026C2.05091 2.7622 2.04491 2.77215 2.03491 2.77912C2.02191 2.78907 2.00391 2.79205 1.98091 2.79106C1.95791 2.79006 1.94091 2.78409 1.92991 2.77315C1.92091 2.76618 1.91691 2.75524 1.91791 2.7423C1.91791 2.72937 1.92391 2.71842 1.93391 2.71146ZM1.97991 2.81494C2.00191 2.81594 2.01991 2.81096 2.03491 2.79802C2.04991 2.78608 2.05791 2.77016 2.05891 2.75026C2.05991 2.73136 2.05391 2.71444 2.03991 2.69952C2.02691 2.68559 2.00891 2.67763 1.98791 2.67663C1.96691 2.67464 1.94891 2.68061 1.93391 2.69355C1.91891 2.70648 1.91091 2.7224 1.90991 2.74031C1.90891 2.75822 1.91391 2.77514 1.92591 2.78907C1.93991 2.80499 1.95691 2.81395 1.97991 2.81494Z" fill="#010101"/>
</g>
<mask id="mask91_986_17568" style="mask-type:luminance" maskUnits="userSpaceOnUse" x="0" y="0" width="24" height="16">
<path d="M0 16H23.999V1.90735e-06H0V16Z" fill="white"/>
</mask>
<g mask="url(#mask91_986_17568)">
<path d="M3.3895 2.36024C3.3935 2.36024 3.3985 2.36223 3.4015 2.3672L3.4045 2.37118L3.4075 2.36919L3.3785 2.32939L3.3755 2.33138L3.3775 2.33536C3.3815 2.33934 3.3825 2.34432 3.3815 2.3483C3.3815 2.35128 3.3775 2.35526 3.3705 2.36024L3.3045 2.40899L3.3385 2.27566L3.3155 2.24481L3.3115 2.2468C3.3145 2.25078 3.3165 2.25377 3.3175 2.25576C3.3185 2.25874 3.3195 2.26272 3.3195 2.26571C3.3195 2.2677 3.3185 2.27267 3.3175 2.27864L3.2375 2.33735C3.2305 2.34133 3.2265 2.34432 3.2235 2.34432C3.2195 2.34432 3.2155 2.34233 3.21151 2.33735L3.20851 2.33337L3.20551 2.33536L3.2355 2.37516L3.2385 2.37317L3.2355 2.36919C3.2315 2.36422 3.2305 2.36024 3.2315 2.35626C3.2325 2.35327 3.2355 2.35029 3.2435 2.34432L3.3135 2.29257L3.2775 2.43586L3.2795 2.43884L3.3755 2.3672C3.3825 2.36223 3.3875 2.36024 3.3895 2.36024Z" fill="#010101"/>
</g>
<mask id="mask92_986_17568" style="mask-type:luminance" maskUnits="userSpaceOnUse" x="0" y="0" width="24" height="16">
<path d="M0 16H23.999V1.90735e-06H0V16Z" fill="white"/>
</mask>
<g mask="url(#mask92_986_17568)">
<path d="M3.50815 2.92086C3.50515 2.92484 3.50215 2.92782 3.49915 2.92882C3.49915 2.92882 3.49215 2.9328 3.48515 2.93479L3.41716 2.95767L3.38416 2.94872C3.37616 2.94673 3.37216 2.94474 3.37016 2.94275C3.36716 2.93976 3.36616 2.93479 3.36816 2.92882L3.36916 2.92384L3.36516 2.92285L3.35016 2.98156L3.35416 2.98255L3.35516 2.97857C3.35716 2.9726 3.35916 2.96862 3.36216 2.96663C3.36516 2.96563 3.37016 2.96563 3.37916 2.96862L3.41416 2.97758L3.45715 3.02434C3.46315 3.02932 3.46615 3.03429 3.46915 3.03827C3.47115 3.04126 3.47215 3.04524 3.47315 3.04922C3.47415 3.0522 3.47415 3.05519 3.47315 3.05718V3.06016L3.47615 3.06116L3.48915 3.0134L3.48515 3.0124C3.48415 3.01539 3.48315 3.01837 3.48215 3.02036C3.48215 3.02036 3.47915 3.02335 3.47715 3.02335C3.47515 3.02434 3.47415 3.02434 3.47215 3.02335C3.46915 3.02235 3.46515 3.01937 3.45915 3.0134L3.42416 2.97559L3.47615 2.95867C3.48315 2.95668 3.48815 2.95568 3.49015 2.95568C3.49315 2.95668 3.49515 2.95867 3.49615 2.96165C3.49715 2.96464 3.49715 2.96762 3.49615 2.97061L3.49515 2.9736L3.49915 2.97459L3.51515 2.91588H3.51015C3.51015 2.91787 3.50815 2.92086 3.50815 2.92086Z" fill="#010101"/>
</g>
<mask id="mask93_986_17568" style="mask-type:luminance" maskUnits="userSpaceOnUse" x="0" y="0" width="24" height="16">
<path d="M0 16H23.999V1.90735e-06H0V16Z" fill="white"/>
</mask>
<g mask="url(#mask93_986_17568)">
<path d="M3.50487 2.75715C3.49987 2.76312 3.49287 2.7661 3.48387 2.7661C3.47487 2.7671 3.46687 2.76411 3.46087 2.75715C3.45487 2.75118 3.45087 2.74023 3.45087 2.7273L3.44987 2.72531V2.72133L3.50987 2.71834C3.51087 2.72531 3.51187 2.73028 3.51187 2.73526C3.51287 2.74322 3.50987 2.75118 3.50487 2.75715ZM3.51387 2.67755V2.68352C3.51387 2.68849 3.51287 2.69247 3.50987 2.69546C3.50687 2.69745 3.50187 2.69844 3.49287 2.69944L3.40088 2.70441C3.39288 2.70441 3.38788 2.70441 3.38588 2.70242C3.38188 2.70043 3.37988 2.69546 3.37888 2.69048V2.68451H3.37488L3.37788 2.74521H3.38188V2.73924C3.38188 2.73526 3.38288 2.73028 3.38588 2.7273C3.38788 2.72531 3.39388 2.72431 3.40188 2.72332L3.44388 2.72133C3.44288 2.72332 3.44388 2.72332 3.44388 2.72531V2.72829V2.73625L3.37988 2.78799L3.38188 2.82581H3.38588C3.38688 2.81785 3.38788 2.81188 3.39088 2.8069C3.39388 2.80093 3.39988 2.79595 3.40888 2.78799L3.44787 2.75715C3.45187 2.76909 3.45687 2.77705 3.46287 2.78202C3.46987 2.78799 3.47787 2.78998 3.48587 2.78998C3.49487 2.78998 3.50187 2.787 3.50687 2.78103C3.51287 2.77605 3.51687 2.77008 3.51887 2.76212C3.51987 2.75516 3.52087 2.74421 3.51987 2.72929L3.51687 2.67755H3.51387Z" fill="#010101"/>
</g>
<mask id="mask94_986_17568" style="mask-type:luminance" maskUnits="userSpaceOnUse" x="0" y="0" width="24" height="16">
<path d="M0 16H23.999V1.90735e-06H0V16Z" fill="white"/>
</mask>
<g mask="url(#mask94_986_17568)">
<path d="M3.35487 2.59349L3.35287 2.58951C3.35187 2.58354 3.35187 2.57956 3.35387 2.57558C3.35487 2.57359 3.35887 2.5706 3.36787 2.56762L3.47087 2.5318L3.47687 2.5507C3.47987 2.55568 3.47987 2.56065 3.47987 2.56463C3.47887 2.56961 3.47687 2.57259 3.47387 2.57558C3.47187 2.57757 3.46787 2.58055 3.46287 2.58354L3.46387 2.58652L3.49486 2.57458L3.45687 2.46513L3.42387 2.47508L3.42487 2.47806C3.43187 2.47707 3.43687 2.47607 3.44087 2.47806C3.44587 2.47906 3.44987 2.48105 3.45187 2.48403C3.45387 2.48602 3.45587 2.49 3.45787 2.49697L3.46387 2.51289L3.36087 2.54871C3.35387 2.5517 3.34887 2.55269 3.34587 2.5517C3.34187 2.5507 3.33787 2.54772 3.33587 2.54175L3.33487 2.53677L3.33087 2.53876L3.35187 2.59448L3.35487 2.59349Z" fill="#010101"/>
</g>
<mask id="mask95_986_17568" style="mask-type:luminance" maskUnits="userSpaceOnUse" x="0" y="0" width="24" height="16">
<path d="M0 16H23.999V1.90735e-06H0V16Z" fill="white"/>
</mask>
<g mask="url(#mask95_986_17568)">
<path d="M2.2981 2.24314C2.3201 2.2501 2.3421 2.24612 2.3651 2.2312C2.3741 2.22622 2.3801 2.22125 2.3851 2.21527C2.3911 2.20831 2.3961 2.20134 2.4011 2.19438L2.3771 2.15756C2.3731 2.1506 2.3701 2.14662 2.3701 2.14363C2.3701 2.13965 2.3721 2.13567 2.3771 2.13269L2.3791 2.13169L2.3771 2.12771L2.3301 2.15756L2.3331 2.16055C2.3381 2.15856 2.3411 2.15657 2.3441 2.15657C2.3461 2.15557 2.3481 2.15657 2.3501 2.15756C2.3531 2.15955 2.3561 2.16254 2.3601 2.16851L2.3821 2.20234C2.3801 2.20731 2.3771 2.21129 2.3731 2.21527C2.3701 2.21926 2.3661 2.22224 2.3611 2.22523C2.3541 2.2302 2.3451 2.23319 2.3351 2.23319C2.3251 2.23319 2.3151 2.2302 2.3041 2.22324C2.2941 2.21727 2.2851 2.20831 2.2771 2.19736C2.2691 2.18244 2.26411 2.16851 2.26411 2.15458C2.26411 2.13766 2.2721 2.12373 2.2871 2.11378C2.2981 2.10682 2.3101 2.10383 2.3211 2.10682C2.3291 2.10781 2.3381 2.11279 2.3471 2.11975L2.3501 2.11776L2.3221 2.08194L2.3191 2.08393C2.3211 2.08791 2.3221 2.0909 2.3221 2.0909C2.3221 2.09289 2.3201 2.09488 2.3201 2.09488C2.3201 2.09488 2.3161 2.09687 2.3121 2.09687C2.3041 2.09886 2.2981 2.10085 2.2941 2.10184C2.2901 2.10383 2.2861 2.10582 2.2811 2.10881C2.2701 2.11677 2.26111 2.12572 2.25611 2.13667C2.24911 2.1496 2.24611 2.16353 2.24811 2.17846C2.24911 2.19139 2.25311 2.20333 2.26011 2.21328C2.2691 2.22821 2.2821 2.23816 2.2981 2.24314Z" fill="#010101"/>
</g>
<mask id="mask96_986_17568" style="mask-type:luminance" maskUnits="userSpaceOnUse" x="0" y="0" width="24" height="16">
<path d="M0 16H23.999V1.90735e-06H0V16Z" fill="white"/>
</mask>
<g mask="url(#mask96_986_17568)">
<path d="M2.51204 2.04246L2.55004 2.09121L2.50304 2.10415L2.51204 2.04246ZM2.51704 2.15788L2.51604 2.1539C2.50904 2.15489 2.50504 2.15489 2.50204 2.1539C2.50004 2.1529 2.49804 2.15091 2.49804 2.14892C2.49704 2.14594 2.49704 2.14295 2.49804 2.13698L2.50204 2.11211L2.55504 2.09818L2.56804 2.11609C2.57304 2.12206 2.57504 2.12504 2.57604 2.12803C2.57704 2.13101 2.57604 2.133 2.57504 2.13499C2.57304 2.13698 2.57004 2.13897 2.56504 2.14096L2.56604 2.14494L2.62004 2.13002L2.61904 2.12604C2.61304 2.12703 2.60804 2.12703 2.60404 2.12504C2.60004 2.12305 2.59504 2.11808 2.58904 2.11012L2.51104 2.00862L2.50704 2.00962L2.48905 2.13499C2.48705 2.14594 2.48505 2.1539 2.48305 2.15788C2.48105 2.16086 2.47805 2.16285 2.47205 2.16584L2.47305 2.16882L2.51704 2.15788Z" fill="#010101"/>
</g>
<mask id="mask97_986_17568" style="mask-type:luminance" maskUnits="userSpaceOnUse" x="0" y="0" width="24" height="16">
<path d="M0 16H23.999V1.90735e-06H0V16Z" fill="white"/>
</mask>
<g mask="url(#mask97_986_17568)">
<path d="M2.99451 2.14295L2.99151 2.14096C2.98551 2.14792 2.97951 2.1529 2.97451 2.15588C2.97051 2.15887 2.96551 2.16086 2.96051 2.16086C2.95551 2.16086 2.94851 2.15887 2.93751 2.15588L2.92851 2.1519C2.91951 2.14892 2.91451 2.14693 2.91251 2.14593L2.91051 2.14195C2.91051 2.13996 2.91051 2.13598 2.91251 2.13001L2.94051 2.04543C2.94351 2.03747 2.94551 2.0325 2.94751 2.03051C2.94951 2.02951 2.95151 2.02752 2.95451 2.02752C2.95851 2.02653 2.96351 2.02752 2.97151 2.03051L2.97251 2.02653L2.91051 2.00663L2.90951 2.01061L2.91451 2.0116C2.91951 2.01359 2.92351 2.01658 2.92451 2.01956C2.92551 2.02255 2.92451 2.02852 2.92251 2.03747L2.89351 2.12304C2.89052 2.13101 2.88852 2.13598 2.88652 2.13797C2.88252 2.14096 2.87752 2.14096 2.87152 2.13996L2.86752 2.13797L2.86652 2.14195L2.97151 2.17578L2.99451 2.14295Z" fill="#010101"/>
</g>
<mask id="mask98_986_17568" style="mask-type:luminance" maskUnits="userSpaceOnUse" x="0" y="0" width="24" height="16">
<path d="M0 16H23.999V1.90735e-06H0V16Z" fill="white"/>
</mask>
<g mask="url(#mask98_986_17568)">
<path d="M3.16014 2.1532L3.14614 2.21389L3.10614 2.18603L3.16014 2.1532ZM3.07715 2.22782C3.07115 2.22285 3.06815 2.21986 3.06815 2.21688C3.06715 2.21489 3.06715 2.2129 3.06815 2.21091C3.07015 2.20892 3.07315 2.20593 3.07815 2.20295L3.09914 2.19001L3.14414 2.22185L3.13914 2.24374C3.13814 2.25071 3.13614 2.25568 3.13514 2.25767C3.13314 2.25966 3.13114 2.26066 3.12914 2.26066C3.12614 2.26066 3.12214 2.25966 3.11814 2.25668L3.11614 2.25966L3.16114 2.2915L3.16314 2.28852C3.15914 2.28553 3.15614 2.28155 3.15514 2.27757C3.15414 2.2726 3.15514 2.26563 3.15714 2.25568L3.18514 2.1313L3.18214 2.12931L3.07315 2.19499C3.06415 2.20096 3.05615 2.20394 3.05215 2.20494C3.05015 2.20593 3.04615 2.20394 3.04015 2.20195L3.03815 2.20494L3.07515 2.23081L3.07715 2.22782Z" fill="#010101"/>
</g>
<mask id="mask99_986_17568" style="mask-type:luminance" maskUnits="userSpaceOnUse" x="0" y="0" width="24" height="16">
<path d="M0 16H23.999V1.90735e-06H0V16Z" fill="white"/>
</mask>
<g mask="url(#mask99_986_17568)">
<path d="M2.02182 2.54621L2.02082 2.5482L2.01982 2.55119L1.96382 2.53029C1.96582 2.52432 1.96682 2.51835 1.96782 2.51437C1.97182 2.50641 1.97682 2.50044 1.98382 2.49746C1.99082 2.49447 1.99882 2.49447 2.00682 2.49746C2.01582 2.50044 2.02182 2.50641 2.02382 2.51437C2.02782 2.52333 2.02682 2.53328 2.02182 2.54621ZM2.10781 2.49746C2.10381 2.50144 2.09581 2.50442 2.08481 2.50741L2.03582 2.52034C2.03782 2.5084 2.03682 2.49845 2.03282 2.49049C2.02882 2.48352 2.02182 2.47755 2.01482 2.47457C2.00682 2.47158 1.99982 2.47158 1.99182 2.47457C1.98482 2.47656 1.97882 2.48153 1.97382 2.48651C1.96982 2.49248 1.96382 2.50343 1.95882 2.51636L1.93982 2.56512L1.94382 2.56711L1.94582 2.56114C1.94782 2.55616 1.95082 2.55318 1.95482 2.55119C1.95782 2.55019 1.96282 2.55119 1.97182 2.55517L2.05781 2.588C2.06481 2.58999 2.06881 2.59298 2.07081 2.59497C2.07381 2.59895 2.07381 2.60392 2.07181 2.6089L2.06981 2.61387L2.07381 2.61487L2.09581 2.55915L2.09181 2.55716L2.08981 2.56313C2.08781 2.56711 2.08481 2.57009 2.08081 2.57208C2.07881 2.57308 2.07281 2.57208 2.06381 2.5691L2.02582 2.55417L2.02682 2.55119L2.02782 2.5482C2.02882 2.54621 2.02982 2.54422 2.03082 2.54024L2.10981 2.51935L2.12381 2.48352L2.12081 2.48253C2.11681 2.4895 2.11281 2.49447 2.10781 2.49746Z" fill="#010101"/>
</g>
</g>
<defs>
<clipPath id="clip0_986_17568">
<rect width="24" height="16" fill="white"/>
</clipPath>
</defs>
</svg>
