<svg width="20" height="21" viewBox="0 0 20 21" fill="none" xmlns="http://www.w3.org/2000/svg">
<path d="M19.9873 2.46817V14.0697L17.5176 16.5375H9.8623L4.82812 20.0141V16.5375H2.46875L0 14.0697V2.46817L2.46875 0.000396729H17.5176L19.9873 2.46817ZM1.36621 3.03458V13.5033L3.03516 15.1713H6.19434V17.4115L9.43555 15.1713H16.9531L18.6201 13.5033V3.03458L16.9531 1.36563H3.03516L1.36621 3.03458ZM11.2754 2.85001V13.602H8.99414L5.41797 10.4731H2.75684V5.97891H5.41797L8.99414 2.85001H11.2754ZM15.0566 3.15274C16.4536 4.50674 17.2236 6.32295 17.2236 8.26895C17.2236 10.2139 16.4536 12.0302 15.0566 13.3852L14.1055 12.4037C15.2344 11.3098 15.8564 9.84089 15.8564 8.26895C15.8564 6.69602 15.2344 5.2282 14.1055 4.13321L15.0566 3.15274ZM9.50781 4.21524L5.93262 7.34415H4.12305V9.10782H5.93262L9.50781 12.2357H9.90918V4.21524H9.50781ZM13.6641 5.81192C14.164 6.53589 14.4277 7.38501 14.4277 8.26895C14.4277 9.13583 14.1724 9.97395 13.6885 10.6898L12.542 9.94669C12.8869 9.43579 13.0624 8.86282 13.0625 8.26895C13.0625 7.66395 12.881 7.08233 12.54 6.58633L13.6641 5.81192Z" fill="#001E28"/>
</svg>
