<svg width="20" height="20" viewBox="0 0 20 20" fill="none" xmlns="http://www.w3.org/2000/svg">
<path d="M2.89258 2.92487C6.80254 -0.976094 13.1574 -0.973013 17.0645 2.92487C18.9565 4.81387 20 7.32608 20 9.99908C19.9999 12.6668 18.959 15.1747 17.0703 17.0626C17.0683 17.0656 17.0665 17.0684 17.0635 17.0704C17.0605 17.0744 17.0567 17.0762 17.0537 17.0792C15.1617 18.963 12.6504 20.0001 9.97852 20.0001C7.31079 20 4.80201 18.9648 2.91113 17.085C2.90513 17.08 2.89858 17.0764 2.89258 17.0704C2.75776 16.9365 2.63998 16.7906 2.53809 16.6348C-0.846914 12.8538 -0.846008 7.13555 2.54199 3.35455C2.62496 3.22963 2.72516 3.11493 2.8291 3.00299C2.85303 2.97907 2.86772 2.94981 2.89258 2.92487ZM11.9277 1.70026C11.3907 2.23726 10.6835 2.50494 9.97754 2.50494C9.27065 2.50486 8.56331 2.23522 8.02539 1.6983C8.00562 1.67839 7.99152 1.6547 7.97266 1.63385C7.28684 1.79683 6.6261 2.05684 5.98926 2.38873C6.28513 2.51772 6.56296 2.69193 6.79688 2.92584C7.31883 3.44583 7.60547 4.13812 7.60547 4.87408C7.60537 5.61185 7.31867 6.30244 6.79688 6.82233C6.27587 7.34333 5.58173 7.62994 4.84473 7.62994C4.10778 7.62991 3.41257 7.34329 2.8916 6.82233C2.65976 6.5904 2.48259 6.32113 2.34766 6.03326C2.01866 6.66426 1.76061 7.32104 1.59961 8.00104C1.6196 8.02101 1.64505 8.03479 1.66504 8.05377C2.73782 9.12468 2.73775 10.8733 1.66309 11.9483C1.64409 11.9663 1.61959 11.9801 1.60059 11.9981C1.76259 12.677 2.01971 13.3321 2.34766 13.963C2.48261 13.6751 2.65972 13.4058 2.8916 13.1739C3.9716 12.0999 5.72187 12.1019 6.79688 13.1739C7.31881 13.6939 7.60547 14.3862 7.60547 15.1231C7.60536 15.8599 7.31868 16.5505 6.79688 17.0704C6.55995 17.3073 6.28692 17.4823 5.99902 17.6153C6.62594 17.9423 7.28078 18.2032 7.97168 18.3672C7.99261 18.3453 8.00834 18.3179 8.0293 18.2969C8.54622 17.7801 9.23873 17.4904 9.97559 17.4903H9.97656C10.7146 17.4903 11.4077 17.7799 11.9297 18.2999C11.9497 18.3209 11.9654 18.3452 11.9854 18.3672C12.6761 18.2032 13.3312 17.9432 13.959 17.6153C13.67 17.4833 13.3962 17.3074 13.1592 17.0704C12.6383 16.5505 12.3497 15.8599 12.3496 15.1231C12.3496 14.3861 12.6382 13.6939 13.1602 13.1739C14.2331 12.098 15.9845 12.098 17.0625 13.1739H17.0635C17.2975 13.4079 17.4763 13.6788 17.6113 13.9688C17.9383 13.3449 18.1983 12.6929 18.3633 12.0049C18.3413 11.9849 18.314 11.9703 18.293 11.9503C17.2141 10.8732 17.2141 9.12576 18.291 8.05182C18.313 8.02982 18.3413 8.01325 18.3633 7.99225C18.1993 7.30337 17.9393 6.65133 17.6123 6.02643C17.4773 6.31743 17.2975 6.58833 17.0635 6.82233C16.5246 7.3592 15.8182 7.62886 15.1123 7.62897C14.4043 7.62897 13.6972 7.35933 13.1592 6.82233C12.6383 6.30242 12.3497 5.61192 12.3496 4.87408C12.3496 4.13808 12.6382 3.44584 13.1602 2.92584C13.3961 2.68987 13.6691 2.51489 13.9561 2.3819C13.3221 2.0529 12.6644 1.79485 11.9814 1.63385C11.9626 1.65376 11.9476 1.67939 11.9277 1.70026ZM4.84473 13.7413C4.49088 13.7413 4.13617 13.8758 3.86523 14.1446C3.33025 14.6796 3.3285 15.546 3.85645 16.086C3.86045 16.09 3.86319 16.0947 3.86719 16.0987C3.87112 16.1026 3.87596 16.1055 3.87988 16.1094C4.42188 16.6334 5.29024 16.6336 5.82324 16.1006C6.36299 15.5617 6.36304 14.6835 5.82324 14.1446C5.55424 13.8756 5.19873 13.7413 4.84473 13.7413ZM15.1123 13.7413C14.7573 13.7413 14.4018 13.8756 14.1328 14.1446C13.8708 14.4076 13.7266 14.7541 13.7266 15.1231C13.7267 15.4919 13.871 15.8378 14.1318 16.1006C14.6688 16.6346 15.5391 16.6345 16.0811 16.1065C16.084 16.1036 16.0879 16.1016 16.0908 16.0987C16.0928 16.0968 16.0938 16.0939 16.0957 16.0919C16.6287 15.5529 16.6278 14.6816 16.0908 14.1446C15.8199 13.8758 15.4661 13.7414 15.1123 13.7413ZM8.02637 8.04987C9.10037 6.97587 10.8527 6.97387 11.9297 8.04987H11.9307C12.4516 8.56986 12.7383 9.26212 12.7383 9.99908C12.7382 10.7358 12.4514 11.4265 11.9307 11.9464C11.3917 12.4834 10.6845 12.753 9.97852 12.753C9.27054 12.753 8.56338 12.4833 8.02539 11.9464C7.50466 11.4265 7.21687 10.7358 7.2168 9.99908C7.2168 9.26215 7.50446 8.56985 8.02637 8.04987ZM9.97852 8.61823C9.62368 8.61824 9.26895 8.7518 9 9.02057C8.738 9.28357 8.59277 9.63008 8.59277 9.99908C8.59285 10.368 8.73809 10.7137 8.99902 10.9766C9.53904 11.5135 10.4161 11.5136 10.958 10.9766C11.4967 10.4376 11.4968 9.55948 10.958 9.02057C10.687 8.75157 10.3325 8.61823 9.97852 8.61823ZM4.84473 3.49323C4.4739 3.49326 4.12715 3.63573 3.86621 3.89655C3.32621 4.43555 3.32621 5.3136 3.86621 5.8526C4.40622 6.38948 5.28328 6.38956 5.82324 5.8526C6.36298 5.31362 6.36305 4.43548 5.82324 3.89655C5.56224 3.63555 5.21473 3.49323 4.84473 3.49323ZM15.1123 3.49323C14.7573 3.49323 14.4018 3.62757 14.1328 3.89655C13.8708 4.15955 13.7266 4.50608 13.7266 4.87408C13.7267 5.2439 13.871 5.5897 14.1318 5.8526C14.6718 6.3896 15.5488 6.3896 16.0908 5.8526C16.6298 5.3136 16.6298 4.43554 16.0908 3.89655C15.8199 3.62772 15.4661 3.49333 15.1123 3.49323Z" fill="#001E28"/>
</svg>
