<svg width="24" height="16" viewBox="0 0 24 16" fill="none" xmlns="http://www.w3.org/2000/svg">
<g clip-path="url(#clip0_986_17591)">
<mask id="mask0_986_17591" style="mask-type:luminance" maskUnits="userSpaceOnUse" x="0" y="0" width="24" height="16">
<path d="M0 16H24V1.90735e-06H0V16Z" fill="white"/>
</mask>
<g mask="url(#mask0_986_17591)">
<path d="M0 5.32385H5.868L5.729 3.12584C5.777 3.10296 5.827 3.08007 5.876 3.05818C6.487 2.78952 7.153 2.64823 7.834 2.64823C8.515 2.64823 9.181 2.78952 9.792 3.05818C9.842 3.08007 9.892 3.10296 9.94 3.12584L9.801 5.32385H24V-0.000525475H0V5.32385Z" fill="#FAFAFA"/>
</g>
<mask id="mask1_986_17591" style="mask-type:luminance" maskUnits="userSpaceOnUse" x="0" y="0" width="24" height="16">
<path d="M0 16H24V1.90735e-06H0V16Z" fill="white"/>
</mask>
<g mask="url(#mask1_986_17591)">
<path d="M0 16H24V10.6766H0V16Z" fill="#EE3130"/>
</g>
<mask id="mask2_986_17591" style="mask-type:luminance" maskUnits="userSpaceOnUse" x="0" y="0" width="24" height="16">
<path d="M0 16H24V1.90735e-06H0V16Z" fill="white"/>
</mask>
<g mask="url(#mask2_986_17591)">
<path d="M9.78612 5.55463C9.74412 6.21632 9.46112 6.84319 8.98712 7.31483C8.66212 7.63722 8.26512 7.87105 7.83412 8.0004C7.40312 7.87105 7.00612 7.63722 6.68212 7.31483C6.20712 6.84319 5.92412 6.21632 5.88312 5.55463L5.86812 5.32379H0.00012207V10.676H24.0001V5.32379H9.80112L9.78612 5.55463Z" fill="#3A53A4"/>
</g>
<mask id="mask3_986_17591" style="mask-type:luminance" maskUnits="userSpaceOnUse" x="0" y="0" width="24" height="16">
<path d="M0 16H24V1.90735e-06H0V16Z" fill="white"/>
</mask>
<g mask="url(#mask3_986_17591)">
<path d="M6.68164 7.31493C7.00564 7.63732 7.40264 7.87115 7.83464 7.99951C8.26564 7.87115 8.66264 7.63732 8.98664 7.31493C9.46064 6.84329 9.74464 6.21643 9.78564 5.55474L9.80064 5.32389L9.94064 3.12588C9.89164 3.10299 9.84264 3.08011 9.79264 3.05822L9.64864 5.32389L9.63464 5.54379C9.60464 6.01344 9.44664 6.46419 9.18164 6.84827C9.09264 6.97563 8.99164 7.09702 8.87964 7.20847C8.58364 7.501 8.22464 7.71792 7.83464 7.8413C7.44364 7.71792 7.08464 7.501 6.78864 7.20847C6.34064 6.7617 6.07364 6.16966 6.03464 5.54379L5.87664 3.05822C5.82664 3.08011 5.77764 3.10299 5.72864 3.12588L5.86764 5.32389L5.88264 5.55474C5.92464 6.21643 6.20764 6.84329 6.68164 7.31493Z" fill="#EE2524"/>
</g>
<mask id="mask4_986_17591" style="mask-type:luminance" maskUnits="userSpaceOnUse" x="0" y="0" width="24" height="16">
<path d="M0 16H24V1.90735e-06H0V16Z" fill="white"/>
</mask>
<g mask="url(#mask4_986_17591)">
<path d="M7.36046 5.27774L7.83446 4.33446L8.30846 5.27774L8.62446 4.85883L9.41346 5.9056C9.41346 6.0449 9.35846 6.17824 9.25946 6.27575C9.16046 6.37525 9.02746 6.42998 8.88746 6.42998C8.79446 6.42998 8.70346 6.4051 8.62446 6.35933C8.62346 6.35933 8.62446 6.36033 8.62446 6.35933C8.58446 6.33744 8.54246 6.31953 8.49746 6.30759C8.36246 6.27177 8.21846 6.29068 8.09746 6.35933C8.01646 6.4061 7.92546 6.42998 7.83446 6.42998C7.74246 6.42998 7.65246 6.4061 7.57146 6.35933C7.45046 6.29068 7.30646 6.27177 7.17146 6.30759C7.12646 6.31953 7.08446 6.33744 7.04446 6.35933C7.04446 6.36033 7.04546 6.35933 7.04446 6.35933C6.96546 6.4051 6.87446 6.42998 6.78146 6.42998C6.64146 6.42998 6.50746 6.37525 6.40846 6.27575C6.31046 6.17824 6.25546 6.0449 6.25546 5.9056L7.04446 4.85883L7.36046 5.27774ZM7.07646 2.95933L7.22246 2.97525L7.28146 2.84192L7.34046 2.97525L7.48646 2.95933L7.40046 3.07675L7.48646 3.19515L7.34046 3.17923L7.28146 3.31257L7.22246 3.17923L7.07646 3.19515L7.16346 3.07675L7.07646 2.95933ZM7.62946 3.69267L7.77546 3.70859L7.83446 3.57525L7.89346 3.70859L8.03946 3.69267L7.95246 3.81008L8.03946 3.92849L7.89346 3.91257L7.83446 4.04689L7.77546 3.91257L7.62946 3.92849L7.71546 3.81008L7.62946 3.69267ZM8.18146 2.95933L8.32746 2.97525L8.38746 2.84192L8.44646 2.97525L8.59246 2.95933L8.50546 3.07675L8.59246 3.19515L8.44646 3.17923L8.38746 3.31257L8.32746 3.17923L8.18146 3.19515L8.26846 3.07675L8.18146 2.95933ZM9.10746 6.68471C9.08046 6.69665 9.05246 6.70759 9.02346 6.71456C8.88846 6.75038 8.74546 6.73147 8.62446 6.66281C8.54346 6.61605 8.45246 6.59217 8.36046 6.59217C8.26746 6.59217 8.17646 6.61704 8.09746 6.66281C8.05846 6.68471 8.01546 6.70262 7.97046 6.71456C7.83546 6.75038 7.69246 6.73147 7.57146 6.66281C7.49046 6.61605 7.39946 6.59217 7.30746 6.59217C7.21446 6.59217 7.12446 6.61704 7.04446 6.66281C7.00546 6.68471 6.96246 6.70262 6.91746 6.71456C6.79846 6.7464 6.67246 6.73545 6.56146 6.68471C6.51846 6.61704 6.47846 6.5464 6.44246 6.47575V6.47475C6.46846 6.48471 6.49346 6.49764 6.51846 6.51157C6.63946 6.58023 6.78246 6.59913 6.91746 6.56331C6.96246 6.55137 7.00546 6.53346 7.04446 6.51157C7.12446 6.4658 7.21446 6.44092 7.30746 6.44092C7.39946 6.44092 7.49046 6.4648 7.57146 6.51157C7.69246 6.58023 7.83546 6.59913 7.97046 6.56331C8.01546 6.55137 8.05846 6.53346 8.09746 6.51157C8.17646 6.4658 8.26746 6.44092 8.36046 6.44092C8.45246 6.44092 8.54346 6.4648 8.62446 6.51157C8.74546 6.58023 8.88846 6.59913 9.02346 6.56331C9.06846 6.55137 9.11146 6.53346 9.15046 6.51157C9.17446 6.49764 9.20046 6.48471 9.22646 6.47475C9.19046 6.5464 9.15046 6.61704 9.10746 6.68471ZM8.77246 7.10162C8.50546 7.3663 8.18446 7.56331 7.83446 7.68272C7.48446 7.56331 7.16346 7.3663 6.89646 7.10162C6.82546 7.02998 6.75846 6.95535 6.69746 6.87674C6.77046 6.88869 6.84446 6.88471 6.91746 6.8658C6.96246 6.85386 7.00546 6.83595 7.04446 6.81306C7.04446 6.81406 7.04546 6.81306 7.04446 6.81306C7.12446 6.76829 7.21446 6.74341 7.30746 6.74341C7.39946 6.74341 7.49046 6.76729 7.57146 6.81306C7.69246 6.88272 7.83546 6.90162 7.97046 6.8658C8.01546 6.85386 8.05846 6.83595 8.09746 6.81306C8.09746 6.81406 8.09846 6.81306 8.09746 6.81306C8.17646 6.76829 8.26746 6.74341 8.36046 6.74341C8.45246 6.74341 8.54346 6.76729 8.62446 6.81306C8.72946 6.87376 8.85246 6.89565 8.97146 6.87674C8.90946 6.95535 8.84346 7.02998 8.77246 7.10162ZM6.03446 5.54441C6.07346 6.16928 6.34046 6.76232 6.78946 7.20809C7.08446 7.50162 7.44346 7.71754 7.83446 7.84192C8.22446 7.71754 8.58446 7.50162 8.87946 7.20809C8.99146 7.09665 9.09246 6.97625 9.18146 6.84789C9.44646 6.46381 9.60546 6.01306 9.63446 5.54441L9.64846 5.32351L9.79246 3.05883C9.18146 2.79018 8.51546 2.64789 7.83446 2.64789C7.15346 2.64789 6.48746 2.79018 5.87646 3.05883L6.03446 5.54441Z" fill="#3A53A4"/>
</g>
<mask id="mask5_986_17591" style="mask-type:luminance" maskUnits="userSpaceOnUse" x="0" y="0" width="24" height="16">
<path d="M0 16H24V1.90735e-06H0V16Z" fill="white"/>
</mask>
<g mask="url(#mask5_986_17591)">
<path d="M7.77491 3.91255L7.83491 4.04688L7.89391 3.91255L8.03991 3.92847L7.95291 3.81006L8.03991 3.69265L7.89391 3.70857L7.83491 3.57523L7.77491 3.70857L7.62891 3.69265L7.71591 3.81006L7.62891 3.92847L7.77491 3.91255Z" fill="#FEE600"/>
</g>
<mask id="mask6_986_17591" style="mask-type:luminance" maskUnits="userSpaceOnUse" x="0" y="0" width="24" height="16">
<path d="M0 16H24V1.90735e-06H0V16Z" fill="white"/>
</mask>
<g mask="url(#mask6_986_17591)">
<path d="M7.22229 3.17929L7.28229 3.31262L7.34129 3.17929L7.48629 3.19521L7.40029 3.0768L7.48629 2.95939L7.34129 2.97531L7.28229 2.84198L7.22229 2.97531L7.07629 2.95939L7.16329 3.0768L7.07629 3.19521L7.22229 3.17929Z" fill="#FEE600"/>
</g>
<mask id="mask7_986_17591" style="mask-type:luminance" maskUnits="userSpaceOnUse" x="0" y="0" width="24" height="16">
<path d="M0 16H24V1.90735e-06H0V16Z" fill="white"/>
</mask>
<g mask="url(#mask7_986_17591)">
<path d="M8.32752 3.17929L8.38752 3.31262L8.44652 3.17929L8.59252 3.19521L8.50552 3.0768L8.59252 2.95939L8.44652 2.97531L8.38752 2.84198L8.32752 2.97531L8.18152 2.95939L8.26852 3.0768L8.18152 3.19521L8.32752 3.17929Z" fill="#FEE600"/>
</g>
<mask id="mask8_986_17591" style="mask-type:luminance" maskUnits="userSpaceOnUse" x="0" y="0" width="24" height="16">
<path d="M0 16H24V1.90735e-06H0V16Z" fill="white"/>
</mask>
<g mask="url(#mask8_986_17591)">
<path d="M6.25488 5.906C6.25488 6.0453 6.30988 6.17864 6.40888 6.27615C6.50788 6.37466 6.64188 6.42938 6.78088 6.42938C6.87488 6.42938 6.96488 6.4055 7.04488 6.35973C7.08388 6.33784 7.12688 6.31993 7.17188 6.30799C7.30688 6.27117 7.44988 6.29008 7.57088 6.35973C7.65188 6.4065 7.74288 6.42938 7.83488 6.42938C7.92588 6.42938 8.01688 6.4065 8.09788 6.35973C8.21788 6.29008 8.36188 6.27117 8.49688 6.30799C8.54188 6.31993 8.58488 6.33784 8.62388 6.35973C8.70288 6.4055 8.79388 6.42938 8.88688 6.42938C9.02688 6.42938 9.16088 6.37466 9.25888 6.27615C9.35788 6.17864 9.41388 6.0453 9.41388 5.906L8.62388 4.85824L8.30788 5.27814L7.83488 4.33486L7.35988 5.27814L7.04488 4.85824L6.25488 5.906Z" fill="white"/>
</g>
<mask id="mask9_986_17591" style="mask-type:luminance" maskUnits="userSpaceOnUse" x="0" y="0" width="24" height="16">
<path d="M0 16H24V1.90735e-06H0V16Z" fill="white"/>
</mask>
<g mask="url(#mask9_986_17591)">
<path d="M9.1505 6.51133C9.1115 6.53322 9.0685 6.55113 9.0235 6.56307C8.8885 6.59889 8.7455 6.57998 8.6245 6.51133C8.5435 6.46456 8.4525 6.44068 8.3605 6.44068C8.2675 6.44068 8.1765 6.46555 8.0975 6.51133C8.0585 6.53322 8.0155 6.55212 7.9705 6.56307C7.8355 6.59889 7.6925 6.57998 7.5715 6.51133C7.4905 6.46456 7.3995 6.44068 7.3075 6.44068C7.2145 6.44068 7.1245 6.46555 7.0445 6.51133C7.0045 6.53322 6.9625 6.55212 6.9175 6.56307C6.7825 6.59889 6.6395 6.57998 6.5185 6.51133C6.4935 6.49739 6.4685 6.48545 6.4425 6.4755C6.4785 6.54715 6.5185 6.6168 6.5615 6.68446C6.6725 6.73521 6.7985 6.74615 6.9175 6.71431C6.9625 6.70237 7.0045 6.68446 7.0445 6.66257C7.1245 6.6168 7.2145 6.59192 7.3075 6.59192C7.3995 6.59192 7.4905 6.6158 7.5715 6.66257C7.6925 6.73123 7.8355 6.75013 7.9705 6.71431C8.0155 6.70237 8.0585 6.68446 8.0975 6.66257C8.1765 6.6168 8.2675 6.59192 8.3605 6.59192C8.4525 6.59192 8.5435 6.6158 8.6245 6.66257C8.7455 6.73123 8.8885 6.75013 9.0235 6.71431C9.0525 6.70735 9.0805 6.6964 9.1075 6.68446C9.1505 6.6168 9.1905 6.54715 9.2265 6.47451C9.2005 6.48545 9.1745 6.49739 9.1505 6.51133Z" fill="white"/>
</g>
<mask id="mask10_986_17591" style="mask-type:luminance" maskUnits="userSpaceOnUse" x="0" y="0" width="24" height="16">
<path d="M0 16H24V1.90735e-06H0V16Z" fill="white"/>
</mask>
<g mask="url(#mask10_986_17591)">
<path d="M8.62412 6.81351C8.54312 6.76774 8.45312 6.74386 8.36112 6.74287C8.26812 6.74386 8.17712 6.76774 8.09812 6.81351C8.05812 6.83541 8.01612 6.85431 7.97012 6.86625C7.83512 6.90207 7.69212 6.88317 7.57112 6.81351C7.49012 6.76774 7.39912 6.74386 7.30812 6.74287C7.21412 6.74386 7.12412 6.76774 7.04412 6.81351C7.00512 6.83541 6.96212 6.85431 6.91712 6.86625C6.84512 6.88516 6.77012 6.88914 6.69812 6.8762C6.75912 6.9558 6.82512 7.03043 6.89612 7.10108C7.16312 7.36575 7.48412 7.56376 7.83412 7.68317C8.18412 7.56376 8.50512 7.36575 8.77212 7.10108C8.84312 7.03043 8.91012 6.9558 8.97112 6.8762C8.85212 6.8961 8.72912 6.87421 8.62412 6.81351Z" fill="white"/>
</g>
</g>
<defs>
<clipPath id="clip0_986_17591">
<rect width="24" height="16" fill="white"/>
</clipPath>
</defs>
</svg>
