<svg width="20" height="20" viewBox="0 0 20 20" fill="none" xmlns="http://www.w3.org/2000/svg">
<path d="M17.5267 0.000213623L19.9993 2.47092V17.5285L17.5306 20.0002H2.46808L0.000305176 17.5285V2.46994L2.47198 0.000213623H17.5267ZM3.04132 1.37424L1.37433 3.03928V16.9582L3.03839 18.6262H16.9603L18.6263 16.9582V3.04123L16.9583 1.37424H3.04132ZM12.4749 4.23459C12.6749 4.23459 12.8594 4.31243 12.9974 4.44943L14.4066 5.87619C14.5455 6.01412 14.6233 6.19782 14.6234 6.3967V14.8957C14.6234 14.9417 14.5918 14.9719 14.5618 14.9719H12.8587C12.8118 14.9718 12.7816 14.9417 12.7816 14.8957V11.6428C12.7814 11.4301 12.6131 11.2749 12.4134 11.2746H7.59698C7.39805 11.2746 7.22894 11.4299 7.22882 11.6428V14.8957C7.22882 14.9417 7.19867 14.9719 7.15167 14.9719H5.44855C5.40374 14.9717 5.37335 14.9416 5.37335 14.8957V6.3967C5.37343 6.19782 5.44927 6.01412 5.5882 5.87619L7.01398 4.44943C7.15188 4.31253 7.33565 4.2347 7.53448 4.23459H12.4749ZM7.59698 6.09103C7.39798 6.09103 7.22882 6.2442 7.22882 6.4592V9.05099C7.22882 9.25099 7.39798 9.41916 7.59698 9.41916H12.4134C12.6132 9.41889 12.7816 9.25083 12.7816 9.05099V6.4592C12.7816 6.24437 12.6132 6.09128 12.4134 6.09103H7.59698Z" fill="#001E28"/>
</svg>
