<svg width="24" height="16" viewBox="0 0 24 16" fill="none" xmlns="http://www.w3.org/2000/svg">
<path d="M0 16.0001H24V2.28882e-05H0V16.0001Z" fill="#F7F7F7"/>
<path d="M0 4.00006H24V1.49955H0V4.00006Z" fill="#0038B8"/>
<path d="M0 14.4996H24V11.9991H0V14.4996Z" fill="#0038B8"/>
<path d="M10.6484 6.8335L10.3094 7.41858L9.96937 6.8335H10.6484ZM9.96937 9.16585L10.3094 8.58078L10.6484 9.16585H9.96937ZM11.6604 6.2524L12.0004 5.66732L12.3384 6.2524H11.6604ZM11.3224 9.16585L10.6464 7.99968L11.3234 6.8335H12.6764L13.3534 7.99968L12.6764 9.16585H11.3224ZM12.3384 9.74795L12.0004 10.332L11.6604 9.74795H12.3384ZM14.0304 6.8335L13.6904 7.41858L13.3514 6.8335H14.0304ZM13.3514 9.16585L13.6914 8.58078L14.0304 9.16585H13.3514ZM15.0434 6.2524H13.0134L12.0004 4.50413L10.9854 6.2524H8.95837L9.97137 7.99968L8.95837 9.74795H10.9854L12.0004 11.4962L13.0134 9.74795H15.0434L14.0284 7.99968L15.0434 6.2524Z" fill="#0038B8"/>
</svg>
