<svg width="20" height="20" viewBox="0 0 20 20" fill="none" xmlns="http://www.w3.org/2000/svg">
<path d="M1.37543 18.6256V16.1522L2.41938 15.1027L8.27058 13.6493V12.0889L8.01309 11.8839C6.08069 10.338 5.14024 6.60016 6.03919 4.04229C6.46667 2.82536 7.50162 1.37343 10.0005 1.37343C12.4994 1.37343 13.5343 2.82486 13.9618 4.04229C14.4533 5.44072 14.3823 7.17664 13.9063 8.72056H15.3207C15.7747 7.00415 15.8037 5.14024 15.2577 3.58632C14.4453 1.27444 12.5779 0 9.99999 0C7.42212 0 5.55522 1.27444 4.74226 3.58632C3.71731 6.50417 4.66076 10.564 6.76166 12.6094L1.71491 13.8623L0 15.5857V19.9985H10.7085L9.32903 18.6256H1.37543Z" fill="#001E28"/>
<path d="M20 15.9117V14.1878H18.5646C18.4751 13.8258 18.3311 13.4873 18.1421 13.1768L19.1595 12.1594L17.9406 10.9405L16.9227 11.9589C16.6122 11.7704 16.2742 11.6264 15.9122 11.5374V10.1005H14.1883V11.5374C13.8263 11.6264 13.4883 11.7704 13.1778 11.9589L12.1599 10.9405L10.941 12.1594L11.9584 13.1768C11.7694 13.4873 11.6254 13.8258 11.5359 14.1878H10.1005V15.9117H11.5349C11.6239 16.2742 11.7679 16.6132 11.9569 16.9237L10.941 17.9401L12.1599 19.159L13.1753 18.1436C13.4863 18.3331 13.8253 18.4771 14.1883 18.5666V19.9995H15.9122V18.5666C16.2752 18.4776 16.6142 18.3331 16.9252 18.1436L17.9406 19.159L19.1595 17.9401L18.1436 16.9237C18.3326 16.6127 18.4766 16.2742 18.5656 15.9117H20ZM15.0503 17.3156C13.8018 17.3156 12.7864 16.3002 12.7864 15.0518C12.7864 13.8033 13.8018 12.7879 15.0503 12.7879C16.2987 12.7879 17.3141 13.8033 17.3141 15.0518C17.3141 16.3002 16.2987 17.3156 15.0503 17.3156Z" fill="#001E28"/>
</svg>
