<svg width="24" height="16" viewBox="0 0 24 16" fill="none" xmlns="http://www.w3.org/2000/svg">
<g clip-path="url(#clip0_986_17540)">
<path d="M7.1936 5.4999L10.4925 8.00032L7.2026 10.4938H24.0001V5.4999H7.1936Z" fill="#121212"/>
<path d="M6.53394 4.9994L7.19392 5.49988H23.9994V4.9994H6.53394Z" fill="white"/>
<path d="M0 3.38554e-05V0.0467987L6.53381 4.99988H23.9993V3.38554e-05H0Z" fill="#17716A"/>
<path d="M7.20267 10.4942L6.53369 10.9996H24.0002V10.4942H7.20267Z" fill="white"/>
<path d="M6.53381 11.001L0 15.9541V15.9999H23.9993V11.001H6.53381Z" fill="#FCE632"/>
<mask id="mask0_986_17540" style="mask-type:luminance" maskUnits="userSpaceOnUse" x="0" y="0" width="24" height="16">
<path d="M0 15.9996H23.9993V0.000133514H0V15.9996Z" fill="white"/>
</mask>
<g mask="url(#mask0_986_17540)">
<path d="M2.85928 6.85092L2.78728 6.77033C2.73128 6.79918 2.67228 6.79819 2.60928 6.79023L2.42429 6.58327L2.39729 6.89968L2.0813 7.29867L2.71428 7.30066L2.85928 6.85092Z" fill="#D32A40"/>
</g>
<mask id="mask1_986_17540" style="mask-type:luminance" maskUnits="userSpaceOnUse" x="0" y="0" width="24" height="16">
<path d="M0 15.9996H23.9993V0.000133514H0V15.9996Z" fill="white"/>
</mask>
<g mask="url(#mask1_986_17540)">
<path d="M2.02531 9.3981H1.75232L1.75831 9.37024L1.27533 9.94734C1.24033 9.96824 1.20533 9.97023 1.16733 9.94734L0.834342 9.55929L1.36333 9.09463C1.42832 9.04986 1.49432 9.04289 1.57032 9.03593L1.86531 8.74141H1.90631L1.93531 8.62002L1.89531 8.65285L1.91231 8.45784L0.284358 7.2917L1.22133 7.29469L1.85631 6.39919L1.99331 6.37133C1.99331 6.37133 2.2493 6.42307 2.2793 6.36039C2.3183 6.09572 2.51129 6.10268 2.63329 6.14447L2.96828 6.50765L2.96428 6.52257L3.45427 5.00023L4.02325 6.76137L4.07125 6.71361L4.28824 6.72356L4.57423 6.4579L4.58523 6.2778C4.61823 6.34745 4.77123 6.39919 4.78023 6.39919C4.79023 6.39919 4.85522 6.2987 4.89922 6.35044C4.93922 6.40914 4.89922 6.41611 4.89922 6.44894L4.93822 6.4778L6.06019 5.68976L5.03022 6.67282C4.99722 6.69073 4.94722 6.67481 4.93022 6.65988L4.30824 7.18325C4.27224 7.12952 4.22824 7.08972 4.16024 7.06584L4.12925 7.0937L4.19724 7.30265L6.62617 7.29071L5.00622 8.45286L5.24121 9.22L5.23921 9.22199C5.49221 9.51054 5.6762 9.72148 5.6762 9.72148C5.6692 9.82894 5.6462 9.85381 5.5392 9.89759L5.08622 9.38417L5.07222 9.3981C5.07222 9.3981 4.99222 9.37621 4.86822 9.35035L5.41521 11L3.45427 9.57223L1.49532 11L2.02531 9.3981ZM7.20216 10.4946L10.4911 8.00014L7.19316 5.50071L6.53318 5.00023L0.000366211 0.0471516V15.9531L6.53318 11L7.20216 10.4946Z" fill="#D32A40"/>
</g>
<mask id="mask2_986_17540" style="mask-type:luminance" maskUnits="userSpaceOnUse" x="0" y="0" width="24" height="16">
<path d="M0 15.9996H23.9993V0.000133514H0V15.9996Z" fill="white"/>
</mask>
<g mask="url(#mask2_986_17540)">
<path d="M1.98225 8.42008L2.11025 7.8778C2.11025 7.8778 2.26324 7.72259 2.27924 7.70965C2.42624 7.63602 2.95422 7.57334 2.95422 7.57334C2.95422 7.57334 2.95722 7.57433 2.96222 7.57632L3.17522 7.39921C3.17022 7.48976 3.23822 7.54747 3.30821 7.59224C3.35321 7.56936 3.38321 7.53652 3.42721 7.51264C3.41721 7.49971 3.40121 7.47483 3.39121 7.4619C3.36121 7.4818 3.33421 7.50568 3.30421 7.52558C3.27421 7.49175 3.25422 7.47085 3.22422 7.43901L3.31221 7.35344L2.85923 6.85097L2.71423 7.30071L2.08125 7.29872L1.51127 8.0171L1.07828 7.49772L1.22127 7.29573L0.284302 7.29175L1.91225 8.45789L1.91525 8.42804L1.98225 8.42008Z" fill="#FCE100"/>
</g>
<mask id="mask3_986_17540" style="mask-type:luminance" maskUnits="userSpaceOnUse" x="0" y="0" width="24" height="16">
<path d="M0 15.9996H23.9993V0.000133514H0V15.9996Z" fill="white"/>
</mask>
<g mask="url(#mask3_986_17540)">
<path d="M3.76659 7.23327L3.71959 7.13974L3.70759 7.19347L3.5636 7.32282C3.5656 7.3268 3.5996 7.36063 3.5996 7.37058C3.5996 7.37953 3.76659 7.23327 3.76659 7.23327Z" fill="#FCE100"/>
</g>
<mask id="mask4_986_17540" style="mask-type:luminance" maskUnits="userSpaceOnUse" x="0" y="0" width="24" height="16">
<path d="M0 15.9996H23.9993V0.000133514H0V15.9996Z" fill="white"/>
</mask>
<g mask="url(#mask4_986_17540)">
<path d="M3.45404 9.57192L5.41498 11.0007L4.86899 9.35103C4.587 9.29531 4.08102 9.22964 3.77303 9.3968C3.53203 9.5769 3.27804 9.52516 3.16504 9.39879H2.02508L1.49609 11.0007L3.45404 9.57192Z" fill="#FCE100"/>
</g>
<mask id="mask5_986_17540" style="mask-type:luminance" maskUnits="userSpaceOnUse" x="0" y="0" width="24" height="16">
<path d="M0 15.9996H23.9993V0.000133514H0V15.9996Z" fill="white"/>
</mask>
<g mask="url(#mask5_986_17540)">
<path d="M3.47095 7.21327C3.48095 7.23317 3.66394 7.04213 3.67894 7.03119L3.72694 7.10581L3.72594 7.10681L3.75594 7.01726L4.02293 6.76055L3.45395 4.99941L2.96496 6.52274L2.93896 6.61528C2.93896 6.61528 3.45395 7.19536 3.47095 7.21327Z" fill="#FCE100"/>
</g>
<mask id="mask6_986_17540" style="mask-type:luminance" maskUnits="userSpaceOnUse" x="0" y="0" width="24" height="16">
<path d="M0 15.9996H23.9993V0.000133514H0V15.9996Z" fill="white"/>
</mask>
<g mask="url(#mask6_986_17540)">
<path d="M3.89446 7.3605L3.74646 7.51671C3.74646 7.51671 3.77046 7.54457 3.81146 7.59034C4.38244 7.54159 4.68243 7.71969 4.68243 7.71969L4.83043 7.8779L5.00642 8.453L6.62538 7.29184L4.19745 7.30179L4.12945 7.09285L3.93345 7.262C3.93345 7.31373 3.92345 7.32766 3.89446 7.3605Z" fill="#FCE100"/>
</g>
<mask id="mask7_986_17540" style="mask-type:luminance" maskUnits="userSpaceOnUse" x="0" y="0" width="24" height="16">
<path d="M0 15.9996H23.9993V0.000133514H0V15.9996Z" fill="white"/>
</mask>
<g mask="url(#mask7_986_17540)">
<path d="M2.47648 8.27143L2.51548 8.30128L2.58447 8.24258L2.59447 8.20278C2.59447 8.20278 2.97846 7.85055 2.98846 7.85055C2.99746 7.85055 2.96846 7.81075 2.96846 7.81075L2.52548 8.16397L2.46648 8.11522V8.18387L1.93449 8.62068L1.90649 8.74207H1.94449L2.47648 8.27143Z" fill="white"/>
</g>
<mask id="mask8_986_17540" style="mask-type:luminance" maskUnits="userSpaceOnUse" x="0" y="0" width="24" height="16">
<path d="M0 15.9996H23.9993V0.000133514H0V15.9996Z" fill="white"/>
</mask>
<g mask="url(#mask8_986_17540)">
<path d="M3.77338 9.3971C4.08137 9.22995 4.58736 9.29363 4.86835 9.35134C4.99235 9.37621 5.07234 9.3981 5.07234 9.3981L5.08634 9.38417L3.56939 7.66383L3.2344 7.94839L3.0864 7.76233L3.0674 7.83098L3.1554 7.95834C3.1554 7.95834 2.94941 7.97824 2.96841 8.14441C2.9884 8.31057 3.83538 8.39913 3.83538 8.39913C3.83538 8.39913 3.82438 8.76727 3.81638 8.76429C3.50139 8.9016 2.68341 8.38918 2.68341 8.38918L2.62442 8.46778L2.71241 8.60509L2.47642 8.85981L2.58542 9.24189L2.41742 9.3593L2.28143 8.98816L2.19043 8.90856L2.39742 8.7225H2.50542C2.51542 8.7225 2.61442 8.59514 2.61442 8.59514L2.54542 8.50659L2.45642 8.57524C2.42642 8.61703 2.45442 8.63494 2.49242 8.64588C2.46042 8.6429 2.44142 8.63991 2.40942 8.63693L2.01343 8.98717C2.01643 9.02398 2.00643 9.06677 1.97443 9.10458L1.76744 9.3593L1.75844 9.36925L1.75244 9.3981H2.02543H3.1654C3.2784 9.52546 3.53139 9.5772 3.77338 9.3971Z" fill="white"/>
</g>
<mask id="mask9_986_17540" style="mask-type:luminance" maskUnits="userSpaceOnUse" x="0" y="0" width="24" height="16">
<path d="M0 15.9996H23.9993V0.000133514H0V15.9996Z" fill="white"/>
</mask>
<g mask="url(#mask9_986_17540)">
<path d="M4.68252 7.71997C4.68252 7.71997 4.38253 7.54187 3.81055 7.59062C4.02854 7.83937 4.75952 8.67318 5.2395 9.22241L5.24151 9.22042L5.00651 8.45328L4.82952 7.87718L4.68252 7.71997Z" fill="white"/>
</g>
<mask id="mask10_986_17540" style="mask-type:luminance" maskUnits="userSpaceOnUse" x="0" y="0" width="24" height="16">
<path d="M0 15.9996H23.9993V0.000133514H0V15.9996Z" fill="white"/>
</mask>
<g mask="url(#mask10_986_17540)">
<path d="M2.27929 7.70986C2.26329 7.7228 2.1103 7.87702 2.1103 7.87702L1.9823 8.42029L1.9933 8.4183L2.87027 7.69295L2.88027 7.64519L2.96227 7.57653C2.95727 7.57454 2.95427 7.57355 2.95427 7.57355C2.95427 7.57355 2.42629 7.63623 2.27929 7.70986Z" fill="white"/>
</g>
<mask id="mask11_986_17540" style="mask-type:luminance" maskUnits="userSpaceOnUse" x="0" y="0" width="24" height="16">
<path d="M0 15.9996H23.9993V0.000133514H0V15.9996Z" fill="white"/>
</mask>
<g mask="url(#mask11_986_17540)">
<path d="M3.70727 7.19379L3.71927 7.13907L3.76626 7.23359C3.76626 7.23359 3.59927 7.37986 3.59927 7.36991C3.59927 7.35996 3.56527 7.32712 3.56327 7.32215L3.70727 7.19379ZM1.97432 9.10318C2.00632 9.06637 2.01632 9.02458 2.01332 8.98677L2.4093 8.63753C2.4413 8.63952 2.4603 8.6435 2.4923 8.64549C2.4543 8.63554 2.4263 8.61663 2.4563 8.57484L2.5453 8.50718L2.6143 8.59474C2.6143 8.59474 2.5153 8.7221 2.5053 8.7221H2.3973L2.19031 8.90916L2.28131 8.98777L2.4173 9.3589L2.5843 9.24149L2.4763 8.85941L2.7123 8.60469L2.6243 8.46738L2.6833 8.38878C2.6833 8.38878 3.50127 8.9012 3.81626 8.76489C3.82426 8.76787 3.83526 8.39873 3.83526 8.39873C3.83526 8.39873 2.98829 8.31117 2.96829 8.14401C2.94929 7.97785 3.15528 7.95795 3.15528 7.95795L3.06729 7.83059L3.08628 7.76193L3.23428 7.948L3.56927 7.66442L5.08623 9.38477L5.53921 9.89818C5.64621 9.85441 5.66921 9.82854 5.67621 9.72207C5.67621 9.72207 5.49221 9.51113 5.23922 9.22258C4.75924 8.67335 4.02826 7.83855 3.81126 7.5898C3.77026 7.54403 3.74627 7.51716 3.74627 7.51716L3.89426 7.35996C3.92326 7.32812 3.93326 7.31419 3.93326 7.26245L4.12925 7.0923L4.16025 7.06643C4.22825 7.09031 4.27125 7.13011 4.30825 7.18384L4.93023 6.65848C4.94723 6.6754 4.99723 6.69132 5.03023 6.67341L6.0602 5.69036L4.93723 6.47839L4.89823 6.44854C4.89823 6.4167 4.93923 6.40775 4.89823 6.35103C4.85523 6.29929 4.79023 6.39979 4.78024 6.39979C4.77024 6.39979 4.61824 6.34606 4.58424 6.2784L4.57424 6.45849L4.28825 6.72316L4.07126 6.7142L4.02226 6.76097L3.75626 7.01768L3.72627 7.10723L3.72727 7.10524L3.67927 7.03061C3.66427 7.04156 3.48027 7.23359 3.47127 7.21369C3.45427 7.19479 2.93929 6.6157 2.93929 6.6157L2.96429 6.52317L2.96829 6.50824L2.6333 6.14507C2.5113 6.10328 2.31831 6.09631 2.27931 6.36098C2.24931 6.42367 1.99332 6.37093 1.99332 6.37093L1.85532 6.39979L1.22134 7.29528L1.07834 7.49726L1.51133 8.01665L2.08131 7.29827L2.3973 6.90027L2.4243 6.58286L2.6093 6.78982C2.6713 6.79878 2.73029 6.79878 2.78729 6.77092L2.85929 6.85052L3.31128 7.35399L3.22428 7.43856C3.25428 7.47139 3.27428 7.49229 3.30428 7.52512C3.33328 7.50522 3.36128 7.48234 3.39128 7.46244C3.40128 7.47537 3.41727 7.50025 3.42727 7.51318C3.38328 7.53706 3.35328 7.5689 3.30828 7.59278C3.23828 7.54701 3.17028 7.4903 3.17528 7.39976L2.96229 7.57587L2.88029 7.64452L2.87029 7.69328L1.99332 8.41863L1.98232 8.41962L1.91532 8.42858L1.91232 8.45843L1.89532 8.65345L1.93532 8.62061L2.4663 8.18381V8.11516L2.5253 8.16391L2.96829 7.81069C2.96829 7.81069 2.99829 7.85049 2.98829 7.85049C2.97829 7.85049 2.5943 8.20272 2.5943 8.20272L2.5843 8.24251L2.5153 8.30122L2.4763 8.27137L1.94432 8.742H1.90632H1.86532L1.57033 9.03553C1.49433 9.04249 1.42833 9.05045 1.36333 9.09522L0.834351 9.5579L1.16634 9.94694C1.20534 9.97082 1.24034 9.96883 1.27434 9.94694L1.75832 9.36984L1.76732 9.3589L1.97432 9.10318Z" fill="#010101"/>
</g>
</g>
<defs>
<clipPath id="clip0_986_17540">
<rect width="24" height="16" fill="white"/>
</clipPath>
</defs>
</svg>
