<svg width="20" height="20" viewBox="0 0 20 20" fill="none" xmlns="http://www.w3.org/2000/svg">
<g clip-path="url(#clip0_8438_68194)">
<path d="M5.87357 7.14131H3.09709V8.52965H4.48503V11.3057H3.09658V12.694H7.26201V11.3057H5.87357V7.14131Z" fill="#001E28"/>
<path d="M5.87347 4.82734H4.48503V6.21568H5.87347V4.82734Z" fill="#001E28"/>
<path d="M17.5277 0H2.47146L0 2.47156V17.5302L2.46894 20H17.5303L20 17.5302V2.47156L17.5277 0ZM18.6258 16.9603L16.9611 18.6259H3.03879L1.37407 16.9603V3.04131L3.04121 1.37407H16.9588L18.6259 3.04131L18.6258 16.9603Z" fill="#001E28"/>
<path d="M16.9035 4.85337H8.62764V6.21859H16.9035V4.85337Z" fill="#001E28"/>
<path d="M16.9035 7.61126H8.62764V8.97648H16.9035V7.61126Z" fill="#001E28"/>
<path d="M16.9035 10.37H8.62764V11.7353H16.9035V10.37Z" fill="#001E28"/>
<path d="M16.9035 13.1288H8.62764V14.4941H16.9035V13.1288Z" fill="#001E28"/>
</g>
<defs>
<clipPath id="clip0_8438_68194">
<rect width="20" height="20" fill="white"/>
</clipPath>
</defs>
</svg>
