<svg width="20" height="20" viewBox="0 0 20 20" fill="none" xmlns="http://www.w3.org/2000/svg">
<path fill-rule="evenodd" clip-rule="evenodd" d="M14.079 14.4885L13.129 13.5385L14.407 9.60749L15.823 9.18149L18.59 10.7365C18.477 12.0785 18.057 13.3555 17.364 14.4885H14.079ZM16.096 16.0955C15.371 16.8215 14.538 17.4005 13.636 17.8215L14.29 15.8675H16.315C16.244 15.9445 16.171 16.0205 16.096 16.0955V16.0955ZM11.925 12.9305H8.076L6.887 9.27049L10 7.00949L13.114 9.27049L11.925 12.9305ZM11.99 18.3905C11.346 18.5425 10.679 18.6205 10 18.6205C9.322 18.6205 8.655 18.5425 8.011 18.3905L6.997 15.3635L8.096 14.2645H11.905L13.004 15.3635L11.99 18.3905ZM5.922 14.4885H2.637C1.944 13.3555 1.524 12.0785 1.411 10.7365L4.178 9.18249L5.595 9.60949L6.871 13.5385L5.922 14.4885ZM3.905 16.0955C3.83 16.0205 3.757 15.9445 3.686 15.8675H5.711L6.365 17.8215C5.462 17.4005 4.63 16.8215 3.905 16.0955V16.0955ZM2.522 5.70449L3.271 8.10949L1.421 9.14849C1.54 7.92549 1.916 6.75649 2.522 5.70449V5.70449ZM3.905 3.90449C4.569 3.24049 5.323 2.69749 6.139 2.28849L9.311 4.50349V5.86149L5.977 8.28449L4.645 7.88349L3.531 4.30249C3.651 4.16749 3.775 4.03349 3.905 3.90449V3.90449ZM10 1.37949C10.792 1.37949 11.567 1.48549 12.309 1.69049L10 3.30249L7.692 1.69049C8.434 1.48549 9.209 1.37949 10 1.37949V1.37949ZM16.096 3.90449C16.225 4.03349 16.35 4.16749 16.47 4.30249L15.355 7.88249L14.022 8.28249L10.69 5.86149V4.50349L13.862 2.28849C14.678 2.69749 15.432 3.24049 16.096 3.90449V3.90449ZM17.478 5.70449C18.084 6.75649 18.461 7.92549 18.58 9.14849L16.729 8.10949L17.478 5.70449ZM17.072 2.92849C15.183 1.04049 12.671 0.000488281 10 0.000488281C7.329 0.000488281 4.818 1.04049 2.929 2.92849C1.04 4.81749 0 7.32949 0 10.0005C0 12.6715 1.04 15.1815 2.929 17.0715C4.818 18.9605 7.329 20.0005 10 20.0005C12.671 20.0005 15.183 18.9605 17.072 17.0715C18.96 15.1815 20 12.6715 20 10.0005C20 7.32949 18.96 4.81749 17.072 2.92849V2.92849Z" fill="#001E28"/>
</svg>
