<svg width="20" height="20" viewBox="0 0 20 20" fill="none" xmlns="http://www.w3.org/2000/svg">
<path d="M12.4082 17.8584H9.39844L3.87695 13.0283H0V6.83008H3.87695L9.39844 2H12.4082V17.8584ZM16.6816 2.1875C18.8215 4.22541 19.9999 6.97486 20 9.92871C20 12.8817 18.8216 15.6319 16.6816 17.6699L15.7393 16.6807C17.6051 14.9027 18.6328 12.5036 18.6328 9.92871C18.6327 7.35186 17.6052 4.95369 15.7393 3.17578L16.6816 2.1875ZM4.39062 8.19727L1.36719 8.2041V11.6611H4.39062L9.91211 16.4922H11.041V3.36621H9.91211L4.39062 8.19727ZM15.0127 5.72754C15.9155 6.95138 16.3925 8.40397 16.3926 9.92871C16.3926 11.4546 15.9156 12.9079 15.0127 14.1309L13.9121 13.3203C14.6411 12.3313 15.0254 11.1607 15.0254 9.92871C15.0253 8.69793 14.6409 7.52594 13.9121 6.53809L15.0127 5.72754Z" fill="#001E28"/>
</svg>
