<svg width="24" height="16" viewBox="0 0 24 16" fill="none" xmlns="http://www.w3.org/2000/svg">
<g clip-path="url(#clip0_986_17632)">
<mask id="mask0_986_17632" style="mask-type:luminance" maskUnits="userSpaceOnUse" x="0" y="0" width="24" height="16">
<path d="M0 16H24V1.90735e-06H0V16Z" fill="white"/>
</mask>
<g mask="url(#mask0_986_17632)">
<path d="M6.40373 3.6859L6.63072 2.99037L6.85773 3.6859H7.59273L6.99872 4.11575L7.22673 4.81127L6.63173 4.38142L6.03673 4.81127L6.26373 4.11674L5.66873 3.6859H6.40373ZM8.38673 3.07893L8.61373 2.38341L8.84173 3.07893L9.57673 3.07794L8.98173 3.50878L9.20973 4.20431L8.61373 3.77445L8.02073 4.20431L8.24673 3.50878L7.65173 3.07993L8.38673 3.07893ZM9.65573 7.7446C9.69073 7.70679 9.72672 7.66898 9.76272 7.63316C9.82372 7.62122 9.87972 7.59734 9.92072 7.55356C9.98273 7.50679 10.0617 7.48291 10.1327 7.44809C10.1157 7.43217 10.0807 7.40132 10.0637 7.3854C10.0607 7.30978 10.0037 7.25605 9.93673 7.21724C9.93573 7.14261 9.93573 7.06699 9.93773 6.99236C9.98773 6.95157 10.0367 6.90878 10.0837 6.86401H10.2127C10.2887 6.77147 10.3837 6.69187 10.4837 6.62022V6.53565C10.5087 6.53565 10.5587 6.53664 10.5837 6.53664C10.5927 6.59137 10.6447 6.59634 10.6957 6.59734C10.7197 6.56749 10.7467 6.54062 10.7777 6.51575C10.7787 6.49883 10.7817 6.46401 10.7837 6.44709C10.8777 6.39137 10.8147 6.266 10.8347 6.18142C10.8807 6.13963 10.9457 6.10779 10.9667 6.04908C10.9477 5.99037 10.8817 5.96052 10.8377 5.91873C10.8697 5.78142 10.7287 5.71973 10.6507 5.62819C10.6147 5.62421 10.5787 5.62023 10.5437 5.61724C10.5317 5.57147 10.5367 5.51475 10.4857 5.48689C10.4837 5.42122 10.4837 5.35654 10.4837 5.29187C10.6367 5.28789 10.7917 5.30082 10.9457 5.2849C10.9527 5.27396 10.9677 5.25008 10.9757 5.23814C11.0407 5.20231 11.1127 5.17644 11.1707 5.13067C11.2347 5.12868 11.2987 5.12868 11.3627 5.12769C11.3937 5.09286 11.4247 5.05804 11.4567 5.02321C11.4827 5.02421 11.5347 5.0252 11.5617 5.0262C11.5637 5.01127 11.5677 4.98142 11.5697 4.96749C11.6067 4.96649 11.6777 4.9645 11.7137 4.96351C11.7987 5.04311 11.8857 5.11973 11.9727 5.19834C11.9717 5.25804 11.9987 5.30182 12.0667 5.31973C12.0067 5.33266 11.9457 5.33863 11.8837 5.3446C11.8597 5.37445 11.8277 5.39933 11.7907 5.41625C11.8017 5.5058 11.8907 5.55555 11.9527 5.61625C12.0177 5.62122 12.0897 5.61923 12.1387 5.665C12.1857 5.666 12.2337 5.66699 12.2807 5.66799V5.83416C12.3407 5.82819 12.4137 5.83814 12.4307 5.77246C12.5337 5.77147 12.6377 5.77047 12.7417 5.77246C12.7687 5.82421 12.8327 5.8262 12.8837 5.84809C12.8907 5.87794 12.9037 5.93565 12.9087 5.9645C12.9607 5.90381 13.0107 5.8262 13.1067 5.82321C13.1357 5.86003 13.1667 5.89684 13.1987 5.93366C13.2527 5.93764 13.3087 5.94162 13.3327 5.99435L13.4277 5.99833C13.4297 6.10082 13.4207 6.2053 13.4347 6.30779C13.4487 6.31575 13.4777 6.33067 13.4927 6.33863C13.4937 6.42222 13.4937 6.5048 13.4917 6.58838C13.5497 6.63117 13.6467 6.67097 13.6967 6.59435H13.7797C13.8147 6.64112 13.8587 6.68092 13.9107 6.71177C13.9107 6.79237 13.9107 6.87396 13.9117 6.95455C14.0317 6.99336 13.9547 7.13963 13.9777 7.22818C14.0377 7.265 14.0867 7.31376 14.1147 7.37545C14.1317 7.34759 14.1497 7.32072 14.1677 7.29286C14.2367 7.29386 14.3057 7.29485 14.3747 7.29684C14.4057 7.33067 14.4377 7.36251 14.4697 7.39535C14.4837 7.40829 14.5127 7.43615 14.5277 7.45008C14.5747 7.46102 14.6227 7.47396 14.6607 7.50381C14.7017 7.5058 14.7417 7.50878 14.7827 7.51077C14.8167 7.57744 14.8997 7.56749 14.9667 7.58042C14.9437 7.59535 14.8987 7.6252 14.8757 7.64112C14.8737 7.77644 14.8867 7.91276 14.8697 8.04709C14.8557 8.05505 14.8277 8.06898 14.8137 8.07595C14.8127 8.1446 14.7987 8.21227 14.7477 8.26799C14.7787 8.26699 14.8427 8.26699 14.8737 8.26699C14.8757 8.28291 14.8787 8.31475 14.8797 8.33067H14.9387C14.9407 8.31475 14.9437 8.28291 14.9457 8.26699H15.0557C15.0567 8.28291 15.0597 8.31276 15.0607 8.32769C15.1267 8.33764 15.2217 8.3048 15.2577 8.37445C15.4277 8.37744 15.5977 8.37545 15.7687 8.37445C15.7697 8.39535 15.7737 8.43515 15.7747 8.45605C15.8007 8.48291 15.8267 8.51077 15.8537 8.53764C15.9097 8.53764 15.9677 8.53764 16.0247 8.53863L16.0207 8.63018C16.0717 8.67197 16.1297 8.70978 16.2037 8.70878C16.2037 8.68092 16.2047 8.6252 16.2057 8.59634C16.2337 8.59734 16.2887 8.59734 16.3167 8.59833C16.3197 8.58241 16.3237 8.55057 16.3257 8.53565C16.4057 8.53963 16.5107 8.51674 16.5307 8.61425C16.5467 8.59236 16.5797 8.54858 16.5967 8.52669C16.6507 8.54062 16.6947 8.57246 16.7387 8.60231C16.7387 8.62222 16.7407 8.66401 16.7407 8.6849C16.8327 8.70182 16.7967 8.79137 16.8057 8.85306C16.7657 8.87993 16.7267 8.90779 16.6877 8.93565C16.6887 9.02122 16.6877 9.10679 16.6857 9.19236C16.6567 9.19336 16.5997 9.19435 16.5707 9.19535C16.5717 9.29286 16.5717 9.39037 16.5707 9.48888C16.5067 9.53664 16.4467 9.58938 16.3857 9.64112V9.82122C16.3417 9.85406 16.2997 9.88689 16.2557 9.91973C16.2567 9.93863 16.2567 9.97644 16.2567 9.99535C16.2107 10.0332 16.1577 10.063 16.0937 10.07C16.0647 10.1008 16.0347 10.1337 16.0067 10.1665C15.9867 10.1715 15.9457 10.1804 15.9257 10.1854C15.9587 10.2033 15.9917 10.2202 16.0257 10.2381C16.0237 10.3565 16.0237 10.474 16.0247 10.5924C15.9447 10.6521 15.8417 10.6491 15.7437 10.6491L15.6417 10.7595C15.5697 10.7585 15.5187 10.8023 15.4737 10.8471C15.4757 10.9028 15.4757 10.9595 15.4787 11.0162C15.5897 11.069 15.6317 11.2143 15.7737 11.2083C15.7757 11.3028 15.7937 11.4103 15.6947 11.471C15.6497 11.47 15.6047 11.469 15.5607 11.469C15.4917 11.5585 15.3417 11.4978 15.2387 11.5138C15.2387 11.4879 15.2387 11.4371 15.2397 11.4113L15.1437 11.4083C15.1117 11.4421 15.0787 11.4759 15.0457 11.5088C14.9887 11.5148 14.9427 11.5406 14.8987 11.5705C14.8297 11.5754 14.7617 11.5735 14.6937 11.5725C14.6927 11.5884 14.6897 11.6202 14.6887 11.6361C14.6367 11.6351 14.5857 11.6342 14.5347 11.6332C14.4917 11.672 14.4567 11.7177 14.4527 11.7735C14.4177 11.8013 14.3827 11.8282 14.3467 11.856C14.3497 11.9227 14.3507 11.9934 14.2727 12.0252C14.2887 12.0988 14.2267 12.2302 14.3447 12.2521C14.3437 12.2789 14.3417 12.3058 14.3407 12.3327C14.1807 12.3386 14.0207 12.3366 13.8607 12.3366C13.8597 12.2879 13.8587 12.2391 13.8587 12.1904C13.7417 12.1615 13.8127 12.0272 13.7927 11.9496C13.7767 11.9486 13.7417 11.9466 13.7247 11.9456C13.7247 11.9217 13.7247 11.874 13.7257 11.8501C13.6737 11.8451 13.6127 11.8521 13.5917 11.7983C13.5677 11.7983 13.5207 11.7993 13.4977 11.7993C13.4947 11.7595 13.4917 11.7207 13.4897 11.6809H13.1957C13.1947 11.7008 13.1917 11.7416 13.1907 11.7625L13.1087 11.8441C13.0587 11.8441 13.0087 11.8441 12.9597 11.8451C12.9337 11.8779 12.9077 11.9128 12.8827 11.9466C12.8097 11.9476 12.7377 11.9486 12.6657 11.9506C12.6397 11.9784 12.6117 12.0033 12.5807 12.0262C12.5807 12.0471 12.5787 12.0879 12.5777 12.1088C12.5227 12.1138 12.4617 12.1138 12.4457 12.1735C12.3987 12.1735 12.3507 12.1725 12.3037 12.1735C12.2737 12.2073 12.2437 12.2431 12.2147 12.2779C12.1257 12.2779 12.0377 12.2769 11.9487 12.2789C11.9077 12.3715 11.7837 12.3267 11.6987 12.3386C11.6637 12.3844 11.6197 12.4232 11.5677 12.4531C11.5667 12.5038 11.5657 12.5546 11.5657 12.6053C11.5487 12.6063 11.5137 12.6083 11.4967 12.6103C11.4957 12.659 11.4947 12.7068 11.4947 12.7565C11.4557 12.7844 11.4167 12.8123 11.3777 12.8411C11.3817 12.9725 11.3817 13.1048 11.3787 13.2371C11.4177 13.265 11.4567 13.2939 11.4957 13.3217C11.4967 13.4381 11.4957 13.5546 11.4967 13.671C11.4687 13.6949 11.4427 13.7187 11.4157 13.7426C11.3907 13.7436 11.3407 13.7446 11.3157 13.7456C11.3157 13.7675 11.3137 13.8133 11.3137 13.8361L11.2357 13.9058H10.9137C10.8637 13.9625 10.8127 14.0172 10.7617 14.072C10.6897 14.072 10.6177 14.072 10.5467 14.071C10.5357 14.0212 10.5247 13.9715 10.4867 13.9317C10.4817 13.8033 10.4847 13.675 10.4847 13.5466C10.5437 13.4939 10.6027 13.4401 10.6637 13.3894C10.6647 13.3337 10.6647 13.2779 10.6647 13.2222C10.6497 13.2143 10.6197 13.2003 10.6047 13.1924C10.5917 13.0172 10.6037 12.8421 10.6007 12.666H10.4937C10.4837 12.6123 10.4957 12.5416 10.4147 12.5356C10.4137 12.4043 10.4137 12.272 10.4167 12.1416C10.3807 12.1128 10.3447 12.0849 10.3097 12.058C10.2997 12.0073 10.2997 11.9486 10.2347 11.9297C10.2337 11.8919 10.2327 11.8531 10.2327 11.8152C10.1547 11.7854 10.1677 11.674 10.2497 11.659C10.1817 11.6043 10.1187 11.5466 10.0527 11.4909C10.0527 11.473 10.0517 11.4371 10.0517 11.4182C9.97673 11.4053 9.90873 11.3725 9.83473 11.3546C9.81373 11.3068 9.76272 11.3028 9.71272 11.3008C9.70072 11.2889 9.67773 11.266 9.66573 11.2541C9.61873 11.2491 9.57973 11.2312 9.54873 11.2033C9.52672 11.2023 9.48472 11.2013 9.46272 11.2013C9.43572 11.0978 9.38272 11.0013 9.39773 10.8909C9.36872 10.867 9.34072 10.8421 9.31472 10.8152C9.16572 10.8093 9.01772 10.8172 8.86872 10.8123C8.83072 10.8143 8.79973 10.8023 8.77273 10.7784C8.73872 10.7486 8.70473 10.7187 8.66973 10.6919C8.66773 10.6023 8.67373 10.5128 8.66573 10.4242C8.63873 10.3625 8.59573 10.3088 8.55573 10.2551C8.55472 10.2352 8.55373 10.1953 8.55173 10.1745C8.53573 10.1725 8.50272 10.1685 8.48672 10.1655V10.0829C8.41473 10.0441 8.44372 9.96251 8.43272 9.90281C8.37372 9.90082 8.31472 9.89883 8.25572 9.89784C8.25572 9.87694 8.25473 9.83615 8.25473 9.81525C8.22473 9.79037 8.19473 9.7645 8.16572 9.73963C8.14073 9.73863 8.09272 9.73664 8.06973 9.73565C8.06872 9.71376 8.06773 9.67197 8.06773 9.65107C8.01272 9.61923 7.99773 9.56948 7.99973 9.51376C8.02973 9.51276 8.09073 9.51077 8.12073 9.50978C8.12073 9.41127 8.12173 9.31276 8.11573 9.21525C8.08073 9.15356 8.04973 9.08789 7.99273 9.04013C7.97873 9.02421 7.94973 8.99236 7.93473 8.97744C7.91373 8.97545 7.87173 8.97246 7.85073 8.97147C7.82473 8.94759 7.79873 8.92371 7.77173 8.90082V8.77943C7.68073 8.76251 7.71473 8.67296 7.70273 8.61326C7.59373 8.54858 7.68872 8.42819 7.72073 8.34858C7.74073 8.3247 7.76272 8.30281 7.78673 8.28291C7.82772 8.2461 7.86373 8.2053 7.89773 8.16351H8.05573C8.08673 8.20032 8.11872 8.23615 8.14972 8.27197C8.17572 8.27097 8.22872 8.26699 8.25572 8.266V8.37545C8.45272 8.37545 8.65073 8.37545 8.84873 8.37644C8.85373 8.3257 8.84372 8.26202 8.91772 8.25008C8.91972 8.14858 8.91873 8.0461 8.92273 7.9446C8.99173 7.94062 9.07073 7.95256 9.12273 7.89883C9.14573 7.89684 9.19273 7.89485 9.21673 7.89386V7.72868C9.31173 7.72868 9.40773 7.73366 9.50373 7.7257C9.51173 7.70978 9.52772 7.67893 9.53572 7.66401C9.59972 7.66102 9.63873 7.69087 9.65573 7.7446ZM10.5227 2.62321L10.7497 1.92769L10.9767 2.62321L11.7127 2.62222L11.1177 3.05306L11.3457 3.74858L10.7507 3.31873L10.1557 3.74858L10.3827 3.05306L9.78773 2.62421L10.5227 2.62321ZM12.8117 2.62321L13.0387 1.92769L13.2657 2.62321L14.0007 2.62421L13.4057 3.05306L13.6327 3.74858L13.0377 3.31873L12.4427 3.74858L12.6707 3.05306L12.0757 2.62222L12.8117 2.62321ZM14.9467 3.07893L15.1747 2.38341L15.4017 3.07893L16.1367 3.07993L15.5417 3.50878L15.7687 4.20431L15.1737 3.77445L14.5787 4.20431L14.8067 3.50878L14.2117 3.07794L14.9467 3.07893ZM16.9307 3.6859L17.1577 2.99037L17.3847 3.6859H18.1197L17.5247 4.11674L17.7517 4.81127L17.1567 4.38142L16.5617 4.81127L16.7897 4.11575L16.1957 3.6859H16.9307ZM-0.000274658 15.9993H23.9997V-0.000669479H-0.000274658V15.9993Z" fill="#20519F"/>
</g>
<mask id="mask1_986_17632" style="mask-type:luminance" maskUnits="userSpaceOnUse" x="0" y="0" width="24" height="16">
<path d="M0 16H24V1.90735e-06H0V16Z" fill="white"/>
</mask>
<g mask="url(#mask1_986_17632)">
<path d="M9.50346 7.72545C9.40846 7.73341 9.31246 7.72843 9.21646 7.72843V7.89361C9.19246 7.8946 9.14646 7.89759 9.12246 7.89858C9.07146 7.95231 8.99246 7.94037 8.92246 7.94535C8.91946 8.04684 8.91946 8.14833 8.91746 8.24983C8.84346 8.26177 8.85446 8.32545 8.84846 8.37719C8.65046 8.3752 8.45346 8.37619 8.25546 8.37619V8.26575C8.22946 8.26774 8.17646 8.27072 8.14946 8.27172C8.11846 8.2359 8.08646 8.20107 8.05646 8.16425C8.00346 8.16425 7.95046 8.16326 7.89846 8.16425C7.86446 8.20605 7.82846 8.24585 7.78746 8.28266C7.76346 8.30356 7.74146 8.32545 7.72046 8.34833C7.68946 8.42893 7.59346 8.54833 7.70346 8.61301C7.71446 8.67371 7.68046 8.76226 7.77146 8.77918C7.77146 8.81998 7.77246 8.86077 7.77246 8.90057C7.79846 8.92445 7.82446 8.94734 7.85146 8.97122C7.87246 8.97321 7.91446 8.9752 7.93546 8.97719C7.94946 8.99311 7.97846 9.02495 7.99346 9.04087C8.05046 9.08863 8.08046 9.1543 8.11646 9.215C8.12246 9.31351 8.12146 9.41102 8.12146 9.50953C8.09046 9.51052 8.03046 9.51251 8.00046 9.51351C7.99846 9.56923 8.01246 9.61998 8.06746 9.65082C8.06746 9.67172 8.06846 9.7145 8.06946 9.7354C8.09346 9.73639 8.14146 9.73838 8.16546 9.73938C8.19446 9.76525 8.22446 9.79012 8.25446 9.816C8.25446 9.8359 8.25546 9.87769 8.25546 9.89858C8.31446 9.89958 8.37346 9.90057 8.43246 9.90256C8.44346 9.96326 8.41546 10.0449 8.48646 10.0827V10.1662C8.50346 10.1682 8.53546 10.1722 8.55246 10.1752C8.55346 10.1951 8.55546 10.2349 8.55546 10.2548C8.59646 10.3095 8.63946 10.3623 8.66546 10.424C8.67346 10.5135 8.66746 10.6021 8.67046 10.6916C8.70546 10.7195 8.73946 10.7483 8.77246 10.7792C8.79946 10.8031 8.83146 10.814 8.86946 10.813C9.01746 10.817 9.16646 10.81 9.31446 10.815C9.34046 10.8419 9.36846 10.8677 9.39846 10.8916C9.38246 11.0011 9.43646 11.0976 9.46246 11.2011C9.48446 11.2021 9.52646 11.2031 9.54846 11.2031C9.58046 11.2319 9.61946 11.2498 9.66546 11.2548C9.67746 11.2657 9.70146 11.2896 9.71246 11.3006C9.76246 11.3036 9.81446 11.3075 9.83546 11.3543C9.90846 11.3722 9.97646 11.4051 10.0515 11.419C10.0515 11.4369 10.0525 11.4737 10.0535 11.4916C10.1185 11.5473 10.1815 11.6051 10.2495 11.6588C10.1675 11.6747 10.1555 11.7851 10.2325 11.816C10.2325 11.8538 10.2335 11.8916 10.2345 11.9294C10.2995 11.9483 10.2995 12.007 10.3095 12.0578C10.3445 12.0856 10.3805 12.1135 10.4175 12.1414C10.4135 12.2727 10.4145 12.4041 10.4145 12.5354C10.4955 12.5424 10.4835 12.613 10.4935 12.6667H10.6005C10.6045 12.8419 10.5915 13.018 10.6055 13.1931C10.6195 13.2001 10.6495 13.215 10.6645 13.222C10.6655 13.2777 10.6645 13.3344 10.6645 13.3901C10.6025 13.4409 10.5445 13.4936 10.4845 13.5463C10.4845 13.6747 10.4815 13.8031 10.4875 13.9324C10.5245 13.9712 10.5365 14.022 10.5465 14.0707C10.6175 14.0717 10.6905 14.0717 10.7615 14.0717C10.8135 14.017 10.8645 13.9633 10.9135 13.9065C11.0205 13.9055 11.1285 13.9055 11.2355 13.9055L11.3135 13.8359C11.3145 13.814 11.3155 13.7682 11.3155 13.7453C11.3405 13.7444 11.3915 13.7434 11.4155 13.7434C11.4425 13.7185 11.4695 13.6946 11.4965 13.6707V13.3225C11.4565 13.2936 11.4175 13.2648 11.3785 13.2369C11.3815 13.1055 11.3815 12.9732 11.3775 12.8419C11.4165 12.813 11.4555 12.7842 11.4955 12.7573C11.4955 12.7075 11.4965 12.6588 11.4965 12.61C11.5145 12.609 11.5485 12.607 11.5665 12.606C11.5665 12.5543 11.5665 12.5036 11.5675 12.4528C11.6205 12.424 11.6635 12.3842 11.6995 12.3394C11.7845 12.3264 11.9075 12.3712 11.9495 12.2787C12.0375 12.2777 12.1265 12.2777 12.2145 12.2787C12.2435 12.2449 12.2735 12.208 12.3035 12.1732H12.4465C12.4615 12.1145 12.5225 12.1135 12.5785 12.1095C12.5795 12.0886 12.5805 12.0478 12.5815 12.0269C12.6115 12.0041 12.6395 11.9782 12.6655 11.9513C12.7375 11.9483 12.8105 11.9473 12.8825 11.9463C12.9085 11.9125 12.9345 11.8787 12.9605 11.8449C13.0095 11.8449 13.0595 11.8439 13.1085 11.8439C13.1355 11.816 13.1625 11.7891 13.1905 11.7623C13.1915 11.7424 13.1945 11.7016 13.1965 11.6817H13.4895C13.4925 11.7205 13.4955 11.7593 13.4985 11.7991H13.5915C13.6135 11.8518 13.6735 11.8449 13.7255 11.8498C13.7255 11.8737 13.7255 11.9225 13.7245 11.9463C13.7415 11.9473 13.7765 11.9493 13.7935 11.9503C13.8135 12.0279 13.7425 12.1613 13.8585 12.1911C13.8585 12.2389 13.8595 12.2876 13.8605 12.3364C14.0215 12.3364 14.1805 12.3384 14.3415 12.3334C14.3425 12.3065 14.3435 12.2787 14.3445 12.2518C14.2275 12.2309 14.2885 12.0996 14.2735 12.025C14.3505 11.9941 14.3495 11.9225 14.3475 11.8558C14.3825 11.8289 14.4175 11.8011 14.4535 11.7742C14.4565 11.7175 14.4915 11.6717 14.5345 11.6339C14.5855 11.6349 14.6365 11.6359 14.6885 11.6369C14.6905 11.621 14.6925 11.5891 14.6935 11.5732C14.7615 11.5732 14.8305 11.5752 14.8995 11.5712C14.9425 11.5404 14.9895 11.5155 15.0455 11.5085C15.0785 11.4757 15.1115 11.4429 15.1445 11.409C15.1755 11.41 15.2075 11.41 15.2395 11.411V11.5145C15.3425 11.4986 15.4925 11.5593 15.5605 11.4697C15.6055 11.4697 15.6495 11.4707 15.6945 11.4717C15.7935 11.41 15.7755 11.3026 15.7745 11.208C15.6315 11.214 15.5895 11.0687 15.4795 11.016C15.4765 10.9593 15.4755 10.9036 15.4735 10.8468C15.5185 10.8021 15.5695 10.7593 15.6425 10.7593C15.6765 10.7225 15.7105 10.6856 15.7445 10.6488C15.8415 10.6488 15.9445 10.6518 16.0245 10.5931C16.0235 10.4747 16.0235 10.3573 16.0255 10.2389C15.9925 10.221 15.9595 10.2031 15.9265 10.1861C15.9465 10.1812 15.9865 10.1712 16.0065 10.1662C16.0345 10.1334 16.0645 10.1016 16.0945 10.0697C16.1575 10.0628 16.2105 10.0329 16.2565 9.9961C16.2565 9.97719 16.2565 9.93938 16.2555 9.92047C16.2995 9.88664 16.3425 9.85381 16.3865 9.82097C16.3865 9.76127 16.3855 9.70057 16.3865 9.64087C16.4465 9.58913 16.5065 9.53639 16.5715 9.48863C16.5725 9.39012 16.5715 9.29261 16.5715 9.1951C16.6005 9.1951 16.6575 9.19311 16.6865 9.19311C16.6885 9.10754 16.6885 9.02097 16.6875 8.9354C16.7265 8.90754 16.7655 8.87968 16.8055 8.85281C16.7965 8.79211 16.8335 8.70157 16.7415 8.68465C16.7405 8.66376 16.7395 8.62296 16.7385 8.60207C16.6945 8.57321 16.6505 8.54037 16.5965 8.52644L16.5305 8.61401C16.5115 8.51749 16.4065 8.54037 16.3255 8.5354C16.3235 8.55132 16.3195 8.58216 16.3165 8.59808C16.2895 8.59709 16.2335 8.59709 16.2055 8.5961C16.2055 8.62495 16.2045 8.68067 16.2045 8.70953C16.1295 8.70953 16.0725 8.67271 16.0205 8.62993C16.0215 8.60704 16.0245 8.56226 16.0245 8.53938C15.9675 8.53838 15.9105 8.53838 15.8535 8.53838C15.8275 8.51052 15.8015 8.48266 15.7745 8.4558C15.7745 8.4359 15.7705 8.3951 15.7685 8.3752C15.5985 8.37619 15.4285 8.37719 15.2575 8.3742C15.2215 8.30555 15.1265 8.33838 15.0605 8.32744C15.0595 8.31251 15.0565 8.28266 15.0555 8.26774C15.0185 8.26674 14.9825 8.26674 14.9455 8.26674C14.9435 8.28266 14.9405 8.3145 14.9385 8.33042H14.8795C14.8785 8.3145 14.8765 8.28266 14.8745 8.26674C14.8425 8.26674 14.7795 8.26774 14.7485 8.26774C14.7985 8.21301 14.8125 8.14535 14.8135 8.07669C14.8275 8.06873 14.8555 8.0548 14.8695 8.04784C14.8875 7.91251 14.8735 7.77619 14.8765 7.64187C14.8985 7.62595 14.9435 7.5961 14.9665 7.58017C14.8995 7.56724 14.8165 7.57719 14.7835 7.51052C14.7425 7.50853 14.7015 7.50654 14.6615 7.50356C14.6235 7.4747 14.5755 7.46077 14.5275 7.44983C14.5135 7.4359 14.4835 7.40903 14.4695 7.3951C14.4375 7.36326 14.4055 7.33042 14.3755 7.29759C14.3055 7.2956 14.2365 7.2946 14.1675 7.29361C14.1495 7.32047 14.1315 7.34833 14.1155 7.3752C14.0865 7.31351 14.0385 7.26475 13.9775 7.22794C13.9555 7.13938 14.0315 6.99311 13.9115 6.9543C13.9115 6.87371 13.9115 6.79311 13.9105 6.71152C13.8585 6.68067 13.8155 6.64087 13.7795 6.5951C13.7525 6.5941 13.7245 6.5951 13.6975 6.5951C13.6465 6.67172 13.5505 6.63192 13.4925 6.58813C13.4935 6.50455 13.4935 6.42197 13.4925 6.33838C13.4785 6.33142 13.4495 6.3155 13.4355 6.30754C13.4205 6.20505 13.4295 6.10157 13.4285 5.99809L13.3325 5.99411C13.3095 5.94236 13.2525 5.93739 13.1985 5.93341C13.1675 5.89759 13.1365 5.85978 13.1065 5.82296C13.0105 5.82595 12.9615 5.90356 12.9095 5.96425C12.9035 5.9354 12.8905 5.87769 12.8835 5.84883C12.8335 5.82694 12.7685 5.82396 12.7415 5.77321C12.6385 5.77122 12.5345 5.77122 12.4315 5.77221C12.4145 5.83888 12.3405 5.82893 12.2815 5.83391C12.2805 5.77818 12.2805 5.72346 12.2805 5.66774C12.2335 5.66774 12.1865 5.66575 12.1385 5.66475C12.0895 5.61998 12.0175 5.62197 11.9535 5.616C11.8915 5.5553 11.8015 5.50654 11.7905 5.41699C11.8285 5.39908 11.8595 5.3752 11.8845 5.34435C11.9455 5.33838 12.0065 5.33341 12.0665 5.31948C11.9995 5.30157 11.9715 5.25779 11.9735 5.19808C11.8865 5.12047 11.7985 5.04386 11.7135 4.96425C11.6785 4.96525 11.6065 4.96624 11.5695 4.96724C11.5675 4.98217 11.5635 5.01102 11.5615 5.02595C11.5355 5.02595 11.4825 5.02396 11.4565 5.02296C11.4255 5.05779 11.3945 5.09261 11.3635 5.12843C11.2985 5.12843 11.2345 5.12943 11.1705 5.13142C11.1125 5.1762 11.0405 5.20306 10.9755 5.23789C10.9675 5.25082 10.9525 5.27371 10.9455 5.28565C10.7925 5.30057 10.6375 5.28863 10.4835 5.29162C10.4835 5.35729 10.4835 5.42197 10.4855 5.48664C10.5375 5.5155 10.5325 5.57122 10.5445 5.61699C10.5795 5.62097 10.6145 5.62495 10.6505 5.62893C10.7295 5.71948 10.8705 5.78216 10.8375 5.91848C10.8815 5.96027 10.9485 5.99112 10.9665 6.04883C10.9465 6.10754 10.8805 6.13938 10.8345 6.18117C10.8145 6.26674 10.8775 6.39212 10.7835 6.44784C10.7825 6.46475 10.7785 6.49958 10.7775 6.51649C10.7475 6.54137 10.7195 6.56823 10.6955 6.59809C10.6455 6.5961 10.5935 6.59211 10.5835 6.53739C10.5585 6.53639 10.5095 6.5354 10.4835 6.5354V6.61998C10.3835 6.69162 10.2895 6.77122 10.2125 6.86475H10.0845C10.0375 6.90853 9.98746 6.95132 9.93746 6.99212C9.93546 7.06674 9.93546 7.14236 9.93746 7.21799C10.0035 7.25679 10.0615 7.31052 10.0635 7.38614C10.0815 7.40107 10.1155 7.43291 10.1325 7.44883C10.0625 7.48266 9.98246 7.50654 9.92046 7.5543C9.87946 7.59809 9.82346 7.62097 9.76346 7.63291C9.72646 7.66973 9.69046 7.70654 9.65546 7.74535C9.63946 7.69062 9.59946 7.66177 9.53646 7.66376C9.52746 7.67968 9.51146 7.70953 9.50346 7.72545Z" fill="#F4CF31"/>
</g>
<mask id="mask2_986_17632" style="mask-type:luminance" maskUnits="userSpaceOnUse" x="0" y="0" width="24" height="16">
<path d="M0 16H24V1.90735e-06H0V16Z" fill="white"/>
</mask>
<g mask="url(#mask2_986_17632)">
<path d="M8.02052 4.20496L8.61452 3.77411L9.20952 4.20396L8.98152 3.50844L9.57652 3.07859H8.84152L8.61352 2.38307L8.38752 3.07859L7.65152 3.07958L8.24752 3.50943L8.02052 4.20496Z" fill="white"/>
</g>
<mask id="mask3_986_17632" style="mask-type:luminance" maskUnits="userSpaceOnUse" x="0" y="0" width="24" height="16">
<path d="M0 16H24V1.90735e-06H0V16Z" fill="white"/>
</mask>
<g mask="url(#mask3_986_17632)">
<path d="M10.1562 3.74927L10.7502 3.31942L11.3452 3.74927L11.1182 3.05275L11.7122 2.6229H10.9772L10.7492 1.92738L10.5232 2.62389H9.78723L10.3832 3.05375L10.1562 3.74927Z" fill="white"/>
</g>
<mask id="mask4_986_17632" style="mask-type:luminance" maskUnits="userSpaceOnUse" x="0" y="0" width="24" height="16">
<path d="M0 16H24V1.90735e-06H0V16Z" fill="white"/>
</mask>
<g mask="url(#mask4_986_17632)">
<path d="M6.03712 4.81183L6.63112 4.38198L7.22612 4.81183L6.99812 4.11631L7.59312 3.68546L6.85812 3.68646L6.63012 2.98994L6.40412 3.68646H5.66812L6.26412 4.11631L6.03712 4.81183Z" fill="white"/>
</g>
<mask id="mask5_986_17632" style="mask-type:luminance" maskUnits="userSpaceOnUse" x="0" y="0" width="24" height="16">
<path d="M0 16H24V1.90735e-06H0V16Z" fill="white"/>
</mask>
<g mask="url(#mask5_986_17632)">
<path d="M14.579 4.20396L15.174 3.77411L15.768 4.20496L15.541 3.50943L16.137 3.07958L15.402 3.07859L15.175 2.38307L14.947 3.07859H14.212L14.807 3.50844L14.579 4.20396Z" fill="white"/>
</g>
<mask id="mask6_986_17632" style="mask-type:luminance" maskUnits="userSpaceOnUse" x="0" y="0" width="24" height="16">
<path d="M0 16H24V1.90735e-06H0V16Z" fill="white"/>
</mask>
<g mask="url(#mask6_986_17632)">
<path d="M12.4423 3.74878L13.0383 3.31893L13.6313 3.74878L13.4063 3.05326L14.0013 2.6244L13.2653 2.62341L13.0393 1.92788L12.8113 2.62341L12.0763 2.62241L12.6713 3.05326L12.4423 3.74878Z" fill="white"/>
</g>
<mask id="mask7_986_17632" style="mask-type:luminance" maskUnits="userSpaceOnUse" x="0" y="0" width="24" height="16">
<path d="M0 16H24V1.90735e-06H0V16Z" fill="white"/>
</mask>
<g mask="url(#mask7_986_17632)">
<path d="M16.5614 4.81134L17.1574 4.38149L17.7504 4.81134L17.5254 4.11681L18.1204 3.68696L17.3844 3.68597L17.1584 2.99044L16.9304 3.68597H16.1954L16.7904 4.11582L16.5614 4.81134Z" fill="white"/>
</g>
</g>
<defs>
<clipPath id="clip0_986_17632">
<rect width="24" height="16" fill="white"/>
</clipPath>
</defs>
</svg>
