<svg width="20" height="20" viewBox="0 0 20 20" fill="none" xmlns="http://www.w3.org/2000/svg">
<path fill-rule="evenodd" clip-rule="evenodd" d="M13.2489 0L15.9649 1.027C15.9649 1.027 15.2915 2.03942 15.2915 4.45945C15.2915 6.87948 16.5 7.65958 16.5 7.65958V20H3.5V7.67779C3.5 7.67779 4.82594 6.86146 4.82594 4.45945C4.82594 2.22381 4.1531 1.17632 4.05989 1.04194L4.04922 1.04244L4.05783 1.03898C4.05222 1.03096 4.04922 1.027 4.04922 1.027L4.08979 1.02667L6.75958 0.00104131L6.80636 0.216921C7.3494 2.6182 8.40629 3.81884 9.97702 3.81884C12.3551 3.81884 13.2149 0.14934 13.2489 0Z" fill="#001E28"/>
</svg>
