<svg width="20" height="20" viewBox="0 0 20 20" fill="none" xmlns="http://www.w3.org/2000/svg">
<g clip-path="url(#clip0_8438_68013)">
<path d="M17.5288 0H2.47124L0 2.47124V17.5288L2.47124 20H17.5288L20 17.5288V2.47124L17.5288 0ZM18.6293 16.9585L16.9585 18.6293H3.04152L1.37069 16.9585V3.04152L3.04152 1.37069H16.9585L18.6293 3.04152V16.9685V16.9585Z" fill="#001E28"/>
<path d="M11.4857 4.16207L13.3767 6.05302H4.022V7.42371H13.3767L11.4857 9.30465L12.4462 10.2751L15.988 6.73336L12.4462 3.19159L11.4857 4.16207Z" fill="#001E28"/>
<path d="M8.51427 10.6853L7.54378 9.72485L4.00201 13.2566L7.54378 16.7984L8.51427 15.8379L6.62332 13.947H15.978V12.5763H6.62332L8.51427 10.6853Z" fill="#001E28"/>
</g>
<defs>
<clipPath id="clip0_8438_68013">
<rect width="20" height="20" fill="white"/>
</clipPath>
</defs>
</svg>
