<svg width="24" height="16" viewBox="0 0 24 16" fill="none" xmlns="http://www.w3.org/2000/svg">
<g clip-path="url(#clip0_986_17536)">
<path d="M11.9995 0.000507355V8.00051H0V15.9995H24V0.000507355H11.9995Z" fill="#ED2F31"/>
<mask id="mask0_986_17536" style="mask-type:luminance" maskUnits="userSpaceOnUse" x="0" y="0" width="24" height="16">
<path d="M0.000488281 16H23.9995V1.90735e-06H0.000488281V16Z" fill="white"/>
</mask>
<g mask="url(#mask0_986_17536)">
<path d="M8.56801 5.49055L7.21707 5.12836C7.17907 5.17015 7.13907 5.21095 7.09707 5.24876L7.46106 6.59204L6.4741 5.60896C6.4191 5.62587 6.3641 5.6408 6.3071 5.65274L5.94712 6.99602L5.58713 5.65274C5.53114 5.6408 5.47514 5.62587 5.42114 5.60896L4.43418 6.59204L4.79817 5.24876C4.75517 5.21095 4.71517 5.17015 4.67717 5.12836L3.32623 5.49055L4.31619 4.50846C4.29819 4.45473 4.28319 4.39901 4.27119 4.34328L2.92124 3.98508L4.27119 3.62587C4.28319 3.57015 4.29819 3.51542 4.31519 3.4607L3.32623 2.4796L4.67717 2.8408C4.71517 2.79901 4.75517 2.7592 4.79817 2.72139L4.43418 1.37712L5.42114 2.3612C5.47514 2.34328 5.53114 2.32836 5.58713 2.31642L5.94712 0.973135L6.3071 2.31642C6.3641 2.32836 6.4191 2.34328 6.4741 2.3612L7.46106 1.37712L7.09707 2.72139C7.13907 2.7592 7.17907 2.79901 7.21707 2.8408L8.56801 2.4796L7.57905 3.4607C7.59605 3.51542 7.61105 3.57015 7.62405 3.62587L8.97299 3.98508L7.62405 4.34328C7.61105 4.39901 7.59605 4.45473 7.57905 4.50846L8.56801 5.49055ZM11.9999 9.53674e-07H0.000366211V8H11.9999V9.53674e-07Z" fill="#2B3187"/>
</g>
<mask id="mask1_986_17536" style="mask-type:luminance" maskUnits="userSpaceOnUse" x="0" y="0" width="24" height="16">
<path d="M0.000488281 16H23.9995V1.90735e-06H0.000488281V16Z" fill="white"/>
</mask>
<g mask="url(#mask1_986_17536)">
<path d="M5.58728 5.65281L5.94727 6.99609L6.30725 5.65281C6.19126 5.67769 6.07126 5.69162 5.94727 5.69162C5.82427 5.69162 5.70428 5.67769 5.58728 5.65281Z" fill="white"/>
</g>
<mask id="mask2_986_17536" style="mask-type:luminance" maskUnits="userSpaceOnUse" x="0" y="0" width="24" height="16">
<path d="M0.000488281 16H23.9995V1.90735e-06H0.000488281V16Z" fill="white"/>
</mask>
<g mask="url(#mask2_986_17536)">
<path d="M4.27084 3.62684L2.9209 3.98505L4.27084 4.34326C4.24584 4.22784 4.23284 4.10844 4.23284 3.98505C4.23284 3.86167 4.24584 3.74227 4.27084 3.62684Z" fill="white"/>
</g>
<mask id="mask3_986_17536" style="mask-type:luminance" maskUnits="userSpaceOnUse" x="0" y="0" width="24" height="16">
<path d="M0.000488281 16H23.9995V1.90735e-06H0.000488281V16Z" fill="white"/>
</mask>
<g mask="url(#mask3_986_17536)">
<path d="M6.30725 2.31689L5.94727 0.973611L5.58728 2.31689C5.70328 2.29301 5.82427 2.27809 5.94727 2.27809C6.07126 2.27809 6.19126 2.29301 6.30725 2.31689Z" fill="white"/>
</g>
<mask id="mask4_986_17536" style="mask-type:luminance" maskUnits="userSpaceOnUse" x="0" y="0" width="24" height="16">
<path d="M0.000488281 16H23.9995V1.90735e-06H0.000488281V16Z" fill="white"/>
</mask>
<g mask="url(#mask4_986_17536)">
<path d="M7.62378 4.34302L8.97372 3.98481L7.62378 3.6266C7.64878 3.74202 7.66278 3.86143 7.66278 3.98481C7.66278 4.10819 7.64878 4.22759 7.62378 4.34302Z" fill="white"/>
</g>
<mask id="mask5_986_17536" style="mask-type:luminance" maskUnits="userSpaceOnUse" x="0" y="0" width="24" height="16">
<path d="M0.000488281 16H23.9995V1.90735e-06H0.000488281V16Z" fill="white"/>
</mask>
<g mask="url(#mask5_986_17536)">
<path d="M4.43457 6.59302L5.42153 5.60894C5.18654 5.53431 4.97655 5.40993 4.79856 5.24874L4.43457 6.59302Z" fill="white"/>
</g>
<mask id="mask6_986_17536" style="mask-type:luminance" maskUnits="userSpaceOnUse" x="0" y="0" width="24" height="16">
<path d="M0.000488281 16H23.9995V1.90735e-06H0.000488281V16Z" fill="white"/>
</mask>
<g mask="url(#mask6_986_17536)">
<path d="M3.32654 2.4797L4.3155 3.46179C4.39049 3.22796 4.51549 3.01901 4.67748 2.8409L3.32654 2.4797Z" fill="white"/>
</g>
<mask id="mask7_986_17536" style="mask-type:luminance" maskUnits="userSpaceOnUse" x="0" y="0" width="24" height="16">
<path d="M0.000488281 16H23.9995V1.90735e-06H0.000488281V16Z" fill="white"/>
</mask>
<g mask="url(#mask7_986_17536)">
<path d="M8.56811 5.49048L7.57915 4.50839C7.50415 4.74122 7.37916 4.95118 7.21716 5.12829L8.56811 5.49048Z" fill="white"/>
</g>
<mask id="mask8_986_17536" style="mask-type:luminance" maskUnits="userSpaceOnUse" x="0" y="0" width="24" height="16">
<path d="M0.000488281 16H23.9995V1.90735e-06H0.000488281V16Z" fill="white"/>
</mask>
<g mask="url(#mask8_986_17536)">
<path d="M7.46047 1.3774L6.47351 2.36148C6.7075 2.43611 6.91849 2.56148 7.09648 2.72168L7.46047 1.3774Z" fill="white"/>
</g>
<mask id="mask9_986_17536" style="mask-type:luminance" maskUnits="userSpaceOnUse" x="0" y="0" width="24" height="16">
<path d="M0.000488281 16H23.9995V1.90735e-06H0.000488281V16Z" fill="white"/>
</mask>
<g mask="url(#mask9_986_17536)">
<path d="M3.32654 5.49048L4.67748 5.12829C4.51549 4.95118 4.39149 4.74122 4.3155 4.50839L3.32654 5.49048Z" fill="white"/>
</g>
<mask id="mask10_986_17536" style="mask-type:luminance" maskUnits="userSpaceOnUse" x="0" y="0" width="24" height="16">
<path d="M0.000488281 16H23.9995V1.90735e-06H0.000488281V16Z" fill="white"/>
</mask>
<g mask="url(#mask10_986_17536)">
<path d="M7.46047 6.59302L7.09648 5.24874C6.91849 5.40993 6.7075 5.53431 6.47351 5.60894L7.46047 6.59302Z" fill="white"/>
</g>
<mask id="mask11_986_17536" style="mask-type:luminance" maskUnits="userSpaceOnUse" x="0" y="0" width="24" height="16">
<path d="M0.000488281 16H23.9995V1.90735e-06H0.000488281V16Z" fill="white"/>
</mask>
<g mask="url(#mask11_986_17536)">
<path d="M4.43457 1.3774L4.79856 2.72168C4.97655 2.56148 5.18754 2.43611 5.42153 2.36148L4.43457 1.3774Z" fill="white"/>
</g>
<mask id="mask12_986_17536" style="mask-type:luminance" maskUnits="userSpaceOnUse" x="0" y="0" width="24" height="16">
<path d="M0.000488281 16H23.9995V1.90735e-06H0.000488281V16Z" fill="white"/>
</mask>
<g mask="url(#mask12_986_17536)">
<path d="M8.56811 2.4797L7.21716 2.8409C7.37916 3.01901 7.50415 3.22896 7.57915 3.46179L8.56811 2.4797Z" fill="white"/>
</g>
<mask id="mask13_986_17536" style="mask-type:luminance" maskUnits="userSpaceOnUse" x="0" y="0" width="24" height="16">
<path d="M0.000488281 16H23.9995V1.90735e-06H0.000488281V16Z" fill="white"/>
</mask>
<g mask="url(#mask13_986_17536)">
<path d="M4.43429 3.98494C4.43429 3.1531 5.11126 2.47947 5.94723 2.47947C6.78319 2.47947 7.46017 3.1531 7.46017 3.98494C7.46017 4.81578 6.78319 5.49041 5.94723 5.49041C5.11126 5.49041 4.43429 4.81578 4.43429 3.98494ZM7.66216 3.98494C7.66216 3.86156 7.64816 3.74215 7.62316 3.62673C7.61116 3.57001 7.59616 3.51529 7.57916 3.46156C7.50316 3.22872 7.37817 3.01777 7.21718 2.84066C7.17918 2.79887 7.13918 2.75907 7.09718 2.72126C6.91819 2.56106 6.7072 2.43568 6.47421 2.36106C6.41921 2.34414 6.36421 2.32822 6.30721 2.31628C6.19122 2.2924 6.07122 2.27847 5.94723 2.27847C5.82423 2.27847 5.70424 2.2924 5.58724 2.31628C5.53125 2.32822 5.47525 2.34414 5.42125 2.36106C5.18726 2.43568 4.97627 2.56106 4.79828 2.72126C4.75528 2.75907 4.71528 2.79887 4.67728 2.84066C4.51629 3.01777 4.39129 3.22772 4.3153 3.46156C4.2983 3.51529 4.2833 3.57001 4.2703 3.62673C4.2463 3.74215 4.2323 3.86156 4.2323 3.98494C4.2323 4.10832 4.2463 4.22772 4.2703 4.34315C4.2833 4.39986 4.2983 4.45459 4.3153 4.50832C4.39129 4.74116 4.51629 4.9521 4.67728 5.12822C4.71528 5.17001 4.75528 5.21081 4.79828 5.24862C4.97627 5.40882 5.18626 5.5332 5.42125 5.60882C5.47525 5.62573 5.53125 5.64066 5.58724 5.6526C5.70424 5.67748 5.82423 5.69141 5.94723 5.69141C6.07122 5.69141 6.19122 5.67748 6.30721 5.6526C6.36421 5.64066 6.41921 5.62573 6.47421 5.60882C6.7072 5.5332 6.91819 5.40882 7.09718 5.24862C7.13918 5.21081 7.17918 5.17001 7.21718 5.12822C7.37817 4.9521 7.50316 4.74116 7.57916 4.50832C7.59616 4.45459 7.61116 4.39986 7.62316 4.34315C7.64816 4.22772 7.66216 4.10832 7.66216 3.98494Z" fill="#2B3187"/>
</g>
<mask id="mask14_986_17536" style="mask-type:luminance" maskUnits="userSpaceOnUse" x="0" y="0" width="24" height="16">
<path d="M0.000488281 16H23.9995V1.90735e-06H0.000488281V16Z" fill="white"/>
</mask>
<g mask="url(#mask14_986_17536)">
<path d="M7.46069 3.98488C7.46069 3.15304 6.78272 2.47941 5.94775 2.47941C5.11179 2.47941 4.43481 3.15304 4.43481 3.98488C4.43481 4.81573 5.11179 5.49036 5.94775 5.49036C6.78272 5.49036 7.46069 4.81573 7.46069 3.98488Z" fill="white"/>
</g>
</g>
<defs>
<clipPath id="clip0_986_17536">
<rect width="24" height="16" fill="white"/>
</clipPath>
</defs>
</svg>
