<svg width="20" height="20" viewBox="0 0 20 20" fill="none" xmlns="http://www.w3.org/2000/svg">
<path fill-rule="evenodd" clip-rule="evenodd" d="M13.6606 9.27959C13.6606 9.54037 13.4403 9.75943 13.1795 9.75943H6.89988C6.6404 9.75943 6.42004 9.54037 6.42004 9.27959V5.89988C6.42004 5.61954 6.6404 5.42004 6.89988 5.42004H13.1795C13.4403 5.42004 13.6606 5.61954 13.6606 5.89988V9.27959ZM13.941 3.27904C13.761 3.1004 13.5211 3 13.2603 3H6.81904C6.55956 3 6.31964 3.1004 6.1397 3.27904L4.28034 5.1397C4.0991 5.31964 4 5.55956 4 5.81904V16.9009C4 16.9609 4.04042 17 4.0991 17H6.31964C6.38093 17 6.42004 16.9609 6.42004 16.9009V12.6593C6.42004 12.3816 6.6404 12.1795 6.89988 12.1795H13.1795C13.4403 12.1795 13.6606 12.3816 13.6606 12.6593V16.9009C13.6606 16.9609 13.6997 17 13.761 17H15.9816C16.0207 17 16.0611 16.9609 16.0611 16.9009V5.81904C16.0611 5.55956 15.9607 5.31964 15.7795 5.1397L13.941 3.27904Z" fill="#001E28"/>
</svg>
