<svg width="20" height="20" viewBox="0 0 20 20" fill="none" xmlns="http://www.w3.org/2000/svg">
<path fill-rule="evenodd" clip-rule="evenodd" d="M14.5474 17.3252L13.2904 16.4092L13.7354 13.6892L16.1714 12.4472L17.8154 13.6432C17.1034 15.1652 15.9634 16.4422 14.5474 17.3252V17.3252ZM6.79943 18.0122L7.64343 17.3972H12.3254L13.1794 18.0192C12.1944 18.4112 11.1234 18.6342 9.99943 18.6342C8.86843 18.6342 7.79043 18.4092 6.79943 18.0122V18.0122ZM2.17643 13.6272L3.78643 12.4552L6.23243 13.6932L6.67843 16.4102L5.43443 17.3142C4.02243 16.4292 2.88543 15.1492 2.17643 13.6272V13.6272ZM5.43543 2.68518L6.67843 3.59018L6.23043 6.31218L6.08943 6.38418L3.78743 7.54518L2.17643 6.37218C2.88543 4.84918 4.02243 3.57018 5.43543 2.68518V2.68518ZM13.1784 1.98018L12.3244 2.60218H7.64343L6.79943 1.98818C7.79043 1.59118 8.86843 1.36618 9.99943 1.36618C11.1234 1.36618 12.1934 1.58918 13.1784 1.98018V1.98018ZM17.8154 6.35518L16.1714 7.55218L13.7354 6.31018L13.2904 3.59118L14.5474 2.67518C15.9634 3.55618 17.1034 4.83518 17.8154 6.35518V6.35518ZM8.00143 16.0312L7.60743 13.6212L8.16143 13.3382L9.97043 12.4162L12.3564 13.6242L11.9664 16.0312H8.00143ZM4.38943 8.78518L6.57543 7.67018L6.85043 7.53118L9.28343 8.76818V11.2312L6.85243 12.4712L4.38943 11.2152V8.78518ZM11.9664 3.96918L12.3564 6.37518L10.4634 7.33618L9.97143 7.58318L7.60743 6.37818L8.00143 3.96918H11.9664ZM13.1114 7.53118L15.5484 8.77018V11.2292L13.1104 12.4722L10.6554 11.2272V8.77118L11.0834 8.55418L13.1114 7.53118ZM1.36743 10.0002C1.36743 9.20518 1.48443 8.43818 1.68643 7.70618L3.02243 8.67918V11.3202L1.68643 12.2932C1.48443 11.5612 1.36743 10.7952 1.36743 10.0002V10.0002ZM18.6324 10.0002C18.6324 10.8032 18.5144 11.5762 18.3094 12.3132L16.9164 11.2992V8.70018L18.3084 7.68618C18.5144 8.42418 18.6324 9.19718 18.6324 10.0002V10.0002ZM9.99943 0.000183105C4.48543 0.000183105 0.000427246 4.48518 0.000427246 10.0002C0.000427246 15.5142 4.48543 20.0002 9.99943 20.0002C15.5134 20.0002 20.0004 15.5142 20.0004 10.0002C20.0004 4.48518 15.5134 0.000183105 9.99943 0.000183105V0.000183105Z" fill="#001E28"/>
</svg>
