<svg width="24" height="16" viewBox="0 0 24 16" fill="none" xmlns="http://www.w3.org/2000/svg">
<g clip-path="url(#clip0_986_17655)">
<path d="M0 4.93433H24V-1.90735e-06H0V4.93433Z" fill="#CE2931"/>
<mask id="mask0_986_17655" style="mask-type:luminance" maskUnits="userSpaceOnUse" x="0" y="0" width="24" height="16">
<path d="M0 16H24V1.90735e-06H0V16Z" fill="white"/>
</mask>
<g mask="url(#mask0_986_17655)">
<path d="M14.1622 8.977L14.1652 9.03173L14.1982 9.0387H14.3442V8.8984V8.88148L14.2992 8.88546C14.1992 8.94019 14.2392 8.9183 14.1622 8.977Z" fill="#FAFAFA"/>
</g>
<mask id="mask1_986_17655" style="mask-type:luminance" maskUnits="userSpaceOnUse" x="0" y="0" width="24" height="16">
<path d="M0 16H24V1.90735e-06H0V16Z" fill="white"/>
</mask>
<g mask="url(#mask1_986_17655)">
<path d="M16.9902 9.25347L16.9772 9.37188L16.5662 9.37785L16.1552 9.38283V8.26541C16.1552 7.48432 16.1612 7.14303 16.1782 7.13308C16.1902 7.12512 16.2432 7.16591 16.2972 7.22362C16.3502 7.28233 16.4462 7.37487 16.5092 7.43059C16.6082 7.51815 16.6182 7.53407 16.5882 7.55397C16.4852 7.61865 16.4882 7.59775 16.4882 8.34104L16.4922 8.82661L16.6712 8.90521C16.8552 8.90521 16.8972 8.85347 16.9392 8.77686C16.9832 8.69825 16.9772 8.81865 16.9752 8.81069C16.9612 8.75696 16.9832 8.98482 16.9862 9.04253C16.9892 9.09725 16.9972 9.18979 16.9902 9.25347ZM15.9262 9.38183H14.8192H13.7142L13.7232 9.1082C13.7342 8.79477 13.7652 8.6883 13.8772 8.5878C13.9622 8.51019 14.0852 8.47337 14.2272 8.48233L14.3332 8.48929L14.3392 8.36193C14.3472 8.19875 14.3332 8.14104 14.2812 8.12412C14.2182 8.10322 14.2312 8.03556 14.3072 7.98681C14.3442 7.96293 14.4352 7.88034 14.5092 7.80273C14.5832 7.72512 14.6512 7.66143 14.6602 7.66143C14.6692 7.66143 14.6772 7.97089 14.6772 8.34999V8.95397L14.8232 8.949L14.9642 8.94601L14.9682 8.33009C14.9682 7.71517 14.9642 7.61666 14.9352 7.5878C14.9172 7.5689 14.8942 7.55397 14.8832 7.55397C14.8362 7.55397 14.8692 7.4674 14.9312 7.4276C14.9692 7.40372 15.0592 7.32114 15.1332 7.24352C15.2062 7.16691 15.2752 7.1092 15.2832 7.11517C15.2932 7.12114 15.3012 7.55596 15.3012 8.08233V8.94004H15.4622V8.93606L15.4642 8.05944L15.4282 7.09228L15.4442 7.05745C15.4152 7.03158 15.4892 6.97487 15.4892 6.96094C15.4892 6.94701 15.5532 6.88034 15.6332 6.81467C15.7112 6.748 15.7962 6.66541 15.8212 6.62959C15.9272 6.47536 15.9262 6.45248 15.9262 7.97288V9.38183ZM12.4102 9.26939L12.3982 9.38681L11.9892 9.39377L11.5792 9.39875V8.28432C11.5792 7.50721 11.5862 7.16691 11.6012 7.15696C11.6142 7.149 11.6672 7.18979 11.7202 7.24651C11.7742 7.30522 11.8682 7.39775 11.9312 7.45248C12.0302 7.54104 12.0412 7.55696 12.0102 7.57586C11.9082 7.63954 11.9102 7.61964 11.9102 8.35994V9.05447L12.0892 8.86541C12.2652 8.86541 12.2602 8.86044 12.3422 9.00074C12.3432 9.00372 12.3442 9.00372 12.3442 9.00571C12.3492 9.0077 12.3582 9.01367 12.3762 9.03158C12.4122 9.0674 12.4182 9.20372 12.4102 9.26939ZM11.3502 9.39875H9.55018H7.74818L7.71218 9.53507C7.66918 9.70123 7.59818 9.82064 7.50218 9.8883C7.41218 9.95198 7.20918 9.9689 7.08918 9.92412C7.04218 9.90621 6.96718 9.84949 6.91818 9.79278C6.82418 9.6883 6.80318 9.63855 6.86618 9.67238C6.95918 9.72611 7.14418 9.75795 7.20918 9.73507C7.45218 9.65148 7.50718 9.31716 7.31318 9.10721C7.27518 9.06541 7.24418 9.01566 7.24418 8.99875C7.24418 8.98084 7.28418 8.948 7.33418 8.92512C7.40318 8.89427 7.43718 8.85944 7.48118 8.77586C7.52618 8.69029 7.54418 8.67238 7.56618 8.69029C7.59618 8.71616 7.70018 8.97288 7.70018 9.02263C7.70018 9.0485 7.73818 9.05447 7.90818 9.05447H8.11618L8.08418 8.97387C8.06618 8.93009 8.03618 8.87039 8.01818 8.84153C7.98918 8.79576 7.98918 8.7878 8.01718 8.76691C8.03418 8.75397 8.09218 8.71218 8.14518 8.67337C8.19818 8.63556 8.24718 8.5878 8.25518 8.56691C8.27318 8.51616 8.38818 8.3689 8.40918 8.3689C8.41918 8.3689 8.42718 8.52313 8.42718 8.71119V8.92213H9.76218L10.9692 8.9072L10.9722 8.59676V8.35895L10.9772 8.31318L10.8552 8.1878L10.7632 8.28631L10.7602 8.40074L10.7622 8.51815L10.7652 8.77984L9.64918 8.79576C8.99318 8.78581 8.48418 8.79775 8.48818 8.79477C8.50718 8.77586 9.09318 8.02462 9.15918 7.94004C9.17318 7.92213 9.20618 7.87437 9.23518 7.83258C9.26218 7.79178 9.29118 7.75298 9.29818 7.74701C9.30418 7.74104 9.33218 7.70223 9.36018 7.66143C9.38718 7.61964 9.42018 7.57487 9.43218 7.56094C9.44418 7.548 9.63918 7.27536 9.86818 6.95696C10.0962 6.63855 10.2892 6.37785 10.2982 6.37686C10.3062 6.37586 10.3182 6.40173 10.3242 6.43457C10.3592 6.61367 10.3852 6.71417 10.4122 6.76989C10.4472 6.84054 10.4262 6.86641 10.3352 6.86939C10.2912 6.87039 10.1912 6.99775 9.72318 7.64551C9.41518 8.07238 9.16018 8.4276 9.15618 8.43755C9.15218 8.44651 9.42918 8.45447 9.77318 8.45447H10.3972L10.4042 8.29725C10.4042 8.30422 10.4042 8.30422 10.4122 8.29228C10.4522 8.23556 10.8642 7.93706 10.8932 7.94502C10.9102 7.94999 11.0362 7.94303 11.1422 7.98183L11.3482 8.13009L11.3502 8.68233V9.39875ZM8.17318 10.2525C8.06918 10.2525 7.98418 10.1321 7.98418 9.98382C7.98418 9.83556 8.06918 9.71616 8.17318 9.71616C8.27718 9.71616 8.36218 9.83556 8.36218 9.98382C8.36218 10.1321 8.27718 10.2525 8.17318 10.2525ZM7.81018 9.63755C7.81018 9.56392 7.87118 9.50322 7.94618 9.50322C8.02118 9.50322 8.08218 9.56392 8.08218 9.63755C8.08218 9.71218 8.02118 9.77188 7.94618 9.77188C7.87118 9.77188 7.81018 9.71218 7.81018 9.63755ZM14.6472 6.39676C14.7072 6.3878 14.7342 6.4286 14.7802 6.59477C14.8182 6.7291 14.8142 6.77288 14.7682 6.74104C14.7182 6.70521 14.6122 6.52412 14.6082 6.46641C14.6052 6.41666 14.6132 6.40173 14.6472 6.39676ZM14.8142 6.93308L14.8862 6.85646L14.9882 6.89327C15.0432 6.91318 15.1012 6.92512 15.1172 6.91915C15.1572 6.90323 15.2292 6.78482 15.2222 6.74601C15.2132 6.70123 15.2542 6.70721 15.2802 6.75696C15.3292 6.85248 15.2872 6.97387 15.1932 7.01168C15.1462 7.02959 15.1012 7.02959 15.0262 7.01367C14.9332 6.99278 14.9182 6.99477 14.8782 7.03457C14.7872 7.12213 14.6492 7.14502 14.5162 7.09526C14.4792 7.08133 14.4372 7.05646 14.4222 7.04054C14.4002 7.01566 14.4112 7.01367 14.4932 7.02561C14.6412 7.0475 14.7322 7.02163 14.8142 6.93308ZM0.000183105 10.8097H24.0002V4.93407H0.000183105V10.8097Z" fill="#FAFAFA"/>
</g>
<mask id="mask2_986_17655" style="mask-type:luminance" maskUnits="userSpaceOnUse" x="0" y="0" width="24" height="16">
<path d="M0 16H24V1.90735e-06H0V16Z" fill="white"/>
</mask>
<g mask="url(#mask2_986_17655)">
<path d="M0 16H24V10.81H0V16Z" fill="#121212"/>
</g>
<mask id="mask3_986_17655" style="mask-type:luminance" maskUnits="userSpaceOnUse" x="0" y="0" width="24" height="16">
<path d="M0 16H24V1.90735e-06H0V16Z" fill="white"/>
</mask>
<g mask="url(#mask3_986_17655)">
<path d="M12.3446 9.00615C12.3436 9.00416 12.3426 9.00317 12.3416 9.00018C12.2596 8.86088 12.2656 8.86486 12.0886 8.86486L11.9096 9.05391V8.35939C11.9096 7.62008 11.9076 7.63998 12.0096 7.5763C12.0406 7.5564 12.0306 7.54048 11.9306 7.45292C11.8676 7.3972 11.7746 7.30466 11.7196 7.24695C11.6666 7.18924 11.6146 7.14844 11.6006 7.1564C11.5866 7.16635 11.5786 7.50665 11.5786 8.28476V9.39819L11.9896 9.39222L12.3986 9.38625L12.4096 9.26884C12.4176 9.20416 12.4116 9.06685 12.3756 9.03103C12.3586 9.01411 12.3496 9.00715 12.3446 9.00615Z" fill="#089E49"/>
</g>
<mask id="mask4_986_17655" style="mask-type:luminance" maskUnits="userSpaceOnUse" x="0" y="0" width="24" height="16">
<path d="M0 16H24V1.90735e-06H0V16Z" fill="white"/>
</mask>
<g mask="url(#mask4_986_17655)">
<path d="M11.1421 7.98206C11.0371 7.94226 10.9111 7.95022 10.8931 7.94524C10.8641 7.93728 10.4521 8.23479 10.4131 8.29251C10.4041 8.30445 10.4041 8.30445 10.4041 8.29748L10.3971 8.4547H9.77309C9.43009 8.4547 9.15209 8.44673 9.15609 8.43778C9.16009 8.42783 9.41509 8.07161 9.72309 7.64574C10.1911 6.99798 10.2911 6.87062 10.3351 6.86962C10.4261 6.86664 10.4471 6.84076 10.4121 6.77012C10.3851 6.7144 10.3591 6.6139 10.3251 6.43479C10.3181 6.40196 10.3061 6.37609 10.2981 6.37708C10.2891 6.37808 10.0961 6.63877 9.86809 6.95718C9.64009 7.27559 9.44409 7.54723 9.43209 7.56116C9.42009 7.57509 9.38809 7.61987 9.36009 7.66166C9.33209 7.70246 9.30509 7.74126 9.29809 7.74723C9.29109 7.7532 9.26309 7.79201 9.23509 7.8328C9.20609 7.8746 9.17309 7.92236 9.15909 7.94027C9.09309 8.02484 8.50709 8.77509 8.48809 8.794C8.48409 8.79798 8.99309 8.78604 9.64909 8.79599L10.7661 8.78007L10.7631 8.51838L10.7601 8.40096L10.7641 8.28654L10.8551 8.18803L10.9771 8.3134L10.9731 8.35917V8.59698L10.9701 8.90743L9.76309 8.92236H8.42709V8.71141C8.42709 8.52236 8.41909 8.36912 8.40909 8.36912C8.38809 8.36912 8.27309 8.51639 8.25509 8.56713C8.24709 8.58703 8.19809 8.63579 8.14509 8.6736C8.09209 8.71241 8.03409 8.7542 8.01709 8.76713C7.98909 8.78803 7.98909 8.79599 8.01809 8.84176C8.03709 8.87062 8.06609 8.93032 8.08409 8.9741L8.11609 9.05569H7.90909C7.73809 9.05569 7.70109 9.04872 7.70109 9.02285C7.70109 8.9731 7.59709 8.71639 7.56609 8.69052C7.54409 8.67161 7.52609 8.69052 7.48109 8.77509C7.43709 8.85967 7.40309 8.8945 7.33409 8.92534C7.28509 8.94823 7.24509 8.98007 7.24509 8.99798C7.24509 9.01589 7.27509 9.06365 7.31309 9.10544C7.50709 9.31738 7.45209 9.65171 7.20909 9.73529C7.14409 9.75917 6.95909 9.72435 6.86609 9.67261C6.80309 9.63977 6.82509 9.68753 6.91809 9.793C6.96709 9.84872 7.04209 9.90644 7.08909 9.92534C7.20909 9.97012 7.41309 9.95121 7.50209 9.88952C7.59809 9.82086 7.66909 9.70146 7.71209 9.53529L7.74809 9.39698H9.55009H11.3501V8.68256L11.3491 8.13032L11.1421 7.98206Z" fill="#089E49"/>
</g>
<mask id="mask5_986_17655" style="mask-type:luminance" maskUnits="userSpaceOnUse" x="0" y="0" width="24" height="16">
<path d="M0 16H24V1.90735e-06H0V16Z" fill="white"/>
</mask>
<g mask="url(#mask5_986_17655)">
<path d="M16.9755 8.81041C16.9775 8.81937 16.9835 8.69897 16.9395 8.77658C16.8975 8.8532 16.8555 8.90593 16.6705 8.90593L16.4935 8.82733L16.4885 8.34076C16.4885 7.59847 16.4855 7.61837 16.5875 7.55369C16.6195 7.53479 16.6085 7.51887 16.5085 7.43031C16.4465 7.37459 16.3505 7.28205 16.2965 7.22434C16.2445 7.16663 16.1905 7.12583 16.1775 7.1328C16.1625 7.14374 16.1555 7.48404 16.1555 8.26514V9.38354L16.5665 9.37757L16.9775 9.3716L16.9905 9.2532C16.9965 9.18852 16.9895 9.09698 16.9865 9.04225C16.9835 8.98454 16.9605 8.75767 16.9755 8.81041Z" fill="#089E49"/>
</g>
<mask id="mask6_986_17655" style="mask-type:luminance" maskUnits="userSpaceOnUse" x="0" y="0" width="24" height="16">
<path d="M0 16H24V1.90735e-06H0V16Z" fill="white"/>
</mask>
<g mask="url(#mask6_986_17655)">
<path d="M14.3436 8.89825V9.03855H14.1976L14.1646 9.03159L14.1616 8.97686C14.2386 8.91915 14.1976 8.94004 14.2986 8.88532L14.3436 8.88134V8.89825ZM15.8206 6.6296C15.7966 6.66542 15.7116 6.74801 15.6326 6.81467C15.5526 6.88034 15.4886 6.94701 15.4886 6.96094C15.4886 6.97487 15.4156 7.03159 15.4436 7.05746L15.4276 7.09228L15.4646 8.05945L15.4626 8.93606L15.4616 8.94004H15.3006L15.3016 8.08233C15.3016 7.55597 15.2936 7.12114 15.2836 7.11517C15.2746 7.1092 15.2066 7.16691 15.1336 7.24353C15.0586 7.32114 14.9686 7.40373 14.9316 7.42761C14.8696 7.46741 14.8366 7.55398 14.8836 7.55398C14.8936 7.55398 14.9176 7.5689 14.9356 7.58781C14.9636 7.61666 14.9686 7.71517 14.9686 8.33009L14.9636 8.94602L14.8226 8.949L14.6776 8.95398L14.6766 8.35C14.6766 7.97089 14.6696 7.66144 14.6606 7.66144C14.6516 7.66144 14.5836 7.72512 14.5096 7.80174C14.4356 7.88034 14.3436 7.96293 14.3066 7.98681C14.2316 8.03557 14.2186 8.10323 14.2806 8.12412C14.3326 8.14104 14.3476 8.19875 14.3396 8.36094L14.3326 8.4893L14.2266 8.48233C14.0856 8.47338 13.9626 8.51019 13.8766 8.58781C13.7656 8.6883 13.7346 8.79477 13.7226 9.1082L13.7136 9.38184H14.8196H15.9256V7.97288C15.9256 6.45248 15.9266 6.47537 15.8206 6.6296Z" fill="#089E49"/>
</g>
<mask id="mask7_986_17655" style="mask-type:luminance" maskUnits="userSpaceOnUse" x="0" y="0" width="24" height="16">
<path d="M0 16H24V1.90735e-06H0V16Z" fill="white"/>
</mask>
<g mask="url(#mask7_986_17655)">
<path d="M14.4933 7.02536C14.4113 7.01342 14.4003 7.01541 14.4223 7.04028C14.4373 7.0562 14.4793 7.08108 14.5153 7.09501C14.6493 7.14576 14.7873 7.12188 14.8783 7.03431C14.9183 6.99451 14.9323 6.99252 15.0263 7.01342C15.1013 7.02934 15.1463 7.02934 15.1933 7.01143C15.2873 6.97362 15.3293 6.85222 15.2803 6.7567C15.2543 6.70795 15.2133 6.70098 15.2223 6.74675C15.2293 6.78456 15.1573 6.90297 15.1173 6.91889C15.1013 6.92486 15.0433 6.91392 14.9883 6.89302L14.8873 6.8562L14.8143 6.93382C14.7323 7.02138 14.6403 7.04725 14.4933 7.02536Z" fill="#089E49"/>
</g>
<mask id="mask8_986_17655" style="mask-type:luminance" maskUnits="userSpaceOnUse" x="0" y="0" width="24" height="16">
<path d="M0 16H24V1.90735e-06H0V16Z" fill="white"/>
</mask>
<g mask="url(#mask8_986_17655)">
<path d="M14.7686 6.74059C14.8146 6.77243 14.8186 6.72964 14.7806 6.59432C14.7346 6.42915 14.7066 6.38835 14.6476 6.39631C14.6136 6.40129 14.6056 6.41721 14.6086 6.46596C14.6126 6.52367 14.7176 6.70477 14.7686 6.74059Z" fill="#089E49"/>
</g>
<mask id="mask9_986_17655" style="mask-type:luminance" maskUnits="userSpaceOnUse" x="0" y="0" width="24" height="16">
<path d="M0 16H24V1.90735e-06H0V16Z" fill="white"/>
</mask>
<g mask="url(#mask9_986_17655)">
<path d="M8.17292 9.716C8.06892 9.716 7.98492 9.8364 7.98492 9.98565C7.98492 10.1319 8.06892 10.2523 8.17292 10.2523C8.27692 10.2523 8.36192 10.1319 8.36192 9.98565C8.36192 9.8364 8.27692 9.716 8.17292 9.716Z" fill="#282A74"/>
</g>
<mask id="mask10_986_17655" style="mask-type:luminance" maskUnits="userSpaceOnUse" x="0" y="0" width="24" height="16">
<path d="M0 16H24V1.90735e-06H0V16Z" fill="white"/>
</mask>
<g mask="url(#mask10_986_17655)">
<path d="M8.08197 9.63825C8.08197 9.56363 8.02097 9.50293 7.94597 9.50293C7.87097 9.50293 7.81097 9.56363 7.81097 9.63825C7.81097 9.71189 7.87097 9.77258 7.94597 9.77258C8.02097 9.77258 8.08197 9.71189 8.08197 9.63825Z" fill="#089E49"/>
</g>
</g>
<defs>
<clipPath id="clip0_986_17655">
<rect width="24" height="16" fill="white"/>
</clipPath>
</defs>
</svg>
