<svg width="20" height="20" viewBox="0 0 20 20" fill="none" xmlns="http://www.w3.org/2000/svg">
<path d="M14.5382 0.0762329C17.0993 0.0105988 18.9728 1.0274 18.9728 1.0274C18.9783 1.03755 19.9886 2.9077 19.924 5.461C19.8739 7.00035 19.5221 8.51508 18.8888 9.91901C18.0888 11.7334 16.827 13.5098 15.1378 15.1983L15.1251 15.211C13.4336 16.901 11.6603 18.1612 9.84583 18.962C8.37484 19.6108 6.77693 20.0001 5.12122 20.0001C2.72499 20 0.967014 19.0484 0.957153 19.043C0.957153 19.043 -0.0596527 17.1664 0.00598145 14.6085C0.043386 13.1237 0.392283 11.6249 1.04114 10.1524C1.84112 8.33955 3.10293 6.56482 4.79211 4.87408L4.80383 4.86237C6.49616 3.17236 8.26965 1.91137 10.0841 1.11139C11.4868 0.478462 13.0001 0.126699 14.5382 0.0762329ZM1.99036 11.4913C1.62007 12.5027 1.41411 13.5671 1.38 14.6436C1.33575 16.3749 1.78475 17.5863 1.97864 18.0245C2.57865 18.2924 3.85597 18.6721 5.43762 18.6202C6.48647 18.5789 7.52263 18.3749 8.50891 18.0157L1.99036 11.4913ZM10.1349 2.60358C8.64942 3.33945 7.18563 4.42796 5.77649 5.83405L5.76477 5.84479C4.3779 7.23013 3.30652 8.67078 2.57141 10.1309L9.86829 17.4288C11.3292 16.6937 12.7681 15.6216 14.1534 14.2354L14.1652 14.2237C15.572 12.8146 16.6598 11.3506 17.3956 9.86432L10.1349 2.60358ZM12.9435 8.0274L12.0851 8.88678L12.7355 9.53912L11.7638 10.5108L11.1124 9.85846L9.8429 11.129L10.4943 11.7813L9.52258 12.753L8.87024 12.1006L8.01184 12.96L7.04016 11.9883L7.89856 11.129L7.26965 10.5001L8.24231 9.52838L8.87024 10.1573L10.1407 8.88678L9.51184 8.25787L10.4835 7.28619L11.1124 7.9151L11.9718 7.0567L12.9435 8.0274ZM14.4923 1.45026C13.4722 1.49068 12.4639 1.6853 11.5021 2.0274L17.9718 8.49713C18.3133 7.53551 18.507 6.52756 18.547 5.50787C18.6012 3.92543 18.2217 2.64749 17.9523 2.04596C17.3537 1.77803 16.0745 1.39759 14.4923 1.45026Z" fill="#001E28"/>
</svg>
