<svg width="20" height="20" viewBox="0 0 20 20" fill="none" xmlns="http://www.w3.org/2000/svg">
<path d="M10.7275 6.89648L12.1836 5.51758H17.3369L20 6.4209V18.4004L15.9951 20H14.8486L11.4004 15.8623H8.59961L5.15137 20H4.00488L0 18.4004V6.47754L2.64551 5.51758H7.89258L9.34863 6.89648V0H10.7275V6.89648ZM1.37891 7.41797V17.4961L4.26172 18.6211H4.52637L7.97461 14.4824H12.0254L15.4736 18.6211H15.7383L18.6211 17.4961V7.38184L17.1211 6.89648H12.6348L10.0381 9.4248L7.36523 6.89648H2.87695L1.37891 7.41797ZM17.3105 12.2051L15.2441 14.2715L14.3018 13.3291L16.3682 11.2627L17.3105 12.2051ZM5.51758 11.0342H6.89648V12.4141H5.51758V13.793H4.1377V12.4141H2.75879V11.0342H4.1377V9.65527H5.51758V11.0342ZM15.3105 10.2051L13.2441 12.2715L12.3018 11.3291L14.3682 9.2627L15.3105 10.2051Z" fill="#001E28"/>
</svg>
