<svg width="20" height="20" viewBox="0 0 20 20" fill="none" xmlns="http://www.w3.org/2000/svg">
<path fill-rule="evenodd" clip-rule="evenodd" d="M16.096 16.096C15.471 16.72 14.768 17.237 14.008 17.637C11.588 16.841 9.473 15.373 7.874 13.379C8.409 12.469 9.109 11.651 9.95 10.971C11.73 13.193 14.337 14.57 17.168 14.794C16.857 15.257 16.499 15.693 16.096 16.096M6.646 17.944C6.641 16.834 6.841 15.753 7.221 14.746C8.578 16.292 10.232 17.521 12.091 18.367C11.415 18.534 10.715 18.62 10 18.62C8.832 18.62 7.706 18.393 6.646 17.944M2.725 14.626C2.675 14.548 2.627 14.47 2.58 14.391C3.088 12.558 3.917 10.886 5.046 9.418C6.185 7.937 7.583 6.731 9.203 5.829C9.555 7.052 9.641 8.345 9.453 9.612C6.999 11.42 5.489 14.2 5.289 17.221C4.264 16.551 3.389 15.668 2.725 14.626M3.905 3.905C4.771 3.038 5.788 2.379 6.898 1.951C7.65 2.696 8.265 3.57 8.713 4.526C6.85 5.529 5.25 6.891 3.952 8.577C3.034 9.772 2.297 11.088 1.751 12.507C1.506 11.7 1.38 10.857 1.38 10C1.38 7.698 2.277 5.533 3.905 3.905M11.73 1.552C12.8 3.158 13.572 4.958 13.966 6.772C14.387 8.703 14.392 10.629 13.985 12.501C12.75 11.882 11.659 10.976 10.814 9.833C11.065 8.17 10.906 6.466 10.349 4.886C9.915 3.655 9.247 2.512 8.391 1.529C8.916 1.43 9.454 1.379 10 1.379C10.588 1.379 11.167 1.438 11.73 1.552M18.621 10C18.621 11.206 18.375 12.373 17.907 13.447C17.003 13.439 16.119 13.294 15.28 13.028C15.783 10.888 15.794 8.685 15.314 6.479C14.998 5.027 14.461 3.583 13.738 2.227C14.601 2.643 15.398 3.206 16.096 3.905C17.724 5.533 18.621 7.698 18.621 10M17.072 2.929C15.183 1.04 12.672 0 10 0C7.329 0 4.818 1.04 2.929 2.929C1.041 4.818 0 7.328 0 10C0 11.909 0.54 13.765 1.561 15.367C2.555 16.927 3.957 18.179 5.615 18.99C6.987 19.66 8.463 20 10 20C12.672 20 15.183 18.96 17.072 17.071C18.96 15.182 20 12.671 20 10C20 7.328 18.96 4.818 17.072 2.929" fill="#001E28"/>
</svg>
