<svg width="20" height="20" viewBox="0 0 20 20" fill="none" xmlns="http://www.w3.org/2000/svg">
<mask id="mask0_8438_69114" style="mask-type:luminance" maskUnits="userSpaceOnUse" x="0" y="0" width="20" height="20">
<path fill-rule="evenodd" clip-rule="evenodd" d="M0 0H19.9998V19.9981H0V0Z" fill="white"/>
</mask>
<g mask="url(#mask0_8438_69114)">
<path fill-rule="evenodd" clip-rule="evenodd" d="M15.782 16.3921C14.179 12.3811 11.664 8.84108 8.438 6.02708C8.926 5.65708 9.436 5.31708 9.975 5.01908C11.159 6.17808 12.718 6.73408 13.818 7.11808C14.007 7.18308 14.183 7.24508 14.341 7.30408C17.007 8.30308 17.702 8.74708 18.605 9.45108C18.616 9.63308 18.633 9.81508 18.633 9.99908C18.633 12.5341 17.528 14.8101 15.782 16.3921M9.735 18.6201C9.095 17.1801 8.618 15.6871 8.183 13.7151C7.836 12.1401 7.251 10.1871 5.851 8.65508C6.31 8.02908 6.824 7.44808 7.386 6.91608C10.622 9.69508 13.119 13.2381 14.657 17.2581C13.311 18.1231 11.715 18.6331 10 18.6331C9.91 18.6331 9.824 18.6221 9.735 18.6201M3.412 15.5671C3.508 13.4861 4.101 11.5371 5.08 9.83208C5.881 10.8031 6.427 12.0981 6.848 14.0101C7.225 15.7181 7.645 17.1281 8.166 18.4321C6.278 18.0221 4.619 16.9921 3.412 15.5671M1.469 8.73808C2.538 8.43708 3.458 8.69608 4.013 8.95908C3.147 10.4131 2.538 12.0311 2.24 13.7591C1.687 12.6211 1.367 11.3481 1.367 9.99908C1.367 9.57008 1.409 9.15108 1.469 8.73808M3.604 4.22108C4.551 4.77608 5.451 5.39008 6.311 6.05208C5.75 6.59508 5.238 7.18708 4.773 7.81708C4.123 7.47808 3.076 7.10308 1.82 7.26008C2.202 6.12208 2.816 5.09208 3.604 4.22108M9.128 3.92408C8.505 4.28008 7.919 4.69008 7.36 5.13208C6.494 4.45308 5.582 3.82708 4.631 3.25008C5.76 2.35108 7.117 1.73308 8.602 1.49008C8.574 2.59408 8.912 3.48508 9.128 3.92408M9.971 1.36708C9.981 1.36708 9.99 1.36608 10 1.36608C11.376 1.36608 12.673 1.69808 13.828 2.27308C12.608 2.47108 11.437 2.81308 10.344 3.30308C10.192 2.99008 9.908 2.25808 9.971 1.36708M18.277 7.56508C17.536 7.12108 16.582 6.68408 14.821 6.02408C14.654 5.96108 14.468 5.89608 14.267 5.82708C13.365 5.51208 12.22 5.10908 11.309 4.39008C12.647 3.84608 14.093 3.51108 15.614 3.45408C16.862 4.52708 17.801 5.94708 18.277 7.56508M10 -0.000915527C4.486 -0.000915527 0 4.48508 0 9.99908C0 15.5131 4.486 19.9981 10 19.9981C15.514 19.9981 20 15.5131 20 9.99908C20 4.48508 15.514 -0.000915527 10 -0.000915527" fill="#001E28"/>
</g>
</svg>
