<svg width="20" height="20" viewBox="0 0 20 20" fill="none" xmlns="http://www.w3.org/2000/svg">
<path d="M19.9932 7.13379L13.6963 18.8467H1.2998L0 17.5479V14.3809L1.29883 13.082H15.2451L19.9932 4.25098V7.13379ZM1.86621 14.4463L1.36621 14.9473V16.9814L1.86523 17.4814H12.8799L14.5117 14.4463H1.86621ZM7.73438 2C10.3133 2.00003 13.0898 2.77002 13.0898 4.46094V7.47852C13.0898 9.16948 10.3133 9.94137 7.73438 9.94141C5.15538 9.94141 2.37891 9.16952 2.37891 7.47852V4.46094C2.37897 2.76998 5.15541 2 7.73438 2ZM11.7246 6.17383C10.6787 6.68181 9.17632 6.92283 7.73438 6.92285C6.29338 6.92285 4.79012 6.68183 3.74512 6.17383V7.47852C3.74512 7.76052 5.11737 8.5752 7.73438 8.5752C10.3523 8.57516 11.7246 7.76051 11.7246 7.47852V6.17383ZM7.73438 3.36523C5.11757 3.36523 3.74532 4.17988 3.74512 4.46094C3.74512 4.74294 5.11737 5.55762 7.73438 5.55762C10.3523 5.55758 11.7246 4.74293 11.7246 4.46094C11.7244 4.17989 10.3521 3.36527 7.73438 3.36523Z" fill="#001E28"/>
</svg>
