<svg width="20" height="20" viewBox="0 0 20 20" fill="none" xmlns="http://www.w3.org/2000/svg">
<path fill-rule="evenodd" clip-rule="evenodd" d="M17.7071 9.6091C16.9941 11.2261 15.8631 12.8161 14.3351 14.3461C12.8161 15.8631 11.2271 16.9931 9.61012 17.7071C8.23912 18.3111 6.84812 18.6181 5.47412 18.6181C5.13712 18.6181 4.82412 18.5861 4.51912 18.5481C6.61712 17.7251 9.72612 16.1291 12.8111 13.1371L12.8131 13.1401L12.9781 12.9751L12.9761 12.9731C16.1381 9.7111 17.7471 6.4161 18.5241 4.3251C18.5861 4.7531 18.6281 5.2101 18.6151 5.7081C18.5821 7.0051 18.2771 8.3191 17.7071 9.6091M17.6901 2.4101C17.2871 3.8661 15.8601 8.0321 11.9341 12.0631C8.05012 15.8621 4.04312 17.3301 2.43912 17.7981C2.93512 16.0741 4.36112 12.2101 7.92212 8.4231C12.0931 4.1961 16.4621 2.7511 17.6901 2.4101M1.38412 14.2921C1.41812 12.9951 1.72412 11.6811 2.29212 10.3891C3.00812 8.7711 4.13912 7.1821 5.66612 5.6541C7.18312 4.1371 8.77312 3.0051 10.3901 2.2921C11.6811 1.7231 12.9941 1.4171 14.2921 1.3841C14.9011 1.3641 15.4451 1.4321 15.9481 1.5231C13.9071 2.2771 10.4331 3.9421 7.02112 7.3691L7.01912 7.3671L6.85712 7.5361L6.85912 7.5381C3.86112 10.7441 2.31712 13.9491 1.54812 16.0601C1.44612 15.5321 1.36712 14.9501 1.38412 14.2921M19.0251 1.2541L18.9281 1.0731L18.7471 0.9741C18.6691 0.9341 16.7981 -0.0488995 14.2561 0.00210046C12.7771 0.0421005 11.2891 0.3851 9.83212 1.0271C8.05712 1.8101 6.32712 3.0391 4.67812 4.6891C3.04012 6.3261 1.81312 8.0551 1.02812 9.8331C0.386118 11.2901 0.0401177 12.7791 0.00311766 14.2561C-0.0488823 16.3001 0.576118 17.8891 0.848118 18.4831C0.848118 18.4851 0.847118 18.4921 0.847118 18.4931L0.853118 18.4951C0.917118 18.6321 0.967118 18.7321 0.975118 18.7471L1.07312 18.9271L1.25312 19.0251C1.28012 19.0401 1.53612 19.1741 1.96112 19.3391L1.96312 19.3461C1.96412 19.3461 1.97212 19.3441 1.97412 19.3441C2.71312 19.6291 3.96512 20.0001 5.47412 20.0001C7.04112 20.0001 8.62012 19.6541 10.1681 18.9711C11.9421 18.1881 13.6721 16.9611 15.3231 15.3111C16.9611 13.6711 18.1881 11.9421 18.9721 10.1671C19.6141 8.7111 19.9601 7.2231 19.9971 5.7441C20.0621 3.1971 19.0681 1.3321 19.0251 1.2541" fill="#001E28"/>
</svg>
