<svg width="24" height="16" viewBox="0 0 24 16" fill="none" xmlns="http://www.w3.org/2000/svg">
<g clip-path="url(#clip0_986_17547)">
<path d="M0 16H24V11.4102H0V16Z" fill="#CE2931"/>
<path d="M0 11.9863H24V7.96469H0V11.9863Z" fill="#21418C"/>
<path d="M0 7.9895H24V-4.3869e-05H0V7.9895Z" fill="#FBD632"/>
<mask id="mask0_986_17547" style="mask-type:luminance" maskUnits="userSpaceOnUse" x="0" y="0" width="24" height="16">
<path d="M0 0.00100899H24V16H0V0.00100899Z" fill="white"/>
</mask>
<g mask="url(#mask0_986_17547)">
<path d="M11.5565 8.47127L14.6585 5.82666V9.65428C14.6585 10.299 14.1325 10.8234 13.4845 10.8234C13.1945 10.8234 12.9145 10.7159 12.6995 10.5229L11.5565 9.50006V8.47127Z" fill="#FFE15A"/>
</g>
<mask id="mask1_986_17547" style="mask-type:luminance" maskUnits="userSpaceOnUse" x="0" y="0" width="24" height="16">
<path d="M0 0.00100899H24V16H0V0.00100899Z" fill="white"/>
</mask>
<g mask="url(#mask1_986_17547)">
<path d="M13.1933 9.97696L12.2953 9.17303V7.84177L13.9203 6.45579V7.42389V9.65459C13.9203 9.89338 13.7243 10.0874 13.4843 10.0874C13.3773 10.0874 13.2733 10.0486 13.1933 9.97696Z" fill="#FF4B55"/>
</g>
<mask id="mask2_986_17547" style="mask-type:luminance" maskUnits="userSpaceOnUse" x="0" y="0" width="24" height="16">
<path d="M0 0.00100899H24V16H0V0.00100899Z" fill="white"/>
</mask>
<g mask="url(#mask2_986_17547)">
<path d="M12.7383 7.46369V8.97702L13.4763 9.64066V7.41493V6.83388L13.9203 6.45579V7.42389V9.65459C13.9203 9.89338 13.7243 10.0874 13.4843 10.0874C13.3773 10.0874 13.2733 10.0486 13.1933 9.97696L12.2953 9.17303V7.84177L12.7383 7.46369Z" fill="#41479B"/>
</g>
<mask id="mask3_986_17547" style="mask-type:luminance" maskUnits="userSpaceOnUse" x="0" y="0" width="24" height="16">
<path d="M0 0.00100899H24V16H0V0.00100899Z" fill="white"/>
</mask>
<g mask="url(#mask3_986_17547)">
<path d="M12.4434 8.47127L9.34143 5.82666V9.65428C9.34143 10.299 9.86743 10.8234 10.5154 10.8234C10.8054 10.8234 11.0854 10.7159 11.3004 10.5229L12.4434 9.50006V8.47127Z" fill="#FFE15A"/>
</g>
<mask id="mask4_986_17547" style="mask-type:luminance" maskUnits="userSpaceOnUse" x="0" y="0" width="24" height="16">
<path d="M0 0.00100899H24V16H0V0.00100899Z" fill="white"/>
</mask>
<g mask="url(#mask4_986_17547)">
<path d="M10.8072 9.97696L11.7042 9.17303V7.84177L10.0802 6.45579V7.42389V9.65459C10.0802 9.89338 10.2752 10.0874 10.5152 10.0874C10.6232 10.0874 10.7272 10.0486 10.8072 9.97696Z" fill="#FF4B55"/>
</g>
<mask id="mask5_986_17547" style="mask-type:luminance" maskUnits="userSpaceOnUse" x="0" y="0" width="24" height="16">
<path d="M0 0.00100899H24V16H0V0.00100899Z" fill="white"/>
</mask>
<g mask="url(#mask5_986_17547)">
<path d="M11.2617 7.46369V8.97702L10.5227 9.64066V7.41493V6.83388L10.0797 6.45579V7.42389V9.65459C10.0797 9.89338 10.2757 10.0874 10.5157 10.0874C10.6237 10.0874 10.7267 10.0486 10.8067 9.97696L11.7047 9.17303V7.84177L11.2617 7.46369Z" fill="#41479B"/>
</g>
<mask id="mask6_986_17547" style="mask-type:luminance" maskUnits="userSpaceOnUse" x="0" y="0" width="24" height="16">
<path d="M0 0.00100899H24V16H0V0.00100899Z" fill="white"/>
</mask>
<g mask="url(#mask6_986_17547)">
<path d="M14.5521 5.83939H14.7641V7.10498H14.5521V5.83939Z" fill="#41479B"/>
</g>
<mask id="mask7_986_17547" style="mask-type:luminance" maskUnits="userSpaceOnUse" x="0" y="0" width="24" height="16">
<path d="M0 0.00100899H24V16H0V0.00100899Z" fill="white"/>
</mask>
<g mask="url(#mask7_986_17547)">
<path d="M9.23413 5.83939H9.44613V7.10498H9.23413V5.83939Z" fill="#41479B"/>
</g>
<mask id="mask8_986_17547" style="mask-type:luminance" maskUnits="userSpaceOnUse" x="0" y="0" width="24" height="16">
<path d="M0 0.00100899H24V16H0V0.00100899Z" fill="white"/>
</mask>
<g mask="url(#mask8_986_17547)">
<path d="M11.5567 5.23862C11.5567 5.23862 11.8517 3.84269 10.8187 4.02576C9.78466 4.20983 9.78466 4.50334 8.60266 5.09136C8.60266 5.09136 9.93166 5.38488 10.5227 5.23862C10.5227 5.23862 10.9667 5.82664 11.4097 5.9729H11.8527L11.5567 5.23862Z" fill="#5A4646"/>
</g>
<mask id="mask9_986_17547" style="mask-type:luminance" maskUnits="userSpaceOnUse" x="0" y="0" width="24" height="16">
<path d="M0 0.00100899H24V16H0V0.00100899Z" fill="white"/>
</mask>
<g mask="url(#mask9_986_17547)">
<path d="M12.4435 5.23862C12.4435 5.23862 12.1485 3.84269 13.1815 4.02576C14.2155 4.20983 14.2155 4.50334 15.3975 5.09136C15.3975 5.09136 14.0675 5.38488 13.4765 5.23862C13.4765 5.23862 13.0345 5.82664 12.5905 5.9729H12.1475L12.4435 5.23862Z" fill="#5A4646"/>
</g>
<mask id="mask10_986_17547" style="mask-type:luminance" maskUnits="userSpaceOnUse" x="0" y="0" width="24" height="16">
<path d="M0 0.00100899H24V16H0V0.00100899Z" fill="white"/>
</mask>
<g mask="url(#mask10_986_17547)">
<path d="M12.4435 5.97314H11.5575V5.23289C11.5575 4.99211 11.7535 4.7971 11.9945 4.7971H12.0055C12.2475 4.7971 12.4435 4.99211 12.4435 5.23289V5.97314Z" fill="#5A4646"/>
</g>
<mask id="mask11_986_17547" style="mask-type:luminance" maskUnits="userSpaceOnUse" x="0" y="0" width="24" height="16">
<path d="M0 0.00100899H24V16H0V0.00100899Z" fill="white"/>
</mask>
<g mask="url(#mask11_986_17547)">
<path d="M12 4.9442C12.163 4.9442 12.295 5.07554 12.295 5.23772C12.295 5.3999 12.163 5.53223 12 5.53223C11.837 5.53223 11.705 5.3999 11.705 5.23772C11.705 5.07554 11.837 4.9442 12 4.9442Z" fill="#E6E1CD"/>
</g>
<mask id="mask12_986_17547" style="mask-type:luminance" maskUnits="userSpaceOnUse" x="0" y="0" width="24" height="16">
<path d="M0 0.00100899H24V16H0V0.00100899Z" fill="white"/>
</mask>
<g mask="url(#mask12_986_17547)">
<path d="M11.3663 5.04861L11.9213 5.34312C11.9683 5.368 12.0253 5.36004 12.0633 5.32223C12.1103 5.27646 12.1103 5.20084 12.0633 5.15408L11.7043 4.79788H11.6183C11.4793 4.79788 11.3663 4.90932 11.3663 5.04861Z" fill="#FFD0AF"/>
</g>
<mask id="mask13_986_17547" style="mask-type:luminance" maskUnits="userSpaceOnUse" x="0" y="0" width="24" height="16">
<path d="M0 0.00100899H24V16H0V0.00100899Z" fill="white"/>
</mask>
<g mask="url(#mask13_986_17547)">
<path d="M11.5585 5.09143H11.1135L11.3085 4.86458C11.3455 4.8218 11.3985 4.79792 11.4545 4.79792H11.7045V4.94617C11.7045 5.02676 11.6395 5.09143 11.5585 5.09143Z" fill="#FFAF94"/>
</g>
<mask id="mask14_986_17547" style="mask-type:luminance" maskUnits="userSpaceOnUse" x="0" y="0" width="24" height="16">
<path d="M0 0.00100899H24V16H0V0.00100899Z" fill="white"/>
</mask>
<g mask="url(#mask14_986_17547)">
<path d="M13.2598 5.97374C13.1598 5.85634 13.1388 5.70013 13.1878 5.56481C13.3288 5.53994 13.4808 5.5877 13.5798 5.7051C13.6648 5.80559 13.6898 5.93295 13.6658 6.05334C13.6958 6.10309 13.7318 6.16677 13.7718 6.24338C13.7738 6.23243 13.7728 6.22149 13.7758 6.21054C13.8108 6.08916 13.9068 6.0026 14.0228 5.97374C14.1058 6.05832 14.1428 6.18269 14.1078 6.30507C14.0768 6.40954 13.9998 6.48515 13.9058 6.52396C13.9438 6.60853 13.9808 6.70007 14.0148 6.79658C14.0168 6.79061 14.0168 6.78464 14.0188 6.77966C14.0668 6.66126 14.1728 6.58664 14.2898 6.57072C14.3638 6.66425 14.3858 6.7916 14.3378 6.90901C14.2958 7.01149 14.2088 7.07915 14.1088 7.10601C14.1598 7.30799 14.1948 7.5219 14.1948 7.73682H14.0468C14.0468 7.54877 14.0178 7.36172 13.9738 7.18163C13.8828 7.21048 13.7808 7.20451 13.6928 7.15078C13.5848 7.08512 13.5288 6.9697 13.5308 6.85329C13.6348 6.79757 13.7638 6.79558 13.8708 6.86125C13.8748 6.86324 13.8778 6.86622 13.8808 6.86921C13.8498 6.77867 13.8168 6.6931 13.7808 6.61251C13.6928 6.6543 13.5888 6.66027 13.4928 6.61649C13.3788 6.56276 13.3098 6.45431 13.2988 6.3379C13.3958 6.27124 13.5238 6.25532 13.6368 6.30805C13.5968 6.23044 13.5598 6.16478 13.5308 6.11602C13.4288 6.10408 13.3308 6.05732 13.2598 5.97374Z" fill="#8CB400"/>
</g>
<mask id="mask15_986_17547" style="mask-type:luminance" maskUnits="userSpaceOnUse" x="0" y="0" width="24" height="16">
<path d="M0 0.00100899H24V16H0V0.00100899Z" fill="white"/>
</mask>
<g mask="url(#mask15_986_17547)">
<path d="M10.7402 5.97374C10.8402 5.85634 10.8612 5.70013 10.8122 5.56481C10.6702 5.53994 10.5192 5.5877 10.4202 5.7051C10.3352 5.80559 10.3102 5.93295 10.3342 6.05334C10.3042 6.10309 10.2682 6.16677 10.2292 6.24338C10.2272 6.23243 10.2272 6.22149 10.2242 6.21054C10.1892 6.08916 10.0922 6.0026 9.97723 5.97374C9.89523 6.05832 9.85823 6.18269 9.89223 6.30507C9.92323 6.40954 10.0002 6.48515 10.0942 6.52396C10.0562 6.60853 10.0202 6.70007 9.98623 6.79658C9.98423 6.79061 9.98323 6.78464 9.98123 6.77966C9.93323 6.66126 9.82723 6.58664 9.70923 6.57072C9.63723 6.66425 9.61423 6.7916 9.66223 6.90901C9.70423 7.01149 9.79123 7.07915 9.89123 7.10601C9.84023 7.30799 9.80523 7.5219 9.80523 7.73682H9.95323C9.95323 7.54877 9.98223 7.36172 10.0262 7.18163C10.1172 7.21048 10.2192 7.20451 10.3072 7.15078C10.4152 7.08512 10.4712 6.9697 10.4692 6.85329C10.3652 6.79757 10.2362 6.79558 10.1292 6.86125C10.1252 6.86324 10.1222 6.86622 10.1182 6.86921C10.1502 6.77867 10.1842 6.6931 10.2192 6.61251C10.3072 6.6543 10.4112 6.66027 10.5072 6.61649C10.6212 6.56276 10.6902 6.45431 10.7012 6.3379C10.6042 6.27124 10.4772 6.25532 10.3632 6.30805C10.4042 6.23044 10.4402 6.16478 10.4692 6.11602C10.5712 6.10408 10.6692 6.05732 10.7402 5.97374Z" fill="#8CB400"/>
</g>
<mask id="mask16_986_17547" style="mask-type:luminance" maskUnits="userSpaceOnUse" x="0" y="0" width="24" height="16">
<path d="M0 0.00100899H24V16H0V0.00100899Z" fill="white"/>
</mask>
<g mask="url(#mask16_986_17547)">
<path d="M11.9999 9.2064L8.89789 6.5608V10.3894C8.89789 11.0351 9.42389 11.5575 10.0719 11.5575C10.3619 11.5575 10.6419 11.451 10.8579 11.258L11.9999 10.2352V9.2064Z" fill="#FFE15A"/>
</g>
<mask id="mask17_986_17547" style="mask-type:luminance" maskUnits="userSpaceOnUse" x="0" y="0" width="24" height="16">
<path d="M0 0.00100899H24V16H0V0.00100899Z" fill="white"/>
</mask>
<g mask="url(#mask17_986_17547)">
<path d="M10.3637 10.7113L11.2607 9.90739V8.57613L9.63672 7.19015V8.15924V10.3899C9.63672 10.6287 9.83172 10.8228 10.0717 10.8228C10.1797 10.8228 10.2837 10.783 10.3637 10.7113Z" fill="#FF4B55"/>
</g>
<mask id="mask18_986_17547" style="mask-type:luminance" maskUnits="userSpaceOnUse" x="0" y="0" width="24" height="16">
<path d="M0 0.00100899H24V16H0V0.00100899Z" fill="white"/>
</mask>
<g mask="url(#mask18_986_17547)">
<path d="M10.8184 8.19878V9.71211L10.0804 10.3758V8.15002V7.56896L9.63641 7.19088V8.15898V10.3897C9.63641 10.6285 9.83241 10.8235 10.0724 10.8235C10.1804 10.8235 10.2834 10.7837 10.3634 10.7111L11.2614 9.90812V8.57686L10.8184 8.19878Z" fill="#41479B"/>
</g>
<mask id="mask19_986_17547" style="mask-type:luminance" maskUnits="userSpaceOnUse" x="0" y="0" width="24" height="16">
<path d="M0 0.00100899H24V16H0V0.00100899Z" fill="white"/>
</mask>
<g mask="url(#mask19_986_17547)">
<path d="M12 9.2064L15.102 6.5608V10.3894C15.102 11.0351 14.576 11.5575 13.928 11.5575C13.638 11.5575 13.357 11.451 13.143 11.258L12 10.2352V9.2064Z" fill="#FFE15A"/>
</g>
<mask id="mask20_986_17547" style="mask-type:luminance" maskUnits="userSpaceOnUse" x="0" y="0" width="24" height="16">
<path d="M0 0.00100899H24V16H0V0.00100899Z" fill="white"/>
</mask>
<g mask="url(#mask20_986_17547)">
<path d="M13.6358 10.7113L12.7388 9.90739V8.57613L14.3638 7.19015V8.15924V10.3899C14.3638 10.6287 14.1678 10.8228 13.9278 10.8228C13.8198 10.8228 13.7158 10.783 13.6358 10.7113Z" fill="#FF4B55"/>
</g>
<mask id="mask21_986_17547" style="mask-type:luminance" maskUnits="userSpaceOnUse" x="0" y="0" width="24" height="16">
<path d="M0 0.00100899H24V16H0V0.00100899Z" fill="white"/>
</mask>
<g mask="url(#mask21_986_17547)">
<path d="M13.1815 8.19878V9.71211L13.9195 10.3758V8.15002V7.56896L14.3635 7.19088V8.15898V10.3897C14.3635 10.6285 14.1675 10.8235 13.9275 10.8235C13.8195 10.8235 13.7155 10.7837 13.6355 10.7111L12.7385 9.90812V8.57686L13.1815 8.19878Z" fill="#41479B"/>
</g>
<mask id="mask22_986_17547" style="mask-type:luminance" maskUnits="userSpaceOnUse" x="0" y="0" width="24" height="16">
<path d="M0 0.00100899H24V16H0V0.00100899Z" fill="white"/>
</mask>
<g mask="url(#mask22_986_17547)">
<path d="M11.9999 5.97316C12.8159 5.97316 13.4769 6.96016 13.4769 8.177C13.4769 9.39483 12.8159 10.3818 11.9999 10.3818C11.1839 10.3818 10.5229 9.39483 10.5229 8.177C10.5229 6.96016 11.1839 5.97316 11.9999 5.97316Z" fill="#69C3FF"/>
</g>
<mask id="mask23_986_17547" style="mask-type:luminance" maskUnits="userSpaceOnUse" x="0" y="0" width="24" height="16">
<path d="M0 0.00100899H24V16H0V0.00100899Z" fill="white"/>
</mask>
<g mask="url(#mask23_986_17547)">
<path d="M10.671 8.76526H13.329L13.477 8.17823L12.804 8.28867C12.669 8.31156 12.531 8.27375 12.427 8.1852L11.663 7.5335C11.595 7.47479 11.507 7.44295 11.418 7.44295C11.318 7.44295 11.222 7.48176 11.151 7.5524L10.671 8.03098V8.76526Z" fill="#009B64"/>
</g>
<mask id="mask24_986_17547" style="mask-type:luminance" maskUnits="userSpaceOnUse" x="0" y="0" width="24" height="16">
<path d="M0 0.00100899H24V16H0V0.00100899Z" fill="white"/>
</mask>
<g mask="url(#mask24_986_17547)">
<path d="M11.86 8.07885L12.114 7.91766L11.663 7.53361C11.594 7.47491 11.507 7.44307 11.418 7.44307C11.318 7.44307 11.222 7.48187 11.151 7.55251L10.671 8.03109V8.17834L11.409 8.03109L11.54 8.09576C11.642 8.14651 11.764 8.14054 11.86 8.07885Z" fill="#F5F5F5"/>
</g>
<mask id="mask25_986_17547" style="mask-type:luminance" maskUnits="userSpaceOnUse" x="0" y="0" width="24" height="16">
<path d="M0 0.00100899H24V16H0V0.00100899Z" fill="white"/>
</mask>
<g mask="url(#mask25_986_17547)">
<path d="M10.671 8.76527L10.818 9.6478L11.557 10.3821H12L12.591 10.2358L13.182 9.6478L13.329 8.76527H10.671Z" fill="#5AA0E6"/>
</g>
<mask id="mask26_986_17547" style="mask-type:luminance" maskUnits="userSpaceOnUse" x="0" y="0" width="24" height="16">
<path d="M0 0.00100899H24V16H0V0.00100899Z" fill="white"/>
</mask>
<g mask="url(#mask26_986_17547)">
<path d="M11.9999 6.12038C11.2669 6.12038 10.6709 7.04271 10.6709 8.17796C10.6709 9.31221 11.2669 10.2355 11.9999 10.2355C12.7329 10.2355 13.3289 9.31221 13.3289 8.17796C13.3289 7.04271 12.7329 6.12038 11.9999 6.12038ZM11.9999 10.5291C11.1039 10.5291 10.3749 9.47439 10.3749 8.17696C10.3749 6.88152 11.1039 5.82587 11.9999 5.82587C12.8959 5.82587 13.6249 6.88152 13.6249 8.17696C13.6249 9.47439 12.8959 10.5291 11.9999 10.5291Z" fill="#FFC88C"/>
</g>
<mask id="mask27_986_17547" style="mask-type:luminance" maskUnits="userSpaceOnUse" x="0" y="0" width="24" height="16">
<path d="M0 0.00100899H24V16H0V0.00100899Z" fill="white"/>
</mask>
<g mask="url(#mask27_986_17547)">
<path d="M10.9581 10.3685C10.8341 10.1983 10.6501 10.0879 10.4411 10.0879C10.2321 10.0879 10.0481 10.1983 9.92407 10.3685C10.1351 10.4272 10.3081 10.5973 10.3901 10.8222C10.4231 10.9127 10.4411 11.0122 10.4411 11.1167C10.4411 10.7535 10.6621 10.4501 10.9581 10.3685Z" fill="#E1E1E1"/>
</g>
<mask id="mask28_986_17547" style="mask-type:luminance" maskUnits="userSpaceOnUse" x="0" y="0" width="24" height="16">
<path d="M0 0.00100899H24V16H0V0.00100899Z" fill="white"/>
</mask>
<g mask="url(#mask28_986_17547)">
<path d="M10.5587 10.8328C10.5587 10.8328 10.5467 11.0278 10.4457 11.1204L10.4417 11.1164C10.3407 11.0248 10.3297 10.8288 10.3297 10.8288L10.5587 10.8328Z" fill="#E1E1E1"/>
</g>
<mask id="mask29_986_17547" style="mask-type:luminance" maskUnits="userSpaceOnUse" x="0" y="0" width="24" height="16">
<path d="M0 0.00100899H24V16H0V0.00100899Z" fill="white"/>
</mask>
<g mask="url(#mask29_986_17547)">
<path d="M13.8477 10.896H10.1527C10.1127 10.896 10.0797 10.8642 10.0797 10.8244V10.8224C10.0797 10.7816 10.1127 10.7497 10.1527 10.7497H13.8477C13.8877 10.7497 13.9197 10.7816 13.9197 10.8224V10.8244C13.9197 10.8642 13.8877 10.896 13.8477 10.896Z" fill="#966446"/>
</g>
<mask id="mask30_986_17547" style="mask-type:luminance" maskUnits="userSpaceOnUse" x="0" y="0" width="24" height="16">
<path d="M0 0.00100899H24V16H0V0.00100899Z" fill="white"/>
</mask>
<g mask="url(#mask30_986_17547)">
<path d="M12.7422 11.1167H11.2582C11.0962 11.1167 10.9662 10.9864 10.9662 10.8262V10.8192C10.9662 10.659 11.0962 10.5287 11.2582 10.5287H12.7422C12.9032 10.5287 13.0342 10.659 13.0342 10.8192V10.8262C13.0342 10.9864 12.9032 11.1167 12.7422 11.1167Z" fill="#BE915A"/>
</g>
<mask id="mask31_986_17547" style="mask-type:luminance" maskUnits="userSpaceOnUse" x="0" y="0" width="24" height="16">
<path d="M0 0.00100899H24V16H0V0.00100899Z" fill="white"/>
</mask>
<g mask="url(#mask31_986_17547)">
<path d="M10.671 10.7492H10.154C10.113 10.7492 10.08 10.7821 10.08 10.8229C10.08 10.8627 10.113 10.8955 10.154 10.8955H10.671V10.7492Z" fill="#B9B9B9"/>
</g>
<mask id="mask32_986_17547" style="mask-type:luminance" maskUnits="userSpaceOnUse" x="0" y="0" width="24" height="16">
<path d="M0 0.00100899H24V16H0V0.00100899Z" fill="white"/>
</mask>
<g mask="url(#mask32_986_17547)">
<path d="M12 11.1166V12.4598L11.409 12.2927L11.705 11.1166H12Z" fill="#FF4B55"/>
</g>
<mask id="mask33_986_17547" style="mask-type:luminance" maskUnits="userSpaceOnUse" x="0" y="0" width="24" height="16">
<path d="M0 0.00100899H24V16H0V0.00100899Z" fill="white"/>
</mask>
<g mask="url(#mask33_986_17547)">
<path d="M11.852 11.1166L11.557 12.1454L10.966 11.9991L11.409 11.1166H11.852Z" fill="#41479B"/>
</g>
<mask id="mask34_986_17547" style="mask-type:luminance" maskUnits="userSpaceOnUse" x="0" y="0" width="24" height="16">
<path d="M0 0.00100899H24V16H0V0.00100899Z" fill="white"/>
</mask>
<g mask="url(#mask34_986_17547)">
<path d="M11.2617 11.1167L10.8187 11.7047L11.2617 11.851L11.5567 11.1167H11.2617Z" fill="#FFE15A"/>
</g>
<mask id="mask35_986_17547" style="mask-type:luminance" maskUnits="userSpaceOnUse" x="0" y="0" width="24" height="16">
<path d="M0 0.00100899H24V16H0V0.00100899Z" fill="white"/>
</mask>
<g mask="url(#mask35_986_17547)">
<path d="M12 11.1166V12.4598L12.591 12.2927L12.295 11.1166H12Z" fill="#FF4B55"/>
</g>
<mask id="mask36_986_17547" style="mask-type:luminance" maskUnits="userSpaceOnUse" x="0" y="0" width="24" height="16">
<path d="M0 0.00100899H24V16H0V0.00100899Z" fill="white"/>
</mask>
<g mask="url(#mask36_986_17547)">
<path d="M12.1478 11.1166L12.4428 12.1454L13.0338 11.9991L12.5908 11.1166H12.1478Z" fill="#41479B"/>
</g>
<mask id="mask37_986_17547" style="mask-type:luminance" maskUnits="userSpaceOnUse" x="0" y="0" width="24" height="16">
<path d="M0 0.00100899H24V16H0V0.00100899Z" fill="white"/>
</mask>
<g mask="url(#mask37_986_17547)">
<path d="M12.7383 11.1167L13.1813 11.7047L12.7383 11.851L12.4433 11.1167H12.7383Z" fill="#FFE15A"/>
</g>
<mask id="mask38_986_17547" style="mask-type:luminance" maskUnits="userSpaceOnUse" x="0" y="0" width="24" height="16">
<path d="M0 0.00100899H24V16H0V0.00100899Z" fill="white"/>
</mask>
<g mask="url(#mask38_986_17547)">
<path d="M9.00436 7.82654L8.79236 7.61362V6.56095H9.00436V7.82654Z" fill="#41479B"/>
</g>
<mask id="mask39_986_17547" style="mask-type:luminance" maskUnits="userSpaceOnUse" x="0" y="0" width="24" height="16">
<path d="M0 0.00100899H24V16H0V0.00100899Z" fill="white"/>
</mask>
<g mask="url(#mask39_986_17547)">
<path d="M15.206 7.61386L14.993 7.82678V6.56119H15.206V7.61386Z" fill="#41479B"/>
</g>
</g>
<defs>
<clipPath id="clip0_986_17547">
<rect width="24" height="16" fill="white"/>
</clipPath>
</defs>
</svg>
