<svg width="20" height="20" viewBox="0 0 20 20" fill="none" xmlns="http://www.w3.org/2000/svg">
<g clip-path="url(#clip0_8438_69438)">
<path d="M6.43016 4.91V0.8C6.43016 0.74 6.40016 0.65 6.35016 0.61L5.82016 0.08C5.82016 0.08 5.69016 0 5.63016 0H4.22016C4.22016 0 4.16016 0.03 4.16016 0.06V0.67C4.16016 0.67 4.19016 0.73 4.22016 0.73H5.58016C5.65016 0.73 5.71016 0.79 5.71016 0.86V4.92H4.23016C4.23016 4.92 4.17016 4.95 4.17016 4.98V5.59C4.17016 5.59 4.20016 5.65 4.23016 5.65H7.92016C7.92016 5.65 7.98016 5.62 7.98016 5.59V4.98C7.98016 4.98 7.95016 4.92 7.92016 4.92H6.44016L6.43016 4.91Z" fill="#001E28"/>
<path d="M11.6998 0.02C11.6998 0.02 11.6698 0 11.6498 0H11.0398C11.0398 0 10.9798 0.02 10.9698 0.05L8.7998 5.56C8.7998 5.56 8.7998 5.6 8.7998 5.61C8.7998 5.62 8.8298 5.63 8.8498 5.63H9.4698C9.4698 5.63 9.5198 5.61 9.5298 5.58L11.7098 0.07C11.7098 0.07 11.7098 0.03 11.7098 0.02H11.6998Z" fill="#001E28"/>
<path d="M16.2898 5.63C16.2898 5.63 16.3498 5.6 16.3498 5.57V4.96C16.3498 4.96 16.3198 4.9 16.2898 4.9H13.2698V4.31C13.2698 4.31 13.2798 4.27 13.2998 4.26L16.2598 2.34C16.3198 2.3 16.3598 2.23 16.3598 2.17V0.8C16.3598 0.74 16.3298 0.65 16.2798 0.61L15.7498 0.08C15.7498 0.08 15.6198 0 15.5598 0H12.6098C12.6098 0 12.5498 0.03 12.5498 0.06V0.67C12.5498 0.67 12.5798 0.73 12.6098 0.73H15.5098C15.5798 0.73 15.6398 0.79 15.6398 0.86V1.89C15.6398 1.89 15.6298 1.93 15.6098 1.94L12.6498 3.86C12.5898 3.9 12.5498 3.97 12.5498 4.03V5.59C12.5498 5.59 12.5798 5.65 12.6098 5.65H16.2998L16.2898 5.63Z" fill="#001E28"/>
<path d="M7.36016 7.25999C7.36016 7.25999 7.23016 7.17999 7.17016 7.17999H4.91016C4.91016 7.17999 4.81016 7.21999 4.77016 7.25999L4.24016 7.78999C4.24016 7.78999 4.16016 7.91999 4.16016 7.97999V12.07C4.16016 12.07 4.20016 12.17 4.24016 12.21L4.77016 12.74C4.77016 12.74 4.89016 12.82 4.96016 12.82H7.22016C7.22016 12.82 7.32016 12.78 7.36016 12.74L7.89016 12.21C7.89016 12.21 7.97016 12.08 7.97016 12.02V7.92999C7.97016 7.92999 7.93016 7.82999 7.89016 7.78999L7.36016 7.25999ZM7.25016 8.02999V11.97C7.25016 12.04 7.19016 12.1 7.12016 12.1H5.02016C4.95016 12.1 4.89016 12.04 4.89016 11.97V8.02999C4.89016 7.95999 4.95016 7.89999 5.02016 7.89999H7.12016C7.19016 7.89999 7.25016 7.95999 7.25016 8.02999Z" fill="#001E28"/>
<path d="M8.8498 12.1H9.4698C9.4698 12.1 9.5198 12.12 9.5198 12.15V12.77C9.5198 12.77 9.4998 12.82 9.4698 12.82H8.8498C8.8498 12.82 8.7998 12.8 8.7998 12.77V12.15C8.7998 12.15 8.8198 12.1 8.8498 12.1Z" fill="#001E28"/>
<path d="M13.5501 9.71999C13.5501 9.71999 13.4201 9.63999 13.3601 9.63999H11.0801V7.90999H13.7801C13.7801 7.90999 13.8401 7.87999 13.8401 7.84999V7.23999C13.8401 7.23999 13.8101 7.17999 13.7801 7.17999H10.4101C10.4101 7.17999 10.3501 7.20999 10.3501 7.23999V10.3C10.3501 10.3 10.3801 10.36 10.4101 10.36H13.3101C13.3801 10.36 13.4401 10.42 13.4401 10.49V11.97C13.4401 12.04 13.3801 12.1 13.3101 12.1H10.4101C10.4101 12.1 10.3501 12.13 10.3501 12.16V12.77C10.3501 12.77 10.3801 12.83 10.4101 12.83H13.3601C13.4201 12.83 13.5001 12.8 13.5501 12.75L14.0801 12.22C14.0801 12.22 14.1601 12.09 14.1601 12.03V10.44C14.1601 10.37 14.1301 10.3 14.0801 10.25L13.5501 9.71999Z" fill="#001E28"/>
<path d="M18.71 7.78999L18.18 7.25999C18.18 7.25999 18.05 7.17999 17.99 7.17999H15.73C15.73 7.17999 15.63 7.21999 15.59 7.25999L15.06 7.78999C15.06 7.78999 14.98 7.91999 14.98 7.97999V12.07C14.98 12.07 15.02 12.17 15.06 12.21L15.59 12.74C15.59 12.74 15.71 12.82 15.78 12.82H18.04C18.04 12.82 18.14 12.78 18.18 12.74L18.71 12.21C18.71 12.21 18.79 12.08 18.79 12.02V7.92999C18.79 7.92999 18.75 7.82999 18.71 7.78999ZM18.07 8.02999V11.97C18.07 12.04 18.01 12.1 17.94 12.1H15.84C15.77 12.1 15.71 12.04 15.71 11.97V8.02999C15.71 7.95999 15.77 7.89999 15.84 7.89999H17.94C18.01 7.89999 18.07 7.95999 18.07 8.02999Z" fill="#001E28"/>
<path d="M7.36016 14.44C7.36016 14.44 7.23016 14.36 7.17016 14.36H4.22016C4.22016 14.36 4.16016 14.39 4.16016 14.42V15.03C4.16016 15.03 4.19016 15.09 4.22016 15.09H7.12016C7.19016 15.09 7.25016 15.15 7.25016 15.22V16.25C7.25016 16.25 7.24016 16.29 7.22016 16.3L4.26016 18.22C4.20016 18.26 4.16016 18.33 4.16016 18.39V19.95C4.16016 19.95 4.19016 20.01 4.22016 20.01H7.91016C7.91016 20.01 7.97016 19.98 7.97016 19.95V19.34C7.97016 19.34 7.94016 19.28 7.91016 19.28H4.89016V18.69C4.89016 18.69 4.90016 18.65 4.92016 18.64L7.88016 16.72C7.94016 16.68 7.98016 16.61 7.98016 16.55V15.17C7.98016 15.11 7.95016 15.03 7.90016 14.98L7.37016 14.45L7.36016 14.44Z" fill="#001E28"/>
<path d="M8.8498 19.28H9.4698C9.4698 19.28 9.5198 19.3 9.5198 19.33V19.96C9.5198 19.96 9.4998 20.01 9.4698 20.01H8.8498C8.8498 20.01 8.7998 19.99 8.7998 19.96V19.34C8.7998 19.34 8.8198 19.29 8.8498 19.29V19.28Z" fill="#001E28"/>
<path d="M13.5501 14.44C13.5501 14.44 13.4201 14.36 13.3601 14.36H11.1001C11.1001 14.36 11.0001 14.4 10.9601 14.44L10.4301 14.97C10.4301 14.97 10.3501 15.1 10.3501 15.16V19.25C10.3501 19.25 10.3901 19.35 10.4301 19.39L10.9601 19.92C10.9601 19.92 11.0901 20 11.1501 20H13.4101C13.4101 20 13.5101 19.96 13.5501 19.92L14.0801 19.39C14.0801 19.39 14.1601 19.27 14.1601 19.2V15.11C14.1601 15.11 14.1201 15.01 14.0801 14.97L13.5501 14.44ZM13.4401 15.22V19.15C13.4401 19.22 13.3801 19.28 13.3101 19.28H11.2101C11.1401 19.28 11.0801 19.22 11.0801 19.15V15.22C11.0801 15.15 11.1401 15.09 11.2101 15.09H13.3101C13.3801 15.09 13.4401 15.15 13.4401 15.22Z" fill="#001E28"/>
<path d="M18.18 14.44C18.18 14.44 18.05 14.36 17.99 14.36H15.73C15.73 14.36 15.63 14.4 15.59 14.44L15.06 14.97C15.06 14.97 14.98 15.1 14.98 15.16V19.25C14.98 19.25 15.02 19.35 15.06 19.39L15.59 19.92C15.59 19.92 15.72 20 15.78 20H18.04C18.04 20 18.14 19.96 18.18 19.92L18.71 19.39C18.71 19.39 18.79 19.27 18.79 19.2V15.11C18.79 15.11 18.75 15.01 18.71 14.97L18.18 14.44ZM18.07 15.22V19.15C18.07 19.22 18.01 19.28 17.94 19.28H15.84C15.77 19.28 15.71 19.22 15.71 19.15V15.22C15.71 15.15 15.77 15.09 15.84 15.09H17.94C18.01 15.09 18.07 15.15 18.07 15.22Z" fill="#001E28"/>
<path d="M3.52 16.82H1.06C1.02686 16.82 1 16.8469 1 16.88V17.48C1 17.5131 1.02686 17.54 1.06 17.54H3.52C3.55314 17.54 3.58 17.5131 3.58 17.48V16.88C3.58 16.8469 3.55314 16.82 3.52 16.82Z" fill="#001E28"/>
</g>
<defs>
<clipPath id="clip0_8438_69438">
<rect width="20" height="20" fill="white"/>
</clipPath>
</defs>
</svg>
