<svg width="20" height="20" viewBox="0 0 20 20" fill="none" xmlns="http://www.w3.org/2000/svg">
<path d="M0 14.1965C1.48289 14.6193 2.64568 15.8048 3.02441 17.3098H1.59668C1.31112 16.5603 0.730424 15.9595 0 15.6379V14.1965ZM0 10.7033C3.37351 11.2223 6.03504 13.9172 6.49902 17.3098H5.11621C4.67527 14.6727 2.61803 12.5771 0 12.0852V10.7033ZM0 7.26582C5.25725 7.82091 9.43662 12.0365 9.93359 17.3098H8.55859C8.07265 12.792 4.50078 9.19074 0 8.64668V7.26582ZM20 5.27657V14.8342L17.5264 17.3078H11.9541C11.917 16.8422 11.8585 16.3835 11.7734 15.9318H16.9561L18.623 14.2619V5.84688L16.9531 4.17696H3.00879L1.68555 5.49922C1.13547 5.37799 0.573118 5.2876 0 5.2375L2.43848 2.8H17.5234L20 5.27657Z" fill="#001E28"/>
</svg>
