<svg width="20" height="20" viewBox="0 0 20 20" fill="none" xmlns="http://www.w3.org/2000/svg">
<path d="M18.6904 0.22168C18.9813 -0.0737936 19.4385 -0.0737113 19.7295 0.22168C20.0204 0.517194 20.0204 0.981829 19.7295 1.27734L17.6104 3.42969C19.0859 5.18167 20 7.48287 20 9.97363C20 15.504 15.573 20 10.1279 20C7.6757 19.9999 5.41043 19.092 3.68555 17.5723L1.56543 19.7256C1.41998 19.8732 1.23287 19.9365 1.0459 19.9365C0.858966 19.9364 0.671759 19.8733 0.526367 19.7256C0.235566 19.4301 0.235477 18.9654 0.526367 18.6699L18.6904 0.22168ZM7.15625 14.0479L7.07324 14.1318C7.71745 16.8335 8.96419 18.5222 10.1279 18.5225C11.2917 18.5225 12.5595 16.8128 13.2246 14.0479H7.15625ZM4.72461 16.5176C5.41041 17.0875 6.2007 17.5724 7.05273 17.9102C6.59552 17.2136 6.20041 16.327 5.88867 15.335L4.72461 16.5176ZM14.7002 14.0479C14.3677 15.5885 13.8483 16.8971 13.2041 17.9102C15.0536 17.1714 16.5706 15.7996 17.5059 14.0479H14.7002ZM9.87207 0C11.9294 7.15052e-05 13.8412 0.65441 15.4414 1.75195L14.3818 2.82812C13.9246 2.53261 13.446 2.27982 12.9473 2.08984C13.2174 2.51201 13.4667 2.99769 13.6953 3.52539L12.5732 4.66504C11.8875 2.6811 10.8488 1.4993 9.87207 1.49902C8.70829 1.49902 7.44018 3.20828 6.7959 5.95215H11.2852L9.83008 7.42969H6.50488C6.40097 8.23179 6.33887 9.09761 6.33887 10.0264C6.33887 10.3429 6.33861 10.6595 6.35938 10.9971L5.00879 12.3691C4.92569 11.6305 4.8838 10.8498 4.88379 10.0479C4.88379 9.14021 4.94589 8.27438 5.0498 7.45117H1.87012C1.62074 8.27437 1.47559 9.14023 1.47559 10.0479C1.47562 10.9553 1.62082 11.8205 1.87012 12.6436H4.71777L3.2627 14.1211H2.49414C2.57724 14.2899 2.68128 14.4377 2.78516 14.6064L1.72461 15.6836C0.643919 14.0583 0 12.1161 0 10.0264C9.84444e-06 4.49603 4.42704 0 9.87207 0ZM8.61133 12.5703H13.4951C13.599 11.7682 13.6611 10.9024 13.6611 9.97363C13.6611 9.12948 13.5987 8.32753 13.5156 7.58887L8.61133 12.5703ZM14.9707 7.37695C15.0746 8.20017 15.1367 9.06598 15.1367 9.97363C15.1367 10.8813 15.0746 11.7471 14.9707 12.5703H18.1504C18.3998 11.7471 18.5449 10.8813 18.5449 9.97363C18.5449 9.06598 18.3998 8.20017 18.1504 7.37695H14.9707ZM6.7959 2.08984C4.9464 2.82858 3.42936 4.20037 2.49414 5.95215H5.2998C5.63232 4.41147 6.15172 3.10294 6.7959 2.08984ZM15.1787 5.87891H17.5059C17.2357 5.39347 16.9245 4.92858 16.5713 4.48535L15.1787 5.87891Z" fill="#001E28"/>
</svg>
