<svg width="24" height="16" viewBox="0 0 24 16" fill="none" xmlns="http://www.w3.org/2000/svg">
<g clip-path="url(#clip0_986_17624)">
<mask id="mask0_986_17624" style="mask-type:luminance" maskUnits="userSpaceOnUse" x="0" y="0" width="24" height="16">
<path d="M0 16H24V1.90735e-06H0V16Z" fill="white"/>
</mask>
<g mask="url(#mask0_986_17624)">
<path d="M7.79063 6.15224C7.69463 6.11144 7.68663 6.13632 7.67863 6.22388C7.66963 6.31244 7.69463 6.36816 7.83863 6.32836C7.86263 6.3194 7.89463 6.30448 7.92763 6.29652C7.87863 6.22388 7.83063 6.16816 7.79063 6.15224Z" fill="#1E9551"/>
</g>
<mask id="mask1_986_17624" style="mask-type:luminance" maskUnits="userSpaceOnUse" x="0" y="0" width="24" height="16">
<path d="M0 16H24V1.90735e-06H0V16Z" fill="white"/>
</mask>
<g mask="url(#mask1_986_17624)">
<path d="M9.4849 4.25604C9.4609 4.31276 9.4529 4.35256 9.5009 4.3844C9.5169 4.35256 9.5329 4.31276 9.5409 4.27992C9.5569 4.23216 9.5169 4.1844 9.4849 4.25604Z" fill="#1E9551"/>
</g>
<mask id="mask2_986_17624" style="mask-type:luminance" maskUnits="userSpaceOnUse" x="0" y="0" width="24" height="16">
<path d="M0 16H24V1.90735e-06H0V16Z" fill="white"/>
</mask>
<g mask="url(#mask2_986_17624)">
<path d="M5.97551 4.60839C6.00751 4.49595 6.03151 4.51187 6.03151 4.60839C6.02351 4.80839 6.05651 5.19247 6.15251 5.34471C6.20851 5.44023 6.26451 5.43227 6.29651 5.36859C6.33651 5.30491 6.36151 5.13575 6.36951 5.04819C6.37651 4.83227 6.46551 4.62431 6.56151 4.48102C6.61851 4.39247 6.70651 4.33675 6.77051 4.38451C6.84251 4.43227 6.80251 4.61635 6.76251 4.73575C6.72251 4.85615 6.69851 5.04023 6.78651 5.24023C6.82751 5.33575 6.89151 5.40839 7.00351 5.40839C6.97951 5.12879 6.95551 4.80839 6.94751 4.69595C6.92351 4.52083 6.86751 4.42431 6.89851 4.36063C6.85851 4.28003 6.81851 4.24023 6.87451 4.14471C6.93151 4.04819 6.96351 3.98451 7.04351 4.13675C7.15651 4.33675 7.22851 4.52083 7.09151 4.56859C7.10751 4.82431 7.14751 5.14471 7.17251 5.38451C7.27651 5.30491 7.34851 5.15267 7.33251 5.08003C7.30851 4.97655 7.28451 4.82431 7.24451 4.64819C7.21251 4.52879 7.24451 4.42431 7.26051 4.35267C7.28451 4.28799 7.29251 4.26411 7.38951 4.39247C7.47751 4.52083 7.46151 4.60839 7.45351 4.73575C7.44551 4.86411 7.46951 4.95267 7.51751 5.14471C7.56551 5.33575 7.68551 5.36063 7.77451 5.36063C7.86251 5.36063 7.91151 5.32879 7.88751 5.20043C7.87051 5.06411 7.80651 4.82431 7.71051 4.60043C7.67851 4.52083 7.67851 4.48799 7.70251 4.45615C7.72551 4.42431 7.76651 4.38451 7.79851 4.33675C7.83851 4.28799 7.87851 4.32879 7.91851 4.37655C7.95851 4.42431 8.00751 4.47207 8.03151 4.52879C8.08751 4.62431 8.05551 4.69595 7.96751 4.68103C8.07151 5.06411 8.17551 5.41635 7.93451 5.58451C7.67851 5.76859 7.48551 5.64023 7.43651 5.44819C7.41251 5.35267 7.39651 5.34471 7.33251 5.46411C7.30851 5.51287 7.25251 5.59247 7.18851 5.64023C7.22051 6.00043 7.22851 6.26411 7.24451 6.42431C7.25251 6.57655 7.26051 6.68799 7.21251 6.79247C7.16351 6.89595 7.14051 6.95267 7.13151 6.76063C7.13151 6.57655 7.05151 6.04023 7.02751 5.75267C6.56951 5.76063 6.55351 5.24023 6.61051 4.91983C6.63351 4.80043 6.61051 4.64819 6.54551 4.84819C6.43351 5.16859 6.48151 5.36063 6.36151 5.57655C6.28051 5.72083 6.16851 5.76063 6.07951 5.58451C5.99151 5.40839 5.87151 4.99247 5.97551 4.60839ZM6.26451 4.07207C6.34551 3.96859 6.44951 3.93675 6.47351 4.11187C6.48151 4.24819 6.38551 4.41635 6.33651 4.49595C6.41751 4.27307 6.42551 4.07207 6.32951 4.14471C6.24851 4.20839 6.20051 4.14471 6.26451 4.07207ZM7.37251 4.07207C7.41251 3.96859 7.43651 4.04023 7.43651 4.12879C7.43651 4.23227 7.51751 4.25615 7.57351 4.13675C7.60551 4.05615 7.62951 3.99247 7.62951 4.11187C7.63851 4.24023 7.73451 4.26411 7.75051 4.16063C7.76651 4.09595 7.76651 4.08103 7.79051 4.13675C7.81451 4.19247 7.79051 4.23227 7.77451 4.27307C7.75051 4.31983 7.66951 4.33675 7.64551 4.28799C7.60551 4.22431 7.60551 4.23227 7.56551 4.28003C7.51751 4.31983 7.44551 4.31983 7.40551 4.26411C7.36451 4.21635 7.34851 4.13675 7.37251 4.07207ZM8.18351 4.17655C8.28851 4.07207 8.31251 4.03227 8.35251 4.16063C8.40051 4.28799 8.47351 4.52083 8.52051 4.62431C8.58551 4.76063 8.49651 4.89695 8.40051 4.77655C8.44051 5.25615 8.46451 5.65615 8.48951 6.00839C8.52951 5.98451 8.56151 5.94471 8.60151 5.91287C8.64151 5.86411 8.72251 5.82431 8.71351 5.95267C8.68251 6.38451 9.01151 6.31187 9.12351 5.93575C9.14751 5.84819 9.17951 5.77655 9.19551 5.96859C9.22751 6.28003 9.49351 6.30491 9.46051 6.00043C9.45251 5.91983 9.38851 5.91287 9.46851 5.84819C9.54051 5.79247 9.56451 5.78451 9.58051 5.89595C9.59751 6.00839 9.60551 6.15267 9.54951 6.30491C9.48451 6.44819 9.23551 6.41635 9.16351 6.31187C9.11551 6.24023 9.11551 6.24819 9.05951 6.31187C8.95451 6.44819 8.61751 6.51287 8.54551 6.28003C8.53751 6.28799 8.52951 6.30491 8.51351 6.31187C8.52051 6.44819 8.52951 6.57655 8.52951 6.69695C8.55351 7.15267 8.49651 7.60839 7.99851 7.84819C7.49351 8.08799 6.84251 8.19247 6.65051 7.82431C6.46551 7.45615 6.53751 7.00839 6.59351 6.81635C6.65851 6.61635 6.68251 6.58451 6.69051 6.78451C6.69051 6.88899 6.65851 6.93675 6.65851 7.00839C6.65051 7.48003 6.77851 7.83227 7.33251 7.75267C7.56551 7.71287 7.83851 7.60839 8.03951 7.44819C8.18351 7.33675 8.34451 7.21635 8.32851 6.80839C8.32051 6.68102 8.33651 6.51983 8.32851 6.39247C8.28851 6.40839 8.23251 6.44819 8.20051 6.46411C8.20051 6.51287 8.20751 6.57655 8.20751 6.64819C8.22451 7.02431 7.88751 7.29595 7.54151 7.44819C7.19651 7.60043 6.97951 7.49595 6.84251 7.26411C6.74651 7.09595 6.77051 6.76063 6.84251 6.52879C6.86751 6.45615 6.93151 6.36859 6.89851 6.56859C6.86751 6.80839 6.91451 7.00839 7.02751 7.13675C7.22851 7.36859 7.68551 7.11287 7.98351 6.76063C8.03151 6.69695 8.03951 6.60839 8.02351 6.52879C7.94251 6.55963 7.86251 6.58451 7.80651 6.60043C7.73451 6.62431 7.68551 6.64023 7.57351 6.60043C7.45351 6.55963 7.48551 6.50491 7.47751 6.35267C7.46951 6.20043 7.46151 6.16063 7.57351 5.99247C7.69451 5.81635 7.81451 5.82431 7.95851 5.96859C8.04751 6.05714 8.10351 6.12779 8.14351 6.21635C8.19251 6.19247 8.26451 6.14371 8.31251 6.12083C8.28051 5.59247 8.21551 5.17655 8.19251 4.97655C8.16051 4.69595 8.13551 4.56063 8.15151 4.42431C8.10351 4.31287 8.08751 4.28799 8.18351 4.17655ZM9.47651 5.32879C9.57351 5.22431 9.59751 5.24023 9.54051 5.36859C9.48451 5.48799 9.33251 5.56063 9.26051 5.49695C9.12351 5.39247 9.19551 5.21635 9.29251 5.09595C9.38851 4.96063 9.44451 4.99247 9.34851 5.13575C9.20451 5.34471 9.34051 5.48003 9.47651 5.32879ZM8.82651 5.06411C9.05951 4.91287 9.27651 4.72879 9.41251 4.53675C9.30851 4.44819 9.30851 4.31983 9.34851 4.20839C9.44451 3.96063 9.76651 3.99247 9.67751 4.31287C9.66951 4.36063 9.64551 4.42431 9.61351 4.48799C9.66151 4.55267 9.63751 4.63227 9.54051 4.61635C9.43651 4.78451 9.23551 4.96859 8.89051 5.12083C8.72951 5.19247 8.70551 5.13575 8.82651 5.06411ZM9.07551 6.85615C8.96251 6.90491 8.92251 6.81635 8.95451 6.73675C8.97851 6.67207 9.00251 6.62431 9.08351 6.65615C9.15551 6.68799 9.15551 6.71187 9.16351 6.79247C9.18751 6.90491 9.15551 7.01635 9.10751 7.11287C9.05951 7.20043 9.02751 7.16859 9.05951 7.09595C9.08351 7.04023 9.09151 6.91187 9.07551 6.85615ZM10.0385 6.45615C9.96651 6.31187 9.91051 6.20839 9.88651 6.14371C9.74151 6.08799 9.78251 6.00839 9.84651 5.87207C9.91051 5.73675 9.93451 5.70491 10.0625 5.85615C10.2475 6.07207 10.2715 6.16759 10.1435 6.15267C10.3445 6.66411 10.2955 6.92879 9.98251 7.23227C9.83851 7.38451 9.68551 7.50391 9.50951 7.60043C9.49351 7.73675 9.54951 7.87207 9.80651 7.83227C10.1435 7.78451 10.5205 7.34471 10.6815 7.00839C10.6095 6.72779 10.4485 6.22431 10.3515 5.96859C10.3045 5.84023 10.3515 5.78451 10.3925 5.68003C10.4405 5.57655 10.4645 5.51287 10.5205 5.65615C10.5775 5.79247 10.7535 6.13675 10.8335 6.54371C10.9225 6.95267 10.9065 7.30391 11.1155 7.49595C11.2115 7.58451 11.3315 7.64023 11.4605 7.67207C11.3645 7.40043 11.5645 7.19247 11.8295 7.09595C11.6695 6.94471 11.4205 6.96859 11.1395 6.95267C10.9305 6.94471 10.9545 6.91983 11.0105 6.73675C11.0665 6.55267 11.1315 6.52879 11.2835 6.46411C11.4925 6.38451 11.7015 6.30491 11.9185 6.24023C11.7815 6.04023 11.8705 5.89595 11.9745 5.74471C12.1025 5.56063 12.3115 5.61635 12.5525 5.78451C12.7935 5.95267 12.6975 6.21635 12.4645 6.35267C12.4075 6.38451 12.3355 6.41635 12.2465 6.44819C12.2715 6.50491 12.2395 6.51983 12.1655 6.47207C11.9585 6.54371 11.6845 6.64819 11.4925 6.75267C11.7255 6.76859 12.6885 6.75267 12.8815 6.72779C13.0745 6.71187 13.0425 6.74371 12.9865 6.91187C12.9305 7.07207 12.8655 7.05615 12.7045 7.08003C12.4485 7.12879 12.0705 7.24023 11.7975 7.35267C11.5245 7.46411 11.6215 7.66411 11.9015 7.76859C12.1185 7.82431 12.0945 7.84819 12.0545 7.97655C12.0225 8.09595 12.0225 8.12879 11.7575 8.08799C11.1065 7.98451 10.8735 7.62431 10.7695 7.34471C10.3685 7.91187 9.97451 8.22431 9.60551 8.12879C9.42051 8.08799 9.33251 7.92083 9.31651 7.71287C9.05951 7.83227 8.76251 7.93575 8.37651 8.04819C8.28851 8.08003 8.21551 8.04023 8.33651 7.98451C8.59351 7.85615 8.99551 7.64023 9.32451 7.40839C9.35651 7.26411 9.42851 7.06411 9.50051 6.91983C9.54051 6.83227 9.56451 6.86411 9.56451 6.93675C9.56451 6.99247 9.54951 7.13675 9.55751 7.24023C9.61351 7.19247 9.69351 7.14371 9.73351 7.10391C9.95851 6.90491 10.2075 6.77655 10.0385 6.45615ZM11.4765 6.04819C11.4285 5.99247 11.4125 6.00043 11.3885 6.07207C11.3645 6.13675 11.2835 6.14371 11.2435 6.08799C11.2035 6.03227 11.1795 5.96063 11.1955 5.84819C11.2115 5.72779 11.2275 5.79247 11.2435 5.87207C11.2915 6.05714 11.3715 6.03227 11.3715 5.84819C11.3795 5.75267 11.4125 5.75267 11.4365 5.82431C11.5085 6.01635 11.5725 6.01635 11.5725 5.81635C11.5725 5.68799 11.5885 5.66411 11.6285 5.77655C11.7175 6.05714 11.5325 6.10391 11.4765 6.04819ZM9.87051 4.41635C9.92651 4.27307 9.94251 4.32879 9.91051 4.45615C9.87851 4.58451 9.87051 4.91287 9.95851 5.09595C10.0385 5.24819 10.1515 5.31287 10.2075 5.12879C10.2635 4.95267 10.4245 4.57655 10.5845 4.35267C10.6575 4.24819 10.7055 4.21635 10.7615 4.30391C10.8175 4.38451 10.7775 4.40839 10.7615 4.56859C10.7375 4.72879 10.7375 4.94471 10.7455 5.12083C10.7455 5.29595 10.8825 5.44023 11.1395 5.28799C11.3955 5.14471 11.4125 4.88799 11.2915 4.32879C11.2675 4.21635 11.2355 4.20043 11.2675 4.14471C11.2995 4.08899 11.3085 4.04819 11.3395 3.99247C11.3795 3.92083 11.3955 3.94471 11.4525 4.08103C11.5005 4.21635 11.5325 4.43227 11.5405 4.68799C11.5485 4.88003 11.6775 5.31287 11.8775 5.27207C12.0945 5.22431 11.9665 4.71187 11.8295 4.36063C11.7895 4.27307 11.7815 4.24819 11.8295 4.20043C11.8775 4.16063 11.8705 4.14471 11.9015 4.08899C11.9335 4.03227 11.9505 3.99247 12.0305 4.06411C12.1185 4.13675 12.1835 4.22431 12.2395 4.37655C12.2875 4.53675 12.1915 4.50491 12.1355 4.44819C12.0785 4.40043 12.0545 4.40043 12.0945 4.49595C12.1355 4.58451 12.1995 4.89695 12.1915 5.04023C12.1515 5.50391 11.8295 5.72779 11.4685 5.24819C11.3485 5.48799 11.0025 5.72083 10.7775 5.58451C10.5535 5.44819 10.5695 5.08799 10.5935 4.86411C10.6005 4.75267 10.5605 4.72879 10.5125 4.84819C10.4645 4.96859 10.4165 5.14471 10.3445 5.32083C10.2795 5.50391 10.1675 5.58451 10.0145 5.41635C9.74951 5.12083 9.74151 4.77655 9.87051 4.41635ZM10.9625 4.10391C10.9945 4.05615 11.0425 4.08899 11.0825 4.20839C11.1225 4.32879 11.1315 4.52879 11.0985 4.67207C11.0585 4.81635 11.0425 4.73575 11.0505 4.65615C11.0755 4.47207 11.0025 4.29695 10.9545 4.24023C10.9065 4.16859 10.9065 4.16063 10.9625 4.10391ZM12.4545 4.04819C12.5605 4.14471 12.7285 4.28003 12.8495 4.41635C12.9705 4.54471 12.8895 4.58451 12.7535 4.52879C12.8415 4.66411 12.9545 4.82431 13.0425 4.95267C13.0265 4.77655 12.9865 4.58451 12.9945 4.47207C12.9215 4.36859 12.9305 4.33675 12.9865 4.18451C13.0265 4.05615 13.1145 4.08103 13.1465 4.16859C13.2355 4.37655 13.3075 4.52879 13.3555 4.71187C13.3795 4.81635 13.3305 4.86411 13.2595 4.78451C13.2595 4.95267 13.2675 5.13575 13.2835 5.33575C13.7725 6.08799 14.1025 6.66411 14.1745 7.02431C14.2225 7.29595 14.1585 7.25615 14.0865 7.07207C13.9495 6.72779 13.6445 6.23227 13.3075 5.71187C13.3305 5.93575 13.3395 6.17655 13.3635 6.36859C13.4275 6.85615 13.4355 7.16859 13.3395 7.49595C13.2355 7.82431 13.1705 7.72879 13.2355 7.51187C13.3155 7.22431 13.2195 6.55963 13.1545 6.04819C13.1305 5.83227 13.0815 5.56859 13.0585 5.32879C12.8655 5.04023 12.6575 4.76063 12.4485 4.48799C12.3435 4.44819 12.3195 4.40043 12.3275 4.32879C12.3355 4.25615 12.3275 4.19247 12.3195 4.10391C12.3035 4.01635 12.3515 3.95267 12.4545 4.04819ZM13.5725 4.10391C13.6125 4.04023 13.6525 4.01635 13.7165 4.12879C13.7875 4.25615 13.8455 4.45615 13.7725 4.62431C13.7005 4.78451 13.6765 4.69595 13.7005 4.58451C13.7415 4.44122 13.6445 4.31287 13.5795 4.26411C13.5165 4.21635 13.5395 4.16859 13.5725 4.10391ZM13.9015 5.00043C13.9255 4.89695 13.9565 4.84023 13.9745 4.95267C13.9895 5.07207 13.9815 5.11187 13.9655 5.15267C13.9565 5.18451 13.8935 5.22431 13.8455 5.17655C13.7875 5.12879 13.7725 5.12879 13.7325 5.16859C13.6445 5.24819 13.6125 5.19247 13.5965 5.08003C13.5885 4.98451 13.6205 4.94471 13.6365 5.00839C13.6685 5.10491 13.7085 5.15267 13.7325 5.03227C13.7475 4.92879 13.7815 4.89695 13.7975 5.00839C13.8215 5.12083 13.8855 5.10491 13.9015 5.00043ZM14.0945 4.24819C14.1345 4.20043 14.1745 4.17655 14.2305 4.10391C14.2795 4.04023 14.3035 4.07207 14.3435 4.20839C14.3835 4.34471 14.4145 4.48799 14.4545 4.60839C14.4965 4.72879 14.4235 4.72879 14.3595 4.67207C14.3355 5.23227 14.4795 5.68003 14.4965 6.72083C14.5115 7.31187 14.4235 7.56859 14.2465 7.75963C13.9415 8.11983 13.8855 8.12879 13.5085 8.15267C13.2505 8.16859 13.3155 8.09595 13.4835 8.04819C13.6205 8.01635 13.8055 7.93575 14.1105 7.60839C14.3915 7.30391 14.3275 7.09595 14.3035 6.64819C14.2795 6.20043 14.2705 5.66411 14.0945 4.45615C14.0455 4.37655 14.0545 4.28799 14.0945 4.24819ZM14.6885 4.14471C14.7765 4.00839 14.7925 4.00043 14.8495 4.16063C14.8975 4.31983 14.9695 4.53675 15.0585 4.66411C15.1465 4.80043 15.0255 4.76859 14.9135 4.71187L14.8895 4.69595C14.9135 5.08799 15.0405 6.06411 15.0805 6.43227C15.1065 6.67207 15.2585 7.04023 15.0345 7.46411C14.9775 7.56859 14.9455 7.54371 14.9695 7.45615C15.0345 7.17655 14.9935 7.00839 14.9615 6.75267C14.9295 6.51983 14.8175 5.64819 14.7045 4.79247C14.6725 4.55267 14.5525 4.35267 14.6885 4.14471ZM15.4835 7.06411C15.6205 6.84023 15.6835 6.79247 15.8615 7.04819C15.9565 7.19247 16.0615 7.26411 16.1655 7.22431C16.2705 7.19247 16.3345 7.08003 16.3425 6.88898C16.3585 6.56859 16.3185 6.05715 16.2545 5.25615C16.0855 5.04023 15.9095 4.80839 15.7245 4.58451C15.6275 4.47207 15.6275 4.40839 15.6445 4.34471C15.6525 4.27306 15.6445 4.20043 15.6445 4.12083C15.6445 4.04023 15.7085 4.04023 15.7805 4.12879C15.8445 4.21635 15.9965 4.33675 16.0695 4.40839C16.1495 4.48103 16.0935 4.54471 16.0215 4.50491C16.0785 4.59247 16.1425 4.68799 16.2145 4.78451C16.2055 4.68103 16.1905 4.56063 16.1825 4.44819C16.1095 4.31983 16.1335 4.22431 16.2225 4.08899C16.2785 4.00839 16.3025 4.00839 16.3425 4.11187C16.3835 4.21635 16.4715 4.44819 16.5035 4.56063C16.5435 4.66411 16.5115 4.68103 16.4395 4.62431C16.4475 4.80043 16.4635 4.97655 16.4715 5.15267C16.5835 5.30491 16.7045 5.47207 16.8315 5.64819C16.7605 5.24023 16.6965 4.79247 16.6805 4.32879C16.6405 4.24819 16.6805 4.20043 16.7365 4.09595C16.8005 3.99247 16.8485 3.96859 16.8895 4.08103C16.9365 4.20043 17.0015 4.48103 17.0335 4.58451C17.0655 4.68799 17.0175 4.75267 16.9535 4.68799C16.9535 4.96063 17.0095 5.47207 17.0495 5.95267C17.1785 6.13675 17.3065 6.32879 17.4515 6.53575C17.5955 6.75267 17.6275 6.86411 17.6435 6.97655C17.6675 7.32083 17.6115 7.17655 17.5155 7.00839C17.4265 6.87207 17.2985 6.68103 17.0805 6.39247C17.1055 6.67207 17.1055 6.90491 17.0895 7.01635C17.0335 7.28799 16.9765 7.28799 16.9935 7.02431C17.0095 6.79247 16.9765 6.50491 16.9205 6.18451C16.8085 6.02431 16.6635 5.82431 16.5035 5.60043C16.5355 6.08799 16.5595 6.54371 16.5755 6.88003C16.6005 7.44023 16.2945 7.58451 16.1255 7.55167C15.9565 7.52879 15.8525 7.47207 15.7325 7.32083C15.6835 7.26411 15.6835 7.17655 15.5875 7.28799C15.4675 7.43227 15.4115 7.68799 15.2025 7.97655C15.0985 8.12879 15.0345 8.11187 14.8315 7.93575C14.6725 7.80839 14.5845 7.68003 14.7285 7.08799C14.7855 6.84819 14.8085 6.96859 14.8085 7.11983C14.8015 7.27207 14.8175 7.48799 14.9135 7.68003C15.0175 7.87207 15.1305 7.74371 15.1945 7.60043C15.2665 7.44819 15.3545 7.27207 15.4835 7.06411ZM16.0215 6.01635C15.9335 6.05714 15.7005 6.20043 15.6275 6.25615C15.5475 6.31983 15.4435 6.40043 15.4435 6.34471C15.4435 6.28799 15.4675 6.27207 15.5635 6.19247C15.6445 6.12779 15.8695 5.96859 15.9415 5.89595C16.0135 5.82431 16.0695 5.76063 16.0855 5.84819C16.0935 5.93575 16.1095 5.96859 16.0215 6.01635ZM15.8795 6.40043C15.8155 6.36461 15.8395 6.32879 15.8715 6.28102C15.9125 6.23326 15.9525 6.21635 16.0165 6.29894C16.0885 6.39446 16.1445 6.54272 16.0735 6.6671C16.0005 6.7855 15.9765 6.72083 16.0005 6.63824C16.0395 6.53078 15.9445 6.43625 15.8795 6.40043ZM15.3635 5.22431C15.3545 5.16063 15.4355 5.12083 15.4755 5.17655C15.5235 5.23227 15.6035 5.40839 15.6275 5.47207C15.6605 5.53675 15.6765 5.52083 15.6765 5.43227C15.6685 5.32879 15.6525 5.23227 15.6605 5.16063C15.6685 5.12083 15.6925 5.07207 15.7405 5.03227C15.7965 4.99247 15.8285 4.98451 15.8525 5.05615C15.8695 5.12083 15.9175 5.12879 15.8925 5.18451C15.8615 5.26411 15.7885 5.10491 15.7405 5.21635C15.7165 5.29595 15.7405 5.52083 15.7325 5.60043C15.7325 5.67207 15.7005 5.77655 15.6445 5.65615C15.6035 5.57655 15.5475 5.44023 15.4675 5.36063C15.4515 5.43227 15.3545 5.43227 15.3635 5.35267C15.3715 5.27207 15.3635 5.28799 15.3635 5.22431ZM17.1785 4.32879C17.2185 4.27307 17.2425 4.20839 17.3145 4.38451C17.3865 4.55267 17.3945 4.79247 17.3705 4.91287C17.3465 5.04023 17.2985 5.05615 17.2985 4.91983C17.2985 4.78451 17.2505 4.60839 17.1945 4.51187C17.1385 4.42431 17.1295 4.40839 17.1785 4.32879ZM17.5715 4.08899C17.6435 3.99247 17.6605 3.96063 17.7245 4.09595C17.7805 4.22431 17.8445 4.36859 17.9085 4.50491C17.9655 4.64023 17.9155 4.66411 17.8285 4.58451C17.7965 4.97655 17.9325 5.43227 17.9735 6.47207C18.0215 7.63227 17.5715 7.91187 17.1535 8.01635C16.7285 8.11983 16.9295 7.98451 17.1055 7.86411C17.6515 7.50391 17.7885 7.19247 17.7565 6.63227C17.7405 6.24819 17.6675 5.58451 17.5155 4.31287C17.4825 4.25615 17.4915 4.18451 17.5715 4.08899ZM16.5255 7.9666C16.5255 7.96958 16.3355 8.09495 16.2345 8.06709C16.1805 8.05217 16.1915 8.0064 16.2095 7.97655C16.2465 7.94172 16.2735 7.92282 16.3115 7.88799C16.3515 7.84122 16.3365 7.81336 16.3135 7.78451C16.2735 7.75963 16.2355 7.76262 16.2325 7.69894C16.2385 7.65714 16.2505 7.64222 16.2855 7.63525C16.3495 7.63028 16.3715 7.62431 16.4305 7.63525C16.4865 7.65416 16.4985 7.67705 16.4845 7.71187C16.4705 7.7467 16.4625 7.76361 16.4425 7.79247C16.4175 7.83824 16.4265 7.87107 16.4425 7.87107C16.4755 7.87506 16.5255 7.86013 16.5475 7.885C16.5505 7.885 16.5635 7.93874 16.5255 7.9666ZM12.6725 7.89595C12.7685 7.86411 12.8255 7.82431 12.9055 7.79247C12.9775 7.75963 13.0585 7.75963 12.9465 7.84819C12.8575 7.92083 12.7285 8.01635 12.6575 8.03227C12.4965 8.07207 12.4145 8.00839 12.4485 7.88103C12.4805 7.75963 12.5045 7.71287 12.4075 7.75267C12.2955 7.80043 12.3035 7.75267 12.3435 7.72879C12.4235 7.68003 12.4645 7.64023 12.5285 7.61635C12.5925 7.58451 12.6405 7.59247 12.5925 7.72879C12.5445 7.88799 12.5685 7.93575 12.6725 7.89595ZM16.2705 11.9596C16.2125 11.9636 16.1475 11.9308 16.1065 11.8641L15.6925 11.8721C15.6925 11.9198 15.6355 11.9507 15.6035 11.9507C15.5845 11.9507 15.5385 11.9318 15.5225 11.9029C15.5215 11.9009 15.5195 11.8989 15.5195 11.8969C15.5175 11.892 15.5155 11.885 15.5155 11.88L15.1305 11.888C15.1215 11.9039 15.1145 11.9198 15.0985 11.9358C15.0795 11.9676 15.0645 11.9984 15.0405 12.0024C15.0245 12.0044 15.0005 11.9885 14.9695 11.9437C14.8975 11.8402 14.8815 11.8233 14.9855 11.7039L14.9825 11.5915C12.1305 11.6661 10.0475 11.6711 9.34051 11.6561C8.54551 11.6482 7.71851 11.68 7.46151 11.2571C9.78951 11.283 12.5165 11.3109 14.9725 11.281L14.9695 11.1845C14.8655 11.0641 14.8815 11.0482 14.9455 10.9437C14.9735 10.8999 14.9945 10.882 15.0115 10.879C15.0185 10.878 15.0245 10.879 15.0305 10.882C15.0335 10.883 15.0365 10.885 15.0385 10.887C15.0535 10.8979 15.0665 10.9178 15.0815 10.9358C15.1545 11.0392 15.1625 11.0561 15.0655 11.1765L15.0685 11.281C15.3915 11.276 15.7095 11.2701 16.0215 11.2631C16.3195 11.2561 16.4465 11.3039 16.4715 11.5606C16.4875 11.7765 16.4235 11.9507 16.2705 11.9596ZM6.06351 6.48003C6.29651 6.20043 6.59351 6.05714 6.74651 6.00839C6.84251 5.97655 6.89151 5.93575 6.89151 6.03227C6.89851 6.12083 6.89151 6.12779 6.81051 6.15267C6.62551 6.20043 6.24051 6.39247 6.11251 6.48799C6.04751 6.53575 5.96751 6.59247 6.06351 6.48003ZM6.42551 7.71287C6.41751 8.05615 6.08851 8.08003 6.06351 7.79247C6.02351 7.33675 6.12851 7.26411 6.16051 7.11287C6.18451 7.00839 6.21651 6.92879 6.23251 6.98451C6.24051 7.06411 6.24051 7.11983 6.24051 7.15267C6.24051 7.20839 6.20851 7.26411 6.19251 7.33675C6.09651 7.68003 6.24051 7.84819 6.32051 7.71983C6.39351 7.59247 6.43351 7.60839 6.42551 7.71287ZM-0.000488281 16.0004H23.9995V0.000429153H-0.000488281V16.0004Z" fill="#1E9551"/>
</g>
<mask id="mask3_986_17624" style="mask-type:luminance" maskUnits="userSpaceOnUse" x="0" y="0" width="24" height="16">
<path d="M0 16H24V1.90735e-06H0V16Z" fill="white"/>
</mask>
<g mask="url(#mask3_986_17624)">
<path d="M12.2635 6.00843C12.1425 5.9358 12.0945 5.9358 12.1025 6.01639C12.1105 6.06416 12.1105 6.11192 12.1265 6.1756C12.1825 6.15968 12.2395 6.15271 12.3035 6.1358C12.4715 6.096 12.3755 6.08008 12.2635 6.00843Z" fill="#1E9551"/>
</g>
<mask id="mask4_986_17624" style="mask-type:luminance" maskUnits="userSpaceOnUse" x="0" y="0" width="24" height="16">
<path d="M0 16H24V1.90735e-06H0V16Z" fill="white"/>
</mask>
<g mask="url(#mask4_986_17624)">
<path d="M15.0724 11.5895L15.0744 11.6949C15.1144 11.7347 15.1314 11.7676 15.1474 11.7914L15.5154 11.7825C15.5154 11.7347 15.5724 11.7049 15.6044 11.7049C15.6254 11.7049 15.6794 11.7298 15.6904 11.7646C15.6914 11.7676 15.6924 11.7725 15.6924 11.7755L16.0704 11.7705C16.0584 11.7118 16.0614 11.6412 16.0864 11.5606C15.7394 11.5696 15.4004 11.5805 15.0724 11.5895Z" fill="#1E9551"/>
</g>
<mask id="mask5_986_17624" style="mask-type:luminance" maskUnits="userSpaceOnUse" x="0" y="0" width="24" height="16">
<path d="M0 16H24V1.90735e-06H0V16Z" fill="white"/>
</mask>
<g mask="url(#mask5_986_17624)">
<path d="M16.0703 11.7702L15.6923 11.7762C15.6923 11.7712 15.6913 11.7672 15.6903 11.7642C15.6793 11.7294 15.6253 11.7055 15.6043 11.7055C15.5713 11.7055 15.5153 11.7364 15.5153 11.7841L15.1473 11.7911C15.1313 11.7672 15.1143 11.7364 15.0743 11.6965L15.0723 11.5891C15.4003 11.5811 15.7383 11.5712 16.0863 11.5602C16.0613 11.6408 16.0583 11.7115 16.0703 11.7702ZM16.0223 11.2627C15.7103 11.2697 15.3913 11.2757 15.0683 11.2806L15.0663 11.1752C15.1623 11.0558 15.1543 11.0408 15.0823 10.9354C15.0673 10.9184 15.0533 10.8975 15.0393 10.8866L15.0303 10.8806C15.0253 10.8786 15.0183 10.8786 15.0113 10.8786C14.9943 10.8806 14.9733 10.8995 14.9453 10.9433C14.8813 11.0468 14.8653 11.0637 14.9693 11.1841L14.9723 11.2806C12.5163 11.3105 9.7903 11.2846 7.4613 11.2558C7.7183 11.6796 8.5453 11.6478 9.3413 11.6567C10.0473 11.6697 12.1313 11.6667 14.9833 11.5901L14.9863 11.7055C14.8813 11.8249 14.8973 11.8398 14.9693 11.9443C15.0013 11.9901 15.0243 12.003 15.0423 12.001C15.0643 11.998 15.0803 11.9662 15.0983 11.9354C15.1143 11.9194 15.1223 11.9045 15.1303 11.8876L15.5153 11.8786C15.5153 11.8846 15.5173 11.8916 15.5193 11.8956C15.5203 11.8975 15.5213 11.9015 15.5223 11.9035C15.5403 11.9314 15.5853 11.9523 15.6043 11.9523C15.6353 11.9523 15.6923 11.9194 15.6923 11.8727L16.1063 11.8657C16.1483 11.9304 16.2123 11.9632 16.2703 11.9592C16.4233 11.9523 16.4873 11.7762 16.4713 11.5602C16.4463 11.3035 16.3193 11.2548 16.0223 11.2627Z" fill="white"/>
</g>
<mask id="mask6_986_17624" style="mask-type:luminance" maskUnits="userSpaceOnUse" x="0" y="0" width="24" height="16">
<path d="M0 16H24V1.90735e-06H0V16Z" fill="white"/>
</mask>
<g mask="url(#mask6_986_17624)">
<path d="M6.32906 4.14428C6.42506 4.07264 6.41706 4.27264 6.33706 4.49652C6.38506 4.41592 6.48106 4.24776 6.47406 4.11244C6.44906 3.93632 6.34506 3.96816 6.26506 4.07264C6.20006 4.14428 6.24806 4.20796 6.32906 4.14428Z" fill="white"/>
</g>
<mask id="mask7_986_17624" style="mask-type:luminance" maskUnits="userSpaceOnUse" x="0" y="0" width="24" height="16">
<path d="M0 16H24V1.90735e-06H0V16Z" fill="white"/>
</mask>
<g mask="url(#mask7_986_17624)">
<path d="M6.36122 5.57651C6.48122 5.36059 6.43322 5.16855 6.54622 4.84816C6.61022 4.64816 6.63322 4.8004 6.61022 4.9198C6.55322 5.2402 6.56922 5.76059 7.02722 5.75263C7.05122 6.0402 7.13222 6.57651 7.13222 6.7596C7.14022 6.95263 7.16422 6.89592 7.21222 6.79244C7.26022 6.68796 7.25222 6.57651 7.24422 6.42428C7.22822 6.26408 7.22022 6.0004 7.18822 5.6402C7.25222 5.59244 7.30822 5.51283 7.33222 5.46408C7.39722 5.34467 7.41322 5.35164 7.43722 5.44816C7.48522 5.6402 7.67822 5.76756 7.93522 5.58448C8.17522 5.41632 8.07122 5.06408 7.96722 4.68099C8.05522 4.69592 8.08722 4.62428 8.03122 4.52875C8.00722 4.47204 7.95922 4.42428 7.91922 4.37651C7.87922 4.32875 7.83922 4.28796 7.79822 4.33572C7.76622 4.38448 7.72622 4.42428 7.70222 4.45612C7.67822 4.48796 7.67822 4.5198 7.71022 4.6004C7.80622 4.82428 7.87022 5.06408 7.88722 5.2004C7.91122 5.32776 7.86222 5.36059 7.77422 5.36059C7.68622 5.36059 7.56522 5.33572 7.51722 5.14368C7.46922 4.95263 7.44522 4.86408 7.45322 4.73572C7.46122 4.60836 7.47722 4.5198 7.38922 4.39244C7.29222 4.26408 7.28422 4.28796 7.26022 4.35263C7.24422 4.42428 7.21222 4.52875 7.24422 4.64816C7.28422 4.82428 7.30822 4.97552 7.33222 5.08C7.34822 5.15263 7.27722 5.30487 7.17222 5.38448C7.14822 5.14368 7.10822 4.82428 7.09122 4.56855C7.22822 4.5198 7.15622 4.33572 7.04422 4.13671C6.96322 3.98448 6.93122 4.04816 6.87522 4.14467C6.81922 4.2402 6.85922 4.28 6.89922 4.36059C6.86722 4.42428 6.92322 4.5198 6.94722 4.69592C6.95522 4.80836 6.97922 5.12875 7.00322 5.40836C6.89122 5.40836 6.82722 5.33572 6.78622 5.2402C6.69822 5.0402 6.72222 4.85612 6.76222 4.73572C6.80222 4.61632 6.84222 4.43224 6.77022 4.38448C6.70622 4.33572 6.61822 4.39244 6.56222 4.48C6.46522 4.62428 6.37722 4.83224 6.36922 5.04816C6.36122 5.13572 6.33722 5.30487 6.29722 5.36855C6.26422 5.43224 6.20822 5.4402 6.15222 5.34467C6.05622 5.19244 6.02422 4.80836 6.03122 4.60836C6.03122 4.51184 6.00722 4.49592 5.97522 4.60836C5.87122 4.99244 5.99122 5.40836 6.08022 5.58448C6.16822 5.76059 6.28022 5.72079 6.36122 5.57651Z" fill="white"/>
</g>
<mask id="mask8_986_17624" style="mask-type:luminance" maskUnits="userSpaceOnUse" x="0" y="0" width="24" height="16">
<path d="M0 16H24V1.90735e-06H0V16Z" fill="white"/>
</mask>
<g mask="url(#mask8_986_17624)">
<path d="M7.56526 4.28028C7.60626 4.23252 7.60626 4.22456 7.64626 4.28824C7.66926 4.336 7.75026 4.32008 7.77426 4.27232C7.79026 4.23252 7.81426 4.19272 7.79026 4.136C7.76626 4.08028 7.76626 4.0962 7.75026 4.15988C7.73426 4.26436 7.63826 4.24048 7.62926 4.11212C7.62926 3.99272 7.60626 4.0564 7.57326 4.136C7.51726 4.2564 7.43726 4.23252 7.43726 4.12804C7.43726 4.04048 7.41326 3.96884 7.37326 4.07232C7.34826 4.136 7.36426 4.2166 7.40526 4.26436C7.44526 4.32008 7.51726 4.32008 7.56526 4.28028Z" fill="white"/>
</g>
<mask id="mask9_986_17624" style="mask-type:luminance" maskUnits="userSpaceOnUse" x="0" y="0" width="24" height="16">
<path d="M0 16H24V1.90735e-06H0V16Z" fill="white"/>
</mask>
<g mask="url(#mask9_986_17624)">
<path d="M6.81045 6.15223C6.89145 6.12835 6.89845 6.12039 6.89145 6.03184C6.89145 5.93631 6.84245 5.97611 6.74645 6.00795C6.59345 6.05671 6.29645 6.19999 6.06345 6.48059C5.96745 6.59203 6.04745 6.53631 6.11245 6.48756C6.24045 6.39203 6.62545 6.19999 6.81045 6.15223Z" fill="white"/>
</g>
<mask id="mask10_986_17624" style="mask-type:luminance" maskUnits="userSpaceOnUse" x="0" y="0" width="24" height="16">
<path d="M0 16H24V1.90735e-06H0V16Z" fill="white"/>
</mask>
<g mask="url(#mask10_986_17624)">
<path d="M6.3209 7.7201C6.2409 7.84747 6.0959 7.6803 6.1929 7.33602C6.2089 7.26438 6.2409 7.20767 6.2409 7.15194C6.2409 7.1201 6.2409 7.06438 6.2329 6.98379C6.2169 6.92806 6.1849 7.00767 6.1599 7.11214C6.1289 7.26438 6.0239 7.33602 6.0639 7.79175C6.0889 8.0803 6.4179 8.05642 6.4249 7.71214C6.4339 7.60767 6.3939 7.59175 6.3209 7.7201Z" fill="white"/>
</g>
<mask id="mask11_986_17624" style="mask-type:luminance" maskUnits="userSpaceOnUse" x="0" y="0" width="24" height="16">
<path d="M0 16H24V1.90735e-06H0V16Z" fill="white"/>
</mask>
<g mask="url(#mask11_986_17624)">
<path d="M7.83884 6.32816C7.69384 6.36796 7.66984 6.31224 7.67784 6.22467C7.68584 6.13612 7.69384 6.11224 7.79084 6.15204C7.83084 6.16796 7.87884 6.22467 7.92684 6.29632C7.89484 6.30428 7.86284 6.3202 7.83884 6.32816ZM8.19284 4.97592C8.21584 5.17592 8.27984 5.59184 8.31284 6.1202C8.26384 6.14408 8.19284 6.19184 8.14384 6.21572C8.10384 6.12816 8.04684 6.05651 7.95884 5.96796C7.81484 5.82467 7.69384 5.81572 7.57384 5.99283C7.46184 6.16 7.46884 6.20079 7.47784 6.35204C7.48484 6.50428 7.45284 6.56 7.57384 6.5998C7.68584 6.6396 7.73484 6.62368 7.80684 6.5998C7.86284 6.58388 7.94284 6.56 8.02384 6.52816C8.03984 6.60776 8.03084 6.69632 7.98384 6.76C7.68584 7.11224 7.22884 7.36796 7.02684 7.13612C6.91484 7.00776 6.86684 6.80776 6.89884 6.56796C6.93084 6.36796 6.86684 6.45651 6.84284 6.52816C6.77084 6.76 6.74684 7.09632 6.84284 7.26348C6.97984 7.49632 7.19584 7.5998 7.54184 7.44756C7.88684 7.29632 8.22384 7.02467 8.20784 6.64855C8.20784 6.57691 8.19984 6.51224 8.19984 6.46447C8.23284 6.44855 8.28884 6.40875 8.32884 6.39184C8.33684 6.5202 8.32084 6.6804 8.32884 6.80776C8.34484 7.21671 8.18384 7.33612 8.03984 7.44756C7.83884 7.60776 7.56584 7.71224 7.33284 7.75204C6.77884 7.83263 6.65084 7.4804 6.65784 7.00776C6.65784 6.93612 6.69084 6.88836 6.69084 6.78388C6.68184 6.58388 6.65784 6.61671 6.59384 6.81572C6.53784 7.00776 6.46484 7.45651 6.65084 7.82368C6.84284 8.19184 7.49384 8.08836 7.99884 7.84756C8.49684 7.60776 8.55284 7.15204 8.52884 6.69632C8.52884 6.57691 8.52084 6.44855 8.51284 6.31224C8.52884 6.30428 8.53784 6.28836 8.54584 6.2804C8.61784 6.51224 8.95484 6.44855 9.05984 6.31224C9.11584 6.24855 9.11584 6.24059 9.16384 6.31224C9.23584 6.41572 9.48484 6.44855 9.54884 6.30428C9.60584 6.15204 9.59784 6.00875 9.58084 5.89632C9.56484 5.78388 9.54084 5.79184 9.46884 5.84855C9.38884 5.91224 9.45284 5.9202 9.46084 5.9998C9.49284 6.30428 9.22784 6.2804 9.19584 5.96796C9.17984 5.77592 9.14784 5.84855 9.12384 5.93612C9.01084 6.31224 8.68184 6.38388 8.71384 5.95204C8.72184 5.82467 8.64184 5.86447 8.60184 5.91224C8.56184 5.94408 8.52884 5.98388 8.48884 6.00875C8.46484 5.65651 8.44084 5.25652 8.40084 4.77592C8.49684 4.89632 8.58584 4.76 8.52084 4.62467C8.47284 4.5202 8.40084 4.28836 8.35284 4.16C8.31284 4.03263 8.28884 4.07244 8.18384 4.17592C8.08784 4.28836 8.10384 4.31224 8.15184 4.42368C8.13584 4.56 8.15984 4.69632 8.19284 4.97592Z" fill="white"/>
</g>
<mask id="mask12_986_17624" style="mask-type:luminance" maskUnits="userSpaceOnUse" x="0" y="0" width="24" height="16">
<path d="M0 16H24V1.90735e-06H0V16Z" fill="white"/>
</mask>
<g mask="url(#mask12_986_17624)">
<path d="M9.1074 7.11235C9.1554 7.01584 9.1884 6.90439 9.1634 6.79195C9.1554 6.71235 9.1554 6.68847 9.0834 6.65663C9.0034 6.6238 8.9794 6.67255 8.9554 6.73623C8.9224 6.81584 8.9624 6.90439 9.0754 6.85663C9.0914 6.91235 9.0834 7.04071 9.0594 7.09643C9.0274 7.16807 9.0594 7.19991 9.1074 7.11235Z" fill="white"/>
</g>
<mask id="mask13_986_17624" style="mask-type:luminance" maskUnits="userSpaceOnUse" x="0" y="0" width="24" height="16">
<path d="M0 16H24V1.90735e-06H0V16Z" fill="white"/>
</mask>
<g mask="url(#mask13_986_17624)">
<path d="M9.29243 5.09602C9.19543 5.21642 9.12343 5.39254 9.26043 5.49602C9.33243 5.5597 9.48443 5.48806 9.54143 5.36766C9.59743 5.2403 9.57343 5.22438 9.47743 5.32786C9.34043 5.4801 9.20443 5.34478 9.34843 5.13582C9.44443 4.99254 9.38843 4.9607 9.29243 5.09602Z" fill="white"/>
</g>
<mask id="mask14_986_17624" style="mask-type:luminance" maskUnits="userSpaceOnUse" x="0" y="0" width="24" height="16">
<path d="M0 16H24V1.90735e-06H0V16Z" fill="white"/>
</mask>
<g mask="url(#mask14_986_17624)">
<path d="M9.48488 4.256C9.51688 4.18436 9.55688 4.23212 9.54088 4.27988C9.53288 4.31272 9.51688 4.35252 9.50088 4.38436C9.45288 4.35252 9.46088 4.31272 9.48488 4.256ZM8.89088 5.12068C9.23588 4.96844 9.43688 4.78436 9.54088 4.6162C9.63788 4.63212 9.66188 4.55252 9.61288 4.48784C9.64588 4.42416 9.66988 4.36048 9.67788 4.31272C9.76588 3.99232 9.44488 3.96048 9.34788 4.20824C9.30788 4.31968 9.30788 4.44804 9.41288 4.5366C9.27688 4.72864 9.05988 4.91272 8.82588 5.06396C8.70588 5.1356 8.72988 5.19232 8.89088 5.12068Z" fill="white"/>
</g>
<mask id="mask15_986_17624" style="mask-type:luminance" maskUnits="userSpaceOnUse" x="0" y="0" width="24" height="16">
<path d="M0 16H24V1.90735e-06H0V16Z" fill="white"/>
</mask>
<g mask="url(#mask15_986_17624)">
<path d="M10.3441 5.32048C10.4161 5.14436 10.4651 4.96824 10.5121 4.84784C10.5611 4.72844 10.6011 4.75232 10.5931 4.86475C10.5691 5.08864 10.5531 5.44784 10.7781 5.58416C11.0031 5.72048 11.3481 5.48764 11.4681 5.24784C11.8301 5.72844 12.1511 5.50456 12.1911 5.03988C12.1991 4.8966 12.1351 4.58416 12.0941 4.4956C12.0541 4.40008 12.0781 4.40008 12.1351 4.44883C12.1911 4.50456 12.2871 4.5364 12.2391 4.3762C12.1831 4.22396 12.1181 4.1364 12.0301 4.06376C11.9501 3.99311 11.9341 4.03291 11.9021 4.08864C11.8701 4.14436 11.8781 4.16028 11.8301 4.20008C11.7811 4.24784 11.7901 4.27272 11.8301 4.36028C11.9661 4.71252 12.0941 5.22396 11.8781 5.27271C11.6771 5.31252 11.5491 4.88068 11.5401 4.68764C11.5321 4.43192 11.5001 4.216 11.4521 4.08068C11.3961 3.94436 11.3801 3.92048 11.3401 3.99311C11.3081 4.04784 11.3001 4.08864 11.2671 4.14436C11.2351 4.20008 11.2671 4.216 11.2921 4.32844C11.4121 4.88764 11.3961 5.14436 11.1391 5.28764C10.8821 5.43988 10.7451 5.2966 10.7451 5.12048C10.7381 4.94436 10.7381 4.72844 10.7611 4.56824C10.7781 4.40804 10.8181 4.38416 10.7611 4.30456C10.7051 4.216 10.6571 4.24784 10.5851 4.35232C10.4251 4.5762 10.2631 4.95232 10.2081 5.12844C10.1511 5.31252 10.0391 5.24784 9.95813 5.0956C9.87013 4.91252 9.87813 4.58416 9.91013 4.4558C9.94313 4.32844 9.92713 4.27272 9.87013 4.416C9.74113 4.7762 9.75013 5.12048 10.0141 5.416C10.1671 5.58416 10.2801 5.50456 10.3441 5.32048Z" fill="white"/>
</g>
<mask id="mask16_986_17624" style="mask-type:luminance" maskUnits="userSpaceOnUse" x="0" y="0" width="24" height="16">
<path d="M0 16H24V1.90735e-06H0V16Z" fill="white"/>
</mask>
<g mask="url(#mask16_986_17624)">
<path d="M11.0508 4.65632C11.0428 4.73592 11.0588 4.81652 11.0988 4.67224C11.1318 4.52896 11.1228 4.32796 11.0828 4.20856C11.0428 4.08816 10.9948 4.05632 10.9628 4.10408C10.9058 4.1598 10.9058 4.16776 10.9548 4.2404C11.0028 4.29612 11.0748 4.47224 11.0508 4.65632Z" fill="white"/>
</g>
<mask id="mask17_986_17624" style="mask-type:luminance" maskUnits="userSpaceOnUse" x="0" y="0" width="24" height="16">
<path d="M0 16H24V1.90735e-06H0V16Z" fill="white"/>
</mask>
<g mask="url(#mask17_986_17624)">
<path d="M12.1026 6.01623C12.0946 5.93563 12.1426 5.93563 12.2636 6.00827C12.3756 6.07991 12.4716 6.09682 12.3036 6.13662C12.2396 6.15254 12.1826 6.1605 12.1266 6.17642C12.1116 6.11175 12.1116 6.06399 12.1026 6.01623ZM9.73358 7.10379C9.69358 7.14359 9.61258 7.19235 9.55758 7.24011C9.54858 7.13563 9.56458 6.99235 9.56458 6.93662C9.56458 6.86399 9.54058 6.83215 9.50058 6.91971C9.42958 7.06399 9.35558 7.26399 9.32458 7.40827C8.99558 7.64011 8.59458 7.85603 8.33558 7.98439C8.21558 8.04011 8.28958 8.07991 8.37558 8.04807C8.76258 7.93563 9.06058 7.83215 9.31558 7.71274C9.33158 7.9207 9.42058 8.08787 9.60458 8.12866C9.97558 8.22419 10.3686 7.91175 10.7696 7.34359C10.8736 7.62419 11.1066 7.98439 11.7566 8.08787C12.0226 8.12866 12.0226 8.09583 12.0546 7.97642C12.0946 7.84807 12.1196 7.82419 11.9016 7.76846C11.6216 7.66399 11.5246 7.46399 11.7966 7.35254C12.0716 7.24011 12.4486 7.12866 12.7056 7.07991C12.8666 7.05603 12.9296 7.07195 12.9866 6.91175C13.0416 6.74359 13.0746 6.71175 12.8816 6.72767C12.6896 6.75254 11.7266 6.76846 11.4926 6.75254C11.6856 6.64807 11.9576 6.54359 12.1666 6.47195C12.2396 6.51971 12.2716 6.50478 12.2476 6.44807C12.3346 6.41623 12.4086 6.38439 12.4636 6.35254C12.6976 6.21623 12.7926 5.95254 12.5526 5.78439C12.3106 5.61623 12.1026 5.5605 11.9746 5.74458C11.8706 5.89583 11.7826 6.04011 11.9176 6.24011C11.7016 6.30478 11.4926 6.38439 11.2846 6.46399C11.1306 6.52866 11.0666 6.55254 11.0116 6.73662C10.9556 6.91971 10.9306 6.94458 11.1396 6.95254C11.4196 6.96846 11.6686 6.94458 11.8306 7.09583C11.5646 7.19235 11.3636 7.40031 11.4596 7.67195C11.3316 7.64011 11.2106 7.58439 11.1156 7.49583C10.9056 7.30379 10.9216 6.95254 10.8336 6.54359C10.7536 6.13662 10.5776 5.79235 10.5206 5.65603C10.4646 5.51274 10.4396 5.57643 10.3936 5.67991C10.3526 5.78439 10.3046 5.84011 10.3526 5.96846C10.4486 6.22419 10.6086 6.72767 10.6826 7.00827C10.5206 7.34359 10.1446 7.78439 9.80658 7.83215C9.54858 7.87195 9.49358 7.73662 9.50858 7.60031C9.68558 7.50379 9.83758 7.38439 9.98258 7.23215C10.2956 6.92866 10.3446 6.66399 10.1446 6.15254C10.2716 6.16747 10.2486 6.07195 10.0626 5.85603C9.93558 5.70478 9.91158 5.73662 9.84658 5.87195C9.78258 6.00827 9.74258 6.08787 9.88658 6.14359C9.91158 6.20827 9.96658 6.31175 10.0396 6.45603C10.2076 6.77643 9.95758 6.90478 9.73358 7.10379Z" fill="white"/>
</g>
<mask id="mask18_986_17624" style="mask-type:luminance" maskUnits="userSpaceOnUse" x="0" y="0" width="24" height="16">
<path d="M0 16H24V1.90735e-06H0V16Z" fill="white"/>
</mask>
<g mask="url(#mask18_986_17624)">
<path d="M11.5727 5.81603C11.5727 6.01603 11.5087 6.01603 11.4367 5.82399C11.4117 5.75235 11.3797 5.75235 11.3717 5.84787C11.3717 6.03195 11.2917 6.05682 11.2437 5.87175C11.2277 5.79215 11.2117 5.72847 11.1957 5.84787C11.1787 5.96031 11.2037 6.03195 11.2437 6.08767C11.2837 6.14439 11.3647 6.13643 11.3877 6.07175C11.4117 6.00011 11.4277 5.99215 11.4767 6.04787C11.5327 6.10459 11.7177 6.05682 11.6287 5.77623C11.5887 5.66379 11.5727 5.68866 11.5727 5.81603Z" fill="white"/>
</g>
<mask id="mask19_986_17624" style="mask-type:luminance" maskUnits="userSpaceOnUse" x="0" y="0" width="24" height="16">
<path d="M0 16H24V1.90735e-06H0V16Z" fill="white"/>
</mask>
<g mask="url(#mask19_986_17624)">
<path d="M13.58 4.26427C13.644 4.31203 13.741 4.44039 13.7 4.58467C13.677 4.69611 13.7 4.78368 13.772 4.62447C13.846 4.45631 13.788 4.25631 13.717 4.12795C13.652 4.01651 13.612 4.04039 13.572 4.10407C13.54 4.16776 13.517 4.21651 13.58 4.26427Z" fill="white"/>
</g>
<mask id="mask20_986_17624" style="mask-type:luminance" maskUnits="userSpaceOnUse" x="0" y="0" width="24" height="16">
<path d="M0 16H24V1.90735e-06H0V16Z" fill="white"/>
</mask>
<g mask="url(#mask20_986_17624)">
<path d="M12.3271 4.32836C12.3191 4.4 12.3441 4.44876 12.4481 4.48856C12.6571 4.7602 12.8651 5.0398 13.0581 5.32836C13.0831 5.56816 13.1311 5.83184 13.1541 6.04876C13.2201 6.5602 13.3151 7.22388 13.2351 7.51244C13.1711 7.72836 13.2351 7.82388 13.3401 7.49652C13.4351 7.16816 13.4281 6.85672 13.3631 6.36816C13.3401 6.17612 13.3321 5.93632 13.3071 5.71244C13.6441 6.23184 13.9491 6.72836 14.0871 7.07164C14.1581 7.25572 14.2231 7.29552 14.1751 7.02388C14.1021 6.66368 13.7721 6.08856 13.2831 5.33632C13.2661 5.13632 13.2601 4.95224 13.2601 4.78408C13.3321 4.86468 13.3801 4.81592 13.3551 4.71244C13.3071 4.52836 13.2351 4.37612 13.1461 4.16816C13.1141 4.0806 13.0261 4.05672 12.9861 4.18408C12.9311 4.33632 12.9221 4.36816 12.9941 4.47264C12.9861 4.58408 13.0261 4.77612 13.0431 4.95224C12.9531 4.82488 12.8421 4.66368 12.7541 4.52836C12.8891 4.58408 12.9711 4.54428 12.8491 4.41592C12.7281 4.2806 12.5601 4.14428 12.4561 4.04776C12.3511 3.95224 12.3041 4.01692 12.3191 4.10348C12.3271 4.19204 12.3361 4.25572 12.3271 4.32836Z" fill="white"/>
</g>
<mask id="mask21_986_17624" style="mask-type:luminance" maskUnits="userSpaceOnUse" x="0" y="0" width="24" height="16">
<path d="M0 16H24V1.90735e-06H0V16Z" fill="white"/>
</mask>
<g mask="url(#mask21_986_17624)">
<path d="M13.7323 5.03237C13.7093 5.15277 13.6693 5.10401 13.6363 5.00849C13.6213 4.94481 13.5873 4.98461 13.5963 5.08013C13.6123 5.19257 13.6443 5.24829 13.7323 5.16869C13.7723 5.12888 13.7893 5.12888 13.8453 5.17665C13.8933 5.22441 13.9583 5.18361 13.9653 5.15277C13.9813 5.11197 13.9903 5.07217 13.9733 4.95177C13.9583 4.84033 13.9253 4.89605 13.9023 5.00053C13.8853 5.10401 13.8213 5.11993 13.7963 5.00849C13.7813 4.89605 13.7493 4.92888 13.7323 5.03237Z" fill="white"/>
</g>
<mask id="mask22_986_17624" style="mask-type:luminance" maskUnits="userSpaceOnUse" x="0" y="0" width="24" height="16">
<path d="M0 16H24V1.90735e-06H0V16Z" fill="white"/>
</mask>
<g mask="url(#mask22_986_17624)">
<path d="M12.5284 7.61612C12.4644 7.64 12.4244 7.6798 12.3434 7.72856C12.3034 7.75244 12.2954 7.8002 12.4074 7.75244C12.5044 7.71264 12.4804 7.7604 12.4484 7.8808C12.4164 8.00816 12.4964 8.07184 12.6574 8.03204C12.7294 8.01612 12.8574 7.9206 12.9464 7.84796C13.0584 7.7604 12.9784 7.7604 12.9054 7.79224C12.8254 7.82408 12.7694 7.86388 12.6734 7.89572C12.5694 7.93552 12.5444 7.88776 12.5924 7.72856C12.6404 7.59224 12.5924 7.58428 12.5284 7.61612Z" fill="white"/>
</g>
<mask id="mask23_986_17624" style="mask-type:luminance" maskUnits="userSpaceOnUse" x="0" y="0" width="24" height="16">
<path d="M0 16H24V1.90735e-06H0V16Z" fill="white"/>
</mask>
<g mask="url(#mask23_986_17624)">
<path d="M14.3028 6.64837C14.3268 7.09613 14.3918 7.30409 14.1108 7.60757C13.8058 7.93593 13.6198 8.01653 13.4848 8.04837C13.3158 8.09613 13.2508 8.16777 13.5078 8.15185C13.8858 8.12797 13.9428 8.12001 14.2468 7.75981C14.4238 7.56777 14.5108 7.31205 14.4958 6.72001C14.4808 5.68021 14.3348 5.23245 14.3598 4.67225C14.4238 4.72797 14.4958 4.72797 14.4558 4.60857C14.4148 4.48817 14.3828 4.34489 14.3428 4.20857C14.3028 4.07225 14.2798 4.04041 14.2318 4.10409C14.1748 4.17673 14.1338 4.20061 14.0938 4.24837C14.0548 4.28817 14.0458 4.37673 14.0938 4.45633C14.2718 5.66429 14.2798 6.20061 14.3028 6.64837Z" fill="white"/>
</g>
<mask id="mask24_986_17624" style="mask-type:luminance" maskUnits="userSpaceOnUse" x="0" y="0" width="24" height="16">
<path d="M0 16H24V1.90735e-06H0V16Z" fill="white"/>
</mask>
<g mask="url(#mask24_986_17624)">
<path d="M14.9608 6.75232C14.9928 7.00804 15.0338 7.1762 14.9698 7.45679C14.9448 7.54336 14.9778 7.56824 15.0338 7.46376C15.2588 7.04087 15.1068 6.67172 15.0818 6.43192C15.0418 6.06376 14.9128 5.08863 14.8898 4.69659L14.9128 4.71251C15.0248 4.76824 15.1468 4.80008 15.0588 4.66376C14.9698 4.53639 14.8978 4.32047 14.8498 4.16028C14.7928 4.00008 14.7758 4.00804 14.6888 4.14436C14.5528 4.35232 14.6728 4.55232 14.7038 4.79212C14.8168 5.64883 14.9298 6.52047 14.9608 6.75232Z" fill="white"/>
</g>
<mask id="mask25_986_17624" style="mask-type:luminance" maskUnits="userSpaceOnUse" x="0" y="0" width="24" height="16">
<path d="M0 16H24V1.90735e-06H0V16Z" fill="white"/>
</mask>
<g mask="url(#mask25_986_17624)">
<path d="M15.4677 5.3603C15.5477 5.43991 15.6037 5.57622 15.6447 5.65583C15.7007 5.77622 15.7327 5.67175 15.7327 5.60011C15.7397 5.5205 15.7167 5.29662 15.7397 5.21603C15.7887 5.10458 15.8617 5.26379 15.8927 5.18419C15.9177 5.12846 15.8687 5.1205 15.8527 5.05583C15.8287 4.98419 15.7967 4.99215 15.7397 5.03195C15.6927 5.07175 15.6687 5.1205 15.6597 5.1603C15.6527 5.23195 15.6687 5.32846 15.6757 5.43195C15.6757 5.5205 15.6597 5.53642 15.6277 5.47175C15.6037 5.40807 15.5237 5.23195 15.4757 5.17622C15.4357 5.1205 15.3547 5.1603 15.3637 5.22399C15.3637 5.28767 15.3707 5.27274 15.3637 5.35234C15.3547 5.43195 15.4517 5.43195 15.4677 5.3603Z" fill="white"/>
</g>
<mask id="mask26_986_17624" style="mask-type:luminance" maskUnits="userSpaceOnUse" x="0" y="0" width="24" height="16">
<path d="M0 16H24V1.90735e-06H0V16Z" fill="white"/>
</mask>
<g mask="url(#mask26_986_17624)">
<path d="M15.9414 5.8962C15.8694 5.96785 15.6444 6.12804 15.5644 6.19173C15.4674 6.27232 15.4434 6.28824 15.4434 6.34396C15.4434 6.39969 15.5474 6.32008 15.6284 6.2564C15.7004 6.20068 15.9334 6.0564 16.0214 6.0166C16.1094 5.96785 16.0934 5.936 16.0864 5.84844C16.0694 5.75989 16.0134 5.82456 15.9414 5.8962Z" fill="white"/>
</g>
<mask id="mask27_986_17624" style="mask-type:luminance" maskUnits="userSpaceOnUse" x="0" y="0" width="24" height="16">
<path d="M0 16H24V1.90735e-06H0V16Z" fill="white"/>
</mask>
<g mask="url(#mask27_986_17624)">
<path d="M14.9131 7.68031C14.8171 7.48827 14.8021 7.27235 14.8091 7.12012C14.8091 6.96788 14.7851 6.84847 14.7281 7.08827C14.5851 7.68031 14.6731 7.80768 14.8321 7.93604C15.0341 8.11215 15.0991 8.12808 15.2021 7.97584C15.4111 7.68827 15.4681 7.43255 15.5881 7.28827C15.6841 7.17683 15.6841 7.26439 15.7321 7.32012C15.8521 7.47235 15.9571 7.52808 16.1261 7.55196C16.2951 7.5838 16.6001 7.44051 16.5751 6.88031C16.5591 6.544 16.5351 6.08827 16.5041 5.60071C16.6631 5.82459 16.8091 6.0236 16.9211 6.18479C16.9761 6.50419 17.0101 6.79176 16.9931 7.02459C16.9761 7.28827 17.0331 7.28827 17.0901 7.01663C17.1051 6.90419 17.1051 6.67235 17.0811 6.39275C17.2991 6.68031 17.4271 6.87235 17.5161 7.00768C17.6111 7.17683 17.6681 7.32012 17.6431 6.97584C17.6281 6.86439 17.5961 6.75196 17.4511 6.53604C17.3071 6.32808 17.1791 6.13604 17.0501 5.95196C17.0101 5.47235 16.9531 4.96091 16.9531 4.68827C17.0171 4.75196 17.0651 4.68827 17.0331 4.58479C17.0021 4.48031 16.9361 4.19972 16.8901 4.08031C16.8491 3.96887 16.8011 3.99275 16.7361 4.09623C16.6811 4.19972 16.6411 4.24847 16.6811 4.32808C16.6961 4.79275 16.7611 5.24051 16.8321 5.64847C16.7041 5.47235 16.5841 5.30419 16.4721 5.15196C16.4641 4.97584 16.4471 4.79972 16.4391 4.62459C16.5121 4.68031 16.5441 4.66439 16.5041 4.55992C16.4721 4.44847 16.3841 4.21663 16.3431 4.11216C16.3031 4.00867 16.2781 4.00867 16.2231 4.08827C16.1341 4.22459 16.1091 4.32012 16.1831 4.44847C16.1901 4.55992 16.2061 4.68031 16.2151 4.7838C16.1421 4.68827 16.0781 4.59176 16.0211 4.50419C16.0941 4.544 16.1491 4.48031 16.0691 4.40768C15.9971 4.33604 15.8451 4.21663 15.7801 4.12808C15.7091 4.04051 15.6441 4.04051 15.6441 4.12012C15.6441 4.19972 15.6521 4.27235 15.6441 4.344C15.6281 4.40768 15.6281 4.47235 15.7251 4.58479C15.9091 4.80867 16.0861 5.04051 16.2551 5.25643C16.3181 6.05643 16.3581 6.56788 16.3431 6.88827C16.3351 7.08031 16.2701 7.19176 16.1661 7.22459C16.0611 7.26439 15.9571 7.19176 15.8611 7.04847C15.6841 6.79176 15.6201 6.84051 15.4831 7.06439C15.3541 7.27235 15.2671 7.44847 15.1941 7.59972C15.1311 7.744 15.0171 7.87235 14.9131 7.68031Z" fill="white"/>
</g>
<mask id="mask28_986_17624" style="mask-type:luminance" maskUnits="userSpaceOnUse" x="0" y="0" width="24" height="16">
<path d="M0 16H24V1.90735e-06H0V16Z" fill="white"/>
</mask>
<g mask="url(#mask28_986_17624)">
<path d="M17.2979 4.92009C17.2979 5.05641 17.3469 5.04049 17.3699 4.91213C17.3959 4.79273 17.3869 4.55193 17.3159 4.38377C17.2419 4.20865 17.2189 4.27233 17.1789 4.32805C17.1299 4.40765 17.1389 4.42357 17.1939 4.51213C17.2499 4.60865 17.2979 4.78377 17.2979 4.92009Z" fill="white"/>
</g>
<mask id="mask29_986_17624" style="mask-type:luminance" maskUnits="userSpaceOnUse" x="0" y="0" width="24" height="16">
<path d="M0 16H24V1.90735e-06H0V16Z" fill="white"/>
</mask>
<g mask="url(#mask29_986_17624)">
<path d="M17.7559 6.63224C17.7879 7.19144 17.6519 7.50388 17.1059 7.86408C16.9299 7.98348 16.7289 8.1198 17.1529 8.01632C17.5709 7.91184 18.0219 7.63224 17.9739 6.47204C17.9329 5.43224 17.7959 4.97552 17.8279 4.58448C17.9169 4.66408 17.9649 4.6402 17.9079 4.50388C17.8449 4.36856 17.7799 4.22428 17.7249 4.09592C17.6599 3.9596 17.6439 3.99244 17.5709 4.08796C17.4909 4.18448 17.4839 4.25612 17.5159 4.31184C17.6679 5.58448 17.7399 6.24816 17.7559 6.63224Z" fill="white"/>
</g>
<mask id="mask30_986_17624" style="mask-type:luminance" maskUnits="userSpaceOnUse" x="0" y="0" width="24" height="16">
<path d="M0 16H24V1.90735e-06H0V16Z" fill="white"/>
</mask>
<g mask="url(#mask30_986_17624)">
<path d="M16.0731 6.66726C16.1451 6.54288 16.0891 6.39462 16.0161 6.2991C15.9521 6.21552 15.9121 6.23343 15.8721 6.28119C15.8401 6.32895 15.8161 6.36477 15.8801 6.3996C15.9441 6.43641 16.0401 6.53094 16.0001 6.63741C15.9761 6.72099 16.0001 6.78567 16.0731 6.66726Z" fill="white"/>
</g>
<mask id="mask31_986_17624" style="mask-type:luminance" maskUnits="userSpaceOnUse" x="0" y="0" width="24" height="16">
<path d="M0 16H24V1.90735e-06H0V16Z" fill="white"/>
</mask>
<g mask="url(#mask31_986_17624)">
<path d="M16.4425 7.87123C16.4265 7.87123 16.4175 7.8384 16.4425 7.79263C16.4635 7.76377 16.4705 7.74685 16.4845 7.71103C16.5005 7.6772 16.4865 7.65432 16.4305 7.63541C16.3725 7.62447 16.3495 7.62944 16.2855 7.63541C16.2505 7.64238 16.2385 7.6573 16.2325 7.69909C16.2355 7.76277 16.2735 7.75879 16.3135 7.78467C16.3375 7.81253 16.3515 7.84039 16.3125 7.88815C16.2745 7.92297 16.2475 7.94188 16.2095 7.97571C16.1925 8.00656 16.1805 8.05233 16.2345 8.06725C16.3355 8.09511 16.5255 7.96974 16.5255 7.96675C16.5635 7.93889 16.5505 7.88516 16.5465 7.88516C16.5255 7.86029 16.4765 7.87521 16.4425 7.87123Z" fill="white"/>
</g>
</g>
<defs>
<clipPath id="clip0_986_17624">
<rect width="24" height="16" fill="white"/>
</clipPath>
</defs>
</svg>
