<svg width="24" height="16" viewBox="0 0 24 16" fill="none" xmlns="http://www.w3.org/2000/svg">
<path d="M0 16H24V1.90735e-06H0V16ZM0.779 0.776121H23.22V15.2239H0.779V0.776121Z" fill="#D3AE39"/>
<path d="M0.781006 15.2239H23.221V0.776115H0.781006V15.2239Z" fill="#C3272D"/>
<mask id="mask0_110_734" style="mask-type:luminance" maskUnits="userSpaceOnUse" x="0" y="0" width="24" height="16">
<path d="M0 1.90735e-06H24V16H0V1.90735e-06Z" fill="white"/>
</mask>
<g mask="url(#mask0_110_734)">
<path d="M12.754 5.47309C12.557 5.51588 12.535 5.5716 12.691 5.64026C12.597 5.7507 12.483 5.82832 12.347 5.87409C12.332 5.94672 12.371 6.00742 12.443 6.03827C12.027 6.38653 12.287 6.4313 12.038 6.7915L12.035 6.7925C11.773 6.41339 12.068 6.42036 11.629 6.03827C11.702 6.00742 11.74 5.94672 11.726 5.87409C11.59 5.82832 11.476 5.7507 11.382 5.64026C11.492 5.52881 11.36 5.43329 11.175 5.33876C11.313 5.28205 11.384 5.18653 11.387 5.05319C11.82 5.17658 12.253 5.17658 12.686 5.05319C12.689 5.18653 12.76 5.28304 12.898 5.33876C12.898 5.33876 12.862 5.41439 12.755 5.47409L12.754 5.47309ZM11.293 4.42533C11.216 4.4323 11.143 4.42036 11.073 4.38951C11.043 4.15469 11.12 3.96364 11.323 3.8313C11.248 3.96364 11.3 4.41837 11.293 4.42533ZM11.689 3.81837C11.798 3.71886 11.875 3.70195 11.875 3.70195C11.861 3.98155 11.78 4.11488 11.937 4.33677C11.813 4.41439 11.688 4.40941 11.57 4.32185C11.542 4.15667 11.554 3.94175 11.689 3.81837ZM12.223 4.24125C12.25 4.06016 12.242 3.88006 12.198 3.70195C12.456 3.83031 12.557 4.0512 12.502 4.32185C12.385 4.40941 12.26 4.41439 12.136 4.33677C12.136 4.33677 12.199 4.30095 12.223 4.24125ZM12.787 3.89996C12.762 3.85319 12.749 3.8313 12.749 3.8313C12.944 3.96762 13.021 4.15966 12.999 4.38951C12.569 4.48006 12.953 4.2114 12.787 3.89996ZM10.574 9.80643C10.376 10.1746 10.1 9.94971 10.066 10.2403C9.76999 10.3666 9.65199 10.5278 9.83699 10.698C9.55499 10.8681 9.21899 10.9169 8.88899 10.8462C8.86999 10.6373 8.78599 10.4403 8.64699 10.282C8.67099 10.1626 8.62599 10.0641 8.51699 9.99449C8.38599 9.64424 7.87699 8.73876 8.05799 8.37459C8.20199 8.55866 8.58199 8.61936 8.80099 8.61737C8.61799 8.64424 8.43699 8.63329 8.25699 8.58454C8.35699 8.91886 8.60399 9.04722 8.94099 8.96165C8.84399 9.01538 8.73999 9.04722 8.62799 9.05916C8.62799 9.36762 9.69899 9.35667 9.00499 9.38653C9.09799 9.86712 9.60499 9.33677 9.60499 9.692C9.60499 9.76264 10.643 9.61737 10.643 9.61737C10.647 9.62135 10.65 9.62533 10.653 9.63031C10.636 9.67409 10.607 9.74473 10.574 9.80643ZM8.01599 8.31588C7.99499 8.32782 7.93199 8.36364 7.93199 8.36364C7.84299 8.25319 7.89299 8.2522 7.98199 8.2313C7.99099 8.25717 8.00299 8.28603 8.01899 8.31488C8.01799 8.31588 8.01699 8.31588 8.01599 8.31687V8.31588ZM15.518 7.83926C16.442 7.57956 16.002 7.3507 16.427 7.02235C16.143 7.24125 16.007 7.28006 15.713 7.39648C16.285 7.1716 16.123 6.69299 16.376 6.49697C16.148 6.67508 15.946 7.00742 15.642 7.09697C16.009 6.98852 16.377 6.19051 16.35 5.86016C16.356 5.92085 15.853 6.44225 15.759 6.55767C16.225 5.97956 15.966 5.66016 16.037 5.14175C15.993 5.46513 15.793 5.91588 15.62 6.17359C15.999 5.60643 15.654 4.9726 15.649 4.40941C15.649 4.82832 15.562 5.22732 15.389 5.60742C15.553 5.08702 15.497 4.52483 15.213 4.05319C15.177 4.40842 15.184 4.86613 15.053 5.23727C15.072 5.25419 14.574 6.14374 14.524 6.22832C13.771 6.60643 14.258 7.02434 14.136 7.64623C14.132 7.66812 13.532 7.98354 13.449 7.9925C13.441 7.54573 13.615 7.34672 13.615 7.34672L13.129 6.77857C13.104 6.79051 13.078 6.80145 13.053 6.8124C12.996 6.7308 12.963 6.63727 12.953 6.53379C13.143 6.5517 13.109 6.29797 13.063 6.1308C13.292 6.29299 13.16 6.04722 13.325 5.89996C13.54 5.97558 13.745 5.90891 13.885 5.72583C13.992 5.69598 14.876 5.87608 14.507 5.34573C14.688 5.60145 13.74 5.53279 13.709 5.55866C13.7 5.56861 14.232 5.35667 14.196 5.48205C14.312 5.07906 13.976 5.19349 13.791 5.14175C13.638 4.90195 13.424 4.87906 13.15 5.07309C13.003 5.09797 12.871 5.06613 12.754 4.97558C12.766 4.93478 12.79 4.85916 12.79 4.85916C12.889 4.83528 12.904 4.78752 12.822 4.71488C12.858 4.62036 12.921 4.55966 13.014 4.53379C13.066 4.54971 13.105 4.53777 13.127 4.49697C13.183 4.4124 13.217 4.30095 13.225 4.18354C13.271 4.11389 13.253 4.05916 13.182 4.02931C13.168 3.97658 13.142 3.92981 13.104 3.89001C13.115 3.81439 13.077 3.7726 12.999 3.7726C12.943 3.73777 12.887 3.70593 12.828 3.67608C12.816 3.6124 12.774 3.58852 12.712 3.60643C12.625 3.58653 12.538 3.56563 12.45 3.54573C12.375 3.50593 12.296 3.47807 12.213 3.46314C12.29 3.32483 12.248 3.21837 12.12 3.13876L12.119 3.09001L12.214 3.09996L12.222 2.94871L12.13 2.95966L12.144 2.86911L11.951 2.86712L11.965 2.95767L11.872 2.9517L11.88 3.10095L11.978 3.08802L11.968 3.14474C11.968 3.14474 11.933 3.15071 11.902 3.1726C11.8 3.26215 11.785 3.35866 11.858 3.46414C11.775 3.47807 11.697 3.50493 11.622 3.54573L11.361 3.60643C11.299 3.58852 11.257 3.6124 11.245 3.67608C11.187 3.70593 11.129 3.73777 11.074 3.7726C10.996 3.7726 10.958 3.81439 10.97 3.89001C10.932 3.92981 10.905 3.97658 10.891 4.02931C10.82 4.05916 10.803 4.11389 10.849 4.18354C10.852 4.30195 10.885 4.41339 10.946 4.49697C10.969 4.53777 11.007 4.54971 11.059 4.53379C11.152 4.55966 11.216 4.62036 11.251 4.71488C11.169 4.78752 11.185 4.83528 11.283 4.85916C11.283 4.85916 11.307 4.93478 11.319 4.97558C11.202 5.06613 11.07 5.09797 10.924 5.07309C10.65 4.87906 10.436 4.90195 10.283 5.14175C10.098 5.19349 9.76199 5.07906 9.87699 5.48205C9.84099 5.35667 10.373 5.56861 10.364 5.55866C10.365 5.55966 9.40999 5.56862 9.56599 5.34573C9.19699 5.87309 10.08 5.69797 10.188 5.72583C10.328 5.90891 10.533 5.97459 10.748 5.89996C10.913 6.04722 10.781 6.292 11.01 6.1308C10.963 6.29797 10.93 6.5517 11.12 6.53379C11.111 6.63727 11.078 6.72981 11.021 6.8114C10.997 6.80046 10.973 6.78951 10.948 6.77757L10.462 7.34672C10.462 7.34672 10.637 7.54672 10.628 7.99648V7.9925C10.592 7.98951 9.93299 7.61439 9.93899 7.64623C9.82399 7.0512 10.094 6.62334 9.55099 6.22832C9.50099 6.14374 9.00299 5.25419 9.02199 5.23727C8.89099 4.86613 8.89799 4.40842 8.86199 4.05319C8.57799 4.52483 8.52199 5.08702 8.68599 5.60742C8.51299 5.22732 8.42699 4.82832 8.42699 4.40941C8.42599 4.92682 8.10499 5.6522 8.45499 6.17359C8.28099 5.91488 8.08199 5.46613 8.03699 5.14175C8.10799 5.66016 7.84999 5.97956 8.31599 6.55767C8.24399 6.46812 7.72099 5.90493 7.72499 5.86016C7.69699 6.19051 8.06599 6.98852 8.43299 7.09697C8.12799 7.00742 7.92699 6.67508 7.69799 6.49697C7.95099 6.69299 7.78899 7.1716 8.36099 7.39648C8.06699 7.28006 7.93199 7.24125 7.64799 7.02235C7.89399 7.2124 8.18899 7.61041 8.58499 7.86513C8.48599 7.83628 7.71999 7.58653 7.72299 7.61339C7.75799 7.95269 8.30699 8.23727 8.61599 8.21439C8.39599 8.22235 8.18099 8.18553 7.97399 8.10692C7.91999 7.90095 7.67599 7.87906 7.66799 8.14573C7.48699 8.17956 7.50199 8.27309 7.63599 8.38752L7.72699 8.33379L7.75899 8.45618C7.61199 8.63926 8.19999 9.84026 8.34299 10.1069C8.31999 10.2214 8.36299 10.3129 8.45599 10.3925C8.58499 10.8393 8.61299 11.083 8.57799 11.4343C8.55299 11.5646 8.62499 11.6562 8.76799 11.69C8.92399 11.8661 9.11499 12.2691 9.40299 12.2273C9.69099 12.1855 9.41099 11.7587 9.38399 11.6253C9.56399 11.3487 9.79899 11.1328 10.093 10.9776C10.216 11.098 10.439 10.9965 10.666 10.8005C10.983 10.8214 11.107 10.4781 11.477 10.1368C11.492 10.1437 11.507 10.1507 11.522 10.1577C11.395 10.5119 11.185 10.6094 11.224 10.9965C11.105 11.101 11.046 11.2333 11.046 11.3905C10.958 11.4701 10.483 11.8323 10.515 11.9218C10.588 12.1278 11.001 12.2761 11.116 12.3019C11.067 12.6024 11.217 12.6044 11.472 12.4333C11.443 12.7497 11.51 12.9019 11.765 12.6542C11.8 12.8413 11.891 13.0015 12.036 13.1338C12.182 13.0015 12.273 12.8413 12.308 12.6542C12.565 12.8791 12.635 12.7417 12.6 12.4333C12.835 12.5875 13.002 12.6134 12.957 12.3019C13.103 12.2701 13.481 12.1378 13.558 11.9218C13.59 11.8313 13.115 11.4701 13.026 11.3905C13.026 11.2333 12.968 11.101 12.849 10.9965C12.872 10.6194 12.671 10.495 12.552 10.1577C12.571 10.1497 12.591 10.1408 12.611 10.1328C12.983 10.4731 13.106 10.8164 13.423 10.7955C13.474 10.8363 13.973 11.1845 13.987 11.0144C15.078 11.6691 17.047 10.499 15.744 9.98454C15.735 9.95767 15.717 9.94075 15.69 9.9318C15.7 9.79349 16.019 9.50991 15.608 9.44623C15.421 9.41737 15.486 9.8512 15.517 9.77658C15.627 9.66215 13.948 10.9955 14.754 10.9955C14.572 10.9955 14.046 10.2711 14.024 10.2363C13.945 10.0323 13.534 10.0273 13.429 9.62235L13.433 9.61936C13.483 9.71886 14.47 9.66016 14.47 9.692C14.47 9.33677 14.978 9.86712 15.069 9.38653C14.376 9.35667 15.447 9.36762 15.447 9.05916C15.335 9.04722 15.231 9.01538 15.135 8.96165C15.471 9.04722 15.718 8.91886 15.817 8.58454C15.638 8.63329 15.456 8.64424 15.275 8.61737C15.686 8.65319 16.002 8.48105 16.122 8.09896C15.908 8.18354 15.687 8.22235 15.459 8.21439C15.768 8.23727 16.317 7.95269 16.352 7.61339C16.355 7.58653 15.589 7.83628 15.49 7.86613C15.49 7.86613 15.417 7.86215 15.512 7.83628L15.518 7.83926Z" fill="#B96B29"/>
</g>
<mask id="mask1_110_734" style="mask-type:luminance" maskUnits="userSpaceOnUse" x="0" y="0" width="24" height="16">
<path d="M0 1.90735e-06H24V16H0V1.90735e-06Z" fill="white"/>
</mask>
<g mask="url(#mask1_110_734)">
<path d="M13.4102 7.89402C13.4102 7.55671 13.5662 7.34278 13.5662 7.34278L13.1412 6.85919C12.7372 7.01442 12.3672 7.02437 12.0372 6.8572C11.7072 7.02437 11.3372 7.01442 10.9322 6.85919L10.5082 7.34278C10.7952 8.77163 10.1732 9.92586 12.0372 10.4413C13.5402 9.9776 13.4102 9.20845 13.4102 7.89402Z" fill="#D4AF3A"/>
</g>
<mask id="mask2_110_734" style="mask-type:luminance" maskUnits="userSpaceOnUse" x="0" y="0" width="24" height="16">
<path d="M0 1.90735e-06H24V16H0V1.90735e-06Z" fill="white"/>
</mask>
<g mask="url(#mask2_110_734)">
<path d="M13.2764 8.03359C13.2234 7.7112 13.4104 7.42762 13.4104 7.42762L13.0474 7.00473C12.7664 7.16095 12.3774 7.14006 12.0384 6.98483C11.6994 7.14006 11.3104 7.16095 11.0304 7.00473L10.6664 7.42762C10.5994 8.64155 10.6474 9.81568 12.0384 10.2694C13.2064 9.87438 13.4624 9.15299 13.2764 8.03359Z" fill="#B96B29"/>
</g>
<mask id="mask3_110_734" style="mask-type:luminance" maskUnits="userSpaceOnUse" x="0" y="0" width="24" height="16">
<path d="M0 1.90735e-06H24V16H0V1.90735e-06Z" fill="white"/>
</mask>
<g mask="url(#mask3_110_734)">
<path d="M13.2411 8.07188C13.1891 7.72362 13.3461 7.44302 13.3461 7.44302L13.0181 7.07984C12.7411 7.22213 12.4041 7.18432 12.0371 7.05795C11.6701 7.18432 11.3331 7.22213 11.0561 7.07984L10.7281 7.44302C10.9081 8.04402 10.6321 8.46392 10.7201 9.09277H11.0191C11.0491 9.07188 11.0801 9.05198 11.1131 9.03606C11.2751 8.94153 11.3741 8.79228 11.3971 8.58432C11.3001 8.54451 11.2991 8.45894 11.3611 8.36939L11.3481 8.32163C11.3131 8.25098 10.5021 7.49675 11.1251 7.44501C11.1121 7.43705 11.2981 7.5674 11.2271 7.47088C11.2981 7.5674 11.3401 7.94451 11.3911 8.047C11.3881 7.73854 11.2611 7.52561 11.5881 7.38133C12.0051 7.19725 12.2871 7.57138 12.2541 7.96143C12.1201 7.97536 12.0651 8.02909 12.1361 8.14153C12.3301 8.1276 12.5331 8.13755 12.7221 8.17337C12.8211 8.43805 12.3381 7.75546 12.3481 7.80621C12.2671 7.447 13.1051 7.54949 13.1021 7.56641C13.0611 7.77238 12.3771 7.65795 12.4821 7.80223C12.7031 7.85496 12.9221 7.91466 13.1381 7.98233C13.2811 8.23009 12.8601 8.34153 12.8331 8.29675C13.0831 8.48979 13.1731 8.75447 13.0361 9.09277H13.3541C13.3941 8.75148 13.3561 8.40919 13.2401 8.06889L13.2411 8.07188Z" fill="#1D5E91"/>
</g>
<mask id="mask4_110_734" style="mask-type:luminance" maskUnits="userSpaceOnUse" x="0" y="0" width="24" height="16">
<path d="M0 1.90735e-06H24V16H0V1.90735e-06Z" fill="white"/>
</mask>
<g mask="url(#mask4_110_734)">
<path d="M10.7587 9.2477C11.1747 10.4308 12.9007 10.4308 13.3167 9.2477H10.7587Z" fill="#6D8C3E"/>
</g>
<mask id="mask5_110_734" style="mask-type:luminance" maskUnits="userSpaceOnUse" x="0" y="0" width="24" height="16">
<path d="M0 1.90735e-06H24V16H0V1.90735e-06Z" fill="white"/>
</mask>
<g mask="url(#mask5_110_734)">
<path d="M10.9815 7.87563C11.0995 7.99901 11.2245 8.10647 11.3205 8.24976C11.3355 8.06667 11.2135 7.72239 11.1755 7.57911C11.1665 7.57214 11.1165 7.53931 11.1135 7.63185C11.1395 7.59901 10.9815 7.87563 10.9815 7.87563Z" fill="#D4AF3A"/>
</g>
<mask id="mask6_110_734" style="mask-type:luminance" maskUnits="userSpaceOnUse" x="0" y="0" width="24" height="16">
<path d="M0 1.90735e-06H24V16H0V1.90735e-06Z" fill="white"/>
</mask>
<g mask="url(#mask6_110_734)">
<path d="M11.0289 7.58167C11.0749 7.56176 11.0079 7.52296 10.9919 7.51997C10.9929 7.54883 11.0059 7.56972 11.0289 7.58167Z" fill="#D4AF3A"/>
</g>
<mask id="mask7_110_734" style="mask-type:luminance" maskUnits="userSpaceOnUse" x="0" y="0" width="24" height="16">
<path d="M0 1.90735e-06H24V16H0V1.90735e-06Z" fill="white"/>
</mask>
<g mask="url(#mask7_110_734)">
<path d="M11.1095 7.51699C11.1085 7.52694 11.1445 7.50704 11.1055 7.46823C11.1055 7.46823 11.1105 7.50306 11.1095 7.51699Z" fill="#D4AF3A"/>
</g>
<mask id="mask8_110_734" style="mask-type:luminance" maskUnits="userSpaceOnUse" x="0" y="0" width="24" height="16">
<path d="M0 1.90735e-06H24V16H0V1.90735e-06Z" fill="white"/>
</mask>
<g mask="url(#mask8_110_734)">
<path d="M11.2245 7.53553C11.2255 7.52061 11.2195 7.50369 11.2195 7.50369C11.2115 7.52658 11.2215 7.56339 11.2245 7.53553Z" fill="#D4AF3A"/>
</g>
<mask id="mask9_110_734" style="mask-type:luminance" maskUnits="userSpaceOnUse" x="0" y="0" width="24" height="16">
<path d="M0 1.90735e-06H24V16H0V1.90735e-06Z" fill="white"/>
</mask>
<g mask="url(#mask9_110_734)">
<path d="M11.4053 8.31477C11.4563 8.43019 11.8193 8.31079 11.8933 8.24512C12.0353 8.16949 12.0943 8.0879 12.1853 7.91278C12.1353 7.83517 12.0603 7.79636 11.9693 7.80432C11.9393 7.73168 11.8883 7.53964 11.8763 7.45308C11.8143 7.39636 11.7453 7.40133 11.6913 7.46402C11.6023 7.45407 11.5253 7.47994 11.5083 7.55258C11.5963 7.62422 11.6293 7.70382 11.5763 7.78342C11.8813 7.86999 11.6203 7.99636 11.4023 8.09089C11.5393 8.03019 11.5933 8.02322 11.7183 8.04114C11.9943 8.00531 11.3153 8.1088 11.4053 8.31676V8.31477Z" fill="#D4AF3A"/>
</g>
<mask id="mask10_110_734" style="mask-type:luminance" maskUnits="userSpaceOnUse" x="0" y="0" width="24" height="16">
<path d="M0 1.90735e-06H24V16H0V1.90735e-06Z" fill="white"/>
</mask>
<g mask="url(#mask10_110_734)">
<path d="M11.9281 7.44366C11.9391 7.4367 11.9601 7.42774 11.9601 7.42774C12.0701 7.35312 11.9541 7.38695 11.8721 7.41083C11.8821 7.43371 11.9011 7.44466 11.9281 7.44366Z" fill="#D4AF3A"/>
</g>
<mask id="mask11_110_734" style="mask-type:luminance" maskUnits="userSpaceOnUse" x="0" y="0" width="24" height="16">
<path d="M0 1.90735e-06H24V16H0V1.90735e-06Z" fill="white"/>
</mask>
<g mask="url(#mask11_110_734)">
<path d="M12.0429 7.59913C11.9899 7.61008 11.9579 7.63694 11.9479 7.67873C11.9619 7.70958 11.9689 7.74241 11.9669 7.77625C12.0819 7.75734 12.3099 7.60013 12.0429 7.60013V7.59913Z" fill="#D4AF3A"/>
</g>
<mask id="mask12_110_734" style="mask-type:luminance" maskUnits="userSpaceOnUse" x="0" y="0" width="24" height="16">
<path d="M0 1.90735e-06H24V16H0V1.90735e-06Z" fill="white"/>
</mask>
<g mask="url(#mask12_110_734)">
<path d="M11.5772 7.71954C11.6972 7.70561 11.3672 7.47079 11.3822 7.54939C11.3742 7.67178 11.4392 7.7285 11.5772 7.71954Z" fill="#D4AF3A"/>
</g>
<mask id="mask13_110_734" style="mask-type:luminance" maskUnits="userSpaceOnUse" x="0" y="0" width="24" height="16">
<path d="M0 1.90735e-06H24V16H0V1.90735e-06Z" fill="white"/>
</mask>
<g mask="url(#mask13_110_734)">
<path d="M11.2817 9.07846C11.2857 9.08642 11.2917 9.0904 11.2977 9.09338H11.4297C11.5007 9.07348 11.6307 8.53219 11.4477 8.54612C11.5097 8.54115 11.1707 9.06751 11.1707 9.06751C11.2337 9.00284 11.2497 9.02174 11.2817 9.07846Z" fill="#D4AF3A"/>
</g>
<mask id="mask14_110_734" style="mask-type:luminance" maskUnits="userSpaceOnUse" x="0" y="0" width="24" height="16">
<path d="M0 1.90735e-06H24V16H0V1.90735e-06Z" fill="white"/>
</mask>
<g mask="url(#mask14_110_734)">
<path d="M11.0785 9.07176C11.0685 9.07474 11.0605 9.08469 11.0565 9.09265H11.1435C11.1385 9.06081 11.1175 9.05385 11.0785 9.07176Z" fill="#D4AF3A"/>
</g>
<mask id="mask15_110_734" style="mask-type:luminance" maskUnits="userSpaceOnUse" x="0" y="0" width="24" height="16">
<path d="M0 1.90735e-06H24V16H0V1.90735e-06Z" fill="white"/>
</mask>
<g mask="url(#mask15_110_734)">
<path d="M11.1964 9.06889C11.1864 9.07486 11.1734 9.08382 11.1664 9.09277H11.2594C11.2614 9.05397 11.2394 9.047 11.1964 9.06889Z" fill="#D4AF3A"/>
</g>
<mask id="mask16_110_734" style="mask-type:luminance" maskUnits="userSpaceOnUse" x="0" y="0" width="24" height="16">
<path d="M0 1.90735e-06H24V16H0V1.90735e-06Z" fill="white"/>
</mask>
<g mask="url(#mask16_110_734)">
<path d="M12.0068 9.03096C11.9928 9.03096 11.9428 9.07275 11.9518 9.09265H11.9918C12.0138 9.07375 12.0228 9.05385 12.0068 9.03096Z" fill="#D4AF3A"/>
</g>
<mask id="mask17_110_734" style="mask-type:luminance" maskUnits="userSpaceOnUse" x="0" y="0" width="24" height="16">
<path d="M0 1.90735e-06H24V16H0V1.90735e-06Z" fill="white"/>
</mask>
<g mask="url(#mask17_110_734)">
<path d="M12.0851 9.07373C12.0851 9.02199 12.0281 9.08169 12.0201 9.09363H12.0781C12.0821 9.08666 12.0851 9.0787 12.0851 9.07273V9.07373Z" fill="#D4AF3A"/>
</g>
<mask id="mask18_110_734" style="mask-type:luminance" maskUnits="userSpaceOnUse" x="0" y="0" width="24" height="16">
<path d="M0 1.90735e-06H24V16H0V1.90735e-06Z" fill="white"/>
</mask>
<g mask="url(#mask18_110_734)">
<path d="M12.4463 8.64414C12.4673 8.62822 12.2533 8.48195 12.2263 8.70285C12.2023 8.9128 12.1433 8.96255 12.1033 9.0929H12.2763C12.4863 9.00036 12.3483 8.84016 12.3763 8.70882C12.3793 8.68693 12.4163 8.66304 12.4443 8.64215L12.4463 8.64414Z" fill="#D4AF3A"/>
</g>
<mask id="mask19_110_734" style="mask-type:luminance" maskUnits="userSpaceOnUse" x="0" y="0" width="24" height="16">
<path d="M0 1.90735e-06H24V16H0V1.90735e-06Z" fill="white"/>
</mask>
<g mask="url(#mask19_110_734)">
<path d="M12.161 8.21478C12.295 8.43169 11.343 8.45259 11.433 8.40781C11.332 8.45756 11.474 8.56204 11.609 8.6496C11.637 8.6307 12.496 8.40582 12.493 8.4297C12.495 8.41378 12.226 8.4108 12.22 8.42075C12.457 8.08542 12.829 8.93119 12.836 8.95906C12.722 8.95906 12.702 9.00682 12.696 9.09338H12.708C12.727 9.06154 12.852 9.01279 12.84 9.09338H12.961C13.41 8.23169 12.309 8.44662 12.163 8.21279L12.161 8.21478Z" fill="#D4AF3A"/>
</g>
<mask id="mask20_110_734" style="mask-type:luminance" maskUnits="userSpaceOnUse" x="0" y="0" width="24" height="16">
<path d="M0 1.90735e-06H24V16H0V1.90735e-06Z" fill="white"/>
</mask>
<g mask="url(#mask20_110_734)">
<path d="M12.6144 9.07659C12.6064 9.08157 12.6004 9.08853 12.5964 9.09351H12.6784C12.6764 9.05868 12.6544 9.0537 12.6144 9.07659Z" fill="#D4AF3A"/>
</g>
<mask id="mask21_110_734" style="mask-type:luminance" maskUnits="userSpaceOnUse" x="0" y="0" width="24" height="16">
<path d="M0 1.90735e-06H24V16H0V1.90735e-06Z" fill="white"/>
</mask>
<g mask="url(#mask21_110_734)">
<path d="M12.7607 9.07076C12.7467 9.07773 12.7387 9.08668 12.7337 9.09265H12.8167C12.8177 9.06877 12.7997 9.06081 12.7607 9.07076Z" fill="#D4AF3A"/>
</g>
<mask id="mask22_110_734" style="mask-type:luminance" maskUnits="userSpaceOnUse" x="0" y="0" width="24" height="16">
<path d="M0 1.90735e-06H24V16H0V1.90735e-06Z" fill="white"/>
</mask>
<g mask="url(#mask22_110_734)">
<path d="M10.7252 9.12224C10.7292 9.14711 10.7362 9.17298 10.7432 9.19885H13.3312C13.3392 9.17398 13.3452 9.14711 13.3502 9.12224H10.7252Z" fill="#D4AF3A"/>
</g>
<mask id="mask23_110_734" style="mask-type:luminance" maskUnits="userSpaceOnUse" x="0" y="0" width="24" height="16">
<path d="M0 1.90735e-06H24V16H0V1.90735e-06Z" fill="white"/>
</mask>
<g mask="url(#mask23_110_734)">
<path d="M12.4698 7.89165C12.4508 7.87971 13.4858 8.1016 12.7698 8.19712C12.7858 8.20906 12.8108 8.24388 12.8108 8.24388C13.1538 8.83692 12.4308 7.19712 12.4308 7.75632C12.4308 7.62199 12.9738 7.59911 13.0668 7.56329C12.9618 7.54637 12.0818 7.63493 12.4698 7.89165Z" fill="#D4AF3A"/>
</g>
<mask id="mask24_110_734" style="mask-type:luminance" maskUnits="userSpaceOnUse" x="0" y="0" width="24" height="16">
<path d="M0 1.90735e-06H24V16H0V1.90735e-06Z" fill="white"/>
</mask>
<g mask="url(#mask24_110_734)">
<path d="M12.838 7.58463C12.774 7.57966 12.689 7.59657 12.689 7.59657C12.776 7.62145 12.87 7.62145 12.958 7.59757C12.958 7.59757 12.902 7.5906 12.838 7.58463Z" fill="#B96B29"/>
</g>
<mask id="mask25_110_734" style="mask-type:luminance" maskUnits="userSpaceOnUse" x="0" y="0" width="24" height="16">
<path d="M0 1.90735e-06H24V16H0V1.90735e-06Z" fill="white"/>
</mask>
<g mask="url(#mask25_110_734)">
<path d="M12.2236 8.78318C12.1726 8.70258 12.0916 8.74537 12.1606 8.56726C11.7136 8.54537 11.6386 8.72945 11.5156 9.09363H11.9196C11.9686 8.96527 12.1766 8.88865 12.2556 8.819C12.2556 8.819 12.2396 8.80806 12.2236 8.78318Z" fill="#1D5E91"/>
</g>
<mask id="mask26_110_734" style="mask-type:luminance" maskUnits="userSpaceOnUse" x="0" y="0" width="24" height="16">
<path d="M0 1.90735e-06H24V16H0V1.90735e-06Z" fill="white"/>
</mask>
<g mask="url(#mask26_110_734)">
<path d="M12.8741 8.79388C12.8591 8.72622 12.7991 8.75209 12.7821 8.79388C12.6691 8.80284 12.5651 8.75806 12.4931 8.6705C12.4691 8.80781 12.4371 8.93915 12.3731 9.09338H12.5681C12.5821 9.06055 12.6061 9.04164 12.6441 9.03567C12.6811 8.96702 12.7501 8.9292 12.8351 8.9302C12.8821 8.89736 12.8951 8.85159 12.8741 8.79388Z" fill="#1D5E91"/>
</g>
<mask id="mask27_110_734" style="mask-type:luminance" maskUnits="userSpaceOnUse" x="0" y="0" width="24" height="16">
<path d="M0 1.90735e-06H24V16H0V1.90735e-06Z" fill="white"/>
</mask>
<g mask="url(#mask27_110_734)">
<path d="M11.2451 10.9413C11.3561 10.9781 11.4701 10.7602 11.4961 10.6816C11.5021 10.6975 11.3311 11.2119 11.5371 11.1393C11.5191 11.1452 11.7751 10.8627 11.7221 10.8527C11.7861 10.8647 11.5461 11.3283 11.7331 11.3423C12.2211 11.3811 11.5661 10.8497 12.0371 11.396C12.8651 10.9174 11.6011 11.402 12.3411 11.3423C12.4271 11.2139 12.4311 11.0806 12.3531 10.9413C12.5011 11.5283 12.6141 10.6398 12.5921 10.7015C13.1161 11.1691 12.6121 10.5303 12.4951 10.1851C12.3151 10.2846 12.1631 10.4159 12.0381 10.5771C11.9121 10.4149 11.7601 10.2836 11.5791 10.1841C11.5621 10.2219 11.0481 10.8746 11.2451 10.9413Z" fill="#D4AF3A"/>
</g>
<mask id="mask28_110_734" style="mask-type:luminance" maskUnits="userSpaceOnUse" x="0" y="0" width="24" height="16">
<path d="M0 1.90735e-06H24V16H0V1.90735e-06Z" fill="white"/>
</mask>
<g mask="url(#mask28_110_734)">
<path d="M11.2402 11.3513C11.2872 11.3095 11.3112 11.2877 11.3112 11.2877C11.5142 11.5643 11.6332 11.8538 12.0382 11.9951C12.4212 11.8618 12.5632 11.5434 12.7632 11.2877C12.8112 11.3444 12.8722 11.3802 12.9462 11.3951C12.9652 11.2369 12.9202 11.1036 12.8112 10.9971C12.7632 10.9951 12.7202 10.9792 12.6822 10.9493V11.0409C12.7732 11.1294 12.8782 11.2369 12.6822 11.0926C12.6792 11.1842 12.6362 11.223 12.5592 11.21L12.5552 11.2439C12.6142 11.2469 12.5302 11.2896 12.3862 11.3961C12.4332 11.5623 12.4362 11.618 12.3362 11.411C12.2552 11.413 12.2082 11.3732 12.1942 11.2906C12.1832 11.3792 12.1392 11.4439 12.0632 11.4837C12.0462 11.7762 12.0292 11.7762 12.0112 11.4837C11.9352 11.4439 11.8912 11.3792 11.8812 11.2906C11.8672 11.3732 11.8202 11.413 11.7402 11.411C11.6392 11.618 11.6412 11.5623 11.6882 11.3961C11.5112 11.2469 11.5482 11.2548 11.5202 11.2439L11.5152 11.21C11.4382 11.223 11.3962 11.1842 11.3932 11.0926C11.1982 11.2369 11.3022 11.1294 11.3932 11.0409V10.9493C11.3552 10.9792 11.3122 10.9951 11.2632 10.9971C11.1552 11.1036 11.1102 11.2369 11.1292 11.3951C11.1292 11.3951 11.1942 11.3921 11.2402 11.3513Z" fill="#D4AF3A"/>
</g>
<mask id="mask29_110_734" style="mask-type:luminance" maskUnits="userSpaceOnUse" x="0" y="0" width="24" height="16">
<path d="M0 1.90735e-06H24V16H0V1.90735e-06Z" fill="white"/>
</mask>
<g mask="url(#mask29_110_734)">
<path d="M12.0986 12.4611C12.0536 12.4083 12.0376 12.3825 12.0376 12.3825C11.9816 12.466 11.9116 12.5367 11.8276 12.5954C11.8386 12.7546 11.9086 12.88 12.0376 12.9735C12.1686 12.88 12.2386 12.7546 12.2486 12.5954C12.2486 12.5954 12.1436 12.5138 12.0986 12.4611Z" fill="#D4AF3A"/>
</g>
<mask id="mask30_110_734" style="mask-type:luminance" maskUnits="userSpaceOnUse" x="0" y="0" width="24" height="16">
<path d="M0 1.90735e-06H24V16H0V1.90735e-06Z" fill="white"/>
</mask>
<g mask="url(#mask30_110_734)">
<path d="M12.0157 12.6301C12.0517 12.9117 12.0627 12.5665 12.0637 12.5217H12.0097C12.0097 12.5217 12.0117 12.5983 12.0157 12.6301Z" fill="#B96B29"/>
</g>
<mask id="mask31_110_734" style="mask-type:luminance" maskUnits="userSpaceOnUse" x="0" y="0" width="24" height="16">
<path d="M0 1.90735e-06H24V16H0V1.90735e-06Z" fill="white"/>
</mask>
<g mask="url(#mask31_110_734)">
<path d="M12.0362 5.02792C11.8482 5.0309 11.6272 5.00503 11.5052 4.96026C11.4622 4.96921 11.4192 4.97916 11.3762 4.98812C11.8162 5.1314 12.2562 5.1314 12.6962 4.98812C12.6532 4.97916 12.6092 4.96921 12.5662 4.96026C12.4452 5.00503 12.2242 5.0309 12.0362 5.02792Z" fill="#D4AF3A"/>
</g>
<mask id="mask32_110_734" style="mask-type:luminance" maskUnits="userSpaceOnUse" x="0" y="0" width="24" height="16">
<path d="M0 1.90735e-06H24V16H0V1.90735e-06Z" fill="white"/>
</mask>
<g mask="url(#mask32_110_734)">
<path d="M12.7207 4.87155C12.5617 4.73921 12.5547 4.70339 12.7947 4.65563C12.2977 4.55314 11.7757 4.55016 11.2787 4.65563C11.2587 4.62678 11.6747 4.9213 11.3607 4.90538C11.5537 4.91434 12.5587 4.73623 12.7207 4.87155Z" fill="#D4AF3A"/>
</g>
<mask id="mask33_110_734" style="mask-type:luminance" maskUnits="userSpaceOnUse" x="0" y="0" width="24" height="16">
<path d="M0 1.90735e-06H24V16H0V1.90735e-06Z" fill="white"/>
</mask>
<g mask="url(#mask33_110_734)">
<path d="M12.5 4.95366C12.191 4.91287 11.883 4.91287 11.574 4.95366C11.883 5.02033 12.191 5.02033 12.5 4.95366Z" fill="#D4AF3A"/>
</g>
<mask id="mask34_110_734" style="mask-type:luminance" maskUnits="userSpaceOnUse" x="0" y="0" width="24" height="16">
<path d="M0 1.90735e-06H24V16H0V1.90735e-06Z" fill="white"/>
</mask>
<g mask="url(#mask34_110_734)">
<path d="M11.9962 3.13904L12.0982 3.13108L12.0882 3.04252L12.1972 3.05745L12.2012 2.97088L12.0872 2.98083L12.1072 2.8873L11.9812 2.8863L12.0032 2.98083L11.8922 2.97088V3.05745L12.0022 3.04451L11.9962 3.13904Z" fill="#D4AF3A"/>
</g>
<mask id="mask35_110_734" style="mask-type:luminance" maskUnits="userSpaceOnUse" x="0" y="0" width="24" height="16">
<path d="M0 1.90735e-06H24V16H0V1.90735e-06Z" fill="white"/>
</mask>
<g mask="url(#mask35_110_734)">
<path d="M12.2177 3.28186H12.0807V3.16644C12.0557 3.16146 12.0307 3.16047 12.0057 3.16544V3.28186H11.8647C11.8577 3.30375 11.8557 3.32564 11.8587 3.34753H12.2237C12.2267 3.32564 12.2257 3.30375 12.2177 3.28186Z" fill="#D4AF3A"/>
</g>
<mask id="mask36_110_734" style="mask-type:luminance" maskUnits="userSpaceOnUse" x="0" y="0" width="24" height="16">
<path d="M0 1.90735e-06H24V16H0V1.90735e-06Z" fill="white"/>
</mask>
<g mask="url(#mask36_110_734)">
<path d="M12.041 3.49414C12.122 3.49414 12.191 3.44737 12.215 3.38071H11.867C11.891 3.44737 11.96 3.49414 12.041 3.49414Z" fill="#1D5E91"/>
</g>
<mask id="mask37_110_734" style="mask-type:luminance" maskUnits="userSpaceOnUse" x="0" y="0" width="24" height="16">
<path d="M0 1.90735e-06H24V16H0V1.90735e-06Z" fill="white"/>
</mask>
<g mask="url(#mask37_110_734)">
<path d="M12.1162 3.17687V3.25647H12.2062C12.1872 3.22065 12.1562 3.19279 12.1162 3.17687Z" fill="#1D5E91"/>
</g>
<mask id="mask38_110_734" style="mask-type:luminance" maskUnits="userSpaceOnUse" x="0" y="0" width="24" height="16">
<path d="M0 1.90735e-06H24V16H0V1.90735e-06Z" fill="white"/>
</mask>
<g mask="url(#mask38_110_734)">
<path d="M11.9659 3.17687C11.9259 3.19279 11.8939 3.22065 11.8749 3.25647H11.9659V3.17687Z" fill="#1D5E91"/>
</g>
<mask id="mask39_110_734" style="mask-type:luminance" maskUnits="userSpaceOnUse" x="0" y="0" width="24" height="16">
<path d="M0 1.90735e-06H24V16H0V1.90735e-06Z" fill="white"/>
</mask>
<g mask="url(#mask39_110_734)">
<path d="M12.1454 4.65198C12.1114 4.63606 12.0364 4.60422 12.0364 4.60422C11.8544 4.67089 11.8354 4.74154 12.0384 4.81616C12.1204 4.79925 12.2874 4.71964 12.1454 4.65198Z" fill="#B96B29"/>
</g>
<mask id="mask40_110_734" style="mask-type:luminance" maskUnits="userSpaceOnUse" x="0" y="0" width="24" height="16">
<path d="M0 1.90735e-06H24V16H0V1.90735e-06Z" fill="white"/>
</mask>
<g mask="url(#mask40_110_734)">
<path d="M11.9189 4.68747L12.0389 4.74817L12.1569 4.68747L12.0359 4.63076L11.9189 4.68747Z" fill="#D4AF3A"/>
</g>
<mask id="mask41_110_734" style="mask-type:luminance" maskUnits="userSpaceOnUse" x="0" y="0" width="24" height="16">
<path d="M0 1.90735e-06H24V16H0V1.90735e-06Z" fill="white"/>
</mask>
<g mask="url(#mask41_110_734)">
<path d="M11.9565 4.30017C11.9905 4.26435 12.0175 4.22355 12.0365 4.17778C12.0555 4.22355 12.0815 4.26435 12.1165 4.30017C12.2135 4.06535 12.2245 3.77579 12.1545 3.50813C12.0755 3.5539 11.9965 3.5539 11.9175 3.50813C11.8475 3.77579 11.8585 4.06535 11.9565 4.30017Z" fill="#D4AF3A"/>
</g>
<mask id="mask42_110_734" style="mask-type:luminance" maskUnits="userSpaceOnUse" x="0" y="0" width="24" height="16">
<path d="M0 1.90735e-06H24V16H0V1.90735e-06Z" fill="white"/>
</mask>
<g mask="url(#mask42_110_734)">
<path d="M11.0514 11.9179C11.1694 11.8543 11.2714 11.7707 11.3554 11.6662C11.2784 11.6075 11.2604 11.4871 11.2844 11.3697C11.2324 11.4254 11.1694 11.4533 11.0944 11.4562L11.0794 11.3956C10.9474 11.5916 10.7604 11.7707 10.5634 11.8921C10.7184 12.0025 10.8804 12.0115 11.0514 11.9179Z" fill="#D4AF3A"/>
</g>
<mask id="mask43_110_734" style="mask-type:luminance" maskUnits="userSpaceOnUse" x="0" y="0" width="24" height="16">
<path d="M0 1.90735e-06H24V16H0V1.90735e-06Z" fill="white"/>
</mask>
<g mask="url(#mask43_110_734)">
<path d="M11.5958 11.8576C11.4808 11.8019 11.4488 11.7114 11.4988 11.583C11.4728 11.6198 11.4368 11.6437 11.3908 11.6536C11.3388 11.7074 10.7408 12.2905 10.9038 12.2795C11.2348 12.2556 11.3498 12.0198 11.5958 11.8576Z" fill="#D4AF3A"/>
</g>
<mask id="mask44_110_734" style="mask-type:luminance" maskUnits="userSpaceOnUse" x="0" y="0" width="24" height="16">
<path d="M0 1.90735e-06H24V16H0V1.90735e-06Z" fill="white"/>
</mask>
<g mask="url(#mask44_110_734)">
<path d="M11.8717 11.9479C11.8157 11.8584 11.7817 11.7618 11.7697 11.6564C11.7487 11.74 11.7037 11.8046 11.6307 11.8524C11.5457 11.9539 11.0317 12.2982 11.1457 12.4504C11.2877 12.6405 11.8947 11.928 11.8717 11.9479Z" fill="#D4AF3A"/>
</g>
<mask id="mask45_110_734" style="mask-type:luminance" maskUnits="userSpaceOnUse" x="0" y="0" width="24" height="16">
<path d="M0 1.90735e-06H24V16H0V1.90735e-06Z" fill="white"/>
</mask>
<g mask="url(#mask45_110_734)">
<path d="M11.9531 12.3668C12.0051 12.2902 12.0141 12.1021 12.0141 12.1021C11.9641 12.0703 11.9251 12.0275 11.8951 11.9737C11.7671 12.1598 11.3711 12.4454 11.5131 12.6911C11.5791 12.8076 12.0031 12.2931 11.9531 12.3668Z" fill="#D4AF3A"/>
</g>
<mask id="mask46_110_734" style="mask-type:luminance" maskUnits="userSpaceOnUse" x="0" y="0" width="24" height="16">
<path d="M0 1.90735e-06H24V16H0V1.90735e-06Z" fill="white"/>
</mask>
<g mask="url(#mask46_110_734)">
<path d="M11.1612 11.6507L11.1332 11.6337C11.0642 11.6934 10.9052 11.8706 10.9202 11.8417C11.0132 11.7969 11.0962 11.7312 11.1612 11.6507Z" fill="#B96B29"/>
</g>
<mask id="mask47_110_734" style="mask-type:luminance" maskUnits="userSpaceOnUse" x="0" y="0" width="24" height="16">
<path d="M0 1.90735e-06H24V16H0V1.90735e-06Z" fill="white"/>
</mask>
<g mask="url(#mask47_110_734)">
<path d="M11.3882 11.9179C11.4982 11.8005 11.1332 12.0702 11.1112 12.0901C11.2182 12.0582 11.3112 11.9995 11.3882 11.9179Z" fill="#B96B29"/>
</g>
<mask id="mask48_110_734" style="mask-type:luminance" maskUnits="userSpaceOnUse" x="0" y="0" width="24" height="16">
<path d="M0 1.90735e-06H24V16H0V1.90735e-06Z" fill="white"/>
</mask>
<g mask="url(#mask48_110_734)">
<path d="M11.6504 12.0987C11.6254 12.1494 11.2184 12.2748 11.4484 12.2429C11.5174 12.221 11.6174 12.1643 11.6504 12.0987Z" fill="#B96B29"/>
</g>
<mask id="mask49_110_734" style="mask-type:luminance" maskUnits="userSpaceOnUse" x="0" y="0" width="24" height="16">
<path d="M0 1.90735e-06H24V16H0V1.90735e-06Z" fill="white"/>
</mask>
<g mask="url(#mask49_110_734)">
<path d="M11.7726 12.3376C11.7306 12.3625 11.4746 12.6202 11.6676 12.4829C11.7606 12.4262 11.8376 12.3346 11.8676 12.2381C11.8676 12.2381 11.8186 12.3098 11.7726 12.3376Z" fill="#B96B29"/>
</g>
<mask id="mask50_110_734" style="mask-type:luminance" maskUnits="userSpaceOnUse" x="0" y="0" width="24" height="16">
<path d="M0 1.90735e-06H24V16H0V1.90735e-06Z" fill="white"/>
</mask>
<g mask="url(#mask50_110_734)">
<path d="M10.5372 5.64502C10.2792 5.49478 9.67022 5.7903 9.57922 5.40721C9.81622 5.91169 10.2582 5.48184 10.5372 5.64502Z" fill="#C52126"/>
</g>
<mask id="mask51_110_734" style="mask-type:luminance" maskUnits="userSpaceOnUse" x="0" y="0" width="24" height="16">
<path d="M0 1.90735e-06H24V16H0V1.90735e-06Z" fill="white"/>
</mask>
<g mask="url(#mask51_110_734)">
<path d="M10.048 10.538C9.93 10.4842 9.823 10.5041 9.729 10.6026C9.849 10.6355 9.956 10.6136 10.048 10.538Z" fill="#D4AF3A"/>
</g>
<mask id="mask52_110_734" style="mask-type:luminance" maskUnits="userSpaceOnUse" x="0" y="0" width="24" height="16">
<path d="M0 1.90735e-06H24V16H0V1.90735e-06Z" fill="white"/>
</mask>
<g mask="url(#mask52_110_734)">
<path d="M10.6172 10.5041V10.4832L10.5902 10.4255C10.5102 10.6543 10.3662 10.4981 10.1252 10.2583C10.0142 10.4324 10.0652 10.51 10.1342 11.0155C10.3882 10.9289 10.6172 10.7498 10.6172 10.5041Z" fill="#D4AF3A"/>
</g>
<mask id="mask53_110_734" style="mask-type:luminance" maskUnits="userSpaceOnUse" x="0" y="0" width="24" height="16">
<path d="M0 1.90735e-06H24V16H0V1.90735e-06Z" fill="white"/>
</mask>
<g mask="url(#mask53_110_734)">
<path d="M11.2242 10.0231C11.2142 10.0192 11.2042 10.0142 11.1942 10.0092C11.0742 10.0421 10.8382 10.2202 11.1392 9.98434C11.0612 9.94653 10.9762 9.90175 10.8942 9.84404C10.8642 9.91867 10.8092 9.96643 10.7322 9.9923C10.7892 9.94056 10.8242 9.87787 10.8382 9.80324C10.7812 9.75946 10.7272 9.70971 10.6782 9.652C10.5982 9.8928 10.4272 10.044 10.1652 10.1057C10.5112 10.2281 10.5932 10.4152 10.2252 10.2202C10.8682 10.5605 10.3722 10.1246 10.7162 10.7674C10.7352 10.8042 10.8542 10.4998 10.8612 10.4749C10.8202 10.5515 10.8082 10.6301 10.8262 10.7117C10.9462 10.5217 11.1882 10.2381 11.3742 10.0878C11.3272 10.0679 11.2772 10.046 11.2242 10.0231Z" fill="#D4AF3A"/>
</g>
<mask id="mask54_110_734" style="mask-type:luminance" maskUnits="userSpaceOnUse" x="0" y="0" width="24" height="16">
<path d="M0 1.90735e-06H24V16H0V1.90735e-06Z" fill="white"/>
</mask>
<g mask="url(#mask54_110_734)">
<path d="M8.90671 5.74222C8.98971 5.92829 9.07471 6.11337 9.16071 6.29745C9.08771 6.34123 8.79471 5.61188 8.72571 5.66461C8.43471 5.8875 9.05271 6.45665 9.00671 6.49048C8.95971 6.5263 8.58871 6.00292 8.58471 6.0069C8.40071 6.19098 8.89371 6.65964 8.86871 6.68451C8.73571 6.59297 8.61671 6.48551 8.51171 6.36212C8.42171 6.25168 8.74771 7.11536 8.80371 6.98401C8.67871 6.93227 8.56371 6.86362 8.45871 6.77804C8.91271 7.10043 8.83871 7.21088 8.47871 7.25665C8.45171 7.22083 8.88971 7.78799 8.91571 7.63675C8.90471 7.70242 8.59071 7.6059 8.59071 7.71237C8.59071 7.82083 9.01871 8.0258 9.04071 7.99496C8.94471 8.00292 8.85571 8.03178 8.77271 8.08153C8.66171 8.30242 9.30471 8.24471 9.31271 8.28153C9.22771 8.31735 9.13971 8.34521 9.04971 8.36312C8.87271 8.50939 9.59671 8.59894 9.57371 8.53725C9.49671 8.57804 9.42371 8.62481 9.35271 8.67556C9.28171 8.82879 9.80771 8.73725 9.80471 8.73426C9.82971 8.76013 9.56271 8.90541 9.55571 8.92133C9.47371 9.1064 10.1607 8.94123 10.1467 8.92431C10.1687 8.95118 9.92571 9.06163 9.92571 9.12431C9.92571 9.34521 10.4027 9.18302 10.4637 9.09048C10.4537 8.97605 10.4587 8.89844 10.4727 8.8268C9.72671 8.74819 9.10371 7.77904 9.02271 7.21486C8.82871 7.09546 8.79771 6.97207 8.99771 6.87357C9.06271 6.8268 9.13771 6.11834 9.52671 6.34023C9.30171 6.21187 9.20371 5.47158 9.03571 5.25566C8.93971 5.39993 8.89671 5.56212 8.90671 5.74222Z" fill="#D4AF3A"/>
</g>
<mask id="mask55_110_734" style="mask-type:luminance" maskUnits="userSpaceOnUse" x="0" y="0" width="24" height="16">
<path d="M0 1.90735e-06H24V16H0V1.90735e-06Z" fill="white"/>
</mask>
<g mask="url(#mask55_110_734)">
<path d="M10.5889 8.01447C10.4999 8.01049 9.87491 7.69308 9.85091 7.62541C9.70291 7.21646 10.0509 6.83138 9.64391 6.13984C9.47891 6.31298 9.37391 6.21248 9.25091 6.35477C9.24891 6.49109 9.29291 6.60651 9.38191 6.70402C9.32991 6.77765 8.99691 6.37367 8.96091 6.6891C8.92691 6.97367 9.17091 6.95377 9.20191 7.20452C9.20891 7.26621 9.24091 7.34382 9.29091 7.51696C9.33891 7.68412 9.89491 8.85029 10.4909 8.74681C10.5089 8.68014 10.5319 8.60949 10.5559 8.509C10.4259 8.61447 10.4989 8.54979 10.5719 8.43735C10.6019 8.29805 10.6199 8.15875 10.6269 8.01646L10.5889 8.01447Z" fill="#D4AF3A"/>
</g>
<mask id="mask56_110_734" style="mask-type:luminance" maskUnits="userSpaceOnUse" x="0" y="0" width="24" height="16">
<path d="M0 1.90735e-06H24V16H0V1.90735e-06Z" fill="white"/>
</mask>
<g mask="url(#mask56_110_734)">
<path d="M8.13369 6.23042C8.26169 6.48913 8.44369 6.6344 8.44369 6.6344C8.41169 6.56972 8.39969 6.50206 8.40669 6.43141C8.28269 6.28316 8.19669 6.114 8.14869 5.92594C8.21169 6.10007 8.30069 6.25828 8.41869 6.40057C8.43569 6.28913 8.47669 6.2941 8.53369 6.3538C8.35669 5.94783 8.12869 5.6941 8.03869 5.21947C8.11469 5.62047 7.79969 5.55679 8.13369 6.23042Z" fill="#D4AF3A"/>
</g>
<mask id="mask57_110_734" style="mask-type:luminance" maskUnits="userSpaceOnUse" x="0" y="0" width="24" height="16">
<path d="M0 1.90735e-06H24V16H0V1.90735e-06Z" fill="white"/>
</mask>
<g mask="url(#mask57_110_734)">
<path d="M8.29991 6.92767C8.34791 6.96249 8.41791 7.01025 8.41791 7.01025C8.39891 6.9615 8.38891 6.91075 8.38991 6.85802C8.17691 6.65005 7.93791 6.41125 8.39991 6.82617C8.25591 6.55055 7.98091 6.12866 7.75891 5.83911C7.75491 6.26697 7.94091 6.66399 8.29991 6.92767Z" fill="#D4AF3A"/>
</g>
<mask id="mask58_110_734" style="mask-type:luminance" maskUnits="userSpaceOnUse" x="0" y="0" width="24" height="16">
<path d="M0 1.90735e-06H24V16H0V1.90735e-06Z" fill="white"/>
</mask>
<g mask="url(#mask58_110_734)">
<path d="M9.25051 8.79381C9.58951 8.66347 8.88651 8.67242 8.90151 8.74406C9.03051 8.74008 9.15051 8.70128 9.26151 8.62864C9.18451 8.68038 8.42151 8.64854 8.31351 8.62466C8.69751 8.70625 8.62951 9.03362 9.25051 8.79381Z" fill="#D4AF3A"/>
</g>
<mask id="mask59_110_734" style="mask-type:luminance" maskUnits="userSpaceOnUse" x="0" y="0" width="24" height="16">
<path d="M0 1.90735e-06H24V16H0V1.90735e-06Z" fill="white"/>
</mask>
<g mask="url(#mask59_110_734)">
<path d="M8.80361 8.55671C8.97661 8.5587 9.04161 8.50696 9.04161 8.50696C9.01361 8.46516 8.99961 8.41939 8.99961 8.36865C8.50961 8.4771 8.79461 8.24029 8.79961 8.23531C8.52761 8.24725 8.25661 8.22636 7.99661 8.17163C8.17561 8.46815 8.44461 8.55372 8.80361 8.55671Z" fill="#D4AF3A"/>
</g>
<mask id="mask60_110_734" style="mask-type:luminance" maskUnits="userSpaceOnUse" x="0" y="0" width="24" height="16">
<path d="M0 1.90735e-06H24V16H0V1.90735e-06Z" fill="white"/>
</mask>
<g mask="url(#mask60_110_734)">
<path d="M8.75934 8.15259C8.73534 8.11776 8.73534 8.08294 8.76034 8.04612C8.73434 8.04115 8.23734 7.96851 8.24434 7.92473C8.23134 8.00632 8.76134 7.97647 8.85934 7.98642C8.63634 7.9108 7.79334 7.75756 7.75934 7.62821C7.89134 8.13567 8.40934 8.01428 8.75934 8.15259Z" fill="#D4AF3A"/>
</g>
<mask id="mask61_110_734" style="mask-type:luminance" maskUnits="userSpaceOnUse" x="0" y="0" width="24" height="16">
<path d="M0 1.90735e-06H24V16H0V1.90735e-06Z" fill="white"/>
</mask>
<g mask="url(#mask61_110_734)">
<path d="M8.04636 7.5686C8.25936 7.71785 8.50936 7.77258 8.56236 7.77954C8.85136 7.44422 8.04536 7.65914 8.11536 7.44521C8.07336 7.5686 8.89436 7.59845 8.48136 7.46312C8.35636 7.39646 7.68136 7.25914 7.64236 7.08999C7.71436 7.29596 7.84936 7.45516 8.04636 7.5686Z" fill="#D4AF3A"/>
</g>
<mask id="mask62_110_734" style="mask-type:luminance" maskUnits="userSpaceOnUse" x="0" y="0" width="24" height="16">
<path d="M0 1.90735e-06H24V16H0V1.90735e-06Z" fill="white"/>
</mask>
<g mask="url(#mask62_110_734)">
<path d="M8.01182 7.14826C8.29982 7.37513 8.46982 7.52538 8.44482 7.2816C7.99982 6.99901 7.93682 6.95224 8.44682 7.25772C8.45282 7.21194 8.47982 7.19204 8.52882 7.19901C8.38982 7.07762 7.66082 6.71841 7.67382 6.53931C7.67482 6.78209 7.78782 6.98508 8.01182 7.14826Z" fill="#D4AF3A"/>
</g>
<mask id="mask63_110_734" style="mask-type:luminance" maskUnits="userSpaceOnUse" x="0" y="0" width="24" height="16">
<path d="M0 1.90735e-06H24V16H0V1.90735e-06Z" fill="white"/>
</mask>
<g mask="url(#mask63_110_734)">
<path d="M8.75549 5.58287C8.79449 5.64855 8.83249 5.71422 8.86849 5.78088C8.84149 5.50725 8.77949 5.19481 8.78249 4.92616C8.78049 5.0575 8.87149 5.36297 8.89149 5.49631C8.92349 5.40576 8.95549 5.31521 8.98449 5.22566C8.90549 4.85651 8.85749 4.48238 8.84149 4.10526C8.57149 4.37491 8.58749 5.23561 8.75549 5.58287Z" fill="#D4AF3A"/>
</g>
<mask id="mask64_110_734" style="mask-type:luminance" maskUnits="userSpaceOnUse" x="0" y="0" width="24" height="16">
<path d="M0 1.90735e-06H24V16H0V1.90735e-06Z" fill="white"/>
</mask>
<g mask="url(#mask64_110_734)">
<path d="M8.51572 6.1377C8.51872 6.05809 8.53772 5.9974 8.58972 5.98048C8.51272 5.74665 8.43072 5.56257 8.41372 5.31083C8.43072 5.56755 8.56872 5.80038 8.65372 6.03123C8.63472 5.90287 8.64072 5.7765 8.67372 5.65113C8.51172 5.277 8.42072 4.87501 8.40572 4.46705C8.19072 5.00237 8.23972 5.6173 8.51572 6.1377Z" fill="#D4AF3A"/>
</g>
<mask id="mask65_110_734" style="mask-type:luminance" maskUnits="userSpaceOnUse" x="0" y="0" width="24" height="16">
<path d="M0 1.90735e-06H24V16H0V1.90735e-06Z" fill="white"/>
</mask>
<g mask="url(#mask65_110_734)">
<path d="M9.62349 9.07463C9.55249 9.04876 9.51949 8.99403 9.52549 8.91244C9.2465 9.06966 9.1525 9.11145 9.54449 8.85374C9.47549 8.85473 9.40749 8.84478 9.34149 8.8209C9.1395 8.94926 8.9195 9.03384 8.6825 9.07463C8.6825 9.07463 8.7045 9.18309 8.8075 9.2199C9.0985 9.27662 9.37049 9.22786 9.62349 9.07463Z" fill="#D4AF3A"/>
</g>
<mask id="mask66_110_734" style="mask-type:luminance" maskUnits="userSpaceOnUse" x="0" y="0" width="24" height="16">
<path d="M0 1.90735e-06H24V16H0V1.90735e-06Z" fill="white"/>
</mask>
<g mask="url(#mask66_110_734)">
<path d="M9.90367 9.2924C9.92167 9.20284 9.86967 9.14115 9.86967 9.14115C9.72867 9.24663 9.41367 9.48543 9.83667 9.12125C9.60967 9.19687 9.31867 9.31031 9.09067 9.40981C9.38867 9.60384 9.65967 9.56503 9.90367 9.2924Z" fill="#D4AF3A"/>
</g>
<mask id="mask67_110_734" style="mask-type:luminance" maskUnits="userSpaceOnUse" x="0" y="0" width="24" height="16">
<path d="M0 1.90735e-06H24V16H0V1.90735e-06Z" fill="white"/>
</mask>
<g mask="url(#mask67_110_734)">
<path d="M10.4545 9.18831C10.3985 9.26493 10.3205 9.30572 10.2205 9.30771C10.0065 9.52363 9.88353 9.63508 10.1435 9.31866C9.94853 9.33358 9.80053 9.46493 9.73053 9.66095C10.1005 9.74055 10.3555 9.56542 10.4545 9.18831Z" fill="#D4AF3A"/>
</g>
<mask id="mask68_110_734" style="mask-type:luminance" maskUnits="userSpaceOnUse" x="0" y="0" width="24" height="16">
<path d="M0 1.90735e-06H24V16H0V1.90735e-06Z" fill="white"/>
</mask>
<g mask="url(#mask68_110_734)">
<path d="M10.5234 9.53719C10.4914 9.57898 10.4744 9.59689 10.4744 9.59689C10.4884 9.54316 10.5124 9.49441 10.5454 9.45162C10.5234 9.40286 10.5064 9.35112 10.4934 9.2964C10.3764 9.67351 10.5204 9.98794 10.6074 9.56505C10.5924 9.54316 10.5794 9.52028 10.5664 9.4964C10.5564 9.50336 10.5414 9.5153 10.5234 9.53719Z" fill="#D4AF3A"/>
</g>
<mask id="mask69_110_734" style="mask-type:luminance" maskUnits="userSpaceOnUse" x="0" y="0" width="24" height="16">
<path d="M0 1.90735e-06H24V16H0V1.90735e-06Z" fill="white"/>
</mask>
<g mask="url(#mask69_110_734)">
<path d="M10.3793 5.16843C10.5303 5.12166 10.6723 5.15151 10.8063 5.25599C11.0913 5.38435 11.2773 5.27291 11.3363 5.00326C11.2323 5.07888 11.1023 5.11868 10.9823 5.11072C11.0013 5.12564 10.4353 5.16744 10.3793 5.16843Z" fill="#D4AF3A"/>
</g>
<mask id="mask70_110_734" style="mask-type:luminance" maskUnits="userSpaceOnUse" x="0" y="0" width="24" height="16">
<path d="M0 1.90735e-06H24V16H0V1.90735e-06Z" fill="white"/>
</mask>
<g mask="url(#mask70_110_734)">
<path d="M11.919 6.3174C11.683 6.25372 11.526 6.08059 11.679 5.88656C11.499 5.83084 11.334 5.71143 11.382 5.55322C11.29 5.49452 11.205 5.42586 11.128 5.34825C10.948 5.38606 10.776 5.36317 10.614 5.27959C10.536 5.39302 10.463 5.39203 10.413 5.2388C10.244 5.25969 9.88998 4.95223 9.88998 5.39601C9.88998 5.25273 10.477 5.53034 10.573 5.63084C10.521 5.78208 10.416 5.81292 10.258 5.72437C10.41 5.64875 10.846 5.91044 10.879 6.14924C11.107 6.0786 11.103 6.10248 11.042 6.46367L11.065 6.46168C11.224 6.43482 11.333 6.73929 11.384 6.90845C11.451 6.70745 11.462 6.48656 11.419 6.27661C11.616 6.47661 11.817 6.52735 11.919 6.3174Z" fill="#D4AF3A"/>
</g>
<mask id="mask71_110_734" style="mask-type:luminance" maskUnits="userSpaceOnUse" x="0" y="0" width="24" height="16">
<path d="M0 1.90735e-06H24V16H0V1.90735e-06Z" fill="white"/>
</mask>
<g mask="url(#mask71_110_734)">
<path d="M11.1372 6.67757C11.1202 6.73229 11.0922 6.77906 11.0532 6.81787C11.1102 6.85667 11.1732 6.88155 11.2412 6.8905C11.1912 6.82682 11.1562 6.75617 11.1372 6.67757Z" fill="#D4AF3A"/>
</g>
<mask id="mask72_110_734" style="mask-type:luminance" maskUnits="userSpaceOnUse" x="0" y="0" width="24" height="16">
<path d="M0 1.90735e-06H24V16H0V1.90735e-06Z" fill="white"/>
</mask>
<g mask="url(#mask72_110_734)">
<path d="M11.851 6.63084C11.833 6.58607 11.823 6.56119 11.823 6.56119C11.75 6.57612 11.611 6.54129 11.551 6.50547C11.587 6.59104 11.644 6.65473 11.723 6.69453C11.608 6.66468 11.53 6.59204 11.489 6.47761C11.505 6.62985 11.489 6.77711 11.44 6.9194C11.62 6.93632 11.791 6.90846 11.954 6.83582C11.947 6.75721 11.913 6.68955 11.851 6.63084Z" fill="#D4AF3A"/>
</g>
<mask id="mask73_110_734" style="mask-type:luminance" maskUnits="userSpaceOnUse" x="0" y="0" width="24" height="16">
<path d="M0 1.90735e-06H24V16H0V1.90735e-06Z" fill="white"/>
</mask>
<g mask="url(#mask73_110_734)">
<path d="M11.5372 6.21C11.4842 6.14931 11.4792 6.13438 11.4792 6.13438C11.5112 6.23388 11.6072 6.31249 11.7232 6.33936L11.7212 6.32941C11.7212 6.32941 11.5902 6.2707 11.5372 6.21Z" fill="#B96B29"/>
</g>
<mask id="mask74_110_734" style="mask-type:luminance" maskUnits="userSpaceOnUse" x="0" y="0" width="24" height="16">
<path d="M0 1.90735e-06H24V16H0V1.90735e-06Z" fill="white"/>
</mask>
<g mask="url(#mask74_110_734)">
<path d="M11.3263 6.6094C11.3783 6.44323 11.3713 6.31089 11.2643 6.31885C11.2643 6.33278 11.2983 6.71288 11.3503 6.70293C11.3313 6.69298 11.3273 6.62035 11.3263 6.6094Z" fill="#B96B29"/>
</g>
<mask id="mask75_110_734" style="mask-type:luminance" maskUnits="userSpaceOnUse" x="0" y="0" width="24" height="16">
<path d="M0 1.90735e-06H24V16H0V1.90735e-06Z" fill="white"/>
</mask>
<g mask="url(#mask75_110_734)">
<path d="M11.0001 5.5678C11.3371 5.90213 10.5561 5.61656 11.2041 6.00562C11.1901 5.83248 11.1221 5.68621 11.0001 5.5678Z" fill="#B96B29"/>
</g>
<mask id="mask76_110_734" style="mask-type:luminance" maskUnits="userSpaceOnUse" x="0" y="0" width="24" height="16">
<path d="M0 1.90735e-06H24V16H0V1.90735e-06Z" fill="white"/>
</mask>
<g mask="url(#mask76_110_734)">
<path d="M11.3164 4.81519L11.4284 4.73558L11.2964 4.70175L11.2114 4.76941L11.3164 4.81519Z" fill="#D4AF3A"/>
</g>
<mask id="mask77_110_734" style="mask-type:luminance" maskUnits="userSpaceOnUse" x="0" y="0" width="24" height="16">
<path d="M0 1.90735e-06H24V16H0V1.90735e-06Z" fill="white"/>
</mask>
<g mask="url(#mask77_110_734)">
<path d="M11.4521 4.36824C11.4801 4.37819 11.5151 4.37421 11.5151 4.37421C11.5061 4.30954 11.4731 4.26277 11.4161 4.22795C11.4031 4.28068 11.4151 4.32745 11.4521 4.36824Z" fill="#D4AF3A"/>
</g>
<mask id="mask78_110_734" style="mask-type:luminance" maskUnits="userSpaceOnUse" x="0" y="0" width="24" height="16">
<path d="M0 1.90735e-06H24V16H0V1.90735e-06Z" fill="white"/>
</mask>
<g mask="url(#mask78_110_734)">
<path d="M11.3628 4.40032C11.3548 4.41226 11.3368 4.43017 11.3368 4.43017C11.5728 4.45803 11.3758 4.38241 11.3628 4.40032Z" fill="#D4AF3A"/>
</g>
<mask id="mask79_110_734" style="mask-type:luminance" maskUnits="userSpaceOnUse" x="0" y="0" width="24" height="16">
<path d="M0 1.90735e-06H24V16H0V1.90735e-06Z" fill="white"/>
</mask>
<g mask="url(#mask79_110_734)">
<path d="M11.4381 4.52516C11.3711 4.53113 11.2811 4.45651 11.2811 4.45651C11.2731 4.51621 11.2361 4.54705 11.1801 4.55899C11.3281 4.63064 11.4491 4.60576 11.5111 4.46944C11.5111 4.46944 11.5051 4.51919 11.4381 4.52516Z" fill="#D4AF3A"/>
</g>
<mask id="mask80_110_734" style="mask-type:luminance" maskUnits="userSpaceOnUse" x="0" y="0" width="24" height="16">
<path d="M0 1.90735e-06H24V16H0V1.90735e-06Z" fill="white"/>
</mask>
<g mask="url(#mask80_110_734)">
<path d="M10.9645 4.34384C10.9345 4.32195 10.9075 4.31598 10.9075 4.31598C10.9695 4.4732 11.0485 4.40355 10.9645 4.34384Z" fill="#D4AF3A"/>
</g>
<mask id="mask81_110_734" style="mask-type:luminance" maskUnits="userSpaceOnUse" x="0" y="0" width="24" height="16">
<path d="M0 1.90735e-06H24V16H0V1.90735e-06Z" fill="white"/>
</mask>
<g mask="url(#mask81_110_734)">
<path d="M11.0567 4.23219C11.0387 3.99736 11.1387 3.83816 11.3547 3.75358C11.4087 3.68492 11.4727 3.6292 11.5487 3.58343C11.5487 3.58343 11.4377 3.6103 11.3757 3.6302C11.3757 3.67099 11.2957 3.72373 11.2567 3.69686C11.2237 3.70283 11.1097 3.77049 11.0807 3.79438C11.1107 3.84313 11.0327 3.9297 10.9817 3.90283C10.9557 3.94661 10.9337 3.99338 10.9187 4.04313C10.9707 4.09786 10.9597 4.14562 10.8867 4.18542C10.8797 4.25905 10.9867 4.34761 11.0437 4.37646C11.0487 4.37646 11.0787 4.31975 11.0567 4.23219Z" fill="#D4AF3A"/>
</g>
<mask id="mask82_110_734" style="mask-type:luminance" maskUnits="userSpaceOnUse" x="0" y="0" width="24" height="16">
<path d="M0 1.90735e-06H24V16H0V1.90735e-06Z" fill="white"/>
</mask>
<g mask="url(#mask82_110_734)">
<path d="M11.8141 3.49378C11.7921 3.49875 11.7501 3.51268 11.6881 3.54453C11.7931 3.78234 11.6061 3.60622 11.6151 3.58532C11.3181 3.76841 11.0971 4.39129 11.3881 4.18532C11.4401 4.21318 11.4891 4.25398 11.5261 4.30273C11.5701 4.16642 11.8141 3.49378 11.8141 3.49378Z" fill="#D4AF3A"/>
</g>
<mask id="mask83_110_734" style="mask-type:luminance" maskUnits="userSpaceOnUse" x="0" y="0" width="24" height="16">
<path d="M0 1.90735e-06H24V16H0V1.90735e-06Z" fill="white"/>
</mask>
<g mask="url(#mask83_110_734)">
<path d="M11.8828 4.44982C11.9648 4.48265 12.0338 4.37021 11.8398 4.41997C11.8398 4.41997 11.8488 4.43688 11.8828 4.44982Z" fill="#D4AF3A"/>
</g>
<mask id="mask84_110_734" style="mask-type:luminance" maskUnits="userSpaceOnUse" x="0" y="0" width="24" height="16">
<path d="M0 1.90735e-06H24V16H0V1.90735e-06Z" fill="white"/>
</mask>
<g mask="url(#mask84_110_734)">
<path d="M11.9897 4.4872C11.9357 4.56979 11.8187 4.48521 11.7887 4.43546L11.7467 4.43447C11.4887 4.50909 11.5307 4.55088 11.9357 4.55188C12.0107 4.5081 12.0107 4.45536 11.9897 4.4872Z" fill="#D4AF3A"/>
</g>
<mask id="mask85_110_734" style="mask-type:luminance" maskUnits="userSpaceOnUse" x="0" y="0" width="24" height="16">
<path d="M0 1.90735e-06H24V16H0V1.90735e-06Z" fill="white"/>
</mask>
<g mask="url(#mask85_110_734)">
<path d="M11.5853 4.4426C11.6323 4.45653 11.6633 4.44459 11.6783 4.40777C11.6413 4.3829 11.5943 4.36897 11.5533 4.36897C11.5533 4.36897 11.5453 4.42071 11.5853 4.4426Z" fill="#D4AF3A"/>
</g>
<mask id="mask86_110_734" style="mask-type:luminance" maskUnits="userSpaceOnUse" x="0" y="0" width="24" height="16">
<path d="M0 1.90735e-06H24V16H0V1.90735e-06Z" fill="white"/>
</mask>
<g mask="url(#mask86_110_734)">
<path d="M10.1548 10.5886C10.0818 10.6324 10.0038 10.6612 9.92077 10.6771C9.77077 10.7189 8.48477 10.9737 8.71877 11.2015C8.61177 11.097 9.48877 11.4244 9.05977 11.2105L9.07677 11.2423C9.17577 11.0562 9.20577 11.1896 9.21377 11.3667C9.25277 11.3945 9.26077 11.4324 9.23877 11.4791C9.29377 11.3329 9.35777 11.2493 9.41777 11.4244C9.74277 11.2035 9.99677 10.9209 10.1548 10.5886Z" fill="#D4AF3A"/>
</g>
<mask id="mask87_110_734" style="mask-type:luminance" maskUnits="userSpaceOnUse" x="0" y="0" width="24" height="16">
<path d="M0 1.90735e-06H24V16H0V1.90735e-06Z" fill="white"/>
</mask>
<g mask="url(#mask87_110_734)">
<path d="M7.96302 8.14374C7.93602 7.86514 7.63002 8.02832 7.65702 8.29996C7.73002 8.34374 7.82402 8.38056 7.92402 8.38354C7.63302 8.07807 7.97702 8.30792 7.96302 8.14275V8.14374Z" fill="#D4AF3A"/>
</g>
<mask id="mask88_110_734" style="mask-type:luminance" maskUnits="userSpaceOnUse" x="0" y="0" width="24" height="16">
<path d="M0 1.90735e-06H24V16H0V1.90735e-06Z" fill="white"/>
</mask>
<g mask="url(#mask88_110_734)">
<path d="M8.90421 11.6158C9.11121 11.3043 9.13021 11.363 8.64321 11.4486C8.61621 11.5242 8.79921 11.773 8.90421 11.6158Z" fill="#D4AF3A"/>
</g>
<mask id="mask89_110_734" style="mask-type:luminance" maskUnits="userSpaceOnUse" x="0" y="0" width="24" height="16">
<path d="M0 1.90735e-06H24V16H0V1.90735e-06Z" fill="white"/>
</mask>
<g mask="url(#mask89_110_734)">
<path d="M9.31055 11.6555C9.42555 11.5789 8.90355 11.6207 8.80955 11.7003C8.76955 11.7331 9.23555 11.7052 9.31055 11.6555Z" fill="#D4AF3A"/>
</g>
<mask id="mask90_110_734" style="mask-type:luminance" maskUnits="userSpaceOnUse" x="0" y="0" width="24" height="16">
<path d="M0 1.90735e-06H24V16H0V1.90735e-06Z" fill="white"/>
</mask>
<g mask="url(#mask90_110_734)">
<path d="M9.31063 11.5039C9.39263 11.5765 9.35663 11.3924 9.34263 11.3705C9.30863 11.4123 9.29763 11.4571 9.31063 11.5039Z" fill="#D4AF3A"/>
</g>
<mask id="mask91_110_734" style="mask-type:luminance" maskUnits="userSpaceOnUse" x="0" y="0" width="24" height="16">
<path d="M0 1.90735e-06H24V16H0V1.90735e-06Z" fill="white"/>
</mask>
<g mask="url(#mask91_110_734)">
<path d="M9.17526 11.2736C9.17526 11.2299 9.14526 11.1761 9.14526 11.1761C9.13326 11.2249 9.11226 11.2677 9.08026 11.3045C9.12526 11.3323 9.15726 11.3224 9.17526 11.2736Z" fill="#D4AF3A"/>
</g>
<mask id="mask92_110_734" style="mask-type:luminance" maskUnits="userSpaceOnUse" x="0" y="0" width="24" height="16">
<path d="M0 1.90735e-06H24V16H0V1.90735e-06Z" fill="white"/>
</mask>
<g mask="url(#mask92_110_734)">
<path d="M8.92469 11.366C9.07669 11.3332 9.04969 11.2356 8.94969 11.1869C8.94669 11.1899 8.82369 11.3879 8.92469 11.366Z" fill="#D4AF3A"/>
</g>
<mask id="mask93_110_734" style="mask-type:luminance" maskUnits="userSpaceOnUse" x="0" y="0" width="24" height="16">
<path d="M0 1.90735e-06H24V16H0V1.90735e-06Z" fill="white"/>
</mask>
<g mask="url(#mask93_110_734)">
<path d="M9.01949 11.1542C9.01649 11.1174 9.00049 11.0895 8.97249 11.0686C8.97149 11.0935 8.96749 11.1184 8.96149 11.1422C8.97749 11.1631 8.99649 11.1671 9.01949 11.1532V11.1542Z" fill="#D4AF3A"/>
</g>
<mask id="mask94_110_734" style="mask-type:luminance" maskUnits="userSpaceOnUse" x="0" y="0" width="24" height="16">
<path d="M0 1.90735e-06H24V16H0V1.90735e-06Z" fill="white"/>
</mask>
<g mask="url(#mask94_110_734)">
<path d="M8.44183 9.9706L8.47383 9.77458C8.41283 9.27109 8.06083 8.89298 8.03383 8.37657C7.98283 8.32184 7.94483 8.39746 7.91983 8.48701C7.97783 8.34274 8.01983 10.1567 8.44183 9.9706Z" fill="#D4AF3A"/>
</g>
<mask id="mask95_110_734" style="mask-type:luminance" maskUnits="userSpaceOnUse" x="0" y="0" width="24" height="16">
<path d="M0 1.90735e-06H24V16H0V1.90735e-06Z" fill="white"/>
</mask>
<g mask="url(#mask95_110_734)">
<path d="M8.56456 10.3166C8.32856 10.4479 8.67756 10.8479 8.75756 10.8877C8.84256 10.7693 8.75456 10.2111 8.56456 10.3166Z" fill="#D4AF3A"/>
</g>
<mask id="mask96_110_734" style="mask-type:luminance" maskUnits="userSpaceOnUse" x="0" y="0" width="24" height="16">
<path d="M0 1.90735e-06H24V16H0V1.90735e-06Z" fill="white"/>
</mask>
<g mask="url(#mask96_110_734)">
<path d="M9.49842 11.9141C9.28042 11.8753 9.11242 11.5489 9.20342 12.0235C9.21242 12.1469 9.27942 12.0275 9.32042 11.9469C9.37342 11.9638 9.53742 11.921 9.49842 11.9131V11.9141Z" fill="#D4AF3A"/>
</g>
<mask id="mask97_110_734" style="mask-type:luminance" maskUnits="userSpaceOnUse" x="0" y="0" width="24" height="16">
<path d="M0 1.90735e-06H24V16H0V1.90735e-06Z" fill="white"/>
</mask>
<g mask="url(#mask97_110_734)">
<path d="M9.34516 12.014C9.27116 12.0011 9.29416 12.0866 9.32416 12.1145C9.38916 12.1185 9.38516 12.0737 9.34516 12.014Z" fill="#D4AF3A"/>
</g>
<mask id="mask98_110_734" style="mask-type:luminance" maskUnits="userSpaceOnUse" x="0" y="0" width="24" height="16">
<path d="M0 1.90735e-06H24V16H0V1.90735e-06Z" fill="white"/>
</mask>
<g mask="url(#mask98_110_734)">
<path d="M15.8672 10.7596C15.8252 10.7486 15.8062 10.7337 15.8062 10.7337C15.7712 10.7586 15.7382 10.7855 15.7072 10.8173C15.6942 11.1417 15.8492 10.7556 15.8662 10.7596H15.8672Z" fill="#1D5E91"/>
</g>
<mask id="mask99_110_734" style="mask-type:luminance" maskUnits="userSpaceOnUse" x="0" y="0" width="24" height="16">
<path d="M0 1.90735e-06H24V16H0V1.90735e-06Z" fill="white"/>
</mask>
<g mask="url(#mask99_110_734)">
<path d="M15.9843 10.3485C15.9573 10.2341 15.8823 10.0918 15.7393 10.0211C15.4793 10.5764 15.9433 10.1754 15.9843 10.3475V10.3485Z" fill="#1D5E91"/>
</g>
<mask id="mask100_110_734" style="mask-type:luminance" maskUnits="userSpaceOnUse" x="0" y="0" width="24" height="16">
<path d="M0 1.90735e-06H24V16H0V1.90735e-06Z" fill="white"/>
</mask>
<g mask="url(#mask100_110_734)">
<path d="M15.3009 10.2417C15.3799 10.1541 15.4179 10.0457 15.4139 9.91633C15.2089 9.90538 15.0519 9.98498 14.9419 10.1541C15.0599 10.188 15.1799 10.2178 15.3009 10.2407V10.2417Z" fill="#1D5E91"/>
</g>
<mask id="mask101_110_734" style="mask-type:luminance" maskUnits="userSpaceOnUse" x="0" y="0" width="24" height="16">
<path d="M0 1.90735e-06H24V16H0V1.90735e-06Z" fill="white"/>
</mask>
<g mask="url(#mask101_110_734)">
<path d="M14.9493 10.5527C14.8953 10.5427 14.8763 10.5367 14.8763 10.5367C15.0173 10.8691 15.2253 10.9218 15.4543 10.6482C15.2833 10.6263 15.1153 10.5954 14.9483 10.5527H14.9493Z" fill="#1D5E91"/>
</g>
<mask id="mask102_110_734" style="mask-type:luminance" maskUnits="userSpaceOnUse" x="0" y="0" width="24" height="16">
<path d="M0 1.90735e-06H24V16H0V1.90735e-06Z" fill="white"/>
</mask>
<g mask="url(#mask102_110_734)">
<path d="M14.9141 10.4711C15.1711 10.5308 15.3861 10.6223 15.5941 10.4969C15.4981 10.4392 15.9071 10.7039 15.9521 10.6323C15.9461 10.6412 15.7401 10.0611 15.7051 9.9835C15.6431 9.94569 15.5551 9.9218 15.4501 9.91086C15.4331 10.274 15.2431 10.3546 14.9111 10.1895C14.8701 10.2541 14.7981 10.4472 14.9131 10.4721L14.9141 10.4711Z" fill="#D4AF3A"/>
</g>
<mask id="mask103_110_734" style="mask-type:luminance" maskUnits="userSpaceOnUse" x="0" y="0" width="24" height="16">
<path d="M0 1.90735e-06H24V16H0V1.90735e-06Z" fill="white"/>
</mask>
<g mask="url(#mask103_110_734)">
<path d="M16.0459 10.7294C15.9629 10.6757 15.7979 11.0498 15.6469 11.0399C15.3419 11.018 15.8359 10.7443 15.6889 10.618C16.0109 10.8946 14.1639 10.8528 14.6979 10.4767C14.5509 10.5802 14.8649 11.0428 14.7959 11.0468C14.5519 11.0598 14.4229 10.6946 14.2219 10.6896C14.1209 10.6876 14.0219 10.6468 13.9219 10.5792C13.9689 10.6697 13.9949 10.7662 13.9999 10.8667C14.6569 11.3682 16.1629 10.808 16.0459 10.7304V10.7294Z" fill="#D4AF3A"/>
</g>
<mask id="mask104_110_734" style="mask-type:luminance" maskUnits="userSpaceOnUse" x="0" y="0" width="24" height="16">
<path d="M0 1.90735e-06H24V16H0V1.90735e-06Z" fill="white"/>
</mask>
<g mask="url(#mask104_110_734)">
<path d="M15.4717 9.70531C15.5007 9.70133 15.7167 10.0516 15.8187 9.6884C15.8587 9.54511 15.4987 9.45855 15.4487 9.6884C15.4427 9.7083 15.4537 9.7073 15.4697 9.70432L15.4717 9.70531Z" fill="#D4AF3A"/>
</g>
<mask id="mask105_110_734" style="mask-type:luminance" maskUnits="userSpaceOnUse" x="0" y="0" width="24" height="16">
<path d="M0 1.90735e-06H24V16H0V1.90735e-06Z" fill="white"/>
</mask>
<g mask="url(#mask105_110_734)">
<path d="M15.6319 10.4263C15.6689 10.5865 15.6759 10.6144 15.6319 10.4263V10.4263Z" fill="#D4AF3A"/>
</g>
<mask id="mask106_110_734" style="mask-type:luminance" maskUnits="userSpaceOnUse" x="0" y="0" width="24" height="16">
<path d="M0 1.90735e-06H24V16H0V1.90735e-06Z" fill="white"/>
</mask>
<g mask="url(#mask106_110_734)">
<path d="M15.9824 10.6556C15.9024 10.4825 16.0414 10.786 15.9824 10.6556V10.6556Z" fill="#D4AF3A"/>
</g>
<mask id="mask107_110_734" style="mask-type:luminance" maskUnits="userSpaceOnUse" x="0" y="0" width="24" height="16">
<path d="M0 1.90735e-06H24V16H0V1.90735e-06Z" fill="white"/>
</mask>
<g mask="url(#mask107_110_734)">
<path d="M14.7598 10.4244C14.7708 10.4264 14.8078 10.4384 14.8078 10.4384C14.8258 10.1209 14.7738 10.4264 14.7598 10.4234V10.4244Z" fill="#D4AF3A"/>
</g>
<mask id="mask108_110_734" style="mask-type:luminance" maskUnits="userSpaceOnUse" x="0" y="0" width="24" height="16">
<path d="M0 1.90735e-06H24V16H0V1.90735e-06Z" fill="white"/>
</mask>
<g mask="url(#mask108_110_734)">
<path d="M13.0214 11.9179C12.9034 11.8543 12.8014 11.7707 12.7164 11.6662C12.7944 11.6075 12.8124 11.4871 12.7884 11.3697C12.8394 11.4254 12.9034 11.4533 12.9774 11.4562L12.9934 11.3956C13.1254 11.5916 13.3124 11.7707 13.5084 11.8921C13.3544 12.0025 13.1924 12.0115 13.0214 11.9179Z" fill="#D4AF3A"/>
</g>
<mask id="mask109_110_734" style="mask-type:luminance" maskUnits="userSpaceOnUse" x="0" y="0" width="24" height="16">
<path d="M0 1.90735e-06H24V16H0V1.90735e-06Z" fill="white"/>
</mask>
<g mask="url(#mask109_110_734)">
<path d="M12.4766 11.8576C12.5916 11.8019 12.6236 11.7114 12.5736 11.583C12.5996 11.6198 12.6356 11.6437 12.6816 11.6536C12.7336 11.7074 13.3316 12.2905 13.1686 12.2795C12.8376 12.2556 12.7226 12.0198 12.4766 11.8576Z" fill="#D4AF3A"/>
</g>
<mask id="mask110_110_734" style="mask-type:luminance" maskUnits="userSpaceOnUse" x="0" y="0" width="24" height="16">
<path d="M0 1.90735e-06H24V16H0V1.90735e-06Z" fill="white"/>
</mask>
<g mask="url(#mask110_110_734)">
<path d="M12.2013 11.9479C12.2573 11.8584 12.2913 11.7618 12.3033 11.6564C12.3233 11.74 12.3693 11.8046 12.4423 11.8524C12.5263 11.9539 13.0413 12.2982 12.9273 12.4504C12.7853 12.6405 12.1783 11.928 12.2013 11.9479Z" fill="#D4AF3A"/>
</g>
<mask id="mask111_110_734" style="mask-type:luminance" maskUnits="userSpaceOnUse" x="0" y="0" width="24" height="16">
<path d="M0 1.90735e-06H24V16H0V1.90735e-06Z" fill="white"/>
</mask>
<g mask="url(#mask111_110_734)">
<path d="M12.119 12.3668C12.067 12.2902 12.058 12.1021 12.058 12.1021C12.108 12.0703 12.147 12.0275 12.177 11.9737C12.306 12.1598 12.701 12.4454 12.559 12.6911C12.493 12.8076 12.069 12.2931 12.119 12.3668Z" fill="#D4AF3A"/>
</g>
<mask id="mask112_110_734" style="mask-type:luminance" maskUnits="userSpaceOnUse" x="0" y="0" width="24" height="16">
<path d="M0 1.90735e-06H24V16H0V1.90735e-06Z" fill="white"/>
</mask>
<g mask="url(#mask112_110_734)">
<path d="M12.9112 11.6507L12.9392 11.6337C13.0082 11.6934 13.1682 11.8706 13.1522 11.8417C13.0592 11.7969 12.9762 11.7312 12.9112 11.6507Z" fill="#B96B29"/>
</g>
<mask id="mask113_110_734" style="mask-type:luminance" maskUnits="userSpaceOnUse" x="0" y="0" width="24" height="16">
<path d="M0 1.90735e-06H24V16H0V1.90735e-06Z" fill="white"/>
</mask>
<g mask="url(#mask113_110_734)">
<path d="M12.6846 11.9179C12.5746 11.8005 12.9396 12.0702 12.9616 12.0901C12.8546 12.0582 12.7606 11.9995 12.6846 11.9179Z" fill="#B96B29"/>
</g>
<mask id="mask114_110_734" style="mask-type:luminance" maskUnits="userSpaceOnUse" x="0" y="0" width="24" height="16">
<path d="M0 1.90735e-06H24V16H0V1.90735e-06Z" fill="white"/>
</mask>
<g mask="url(#mask114_110_734)">
<path d="M12.4219 12.0987C12.4469 12.1494 12.8539 12.2748 12.6239 12.2429C12.5559 12.221 12.4549 12.1643 12.4219 12.0987Z" fill="#B96B29"/>
</g>
<mask id="mask115_110_734" style="mask-type:luminance" maskUnits="userSpaceOnUse" x="0" y="0" width="24" height="16">
<path d="M0 1.90735e-06H24V16H0V1.90735e-06Z" fill="white"/>
</mask>
<g mask="url(#mask115_110_734)">
<path d="M12.3007 12.3376C12.3417 12.3625 12.5987 12.6202 12.4047 12.4829C12.3117 12.4262 12.2357 12.3346 12.2047 12.2381C12.2047 12.2381 12.2537 12.3098 12.3007 12.3376Z" fill="#B96B29"/>
</g>
<mask id="mask116_110_734" style="mask-type:luminance" maskUnits="userSpaceOnUse" x="0" y="0" width="24" height="16">
<path d="M0 1.90735e-06H24V16H0V1.90735e-06Z" fill="white"/>
</mask>
<g mask="url(#mask116_110_734)">
<path d="M13.5353 5.64502C13.7933 5.49478 14.4023 5.7903 14.4943 5.40721C14.2563 5.91169 13.8143 5.48184 13.5353 5.64502Z" fill="#C52126"/>
</g>
<mask id="mask117_110_734" style="mask-type:luminance" maskUnits="userSpaceOnUse" x="0" y="0" width="24" height="16">
<path d="M0 1.90735e-06H24V16H0V1.90735e-06Z" fill="white"/>
</mask>
<g mask="url(#mask117_110_734)">
<path d="M14.0244 10.538C14.1424 10.4842 14.2494 10.5041 14.3434 10.6026C14.2234 10.6355 14.1174 10.6136 14.0244 10.538Z" fill="#D4AF3A"/>
</g>
<mask id="mask118_110_734" style="mask-type:luminance" maskUnits="userSpaceOnUse" x="0" y="0" width="24" height="16">
<path d="M0 1.90735e-06H24V16H0V1.90735e-06Z" fill="white"/>
</mask>
<g mask="url(#mask118_110_734)">
<path d="M13.4552 10.5041V10.4832L13.4822 10.4255C13.5622 10.6543 13.7062 10.4981 13.9472 10.2583C14.0592 10.4324 14.0082 10.51 13.9382 11.0155C13.6842 10.9289 13.4552 10.7498 13.4552 10.5041Z" fill="#D4AF3A"/>
</g>
<mask id="mask119_110_734" style="mask-type:luminance" maskUnits="userSpaceOnUse" x="0" y="0" width="24" height="16">
<path d="M0 1.90735e-06H24V16H0V1.90735e-06Z" fill="white"/>
</mask>
<g mask="url(#mask119_110_734)">
<path d="M12.8486 10.0231C12.8586 10.0192 12.8686 10.0142 12.8776 10.0092C12.9976 10.0421 13.2346 10.2202 12.9336 9.98434C13.0116 9.94653 13.0966 9.90175 13.1776 9.84404C13.2086 9.91867 13.2626 9.96643 13.3396 9.9923C13.2836 9.94056 13.2476 9.87787 13.2346 9.80324C13.2906 9.75946 13.3456 9.70971 13.3946 9.652C13.4746 9.8928 13.6456 10.044 13.9076 10.1057C13.5616 10.2281 13.4796 10.4152 13.8466 10.2202C13.2046 10.5605 13.7006 10.1246 13.3576 10.7674C13.3376 10.8042 13.2186 10.4998 13.2116 10.4749C13.2516 10.5515 13.2636 10.6301 13.2466 10.7117C13.1256 10.5217 12.8836 10.2381 12.6986 10.0878C12.7456 10.0679 12.7956 10.046 12.8486 10.0231Z" fill="#D4AF3A"/>
</g>
<mask id="mask120_110_734" style="mask-type:luminance" maskUnits="userSpaceOnUse" x="0" y="0" width="24" height="16">
<path d="M0 1.90735e-06H24V16H0V1.90735e-06Z" fill="white"/>
</mask>
<g mask="url(#mask120_110_734)">
<path d="M15.1659 5.74222C15.0829 5.92829 14.9979 6.11337 14.9109 6.29745C14.9839 6.34123 15.2779 5.61188 15.3469 5.66461C15.6379 5.8875 15.0199 6.45665 15.0649 6.49048C15.1119 6.5263 15.4829 6.00292 15.4869 6.0069C15.6719 6.19098 15.1789 6.65964 15.2039 6.68451C15.3369 6.59297 15.4549 6.48551 15.5609 6.36212C15.6499 6.25168 15.3239 7.11536 15.2689 6.98401C15.3939 6.93227 15.5089 6.86362 15.6139 6.77804C15.1599 7.10043 15.2329 7.21088 15.5939 7.25665C15.6199 7.22083 15.1829 7.78799 15.1569 7.63675C15.1679 7.70242 15.4819 7.6059 15.4819 7.71237C15.4819 7.82083 15.0539 8.0258 15.0319 7.99496C15.1279 8.00292 15.2169 8.03178 15.2999 8.08153C15.4099 8.30242 14.7679 8.24471 14.7599 8.28153C14.8449 8.31735 14.9329 8.34521 15.0229 8.36312C15.1999 8.50939 14.4759 8.59894 14.4989 8.53725C14.5749 8.57804 14.6489 8.62481 14.7199 8.67556C14.7909 8.82879 14.2649 8.73725 14.2679 8.73426C14.2419 8.76013 14.5099 8.90541 14.5169 8.92133C14.5989 9.1064 13.9119 8.94123 13.9259 8.92431C13.9039 8.95118 14.1459 9.06163 14.1459 9.12431C14.1459 9.34521 13.6699 9.18302 13.6089 9.09048C13.6189 8.97605 13.6129 8.89844 13.5999 8.8268C14.3459 8.74819 14.9689 7.77904 15.0499 7.21486C15.2439 7.09546 15.2749 6.97207 15.0739 6.87357C15.0109 6.8268 14.9349 6.11834 14.5459 6.34023C14.7709 6.21187 14.8679 5.47158 15.0359 5.25566C15.1329 5.39993 15.1759 5.56212 15.1659 5.74222Z" fill="#D4AF3A"/>
</g>
<mask id="mask121_110_734" style="mask-type:luminance" maskUnits="userSpaceOnUse" x="0" y="0" width="24" height="16">
<path d="M0 1.90735e-06H24V16H0V1.90735e-06Z" fill="white"/>
</mask>
<g mask="url(#mask121_110_734)">
<path d="M13.4843 8.01447C13.5723 8.01049 14.1973 7.69308 14.2213 7.62541C14.3703 7.21646 14.0213 6.83138 14.4283 6.13984C14.5933 6.31298 14.6983 6.21248 14.8223 6.35477C14.8243 6.49109 14.7793 6.60651 14.6903 6.70402C14.7433 6.77765 15.0763 6.37367 15.1123 6.6891C15.1453 6.97367 14.9023 6.95377 14.8713 7.20452C14.8633 7.26621 14.8323 7.34382 14.7823 7.51696C14.7333 7.68412 14.1773 8.85029 13.5823 8.74681C13.5633 8.68014 13.5403 8.60949 13.5163 8.509C13.6463 8.61447 13.5743 8.54979 13.5013 8.43735C13.4703 8.29805 13.4533 8.15875 13.4463 8.01646L13.4843 8.01447Z" fill="#D4AF3A"/>
</g>
<mask id="mask122_110_734" style="mask-type:luminance" maskUnits="userSpaceOnUse" x="0" y="0" width="24" height="16">
<path d="M0 1.90735e-06H24V16H0V1.90735e-06Z" fill="white"/>
</mask>
<g mask="url(#mask122_110_734)">
<path d="M15.9385 6.23042C15.8105 6.48913 15.6285 6.6344 15.6285 6.6344C15.6605 6.56972 15.6725 6.50206 15.6665 6.43141C15.7895 6.28316 15.8755 6.114 15.9235 5.92594C15.8615 6.10007 15.7715 6.25828 15.6545 6.40057C15.6365 6.28913 15.5955 6.2941 15.5385 6.3538C15.7155 5.94783 15.9435 5.6941 16.0345 5.21947C15.9585 5.62047 16.2735 5.55679 15.9385 6.23042Z" fill="#D4AF3A"/>
</g>
<mask id="mask123_110_734" style="mask-type:luminance" maskUnits="userSpaceOnUse" x="0" y="0" width="24" height="16">
<path d="M0 1.90735e-06H24V16H0V1.90735e-06Z" fill="white"/>
</mask>
<g mask="url(#mask123_110_734)">
<path d="M15.7725 6.92767C15.7245 6.96249 15.6545 7.01025 15.6545 7.01025C15.6735 6.9615 15.6835 6.91075 15.6825 6.85802C15.8955 6.65005 16.1345 6.41125 15.6725 6.82617C15.8165 6.55055 16.0915 6.12866 16.3135 5.83911C16.3185 6.26697 16.1315 6.66399 15.7725 6.92767Z" fill="#D4AF3A"/>
</g>
<mask id="mask124_110_734" style="mask-type:luminance" maskUnits="userSpaceOnUse" x="0" y="0" width="24" height="16">
<path d="M0 1.90735e-06H24V16H0V1.90735e-06Z" fill="white"/>
</mask>
<g mask="url(#mask124_110_734)">
<path d="M14.8223 8.79381C14.4823 8.66347 15.1853 8.67242 15.1713 8.74406C15.0423 8.74008 14.9223 8.70128 14.8103 8.62864C14.8883 8.68038 15.6503 8.64854 15.7593 8.62466C15.3753 8.70625 15.4433 9.03362 14.8223 8.79381Z" fill="#D4AF3A"/>
</g>
<mask id="mask125_110_734" style="mask-type:luminance" maskUnits="userSpaceOnUse" x="0" y="0" width="24" height="16">
<path d="M0 1.90735e-06H24V16H0V1.90735e-06Z" fill="white"/>
</mask>
<g mask="url(#mask125_110_734)">
<path d="M15.2687 8.55671C15.0957 8.5587 15.0307 8.50696 15.0307 8.50696C15.0587 8.46516 15.0727 8.41939 15.0737 8.36865C15.5637 8.4771 15.2787 8.24029 15.2737 8.23531C15.5447 8.24725 15.8157 8.22636 16.0757 8.17163C15.8967 8.46815 15.6277 8.55372 15.2687 8.55671Z" fill="#D4AF3A"/>
</g>
<mask id="mask126_110_734" style="mask-type:luminance" maskUnits="userSpaceOnUse" x="0" y="0" width="24" height="16">
<path d="M0 1.90735e-06H24V16H0V1.90735e-06Z" fill="white"/>
</mask>
<g mask="url(#mask126_110_734)">
<path d="M15.3135 8.15259C15.3375 8.11776 15.3365 8.08294 15.3115 8.04612C15.3385 8.04115 15.8345 7.96851 15.8285 7.92473C15.8405 8.00632 15.3115 7.97647 15.2135 7.98642C15.4365 7.9108 16.2795 7.75756 16.3125 7.62821C16.1805 8.13567 15.6635 8.01428 15.3135 8.15259Z" fill="#D4AF3A"/>
</g>
<mask id="mask127_110_734" style="mask-type:luminance" maskUnits="userSpaceOnUse" x="0" y="0" width="24" height="16">
<path d="M0 1.90735e-06H24V16H0V1.90735e-06Z" fill="white"/>
</mask>
<g mask="url(#mask127_110_734)">
<path d="M16.0264 7.5686C15.8124 7.71785 15.5634 7.77258 15.5094 7.77954C15.2214 7.44422 16.0274 7.65914 15.9574 7.44521C15.9994 7.5686 15.1774 7.59845 15.5904 7.46312C15.7164 7.39646 16.3904 7.25914 16.4294 7.08999C16.3584 7.29596 16.2234 7.45516 16.0264 7.5686Z" fill="#D4AF3A"/>
</g>
<mask id="mask128_110_734" style="mask-type:luminance" maskUnits="userSpaceOnUse" x="0" y="0" width="24" height="16">
<path d="M0 1.90735e-06H24V16H0V1.90735e-06Z" fill="white"/>
</mask>
<g mask="url(#mask128_110_734)">
<path d="M16.0606 7.14826C15.7726 7.37513 15.6026 7.52538 15.6276 7.2816C16.0736 6.99901 16.1356 6.95224 15.6256 7.25772C15.6206 7.21194 15.5926 7.19204 15.5436 7.19901C15.6826 7.07762 16.4116 6.71841 16.3996 6.53931C16.3976 6.78209 16.2856 6.98508 16.0606 7.14826Z" fill="#D4AF3A"/>
</g>
<mask id="mask129_110_734" style="mask-type:luminance" maskUnits="userSpaceOnUse" x="0" y="0" width="24" height="16">
<path d="M0 1.90735e-06H24V16H0V1.90735e-06Z" fill="white"/>
</mask>
<g mask="url(#mask129_110_734)">
<path d="M15.3174 5.58287C15.2784 5.64855 15.2404 5.71422 15.2044 5.78088C15.2314 5.50725 15.2934 5.19481 15.2904 4.92616C15.2924 5.0575 15.2014 5.36297 15.1814 5.49631C15.1484 5.40576 15.1174 5.31521 15.0884 5.22566C15.1674 4.85651 15.2154 4.48238 15.2314 4.10526C15.5014 4.37491 15.4854 5.23561 15.3174 5.58287Z" fill="#D4AF3A"/>
</g>
<mask id="mask130_110_734" style="mask-type:luminance" maskUnits="userSpaceOnUse" x="0" y="0" width="24" height="16">
<path d="M0 1.90735e-06H24V16H0V1.90735e-06Z" fill="white"/>
</mask>
<g mask="url(#mask130_110_734)">
<path d="M15.5567 6.1377C15.5537 6.05809 15.5357 5.9974 15.4837 5.98048C15.5597 5.74665 15.6427 5.56257 15.6597 5.31083C15.6427 5.56755 15.5037 5.80038 15.4187 6.03123C15.4387 5.90287 15.4317 5.7765 15.3987 5.65113C15.5607 5.277 15.6527 4.87501 15.6667 4.46705C15.8817 5.00237 15.8327 5.6173 15.5567 6.1377Z" fill="#D4AF3A"/>
</g>
<mask id="mask131_110_734" style="mask-type:luminance" maskUnits="userSpaceOnUse" x="0" y="0" width="24" height="16">
<path d="M0 1.90735e-06H24V16H0V1.90735e-06Z" fill="white"/>
</mask>
<g mask="url(#mask131_110_734)">
<path d="M14.4493 9.07463C14.5203 9.04876 14.5533 8.99403 14.5473 8.91244C14.8263 9.06966 14.9203 9.11145 14.5273 8.85374C14.5963 8.85473 14.6653 8.84478 14.7303 8.8209C14.9333 8.94926 15.1533 9.03384 15.3903 9.07463C15.3903 9.07463 15.3683 9.18309 15.2653 9.2199C14.9733 9.27662 14.7023 9.22786 14.4493 9.07463Z" fill="#D4AF3A"/>
</g>
<mask id="mask132_110_734" style="mask-type:luminance" maskUnits="userSpaceOnUse" x="0" y="0" width="24" height="16">
<path d="M0 1.90735e-06H24V16H0V1.90735e-06Z" fill="white"/>
</mask>
<g mask="url(#mask132_110_734)">
<path d="M14.1688 9.2924C14.1508 9.20284 14.2018 9.14115 14.2018 9.14115C14.3438 9.24663 14.6588 9.48543 14.2358 9.12125C14.4628 9.19687 14.7538 9.31031 14.9818 9.40981C14.6838 9.60384 14.4128 9.56503 14.1688 9.2924Z" fill="#D4AF3A"/>
</g>
<mask id="mask133_110_734" style="mask-type:luminance" maskUnits="userSpaceOnUse" x="0" y="0" width="24" height="16">
<path d="M0 1.90735e-06H24V16H0V1.90735e-06Z" fill="white"/>
</mask>
<g mask="url(#mask133_110_734)">
<path d="M13.6182 9.18831C13.6742 9.26493 13.7522 9.30572 13.8512 9.30771C14.0652 9.52363 14.1892 9.63508 13.9292 9.31866C14.1242 9.33358 14.2722 9.46493 14.3422 9.66095C13.9722 9.74055 13.7172 9.56542 13.6182 9.18831Z" fill="#D4AF3A"/>
</g>
<mask id="mask134_110_734" style="mask-type:luminance" maskUnits="userSpaceOnUse" x="0" y="0" width="24" height="16">
<path d="M0 1.90735e-06H24V16H0V1.90735e-06Z" fill="white"/>
</mask>
<g mask="url(#mask134_110_734)">
<path d="M13.5489 9.53719C13.5809 9.57898 13.5989 9.59689 13.5989 9.59689C13.5839 9.54316 13.5609 9.49441 13.5279 9.45162C13.5489 9.40286 13.5669 9.35112 13.5789 9.2964C13.6959 9.67351 13.5529 9.98794 13.4649 9.56505C13.4799 9.54316 13.4929 9.52028 13.5059 9.4964C13.5169 9.50336 13.5309 9.5153 13.5489 9.53719Z" fill="#D4AF3A"/>
</g>
<mask id="mask135_110_734" style="mask-type:luminance" maskUnits="userSpaceOnUse" x="0" y="0" width="24" height="16">
<path d="M0 1.90735e-06H24V16H0V1.90735e-06Z" fill="white"/>
</mask>
<g mask="url(#mask135_110_734)">
<path d="M13.6935 5.16843C13.5425 5.12166 13.4005 5.15151 13.2665 5.25599C12.9815 5.38435 12.7955 5.27291 12.7365 5.00326C12.8405 5.07888 12.9695 5.11868 13.0895 5.11072C13.0715 5.12564 13.6365 5.16744 13.6935 5.16843Z" fill="#D4AF3A"/>
</g>
<mask id="mask136_110_734" style="mask-type:luminance" maskUnits="userSpaceOnUse" x="0" y="0" width="24" height="16">
<path d="M0 1.90735e-06H24V16H0V1.90735e-06Z" fill="white"/>
</mask>
<g mask="url(#mask136_110_734)">
<path d="M12.1534 6.3174C12.3894 6.25372 12.5464 6.08059 12.3934 5.88656C12.5744 5.83084 12.7384 5.71143 12.6904 5.55322C12.7824 5.49452 12.8674 5.42586 12.9444 5.34825C13.1254 5.38606 13.2964 5.36317 13.4584 5.27959C13.5374 5.39302 13.6094 5.39203 13.6594 5.2388C13.8294 5.25969 14.1824 4.95223 14.1824 5.39601C14.1824 5.25273 13.5954 5.53034 13.4994 5.63084C13.5514 5.78208 13.6564 5.81292 13.8144 5.72437C13.6634 5.64875 13.2264 5.91044 13.1934 6.14924C12.9654 6.0786 12.9694 6.10248 13.0314 6.46367L13.0074 6.46168C12.8484 6.43482 12.7404 6.73929 12.6884 6.90845C12.6224 6.70745 12.6104 6.48656 12.6534 6.27661C12.4564 6.47661 12.2554 6.52735 12.1534 6.3174Z" fill="#D4AF3A"/>
</g>
<mask id="mask137_110_734" style="mask-type:luminance" maskUnits="userSpaceOnUse" x="0" y="0" width="24" height="16">
<path d="M0 1.90735e-06H24V16H0V1.90735e-06Z" fill="white"/>
</mask>
<g mask="url(#mask137_110_734)">
<path d="M12.9356 6.67757C12.9526 6.73229 12.9806 6.77906 13.0196 6.81787C12.9616 6.85667 12.8996 6.88155 12.8316 6.8905C12.8816 6.82682 12.9156 6.75617 12.9356 6.67757Z" fill="#D4AF3A"/>
</g>
<mask id="mask138_110_734" style="mask-type:luminance" maskUnits="userSpaceOnUse" x="0" y="0" width="24" height="16">
<path d="M0 1.90735e-06H24V16H0V1.90735e-06Z" fill="white"/>
</mask>
<g mask="url(#mask138_110_734)">
<path d="M12.2218 6.63084C12.2398 6.58607 12.2498 6.56119 12.2498 6.56119C12.3228 6.57612 12.4608 6.54129 12.5218 6.50547C12.4858 6.59104 12.4278 6.65473 12.3498 6.69453C12.4638 6.66468 12.5418 6.59204 12.5828 6.47761C12.5678 6.62985 12.5838 6.77711 12.6328 6.9194C12.4518 6.93632 12.2818 6.90846 12.1178 6.83582C12.1258 6.75721 12.1598 6.68955 12.2218 6.63084Z" fill="#D4AF3A"/>
</g>
<mask id="mask139_110_734" style="mask-type:luminance" maskUnits="userSpaceOnUse" x="0" y="0" width="24" height="16">
<path d="M0 1.90735e-06H24V16H0V1.90735e-06Z" fill="white"/>
</mask>
<g mask="url(#mask139_110_734)">
<path d="M12.5352 6.21C12.5892 6.14931 12.5942 6.13438 12.5942 6.13438C12.5612 6.23388 12.4662 6.31249 12.3492 6.33936L12.3512 6.32941C12.3512 6.32941 12.4822 6.2707 12.5352 6.21Z" fill="#B96B29"/>
</g>
<mask id="mask140_110_734" style="mask-type:luminance" maskUnits="userSpaceOnUse" x="0" y="0" width="24" height="16">
<path d="M0 1.90735e-06H24V16H0V1.90735e-06Z" fill="white"/>
</mask>
<g mask="url(#mask140_110_734)">
<path d="M12.7461 6.6094C12.6941 6.44323 12.7011 6.31089 12.8081 6.31885C12.8081 6.33278 12.7741 6.71288 12.7231 6.70293C12.7411 6.69298 12.7451 6.62035 12.7461 6.6094Z" fill="#B96B29"/>
</g>
<mask id="mask141_110_734" style="mask-type:luminance" maskUnits="userSpaceOnUse" x="0" y="0" width="24" height="16">
<path d="M0 1.90735e-06H24V16H0V1.90735e-06Z" fill="white"/>
</mask>
<g mask="url(#mask141_110_734)">
<path d="M13.0723 5.5678C12.7353 5.90213 13.5163 5.61656 12.8683 6.00562C12.8833 5.83248 12.9513 5.68621 13.0723 5.5678Z" fill="#B96B29"/>
</g>
<mask id="mask142_110_734" style="mask-type:luminance" maskUnits="userSpaceOnUse" x="0" y="0" width="24" height="16">
<path d="M0 1.90735e-06H24V16H0V1.90735e-06Z" fill="white"/>
</mask>
<g mask="url(#mask142_110_734)">
<path d="M12.756 4.81519L12.644 4.73558L12.777 4.70175L12.861 4.76941L12.756 4.81519Z" fill="#D4AF3A"/>
</g>
<mask id="mask143_110_734" style="mask-type:luminance" maskUnits="userSpaceOnUse" x="0" y="0" width="24" height="16">
<path d="M0 1.90735e-06H24V16H0V1.90735e-06Z" fill="white"/>
</mask>
<g mask="url(#mask143_110_734)">
<path d="M12.6202 4.36824C12.5932 4.37819 12.5572 4.37421 12.5572 4.37421C12.5662 4.30954 12.5992 4.26277 12.6562 4.22795C12.6692 4.28068 12.6572 4.32745 12.6202 4.36824Z" fill="#D4AF3A"/>
</g>
<mask id="mask144_110_734" style="mask-type:luminance" maskUnits="userSpaceOnUse" x="0" y="0" width="24" height="16">
<path d="M0 1.90735e-06H24V16H0V1.90735e-06Z" fill="white"/>
</mask>
<g mask="url(#mask144_110_734)">
<path d="M12.7099 4.40032C12.7179 4.41226 12.7359 4.43017 12.7359 4.43017C12.4999 4.45803 12.6969 4.38241 12.7099 4.40032Z" fill="#D4AF3A"/>
</g>
<mask id="mask145_110_734" style="mask-type:luminance" maskUnits="userSpaceOnUse" x="0" y="0" width="24" height="16">
<path d="M0 1.90735e-06H24V16H0V1.90735e-06Z" fill="white"/>
</mask>
<g mask="url(#mask145_110_734)">
<path d="M12.6348 4.52516C12.7018 4.53113 12.7908 4.45651 12.7908 4.45651C12.7998 4.51621 12.8358 4.54705 12.8928 4.55899C12.7438 4.63064 12.6238 4.60576 12.5618 4.46944C12.5618 4.46944 12.5678 4.51919 12.6348 4.52516Z" fill="#D4AF3A"/>
</g>
<mask id="mask146_110_734" style="mask-type:luminance" maskUnits="userSpaceOnUse" x="0" y="0" width="24" height="16">
<path d="M0 1.90735e-06H24V16H0V1.90735e-06Z" fill="white"/>
</mask>
<g mask="url(#mask146_110_734)">
<path d="M13.1085 4.34384C13.1385 4.32195 13.1655 4.31598 13.1655 4.31598C13.1035 4.4732 13.0245 4.40355 13.1085 4.34384Z" fill="#D4AF3A"/>
</g>
<mask id="mask147_110_734" style="mask-type:luminance" maskUnits="userSpaceOnUse" x="0" y="0" width="24" height="16">
<path d="M0 1.90735e-06H24V16H0V1.90735e-06Z" fill="white"/>
</mask>
<g mask="url(#mask147_110_734)">
<path d="M13.0157 4.23219C13.0347 3.99736 12.9347 3.83816 12.7177 3.75358C12.6637 3.68492 12.5997 3.6292 12.5247 3.58343C12.5247 3.58343 12.6347 3.6103 12.6977 3.6302C12.6977 3.67099 12.7777 3.72373 12.8157 3.69686C12.8497 3.70283 12.9627 3.77049 12.9917 3.79438C12.9617 3.84313 13.0397 3.9297 13.0907 3.90283C13.1177 3.94661 13.1387 3.99338 13.1547 4.04313C13.1027 4.09786 13.1137 4.14562 13.1857 4.18542C13.1937 4.25905 13.0857 4.34761 13.0287 4.37646C13.0247 4.37646 12.9937 4.31975 13.0157 4.23219Z" fill="#D4AF3A"/>
</g>
<mask id="mask148_110_734" style="mask-type:luminance" maskUnits="userSpaceOnUse" x="0" y="0" width="24" height="16">
<path d="M0 1.90735e-06H24V16H0V1.90735e-06Z" fill="white"/>
</mask>
<g mask="url(#mask148_110_734)">
<path d="M12.2589 3.49378C12.2809 3.49875 12.3219 3.51268 12.3849 3.54453C12.2799 3.78234 12.4669 3.60622 12.4569 3.58532C12.7549 3.76841 12.9759 4.39129 12.6849 4.18532C12.6329 4.21318 12.5839 4.25398 12.5459 4.30273C12.5029 4.16642 12.2589 3.49378 12.2589 3.49378Z" fill="#D4AF3A"/>
</g>
<mask id="mask149_110_734" style="mask-type:luminance" maskUnits="userSpaceOnUse" x="0" y="0" width="24" height="16">
<path d="M0 1.90735e-06H24V16H0V1.90735e-06Z" fill="white"/>
</mask>
<g mask="url(#mask149_110_734)">
<path d="M12.1894 4.44982C12.1084 4.48265 12.0394 4.37021 12.2334 4.41997C12.2334 4.41997 12.2234 4.43688 12.1894 4.44982Z" fill="#D4AF3A"/>
</g>
<mask id="mask150_110_734" style="mask-type:luminance" maskUnits="userSpaceOnUse" x="0" y="0" width="24" height="16">
<path d="M0 1.90735e-06H24V16H0V1.90735e-06Z" fill="white"/>
</mask>
<g mask="url(#mask150_110_734)">
<path d="M12.083 4.4872C12.137 4.56979 12.254 4.48521 12.283 4.43546L12.325 4.43447C12.584 4.50909 12.542 4.55088 12.137 4.55188C12.062 4.5081 12.062 4.45536 12.083 4.4872Z" fill="#D4AF3A"/>
</g>
<mask id="mask151_110_734" style="mask-type:luminance" maskUnits="userSpaceOnUse" x="0" y="0" width="24" height="16">
<path d="M0 1.90735e-06H24V16H0V1.90735e-06Z" fill="white"/>
</mask>
<g mask="url(#mask151_110_734)">
<path d="M12.4872 4.4426C12.4402 4.45653 12.4092 4.44459 12.3932 4.40777C12.4312 4.3829 12.4772 4.36897 12.5192 4.36897C12.5192 4.36897 12.5272 4.42071 12.4872 4.4426Z" fill="#D4AF3A"/>
</g>
</svg>
