<svg width="20" height="20" viewBox="0 0 20 20" fill="none" xmlns="http://www.w3.org/2000/svg">
<path fill-rule="evenodd" clip-rule="evenodd" d="M15.6919 18.6333C14.8268 18.6333 14.1229 17.9294 14.1229 17.0643C14.1229 16.1982 14.8268 15.4944 15.6919 15.4944C16.557 15.4944 17.2608 16.1982 17.2608 17.0643C17.2608 17.9294 16.557 18.6333 15.6919 18.6333M4.3367 11.5775C3.47161 11.5775 2.76773 10.8736 2.76773 10.0085C2.76773 9.14243 3.47161 8.43855 4.3367 8.43855C5.20178 8.43855 5.90566 9.14243 5.90566 10.0085C5.90566 10.8736 5.20178 11.5775 4.3367 11.5775M15.6518 1.36671C16.5179 1.36671 17.2208 2.07059 17.2208 2.93567C17.2208 3.80175 16.5179 4.50563 15.6518 4.50563C14.7868 4.50563 14.0839 3.80175 14.0839 2.93567C14.0839 2.07059 14.7868 1.36671 15.6518 1.36671M15.6919 14.1277C14.8659 14.1277 14.1219 14.4731 13.5873 15.0238L7.10616 10.9437C7.20728 10.6483 7.27337 10.3379 7.27337 10.0085C7.27337 9.6761 7.20628 9.3607 7.10315 9.06233L13.5642 4.99625C14.0969 5.53592 14.8358 5.87234 15.6518 5.87234C17.2719 5.87234 18.5895 4.55469 18.5895 2.93567C18.5895 1.31665 17.2719 0 15.6518 0C14.0328 0 12.7152 1.31665 12.7152 2.93567C12.7152 3.24606 12.7772 3.53842 12.8664 3.81977L6.37725 7.90388C5.84758 7.39024 5.12969 7.07184 4.3367 7.07184C2.71767 7.07184 1.40002 8.38949 1.40002 10.0085C1.40002 11.6275 2.71767 12.9442 4.3367 12.9442C5.13369 12.9442 5.85559 12.6228 6.38526 12.1051L12.8974 16.2053C12.8133 16.4786 12.7552 16.764 12.7552 17.0643C12.7552 18.6834 14.0729 20 15.6919 20C17.3109 20 18.6286 18.6834 18.6286 17.0643C18.6286 15.4443 17.3109 14.1277 15.6919 14.1277" fill="#001E28"/>
</svg>
