<svg width="20" height="20" viewBox="0 0 20 20" fill="none" xmlns="http://www.w3.org/2000/svg">
<path d="M5.51172 17.2672H14.4883V7.60608H15.8623V18.6422H4.1377V7.60608H5.51172V17.2672ZM11.1094 7.60706C11.2362 7.60706 11.3554 7.65605 11.4434 7.74377L12.3604 8.66077C12.4484 8.74977 12.499 8.8687 12.499 8.9967V10.317C12.499 10.415 12.4689 10.5046 12.4199 10.5836L9.52246 14.5055H7.97559L11.2969 10.1305C11.3058 10.1304 11.3057 10.1202 11.3057 10.1002V9.01624C11.2967 8.89824 11.1973 8.79944 11.0693 8.79944H7.55176C7.52191 8.79942 7.50309 8.78037 7.50293 8.75061V7.65588C7.50307 7.6261 7.5219 7.60707 7.55176 7.60706H11.1094ZM9.25098 3.47522H10.75L12.8203 1.40002H16.8389L20 4.56409V11.7448H15.8643V10.3698H18.626V5.1344L16.2686 2.77307H13.3896L11.3213 4.84924H8.68066L6.61133 2.77307H3.73242L1.375 5.1344V10.3688H4.13672V11.7428H0V4.56409L3.16211 1.40002H7.18066L9.25098 3.47522Z" fill="#001E28"/>
</svg>
