<svg width="20" height="20" viewBox="0 0 20 20" fill="none" xmlns="http://www.w3.org/2000/svg">
<path d="M7.21 4.82759H12.04V3.44828H7.21V4.82759Z" fill="#001E28"/>
<path d="M7.9 7.58621H11.35V6.2069H7.9V7.58621Z" fill="#001E28"/>
<path fill-rule="evenodd" clip-rule="evenodd" d="M6.92419 0L4.45 2.47296V12.6995L6.92419 15.1724H12.3258L14.8 12.6995V2.47296L12.3258 0H6.92419ZM5.83 3.04429L7.49581 1.37931H11.7542L13.42 3.04429V12.1281L11.7542 13.7931H7.49581L5.83 12.1281V3.04429Z" fill="#001E28"/>
<path d="M2.38 9.65517V13.5074L6.11581 17.2414H13.1342L16.87 13.5074V9.65517H18.25V14.0788L13.7058 18.6207H10.315V20H8.935V18.6207H5.54419L1 14.0788V9.65517H2.38Z" fill="#001E28"/>
</svg>
