<svg width="20" height="20" viewBox="0 0 20 20" fill="none" xmlns="http://www.w3.org/2000/svg">
<path d="M9.37109 10.2832L3.86719 12.792L8.52148 20H6.86621L2.58887 13.375L1.40039 13.917V20H0.00292969L0 13.0371L8.78711 9.03125L9.37109 10.2832ZM20 18.6836V20H19.1914L14.2129 11.9102L9.2627 14.1113L12.707 20H11.1094L7.29395 13.4775L14.7549 10.1602L20 18.6836ZM3.10352 2.76367C4.81732 2.76371 6.20678 4.15246 6.20703 5.86621C6.20492 7.5793 4.8166 8.96758 3.10352 8.96973C1.38953 8.96973 0 7.5802 0 5.86621C0.000246595 4.15243 1.38968 2.76367 3.10352 2.76367ZM8.59961 0.666992C8.59458 2.49008 9.32471 4.23871 10.624 5.51758C11.9431 6.82046 13.726 7.54545 15.5801 7.5332H20V8.86621H15.5654C13.3585 8.88156 11.2363 8.01848 9.66699 6.4668C8.09466 4.91055 7.26668 2.88142 7.2666 0.666992H8.59961ZM3.10352 4.14258C2.15145 4.14258 1.37915 4.91421 1.37891 5.86621C1.37891 6.81843 2.1513 7.59082 3.10352 7.59082C4.0557 7.59078 4.82715 6.8184 4.82715 5.86621C4.82606 4.91458 4.0552 4.14346 3.10352 4.14258ZM15.5176 0C16.3405 8.88896e-05 17.13 0.327249 17.7119 0.90918C18.2938 1.49117 18.6211 2.28052 18.6211 3.10352C18.6211 4.81736 17.2314 6.20685 15.5176 6.20703C13.8036 6.20703 12.4141 4.81747 12.4141 3.10352C12.4141 1.38953 13.8036 0 15.5176 0ZM15.5176 1.37891C14.5654 1.37891 13.793 2.1513 13.793 3.10352C13.793 4.0557 14.5654 4.82715 15.5176 4.82715C15.9747 4.82706 16.4131 4.64552 16.7363 4.32227C17.0596 3.99896 17.2412 3.5607 17.2412 3.10352C17.2412 2.15141 16.4696 1.37909 15.5176 1.37891Z" fill="#001E28"/>
</svg>
