<svg width="20" height="20" viewBox="0 0 20 20" fill="none" xmlns="http://www.w3.org/2000/svg">
<path d="M3.53516 14.8086C4.72203 14.8086 5.68533 15.7702 5.68555 16.958C5.68555 18.145 4.72216 19.1074 3.53516 19.1074C2.34831 19.1072 1.38672 18.1449 1.38672 16.958C1.38693 15.7703 2.34844 14.8088 3.53516 14.8086ZM9.99707 14.8086C11.1839 14.8087 12.1463 15.7702 12.1465 16.958C12.1465 18.145 11.184 19.1073 9.99707 19.1074C8.81007 19.1074 7.84766 18.145 7.84766 16.958C7.84787 15.7702 8.8102 14.8086 9.99707 14.8086ZM16.459 14.8086C17.6458 14.8087 18.6072 15.7703 18.6074 16.958C18.6074 18.1449 17.6459 19.1073 16.459 19.1074C15.272 19.1074 14.3086 18.145 14.3086 16.958C14.3088 15.7702 15.2721 14.8086 16.459 14.8086ZM3.53516 16.1758C3.10344 16.176 2.75217 16.5263 2.75195 16.958C2.75195 17.3899 3.10331 17.742 3.53516 17.7422C3.96716 17.7422 4.31934 17.39 4.31934 16.958C4.31912 16.5262 3.96703 16.1758 3.53516 16.1758ZM9.99707 16.1758C9.5652 16.1758 9.21408 16.5262 9.21387 16.958C9.21387 17.39 9.56507 17.7422 9.99707 17.7422C10.429 17.7421 10.7812 17.39 10.7812 16.958C10.781 16.5262 10.4289 16.1759 9.99707 16.1758ZM16.459 16.1758C16.0271 16.1758 15.675 16.5262 15.6748 16.958C15.6748 17.39 16.027 17.7422 16.459 17.7422C16.8909 17.7421 17.2422 17.3899 17.2422 16.958C17.242 16.5262 16.8908 16.1759 16.459 16.1758ZM3.53516 8.79883C4.72216 8.79883 5.68555 9.76224 5.68555 10.9482C5.68542 12.1361 4.72208 13.0986 3.53516 13.0986C2.34839 13.0984 1.38685 12.136 1.38672 10.9482C1.38672 9.76236 2.34831 8.79901 3.53516 8.79883ZM9.99707 8.79883C11.184 8.79892 12.1465 9.7623 12.1465 10.9482C12.1464 12.1361 11.1839 13.0985 9.99707 13.0986C8.81015 13.0986 7.84779 12.1361 7.84766 10.9482C7.84766 9.76224 8.81007 8.79883 9.99707 8.79883ZM16.459 8.79883C17.6459 8.79893 18.6074 9.7623 18.6074 10.9482C18.6073 12.1361 17.6458 13.0985 16.459 13.0986C15.2721 13.0986 14.3087 12.1361 14.3086 10.9482C14.3086 9.76224 15.272 8.79883 16.459 8.79883ZM3.53516 2.74707C4.72216 2.74707 5.68555 3.70948 5.68555 4.89648C5.68545 6.0844 4.72209 7.0459 3.53516 7.0459C2.34838 7.04571 1.38682 6.08428 1.38672 4.89648C1.38672 3.7096 2.34831 2.74726 3.53516 2.74707ZM9.99707 2.74707C11.184 2.74716 12.1465 3.70954 12.1465 4.89648C12.1464 6.08434 11.1839 7.04581 9.99707 7.0459C8.81013 7.0459 7.84776 6.0844 7.84766 4.89648C7.84766 3.70948 8.81007 2.74707 9.99707 2.74707ZM16.459 2.74707C17.6459 2.74717 18.6074 3.70955 18.6074 4.89648C18.6073 6.08434 17.6458 7.0458 16.459 7.0459C15.272 7.0459 14.3087 6.0844 14.3086 4.89648C14.3086 3.70948 15.272 2.74707 16.459 2.74707ZM20 1.36523H0V0H20V1.36523Z" fill="#001E28"/>
</svg>
