<svg width="20" height="20" viewBox="0 0 20 20" fill="none" xmlns="http://www.w3.org/2000/svg">
<path d="M18.6208 2.75861H1.3794L0 4.13801V15.8622L1.3794 17.2414H18.6048L20 15.8622V4.13801L18.6208 2.75861ZM1.6796 3.48381H18.3204L19.2748 4.43841V5.52441H0.725V4.43841L1.6796 3.48381ZM18.3068 16.5162H1.6796L0.725 15.5618V6.24881H19.2748V15.5594L18.3068 16.5162Z" fill="#001E28"/>
<path d="M2.75941 4.1366H2.07001V4.8612H2.75941V4.1366Z" fill="#001E28"/>
<path d="M4.13897 4.1366H3.44897V4.8612H4.13897V4.1366Z" fill="#001E28"/>
<path d="M5.51843 4.1366H4.82843V4.8612H5.51843V4.1366Z" fill="#001E28"/>
<path d="M10.0002 12.0516C8.51442 12.0516 7.17802 12.8778 6.51282 14.2078L7.16122 14.532C7.70282 13.449 8.79062 12.7762 10 12.7762C11.2094 12.7762 12.2968 13.449 12.8384 14.532L13.4868 14.2078C12.8218 12.8778 11.4858 12.0516 10 12.0516H10.0002Z" fill="#001E28"/>
<path d="M7.51639 8.27582H5.38739V10.4048H7.51639V8.27582Z" fill="#001E28"/>
<path d="M14.6128 8.27582H12.4838V10.4048H14.6128V8.27582Z" fill="#001E28"/>
</svg>
