<svg width="20" height="20" viewBox="0 0 20 20" fill="none" xmlns="http://www.w3.org/2000/svg">
<path d="M1.37891 0.000823975V13.1034H18.6211V0.000823975H20V20.0008H18.6211V14.4832H1.37891V20.0008H0V0.000823975H1.37891ZM5.57715 8.61411C4.20715 3.73711 9.06905 -1.13478 13.9561 0.234222C13.9749 0.241286 14.2729 0.351246 14.2998 0.360199L14.4248 0.703949C15.7808 5.54093 10.9999 10.4478 6.04492 9.08383C6.02897 9.07785 5.72967 8.96841 5.70215 8.95786L5.57715 8.61411ZM7.0498 5.12192C6.6238 6.29392 6.71657 7.33446 6.80957 7.84946C7.11157 7.90246 7.59485 7.95703 8.17285 7.90903C8.64783 7.86902 9.10406 7.77115 9.54004 7.61215L7.0498 5.12192ZM9.18359 2.37973C8.64368 2.75967 8.09368 3.31168 7.72168 3.8436L10.8164 6.9393C11.3624 6.5533 11.8943 6.02241 12.2803 5.47641L9.18359 2.37973ZM13.1895 1.46957C12.8875 1.41561 12.4057 1.36109 11.8291 1.40903C11.3532 1.44802 10.8969 1.54794 10.4609 1.7059L12.9541 4.19809C13.1121 3.76311 13.211 3.30688 13.251 2.8309C13.299 2.25498 13.2434 1.77254 13.1895 1.46957Z" fill="#001E28"/>
</svg>
