<svg width="20" height="20" viewBox="0 0 20 20" fill="none" xmlns="http://www.w3.org/2000/svg">
<path fill-rule="evenodd" clip-rule="evenodd" d="M13.887 12.81C13.887 13.009 13.811 13.193 13.672 13.331L12.246 14.757C12.108 14.896 11.924 14.972 11.724 14.972H6.187C6.141 14.972 6.11 14.942 6.11 14.896V13.193C6.11 13.148 6.141 13.117 6.187 13.117H11.663C11.863 13.117 12.031 12.947 12.031 12.748V10.892C12.031 10.692 11.863 10.525 11.663 10.525H6.187C6.141 10.525 6.11 10.494 6.11 10.462V4.312C6.11 4.266 6.141 4.235 6.187 4.235H13.074C13.105 4.235 13.151 4.266 13.151 4.312V6.014C13.151 6.06 13.105 6.091 13.074 6.091H8.043C7.997 6.091 7.966 6.123 7.966 6.167V8.607C7.966 8.637 7.997 8.683 8.043 8.683H11.724C11.924 8.683 12.108 8.759 12.246 8.898L13.672 10.31C13.811 10.448 13.887 10.647 13.887 10.831V12.81ZM17.528 0H2.473L0 2.47V17.529L2.47 20H17.531L20 17.529V2.472L17.528 0Z" fill="#FFCD00"/>
<path fill-rule="evenodd" clip-rule="evenodd" d="M12.2466 8.89786C12.1076 8.75886 11.9236 8.68286 11.7246 8.68286H8.0436C7.9966 8.68286 7.9666 8.63686 7.9666 8.60686V6.16786C7.9666 6.12286 7.9966 6.09086 8.0436 6.09086H13.0746C13.1046 6.09086 13.1506 6.05986 13.1506 6.01386V4.31186C13.1506 4.26586 13.1046 4.23486 13.0746 4.23486H6.1866C6.1416 4.23486 6.1106 4.26586 6.1106 4.31186V10.4619C6.1106 10.4939 6.1416 10.5249 6.1866 10.5249H11.6636C11.8626 10.5249 12.0316 10.6919 12.0316 10.8919V12.7489C12.0316 12.9469 11.8626 13.1169 11.6636 13.1169H6.1866C6.1416 13.1169 6.1106 13.1479 6.1106 13.1929V14.8959C6.1106 14.9419 6.1416 14.9719 6.1866 14.9719H11.7246C11.9236 14.9719 12.1076 14.8959 12.2466 14.7569L13.6726 13.3319C13.8106 13.1929 13.8876 13.0089 13.8876 12.8099V10.8309C13.8876 10.6469 13.8106 10.4479 13.6726 10.3099L12.2466 8.89786Z" fill="#001E28"/>
</svg>
