<svg width="20" height="20" viewBox="0 0 20 20" fill="none" xmlns="http://www.w3.org/2000/svg">
<path d="M15.3154 3.71387L11.6143 7.41602L10.624 6.4248L12.6367 4.41406H9.99316C6.08123 4.41406 2.89952 7.5969 2.89941 11.5078C2.89941 15.4188 6.08116 18.6016 9.99316 18.6016C13.9051 18.6015 17.0869 15.4188 17.0869 11.5078H18.4863C18.4863 16.1918 14.6761 19.9999 9.99316 20C5.31016 20 1.5 16.1918 1.5 11.5078C1.5001 6.8249 5.31023 3.01562 9.99316 3.01562H12.6387L10.6143 0.991211L11.6025 0L15.3154 3.71387ZM6.96582 8.65527C7.0676 8.65527 7.16247 8.69394 7.23242 8.76465L7.96582 9.49707C8.03771 9.56896 8.07703 9.66282 8.07715 9.76465V13.1768C8.07715 13.2008 8.09321 13.2168 8.11621 13.2168H9.55762C9.58154 13.2168 9.59755 13.232 9.59766 13.2559V14.1309C9.59766 14.1539 9.58162 14.1699 9.55762 14.1699H5.6416C5.61778 14.1698 5.60254 14.1538 5.60254 14.1309V13.2559C5.60264 13.2321 5.61785 13.2169 5.6416 13.2168H7.08398C7.10694 13.2168 7.12305 13.2007 7.12305 13.1768V9.7959C7.12293 9.69399 7.0365 9.6084 6.93457 9.6084H5.6416C5.61786 9.60826 5.60264 9.59113 5.60254 9.56934V8.69434C5.60254 8.67044 5.61778 8.6554 5.6416 8.65527H6.96582ZM13.9658 8.65527C13.9818 8.65527 14.0059 8.67034 14.0059 8.69434V9.56934C14.0057 9.59122 13.9818 9.6084 13.9658 9.6084H11.3818C11.358 9.60851 11.3418 9.62355 11.3418 9.64746V10.9014C11.342 10.9163 11.3581 10.9393 11.3818 10.9395H13.2734C13.3752 10.9395 13.4701 10.979 13.541 11.0488L14.2744 11.7744C14.3442 11.8464 14.3838 11.9472 14.3838 12.042V13.0596C14.3837 13.1613 14.3442 13.2563 14.2744 13.3271L13.541 14.0605C13.4701 14.1313 13.3752 14.1698 13.2734 14.1699H10.4277C10.4049 14.1698 10.3877 14.1537 10.3877 14.1309V13.2559C10.3878 13.2321 10.405 13.217 10.4277 13.2168H13.2412C13.3441 13.2167 13.4296 13.1292 13.4297 13.0283V12.0742C13.4297 11.9723 13.3442 11.8848 13.2412 11.8848H10.4277C10.4051 11.8846 10.388 11.8693 10.3877 11.8545V8.69434C10.3877 8.67046 10.4049 8.65543 10.4277 8.65527H13.9658Z" fill="#001E28"/>
</svg>
