<svg width="20" height="20" viewBox="0 0 20 20" fill="none" xmlns="http://www.w3.org/2000/svg">
<path d="M9.99414 0C15.5135 7.57594e-05 19.9873 4.47414 19.9873 9.99414C19.9872 15.5132 15.5132 19.9872 9.99414 19.9873C4.47481 19.9873 7.5773e-05 15.5131 0 9.99414C0 4.47426 4.4746 0 9.99414 0ZM9.99414 1.36621C5.22899 1.36621 1.36621 5.22871 1.36621 9.99414C1.36629 14.7587 5.22918 18.6211 9.99414 18.6211C14.7588 18.621 18.621 14.7588 18.6211 9.99414C18.6211 5.22854 14.759 1.36629 9.99414 1.36621ZM15.6494 12.2002L12.6904 15.1602H7.29688L4.33887 12.2002L5.30469 11.2344L7.8623 13.793H12.124L14.6836 11.2344L15.6494 12.2002ZM7.5791 8.26855H5.51074V6.20117H7.5791V8.26855ZM14.4766 8.26855H12.4072V6.20117H14.4766V8.26855Z" fill="#001E28"/>
</svg>
