<svg width="24" height="16" viewBox="0 0 24 16" fill="none" xmlns="http://www.w3.org/2000/svg">
<g clip-path="url(#clip0_986_17590)">
<mask id="mask0_986_17590" style="mask-type:luminance" maskUnits="userSpaceOnUse" x="0" y="0" width="24" height="16">
<path d="M0 16H24V1.90735e-06H0V16Z" fill="white"/>
</mask>
<g mask="url(#mask0_986_17590)">
<path d="M4.13437 10.7956L6.38237 14.1498L5.82037 14.5229L3.57237 11.1687L4.13437 10.7956ZM5.82037 1.47814L6.38237 1.85028L4.13437 5.2055L3.57237 4.83237L5.82037 1.47814ZM7.22437 2.40948L4.97737 5.76371L4.41537 5.39157L6.66237 2.03734L7.22437 2.40948ZM8.06737 2.96869L5.82037 6.32292L5.25837 5.95078L7.50537 2.59555L8.06737 2.96869ZM14.2474 4.6463C16.1094 5.88112 16.6124 8.38361 15.3714 10.2363C14.1304 12.0891 11.6144 12.5896 9.75237 11.3548C7.89037 10.1199 7.38737 7.61645 8.62937 5.76371C9.87037 3.91197 12.3854 3.41048 14.2474 4.6463ZM16.4944 2.59555L17.5254 4.13386L16.9634 4.506L15.9334 2.96869L16.4944 2.59555ZM17.3374 2.03734L19.5854 5.39157L19.0234 5.76371L16.7764 2.40948L17.3374 2.03734ZM18.1804 1.47814L19.2104 3.01545L18.6494 3.38759L17.6184 1.85028L18.1804 1.47814ZM20.4274 4.83237L19.8664 5.2055L18.8364 3.66719L19.3984 3.29505L20.4274 4.83237ZM19.3984 12.705L18.8364 12.3329L19.8664 10.7956L20.4274 11.1687L19.3984 12.705ZM18.1804 14.5229L17.6184 14.1498L18.6494 12.6125L19.2104 12.9856L18.1804 14.5229ZM16.7764 13.5906L17.8054 12.0533L18.3674 12.4264L17.3374 13.9637L16.7764 13.5906ZM19.0234 10.2363L19.5854 10.6095L18.5554 12.1458L17.9934 11.7727L19.0234 10.2363ZM17.1504 4.7856L17.7124 4.41247L18.7424 5.95078L18.1804 6.32292L17.1504 4.7856ZM18.1804 9.67714L18.7424 10.0503L17.7124 11.5876L17.1504 11.2145L18.1804 9.67714ZM15.9334 13.0324L16.9634 11.4941L17.5254 11.8672L16.4944 13.4045L15.9334 13.0324ZM7.50537 13.4045L5.25837 10.0503L5.82037 9.67714L8.06737 13.0324L7.50537 13.4045ZM5.44537 12.1458L4.41537 10.6095L4.97737 10.2363L6.00737 11.7727L5.44537 12.1458ZM6.66237 13.9637L5.63237 12.4264L6.19437 12.0533L7.22437 13.5906L6.66237 13.9637ZM0.000366211 15.9985H24.0004V-0.00146294H0.000366211V15.9985Z" fill="#FAFAFA"/>
</g>
<mask id="mask1_986_17590" style="mask-type:luminance" maskUnits="userSpaceOnUse" x="0" y="0" width="24" height="16">
<path d="M0 16H24V1.90735e-06H0V16Z" fill="white"/>
</mask>
<g mask="url(#mask1_986_17590)">
<path d="M17.5255 4.13358L16.4955 2.59627L15.9325 2.9694L16.9635 4.50671L17.5255 4.13358Z" fill="#010101"/>
</g>
<mask id="mask2_986_17590" style="mask-type:luminance" maskUnits="userSpaceOnUse" x="0" y="0" width="24" height="16">
<path d="M0 16H24V1.90735e-06H0V16Z" fill="white"/>
</mask>
<g mask="url(#mask2_986_17590)">
<path d="M18.7421 5.9506L17.7121 4.41328L17.1501 4.78642L18.1801 6.32373L18.7421 5.9506Z" fill="#010101"/>
</g>
<mask id="mask3_986_17590" style="mask-type:luminance" maskUnits="userSpaceOnUse" x="0" y="0" width="24" height="16">
<path d="M0 16H24V1.90735e-06H0V16Z" fill="white"/>
</mask>
<g mask="url(#mask3_986_17590)">
<path d="M19.585 5.39139L17.337 2.03716L16.776 2.4093L19.023 5.76453L19.585 5.39139Z" fill="#010101"/>
</g>
<mask id="mask4_986_17590" style="mask-type:luminance" maskUnits="userSpaceOnUse" x="0" y="0" width="24" height="16">
<path d="M0 16H24V1.90735e-06H0V16Z" fill="white"/>
</mask>
<g mask="url(#mask4_986_17590)">
<path d="M19.2108 3.01517L18.1808 1.47786L17.6178 1.85099L18.6488 3.38831L19.2108 3.01517Z" fill="#010101"/>
</g>
<mask id="mask5_986_17590" style="mask-type:luminance" maskUnits="userSpaceOnUse" x="0" y="0" width="24" height="16">
<path d="M0 16H24V1.90735e-06H0V16Z" fill="white"/>
</mask>
<g mask="url(#mask5_986_17590)">
<path d="M19.8662 5.20532L20.4282 4.83219L19.3982 3.29487L18.8362 3.66801L19.8662 5.20532Z" fill="#010101"/>
</g>
<mask id="mask6_986_17590" style="mask-type:luminance" maskUnits="userSpaceOnUse" x="0" y="0" width="24" height="16">
<path d="M0 16H24V1.90735e-06H0V16Z" fill="white"/>
</mask>
<g mask="url(#mask6_986_17590)">
<path d="M5.25793 10.0502L7.50593 13.4044L8.06793 13.0323L5.81993 9.67706L5.25793 10.0502Z" fill="#010101"/>
</g>
<mask id="mask7_986_17590" style="mask-type:luminance" maskUnits="userSpaceOnUse" x="0" y="0" width="24" height="16">
<path d="M0 16H24V1.90735e-06H0V16Z" fill="white"/>
</mask>
<g mask="url(#mask7_986_17590)">
<path d="M4.41492 10.6089L5.44492 12.1462L6.00692 11.7731L4.97692 10.2358L4.41492 10.6089Z" fill="#010101"/>
</g>
<mask id="mask8_986_17590" style="mask-type:luminance" maskUnits="userSpaceOnUse" x="0" y="0" width="24" height="16">
<path d="M0 16H24V1.90735e-06H0V16Z" fill="white"/>
</mask>
<g mask="url(#mask8_986_17590)">
<path d="M5.63232 12.4261L6.66232 13.9634L7.22432 13.5902L6.19432 12.0529L5.63232 12.4261Z" fill="#010101"/>
</g>
<mask id="mask9_986_17590" style="mask-type:luminance" maskUnits="userSpaceOnUse" x="0" y="0" width="24" height="16">
<path d="M0 16H24V1.90735e-06H0V16Z" fill="white"/>
</mask>
<g mask="url(#mask9_986_17590)">
<path d="M6.38178 14.1498L4.13378 10.7956L3.57178 11.1677L5.81978 14.5229L6.38178 14.1498Z" fill="#010101"/>
</g>
<mask id="mask10_986_17590" style="mask-type:luminance" maskUnits="userSpaceOnUse" x="0" y="0" width="24" height="16">
<path d="M0 16H24V1.90735e-06H0V16Z" fill="white"/>
</mask>
<g mask="url(#mask10_986_17590)">
<path d="M5.81993 6.32324L8.06793 2.96901L7.50593 2.59588L5.25793 5.95011L5.81993 6.32324Z" fill="#010101"/>
</g>
<mask id="mask11_986_17590" style="mask-type:luminance" maskUnits="userSpaceOnUse" x="0" y="0" width="24" height="16">
<path d="M0 16H24V1.90735e-06H0V16Z" fill="white"/>
</mask>
<g mask="url(#mask11_986_17590)">
<path d="M4.97716 5.76404L7.22416 2.40981L6.66216 2.03668L4.41516 5.3909L4.97716 5.76404Z" fill="#010101"/>
</g>
<mask id="mask12_986_17590" style="mask-type:luminance" maskUnits="userSpaceOnUse" x="0" y="0" width="24" height="16">
<path d="M0 16H24V1.90735e-06H0V16Z" fill="white"/>
</mask>
<g mask="url(#mask12_986_17590)">
<path d="M6.38178 1.85059L5.81978 1.47745L3.57178 4.83268L4.13378 5.20581L6.38178 1.85059Z" fill="#010101"/>
</g>
<mask id="mask13_986_17590" style="mask-type:luminance" maskUnits="userSpaceOnUse" x="0" y="0" width="24" height="16">
<path d="M0 16H24V1.90735e-06H0V16Z" fill="white"/>
</mask>
<g mask="url(#mask13_986_17590)">
<path d="M16.963 11.4942L15.933 13.0315L16.495 13.4047L17.525 11.8673L16.963 11.4942Z" fill="#010101"/>
</g>
<mask id="mask14_986_17590" style="mask-type:luminance" maskUnits="userSpaceOnUse" x="0" y="0" width="24" height="16">
<path d="M0 16H24V1.90735e-06H0V16Z" fill="white"/>
</mask>
<g mask="url(#mask14_986_17590)">
<path d="M17.7119 11.5875L18.7419 10.0502L18.1799 9.67807L17.1499 11.2144L17.7119 11.5875Z" fill="#010101"/>
</g>
<mask id="mask15_986_17590" style="mask-type:luminance" maskUnits="userSpaceOnUse" x="0" y="0" width="24" height="16">
<path d="M0 16H24V1.90735e-06H0V16Z" fill="white"/>
</mask>
<g mask="url(#mask15_986_17590)">
<path d="M17.8058 12.0529L16.7758 13.5903L17.3378 13.9624L18.3678 12.4261L17.8058 12.0529Z" fill="#010101"/>
</g>
<mask id="mask16_986_17590" style="mask-type:luminance" maskUnits="userSpaceOnUse" x="0" y="0" width="24" height="16">
<path d="M0 16H24V1.90735e-06H0V16Z" fill="white"/>
</mask>
<g mask="url(#mask16_986_17590)">
<path d="M18.5557 12.1462L19.5847 10.6089L19.0237 10.2368L17.9937 11.7731L18.5557 12.1462Z" fill="#010101"/>
</g>
<mask id="mask17_986_17590" style="mask-type:luminance" maskUnits="userSpaceOnUse" x="0" y="0" width="24" height="16">
<path d="M0 16H24V1.90735e-06H0V16Z" fill="white"/>
</mask>
<g mask="url(#mask17_986_17590)">
<path d="M17.6183 14.1498L18.1803 14.5229L19.2103 12.9856L18.6493 12.6125L17.6183 14.1498Z" fill="#010101"/>
</g>
<mask id="mask18_986_17590" style="mask-type:luminance" maskUnits="userSpaceOnUse" x="0" y="0" width="24" height="16">
<path d="M0 16H24V1.90735e-06H0V16Z" fill="white"/>
</mask>
<g mask="url(#mask18_986_17590)">
<path d="M18.8359 12.3328L19.3979 12.7059L20.4279 11.1686L19.8659 10.7955L18.8359 12.3328Z" fill="#010101"/>
</g>
<mask id="mask19_986_17590" style="mask-type:luminance" maskUnits="userSpaceOnUse" x="0" y="0" width="24" height="16">
<path d="M0 16H24V1.90735e-06H0V16Z" fill="white"/>
</mask>
<g mask="url(#mask19_986_17590)">
<path d="M9.19093 8.5592C10.1219 9.17711 11.3789 8.92637 11.9999 8C12.6209 7.07363 13.8779 6.82388 14.8099 7.4408C15.7399 8.05871 15.9919 9.30945 15.3709 10.2368C16.6119 8.38408 16.1089 5.88159 14.2479 4.64577C12.3859 3.41095 9.86993 3.91144 8.62893 5.76418C8.00793 6.69055 8.25993 7.94129 9.19093 8.5592Z" fill="#CE2028"/>
</g>
<mask id="mask20_986_17590" style="mask-type:luminance" maskUnits="userSpaceOnUse" x="0" y="0" width="24" height="16">
<path d="M0 16H24V1.90735e-06H0V16Z" fill="white"/>
</mask>
<g mask="url(#mask20_986_17590)">
<path d="M9.75226 11.3544C11.6143 12.5892 14.1293 12.0887 15.3713 10.236C15.9913 9.30959 15.7403 8.05785 14.8093 7.44094C13.8783 6.82303 12.6203 7.07377 12.0013 8.00014C11.3793 8.9275 10.1213 9.17726 9.19026 8.55835C8.25927 7.94143 8.00827 6.69069 8.62826 5.76333C7.38727 7.61606 7.89026 10.1205 9.75226 11.3544Z" fill="#1E4384"/>
</g>
</g>
<defs>
<clipPath id="clip0_986_17590">
<rect width="24" height="16" fill="white"/>
</clipPath>
</defs>
</svg>
