<svg width="20" height="20" viewBox="0 0 20 20" fill="none" xmlns="http://www.w3.org/2000/svg">
<g clip-path="url(#clip0_8438_69047)">
<path d="M17.5283 0L20 2.47168V17.5283L17.5283 20H2.47168L0 17.5283V2.47168L2.47168 0H17.5283ZM3.03125 1.37109L1.36035 3.04199V16.958L3.03125 18.6289H16.958L18.6289 16.958V3.04199L16.958 1.37109H3.03125ZM13.7871 16.5479H3.44141V15.1777H13.7871V16.5479ZM16.5479 13.7871H3.44141V12.416H16.5479V13.7871ZM16.5479 11.0352H3.44141V9.66504H16.5479V11.0352ZM11.0254 8.26367H3.45215V3.45215H11.0254V8.26367ZM4.8125 6.90332H9.65527V4.82227H4.8125V6.90332Z" fill="#001E28"/>
</g>
<defs>
<clipPath id="clip0_8438_69047">
<rect width="20" height="20" fill="white"/>
</clipPath>
</defs>
</svg>
