<svg width="361" height="574" viewBox="0 0 361 574" fill="none" xmlns="http://www.w3.org/2000/svg">
<path d="M124.905 1.17228e-05V34.2793H236.09V1.17228e-05" stroke="#C8CDCD" stroke-width="2"/>
<path d="M66.8325 0.000654395V91.9363H294.168V0.000654395" stroke="#C8CDCD" stroke-width="2"/>
<path d="M225.111 91.9026C215.221 106.115 198.683 115.429 179.952 115.429C161.218 115.429 144.68 106.115 134.79 91.9026" stroke="#C8CDCD" stroke-width="2"/>
<path d="M0 287H361" stroke="#C8CDCD" stroke-width="2"/>
<path d="M236.095 574L236.095 539.721L124.911 539.721L124.911 574" stroke="#C8CDCD" stroke-width="2"/>
<path d="M294.168 573.999L294.168 482.064L66.8327 482.064L66.8327 573.999" stroke="#C8CDCD" stroke-width="2"/>
<path d="M135.889 482.097C145.779 467.885 162.317 458.57 181.049 458.57C199.783 458.57 216.321 467.885 226.21 482.097" stroke="#C8CDCD" stroke-width="2"/>
<path fill-rule="evenodd" clip-rule="evenodd" d="M233.65 286.475C233.65 315.453 210.089 338.943 181.027 338.943C151.963 338.943 128.402 315.453 128.402 286.475C128.402 257.498 151.963 234.007 181.027 234.007C210.089 234.007 233.65 257.498 233.65 286.475Z" stroke="#C8CDCD" stroke-width="2"/>
<path fill-rule="evenodd" clip-rule="evenodd" d="M185.795 286.478C185.795 289.112 183.654 291.249 181.012 291.249C178.372 291.249 176.23 289.112 176.23 286.478C176.23 283.844 178.372 281.709 181.012 281.709C183.654 281.709 185.795 283.844 185.795 286.478Z" fill="#C8CDCD"/>
<path d="M0.000193816 16.7898C2.21161 16.7898 4.40137 16.3555 6.44445 15.5117C8.48753 14.668 10.3439 13.4312 11.9076 11.8722C13.4713 10.3131 14.7117 8.46219 15.558 6.42516C16.4043 4.38814 16.8398 2.20486 16.8398 0" stroke="#C8CDCD" stroke-width="2"/>
<path d="M16.8396 574C16.8396 571.795 16.4041 569.612 15.5578 567.575C14.7115 565.538 13.4711 563.687 11.9074 562.128C10.3437 560.569 8.48734 559.332 6.44426 558.488C4.40117 557.644 2.21141 557.21 0 557.21" stroke="#C8CDCD" stroke-width="2"/>
<path d="M344.16 3.09571e-05C344.16 2.20489 344.596 4.38817 345.442 6.4252C346.288 8.46222 347.529 10.3131 349.093 11.8722C350.656 13.4313 352.513 14.668 354.556 15.5117C356.599 16.3555 358.789 16.7898 361 16.7898" stroke="#C8CDCD" stroke-width="2"/>
<path d="M361 557.21C358.788 557.21 356.599 557.645 354.556 558.488C352.512 559.332 350.656 560.569 349.092 562.128C347.529 563.687 346.288 565.538 345.442 567.575C344.596 569.612 344.16 571.795 344.16 574" stroke="#C8CDCD" stroke-width="2"/>
<rect x="1" y="1" width="359" height="572" stroke="#C8CDCD" stroke-width="2"/>
</svg>
