<svg width="20" height="20" viewBox="0 0 20 20" fill="none" xmlns="http://www.w3.org/2000/svg">
<path fill-rule="evenodd" clip-rule="evenodd" d="M17.7071 9.60959C16.9941 11.2246 15.8621 12.8146 14.3341 14.3446C12.8131 15.8626 11.2241 16.9946 9.61014 17.7056C8.23514 18.3116 6.84414 18.6176 5.47314 18.6176C5.13614 18.6176 4.82314 18.5866 4.51814 18.5476C6.61614 17.7246 9.72514 16.1286 12.8101 13.1376L12.8121 13.1406L12.9771 12.9756L12.9761 12.9736C16.1381 9.70959 17.7471 6.41359 18.5241 4.32259C18.5861 4.75159 18.6281 5.20859 18.6161 5.70659C18.5821 7.00459 18.2761 8.31759 17.7071 9.60959M2.11314 10.8496L3.19414 11.9306L4.17614 10.9486L2.73814 9.51059C2.95914 9.09959 3.20714 8.68959 3.48314 8.28359L5.16314 9.96259L6.14414 8.98059L4.32214 7.15859C4.60614 6.80659 4.91414 6.45959 5.23914 6.11359L7.12514 7.99959L8.10714 7.01759L6.22414 5.13459C6.57314 4.81259 6.92414 4.50859 7.27814 4.22659L9.08814 6.03659L10.0701 5.05459L8.41314 3.39859C8.82414 3.12659 9.23714 2.88259 9.65314 2.66559L11.0561 4.06859L12.0381 3.08759L11.0041 2.05259C12.0971 1.64359 13.2001 1.41059 14.2901 1.38259C15.9511 1.33259 17.2301 1.81159 17.7821 2.05059C17.5581 2.98859 16.2781 7.60359 11.9321 12.0646C7.73314 16.1716 3.38914 17.5536 2.09814 17.8936C1.87714 17.4036 1.33914 16.0216 1.38414 14.2906C1.41414 13.1476 1.66614 11.9926 2.11314 10.8496M19.0251 1.25259L18.9271 1.07159L18.7471 0.972593C18.6681 0.930593 16.8361 -0.0224072 14.2551 0.000592752C12.7791 0.0395928 11.2901 0.384593 9.83214 1.02759C8.06114 1.80659 6.33014 3.03559 4.67714 4.68759C3.03814 6.32759 1.81114 8.05859 1.02814 9.83059C0.385143 11.2886 0.0401426 12.7776 0.00314262 14.2546C-0.0628574 16.8006 0.932143 18.6676 0.974143 18.7456L1.07214 18.9256L1.25214 19.0236C1.28014 19.0386 1.53514 19.1726 1.96014 19.3386L1.96214 19.3466C1.96414 19.3456 1.97214 19.3446 1.97514 19.3436C2.71514 19.6296 3.96614 20.0006 5.47314 20.0006C7.03814 20.0006 8.61614 19.6526 10.1661 18.9696C11.9381 18.1906 13.6691 16.9626 15.3221 15.3086C16.9611 13.6706 18.1881 11.9406 18.9721 10.1666C19.6141 8.70959 19.9591 7.21959 19.9971 5.74259C20.0611 3.19559 19.0671 1.33059 19.0251 1.25259" fill="#001E28"/>
</svg>
