<svg width="20" height="20" viewBox="0 0 20 20" fill="none" xmlns="http://www.w3.org/2000/svg">
<g clip-path="url(#clip0_8438_67740)">
<path fill-rule="evenodd" clip-rule="evenodd" d="M0 4.46927L2.471 1.99927H17.53L20 4.46927V15.4892L17.53 17.9592H2.471L0 15.4842V4.46927ZM1.368 5.03527V14.9192L3.038 16.5932H16.964L18.633 14.9232V5.03527L16.964 3.36527H3.037L1.368 5.03527ZM4.81199 12.9571C4.81199 12.9829 4.79361 13 4.76605 13H3.74614C3.71857 13 3.7002 12.9829 3.7002 12.9571V7.04286C3.7002 7.01714 3.71857 7 3.74614 7H4.76605C4.79361 7 4.81199 7.01714 4.81199 7.04286V9.28C4.81199 9.39143 4.91306 9.48571 5.03251 9.48571H7.91765C8.0371 9.48571 8.13817 9.39143 8.13817 9.28V7.04286C8.13817 7.01714 8.15655 7 8.18412 7H9.20402C9.2224 7 9.24078 7.01714 9.24078 7.04286V12.9571C9.24078 12.9829 9.2224 13 9.20402 13H8.18412C8.15655 13 8.13817 12.9829 8.13817 12.9571V10.72C8.13817 10.6086 8.0371 10.5143 7.91765 10.5143H5.03251C4.91306 10.5143 4.81199 10.6086 4.81199 10.72V12.9571ZM15.3268 12.88C15.2441 12.9571 15.1339 13 15.0144 13H10.8061C10.7786 13 10.7602 12.9829 10.7602 12.9571V7.04286C10.7602 7.01714 10.7786 7 10.8061 7H15.0144C15.1339 7 15.2441 7.04286 15.3268 7.12L16.1721 7.91714C16.2548 7.99429 16.3008 8.09714 16.3008 8.20857V11.7914C16.3008 11.9029 16.2548 12.0057 16.1721 12.0829L15.3268 12.88ZM14.9759 11.9629H12.0907C11.9713 11.9629 11.8702 11.8686 11.8702 11.7571V8.24286C11.8702 8.12286 11.9713 8.03714 12.0907 8.03714H14.9759C15.0953 8.03714 15.1964 8.12286 15.1964 8.24286V11.7571C15.1964 11.8686 15.0953 11.9629 14.9759 11.9629Z" fill="#001E28"/>
<path d="M2.471 1.99927V1.89927H2.42959L2.4003 1.92854L2.471 1.99927ZM0 4.46927L-0.0706964 4.39854L-0.1 4.42783V4.46927H0ZM17.53 1.99927L17.6007 1.92856L17.5714 1.89927H17.53V1.99927ZM20 4.46927H20.1V4.42785L20.0707 4.39856L20 4.46927ZM20 15.4892L20.0707 15.5599L20.1 15.5307V15.4892H20ZM17.53 17.9592V18.0592H17.5714L17.6007 18.0299L17.53 17.9592ZM2.471 17.9592L2.40023 18.0299L2.42953 18.0592H2.471V17.9592ZM0 15.4842H-0.1V15.5256L-0.0707678 15.5549L0 15.4842ZM1.368 14.9192H1.268V14.9606L1.2972 14.9899L1.368 14.9192ZM1.368 5.03527L1.29727 4.96458L1.268 4.99386V5.03527H1.368ZM3.038 16.5932L2.9672 16.6639L2.99651 16.6932H3.038V16.5932ZM16.964 16.5932V16.6932H17.0054L17.0347 16.6639L16.964 16.5932ZM18.633 14.9232L18.7037 14.9939L18.733 14.9646V14.9232H18.633ZM18.633 5.03527H18.733V4.99386L18.7037 4.96458L18.633 5.03527ZM16.964 3.36527L17.0347 3.29458L17.0054 3.26527H16.964V3.36527ZM3.037 3.36527V3.26527H2.99556L2.96627 3.29458L3.037 3.36527ZM15.3268 12.88L15.395 12.9531L15.3954 12.9528L15.3268 12.88ZM15.3268 7.12L15.3954 7.04724L15.395 7.04688L15.3268 7.12ZM16.1721 7.91714L16.1035 7.9899L16.1039 7.99027L16.1721 7.91714ZM16.1721 12.0829L16.1039 12.0097L16.1035 12.0101L16.1721 12.0829ZM2.471 1.99927L2.4003 1.92854L-0.0706964 4.39854L0 4.46927L0.0706964 4.53999L2.5417 2.06999L2.471 1.99927ZM17.53 1.99927V1.89927H2.471V1.99927V2.09927H17.53V1.99927ZM20 4.46927L20.0707 4.39856L17.6007 1.92856L17.53 1.99927L17.4593 2.06998L19.9293 4.53998L20 4.46927ZM20 15.4892H20.1V4.46927H20H19.9V15.4892H20ZM17.53 17.9592L17.6007 18.0299L20.0707 15.5599L20 15.4892L19.9293 15.4185L17.4593 17.8885L17.53 17.9592ZM2.471 17.9592V18.0592H17.53V17.9592V17.8592H2.471V17.9592ZM0 15.4842L-0.0707678 15.5549L2.40023 18.0299L2.471 17.9592L2.54177 17.8886L0.0707678 15.4136L0 15.4842ZM0 4.46927H-0.1V15.4842H0H0.1V4.46927H0ZM1.368 14.9192H1.468V5.03527H1.368H1.268V14.9192H1.368ZM3.038 16.5932L3.1088 16.5226L1.4388 14.8486L1.368 14.9192L1.2972 14.9899L2.9672 16.6639L3.038 16.5932ZM16.964 16.5932V16.4932H3.038V16.5932V16.6932H16.964V16.5932ZM18.633 14.9232L18.5623 14.8525L16.8933 16.5225L16.964 16.5932L17.0347 16.6639L18.7037 14.9939L18.633 14.9232ZM18.633 5.03527H18.533V14.9232H18.633H18.733V5.03527H18.633ZM16.964 3.36527L16.8933 3.43596L18.5623 5.10596L18.633 5.03527L18.7037 4.96458L17.0347 3.29458L16.964 3.36527ZM3.037 3.36527V3.46527H16.964V3.36527V3.26527H3.037V3.36527ZM1.368 5.03527L1.43873 5.10596L3.10773 3.43596L3.037 3.36527L2.96627 3.29458L1.29727 4.96458L1.368 5.03527ZM4.76605 13V13.1C4.80055 13.1 4.83791 13.089 4.86757 13.0613C4.89786 13.0331 4.91199 12.9949 4.91199 12.9571H4.81199H4.71199C4.71199 12.9451 4.71693 12.9283 4.73114 12.9151C4.74472 12.9024 4.7591 12.9 4.76605 12.9V13ZM3.74614 13V13.1H4.76605V13V12.9H3.74614V13ZM3.7002 12.9571H3.6002C3.6002 12.9949 3.61433 13.0331 3.64462 13.0613C3.67428 13.089 3.71163 13.1 3.74614 13.1V13V12.9C3.75308 12.9 3.76746 12.9024 3.78104 12.9151C3.79525 12.9283 3.8002 12.9451 3.8002 12.9571H3.7002ZM3.7002 7.04286H3.6002V12.9571H3.7002H3.8002V7.04286H3.7002ZM3.74614 7V6.9C3.71163 6.9 3.67428 6.91099 3.64462 6.93866C3.61433 6.96692 3.6002 7.0051 3.6002 7.04286H3.7002H3.8002C3.8002 7.0549 3.79525 7.07165 3.78104 7.08491C3.76746 7.09758 3.75308 7.1 3.74614 7.1V7ZM4.76605 7V6.9H3.74614V7V7.1H4.76605V7ZM4.81199 7.04286H4.91199C4.91199 7.0051 4.89786 6.96692 4.86757 6.93866C4.83791 6.91099 4.80055 6.9 4.76605 6.9V7V7.1C4.7591 7.1 4.74472 7.09758 4.73114 7.08491C4.71693 7.07165 4.71199 7.0549 4.71199 7.04286H4.81199ZM4.81199 9.28H4.91199V7.04286H4.81199H4.71199V9.28H4.81199ZM5.03251 9.48571V9.38571C4.96163 9.38571 4.91199 9.32977 4.91199 9.28H4.81199H4.71199C4.71199 9.45309 4.86449 9.58571 5.03251 9.58571V9.48571ZM7.91765 9.48571V9.38571H5.03251V9.48571V9.58571H7.91765V9.48571ZM8.13817 9.28H8.03817C8.03817 9.32977 7.98853 9.38571 7.91765 9.38571V9.48571V9.58571C8.08567 9.58571 8.23817 9.45309 8.23817 9.28H8.13817ZM8.13817 7.04286H8.03817V9.28H8.13817H8.23817V7.04286H8.13817ZM8.18412 7V6.9C8.14961 6.9 8.11226 6.91099 8.0826 6.93866C8.05231 6.96692 8.03817 7.00509 8.03817 7.04286H8.13817H8.23817C8.23817 7.05491 8.23323 7.07165 8.21902 7.08491C8.20544 7.09758 8.19106 7.1 8.18412 7.1V7ZM9.20402 7V6.9H8.18412V7V7.1H9.20402V7ZM9.24078 7.04286H9.34078C9.34078 6.97005 9.28543 6.9 9.20402 6.9V7V7.1C9.15937 7.1 9.14078 7.06423 9.14078 7.04286H9.24078ZM9.24078 12.9571H9.34078V7.04286H9.24078H9.14078V12.9571H9.24078ZM9.20402 13V13.1C9.28543 13.1 9.34078 13.0299 9.34078 12.9571H9.24078H9.14078C9.14078 12.9358 9.15937 12.9 9.20402 12.9V13ZM8.18412 13V13.1H9.20402V13V12.9H8.18412V13ZM8.13817 12.9571H8.03817C8.03817 12.9949 8.05231 13.0331 8.0826 13.0613C8.11226 13.089 8.14961 13.1 8.18412 13.1V13V12.9C8.19106 12.9 8.20544 12.9024 8.21902 12.9151C8.23323 12.9283 8.23817 12.9451 8.23817 12.9571H8.13817ZM8.13817 10.72H8.03817V12.9571H8.13817H8.23817V10.72H8.13817ZM7.91765 10.5143V10.6143C7.98853 10.6143 8.03817 10.6702 8.03817 10.72H8.13817H8.23817C8.23817 10.5469 8.08567 10.4143 7.91765 10.4143V10.5143ZM5.03251 10.5143V10.6143H7.91765V10.5143V10.4143H5.03251V10.5143ZM4.81199 10.72H4.91199C4.91199 10.6702 4.96163 10.6143 5.03251 10.6143V10.5143V10.4143C4.86449 10.4143 4.71199 10.5469 4.71199 10.72H4.81199ZM4.81199 12.9571H4.91199V10.72H4.81199H4.71199V12.9571H4.81199ZM15.0144 13V13.1C15.1581 13.1 15.293 13.0483 15.395 12.9531L15.3268 12.88L15.2586 12.8069C15.1952 12.866 15.1096 12.9 15.0144 12.9V13ZM10.8061 13V13.1H15.0144V13V12.9H10.8061V13ZM10.7602 12.9571H10.6602C10.6602 12.9949 10.6743 13.0331 10.7046 13.0613C10.7343 13.089 10.7716 13.1 10.8061 13.1V13V12.9C10.8131 12.9 10.8275 12.9024 10.841 12.9151C10.8553 12.9283 10.8602 12.9451 10.8602 12.9571H10.7602ZM10.7602 7.04286H10.6602V12.9571H10.7602H10.8602V7.04286H10.7602ZM10.8061 7V6.9C10.7716 6.9 10.7343 6.91099 10.7046 6.93866C10.6743 6.96692 10.6602 7.00509 10.6602 7.04286H10.7602H10.8602C10.8602 7.05491 10.8553 7.07165 10.841 7.08491C10.8275 7.09758 10.8131 7.1 10.8061 7.1V7ZM15.0144 7V6.9H10.8061V7V7.1H15.0144V7ZM15.3268 7.12L15.395 7.04688C15.293 6.95173 15.1581 6.9 15.0144 6.9V7V7.1C15.1096 7.1 15.1952 7.13398 15.2586 7.19312L15.3268 7.12ZM16.1721 7.91714L16.2407 7.84439L15.3954 7.04725L15.3268 7.12L15.2582 7.19275L16.1035 7.9899L16.1721 7.91714ZM16.3008 8.20857H16.4008C16.4008 8.06844 16.3426 7.9394 16.2404 7.84402L16.1721 7.91714L16.1039 7.99027C16.1671 8.04917 16.2008 8.12585 16.2008 8.20857H16.3008ZM16.3008 11.7914H16.4008V8.20857H16.3008H16.2008V11.7914H16.3008ZM16.1721 12.0829L16.2404 12.156C16.3426 12.0606 16.4008 11.9316 16.4008 11.7914H16.3008H16.2008C16.2008 11.8742 16.1671 11.9508 16.1039 12.0097L16.1721 12.0829ZM15.3268 12.88L15.3954 12.9528L16.2407 12.1556L16.1721 12.0829L16.1035 12.0101L15.2582 12.8072L15.3268 12.88ZM12.0907 11.9629V12.0629H14.9759V11.9629V11.8629H12.0907V11.9629ZM11.8702 11.7571H11.7702C11.7702 11.9302 11.9227 12.0629 12.0907 12.0629V11.9629V11.8629C12.0198 11.8629 11.9702 11.8069 11.9702 11.7571H11.8702ZM11.8702 8.24286H11.7702V11.7571H11.8702H11.9702V8.24286H11.8702ZM12.0907 8.03714V7.93714C11.9255 7.93714 11.7702 8.05859 11.7702 8.24286H11.8702H11.9702C11.9702 8.18712 12.017 8.13714 12.0907 8.13714V8.03714ZM14.9759 8.03714V7.93714H12.0907V8.03714V8.13714H14.9759V8.03714ZM15.1964 8.24286H15.2964C15.2964 8.05859 15.141 7.93714 14.9759 7.93714V8.03714V8.13714C15.0496 8.13714 15.0964 8.18712 15.0964 8.24286H15.1964ZM15.1964 11.7571H15.2964V8.24286H15.1964H15.0964V11.7571H15.1964ZM14.9759 11.9629V12.0629C15.1439 12.0629 15.2964 11.9302 15.2964 11.7571H15.1964H15.0964C15.0964 11.8069 15.0467 11.8629 14.9759 11.8629V11.9629Z" fill="#001E28"/>
</g>
<defs>
<clipPath id="clip0_8438_67740">
<rect width="20" height="20" fill="white"/>
</clipPath>
</defs>
</svg>
