<svg width="20" height="20" viewBox="0 0 20 20" fill="none" xmlns="http://www.w3.org/2000/svg">
<path fill-rule="evenodd" clip-rule="evenodd" d="M9.97601 18.626C6.17101 18.626 3.07501 15.531 3.07501 11.726C3.07501 7.92 6.17101 4.823 9.97601 4.823C13.781 4.823 16.877 7.92 16.877 11.726C16.877 15.531 13.781 18.626 9.97601 18.626M15.39 5.517L16.915 3.51L15.821 2.679L14.288 4.695C13.216 4.035 11.985 3.63 10.663 3.519V1.375H13.081V0H6.87101V1.375H9.28901V3.519C5.05101 3.874 1.70001 7.397 1.70001 11.726C1.70001 16.288 5.41301 20 9.97601 20C14.539 20 18.252 16.288 18.252 11.726C18.252 9.241 17.129 7.035 15.39 5.517" fill="#001E28"/>
</svg>
