<svg width="20" height="20" viewBox="0 0 20 20" fill="none" xmlns="http://www.w3.org/2000/svg">
<g clip-path="url(#clip0_8438_68233)">
<path d="M19.248 4.30273V7.80176L19.0479 8.00195L17.8008 9.24805L19.7979 11.2461L19.999 11.4463V17.5381L19.7969 17.7383L17.7256 19.7998L17.5254 19.999H2.47852L2.2793 19.8066L0.208984 17.8057L0 17.6035V11.4463L2.47168 8.97461H2.48145L11.2451 0.200195L11.4463 0H14.9453L19.248 4.30273ZM1.36914 12.0146V17.0215L3.03223 18.6289H13.2871V17.2529H14.6562V18.6289H16.96L18.6289 16.9678V12.0137L16.959 10.3438H14.6562V11.7295H13.2871V10.3438H3.04004L1.36914 12.0146ZM14.6562 16.332H13.2871V14.9521H14.6562V16.332ZM14.6562 14.0312H13.2871V12.6514H14.6562V14.0312ZM10.3789 3.00586L11.3613 3.98047L10.3965 4.95312L9.41016 3.97559L4.41797 8.97461H14.4092L14.2979 8.86328L15.2666 7.89453L16.2422 8.87012L17.8789 7.2334V4.87109L14.377 1.36914H12.0146L10.3789 3.00586ZM14.6162 7.24414L13.6475 8.21289L12.667 7.23242L13.6357 6.26367L14.6162 7.24414ZM12.9873 5.61523L12.5 6.09766L12.0137 6.5791L11.043 5.59863L12.0176 4.63574L12.9873 5.61523Z" fill="#001E28"/>
</g>
<defs>
<clipPath id="clip0_8438_68233">
<rect width="20" height="20" fill="white"/>
</clipPath>
</defs>
</svg>
