<svg width="24" height="16" viewBox="0 0 24 16" fill="none" xmlns="http://www.w3.org/2000/svg">
<g clip-path="url(#clip0_986_12923)">
<path d="M0 16H5.96V1.90735e-06H0V16Z" fill="#FAFAFA"/>
<mask id="mask0_986_12923" style="mask-type:luminance" maskUnits="userSpaceOnUse" x="0" y="0" width="24" height="16">
<path d="M0 16H24V1.90735e-06H0V16Z" fill="white"/>
</mask>
<g mask="url(#mask0_986_12923)">
<path d="M10.188 8C10.188 10.6557 12.352 12.809 15.021 12.809C16.975 12.809 18.657 11.6527 19.418 9.99204C19.348 10.0637 19.274 10.1353 19.199 10.202C17.37 11.8189 14.569 11.6557 12.944 9.83583C11.32 8.01692 11.484 5.23085 13.313 3.61294C13.39 3.54528 13.469 3.4806 13.549 3.41891C11.6 4.03881 10.188 5.85473 10.188 8Z" fill="white"/>
</g>
<mask id="mask1_986_12923" style="mask-type:luminance" maskUnits="userSpaceOnUse" x="0" y="0" width="24" height="16">
<path d="M0 16H24V1.90735e-06H0V16Z" fill="white"/>
</mask>
<g mask="url(#mask1_986_12923)">
<path d="M15.0206 12.8089C12.3516 12.8089 10.1876 10.6557 10.1876 7.99998C10.1876 5.8557 11.6006 4.03978 13.5486 3.41889C13.4696 3.48058 13.3896 3.54426 13.3126 3.61292C11.4846 5.22983 11.3196 8.0169 12.9446 9.8368C14.5706 11.6557 17.3706 11.8189 19.1986 10.202C19.2756 10.1343 19.3476 10.0637 19.4166 9.99302C18.6566 11.6537 16.9746 12.8089 15.0206 12.8089ZM16.7826 4.40297L17.5606 5.27162L18.6316 4.80595L18.0406 5.80993L18.8186 6.68058L17.6736 6.43083L17.0836 7.4368L16.9686 6.27759L15.8256 6.02884L16.8976 5.56018L16.7826 4.40297ZM5.95959 16.001H23.9996V-1.71661e-05H5.95959V16.001Z" fill="#166734"/>
</g>
<mask id="mask2_986_12923" style="mask-type:luminance" maskUnits="userSpaceOnUse" x="0" y="0" width="24" height="16">
<path d="M0 16H24V1.90735e-06H0V16Z" fill="white"/>
</mask>
<g mask="url(#mask2_986_12923)">
<path d="M18.0399 5.81029L18.6319 4.80531L17.5609 5.27198L16.7819 4.40233L16.8969 5.56153L15.8249 6.0282L16.9689 6.27695L17.0829 7.43616L17.6739 6.43118L18.8179 6.68093L18.0399 5.81029Z" fill="white"/>
</g>
</g>
<defs>
<clipPath id="clip0_986_12923">
<rect width="24" height="16" fill="white"/>
</clipPath>
</defs>
</svg>
