<svg width="20" height="20" viewBox="0 0 20 20" fill="none" xmlns="http://www.w3.org/2000/svg">
<path d="M7.55639 10.8376C7.52279 10.8036 7.45439 10.7752 7.40319 10.7752H5.44519C5.39399 10.7752 5.32599 10.8036 5.29199 10.8376L4.71279 11.4224C4.67879 11.4556 4.65039 11.524 4.65039 11.5756V14.8616C4.65039 14.8784 4.66159 14.89 4.67879 14.89H5.33159C5.34879 14.89 5.35999 14.8784 5.35999 14.8616V13.6124C5.35999 13.5332 5.42239 13.4708 5.50199 13.4708H7.34679C7.42639 13.4708 7.48879 13.5332 7.48879 13.6124V14.8616C7.48879 14.8784 7.49999 14.89 7.51719 14.89H8.16999C8.18719 14.89 8.19839 14.8784 8.19839 14.8616V11.5696C8.19839 11.518 8.16999 11.4504 8.13599 11.4164L7.55679 10.8372L7.55639 10.8376ZM7.48839 12.6196C7.48839 12.6988 7.42599 12.7612 7.34639 12.7612H5.50159C5.42199 12.7612 5.35959 12.6988 5.35959 12.6196V11.6264C5.35959 11.5464 5.42199 11.484 5.50159 11.484H7.34639C7.42599 11.484 7.48839 11.5464 7.48839 11.6264V12.6196Z" fill="#001E28"/>
<path d="M11.6712 10.8376C11.6372 10.8036 11.5688 10.7752 11.518 10.7752H8.79879C8.78159 10.7752 8.77039 10.7868 8.77039 10.8036V14.8624C8.77039 14.8792 8.78159 14.8908 8.79879 14.8908H11.518C11.5688 14.8908 11.6372 14.8624 11.6712 14.8284L12.2556 14.2436C12.2896 14.2096 12.318 14.142 12.318 14.0904V11.5768C12.318 11.5252 12.2896 11.4568 12.2556 11.4236L11.6712 10.8388V10.8376ZM11.6088 14.0388C11.6088 14.1188 11.5464 14.1804 11.4668 14.1804H9.62199C9.54239 14.1804 9.47999 14.1188 9.47999 14.0388V11.6268C9.47999 11.5468 9.54239 11.4844 9.62199 11.4844H11.4668C11.5464 11.4844 11.6088 11.5468 11.6088 11.6268V14.0388Z" fill="#001E28"/>
<path d="M19.456 3.26119L17.61 1.41559H5.34481L3.49961 3.26159V4.78439L1.98601 6.29839V7.79759L0.544006 9.23959V16.7392L2.38921 18.5844H14.6572L16.4908 16.7196L16.4924 15.3084L18.0048 13.7712L18.0068 12.2044L19.4464 10.7416L19.456 3.26119ZM15.7584 16.4188L14.3492 17.8528H2.69321L1.27641 16.436V9.54399L2.69321 8.12719H14.3512L15.768 9.54359L15.7584 16.4192V16.4188ZM17.28 13.4744L16.494 14.274L16.5004 9.23999L14.6552 7.39479H2.71081V6.59959L4.26841 5.04119H15.7316L17.2888 6.59959L17.28 13.4748V13.4744ZM18.7136 10.4404L18.008 11.158L18.0144 6.29959L16.0324 4.31599H4.23161V3.56439L5.64841 2.14759H17.3056L18.7236 3.56519L18.7136 10.4404Z" fill="#001E28"/>
</svg>
