<svg width="20" height="20" viewBox="0 0 20 20" fill="none" xmlns="http://www.w3.org/2000/svg">
<path d="M1.21451 5.28308C3.31888 1.40722 7.72186 -0.623011 12.0358 0.293823L10.86 1.45105C10.5618 1.42012 10.2614 1.40426 9.96158 1.40417C5.19357 1.40431 1.32791 5.26995 1.32779 10.038C1.32779 14.8061 5.19349 18.6716 9.96158 18.6718C12.4075 18.6713 14.7384 17.6334 16.3756 15.8163C18.0129 13.9991 18.8031 11.5733 18.5495 9.1405L19.7057 7.96375C20.6226 12.2777 18.5933 16.6816 14.7174 18.786C10.8417 20.8903 6.04304 20.1944 2.92447 17.076C-0.194076 13.9575 -0.889824 9.15895 1.21451 5.28308ZM8.92935 6.42468C7.29584 6.90863 6.17652 8.34417 6.17642 10.038C6.17979 12.1269 7.87266 13.8195 9.96158 13.8221C11.6555 13.8221 13.0942 12.7046 13.5758 11.0741L14.9489 11.0731C14.4336 13.4441 12.3946 15.1512 9.96255 15.1512C7.13907 15.1487 4.851 12.8604 4.8483 10.037C4.8483 7.60493 6.55531 5.56593 8.92935 5.05066V6.42468ZM16.4889 3.5116H19.9235V4.88562L15.8014 9.00769H12.3669L10.3053 11.0682H8.9313V9.69421L10.9928 7.63367V4.19812L15.1149 0.0760498H16.4801L16.4889 3.5116ZM12.3669 4.88562V7.63367H15.1149L17.8629 4.88562H15.1149V2.13757L12.3669 4.88562Z" fill="#001E28"/>
</svg>
