<svg width="20" height="20" viewBox="0 0 20 20" fill="none" xmlns="http://www.w3.org/2000/svg">
<g clip-path="url(#clip0_8438_69482)">
<path d="M8.94931 4.364H5.75464V1.4996L4.75665 0H2.95681V2.9132L1.09445 4.7792H0V5.5042H1.39482L3.68018 3.2142V0.7248H4.3696L5.03126 1.7184V5.089H8.6715L9.24728 5.6076L9.15242 6.0786H7.70767V6.8034H9.00642L8.8097 7.7814H7.36435V8.5062H8.66371L8.46679 9.4852H7.02124V10.21H8.321L8.2503 10.5608L7.43366 11.2758L2.60051 11.2232L1.35428 10.3908H0V11.1156H1.13499L2.37803 11.946L7.70188 12.0046L8.91136 10.9456L10.039 5.3458L8.94931 4.364Z" fill="#001E28"/>
<path d="M12.2958 8.36363L17.2919 8.41843L18.5774 9.27703H19.9717V8.55223H18.7967L17.5142 7.69543L12.0275 7.63483L10.7853 8.72223L9.62415 14.491L10.7406 15.4962H14.0445V18.4604L15.0692 20H16.9086V17.0008L18.8373 15.0674H19.9717V14.3426H18.5369L16.185 16.6998V19.2752H15.4563L14.7678 18.2416V14.7714H11.0184L10.4158 14.2292L10.5167 13.728H12.0174V13.0032H10.6625L10.8704 11.9696H12.3716V11.2446H11.0164L11.2241 10.212H12.7257V9.48723H11.3699L11.4464 9.10703L12.2958 8.36363Z" fill="#001E28"/>
</g>
<defs>
<clipPath id="clip0_8438_69482">
<rect width="19.9717" height="20" fill="white"/>
</clipPath>
</defs>
</svg>
