<svg width="20" height="20" viewBox="0 0 20 20" fill="none" xmlns="http://www.w3.org/2000/svg">
<path fill-rule="evenodd" clip-rule="evenodd" d="M9.346 0L7.245 6.847L0.404 6.832L0 8.141L5.544 12.354L3.415 19.191L4.473 20L9.999 15.758L15.526 20L16.584 19.191L14.455 12.354L19.999 8.141L19.596 6.832L12.753 6.847L10.654 0H9.346ZM8.399 7.793L9.999 2.575L11.6 7.793L12.256 8.293L17.468 8.282L13.245 11.493L12.994 12.302L14.616 17.511L10.404 14.281H9.594L5.384 17.511L7.005 12.302L6.754 11.493L2.53 8.282L7.744 8.293L8.399 7.793Z" fill="#001E28"/>
</svg>
