<svg width="20" height="20" viewBox="0 0 20 20" fill="none" xmlns="http://www.w3.org/2000/svg">
<path d="M10.6934 20H9.32031V17.2412H10.6934V20ZM17.5234 16.5928L16.5527 17.5635L14.6035 15.6133L15.5752 14.6436L17.5234 16.5928ZM5.41504 15.5674L3.46582 17.5186L2.49512 16.5479L4.44434 14.5967L5.41504 15.5674ZM10 4.63281C12.9579 4.63281 15.365 7.04118 15.3652 10C15.3652 12.959 12.958 15.3672 10 15.3672C7.042 15.3672 4.63477 12.959 4.63477 10C4.63498 7.04118 7.04213 4.63281 10 4.63281ZM10 6.00684C7.79813 6.00684 6.00803 7.79818 6.00781 10C6.00781 12.202 7.798 13.9941 10 13.9941C12.202 13.9941 13.9922 12.202 13.9922 10C13.992 7.79818 12.2019 6.00684 10 6.00684ZM2.75684 10.6865H0V9.31348H2.75684V10.6865ZM20 10.6865H17.2432V9.31348H20V10.6865ZM5.41602 4.44434L4.44434 5.41602L2.49512 3.46387L3.4668 2.49316L5.41602 4.44434ZM17.5234 3.46289L15.5752 5.41504L14.6045 4.44434L16.5527 2.49316L17.5234 3.46289ZM10.6934 0V2.75879H9.32031V0H10.6934Z" fill="#001E28"/>
</svg>
