<svg width="24" height="16" viewBox="0 0 24 16" fill="none" xmlns="http://www.w3.org/2000/svg">
<g clip-path="url(#clip0_986_17614)">
<g clip-path="url(#clip1_986_17614)">
<path d="M0 -2.67029e-05V0.0347986L7.97227 5.32629H23.9998V-2.67029e-05H0Z" fill="#121212"/>
<path d="M7.97247 5.32667L11.9996 8.00028L7.97247 10.6739H24V5.32667H7.97247Z" fill="#FAFAFA"/>
<path d="M7.97263 10.6737L0.000366211 15.9652V16H24.0002V10.6737H7.97263Z" fill="#197B49"/>
<path d="M0 15.9653L7.97227 10.6738L12.0004 8.00023L7.97227 5.32662L0 0.0351257V15.9653ZM4.29814 6.85397L4.54815 7.48382L5.19817 7.28581L4.85916 7.87287L5.42118 8.25495L4.74716 8.35744L4.79816 9.03206L4.29814 8.57236L3.79813 9.03206L3.84813 8.35744L3.17511 8.25495L3.73712 7.87287L3.39811 7.28581L4.04813 7.48382L4.29814 6.85397Z" fill="#CE2931"/>
<path d="M3.84783 8.35728L3.79783 9.0329L4.29784 8.5732L4.79786 9.0329L4.74786 8.35728L5.42088 8.2548L4.85886 7.87271L5.19787 7.28565L4.54785 7.48465L4.29784 6.85481L4.04783 7.48465L3.39781 7.28565L3.73682 7.87271L3.1748 8.2548L3.84783 8.35728Z" fill="white"/>
</g>
</g>
<defs>
<clipPath id="clip0_986_17614">
<rect width="24" height="16" fill="white"/>
</clipPath>
<clipPath id="clip1_986_17614">
<rect width="24" height="16" fill="white"/>
</clipPath>
</defs>
</svg>
