<svg width="48" height="48" viewBox="0 0 48 48" fill="none" xmlns="http://www.w3.org/2000/svg">
<path d="M36.3533 10.7027L36.3022 9.89289H29.5213L31.4662 1.78044L29.9604 1.02667L27.4578 4.04711L26.8271 0.202667L25.1818 0L23.696 3.43467L22.2102 0L20.5649 0.202667L19.9342 4.04711L17.4315 1.02667L15.9258 1.78044L17.8707 9.89289H11.0898L11.0387 10.7027C10.9987 11.3502 10.1653 26.6022 18.844 40.8533L14.9218 45.4004V48H32.4711V45.4004L28.5498 40.8538C37.2271 26.6027 36.3938 11.3502 36.3533 10.7027ZM25.5449 38.6751H21.8471C21.028 36.8298 17.2049 27.6791 17.1693 17.512L20.4169 15.8293H26.9747L30.2222 17.512C30.1867 27.6796 26.3644 36.8298 25.5449 38.6751ZM26.7075 14.1027H20.6849L20.0707 11.6196H27.3222L26.7075 14.1027ZM27.1773 39.264C28.1653 37.0373 31.8182 28.1062 31.9364 17.8844H34.3138C33.6947 23.5053 31.9702 31.6782 27.3578 39.4733L27.1773 39.264ZM34.6533 11.6196C34.6649 12.5076 34.6462 14.0969 34.4804 16.1573H31.364L28.3631 14.6027L29.1018 11.6191L34.6533 11.6196ZM18.4729 4.98933L19.8133 6.60889L21.332 6.19689L21.7929 3.388L22.904 5.95467H24.4889L25.6 3.388L26.0609 6.19689L27.5795 6.60889L28.92 4.98933L27.7449 9.89244H19.6489L18.4729 4.98933ZM12.7395 11.6196H18.2898L19.0284 14.6031L15.9422 16.2018H12.9151C12.7471 14.12 12.7271 12.5138 12.7395 11.6196ZM13.0835 17.9284H15.4569C15.5849 28.132 19.228 37.0404 20.2147 39.264L20.0351 39.4724C15.4342 31.6978 13.7058 23.548 13.0835 17.9284ZM30.744 46.2733H16.6484V46.0431L21.5147 40.4022H25.8782L30.7444 46.0431L30.744 46.2733Z" fill="#001E28"/>
</svg>
