<svg width="20" height="20" viewBox="0 0 20 20" fill="none" xmlns="http://www.w3.org/2000/svg">
<path fill-rule="evenodd" clip-rule="evenodd" d="M13.4584 13.8354C14.5089 12.8862 15.1831 11.5278 15.1831 10.0037C15.1831 8.82383 14.7717 7.74929 14.1066 6.87641L14.4246 6.55635C16.1142 7.32288 17.5369 8.50478 18.4348 10.0037C17.3703 11.7816 15.5754 13.121 13.4584 13.8354V13.8354ZM1.56416 10.0027C2.62968 8.22385 4.4246 6.88544 6.54159 6.17108C5.49012 7.12121 4.8169 8.47869 4.8169 10.0037C4.8169 11.2017 5.2423 12.2923 5.92656 13.1702L5.62556 13.4742C3.91291 12.7076 2.47115 11.5167 1.56416 10.0027V10.0027ZM6.18742 10.0037C6.18742 7.90179 7.89806 6.19114 10 6.19114C10.8077 6.19114 11.5551 6.44799 12.1732 6.87741L10.6522 8.41047C10.4505 8.3282 10.2308 8.28104 10 8.28104C9.04886 8.28104 8.27631 9.05259 8.27631 10.0037C8.27631 10.2385 8.32447 10.4642 8.41076 10.6689L6.89275 12.198C6.45229 11.5759 6.18742 10.8214 6.18742 10.0037V10.0037ZM13.8126 10.0037C13.8126 12.1047 12.1019 13.8153 10 13.8153C9.21039 13.8153 8.47597 13.5735 7.86696 13.1621L9.40403 11.614C9.59065 11.6823 9.7893 11.7254 10 11.7254C10.9501 11.7254 11.7237 10.9539 11.7237 10.0037C11.7237 9.78801 11.6795 9.58434 11.6063 9.39472L13.1404 7.84962C13.5628 8.46364 13.8126 9.20409 13.8126 10.0037V10.0037ZM19.8274 9.67966C18.8773 7.9048 17.3202 6.48311 15.444 5.52996L18.6837 2.26619L17.7104 1.3L14.0905 4.94804C12.8093 4.48953 11.4287 4.22365 10 4.22365C5.80215 4.22365 1.94442 6.36472 0.172569 9.67865L0 10.0027L0.172569 10.3258C1.12973 12.1167 2.70693 13.5484 4.6052 14.5006L1.47186 17.658L2.44507 18.6232L5.96468 15.0785C7.23086 15.5239 8.59135 15.7828 10 15.7828C14.1968 15.7828 18.0546 13.6417 19.8274 10.3268L20 10.0037L19.8274 9.67966Z" fill="#001E28"/>
</svg>
