<svg width="20" height="20" viewBox="0 0 20 20" fill="none" xmlns="http://www.w3.org/2000/svg">
<path fill-rule="evenodd" clip-rule="evenodd" d="M11.4105 2.48895L11.3295 2.50395C7.34847 3.27495 4.73647 7.14195 5.50847 11.125C6.27947 15.107 10.1425 17.718 14.1295 16.947C14.1545 16.942 14.1805 16.937 14.2045 16.93C12.2855 15.707 10.7255 13.208 10.1475 10.226C9.56847 7.24295 10.0835 4.34095 11.4105 2.48895M12.7275 18.456C8.63147 18.456 4.96747 15.552 4.16047 11.385C3.24447 6.65995 6.34347 2.06995 11.0695 1.15595C11.7575 1.02195 12.4835 0.967953 13.2305 1.01895L13.5585 2.28395C11.7255 3.44595 10.8575 6.67495 11.4945 9.96595C12.1325 13.254 14.1425 15.927 16.2745 16.32L16.4435 17.617C15.7745 17.931 15.0835 18.159 14.3905 18.295C13.8325 18.403 13.2755 18.456 12.7275 18.456" fill="#001E28"/>
</svg>
