<svg width="20" height="20" viewBox="0 0 20 20" fill="none" xmlns="http://www.w3.org/2000/svg">
<path fill-rule="evenodd" clip-rule="evenodd" d="M18.6455 10.3325L15.1485 9.45949C16.6025 7.83449 17.2245 4.90349 16.4755 2.77349C15.8455 0.984488 14.4045 0.000488281 12.4195 0.000488281C10.9865 0.000488281 9.81849 0.523488 9.04449 1.51549C8.48849 2.22649 8.16549 3.16049 8.07349 4.19349C8.58449 4.27749 9.02549 4.46149 9.41149 4.71549C9.42449 3.77849 9.66549 2.93849 10.1205 2.35549C10.6335 1.69849 11.4075 1.36549 12.4195 1.36549C13.8205 1.36549 14.7515 1.99249 15.1865 3.22849C15.8245 5.03949 15.1425 7.78749 13.7825 8.88149L13.5275 9.08649V10.4625L17.9445 11.5645L18.6335 12.2625V18.6345H14.7965V20.0005H19.9995V11.6995L18.6455 10.3325Z" fill="#2F5491"/>
<path fill-rule="evenodd" clip-rule="evenodd" d="M14.797 16.1987L13.701 15.0977L9.319 14.0097V13.4577C10.05 13.1387 10.964 12.7417 11.92 12.3587C11.92 10.0047 11.606 6.15872 9.411 4.71572C9.026 4.46172 8.585 4.27772 8.074 4.19372C7.86 4.15872 7.636 4.13672 7.399 4.13672C3.358 4.13672 2.878 9.41872 2.878 12.3587C3.833 12.7417 4.747 13.1387 5.478 13.4577V14.0097L1.096 15.0977L0 16.1987V20.0007H7.399H12.42H14.797V18.6347V16.1987Z" fill="#EB0037"/>
</svg>
