<svg width="20" height="20" viewBox="0 0 20 20" fill="none" xmlns="http://www.w3.org/2000/svg">
<path d="M13.1631 0.142517C15.202 -0.126949 17.0265 0.427065 18.2998 1.70111C19.5738 2.97743 20.1255 4.80147 19.8584 6.83881C19.5981 8.81581 18.5938 10.7607 17.0283 12.3271C16.2688 13.0936 15.3947 13.7382 14.4375 14.2363C13.6266 14.6603 12.7548 14.956 11.8535 15.1142L4.27051 16.7177L0.987305 19.9999H0V19.0439L3.29199 15.747L4.89551 8.15619C5.21535 6.28979 6.19574 4.46144 7.67969 2.97748C9.24451 1.4096 11.1914 0.402872 13.1631 0.142517ZM4.81543 15.1972L7.73633 14.58C6.74729 14.069 5.94199 13.2628 5.43164 12.2734L4.81543 15.1972ZM14.1494 1.45013C13.8796 1.45023 13.6101 1.46929 13.3428 1.5058C11.6695 1.72718 10.0031 2.59476 8.65039 3.94818C7.46568 5.13291 6.65237 6.56211 6.32031 8.0224H6.32715L6.24414 8.41595C6.2445 8.41918 6.24448 8.42249 6.24414 8.42572C6.23116 8.49824 6.2201 8.56813 6.21094 8.64447C5.99954 10.2513 6.41384 11.6671 7.37793 12.6328C8.34204 13.5984 9.76025 14.0127 11.3633 13.7997C11.4358 13.7906 11.5085 13.779 11.5811 13.7675H11.5859L11.9844 13.6835V13.6904C13.4439 13.3583 14.8702 12.5456 16.0557 11.3593C16.7136 10.7045 17.2685 9.95358 17.7002 9.13177C18.1064 8.36101 18.3751 7.52499 18.4951 6.66205C18.7066 5.05518 18.293 3.63823 17.3281 2.67181C16.5297 1.87336 15.4196 1.45013 14.1494 1.45013ZM2.74805 0.0761108C3.47681 0.0761108 4.17605 0.365529 4.69141 0.880798C5.20671 1.3961 5.49602 2.09542 5.49609 2.82416C5.49609 4.34189 4.26578 5.5722 2.74805 5.5722C1.23034 5.57218 0 4.34187 0 2.82416C0.000144757 1.30657 1.23043 0.0761351 2.74805 0.0761108ZM2.74805 1.45013C1.98929 1.45016 1.37417 2.06543 1.37402 2.82416C1.37402 3.58301 1.9892 4.19816 2.74805 4.19818C3.11247 4.19818 3.46204 4.05352 3.71973 3.79584C3.97734 3.53816 4.12207 3.18852 4.12207 2.82416C4.12193 2.06542 3.50682 1.45013 2.74805 1.45013Z" fill="#001E28"/>
</svg>
