<svg width="20" height="20" viewBox="0 0 20 20" fill="none" xmlns="http://www.w3.org/2000/svg">
<path d="M2.86035 14.5172C2.96235 14.5172 3.05695 14.5566 3.12695 14.6266L3.85352 15.3551C3.92352 15.4251 3.96289 15.5197 3.96289 15.6217V16.7721C3.96289 16.78 3.95615 16.7886 3.94824 16.7965L3.51758 17.2272C3.50158 17.2422 3.50158 17.2668 3.51758 17.2818L3.94824 17.7203C3.95619 17.7283 3.96289 17.7368 3.96289 17.7447V18.8951C3.96289 18.9971 3.92352 19.0917 3.85352 19.1617L3.12695 19.8902C3.05695 19.9612 2.96235 20.0006 2.86035 20.0006H0.0400391C0.0160528 20.0006 0.000993738 19.9835 0.000976562 19.9615V19.0914C0.00102654 19.0754 0.0160791 19.0524 0.0400391 19.0524H2.83008C2.93184 19.0522 3.01738 18.9746 3.01758 18.8639V17.4459C3.01758 17.416 2.97909 17.3997 2.95508 17.4225L2.64941 17.7203C2.64151 17.7282 2.63485 17.7281 2.62695 17.7281H0.601562C0.585711 17.728 0.56382 17.7127 0.563477 17.6969V16.8277C0.563477 16.8049 0.585583 16.7888 0.601562 16.7887H2.83008C2.93196 16.7885 3.01758 16.7021 3.01758 16.6012V15.6373C3.00949 15.5435 2.93187 15.4646 2.83008 15.4645H0.0400391C0.0160391 15.4645 0.000976562 15.4484 0.000976562 15.4254V14.5563C0.00107493 14.5324 0.0161181 14.5172 0.0400391 14.5172H2.86035ZM20 17.9469H6.20605V16.5699H20V17.9469ZM2.86035 7.31603C2.96235 7.31603 3.05695 7.35638 3.12695 7.42638L3.85352 8.15392C3.92352 8.22492 3.96289 8.3195 3.96289 8.4215V9.47814C3.96289 9.54803 3.93193 9.60319 3.87012 9.64318L0.961914 11.5387C0.946216 11.5466 0.945316 11.5618 0.945312 11.5699V11.8121C0.945312 11.835 0.961604 11.852 0.984375 11.8522H3.92383C3.94779 11.8522 3.96287 11.8673 3.96289 11.8902V12.7604C3.96286 12.7833 3.94779 12.7994 3.92383 12.7994H0.0400391C0.016062 12.7994 0.00100524 12.7833 0.000976562 12.7604V11.0992C0.00102172 11.0922 0.00765092 11.075 0.015625 11.068L3.00195 9.14122C3.00991 9.13326 3.01758 9.12488 3.01758 9.11095V8.45177C3.01758 8.35086 2.93196 8.26443 2.83008 8.26427H0.0400391C0.0160391 8.26427 0.000976562 8.24821 0.000976562 8.22521V7.35607C0.00107296 7.3322 0.0161165 7.31603 0.0400391 7.31603H2.86035ZM20 10.6881H6.20605V9.31115H20V10.6881ZM1.35156 0.000599861C1.45356 0.000599861 1.54814 0.0399749 1.61914 0.109975L2.34473 0.83849C2.41462 0.90838 2.45495 1.0023 2.45508 1.10412V4.49669C2.45512 4.51865 2.47117 4.53576 2.49414 4.53576H3.92383C3.94783 4.53576 3.96289 4.55182 3.96289 4.57482V5.44396C3.96274 5.46775 3.94771 5.48302 3.92383 5.48302H0.0390625C0.0161776 5.48302 0.000159066 5.46775 0 5.44396V4.57482C0 4.55182 0.0160625 4.53576 0.0390625 4.53576H1.46973C1.49369 4.53576 1.50875 4.51865 1.50879 4.49669V1.13537C1.50866 1.03356 1.42308 0.948028 1.32129 0.947865H0.0390625C0.0161303 0.947865 9.39346e-05 0.931694 0 0.908803V0.0396624C0 0.0156624 0.0160625 0.000599861 0.0390625 0.000599861H1.35156ZM20 3.43029H6.20605V2.05333H20V3.43029Z" fill="#001E28"/>
</svg>
