<svg width="20" height="20" viewBox="0 0 20 20" fill="none" xmlns="http://www.w3.org/2000/svg">
<path d="M20 6.90723L10.3447 20H1.09375L0 18.9062V16.2754L1.09375 15.1729H12.1836L20 4.58203V6.90723ZM17.5762 15.1582C18.9086 15.1595 19.9888 16.2389 19.9902 17.5713C19.9902 18.9044 18.9093 19.9854 17.5762 19.9854C16.2431 19.9853 15.1621 18.9044 15.1621 17.5713C15.1623 16.2384 16.2432 15.1582 17.5762 15.1582ZM1.37891 18.6211H3.44824V16.5518H1.37891V18.6211ZM4.82715 18.6211H6.89648V16.5518H4.82715V18.6211ZM8.27539 18.6211H9.65527L11.165 16.5518H8.27539V18.6211ZM17.5762 16.5371C17.005 16.5371 16.5422 17.0001 16.542 17.5713C16.542 18.1426 17.0049 18.6064 17.5762 18.6064C18.1472 18.6056 18.6095 18.1423 18.6104 17.5713C18.6102 17.0001 18.1474 16.5371 17.5762 16.5371ZM2.97754 4.1377H14.0996L15.1729 5.24121V7.87207L14.0654 8.96582H4.81348L0 2.3252V0L2.97754 4.1377ZM5.51074 7.58594H6.89648V5.51758H3.99414L5.51074 7.58594ZM8.27539 5.51758V7.58594H10.3447V5.51758H8.27539ZM11.7246 7.58594H13.7832L13.793 5.51758H11.7246V7.58594Z" fill="#001E28"/>
</svg>
