<svg width="24" height="16" viewBox="0 0 24 16" fill="none" xmlns="http://www.w3.org/2000/svg">
<path d="M0.000366211 16.0004H24.0004V0.000429153H0.000366211V16.0004Z" fill="white"/>
<path d="M0.000366211 8.89096H3.49737V5.32877H0.000366211V8.89096Z" fill="#282A74"/>
<path d="M0.000366211 3.54669H3.49737V0.00042367H0.000366211V3.54669Z" fill="#282A74"/>
<path d="M5.28613 5.3285V8.89069H15.1341H24.0011V7.10959H8.86713V5.3285H5.28613Z" fill="#282A74"/>
<path d="M0.000366211 16.0004H24.0004V14.2343H0.000366211V16.0004Z" fill="#282A74"/>
<path d="M5.28613 0.000118494V3.54639H8.86713V1.76529H24.0011V0.000118494H5.28613Z" fill="#282A74"/>
<path d="M8.86743 5.32877H24.0004V3.54668H8.86743V5.32877Z" fill="#282A74"/>
<path d="M15.1339 10.673H0.000854492V12.4531H24.0009V10.673H15.1339Z" fill="#282A74"/>
<path d="M8.86743 3.54669H24.0004V1.7656H8.86743V3.54669Z" fill="white"/>
<path d="M0.000366211 14.2343H24.0004V12.4532H0.000366211V14.2343Z" fill="white"/>
<path d="M8.86743 7.10986H24.0004V5.32877H8.86743V7.10986Z" fill="white"/>
<path d="M3.496 0.000123978V3.54639H0V5.32848H3.496V8.89067H0V10.6728H15.134H24.001V8.89067H15.134H5.286V5.32848H8.867V3.54639H5.286V0.000123978H3.496Z" fill="white"/>
</svg>
