<svg width="44" height="32" viewBox="0 0 44 32" fill="none" xmlns="http://www.w3.org/2000/svg">
<g clip-path="url(#clip0_1238_3002)">
<path d="M6.75973 17.6298C6.61732 16.8223 6.58152 15.9997 6.65325 15.1829L0.0612511 14.6058C-0.182939 17.4038 0.313104 20.2168 1.4996 22.7625L7.49739 19.9664C7.15 19.2233 6.90198 18.4377 6.75973 17.6298Z" fill="#001E28"/>
<path d="M8.816 22.0292L3.74731 26.2825C5.2521 28.0678 7.12665 29.5051 9.24138 30.4949L12.037 24.4965C10.7975 23.9168 9.69855 23.075 8.816 22.0292Z" fill="#001E28"/>
<path d="M17.6298 25.2408C16.8221 25.3831 15.9993 25.4187 15.1823 25.3468L14.6052 31.9388C15.9983 32.0611 17.4014 31.9997 18.7785 31.7561C19.2414 31.6745 19.6949 31.5724 20.1407 31.4538L18.4276 25.0615C18.1666 25.1316 17.9012 25.1928 17.6298 25.2408Z" fill="#001E28"/>
<path d="M14.3707 6.76027C15.473 6.56459 16.6014 6.56889 17.7021 6.77296L20.5451 0.662066C18.17 -0.0458985 15.6623 -0.188921 13.2221 0.244411C6.91199 1.35724 2.1153 6.04745 0.547852 11.8621L6.93958 13.5724C7.85875 10.1633 10.6703 7.41241 14.3707 6.76027Z" fill="#001E28"/>
<path d="M22.0281 23.1845L26.2825 28.2527C27.3514 27.3528 28.2986 26.3175 29.1001 25.173L23.6828 21.3799C23.2119 22.0507 22.6557 22.6574 22.0281 23.1845Z" fill="#001E28"/>
<path d="M31.9382 14.6058L25.3456 15.1829C25.3936 15.7271 25.3936 16.2745 25.3456 16.8188L31.9393 17.3959C32.0206 16.4676 32.0202 15.534 31.9382 14.6058Z" fill="#001E28"/>
<path d="M23.4598 0L17.3037 13.2022L43.9156 0H23.4598Z" fill="#FF0046"/>
</g>
<defs>
<clipPath id="clip0_1238_3002">
<rect width="43.9156" height="32" fill="white"/>
</clipPath>
</defs>
</svg>
