<svg width="20" height="20" viewBox="0 0 20 20" fill="none" xmlns="http://www.w3.org/2000/svg">
<path d="M11.9201 8.86755L15.0666 14.1049L18.5012 17.4945L19.0285 16.9672L20.0002 17.9388L17.9387 20.0004L16.966 19.0287L17.5275 18.4662L14.092 15.0765L8.85468 11.9301L0.076355 3.12927V1.15857L1.15546 0.0765381H3.12323L11.9201 8.86755ZM1.4455 1.72888L1.43866 2.56873L9.70917 10.8392L12.5119 12.5228L10.8283 9.72009L2.55682 1.45056H1.72675L1.4455 1.72888ZM16.9045 0.0755615C18.6105 0.0748598 19.9943 1.45747 19.9953 3.16345C19.9961 4.86927 18.6142 6.25301 16.9084 6.25427C15.2027 6.253 13.8195 4.87112 13.8166 3.16541C13.8163 1.45966 15.1987 0.0764665 16.9045 0.0755615ZM16.9084 1.45056C15.9606 1.45016 15.1916 2.21766 15.1906 3.16541C15.1906 4.11138 15.9575 4.87857 16.9035 4.87927C17.8493 4.87988 18.6169 4.11418 18.6183 3.16833C18.6198 2.22236 17.8544 1.45364 16.9084 1.45154V1.45056Z" fill="#001E28"/>
</svg>
