<svg width="20" height="20" viewBox="0 0 20 20" fill="none" xmlns="http://www.w3.org/2000/svg">
<path d="M10.027 0C13.6689 0 16.6512 2.84288 16.8903 6.42578H18.6412V15.4648L15.2897 19.9932H4.74573L1.40002 15.4727V6.42578H3.1637C3.40279 2.84289 6.38507 2.43182e-05 10.027 0ZM2.76526 7.79102L2.76624 15.0225L5.4342 18.627H14.6022L17.275 15.0137V7.79102H2.76526ZM10.027 9.39258C11.4859 9.39258 12.6733 10.5783 12.6735 12.0361C12.6735 12.7421 12.3772 13.4072 11.8522 13.9072V17.04H8.20178V13.9062C7.67678 13.4072 7.38147 12.7431 7.38147 12.0361C7.38161 10.5784 8.56823 9.39277 10.027 9.39258ZM10.027 10.7578C9.32123 10.758 8.74783 11.3314 8.74768 12.0361C8.74768 12.5621 9.08667 12.8901 9.28967 13.0381L9.56702 13.2432V15.6758H10.486V13.2451L10.7643 13.04C10.9673 12.891 11.3063 12.561 11.3063 12.0361C11.3061 11.3313 10.7319 10.7578 10.027 10.7578ZM10.027 1.36621C7.13907 1.36624 4.766 3.5969 4.52991 6.42578H15.524C15.2879 3.59688 12.9149 1.36621 10.027 1.36621Z" fill="#001E28"/>
</svg>
