<svg width="20" height="20" viewBox="0 0 20 20" fill="none" xmlns="http://www.w3.org/2000/svg">
<path fill-rule="evenodd" clip-rule="evenodd" d="M18.605 11.0316L18.604 12.9266L17.585 14.5626L7.71 15.9966L7.311 15.5936L14.752 11.0316H18.605ZM6.351 14.6096L5.57 13.8216L10.161 6.12661L13.785 5.55461L14.534 6.31061L13.968 9.97561L6.351 14.6096ZM4.475 18.0806C4.153 18.4056 3.726 18.5846 3.271 18.5846C2.817 18.5846 2.389 18.4056 2.068 18.0806C1.402 17.4086 1.402 16.3146 2.068 15.6426L3.754 13.9406L6.165 16.3746L4.475 18.0806ZM5.535 2.48961L7.155 1.33361L8.992 1.33261V5.35561L4.51 12.8656L4.114 12.4666L5.535 2.48961ZM15.951 5.85861L14.204 4.11361L10.326 4.71761V0.000610352L6.667 0.00261035L4.169 1.66461L2.527 13.0696L0.906 14.6886C-0.302 15.8966 -0.302 17.8606 0.906 19.0686C1.493 19.6546 2.291 20.0006 3.12 20.0006C3.95 20.0006 4.712 19.6546 5.298 19.0686L6.827 17.5416L18.404 15.8786L20 13.3996V9.65761H15.347L15.951 5.85861Z" fill="#001E28"/>
</svg>
