<svg width="20" height="20" viewBox="0 0 20 20" fill="none" xmlns="http://www.w3.org/2000/svg">
<path d="M12.309 0.000198364L12.4906 2.86836L13.2836 3.19844L15.4359 1.29707L18.7035 4.56465L16.8031 6.71895L17.1313 7.50996L19.9994 7.6916V12.3088L17.1313 12.4904L16.8031 13.2814L18.7035 15.4397L15.4359 18.7023L13.2836 16.8029L12.4906 17.1311L12.309 20.0002H7.6918L7.51016 17.1311L6.71719 16.8029L4.56094 18.7023L1.2963 15.4397L3.19669 13.2814L2.86856 12.4904L0.000396729 12.3088V7.6916L2.86856 7.50996L3.19669 6.71895L1.2963 4.56465L4.56094 1.29707L6.71719 3.19844L7.51016 2.86836L7.6918 0.000198364H12.309ZM8.98087 1.37422L8.82755 3.80977L6.45255 4.79317L4.62149 3.17989L3.17911 4.62227L4.79434 6.45137L3.80899 8.82832L1.37442 8.97871V11.0197L3.80899 11.1711L4.79434 13.548L3.17911 15.3801L4.62051 16.8205L6.45255 15.2072L8.82755 16.1906L8.98087 18.6262H11.019L11.1723 16.1906L13.5473 15.2072L15.3783 16.8205L16.8207 15.3801L15.2065 13.548L16.1908 11.1711L18.6264 11.0197V8.97871L16.1908 8.82832L15.2065 6.45137L16.8207 4.62227L15.3783 3.17989L13.5473 4.79317L11.1723 3.80977L11.019 1.37422H8.98087ZM9.99942 6.31856C12.0294 6.31856 13.683 7.97117 13.683 10.0012C13.6828 12.031 12.0293 13.6838 9.99942 13.6838C7.96963 13.6837 6.31701 12.0309 6.3168 10.0012C6.3168 7.97123 7.9695 6.31865 9.99942 6.31856ZM9.99942 7.69258C8.7265 7.69268 7.69083 8.72823 7.69083 10.0012C7.69103 11.2739 8.72663 12.3097 9.99942 12.3098C11.2723 12.3098 12.3088 11.274 12.309 10.0012C12.309 8.72817 11.2724 7.69258 9.99942 7.69258Z" fill="#001E28"/>
</svg>
