<svg width="24" height="16" viewBox="0 0 24 16" fill="none" xmlns="http://www.w3.org/2000/svg">
<path d="M0.000488281 16H23.9995V0.00012207H0.000488281V16Z" fill="white"/>
<path d="M10.7073 0V6.41351H0.000732422V9.62127H10.7073V15.9999H13.3022V9.62127H23.9997V6.41351H13.3022V0H10.7073Z" fill="#C1332E"/>
<path d="M23.043 0L14.3954 5.34459H16.3283L24 0.604258V0H23.043ZM0 1.79383L5.74676 5.34459H7.68068L0 0.598275V1.79383ZM16.3283 10.6892L24 15.4305V14.236L18.2622 10.6892H16.3283ZM7.68068 10.6892L0 15.4355V15.9999H1.02096L9.6146 10.6892H7.68068Z" fill="#C1332E"/>
<path d="M14.1667 0V4.88791L22.0763 0H14.1667ZM1.93216 0L9.84283 4.88791V0H1.93216ZM0.000244141 5.34459H4.77905L0.000244141 2.39111V5.34459ZM19.2284 5.34459H23.9992V2.39709L19.2284 5.34459ZM19.2284 10.6892L23.9992 13.6367V10.6892H19.2284ZM0.000244141 10.6892V13.6427L4.77905 10.6892H0.000244141ZM14.1667 15.9999H22.0213L14.1667 11.1459V15.9999ZM1.98816 15.9999H9.84283V11.1459L1.98816 15.9999Z" fill="#003058"/>
</svg>
