<svg width="20" height="20" viewBox="0 0 20 20" fill="none" xmlns="http://www.w3.org/2000/svg">
<path d="M19.46 3.26003L17.61 1.41003H5.34004L3.49004 3.26003V4.78003L1.98004 6.29003V7.79003L0.540039 9.23003V16.73L2.39004 18.58H14.66L16.49 16.72V15.31L18 13.77V12.2L19.44 10.74V3.26003H19.46ZM15.76 16.42L14.35 17.85H2.69004L1.27004 16.43V9.54003L2.69004 8.12003H14.35L15.77 9.54003V16.42H15.76ZM17.28 13.47L16.49 14.27V9.24003L14.65 7.39003H2.71004V6.59003L4.27004 5.03003H15.73L17.29 6.59003V13.47H17.28ZM18.71 10.44L18 11.16V6.30003L16.02 4.32003H4.23004V3.57003L5.65004 2.15003H17.31L18.73 3.57003V10.45L18.71 10.44Z" fill="#001E28"/>
<path d="M11.7742 15.7154L11.5203 15.9703L11.2654 16.2242L5.27515 10.2349L5.78491 9.72516L11.7742 15.7154Z" fill="#001E28"/>
<path d="M11.5203 9.98004L11.7742 10.2349L5.78491 16.2242L5.53003 15.9703L5.27515 15.7154L11.2654 9.72516L11.5203 9.98004Z" fill="#001E28"/>
</svg>
