<svg width="20" height="20" viewBox="0 0 20 20" fill="none" xmlns="http://www.w3.org/2000/svg">
<path d="M16.5518 16.5518V20H15.1729L15.1885 17.2412L8.96289 12.9229L1.96289 20H0L8.27539 11.7246H9.65527L16.5518 16.5518ZM6.89551 8.2793L20 8.27539V9.65527L6.47168 9.65918L2.33984 6.90332L3.13867 5.75977L6.89551 8.2793ZM13.4482 0C15.1622 0 16.5518 1.38953 16.5518 3.10352C16.5517 4.81747 15.1622 6.20703 13.4482 6.20703C11.7352 6.2049 10.3469 4.81659 10.3447 3.10352C10.3447 1.38954 11.7343 1.85544e-05 13.4482 0ZM13.4482 1.37891C12.4966 1.38019 11.7259 2.15184 11.7246 3.10352C11.7246 4.05569 12.4961 4.82713 13.4482 4.82715C14.4004 4.82715 15.1728 4.0557 15.1729 3.10352C15.1729 2.1513 14.4005 1.37891 13.4482 1.37891ZM3.44824 0C4.5909 0 5.51758 0.926678 5.51758 2.06934C5.51738 3.21182 4.59078 4.1377 3.44824 4.1377C2.30572 4.13768 1.37911 3.21181 1.37891 2.06934C1.37891 0.926689 2.3056 1.81678e-05 3.44824 0ZM3.44824 1.37891C3.06737 1.37892 2.75879 1.68846 2.75879 2.06934C2.75899 2.45004 3.0675 2.75877 3.44824 2.75879C3.829 2.75879 4.1375 2.45005 4.1377 2.06934C4.1377 1.68845 3.82913 1.37891 3.44824 1.37891Z" fill="#001E28"/>
</svg>
