<svg width="20" height="20" viewBox="0 0 20 20" fill="none" xmlns="http://www.w3.org/2000/svg">
<g clip-path="url(#clip0_8438_68007)">
<path d="M20 0.000508447H17.7018V-9.15527e-05H0.0004V8.69971H0L0.0004 10.7523H1.3688V8.69971V1.36891H17.1054H17.7018H18.6312V2.12771H18.631L18.6312 10.7523H19.9996V2.73751H20V0.000508447Z" fill="#001E28"/>
<path d="M9.99998 3.22617C5.84338 3.22617 2.47379 6.59597 2.47379 10.7524C2.47379 14.9088 5.84338 18.2786 9.99998 18.2786C14.1566 18.2786 17.5262 14.9088 17.5262 10.7524C17.5262 6.59597 14.1566 3.22617 9.99998 3.22617ZM14.6358 6.70157L13.9094 9.03517L13.0552 9.29197L10.6712 7.55957V6.69397L12.7492 5.24257C13.4704 5.60357 14.1102 6.10097 14.6358 6.70177V6.70157ZM9.99998 4.59477C10.4008 4.59477 10.792 4.63397 11.1714 4.70717L9.99998 5.52537L8.82858 4.70717C9.20798 4.63397 9.59918 4.59477 9.99998 4.59477ZM7.25078 5.24237L9.32898 6.69377V7.55937L6.94358 9.29277L6.09118 9.03557L5.36459 6.70157C5.88999 6.10037 6.52998 5.60277 7.25118 5.24237H7.25078ZM4.41339 8.16216L4.75399 9.25596L3.93019 9.71916C4.02259 9.17216 4.18699 8.64996 4.41339 8.16216ZM5.87019 15.3198H6.66238L6.91779 16.0828C6.54179 15.8648 6.19039 15.6096 5.87019 15.3198ZM6.86738 13.9774H4.75419C4.26539 13.1844 3.95259 12.2716 3.86719 11.2936L5.63558 10.3004L6.56438 10.5804L7.47158 13.3728L6.86718 13.9774H6.86738ZM11.4476 16.7376C10.9832 16.8496 10.4988 16.91 9.99998 16.91C9.50118 16.91 9.01698 16.8494 8.55258 16.7376L7.91338 14.8294L8.62958 14.113H11.3704L12.0866 14.8294L11.4476 16.7376ZM11.3378 12.8054H8.66218L7.83538 10.2606L9.99998 8.68817L12.1646 10.2606L11.3378 12.8054ZM13.0824 16.0822L13.3378 15.3196H14.1298C13.8096 15.6092 13.4582 15.8646 13.0824 16.0822ZM15.2458 13.9774H13.133L12.5286 13.3728L13.4364 10.5786L14.3642 10.3L16.1328 11.2936C16.0476 12.2716 15.7346 13.1844 15.2458 13.9774ZM16.0698 9.71916L15.2464 9.25596L15.5868 8.16257C15.8132 8.65037 15.9774 9.17216 16.0698 9.71916Z" fill="#001E28"/>
</g>
<defs>
<clipPath id="clip0_8438_68007">
<rect width="20" height="20" fill="white"/>
</clipPath>
</defs>
</svg>
