<svg width="20" height="20" viewBox="0 0 20 20" fill="none" xmlns="http://www.w3.org/2000/svg">
<path d="M17.8447 9.20041C18.0446 9.20049 18.2293 9.27635 18.3672 9.41428L19.7832 10.8518C19.9232 10.9898 20 11.1753 20 11.3733V19.9211C20 19.968 19.9684 20.0001 19.9375 20.0002H18.2295C18.1835 20.0002 18.1524 19.9681 18.1523 19.9211V16.6496C18.1521 16.4368 17.9831 16.2824 17.7832 16.2824H12.9492C12.7504 16.2825 12.5803 16.4369 12.5801 16.6496V19.9211C12.58 19.9681 12.5479 20.0002 12.5029 20.0002H10.7949C10.7482 20 10.7188 19.9679 10.7188 19.9211V11.3733C10.7188 11.1753 10.7956 10.9898 10.9336 10.8518L12.3652 9.41428C12.5032 9.27628 12.6887 9.20041 12.8877 9.20041H17.8447ZM12.9492 11.0647C12.7504 11.0648 12.5802 11.2199 12.5801 11.4367V14.0432C12.5802 14.245 12.7504 14.4142 12.9492 14.4143H17.7832C17.9831 14.4143 18.1522 14.2451 18.1523 14.0432V11.4367C18.1522 11.2199 17.9831 11.0647 17.7832 11.0647H12.9492ZM6.24121 0.000213623V1.54807H10.999V2.91135H9.97363L7.28809 7.48947L9.61426 9.85666L8.64258 10.8147L6.13184 8.259L1.94824 10.801L1.24219 9.634L5.14941 7.259L3.16992 5.24435L4.14062 4.28635L6.29883 6.48264L8.39355 2.91135H0V1.54807H4.87891V0.000213623H6.24121Z" fill="#001E28"/>
</svg>
