<svg width="20" height="20" viewBox="0 0 20 20" fill="none" xmlns="http://www.w3.org/2000/svg">
<path fill-rule="evenodd" clip-rule="evenodd" d="M18.6257 18.6261H10.0007H1.3747V16.1531L2.4177 15.1041L8.2697 13.6501V12.0901L8.0127 11.8851C6.0807 10.3391 5.1397 6.6011 6.0387 4.0421C6.4657 2.8251 7.5007 1.3731 10.0007 1.3731C12.4987 1.3731 13.5337 2.8251 13.9617 4.0421C14.8607 6.6011 13.9197 10.3391 11.9877 11.8851L11.7297 12.0901V13.6501L17.5817 15.1041L18.6257 16.1531V18.6261ZM18.2857 13.8631L13.2387 12.6101C15.3387 10.5641 16.2827 6.5051 15.2577 3.5871C14.4447 1.2741 12.5777 9.91821e-05 10.0007 9.91821e-05C7.4217 9.91821e-05 5.5547 1.2741 4.7427 3.5871C3.7167 6.5051 4.6607 10.5641 6.7617 12.6101L1.7147 13.8631L0.000701904 15.5871V20.0001H10.0007H20.0007V15.5871L18.2857 13.8631Z" fill="#001E28"/>
</svg>
