<svg width="20" height="20" viewBox="0 0 20 20" fill="none" xmlns="http://www.w3.org/2000/svg">
<path fill-rule="evenodd" clip-rule="evenodd" d="M15.9076 5.913L14.1672 4.17407L10.3053 4.77559V0.076355H6.65953L4.17022 1.73437L2.5351 13.0962L0.920597 14.7092C-0.283306 15.9142 -0.283306 17.8667 0.920597 19.0718C1.50516 19.6613 2.29956 19.9951 3.12976 20C3.94808 19.9938 4.72968 19.6594 5.29922 19.0718L6.82212 17.5504L18.3549 15.8939L19.945 13.4252V9.69468H15.3053L15.9076 5.913ZM5.53128 2.55422L7.14579 1.4046H8.97785V5.41147L4.51373 12.8924L4.11907 12.4939L5.53128 2.55422ZM4.4748 18.0916C4.159 18.4133 3.72713 18.5946 3.27632 18.5946C2.82552 18.5946 2.39364 18.4133 2.07785 18.0916C1.41467 17.418 1.41467 16.337 2.07785 15.6634L3.75724 13.9672L6.15877 16.3924L4.4748 18.0916ZM6.34426 14.6344L5.56564 13.8489L10.1404 6.17865L13.7504 5.61071L14.4954 6.36338L13.932 10.0145L6.34426 14.6344ZM18.5496 11.0687V12.9557L17.5343 14.587L7.69846 16.0122L7.30075 15.6099L14.7137 11.0687H18.5496Z" fill="#001E28"/>
</svg>
