<svg width="20" height="20" viewBox="0 0 20 20" fill="none" xmlns="http://www.w3.org/2000/svg">
<path d="M8.97824 18.6199H2.34767V16.1455L3.37681 15.0951L9.13506 13.6413V12.083L8.88022 11.8789C6.97878 10.3355 6.05256 6.59662 6.93957 4.03763C7.36103 2.82286 8.38036 1.36911 10.8405 1.36911C13.3006 1.36911 14.3199 2.82286 14.7414 4.03763C15.2265 5.43661 15.153 7.17414 14.364 9.39956H15.7558C16.5252 6.99988 16.5546 5.1379 16.0155 3.58458C15.2167 1.27452 13.379 0 10.8405 0C8.30195 0 6.46421 1.27452 5.66541 3.58458C4.65588 6.50203 5.58699 10.5596 7.65506 12.6058L2.68582 13.8604L1 15.583V19.994H11.5413L10.1838 18.6199H8.98314H8.97824Z" fill="#001E28"/>
<path d="M10.4386 14.877H13.9572V11.3074C13.9572 11.2825 13.9768 11.2626 14.0013 11.2626H15.3931C15.4176 11.2626 15.4372 11.2825 15.4372 11.3074V14.877H18.9559C18.9804 14.877 19 14.897 19 14.9218V16.3358C19 16.3607 18.9804 16.3806 18.9559 16.3806H15.4372V19.9552C15.4372 19.9801 15.4176 20 15.3931 20H14.0013C13.9768 20 13.9572 19.9801 13.9572 19.9552V16.3806H10.4386C10.4141 16.3806 10.3945 16.3607 10.3945 16.3358V14.9218C10.3945 14.897 10.4141 14.877 10.4386 14.877Z" fill="#001E28"/>
</svg>
