<svg width="20" height="20" viewBox="0 0 20 20" fill="none" xmlns="http://www.w3.org/2000/svg">
<path d="M10.6866 2.76094H12.2335L14.4571 5.93086L15.1387 12.0988L17.3389 14.299L16.3575 17.2414H13.0694C12.8943 18.7882 11.5939 20.0001 10.0001 20.0002C8.40713 20.0002 7.10484 18.7883 6.92975 17.2414H3.64069L2.66217 14.299L4.86041 12.0988L5.54303 5.93086L7.76666 2.76094H9.31256V0.000198364H10.6866V2.76094ZM8.3399 17.2414C8.50498 18.0243 9.16813 18.6262 10.0001 18.6262C10.8319 18.6261 11.4962 18.0243 11.6602 17.2414H8.3399ZM4.74908 1.34492C3.51816 1.73395 2.513 2.57986 1.91803 3.72481C1.32512 4.86872 1.21268 6.17748 1.6026 7.40938L0.29303 7.82344C-0.207843 6.24259 -0.0625872 4.56286 0.69928 3.092C1.46227 1.62101 2.75304 0.534362 4.33502 0.0353546L4.74908 1.34492ZM15.6651 0.0353546C17.2461 0.534355 18.5368 1.621 19.3008 3.092C20.0637 4.56287 20.208 6.2426 19.7071 7.82246L18.3975 7.40938C18.7874 6.17747 18.675 4.86872 18.0821 3.72481C17.4881 2.57983 16.482 1.73394 15.251 1.34492L15.6651 0.0353546ZM5.58307 3.97285C4.49307 4.31785 3.88748 5.48637 4.23248 6.57637L2.92291 6.99043C2.64491 6.11243 2.72548 5.1795 3.14948 4.3625C3.57347 3.54651 4.28904 2.94324 5.16803 2.66524L5.58307 3.97285ZM14.8321 2.66524C15.7101 2.94324 16.4276 3.5465 16.8506 4.3625C17.2754 5.18039 17.3542 6.1126 17.0762 6.99043L15.7676 6.57637C16.1126 5.48637 15.5071 4.31785 14.4171 3.97285L14.8321 2.66524Z" fill="#001E28"/>
</svg>
