<svg width="20" height="20" viewBox="0 0 20 20" fill="none" xmlns="http://www.w3.org/2000/svg">
<path d="M15.3154 9.1084L10.9756 13.4482L12.6992 15.1729H18.9062L20 16.2666V18.9062L18.9062 20H15.5762L10 14.4238L4.42383 20H1.09375L0 18.9062V16.2666L1.09375 15.1729H7.30078L9.02441 13.4482L4.68457 9.1084L5.66016 8.13379L10 12.4736L14.3398 8.13379L15.3154 9.1084ZM1.37891 16.5518V18.6211H3.85254L5.9209 16.5518H1.37891ZM16.1475 18.6211H18.6211V16.5518H14.0791L16.1475 18.6211ZM4.73535 7.20898L3.76074 8.18457L2.83691 7.26074L3.81152 6.28516L4.73535 7.20898ZM17.1631 7.26074L16.2393 8.18457L15.2637 7.20996L16.1875 6.28613L17.1631 7.26074ZM2.8877 5.36133L1.91309 6.33594L0 4.42383V2.47363L2.8877 5.36133ZM20 4.42383L18.0869 6.33594L17.1123 5.36133L20 2.47363V4.42383ZM9.96191 0C11.6758 0.000123304 13.0654 1.3896 13.0654 3.10352C13.0654 4.8174 11.6758 6.20691 9.96191 6.20703C8.24882 6.20492 6.86055 4.8166 6.8584 3.10352C6.8584 1.38953 8.24793 0 9.96191 0ZM9.96191 1.37891C9.01005 1.37975 8.23815 2.15165 8.2373 3.10352C8.23734 4.0557 9.00972 4.82715 9.96191 4.82715C10.914 4.82702 11.6855 4.05562 11.6855 3.10352C11.6855 2.15138 10.914 1.37903 9.96191 1.37891Z" fill="#001E28"/>
</svg>
