<svg width="20" height="20" viewBox="0 0 20 20" fill="none" xmlns="http://www.w3.org/2000/svg">
<path d="M7.58612 12.3004L7.06171 13.5621L3.81561 12.2164C4.62667 14.8973 7.11223 16.8082 10.0021 16.8082C12.7281 16.8082 15.1769 15.0861 16.0949 12.5221L17.381 12.982C16.269 16.089 13.3031 18.1754 10.0021 18.1754C6.57216 18.1754 3.61349 15.9532 2.5705 12.8082L1.26288 15.9644L0.000183105 15.441L1.6994 11.3394H1.69843L1.90253 10.8492L2.22186 10.0787L7.58612 12.3004ZM9.99823 2.4996C13.4282 2.4996 16.3878 4.72574 17.4308 7.86874L18.7375 4.71249L20.0002 5.23593L17.7795 10.5973L12.4152 8.37656L12.9387 7.11484L16.1848 8.45956C15.3738 5.77756 12.8882 3.86679 9.99823 3.86679C7.27333 3.8669 4.82345 5.59 3.90448 8.15292L2.61835 7.69296C3.73132 4.58704 6.69733 2.49971 9.99823 2.4996Z" fill="#001E28"/>
</svg>
