<svg width="20" height="20" viewBox="0 0 20 20" fill="none" xmlns="http://www.w3.org/2000/svg">
<g clip-path="url(#clip0_8438_67526)">
<path fill-rule="evenodd" clip-rule="evenodd" d="M10 18.5C14.6944 18.5 18.5 14.6944 18.5 10C18.5 5.30558 14.6944 1.5 10 1.5C5.30558 1.5 1.5 5.30558 1.5 10C1.5 14.6944 5.30558 18.5 10 18.5ZM10 20C15.5228 20 20 15.5228 20 10C20 4.47715 15.5228 0 10 0C4.47715 0 0 4.47715 0 10C0 15.5228 4.47715 20 10 20Z" fill="#001E28"/>
<path fill-rule="evenodd" clip-rule="evenodd" d="M7.81353 12.6177L4.96873 9.77294L4 10.7349L7.81353 14.5484L16 6.36191L15.0381 5.4L7.81353 12.6177Z" fill="#001E28"/>
</g>
<defs>
<clipPath id="clip0_8438_67526">
<rect width="20" height="20" rx="10" fill="white"/>
</clipPath>
</defs>
</svg>
