<svg width="24" height="16" viewBox="0 0 24 16" fill="none" xmlns="http://www.w3.org/2000/svg">
<path d="M0.000427246 1.92816H2.60943L0.000427246 0.629654V1.92816Z" fill="#2A2D7C"/>
<path d="M12.0001 9.34601e-05V0.598104L9.32812 1.92945H12.0001V2.32845V3.52845V3.92845H9.32812L12.0001 5.2578V5.48168V5.92845H10.6521L6.97412 4.0986V5.92845H6.57212H5.36512H4.96412V4.0986L1.28612 5.92845H0.836123H0.00012207V16.0001H24.0011V9.34601e-05H12.0001ZM18.0321 1.07074L18.1971 1.58417L18.7071 1.39313L18.4041 1.84288L18.8721 2.1185L18.3321 2.16527L18.4051 2.70059L18.0321 2.30855L17.6571 2.70059L17.7331 2.16527L17.1921 2.1185L17.6591 1.84288L17.3591 1.39313L17.8651 1.58417L18.0321 1.07074ZM20.7131 3.52149L20.8791 4.03492L21.3861 3.84387L21.0861 4.29462L21.5541 4.56925L21.0131 4.61601L21.0861 5.15134L20.7131 4.7593L20.3391 5.15134L20.4141 4.61601L19.8721 4.56925L20.3391 4.29462L20.0411 3.84387L20.5461 4.03492L20.7131 3.52149ZM15.0161 4.32149L15.1821 4.83591L15.6901 4.64387L15.3891 5.09363L15.8571 5.36925L15.3161 5.41601L15.3891 5.95034L15.0161 5.5593L14.6421 5.95034L14.7171 5.41601L14.1761 5.36925L14.6431 5.09363L14.3431 4.64387L14.8501 4.83591L15.0161 4.32149ZM19.0251 6.49761L18.7611 6.27472L19.1061 6.24885L19.2391 5.92845L19.3701 6.24885L19.7171 6.27472L19.4511 6.49761L19.5351 6.83392L19.2391 6.64985L18.9441 6.83392L19.0251 6.49761ZM5.96812 7.12945L6.31712 8.20805L7.38412 7.80706L6.75312 8.75233L7.73212 9.33044L6.59712 9.42895L6.75412 10.5523L5.96812 9.73044L5.18312 10.5523L5.34012 9.42895L4.20412 9.33044L5.18412 8.75233L4.55412 7.80706L5.62012 8.20805L5.96812 7.12945ZM18.0321 9.07372L18.1971 9.58716L18.7071 9.39611L18.4041 9.84586L18.8721 10.1215L18.3321 10.1683L18.4051 10.7026L18.0321 10.3115L17.6571 10.7026L17.7331 10.1683L17.1921 10.1215L17.6591 9.84586L17.3591 9.39611L17.8651 9.58716L18.0321 9.07372Z" fill="#2A2D7C"/>
<path d="M6.97308 0.000110269V1.75732L10.5051 0.000110269H6.97308Z" fill="#2A2D7C"/>
<path d="M1.43323 0.000110269L4.96423 1.75732V0.000110269H1.43323Z" fill="#2A2D7C"/>
<path d="M0.000427246 3.92874V5.22626L2.60943 3.92874H0.000427246Z" fill="#2A2D7C"/>
<path d="M6.75328 8.75194L7.38328 7.80667L6.31728 8.20866L5.96828 7.12906L5.62028 8.20866L4.55428 7.80667L5.18428 8.75194L4.20428 9.33105L5.34028 9.42856L5.18328 10.5519L5.96828 9.73005L6.75328 10.5519L6.59728 9.42856L7.73228 9.33105L6.75328 8.75194Z" fill="white"/>
<path d="M17.6572 10.7026L18.0312 10.3106L18.4052 10.7026L18.3302 10.1673L18.8712 10.1215L18.4042 9.84493L18.7042 9.39716L18.1972 9.58622L18.0312 9.07279L17.8652 9.58622L17.3572 9.39716L17.6572 9.84493L17.1912 10.1215L17.7322 10.1673L17.6572 10.7026Z" fill="white"/>
<path d="M14.1752 5.36947L14.7162 5.41623L14.6422 5.95056L15.0162 5.55952L15.3892 5.95056L15.3152 5.41623L15.8562 5.36947L15.3892 5.09385L15.6902 4.64409L15.1822 4.83514L15.0162 4.32071L14.8502 4.83514L14.3412 4.64409L14.6432 5.09385L14.1752 5.36947Z" fill="white"/>
<path d="M17.7314 2.16524L17.6574 2.70056L18.0314 2.30852L18.4054 2.70056L18.3314 2.16524L18.8714 2.11847L18.4044 1.84285L18.7054 1.3931L18.1974 1.58414L18.0314 1.06972L17.8654 1.58414L17.3564 1.3931L17.6584 1.84285L17.1904 2.11847L17.7314 2.16524Z" fill="white"/>
<path d="M20.412 4.61592L20.338 5.15125L20.712 4.75921L21.086 5.15125L21.012 4.61592L21.553 4.56916L21.085 4.29353L21.386 3.84378L20.878 4.03582L20.712 3.52139L20.546 4.03582L20.037 3.84378L20.339 4.29353L19.871 4.56916L20.412 4.61592Z" fill="white"/>
<path d="M19.1059 6.24901L18.7599 6.27488L19.0249 6.49777L18.9419 6.83508L19.2369 6.651L19.5339 6.83508L19.4499 6.49777L19.7139 6.27488L19.3689 6.24901L19.2369 5.92862L19.1059 6.24901Z" fill="white"/>
<path d="M0.000427246 3.52847V3.92847H2.60943L3.41343 3.52847H0.000427246Z" fill="white"/>
<path d="M9.32736 1.92813L8.52136 2.32812H11.9994V1.92813H9.32736Z" fill="white"/>
<path d="M6.5722 5.92847H6.9732V4.09862L6.5722 3.90061V5.92847Z" fill="white"/>
<path d="M4.96393 4.09892V5.92877H5.36393V3.89892L4.96393 4.09892Z" fill="white"/>
<path d="M8.52283 3.52847L9.32883 3.92847H11.9998V3.52847H8.52283Z" fill="white"/>
<path d="M6.5722 9.21488e-05V1.95731L6.9732 1.75731V9.21488e-05H6.5722Z" fill="white"/>
<path d="M4.96393 9.21488e-05V1.75731L5.36393 1.95731V9.21488e-05H4.96393Z" fill="white"/>
<path d="M0.000427246 1.92816V2.32816H3.41343L2.60943 1.92816H0.000427246Z" fill="white"/>
<path d="M0.0841221 0.00010252L3.95812 1.92946H3.05912L0.00012207 0.406073V0.629953L2.60912 1.92946L3.41312 2.32846H5.36512V1.95732L4.96412 1.75732L1.43312 0.00010252H0.0841221Z" fill="white"/>
<path d="M6.5722 3.52805V3.8992L6.9742 4.0992L10.6522 5.92905H12.0002L7.9792 3.92805H8.8792L12.0002 5.48129V5.2574L9.3282 3.92805L8.5242 3.52805H6.5722Z" fill="white"/>
<path d="M11.8534 0.00010252L7.97939 1.92946H7.08039L10.9544 0.00010252H10.5044L6.97339 1.75732L6.57239 1.95732V2.32846H8.52339L9.32939 1.92946L12.0004 0.598112V0.00010252H11.8534Z" fill="white"/>
<path d="M3.41318 3.52847L2.60918 3.92847L0.000183105 5.22598V5.89762L3.95818 3.92847H4.85818L0.836183 5.92847H1.28518L4.96418 4.09862L5.36518 3.90061V3.52847H3.41318Z" fill="white"/>
<path d="M5.3653 0.000108719V1.95732V2.32847H3.4133H0.000305176V3.52847H3.4133H5.3653V3.90061V5.92847H6.5723V3.90061V3.52847H8.5233H12.0003V2.32847H8.5233H6.5723V1.95732V0.000108719H5.3653Z" fill="#ED2F31"/>
<path d="M0.000427246 9.01222e-05V0.40606L3.05843 1.92944H3.95743L0.0844272 9.01222e-05H0.000427246Z" fill="#ED2F31"/>
<path d="M10.9538 9.01222e-05L7.07977 1.92944H7.97877L11.8528 9.01222e-05H10.9538Z" fill="#ED2F31"/>
<path d="M7.97937 3.92847L12.0004 5.92847V5.4817L8.87837 3.92847H7.97937Z" fill="#ED2F31"/>
<path d="M3.95771 3.92877L0.00170898 5.89693V5.92877H0.836709L4.85671 3.92877H3.95771Z" fill="#ED2F31"/>
</svg>
