<svg width="20" height="20" viewBox="0 0 20 20" fill="none" xmlns="http://www.w3.org/2000/svg">
<path d="M9.57812 13.3525C11.6041 13.8636 13.0352 15.1028 13.0352 16.5518C13.0351 18.4567 10.5646 20 7.5166 20C4.47082 19.9999 2.00005 18.4566 2 16.5518C2 15.1028 3.43103 13.8635 5.45703 13.3525V14.7715C4.17503 15.1705 3.33008 15.8968 3.33008 16.5518C3.33011 16.9716 3.68596 17.4343 4.30664 17.8232C5.13155 18.3382 6.30174 18.6337 7.5166 18.6338C9.87555 18.6338 11.705 17.5147 11.7051 16.5518C11.7051 16.1318 11.3485 15.6673 10.7275 15.2793C10.3937 15.0715 10.0039 14.9005 9.57812 14.7686V13.3525ZM18.5518 5.5166L8.20801 11.0342V17.2412H6.82812V0L18.5518 5.5166ZM8.20801 9.66602L15.7939 5.5166L8.20801 2.06836V9.66602Z" fill="#001E28"/>
</svg>
