<svg width="20" height="20" viewBox="0 0 20 20" fill="none" xmlns="http://www.w3.org/2000/svg">
<g clip-path="url(#clip0_8438_69493)">
<path d="M7.50161 6.07397H5.36041V8.21537H7.50161V6.07397Z" fill="#001E28"/>
<path d="M14.6394 6.07397H12.498V8.21537H14.6394V6.07397Z" fill="#001E28"/>
<path d="M10 0C4.4858 0 0 4.4858 0 10C0 15.5142 4.4858 20 10 20C15.5142 20 20 15.5142 20 10C20 4.4858 15.5142 0 10 0ZM10 19.2712C4.888 19.2712 0.7288 15.1124 0.7288 10C0.7288 4.8876 4.888 0.7288 10 0.7288C15.112 0.7288 19.2712 4.8876 19.2712 10C19.2712 15.1124 15.112 19.2712 10 19.2712Z" fill="#001E28"/>
<path d="M9.99998 12.762C8.50498 12.762 7.16138 13.593 6.49298 14.9308L7.14518 15.2568C7.68938 14.1676 8.78298 13.4908 9.99998 13.4908C11.217 13.4908 12.3106 14.1676 12.8548 15.2568L13.507 14.9308C12.8386 13.593 11.495 12.762 9.99998 12.762Z" fill="#001E28"/>
</g>
<defs>
<clipPath id="clip0_8438_69493">
<rect width="20" height="20" fill="white"/>
</clipPath>
</defs>
</svg>
