<svg width="24" height="16" viewBox="0 0 24 16" fill="none" xmlns="http://www.w3.org/2000/svg">
<path d="M0 16H24V1.90735e-06H0V16Z" fill="#3E4EB8"/>
<mask id="mask0_2_549" style="mask-type:luminance" maskUnits="userSpaceOnUse" x="0" y="0" width="24" height="16">
<path d="M0 1.90735e-06H24V16H0V1.90735e-06Z" fill="white"/>
</mask>
<g mask="url(#mask0_2_549)">
<path d="M8.54099 9.63533C8.52199 9.61941 8.15899 9.29404 8.06899 9.1806C7.98099 9.06618 7.81399 9.03434 7.72399 8.98956C7.63399 8.94279 7.04599 8.75075 6.90699 8.84926C6.76699 8.95175 6.57399 9.01045 6.49899 8.84926C6.42799 8.68906 6.38999 8.66717 6.28399 8.6423C6.18199 8.62041 6.23499 8.49603 6.22799 8.38956C6.21899 8.28011 6.15999 8.16568 6.08499 8.24329C6.01499 8.3209 5.76199 8.5219 5.72499 8.41941C5.68699 8.3209 5.51099 7.90598 5.77799 7.82936C6.04199 7.75175 6.26299 7.79851 6.33199 7.86618C6.39599 7.93384 6.44599 8.12886 6.52999 8.10399C6.61099 8.07911 6.56799 7.93384 6.59599 7.81344C6.62599 7.69006 6.81899 7.52886 6.90699 7.35871C6.99299 7.18856 7.00899 7.08906 7.11799 7.04329C7.22899 6.99752 7.28899 6.93583 7.39099 6.85722C7.49699 6.77961 7.65899 6.71294 7.71699 6.67513C7.77599 6.63533 8.04099 6.50498 8.13099 6.52687C8.21799 6.55075 8.27699 6.5209 8.20299 6.39055C8.13099 6.25722 8.03499 5.86419 7.89499 5.68906C7.75499 5.51195 7.73899 5.46618 7.67399 5.29901C7.60599 5.12886 7.53099 4.98359 7.48099 5.09702C7.42899 5.21244 7.31999 5.36667 7.26099 5.2214C7.20199 5.07314 7.20799 5.0821 7.13299 5.01443C7.06199 4.94379 6.99899 4.92886 6.89699 4.89702C6.79399 4.86618 6.69199 4.90598 6.69799 5.00548C6.70799 5.10399 6.60199 5.28309 6.66999 5.41344C6.73499 5.54677 6.79399 5.68309 6.70799 5.72886C6.61699 5.77563 6.70799 6.05324 6.61699 6.04429C6.52999 6.03832 6.48599 6.05324 6.48599 5.95175C6.48599 5.85324 6.52999 5.69802 6.36599 5.69802C6.20399 5.69802 6.11099 5.61444 5.99199 5.52787C5.87399 5.44429 5.77799 5.49105 5.80599 5.29901C5.83699 5.10697 5.79299 5.03533 5.92399 4.93085C6.05799 4.82339 6.08799 4.7617 6.18199 4.80647C6.27899 4.85324 6.34399 4.85324 6.40599 4.79851C6.46499 4.74478 6.57399 4.76667 6.57399 4.70001C6.57399 4.63135 6.44899 4.63135 6.46499 4.51593C6.47799 4.39951 6.53699 4.4612 6.55799 4.26916C6.57999 4.07712 6.41799 3.78359 6.25599 3.82339C6.09499 3.8612 5.84299 4.08309 5.79299 3.98458C5.74099 3.88508 5.63799 3.92886 5.43899 4.0005C5.23999 4.06817 4.41399 3.93185 4.35499 3.8612C4.35499 3.8612 4.21499 3.7617 4.13999 3.81444C4.06799 3.87016 3.77299 3.84528 3.68299 3.83036C3.59299 3.81444 3.51199 3.93185 3.40299 3.89205C3.29099 3.85424 2.90199 3.77662 2.81199 3.71493C2.72299 3.65324 2.59199 3.65324 2.53299 3.62239C2.47399 3.59155 2.25999 3.57662 2.21599 3.63832C2.17199 3.70001 2.01099 3.80847 1.92699 3.88508C1.84599 3.96269 1.75299 3.94677 1.83399 4.10797C1.91399 4.26916 1.62499 4.36866 1.69999 4.54379C1.77099 4.7209 1.68399 5.19951 1.97899 5.29006C2.27499 5.38259 2.51799 5.43832 2.68799 5.29901C2.85899 5.15971 3.11699 5.15971 3.19799 5.31493C3.27899 5.46916 3.32299 5.69802 3.58699 5.83036C3.85099 5.9607 4.08099 6.33881 4.06499 6.50498C4.05299 6.67513 4.07499 7.23533 4.34499 7.55971C4.61899 7.8811 4.89799 8.46618 4.91999 8.32787C4.94199 8.19055 4.94199 8.05125 5.00399 8.15075C5.05999 8.25225 5.21599 8.55871 5.46699 8.61145C5.71899 8.66717 5.84299 8.6821 5.93999 8.77563C6.03299 8.86817 6.11599 8.9209 6.21899 8.96667C6.32199 9.01344 6.57399 9.15374 6.62399 9.2423C6.67699 9.33483 6.65399 9.45822 6.60199 9.59851C6.55199 9.73782 6.49299 9.87314 6.56399 10.0065C6.63899 10.1368 6.79399 10.5129 6.91799 10.5975C7.04599 10.6841 7.17099 10.8194 7.13999 11.0114C7.11099 11.2025 6.97199 12.0284 6.98699 12.2114C6.99899 12.3965 6.81599 13.0035 6.96499 13.2503C7.11099 13.495 7.36299 13.5726 7.47199 13.5418C7.58399 13.511 7.49699 13.505 7.44399 13.3866C7.39099 13.2721 7.39699 13.1269 7.45899 13.0184C7.51899 12.911 7.51899 12.8483 7.48699 12.7279C7.45899 12.6035 7.47199 12.5328 7.54599 12.4433C7.62099 12.3508 7.92899 12.103 8.02499 11.9945C8.12199 11.8901 8.72799 11.1498 8.80899 11.0891C8.88999 11.0264 9.07299 10.8811 9.13099 10.6503C9.19099 10.4204 9.40499 9.96568 9.25999 9.85125C9.10999 9.73483 8.56599 9.65026 8.54099 9.63533Z" fill="#FFC624"/>
<path d="M10.0181 3.1468C10.0591 3.06322 10.1601 2.85824 10.2171 2.74779H7.87909C7.90709 2.87118 8.00909 3.32889 7.99109 3.51396C7.96609 3.73088 8.03509 3.65327 8.09409 3.74083C8.15309 3.82342 8.13709 3.95376 8.10009 4.05227C8.06309 4.15476 8.04009 4.37665 8.15909 4.63735C8.27709 4.90003 8.41709 5.23038 8.53509 5.2463C8.65309 5.26123 8.62509 5.42839 8.70609 5.3667C8.78709 5.30501 8.80009 5.16869 8.86709 4.96769C8.93309 4.76968 8.93309 4.62143 9.10309 4.52292C9.27409 4.42342 9.74409 4.09904 9.85009 3.98461C9.95309 3.87018 10.0701 3.82342 10.0331 3.62242C9.99609 3.42441 9.95909 3.26123 10.0181 3.1468Z" fill="#FFC624"/>
<path d="M21.5215 4.05245C21.4305 3.99076 20.9005 3.57086 20.6725 3.6226C20.4425 3.67832 20.0385 3.49922 19.9705 3.46141C19.9055 3.42459 19.3615 3.25743 19.0725 3.24549C18.9285 3.2425 18.3295 3.10917 18.0785 3.00071C17.8255 2.89225 17.6115 2.3639 17.1325 2.44748C17.0705 2.45942 16.4925 2.54002 16.3465 2.67036C16.1965 2.8037 16.1315 2.95395 16.0505 2.98479C15.9695 3.01663 15.7335 3.00071 15.7335 3.11613C15.7335 3.23355 15.8145 3.58579 15.7185 3.51713C15.6225 3.44648 15.5255 3.28529 15.4825 3.40967C15.4385 3.53305 15.3645 3.60071 15.3205 3.55494C15.2765 3.50917 15.0525 3.55494 15.0255 3.63255C14.9975 3.71017 14.7085 3.88529 14.5845 3.91016C14.4565 3.93205 14.4065 3.99375 14.3375 4.02459C14.2725 4.05544 13.7725 4.28728 13.6755 4.20171C13.5795 4.11713 13.5515 4.17086 13.4935 4.18579C13.4935 4.18579 13.3155 4.15494 13.2045 4.01862C13.0915 3.87932 13.0705 3.92608 12.9455 3.79574C12.8215 3.6624 12.7905 3.53305 12.6665 3.58877C12.5425 3.64151 12.0105 4.18579 11.8015 4.43355C11.5965 4.67733 11.2295 4.93106 11.4135 5.10718C11.5965 5.28728 11.6925 5.26141 11.7155 5.35992C11.7395 5.4624 11.7615 5.57086 11.7895 5.60768C11.8165 5.64847 11.9945 5.78479 12.0835 5.60171C12.1745 5.41663 12.1865 5.28728 12.2905 5.31713C12.3955 5.34499 12.4145 5.41663 12.3645 5.55594C12.3115 5.69424 12.2745 5.90817 12.0965 5.89822C11.9225 5.89225 11.7305 5.78479 11.6715 5.80967C11.6125 5.83056 11.5755 5.88728 11.5095 5.93902C11.4415 5.99176 11.2365 6.24549 11.0965 6.28529C10.9565 6.3221 10.7855 6.29126 10.8815 6.40668C10.9785 6.5231 11.1185 6.77783 10.9845 6.76788C10.8545 6.76191 10.6295 6.73703 10.6175 6.87036C10.6025 6.99972 10.5425 7.07733 10.5745 7.16688C10.6025 7.26041 10.6985 7.43852 10.8165 7.37683C10.9345 7.31514 11.1615 7.25345 11.2205 7.11414C11.2795 6.97584 11.3485 6.8236 11.4945 6.83056C11.6405 6.83952 11.9975 7.03156 11.9735 7.09922C11.9505 7.16688 11.8795 7.33106 11.9665 7.27534C12.0535 7.2226 12.1275 7.16091 12.1815 7.14001C12.2305 7.11414 12.2985 7.21663 12.3205 7.25345C12.3425 7.29424 12.4885 7.36887 12.5195 7.24449C12.5475 7.12409 12.5795 7.21663 12.6665 7.25345C12.7555 7.29424 13.0205 7.3221 13.0575 7.35195C13.0945 7.3838 13.1755 7.47633 13.0735 7.60071C12.9675 7.72111 12.8485 7.76987 12.6805 7.67733C12.5105 7.58479 12.3275 7.75494 12.1375 7.6624C11.9455 7.56987 12.0325 7.43852 11.8055 7.34598C11.5785 7.25345 11.0585 7.36887 10.8965 7.41464C10.7355 7.46141 10.7265 7.47633 10.6605 7.55395C10.5955 7.63156 10.1605 8.12907 10.1605 8.41365C10.1605 8.69723 10.3225 9.46837 10.8445 9.39076C11.3695 9.31414 11.6865 9.35892 11.6275 9.51215C11.5685 9.66638 11.5995 9.70618 11.6925 9.8823C11.7895 10.0594 12.0105 11.2335 12.0475 11.4266C12.0835 11.6206 12.0195 11.8644 12.2615 11.8276C12.5075 11.7878 12.7655 11.7261 12.8655 11.5032C12.9705 11.2803 12.9865 11.0266 13.1165 10.8972C13.2505 10.7679 13.4115 10.7679 13.4275 10.5818C13.4405 10.3957 13.3895 9.95992 13.4805 9.85743C13.5675 9.75892 13.9805 9.29822 14.0245 9.11215C14.0685 8.93006 14.1265 8.8833 13.9595 8.8833C13.7885 8.8833 13.4995 8.85842 13.4175 8.70718C13.3375 8.55295 13.1445 8.25942 13.1445 8.19076C13.1445 8.1231 13.2625 8.12907 13.3215 8.27434C13.3805 8.41962 13.5885 8.85842 13.8255 8.76589C14.0585 8.67335 14.3915 8.56788 14.4005 8.41962C14.4065 8.27434 14.2945 8.10718 14.1765 8.11414C14.0585 8.1231 13.9345 8.03554 13.9345 7.95295C13.9345 7.86837 13.9565 7.90021 14.0955 7.95295C14.2365 8.00469 14.2825 8.09822 14.4945 8.11414C14.7085 8.12907 14.9505 8.33603 15.0685 8.42857C15.1865 8.5221 15.3955 9.15295 15.4445 9.21464C15.4975 9.27633 15.5565 9.27633 15.6095 9.15295C15.6595 9.02857 15.8795 8.63554 16.0065 8.52807C16.1315 8.4236 16.1375 8.27434 16.2125 8.36688C16.2875 8.46041 16.6045 8.69225 16.6255 8.82758C16.6475 8.96688 16.6105 9.26738 16.6755 9.17484C16.7445 9.08131 16.7965 8.89026 16.8535 8.97683C16.9125 9.05942 16.9125 9.18977 17.0515 9.09026C17.1945 8.99176 17.4375 8.95196 17.3035 8.73802C17.1725 8.5221 17.2595 8.39176 17.3405 8.38579C17.4205 8.37683 17.9745 8.27733 17.9905 7.97683C18.0055 7.67733 17.7975 7.51613 17.8935 7.36191C17.9905 7.20768 18.1295 7.06837 18.1615 7.16091C18.1895 7.25345 18.0865 7.55395 18.2165 7.50718C18.3505 7.46141 18.5065 7.46141 18.5065 7.36887C18.5065 7.27534 18.4755 7.0425 18.5385 6.98479C18.5965 6.9231 19.0285 6.51514 19.0815 6.35395C19.1345 6.19275 19.2305 6.05345 19.1465 5.93006C19.0665 5.80967 18.9255 5.84648 19.0385 5.69126C19.1465 5.54002 19.3335 5.39773 19.4735 5.38579C19.9205 5.34499 19.7925 5.89623 19.8025 6.02061C19.8085 6.14399 19.8085 6.44947 19.8765 6.29424C19.9425 6.144 20.0165 5.95494 20.1505 5.82459C20.2845 5.69126 20.3595 5.60768 20.3655 5.49325C20.3745 5.37683 20.3805 5.33902 20.5045 5.27733C20.6325 5.21564 21.1825 4.99872 21.2355 4.85345C21.2885 4.70817 21.1695 4.57783 21.3005 4.58778C21.4335 4.59375 21.5585 4.73902 21.6265 4.6624C21.6925 4.58778 21.8415 4.44847 21.8325 4.37086C21.8235 4.29126 21.6085 4.11414 21.5215 4.05245Z" fill="#FFC624"/>
<path d="M19.1406 6.63521C19.0936 6.7377 19.0726 6.75262 19.0066 6.95959C18.9386 7.16755 18.9596 7.11083 18.8946 7.24416C18.8296 7.37352 18.7176 7.38944 18.6096 7.47302C18.4966 7.55959 18.4686 7.72675 18.4686 7.72675C18.3726 7.86008 18.8576 7.54466 19.0286 7.44217C19.1966 7.34267 19.1526 7.22924 19.1686 7.06804C19.1836 6.90486 19.2276 6.88197 19.2986 6.81133C19.3736 6.74367 19.3146 6.60436 19.2806 6.50585C19.2426 6.40635 19.1836 6.53571 19.1406 6.63521Z" fill="#FFC624"/>
<path d="M17.627 10.1271C17.68 10.0903 17.643 10.0037 17.723 10.0186C17.804 10.0345 17.879 10.0803 17.975 10.0276C18.071 9.97284 18.151 9.99672 18.137 9.90418C18.121 9.81264 18.137 9.69125 18.115 9.61364C18.093 9.53602 17.959 9.51214 17.863 9.59871C17.767 9.68229 17.636 9.81463 17.636 9.76488C17.636 9.72209 17.691 9.59871 17.664 9.5211C17.636 9.44349 17.68 9.37583 17.53 9.43752C17.385 9.49921 17.304 9.48428 17.251 9.56787C17.201 9.65344 17.142 9.79971 17.052 9.70617C16.965 9.61364 16.707 9.4216 16.707 9.4216C16.686 9.39772 16.39 9.15791 16.492 9.32209C16.595 9.48428 16.75 9.75891 16.824 9.85742C16.897 9.9599 16.978 10.0743 17.067 10.0216C17.154 9.96587 17.17 9.94995 17.287 10.0216C17.406 10.0903 17.577 10.1669 17.627 10.1271Z" fill="#FFC624"/>
<path d="M19.4326 9.91034C19.2926 9.84865 19.3516 9.79591 19.1836 9.76506C19.0126 9.73422 18.8726 9.76506 18.8266 9.73422C18.7826 9.70337 18.5626 9.62875 18.5936 9.73422C18.6206 9.84268 18.8206 9.87352 18.8726 9.90437C18.9226 9.93521 18.7986 10.0039 18.8946 10.0586C18.9886 10.1113 19.0566 10.2098 19.1806 10.18C19.3086 10.1481 19.3516 10.2198 19.4536 10.2347C19.5566 10.2506 19.6596 10.2198 19.6166 10.174C19.5736 10.1273 19.5436 10.0646 19.5506 10.0128C19.5606 9.9571 19.5736 9.97203 19.4326 9.91034Z" fill="#FFC624"/>
<path d="M19.3613 10.5973C19.3083 10.4421 19.1833 10.1585 19.1523 10.2968C19.1253 10.4331 18.9253 10.5356 18.8513 10.5266C18.7823 10.5197 18.8203 10.449 18.8203 10.3863C18.8203 10.3257 18.7823 10.2659 18.6153 10.3127C18.4443 10.3555 18.4103 10.5197 18.3633 10.5048C18.3193 10.4888 18.2023 10.457 18.1273 10.5406C18.0553 10.6281 17.9873 10.7883 17.9003 10.8202C17.8103 10.851 17.5143 10.8878 17.5143 11.0112C17.5143 11.1346 17.5893 11.3177 17.5843 11.4192C17.5743 11.5187 17.4403 11.7475 17.6203 11.8192C17.7223 11.86 17.7943 11.864 17.9163 11.8033C18.0303 11.7406 18.5413 11.5804 18.6093 11.6331C18.6743 11.6888 18.7793 11.8162 18.8303 11.8401C18.9233 11.8958 18.9473 12.0261 19.0723 12.057C19.1963 12.0878 19.2933 12.1038 19.3453 12.1038C19.3983 12.1038 19.5823 12.0411 19.6253 11.9326C19.6693 11.8252 19.7493 11.5714 19.7873 11.447C19.8243 11.3266 19.8613 11.1883 19.7493 11.0789C19.6403 10.9744 19.4103 10.7475 19.3613 10.5973Z" fill="#FFC624"/>
</g>
</svg>
