<svg width="20" height="20" viewBox="0 0 20 20" fill="none" xmlns="http://www.w3.org/2000/svg">
<path fill-rule="evenodd" clip-rule="evenodd" d="M18.633 18.634H16.545V17.308L15.344 16.096L12.506 15.388C13.684 13.959 14.173 11.52 13.543 9.734C13.272 8.964 12.815 8.359 12.212 7.945C12.205 7.919 12.196 7.895 12.189 7.869C11.914 6.764 12.052 5.682 12.55 5.046C12.901 4.597 13.436 4.368 14.141 4.368C15.112 4.368 15.756 4.8 16.056 5.652C16.514 6.952 16.029 8.921 15.056 9.703L14.801 9.908V11.156L18.199 12.004L18.633 12.444V18.634ZM14.141 18.634H10.001H5.86H4.823V17.871L5.358 17.329L9.162 16.38V15.081L8.907 14.875C7.781 13.971 7.217 11.693 7.746 10.188C8.1 9.184 8.859 8.674 10.001 8.674C11.142 8.674 11.901 9.183 12.255 10.188C12.784 11.692 12.219 13.97 11.094 14.875L10.839 15.081V16.38L14.642 17.329L15.177 17.871V18.634H14.141ZM1.367 18.634V12.444L1.801 12.004L5.199 11.156V9.908L4.945 9.703C3.972 8.921 3.487 6.952 3.944 5.652C4.244 4.8 4.889 4.368 5.86 4.368C6.564 4.368 7.1 4.597 7.451 5.046C7.948 5.682 8.087 6.764 7.812 7.868C7.805 7.895 7.796 7.919 7.789 7.946C7.186 8.359 6.728 8.964 6.457 9.735C5.828 11.521 6.317 13.959 7.495 15.388L4.656 16.096L3.456 17.308V18.634H1.367ZM8.706 1.875C8.999 1.538 9.435 1.366 10.001 1.366C10.571 1.366 11.01 1.541 11.304 1.886C11.687 2.337 11.837 3.095 11.723 3.926C11.63 4.02 11.544 4.113 11.473 4.204C10.85 5.001 10.591 6.145 10.721 7.37C10.49 7.333 10.251 7.308 10.001 7.308C9.75 7.308 9.511 7.333 9.279 7.37C9.409 6.145 9.15 5.001 8.528 4.204C8.455 4.112 8.367 4.016 8.272 3.921C8.159 3.084 8.319 2.322 8.706 1.875V1.875ZM18.901 10.772L16.497 10.171C17.512 8.874 17.905 6.788 17.345 5.198C16.854 3.803 15.686 3.002 14.141 3.002C13.753 3.002 13.415 3.053 13.113 3.134C13.066 2.298 12.811 1.548 12.345 1.001C11.788 0.346 10.977 0 10.001 0C9.035 0 8.23 0.338 7.674 0.98C7.199 1.527 6.931 2.284 6.883 3.133C6.582 3.053 6.245 3.002 5.86 3.002C4.315 3.002 3.147 3.803 2.655 5.198C2.095 6.788 2.488 8.874 3.504 10.171L1.099 10.772L0 11.88V20H3.456H5.86H10.001H14.141H16.545H20V11.88L18.901 10.772Z" fill="#001E28"/>
</svg>
