<svg width="20" height="20" viewBox="0 0 20 20" fill="none" xmlns="http://www.w3.org/2000/svg">
<path d="M17.5288 4.38218H13.0965V1.25061H6.90345V4.39218H2.47124L0 6.85341V17.5187L2.47124 19.99H17.5288L20 17.5187V6.85341L17.5288 4.38218ZM8.26413 2.61129H11.7259V4.38218H8.26413V2.61129ZM18.6293 16.9585L16.9585 18.6293H3.04152L1.37069 16.9585V7.4237L3.04152 5.75286H16.9585L18.6293 7.4237V16.9585Z" fill="#001E28"/>
<path d="M12.4062 7.55377H7.60379V9.79489H5.36267V14.6073H7.60379V16.8484H12.4062V14.6073H14.6473V9.79489H12.4062V7.55377ZM13.2766 11.1556V13.2266H11.0355V15.4677H8.96447V13.2266H6.72335V11.1556H8.96447V8.91445H11.0355V11.1556H13.2766Z" fill="#001E28"/>
</svg>
