<svg width="20" height="20" viewBox="0 0 20 20" fill="none" xmlns="http://www.w3.org/2000/svg">
<path d="M5.51367 1.38106H9.31348V0.000200272H10.6865V1.38106H14.4951V0.000200272H15.8682V1.38106H17.5293L20 3.85274V17.5295L17.5293 20.0002H2.47266L0 17.5295V3.85274L2.47168 1.38106H4.13965V0.000200272H5.51367V1.38106ZM1.375 16.9592L3.04199 18.6262H16.959L18.626 16.9592V6.89375H1.375V16.9592ZM5.51758 16.5588H4.13672V13.8029H5.51758V16.5588ZM8.96387 16.5588H7.58203V13.8029H8.96387V16.5588ZM12.418 16.5588H11.0371V13.8029H12.418V16.5588ZM5.51758 11.7277H4.13672V8.967H5.51758V11.7277ZM8.96387 11.7277H7.58203V8.967H8.96387V11.7277ZM12.418 11.7277H11.0371V8.967H12.418V11.7277ZM15.8721 8.967V11.7277H14.4912V8.967H15.8721ZM1.375 4.42305V5.52168H18.626V4.42305L16.959 2.75508H15.8682V4.12911H14.4951V2.75508H10.6865V4.12911H9.31348V2.75508H5.51367V4.12911H4.13965V2.75508H3.04199L1.375 4.42305Z" fill="#001E28"/>
</svg>
