<svg width="20" height="20" viewBox="0 0 20 20" fill="none" xmlns="http://www.w3.org/2000/svg">
<path d="M2.41309 15.1763C3.74205 15.1763 4.8252 16.2584 4.8252 17.5884C4.82515 18.9173 3.74202 20.0005 2.41309 20.0005C1.08212 20.0005 4.90432e-05 18.9174 0 17.5884C0 16.2584 1.08209 15.1763 2.41309 15.1763ZM2.41309 16.5493C1.84009 16.5493 1.37402 17.0154 1.37402 17.5884C1.37407 18.1604 1.84012 18.6265 2.41309 18.6265C2.98602 18.6264 3.45112 18.1603 3.45117 17.5884C3.45117 17.0154 2.98605 16.5494 2.41309 16.5493ZM20 18.2749H6.20605V16.9009H20V18.2749ZM2.41309 7.58839C3.74205 7.58844 4.8252 8.67053 4.8252 10.0005C4.82514 11.3294 3.74201 12.4126 2.41309 12.4126C1.08212 12.4126 5.42191e-05 11.3295 0 10.0005C0 8.6705 1.08209 7.58839 2.41309 7.58839ZM2.41309 8.96144C1.84009 8.96144 1.37402 9.4275 1.37402 10.0005C1.37408 10.5725 1.84012 11.0386 2.41309 11.0386C2.98601 11.0385 3.45112 10.5724 3.45117 10.0005C3.45117 9.42753 2.98605 8.96149 2.41309 8.96144ZM20 10.687H6.20605V9.313H20V10.687ZM2.41309 0.00050354C3.74205 0.000550125 4.8252 1.08264 4.8252 2.41261C4.82514 3.74353 3.74201 4.82565 2.41309 4.8257C1.08212 4.8257 5.93057e-05 3.74356 0 2.41261C0 1.08261 1.08209 0.00050354 2.41309 0.00050354ZM2.41309 1.37355C1.84009 1.37355 1.37402 1.83961 1.37402 2.41261C1.37408 2.98456 1.84012 3.45265 2.41309 3.45265C2.98601 3.45261 3.45111 2.98453 3.45117 2.41261C3.45117 1.83964 2.98605 1.3736 2.41309 1.37355ZM20 3.09914H6.20605V1.72511H20V3.09914Z" fill="#001E28"/>
</svg>
