<svg width="20" height="20" viewBox="0 0 20 20" fill="none" xmlns="http://www.w3.org/2000/svg">
<path d="M10 0C15.5136 1.57852e-07 19.9999 4.485 20 9.99902C20 15.5131 15.5137 20 10 20C4.48635 20 0 15.5127 0 9.99902C6.87437e-05 4.48543 4.48639 0 10 0ZM10 1.37402C5.2436 1.37402 1.37409 5.24221 1.37402 9.99902C1.37402 14.7559 5.24356 18.626 10 18.626C14.7564 18.626 18.626 14.7542 18.626 9.99902C18.6259 5.24391 14.7564 1.37402 10 1.37402ZM11.0352 13.1045H13.1055V15.1738H6.89453V13.1045H8.96484V8.96484H6.89551V6.89453H11.0352V13.1045ZM11.0352 3.44434V5.51465H8.96484V3.44434H11.0352Z" fill="#001E28"/>
</svg>
