<svg width="20" height="20" viewBox="0 0 20 20" fill="none" xmlns="http://www.w3.org/2000/svg">
<path d="M17.9933 15.5861C17.6909 16.2848 17.3329 16.928 16.9181 17.5193C16.3526 18.3255 15.8897 18.8835 15.5329 19.1934C14.9798 19.702 14.3873 19.9625 13.7527 19.9773C13.2972 19.9773 12.7478 19.8477 12.1083 19.5847C11.4667 19.323 10.8771 19.1934 10.338 19.1934C9.77259 19.1934 9.16619 19.323 8.51757 19.5847C7.86796 19.8477 7.34464 19.9847 6.94453 19.9983C6.33603 20.0242 5.7295 19.7563 5.12409 19.1934C4.73768 18.8563 4.25436 18.2786 3.67537 17.4601C3.05415 16.586 2.54343 15.5725 2.14331 14.417C1.71481 13.1689 1.5 11.9603 1.5 10.7902C1.5 9.44984 1.78962 8.29383 2.36973 7.32509C2.82564 6.54696 3.43216 5.93316 4.19128 5.48255C4.95039 5.03195 5.77061 4.80233 6.65392 4.78763C7.13724 4.78763 7.77105 4.93714 8.55868 5.23096C9.34409 5.52576 9.84839 5.67526 10.0695 5.67526C10.2348 5.67526 10.795 5.50045 11.7448 5.15194C12.6429 4.82874 13.4009 4.69492 14.0218 4.74764C15.7045 4.88343 16.9687 5.54675 17.8094 6.74177C16.3045 7.6536 15.5601 8.93072 15.5749 10.5691C15.5885 11.8452 16.0514 12.9071 16.9613 13.7503C17.3736 14.1417 17.8341 14.4441 18.3464 14.6589C18.2353 14.9812 18.118 15.2898 17.9933 15.5861V15.5861ZM14.1342 0.400114C14.1342 1.40034 13.7688 2.33425 13.0404 3.19867C12.1614 4.22629 11.0982 4.8201 9.9453 4.7264C9.93061 4.60641 9.9221 4.48011 9.9221 4.3474C9.9221 3.38718 10.3401 2.35956 11.0824 1.51934C11.453 1.09392 11.9244 0.74019 12.496 0.458013C13.0663 0.180046 13.6058 0.0263242 14.1132 0C14.128 0.133715 14.1342 0.267438 14.1342 0.400101V0.400114Z" fill="black"/>
</svg>
