<svg width="20" height="20" viewBox="0 0 20 20" fill="none" xmlns="http://www.w3.org/2000/svg">
<path d="M10.0004 7.6844C8.72319 7.6844 7.68439 8.7236 7.68439 10C7.68439 11.2764 8.72319 12.3156 10.0004 12.3156C11.2776 12.3156 12.3156 11.2764 12.3156 10C12.3156 8.7236 11.2768 7.6844 10.0004 7.6844ZM10.0004 10.9968C9.45039 10.9968 9.00279 10.55 9.00279 10C9.00279 9.45 9.45039 9.0032 10.0004 9.0032C10.5504 9.0032 10.9972 9.45 10.9972 10C10.9972 10.55 10.5504 10.9968 10.0004 10.9968Z" fill="#001E28"/>
<path d="M10.0004 1.36C8.72319 1.36 7.68439 2.3992 7.68439 3.6756C7.68439 4.952 8.72319 5.9928 10.0004 5.9928C11.2776 5.9928 12.3156 4.9536 12.3156 3.6756C12.3156 2.3976 11.2768 1.36 10.0004 1.36V1.36ZM10.0004 4.674C9.45039 4.674 9.00279 4.2256 9.00279 3.6756C9.00279 3.1256 9.45039 2.6788 10.0004 2.6788C10.5504 2.6788 10.9972 3.1256 10.9972 3.6756C10.9972 4.2256 10.5504 4.674 10.0004 4.674Z" fill="#001E28"/>
<path d="M10.0004 14.0088C8.72319 14.0088 7.68439 15.048 7.68439 16.3244C7.68439 17.6008 8.72319 18.64 10.0004 18.64C11.2776 18.64 12.3156 17.6008 12.3156 16.3244C12.3156 15.048 11.2768 14.0088 10.0004 14.0088ZM10.0004 17.3212C9.45039 17.3212 9.00279 16.8744 9.00279 16.3244C9.00279 15.7744 9.45039 15.3276 10.0004 15.3276C10.5504 15.3276 10.9972 15.7744 10.9972 16.3244C10.9972 16.8744 10.5504 17.3212 10.0004 17.3212Z" fill="#001E28"/>
</svg>
