<svg width="24" height="16" viewBox="0 0 24 16" fill="none" xmlns="http://www.w3.org/2000/svg">
<g clip-path="url(#clip0_986_17596)">
<path d="M4.86255 1.43051e-06L12.8593 5.32324H24V1.43051e-06H4.86255Z" fill="#E23F29"/>
<path d="M0 3.26579L7.11479 7.99303L0 12.7471V14.0287L9.02074 7.99303L0 1.95737V3.26579Z" fill="#FBB516"/>
<path d="M0 -5.91278e-05V1.9571L9.02074 7.99276L0 14.0284V15.9995H2.88292L12.4566 9.5957L23.9993 9.60267V6.39479L12.4396 6.39877L2.90092 -5.91278e-05H0Z" fill="#087D5A"/>
<path d="M4.84277 15.9999H23.9992V10.6746L12.8485 10.6557L4.84277 15.9999Z" fill="#2B3382"/>
<path d="M0 12.7473L7.11479 7.99321L0 3.26597V12.7473Z" fill="#121212"/>
</g>
<defs>
<clipPath id="clip0_986_17596">
<rect width="24" height="16" fill="white"/>
</clipPath>
</defs>
</svg>
