<svg width="20" height="20" viewBox="0 0 20 20" fill="none" xmlns="http://www.w3.org/2000/svg">
<path d="M17.5283 0L20 2.47168V17.5293L17.5312 20H2.46973L0 17.5293V2.46973L2.47266 0H17.5283ZM1.91309 4.23535C1.86824 4.23535 1.83616 4.26579 1.83594 4.31152V6.01367C1.83594 6.05967 1.86809 6.09082 1.91309 6.09082H4.42871C4.62871 6.09082 4.79687 6.25899 4.79688 6.45898V13.0391C4.79685 13.085 4.76568 13.1172 4.7207 13.1172H1.91309C1.86809 13.1172 1.83594 13.1484 1.83594 13.1934V14.8965C1.83616 14.9422 1.86824 14.9717 1.91309 14.9717H9.53711C9.58289 14.9716 9.61404 14.9422 9.61426 14.8965V13.1934C9.61426 13.1484 9.58305 13.1172 9.53711 13.1172H6.73047C6.68449 13.1172 6.65335 13.085 6.65332 13.0391V6.39746C6.65332 6.19957 6.57733 6.01395 6.43848 5.87598L5.01172 4.4502C4.87378 4.31228 4.69012 4.23541 4.49023 4.23535H1.91309ZM12.5469 4.23535C12.348 4.23538 12.1634 4.31229 12.0254 4.4502L10.5986 5.87598C10.4597 6.01396 10.3838 6.19954 10.3838 6.39746V12.8096C10.3838 13.0085 10.4597 13.1931 10.5986 13.3311L12.0254 14.7568C12.1633 14.8957 12.348 14.9716 12.5469 14.9717H15.998C16.198 14.9717 16.3816 14.8957 16.5195 14.7568L17.9463 13.3311C18.0852 13.1931 18.1611 13.0085 18.1611 12.8096V6.39746C18.1611 6.19952 18.0852 6.01396 17.9463 5.87598L16.5195 4.4502C16.3816 4.31229 16.198 4.23536 15.998 4.23535H12.5469ZM15.9375 6.09082C16.1364 6.09088 16.3055 6.25911 16.3057 6.45898V12.748C16.3057 12.946 16.1365 13.1162 15.9375 13.1162H12.6084C12.3944 13.1162 12.2402 12.946 12.2402 12.748V6.45898C12.2403 6.25908 12.3945 6.09082 12.6084 6.09082H15.9375Z" fill="#DC0000"/>
<path d="M15.9978 4.23438C16.1978 4.23438 16.3823 4.31122 16.5203 4.44922L17.946 5.87598C18.085 6.01398 18.1609 6.19848 18.1609 6.39648V12.8105C18.1608 13.0094 18.0849 13.1921 17.946 13.3311L16.5203 14.7578C16.3823 14.8958 16.1978 14.9727 15.9978 14.9727H12.5466C12.3469 14.9726 12.163 14.8955 12.0251 14.7578L10.5994 13.3311C10.4604 13.1921 10.3836 13.0095 10.3835 12.8105V6.39648C10.3835 6.19848 10.4604 6.01398 10.5994 5.87598L12.0251 4.44922C12.1631 4.31141 12.3468 4.23444 12.5466 4.23438H15.9978ZM4.48999 4.23438C4.68974 4.23445 4.87357 4.31147 5.01147 4.44922L6.43726 5.87695C6.57623 6.01393 6.65305 6.19852 6.65308 6.39648V13.04C6.65328 13.0856 6.68365 13.116 6.72925 13.1162H9.53784C9.5827 13.1163 9.61393 13.1475 9.61401 13.1924V14.8955C9.61401 14.9415 9.58276 14.9716 9.53784 14.9717H1.91284C1.86784 14.9717 1.83569 14.9415 1.83569 14.8955V13.1924C1.83578 13.1475 1.86791 13.1162 1.91284 13.1162H4.72046C4.7663 13.1162 4.79643 13.0858 4.79663 13.04V6.45996C4.79663 6.25996 4.62847 6.0918 4.42847 6.0918H1.91284C1.86787 6.0918 1.83574 6.05962 1.83569 6.01367V4.31152C1.83572 4.26555 1.86786 4.23438 1.91284 4.23438H4.48999ZM12.6091 6.0918C12.3943 6.0918 12.2402 6.25916 12.24 6.45898V12.748C12.24 12.946 12.3941 13.1162 12.6091 13.1162H15.9373C16.1371 13.116 16.3044 12.9459 16.3044 12.748V6.45898C16.3042 6.25928 16.137 6.092 15.9373 6.0918H12.6091Z" fill="white"/>
</svg>
