<svg width="20" height="21" viewBox="0 0 20 21" fill="none" xmlns="http://www.w3.org/2000/svg">
<path d="M19.0177 0L0 19.0504L0.965742 20.0178L19.9834 0.967405L19.0177 0Z" fill="#001E28"/>
<path d="M1.37848 5.7082H2.77069V14.3409L4.13685 12.9722V4.34048H0.0121148V17.1038L1.37848 15.7355V5.7082Z" fill="#001E28"/>
<path d="M4.13685 20.066V18.7745L2.84781 20.066H4.13685Z" fill="#001E28"/>
<path d="M6.66586 9.70199H7.40143L8.76679 8.33427H5.2995V11.8077L6.66586 10.439V9.70199Z" fill="#001E28"/>
<path d="M8.05847 18.6983H6.66586V16.2414L5.2995 17.6101V20.066H9.42484V13.4777L8.05847 14.8464V18.6983Z" fill="#001E28"/>
<path d="M11.9536 1.41141H13.3459V3.74752L14.7122 2.37881V0.0436956H10.5875V6.51085L11.9536 5.14213V1.41141Z" fill="#001E28"/>
<path d="M13.3459 18.6983H11.9536V10.9445L10.5875 12.3132V20.066H14.7122V8.18116L13.3459 9.54988V18.6983Z" fill="#001E28"/>
<path d="M19.237 3.6488L17.8714 5.01651H18.6338V18.6983H17.241V5.6482L15.8749 7.01692V20.066H20V3.6488H19.237Z" fill="#001E28"/>
</svg>
