<svg width="20" height="20" viewBox="0 0 20 20" fill="none" xmlns="http://www.w3.org/2000/svg">
<path fill-rule="evenodd" clip-rule="evenodd" d="M18.3333 16.9048L12.2329 15.1422V14.229C13.0762 14.0632 13.7375 13.9403 14.4108 13.8148C15.0221 13.7015 15.6508 13.5845 16.4567 13.4288L16.7333 13.3743V13.0919C16.7333 8.93824 15.3208 1.12862 10.0104 0.960365V0.952393C9.98083 0.952393 9.95292 0.956169 9.92375 0.956589C9.895 0.956169 9.86708 0.952393 9.8375 0.952393V0.960365C4.52667 1.12862 3.11417 8.93824 3.11417 13.0919V13.3743L3.39083 13.4288C4.1975 13.5849 4.82708 13.7015 5.43833 13.8148C6.15583 13.9491 6.85333 14.0788 7.78042 14.2613V15.2381L1.66667 16.9048L0.238095 18.3333L0 20H20L19.7619 18.3333L18.3333 16.9048Z" fill="white"/>
<path fill-rule="evenodd" clip-rule="evenodd" d="M11.8853 18.2541H8.08193L6.12235 16.2515L8.22818 15.7105L8.48068 14.4985C8.91568 14.7455 9.41943 14.8943 10.0148 14.8943C10.5819 14.8943 11.0903 14.7622 11.5419 14.5101L11.7919 15.7105L13.8544 16.2421L11.8853 18.2541ZM6.68387 7.35195L7.15221 6.86221C9.42054 7.80238 11.5701 7.80238 12.7764 7.69297L13.3101 8.47674C13.1522 11.1152 12.4472 14.1968 10.0151 14.1968C7.16804 14.1968 6.70012 9.9746 6.68387 7.35195V7.35195ZM5.56291 13.3665C5.02499 13.2648 4.47332 13.1601 3.79999 13.028C3.85999 8.9545 5.19541 1.7421 9.92374 1.6545C14.6525 1.7421 15.9879 8.9545 16.0479 13.028C15.375 13.1596 14.8233 13.2648 14.2862 13.366C13.7104 13.475 13.1471 13.5818 12.4696 13.7156C13.345 12.6451 13.8658 10.8596 13.9987 8.39552L14.005 8.27587L13.1079 6.95621L12.9062 6.97843C11.7804 7.10279 9.54249 7.15535 7.20499 6.128L6.98957 6.03313L6.00041 7.06775V7.21048C6.00041 9.2139 6.25832 12.1613 7.60124 13.7601C6.82541 13.6058 6.19832 13.487 5.56291 13.3665V13.3665ZM18.3983 16.693L12.3713 15.1391L12.2329 14.4742C13.0763 14.3054 13.7375 14.1802 14.4108 14.0524C15.0221 13.937 15.6508 13.8178 16.4567 13.6592L16.7333 13.6037V13.3161C16.7333 9.08573 15.3208 1.13188 10.0104 0.960512V0.952393C9.98083 0.952393 9.95292 0.956239 9.92375 0.956666C9.895 0.956239 9.86708 0.952393 9.8375 0.952393V0.960512C4.52667 1.13188 3.11417 9.08573 3.11417 13.3161V13.6037L3.39083 13.6592C4.1975 13.8182 4.82708 13.937 5.43833 14.0524C6.15583 14.1891 6.85333 14.3212 7.78042 14.5071L7.64875 15.1391L1.60125 16.693L0 18.3362V20H0.682917V18.6242L1.95125 17.3225L5.35 16.4494L7.79875 18.9515H12.1683L14.5938 16.4738L14.5404 16.4186L18.0479 17.3225L19.3167 18.6242L19.3163 20H20V18.3362L18.3983 16.693Z" fill="#555E61"/>
</svg>
