<svg width="20" height="20" viewBox="0 0 20 20" fill="none" xmlns="http://www.w3.org/2000/svg">
<path d="M1.37891 20H0V18.6211H1.37891V20ZM7.58594 20H6.20703V18.6211H7.58594V20ZM13.793 20H12.4141V18.6211H13.793V20ZM20 20H18.6211V18.6211H20V20ZM4.52148 17.9307H3.1416V16.5518H4.52148V17.9307ZM10.7275 17.9307H9.34863V16.5518H10.7275V17.9307ZM16.8584 17.9307H15.4785V16.5518H16.8584V17.9307ZM10 0C12.0119 1.2628e-07 13.9416 0.799074 15.3643 2.22168C16.7869 3.64431 17.5859 5.57405 17.5859 7.58594C17.5859 11.7757 14.1897 15.1729 10 15.1729C5.81025 15.1729 2.41406 11.7757 2.41406 7.58594C2.41421 3.39631 5.81034 0 10 0ZM7.89551 11.6953L8.54004 13.6191C9.49882 13.851 10.4992 13.851 11.458 13.6191L12.1025 11.6953L11.3809 10.9736H8.61816L7.89551 11.6953ZM13.1113 12.9561L13.1074 12.959L13.1113 12.958V12.9561C13.4885 12.7387 13.8421 12.4823 14.166 12.1914H13.3682L13.1113 12.9561ZM5.83789 12.1904C6.16174 12.4822 6.51571 12.7387 6.89355 12.9561L6.63574 12.1904H5.83789ZM3.81836 8.13184C3.90104 9.09096 4.20759 10.0175 4.71289 10.8369H6.8418L7.45117 10.2275L6.53711 7.41309L5.60059 7.12988L3.81836 8.13184ZM13.4639 7.41113L12.5449 10.2266L13.1582 10.8359H15.2881C15.7929 10.0167 16.0988 9.09057 16.1816 8.13184L14.3994 7.12988L13.4639 7.41113ZM7.81641 7.09082L8.65137 9.65527H11.3486L12.1836 7.09082L10 5.50586L7.81641 7.09082ZM4.36816 4.97559C4.13664 5.47457 3.97273 6.0024 3.88184 6.54492L4.71094 6.07812L4.36816 4.97559ZM15.2891 6.07812L16.1191 6.54395C16.0279 6.00168 15.8635 5.47429 15.6318 4.97559L15.2891 6.07812ZM7.22949 2.03223C6.5061 2.39433 5.85969 2.89399 5.32715 3.50293L6.05957 5.85547L6.91895 6.11523L9.32324 4.36816V3.49512L7.22949 2.03223ZM10.6768 3.49512V4.36816L13.0801 6.11426L13.9404 5.85547L14.6729 3.50391C14.1405 2.89456 13.4941 2.3944 12.7705 2.03223L10.6768 3.49512ZM10 1.37891C9.60371 1.37916 9.20843 1.41799 8.81934 1.49316L10 2.31738L11.1807 1.49316C10.7916 1.41799 10.3963 1.37916 10 1.37891Z" fill="#001E28"/>
</svg>
