<svg width="20" height="20" viewBox="0 0 20 20" fill="none" xmlns="http://www.w3.org/2000/svg">
<path d="M17.5332 0L19.999 2.46973V17.5303L17.5332 20H2.46582L0 17.5303V8.97168H4.16992V2.46973L6.63672 0H17.5332ZM7.20117 1.36621L5.53516 3.03613V17.5234L4.41113 18.6338H16.9688L18.6348 16.9639V3.03613L16.9688 1.36621H7.20117ZM1.36426 10.3379V16.9639L2.75098 18.3535L4.16992 16.9512V10.3379H1.36426ZM17.252 15.8584H6.91992V14.4932H17.252V15.8584ZM17.252 12.4082H6.91992V11.042H17.252V12.4082ZM17.252 8.95801H6.91992V7.5918H17.252V8.95801ZM17.252 5.50684H6.91992V4.14062H17.252V5.50684Z" fill="#001E28"/>
</svg>
