<svg width="20" height="20" viewBox="0 0 20 20" fill="none" xmlns="http://www.w3.org/2000/svg">
<path d="M20.0002 18.8281L19.008 19.7998L16.3976 17.2412H13.134C12.957 18.7882 11.6281 20 10.0021 20C8.37516 20 7.04632 18.7882 6.86932 17.2412H3.508L2.51093 14.3008L4.75507 12.1006L5.39276 6.45996L0.000183105 1.17871L0.992371 0.207031L20.0002 18.8281ZM8.30682 17.2412C8.47482 18.0242 9.15316 18.6269 10.0021 18.627C10.8511 18.627 11.5285 18.0242 11.6965 17.2412H8.30682ZM6.09393 12.7324L4.11444 14.6719L4.52167 15.8672H14.9953L6.66327 7.70508L6.09393 12.7324ZM10.7033 0V2.76172H12.2814L14.5519 5.93262L15.2346 11.9805L13.6476 10.4248L13.1974 6.43359L11.5529 4.13477H8.45135L7.94647 4.83984L6.93964 3.85352L7.72186 2.76172H9.30096V0H10.7033Z" fill="#001E28"/>
</svg>
