<svg width="20" height="20" viewBox="0 0 20 20" fill="none" xmlns="http://www.w3.org/2000/svg">
<path d="M15.2717 15.8008C16.8775 15.8008 17.7156 16.6563 18.3889 17.373C18.8934 17.9105 19.3132 18.4055 20.0002 18.5498V19.9248C18.7162 19.7607 17.9871 18.9526 17.3879 18.3145C16.7711 17.6572 16.2831 17.1758 15.2717 17.1758C14.2603 17.1758 13.7722 17.6572 13.1555 18.3145C12.4807 19.032 11.6442 19.9248 10.0383 19.9248C8.43231 19.9248 7.59433 19.032 6.92108 18.3145C6.30354 17.6572 5.81454 17.1758 4.80389 17.1758C3.79325 17.1758 3.30521 17.6563 2.68768 18.3135C2.08921 18.9516 1.35956 19.7597 0.076355 19.9238V18.5498C0.763311 18.4055 1.18219 17.9106 1.68671 17.374C2.36075 16.6572 3.1955 15.8018 4.80389 15.8018C6.41212 15.8018 7.25186 16.6563 7.92206 17.373C8.53885 18.0303 9.02758 18.5498 10.0383 18.5498C11.0489 18.5498 11.5369 18.0303 12.1545 17.373C12.8292 16.6563 13.6658 15.8008 15.2717 15.8008ZM10.0383 0C12.0425 2.18465e-05 13.9648 0.796627 15.382 2.21387C16.7991 3.63111 17.5959 5.55342 17.5959 7.55762C17.5957 11.7312 14.2119 15.1142 10.0383 15.1143C5.86464 15.1143 2.48085 11.7312 2.48065 7.55762C2.48065 3.38386 5.86451 0 10.0383 0ZM7.96503 11.4023C7.76432 12 7.65066 12.6239 7.62811 13.2539C8.66288 13.6923 9.79773 13.8398 10.9103 13.6816H10.9133C9.80093 13.1063 8.80188 12.334 7.96503 11.4023ZM9.90741 8.52148C9.39799 8.95642 8.95868 9.46749 8.60468 10.0361C9.71134 11.4396 11.21 12.4825 12.9103 13.0332C13.7172 12.6076 14.4212 12.0105 14.9719 11.2832L14.9728 11.2803C14.1648 11.1782 13.3772 10.9519 12.6379 10.6104C11.5855 10.1229 10.6528 9.40999 9.90741 8.52148ZM9.26581 4.67773C7.06276 5.96781 5.43552 8.04872 4.65155 10.5938C5.06906 11.3325 5.63401 11.9782 6.31073 12.4902L6.31171 12.4912C6.57831 10.3721 7.6933 8.45186 9.40155 7.16992C9.51675 6.33837 9.47075 5.49183 9.26581 4.67773ZM13.2404 2.27441C13.6287 3.10454 13.9245 3.97527 14.1223 4.87012C14.4771 6.46347 14.4803 8.11516 14.132 9.70996L14.134 9.70703C14.653 9.85927 15.1892 9.94616 15.7297 9.9668C16.9233 7.14027 15.8638 3.86566 13.2404 2.27441ZM11.2531 1.49414C10.5708 1.35809 9.86993 1.33747 9.18085 1.43359H9.18378C9.70375 2.10465 10.1137 2.8549 10.3967 3.65527C10.8154 4.84913 10.9414 6.12626 10.7639 7.37891C11.3204 8.11796 12.0276 8.73048 12.8391 9.1748C13.0935 7.84738 13.0732 6.48139 12.7795 5.16211C12.4897 3.85944 11.973 2.61781 11.2531 1.49414ZM7.71405 1.83008C5.02025 2.92249 3.45157 5.74458 3.94452 8.60938L3.9455 8.61035C4.96211 6.39597 6.65657 4.56104 8.78339 3.37207C8.50283 2.80967 8.1422 2.29018 7.71405 1.83008Z" fill="#001E28"/>
</svg>
