<svg width="20" height="20" viewBox="0 0 20 20" fill="none" xmlns="http://www.w3.org/2000/svg">
<path d="M3.66806 6.82812C4.60706 6.00112 5.81747 5.50781 7.06747 5.50781C8.28842 5.50785 9.53469 5.96326 10.5606 6.99121C13.3255 9.75805 19.7093 16.1487 19.7384 16.1777L15.92 19.9971L12.7374 20L8.68759 15.9609C7.68271 16.9388 6.34161 17.4501 5.01376 17.4502C3.72276 17.4502 2.44314 16.9659 1.49814 15.9609C-0.37572 13.967 -0.54369 11.133 1.28915 9.16309L1.6915 8.76074L0.0137634 7.08008L1.96591 5.12402L3.66806 6.82812ZM7.06747 6.86426C6.07247 6.86426 5.09019 7.27709 4.37119 7.99609L2.24716 10.1221C0.979268 11.4871 1.0635 13.5203 2.48447 15.0322C3.12845 15.7171 4.02686 16.0928 5.01376 16.0928C6.02653 16.0927 7.02138 15.6911 7.74326 14.9893L9.64365 15L13.296 18.6436L15.3585 18.6416L17.8224 16.1768L11.7901 10.1387L8.79794 13.1328L6.879 11.2119L9.87021 8.21777L9.60263 7.94922C8.70671 7.05229 7.72947 6.86429 7.06747 6.86426ZM20.0001 7.03516L15.1192 9.05859L14.6007 7.80566L19.4806 5.78223L20.0001 7.03516ZM17.8185 3.14258L14.0831 6.87988L13.1251 5.92285L16.8604 2.18457L17.8185 3.14258ZM14.2237 0.517578L12.2013 5.4043L10.9493 4.88574L12.9718 0L14.2237 0.517578Z" fill="#001E28"/>
</svg>
