<svg width="20" height="20" viewBox="0 0 20 20" fill="none" xmlns="http://www.w3.org/2000/svg">
<path d="M17.5293 0.000610352L20 2.46448V12.6715L17.5293 15.1364H10.6191L5.52148 20.0006V15.1364H2.4707L0 12.6715V2.46448L2.46973 0.000610352H17.5293ZM3.03711 1.36389L1.36719 3.03088V12.1071L3.03711 13.774H6.8877V16.8082L10.0713 13.774H16.9629L18.6328 12.1071V3.03088L16.9629 1.36389H3.03711ZM9.47754 10.5084C9.50252 10.5086 9.53998 10.5341 9.54004 10.5709V11.9908C9.54004 12.0297 9.50254 12.0561 9.47754 12.0563H8.05469C8.01669 12.0563 7.99023 12.0298 7.99023 11.9908V10.5709C7.99028 10.534 8.01672 10.5084 8.05469 10.5084H9.47754ZM12.0654 3.10217C12.2314 3.10217 12.387 3.16786 12.502 3.28186L13.6807 4.47034C13.7957 4.58734 13.8594 4.74088 13.8594 4.90588V6.55432C13.8594 6.71032 13.7957 6.87582 13.6807 6.99182L12.502 8.1676C12.387 8.2836 12.2314 8.34631 12.0654 8.34631H9.84863C9.66883 8.34635 9.54125 8.48817 9.54102 8.65295V9.83069C9.54083 9.86953 9.50148 9.89319 9.47754 9.89319H8.05371C8.0158 9.89319 7.98938 9.86953 7.98926 9.83069V8.6012C7.98932 8.44925 8.054 8.28355 8.16895 8.1676L9.34863 6.99182C9.46363 6.87582 9.63088 6.81116 9.79688 6.81116H12.0146C12.1816 6.81116 12.3222 6.67146 12.3223 6.50549V4.95764C12.3223 4.79064 12.1816 4.64905 12.0146 4.64905H7.98926C7.82345 4.6493 7.68262 4.79079 7.68262 4.95764V5.81409C7.68262 5.85194 7.6569 5.87737 7.61914 5.87756H6.19531C6.15752 5.87739 6.13184 5.85196 6.13184 5.81409V4.90588C6.13184 4.74091 6.19556 4.58733 6.31152 4.47034L7.50293 3.28186C7.61887 3.16792 7.77255 3.10224 7.93945 3.10217H12.0654Z" fill="#001E28"/>
</svg>
