<svg width="20" height="20" viewBox="0 0 20 20" fill="none" xmlns="http://www.w3.org/2000/svg">
<path fill-rule="evenodd" clip-rule="evenodd" d="M18.519 13.847L14.239 12.853L12.597 12.472V11.776C12.793 11.695 13.006 11.609 13.221 11.521C13.546 11.389 13.883 11.253 14.24 11.111C14.834 10.875 15.466 10.628 16.111 10.387C16.111 10.155 16.109 9.91 16.103 9.658C16.012 5.864 15.12 0 10 0C4.88 0 3.989 5.864 3.898 9.658C3.892 9.91 3.889 10.155 3.889 10.387C5.18 10.87 6.416 11.371 7.404 11.776V12.472L5.146 12.996L1.482 13.847L0 15.238V20V20.001H10H20V20V15.238L18.519 13.847Z" fill="#EB0037"/>
</svg>
