<svg width="20" height="20" viewBox="0 0 20 20" fill="none" xmlns="http://www.w3.org/2000/svg">
<path d="M9.99994 13.793C11.713 13.7951 13.1013 15.1834 13.1035 16.8965C13.1035 18.6105 11.7139 20 9.99994 20C8.28599 20 6.89642 18.6104 6.89642 16.8965C6.89646 15.1826 8.28602 13.793 9.99994 13.793ZM3.10345 13.793C4.81654 13.7951 6.20482 15.1834 6.20697 16.8965C6.20697 18.1517 5.45063 19.2833 4.29095 19.7637C3.1313 20.244 1.79667 19.9784 0.909119 19.0908C0.0215906 18.2033 -0.244045 16.8686 0.236267 15.709C0.716619 14.5493 1.84824 13.793 3.10345 13.793ZM16.8964 13.793C18.6095 13.7951 19.9978 15.1834 19.9999 16.8965C19.9999 18.1517 19.2436 19.2833 18.0839 19.7637C16.9243 20.2439 15.5896 19.9783 14.7021 19.0908C13.8146 18.2033 13.549 16.8686 14.0292 15.709C14.5096 14.5494 15.6413 13.793 16.8964 13.793ZM3.10345 15.1729C2.15127 15.1729 1.37986 15.9443 1.37982 16.8965C1.37982 17.8487 2.15125 18.6211 3.10345 18.6211C4.05532 18.6202 4.82722 17.8483 4.82806 16.8965C4.82803 15.9443 4.05565 15.1729 3.10345 15.1729ZM9.99994 15.1729C9.04779 15.1729 8.27634 15.9443 8.27631 16.8965C8.27631 17.8487 9.04777 18.621 9.99994 18.6211C10.9518 18.6202 11.7237 17.8483 11.7245 16.8965C11.7245 15.9443 10.9521 15.1729 9.99994 15.1729ZM16.8964 15.1729C15.9443 15.1729 15.1728 15.9444 15.1728 16.8965C15.1728 17.8486 15.9443 18.621 16.8964 18.6211C17.8483 18.6202 18.6202 17.8483 18.621 16.8965C18.621 15.9443 17.8486 15.1729 16.8964 15.1729ZM6.5517 6.89648C8.26568 6.89648 9.65521 8.28601 9.65521 10C9.6531 11.7131 8.26481 13.1014 6.5517 13.1035C4.83774 13.1035 3.44818 11.714 3.44818 10C3.44818 8.28603 4.83774 6.89652 6.5517 6.89648ZM13.4482 6.89648C15.1622 6.89648 16.5517 8.28601 16.5517 10C16.5496 11.7131 15.1613 13.1014 13.4482 13.1035C11.7343 13.1034 10.3447 11.7139 10.3447 10C10.3447 8.28605 11.7343 6.89655 13.4482 6.89648ZM6.5517 8.27539C5.59951 8.27542 4.82806 9.0478 4.82806 10C4.82806 10.9522 5.59951 11.7246 6.5517 11.7246C7.50356 11.7238 8.27546 10.9519 8.27631 10C8.27631 9.04779 7.50391 8.27539 6.5517 8.27539ZM13.4482 8.27539C12.496 8.27546 11.7245 9.04783 11.7245 10C11.7245 10.9522 12.496 11.7245 13.4482 11.7246C14.4 11.7238 15.1719 10.9519 15.1728 10C15.1728 9.04779 14.4004 8.27539 13.4482 8.27539ZM9.99994 0C11.7139 0 13.1035 1.38953 13.1035 3.10352C13.1034 4.81747 11.7139 6.20703 9.99994 6.20703C8.28689 6.20487 6.89857 4.81657 6.89642 3.10352C6.89642 1.38956 8.28599 4.88335e-05 9.99994 0ZM9.99994 1.37891C9.04812 1.3798 8.27715 2.15168 8.27631 3.10352C8.27634 4.05567 9.04779 4.8271 9.99994 4.82715C10.9521 4.82715 11.7245 4.0557 11.7245 3.10352C11.7245 2.1513 10.9522 1.37891 9.99994 1.37891Z" fill="#001E28"/>
</svg>
