<svg width="20" height="20" viewBox="0 0 20 20" fill="none" xmlns="http://www.w3.org/2000/svg">
<g clip-path="url(#clip0_8438_69479)">
<path d="M9.98564 0C4.47066 0 0 4.4774 0 10.0002C0 15.523 4.47066 20 9.98564 20C15.5006 20 19.9717 15.523 19.9717 10.0002C19.9717 4.4774 15.5006 0 9.98564 0ZM9.98564 0.7284C15.091 0.7284 19.2443 4.8876 19.2443 10.0002C19.2443 12.2386 18.4478 14.294 17.1241 15.898V14.8018L16.0133 13.6834L12.4372 12.563L12.1679 11.5918C13.0523 10.6896 13.7275 9.3298 13.7381 7.7826C13.7513 5.9384 13.2208 4.6924 13.0407 4.3236L13.2254 2.8492H9.96527C8.83227 2.8492 7.93854 3.1778 7.30803 3.8254C6.50917 4.6466 6.14428 5.9434 6.19222 7.7896C6.23316 9.3496 6.92957 10.7188 7.82111 11.619L7.55988 12.5632L4.13653 13.5912L2.87293 14.8018V15.9258C1.53482 14.318 0.727568 12.2522 0.727568 10.0002C0.727568 4.8876 4.88088 0.7284 9.98584 0.7284H9.98564ZM12.3485 4.5668C12.3535 4.5752 12.6836 5.1974 12.8755 6.2448L10.6822 5.4978V6.2846L9.36911 5.6382L7.02124 6.2256C7.15186 5.4054 7.40889 4.7652 7.8291 4.3334C8.32379 3.8242 9.0228 3.577 9.96507 3.577H12.4014L12.2908 4.4628L12.3485 4.5668ZM6.94115 6.996L9.28683 6.4092L11.4092 7.454V6.5142L12.9844 7.0504C13.0026 7.28 13.0129 7.5216 13.0113 7.7768C12.9942 10.1764 11.152 11.9824 9.96527 11.9824C8.77855 11.9824 6.9833 10.2136 6.91919 7.77C6.9118 7.4904 6.92857 7.2462 6.94115 6.9962V6.996ZM8.15344 13.1458L8.43184 12.1378C8.93712 12.4914 9.46757 12.7102 9.96527 12.7102C10.463 12.7102 11.0379 12.4824 11.5586 12.1144L11.8436 13.1456L12.5139 13.347L10.8772 14.986H9.07573L7.44963 13.357L8.15344 13.1456V13.1458ZM3.59969 16.6962V15.1018L4.43391 14.263L6.65796 13.595L8.77515 15.714H11.1781L13.3059 13.585L15.5629 14.2632L16.3975 15.102V16.6736C14.7321 18.2786 12.4745 19.2718 9.98604 19.2718C7.49757 19.2718 5.26274 18.2876 3.59989 16.6964L3.59969 16.6962Z" fill="#001E28"/>
</g>
<defs>
<clipPath id="clip0_8438_69479">
<rect width="19.9717" height="20" fill="white"/>
</clipPath>
</defs>
</svg>
