<svg width="20" height="20" viewBox="0 0 20 20" fill="none" xmlns="http://www.w3.org/2000/svg">
<path d="M20 5.4707V13C19.6248 12.5005 19.1582 12.0737 18.625 11.7441V6.04004L16.958 4.37305H3.04102L1.37402 6.04004V14.4404L3.04004 16.1064H11.0029C11.0129 16.5839 11.0878 17.0449 11.2227 17.4805H2.46875L0 15.0098V5.4707L2.47266 3H17.5273L20 5.4707ZM13.4551 10.2402L7.58594 14.0107V6.47168L13.4551 10.2402Z" fill="#001E28"/>
<path fill-rule="evenodd" clip-rule="evenodd" d="M18.1072 13L16 15.1072L13.8928 13L13 13.891L15.1081 16L13 18.109L13.8928 19L16 16.8919L18.1072 19L19 18.109L16.8919 16L19 13.891L18.1072 13Z" fill="#001E28"/>
</svg>
