<svg width="20" height="20" viewBox="0 0 20 20" fill="none" xmlns="http://www.w3.org/2000/svg">
<path fill-rule="evenodd" clip-rule="evenodd" d="M17.2414 5.51724V0H3.44828V3.44828H0V13.387L3.45287 16.8352L3.44828 20H15.8621V16.8697L20 13.4299V5.51724H17.2414ZM15.8621 5.51724H13.1034V1.37931H15.8621V5.51724ZM11.7241 8.96552H8.96552V1.37931H11.7241V8.96552ZM7.58621 1.37931V8.96552H4.82759V1.37931H7.58621ZM3.44828 4.82759V8.96552H1.37931V4.82759H3.44828ZM18.6207 12.7839L14.4828 16.2238V18.6207H4.82759V16.2613L1.37931 12.813V10.3448H12.4138L14.4866 11.1785V13.1034H15.8659V10.2414L13.1073 9.14483L13.1034 6.89655H18.6207V12.7839Z" fill="#001E28"/>
</svg>
