<svg width="20" height="20" viewBox="0 0 20 20" fill="none" xmlns="http://www.w3.org/2000/svg">
<path fill-rule="evenodd" clip-rule="evenodd" d="M19.8843 9.17719L17.9817 3.82647C17.5809 2.6968 16.2128 2.04871 14.1316 2.00281C12.2827 1.96093 9.98848 2.38799 7.69869 3.20202C5.4089 4.01605 3.366 5.12728 1.95057 6.33229C0.365791 7.6836 -0.285915 9.04814 0.11569 10.177L2.01951 15.5293C2.42031 16.6592 3.78825 17.3061 5.86942 17.353C5.95199 17.355 6.03455 17.356 6.11852 17.356C7.93035 17.356 10.1145 16.9327 12.3033 16.1536C14.5929 15.3389 16.634 14.2267 18.0488 13.0217C19.6342 11.6716 20.2859 10.3059 19.8843 9.17719ZM2.83694 7.37358C4.12873 6.27417 6.01792 5.24932 8.15561 4.4896C10.1997 3.76254 12.2212 3.36735 13.8777 3.36735C13.9528 3.36735 14.0276 3.36835 14.1013 3.36935C15.5111 3.40162 16.5045 3.75132 16.6935 4.28399C17.0665 5.33269 14.6779 7.82949 9.94219 9.51447C5.20649 11.1994 1.77622 10.7682 1.40367 9.71948C1.21509 9.18661 1.76339 8.28781 2.83694 7.37318V7.37358ZM11.8444 14.8648C13.9821 14.1053 15.8713 13.0804 17.1631 11.981C18.2366 11.0662 18.7859 10.1672 18.5963 9.63451L17.4162 6.31506C16.1574 8.06577 13.3278 9.75936 10.3999 10.8014C8.32174 11.5401 6.07163 11.9946 4.19667 11.9946C3.43234 11.9946 2.73053 11.9189 2.12772 11.7564L3.30649 15.072C3.49546 15.6037 4.48906 15.9546 5.89868 15.9858C7.59909 16.0103 9.70671 15.6243 11.8444 14.8648Z" fill="#001E28"/>
</svg>
