<svg width="24" height="16" viewBox="0 0 24 16" fill="none" xmlns="http://www.w3.org/2000/svg">
<path d="M12.114 2.4541H24V1.22226H12.114V2.4541Z" fill="white"/>
<path d="M0 12.3118H24V11.08H0V12.3118Z" fill="white"/>
<path d="M12.114 8.61582H0V9.84766H24V8.61582H12.114Z" fill="white"/>
<path d="M12.114 7.38345H24V6.15161H12.114V7.38345Z" fill="white"/>
<path d="M12.114 4.91779H24V3.68595H12.114V4.91779Z" fill="white"/>
<path d="M0 14.7765H24V13.5446H0V14.7765Z" fill="white"/>
<path d="M12.114 1.22327H24V0.000380993H12.114V1.22327Z" fill="#BF2033"/>
<path d="M12.114 3.68695H24V2.45511H12.114V3.68695Z" fill="#BF2033"/>
<path d="M12.114 6.15161H24V4.91977H12.114V6.15161Z" fill="#BF2033"/>
<path d="M12.114 8.6153H24V7.38345H12.114V8.6153Z" fill="#BF2033"/>
<path d="M0 11.079H24V9.84714H0V11.079Z" fill="#BF2033"/>
<path d="M0 13.5437H24V12.3118H0V13.5437Z" fill="#BF2033"/>
<path d="M0 15.9994H24V14.7765H0V15.9994Z" fill="#BF2033"/>
<path d="M0 -1.43051e-05V8.61591H12.114V7.38406V6.15123V4.91939V3.68655V2.45471V1.22287V-1.43051e-05H0ZM10.887 0.901478L10.598 0.691528H10.957L11.068 0.350235L11.179 0.691528H11.539L11.247 0.901478L11.359 1.24277L11.068 1.03183L10.777 1.24277L10.887 0.901478ZM8.86 0.901478L8.568 0.691528H8.928L9.04 0.350235L9.151 0.691528H9.509L9.221 0.901478L9.331 1.24277L9.04 1.03183L8.748 1.24277L8.86 0.901478ZM6.831 0.901478L6.539 0.691528H6.9L7.011 0.350235L7.123 0.691528H7.483L7.191 0.901478L7.303 1.24277L7.011 1.03183L6.719 1.24277L6.831 0.901478ZM4.801 0.901478L4.511 0.691528H4.872L4.983 0.350235L5.094 0.691528H5.455L5.163 0.901478L5.274 1.24277L4.983 1.03183L4.692 1.24277L4.801 0.901478ZM2.775 0.901478L2.483 0.691528H2.843L2.955 0.350235L3.066 0.691528H3.425L3.135 0.901478L3.246 1.24277L2.955 1.03183L2.663 1.24277L2.775 0.901478ZM0.746 0.901478L0.455 0.691528H0.814L0.927 0.350235L1.038 0.691528H1.398L1.106 0.901478L1.218 1.24277L0.926 1.03183L0.635 1.24277L0.746 0.901478ZM9.874 1.76814L9.582 1.5562H9.942L10.054 1.21491L10.165 1.5562H10.525L10.234 1.76814L10.346 2.10745L10.054 1.8965L9.762 2.10745L9.874 1.76814ZM7.845 1.76814L7.555 1.5562H7.914L8.025 1.21491L8.137 1.5562H8.497L8.205 1.76814L8.317 2.10745L8.025 1.8965L7.734 2.10745L7.845 1.76814ZM5.818 1.76814L5.525 1.5562H5.886L5.997 1.21491L6.108 1.5562H6.467L6.178 1.76814L6.288 2.10745L5.997 1.8965L5.706 2.10745L5.818 1.76814ZM3.789 1.76814L3.497 1.5562H3.857L3.969 1.21491L4.08 1.5562H4.441L4.149 1.76814L4.262 2.10745L3.969 1.8965L3.676 2.10745L3.789 1.76814ZM1.76 1.76814L1.469 1.5562H1.83L1.939 1.21491L2.052 1.5562H2.412L2.12 1.76814L2.232 2.10745L1.939 1.8965L1.65 2.10745L1.76 1.76814ZM10.887 2.63083L10.598 2.42188H10.957L11.068 2.08058L11.179 2.42188H11.539L11.247 2.63083L11.359 2.97212L11.068 2.76317L10.777 2.97212L10.887 2.63083ZM8.86 2.63083L8.568 2.42188H8.928L9.04 2.08058L9.151 2.42188H9.509L9.221 2.63083L9.331 2.97212L9.04 2.76317L8.748 2.97212L8.86 2.63083ZM6.831 2.63083L6.539 2.42188H6.9L7.011 2.08058L7.123 2.42188H7.483L7.191 2.63083L7.303 2.97212L7.011 2.76317L6.719 2.97212L6.831 2.63083ZM4.801 2.63083L4.511 2.42188H4.872L4.983 2.08058L5.094 2.42188H5.455L5.163 2.63083L5.274 2.97212L4.983 2.76317L4.692 2.97212L4.801 2.63083ZM2.775 2.63083L2.483 2.42188H2.843L2.955 2.08058L3.066 2.42188H3.425L3.135 2.63083L3.246 2.97212L2.955 2.76317L2.663 2.97212L2.775 2.63083ZM0.747 2.63083L0.455 2.42188H0.814L0.927 2.08058L1.038 2.42188H1.398L1.106 2.63083L1.218 2.97212L0.926 2.76317L0.635 2.97212L0.747 2.63083ZM9.898 3.56317L9.607 3.35322H9.967L10.078 3.01292L10.19 3.35322H10.549L10.258 3.56317L10.37 3.90347L10.078 3.69451L9.788 3.90347L9.898 3.56317ZM7.87 3.56317L7.578 3.35322H7.939L8.05 3.01292L8.161 3.35322H8.521L8.23 3.56317L8.341 3.90347L8.05 3.69451L7.758 3.90347L7.87 3.56317ZM5.841 3.56317L5.549 3.35322H5.91L6.022 3.01292L6.133 3.35322H6.493L6.202 3.56317L6.313 3.90347L6.022 3.69451L5.73 3.90347L5.841 3.56317ZM3.813 3.56317L3.522 3.35322H3.882L3.993 3.01292L4.105 3.35322H4.465L4.173 3.56317L4.285 3.90347L3.993 3.69451L3.702 3.90347L3.813 3.56317ZM1.786 3.56317L1.494 3.35322H1.853L1.965 3.01292L2.076 3.35322H2.436L2.145 3.56317L2.256 3.90347L1.965 3.69451L1.673 3.90347L1.786 3.56317ZM10.913 4.42884L10.621 4.2179H10.981L11.092 3.8766L11.203 4.2179H11.564L11.273 4.42884L11.384 4.76914L11.092 4.55819L10.801 4.76914L10.913 4.42884ZM8.884 4.42884L8.591 4.2179H8.952L9.064 3.8766L9.176 4.2179H9.536L9.244 4.42884L9.355 4.76914L9.064 4.55819L8.772 4.76914L8.884 4.42884ZM6.855 4.42884L6.564 4.2179H6.925L7.035 3.8766L7.147 4.2179H7.507L7.216 4.42884L7.327 4.76914L7.035 4.55819L6.745 4.76914L6.855 4.42884ZM4.827 4.42884L4.536 4.2179H4.896L5.008 3.8766L5.118 4.2179H5.479L5.188 4.42884L5.299 4.76914L5.008 4.55819L4.716 4.76914L4.827 4.42884ZM2.799 4.42884L2.507 4.2179H2.867L2.979 3.8766L3.091 4.2179H3.452L3.159 4.42884L3.271 4.76914L2.979 4.55819L2.688 4.76914L2.799 4.42884ZM0.771 4.42884L0.48 4.2179H0.84L0.951 3.8766L1.063 4.2179H1.422L1.13 4.42884L1.242 4.76914L0.95 4.55819L0.661 4.76914L0.771 4.42884ZM9.887 5.23481L9.596 5.02387H9.956L10.068 4.68357L10.179 5.02387H10.539L10.247 5.23481L10.359 5.57511L10.066 5.36516L9.777 5.57511L9.887 5.23481ZM7.859 5.23481L7.568 5.02387H7.928L8.04 4.68357L8.15 5.02387H8.51L8.221 5.23481L8.331 5.57511L8.04 5.36516L7.748 5.57511L7.859 5.23481ZM5.831 5.23481L5.54 5.02387H5.9L6.011 4.68357L6.123 5.02387H6.483L6.191 5.23481L6.304 5.57511L6.011 5.36516L5.719 5.57511L5.831 5.23481ZM3.803 5.23481L3.511 5.02387H3.872L3.982 4.68357L4.094 5.02387H4.454L4.163 5.23481L4.274 5.57511L3.982 5.36516L3.692 5.57511L3.803 5.23481ZM1.775 5.23481L1.483 5.02387H1.843L1.955 4.68357L2.066 5.02387H2.426L2.135 5.23481L2.245 5.57511L1.955 5.36516L1.663 5.57511L1.775 5.23481ZM10.902 6.10048L10.61 5.88854H10.97L11.082 5.54824L11.193 5.88854H11.553L11.263 6.09949L11.373 6.44078L11.082 6.22884L10.79 6.44078L10.902 6.10048ZM8.873 6.10048L8.582 5.88854H8.941L9.053 5.54824L9.165 5.88854H9.525L9.233 6.10048L9.346 6.44078L9.053 6.22884L8.762 6.44078L8.873 6.10048ZM6.844 6.09949L6.554 5.88854H6.914L7.025 5.54824L7.137 5.88854H7.497L7.205 6.09949L7.316 6.44078L7.025 6.22884L6.734 6.44078L6.844 6.09949ZM4.817 6.10048L4.525 5.88854H4.886L4.997 5.54824L5.107 5.88854H5.467L5.177 6.09949L5.288 6.44078L4.997 6.22884L4.705 6.44078L4.817 6.10048ZM2.788 6.09949L2.497 5.88854H2.857L2.969 5.54824L3.08 5.88854H3.441L3.149 6.10048L3.26 6.44078L2.969 6.22884L2.678 6.44078L2.788 6.09949ZM0.76 6.10048L0.469 5.88854H0.829L0.941 5.54824L1.052 5.88854H1.412L1.12 6.10048L1.231 6.44078L0.941 6.22884L0.649 6.44078L0.76 6.10048ZM9.928 6.91541L9.636 6.70347H9.996L10.107 6.36317L10.219 6.70347H10.579L10.288 6.91441L10.4 7.25571L10.108 7.04476L9.816 7.25571L9.928 6.91541ZM7.899 6.91441L7.608 6.70347H7.969L8.079 6.36317L8.191 6.70347H8.551L8.26 6.91541L8.371 7.25571L8.079 7.04476L7.788 7.25571L7.899 6.91441ZM5.872 6.91441L5.58 6.70347H5.94L6.052 6.36317L6.163 6.70347H6.523L6.232 6.91541L6.343 7.25571L6.052 7.04476L5.76 7.25571L5.872 6.91441ZM3.843 6.91541L3.551 6.70347H3.912L4.023 6.36317L4.135 6.70347H4.495L4.203 6.91541L4.315 7.25571L4.023 7.04476L3.732 7.25571L3.843 6.91541ZM1.815 6.91541L1.524 6.70347H1.884L1.994 6.36317L2.106 6.70347H2.467L2.173 6.91541L2.286 7.25571L1.995 7.04476L1.704 7.25571L1.815 6.91541ZM10.942 7.78008L10.651 7.56914H11.012L11.122 7.22884L11.234 7.56914H11.594L11.302 7.78008L11.414 8.12038L11.122 7.91043L10.831 8.12038L10.942 7.78008ZM8.915 7.78008L8.623 7.56914H8.982L9.094 7.22884L9.205 7.56914H9.565L9.274 7.78008L9.385 8.12038L9.094 7.91043L8.802 8.12038L8.915 7.78008ZM6.885 7.77909L6.592 7.56914H6.954L7.066 7.22884L7.177 7.56914H7.538L7.246 7.78008L7.357 8.12038L7.065 7.91043L6.774 8.12038L6.885 7.77909ZM4.857 7.78008L4.566 7.56914H4.926L5.037 7.22884L5.149 7.56914H5.509L5.216 7.78008L5.329 8.12038L5.037 7.91043L4.746 8.12038L4.857 7.78008ZM2.829 7.78008L2.538 7.56914H2.898L3.009 7.22884L3.12 7.56914H3.48L3.189 7.78008L3.299 8.12038L3.009 7.91043L2.718 8.12038L2.829 7.78008ZM0.801 7.78008L0.508 7.56914H0.869L0.98 7.22884L1.092 7.56914H1.452L1.161 7.78008L1.272 8.12038L0.98 7.91043L0.689 8.12038L0.801 7.78008Z" fill="#213065"/>
<path d="M0.814505 0.69131H0.455505L0.746505 0.902255L0.634505 1.24255L0.926505 1.03161L1.21751 1.24255L1.10651 0.902255L1.39751 0.69131H1.03751L0.927505 0.350016L0.814505 0.69131Z" fill="white"/>
<path d="M2.84309 0.69131H2.48309L2.77509 0.902255L2.66309 1.24255L2.95509 1.03161L3.24609 1.24255L3.13609 0.902255L3.42609 0.69131H3.06609L2.95509 0.350016L2.84309 0.69131Z" fill="white"/>
<path d="M4.87171 0.69131H4.51071L4.80271 0.902255L4.69171 1.24255L4.98471 1.03161L5.27371 1.24255L5.16371 0.902255L5.45471 0.69131H5.09371L4.98471 0.350016L4.87171 0.69131Z" fill="white"/>
<path d="M6.90031 0.69131H6.53931L6.83231 0.902255L6.71931 1.24255L7.01131 1.03161L7.30231 1.24255L7.19131 0.902255L7.48231 0.69131H7.12131L7.01131 0.350016L6.90031 0.69131Z" fill="white"/>
<path d="M8.92799 0.69131H8.56799L8.85999 0.902255L8.74799 1.24255L9.03999 1.03161L9.33099 1.24255L9.22099 0.902255L9.50899 0.69131H9.15099L9.03999 0.350016L8.92799 0.69131Z" fill="white"/>
<path d="M10.9566 0.69131H10.5966L10.8876 0.902255L10.7766 1.24255L11.0686 1.03161L11.3576 1.24255L11.2476 0.902255L11.5386 0.69131H11.1786L11.0686 0.350016L10.9566 0.69131Z" fill="white"/>
<path d="M1.82969 1.55641H1.46869L1.76069 1.76736L1.64969 2.10666L1.94169 1.89671L2.23169 2.10666L2.12069 1.76736L2.41169 1.55641H2.05169L1.94169 1.21512L1.82969 1.55641Z" fill="white"/>
<path d="M3.85741 1.55641H3.49741L3.78941 1.76736L3.67741 2.10666L3.96941 1.89671L4.26041 2.10666L4.14941 1.76736L4.44041 1.55641H4.07941L3.96941 1.21512L3.85741 1.55641Z" fill="white"/>
<path d="M5.88599 1.55641H5.52499L5.81799 1.76736L5.70599 2.10666L5.99699 1.89671L6.28799 2.10666L6.17799 1.76736L6.46699 1.55641H6.10799L5.99699 1.21512L5.88599 1.55641Z" fill="white"/>
<path d="M7.91371 1.55641H7.55371L7.84571 1.76736L7.73371 2.10666L8.02671 1.89671L8.31671 2.10666L8.20571 1.76736L8.49671 1.55641H8.13671L8.02671 1.21512L7.91371 1.55641Z" fill="white"/>
<path d="M9.94231 1.55641H9.58231L9.87431 1.76736L9.76231 2.10666L10.0543 1.89671L10.3453 2.10666L10.2343 1.76736L10.5243 1.55641H10.1633L10.0543 1.21512L9.94231 1.55641Z" fill="white"/>
<path d="M0.814505 2.42146H0.455505L0.746505 2.63241L0.634505 2.97171L0.926505 2.76176L1.21751 2.97171L1.10651 2.63241L1.39751 2.42146H1.03751L0.927505 2.08017L0.814505 2.42146Z" fill="white"/>
<path d="M2.84309 2.42146H2.48309L2.77509 2.63241L2.66309 2.97171L2.95509 2.76176L3.24609 2.97171L3.13609 2.63241L3.42609 2.42146H3.06609L2.95509 2.08017L2.84309 2.42146Z" fill="white"/>
<path d="M4.87171 2.42146H4.51071L4.80271 2.63241L4.69171 2.97171L4.98471 2.76176L5.27371 2.97171L5.16371 2.63241L5.45471 2.42146H5.09371L4.98471 2.08017L4.87171 2.42146Z" fill="white"/>
<path d="M6.90031 2.42146H6.53931L6.83231 2.63241L6.71931 2.97171L7.01131 2.76176L7.30231 2.97171L7.19131 2.63241L7.48231 2.42146H7.12131L7.01131 2.08017L6.90031 2.42146Z" fill="white"/>
<path d="M8.92799 2.42146H8.56799L8.85999 2.63241L8.74799 2.97171L9.03999 2.76176L9.33099 2.97171L9.22099 2.63241L9.50899 2.42146H9.15099L9.03999 2.08017L8.92799 2.42146Z" fill="white"/>
<path d="M10.9566 2.42146H10.5966L10.8876 2.63241L10.7766 2.97171L11.0686 2.76176L11.3576 2.97171L11.2476 2.63241L11.5386 2.42146H11.1786L11.0686 2.08017L10.9566 2.42146Z" fill="white"/>
<path d="M1.85311 3.35283H1.49411L1.78511 3.56278L1.67311 3.90308L1.96611 3.69313L2.25611 3.90308L2.14511 3.56278L2.43611 3.35283H2.07611L1.96611 3.01153L1.85311 3.35283Z" fill="white"/>
<path d="M3.8817 3.35283H3.5217L3.8137 3.56278L3.7017 3.90308L3.9937 3.69313L4.2847 3.90308L4.1737 3.56278L4.4647 3.35283H4.1047L3.9937 3.01153L3.8817 3.35283Z" fill="white"/>
<path d="M5.91029 3.35283H5.54929L5.84129 3.56278L5.73029 3.90308L6.02329 3.69313L6.31229 3.90308L6.20229 3.56278L6.49329 3.35283H6.13229L6.02329 3.01153L5.91029 3.35283Z" fill="white"/>
<path d="M7.93891 3.35283H7.57791L7.87091 3.56278L7.75791 3.90308L8.04991 3.69313L8.34091 3.90308L8.22991 3.56278L8.52091 3.35283H8.16091L8.04991 3.01153L7.93891 3.35283Z" fill="white"/>
<path d="M9.9666 3.35283H9.6066L9.8986 3.56278L9.7866 3.90308L10.0786 3.69313L10.3696 3.90308L10.2586 3.56278L10.5486 3.35283H10.1896L10.0786 3.01153L9.9666 3.35283Z" fill="white"/>
<path d="M0.839706 4.21788H0.479706L0.771706 4.42783L0.659706 4.76813L0.950706 4.55818L1.24171 4.76813L1.13171 4.42783L1.42171 4.21788H1.06271L0.951706 3.87659L0.839706 4.21788Z" fill="white"/>
<path d="M2.86739 4.21788H2.50739L2.79939 4.42783L2.68839 4.76813L2.98039 4.55818L3.27039 4.76813L3.15939 4.42783L3.45039 4.21788H3.09039L2.98039 3.87659L2.86739 4.21788Z" fill="white"/>
<path d="M4.89601 4.21788H4.53601L4.82701 4.42783L4.71601 4.76813L5.00801 4.55818L5.29901 4.76813L5.18801 4.42783L5.47901 4.21788H5.11801L5.00801 3.87659L4.89601 4.21788Z" fill="white"/>
<path d="M6.9246 4.21788H6.5636L6.8556 4.42783L6.7446 4.76813L7.0356 4.55818L7.3266 4.76813L7.2166 4.42783L7.5066 4.21788H7.1466L7.0356 3.87659L6.9246 4.21788Z" fill="white"/>
<path d="M8.95229 4.21788H8.59229L8.88429 4.42783L8.77229 4.76813L9.06529 4.55818L9.35529 4.76813L9.24429 4.42783L9.53529 4.21788H9.17529L9.06529 3.87659L8.95229 4.21788Z" fill="white"/>
<path d="M10.9809 4.21788H10.6209L10.9139 4.42783L10.8009 4.76813L11.0929 4.55818L11.3839 4.76813L11.2729 4.42783L11.5639 4.21788H11.2029L11.0929 3.87659L10.9809 4.21788Z" fill="white"/>
<path d="M1.84318 5.02385H1.48318L1.77518 5.23479L1.66318 5.5741L1.95518 5.36514L2.24518 5.5741L2.13518 5.23479L2.42518 5.02385H2.06518L1.95518 4.68355L1.84318 5.02385Z" fill="white"/>
<path d="M3.8718 5.02385H3.5108L3.8028 5.23479L3.6918 5.5741L3.9828 5.36514L4.2738 5.5741L4.1638 5.23479L4.4528 5.02385H4.0938L3.9828 4.68355L3.8718 5.02385Z" fill="white"/>
<path d="M5.89949 5.02385H5.53949L5.83149 5.23479L5.71949 5.5741L6.01149 5.36514L6.30249 5.5741L6.19149 5.23479L6.48249 5.02385H6.12249L6.01149 4.68355L5.89949 5.02385Z" fill="white"/>
<path d="M7.92812 5.02385H7.56812L7.85912 5.23479L7.74812 5.5741L8.04012 5.36514L8.33112 5.5741L8.22012 5.23479L8.51012 5.02385H8.14912L8.04012 4.68355L7.92812 5.02385Z" fill="white"/>
<path d="M9.95579 5.02385H9.59579L9.88779 5.23479L9.77679 5.5741L10.0688 5.36514L10.3588 5.5741L10.2478 5.23479L10.5388 5.02385H10.1788L10.0688 4.68355L9.95579 5.02385Z" fill="white"/>
<path d="M0.828903 5.88894H0.468903L0.760903 6.09989L0.648903 6.44019L0.940903 6.22924L1.2309 6.44019L1.1209 6.09989L1.4119 5.88894H1.0519L0.940903 5.54765L0.828903 5.88894Z" fill="white"/>
<path d="M2.8575 5.88894H2.4975L2.7885 6.09989L2.6775 6.44019L2.9705 6.22924L3.2585 6.44019L3.1495 6.09989L3.4405 5.88894H3.0795L2.9705 5.54765L2.8575 5.88894Z" fill="white"/>
<path d="M4.88609 5.88894H4.52509L4.81709 6.09989L4.70509 6.44019L4.99709 6.22924L5.28809 6.44019L5.17709 6.09989L5.46809 5.88894H5.10709L4.99709 5.54765L4.88609 5.88894Z" fill="white"/>
<path d="M6.9138 5.88894H6.5538L6.8448 6.09989L6.7338 6.44019L7.0268 6.22924L7.3158 6.44019L7.2058 6.09989L7.4968 5.88894H7.1368L7.0268 5.54765L6.9138 5.88894Z" fill="white"/>
<path d="M8.94149 5.88894H8.58249L8.87349 6.09989L8.76249 6.44019L9.05449 6.22924L9.34449 6.44019L9.23349 6.09989L9.52449 5.88894H9.16449L9.05449 5.54765L8.94149 5.88894Z" fill="white"/>
<path d="M10.9701 5.88894H10.6101L10.9031 6.09989L10.7901 6.44019L11.0821 6.22924L11.3731 6.44019L11.2631 6.09989L11.5531 5.88894H11.1931L11.0821 5.54765L10.9701 5.88894Z" fill="white"/>
<path d="M1.88371 6.70387H1.52371L1.81571 6.91482L1.70371 7.25412L1.99571 7.04516L2.28571 7.25412L2.17471 6.91482L2.46671 6.70387H2.10471L1.99471 6.36357L1.88371 6.70387Z" fill="white"/>
<path d="M3.9123 6.70387H3.5513L3.8433 6.91482L3.7323 7.25412L4.0233 7.04516L4.3143 7.25412L4.2033 6.91482L4.4933 6.70387H4.1343L4.0233 6.36357L3.9123 6.70387Z" fill="white"/>
<path d="M5.93999 6.70387H5.57999L5.87199 6.91482L5.75999 7.25412L6.05199 7.04516L6.34299 7.25412L6.23199 6.91482L6.52299 6.70387H6.16299L6.05199 6.36357L5.93999 6.70387Z" fill="white"/>
<path d="M7.9686 6.70387H7.6076L7.8996 6.91482L7.7876 7.25412L8.0796 7.04516L8.3706 7.25412L8.2606 6.91482L8.5506 6.70387H8.1896L8.0796 6.36357L7.9686 6.70387Z" fill="white"/>
<path d="M9.99629 6.70387H9.63629L9.92829 6.91482L9.81629 7.25412L10.1083 7.04516L10.3993 7.25412L10.2883 6.91482L10.5793 6.70387H10.2193L10.1073 6.36357L9.99629 6.70387Z" fill="white"/>
<path d="M0.869399 7.56893H0.509399L0.801399 7.77988L0.689399 8.12018L0.980399 7.91023L1.2714 8.12018L1.1614 7.77988L1.4504 7.56893H1.0914L0.980399 7.22864L0.869399 7.56893Z" fill="white"/>
<path d="M2.89799 7.56893H2.53799L2.82899 7.77988L2.71799 8.12018L3.00899 7.91023L3.29899 8.12018L3.18899 7.77988L3.47999 7.56893H3.11999L3.00899 7.22864L2.89799 7.56893Z" fill="white"/>
<path d="M4.9257 7.56893H4.5657L4.8577 7.77988L4.7457 8.12018L5.0377 7.91023L5.3287 8.12018L5.2177 7.77988L5.5087 7.56893H5.1487L5.0377 7.22864L4.9257 7.56893Z" fill="white"/>
<path d="M6.95429 7.56893H6.59329L6.88529 7.77988L6.77429 8.12018L7.06529 7.91023L7.35629 8.12018L7.24629 7.77988L7.53729 7.56893H7.17629L7.06729 7.22864L6.95429 7.56893Z" fill="white"/>
<path d="M8.98199 7.56893H8.62299L8.91499 7.77988L8.80199 8.12018L9.09499 7.91023L9.38499 8.12018L9.27399 7.77988L9.56499 7.56893H9.20499L9.09499 7.22864L8.98199 7.56893Z" fill="white"/>
<path d="M11.0106 7.56893H10.6506L10.9426 7.77988L10.8306 8.12018L11.1226 7.91023L11.4136 8.12018L11.3026 7.77988L11.5936 7.56893H11.2336L11.1226 7.22864L11.0106 7.56893Z" fill="white"/>
</svg>
