<svg width="20" height="21" viewBox="0 0 20 21" fill="none" xmlns="http://www.w3.org/2000/svg">
<path fill-rule="evenodd" clip-rule="evenodd" d="M18.4038 16.3338L13.3385 14.8143L12.9085 13.2639C14.1768 12.0131 15.1484 10.0611 15.1639 7.85444C15.1834 5.16866 14.3834 3.3937 14.1618 2.95496L14.408 1H9.95313C8.38441 1 7.15027 1.45082 6.28445 2.33872C5.17906 3.4737 4.67407 5.27991 4.74198 7.86111C4.80032 10.0869 5.80363 12.0531 7.08152 13.301L6.66194 14.8143L1.59663 16.3338L0 17.9363V20.0476H20V17.9363L18.4038 16.3338Z" fill="#010A0F"/>
<path fill-rule="evenodd" clip-rule="evenodd" d="M11.1185 17.8083H8.81443L6.52656 15.5209L7.22029 15.3129L7.6532 13.7513C8.40277 14.3238 9.20692 14.6563 9.95315 14.6563C10.7331 14.6563 11.5681 14.3105 12.3377 13.7163L12.7806 15.3129L13.4218 15.5054L11.1185 17.8083ZM5.4254 7.79601C5.41374 7.35227 5.4254 6.94395 5.44874 6.55104L9.00408 5.66314L11.8378 7.05478V5.75314L14.431 6.63479C14.464 7.00145 14.4835 7.38894 14.4806 7.80185C14.4552 11.3826 11.7586 13.9734 9.95322 13.9734C7.98785 13.9734 5.5129 11.123 5.4254 7.79601V7.79601ZM6.77397 2.76819C7.51645 2.00654 8.55643 1.63572 9.95307 1.63572H13.633L13.4567 3.04069L13.5117 3.1386C13.5188 3.15194 14.0738 4.1665 14.3409 5.88313L11.1539 4.79857V5.95813L9.08142 4.93898L5.51441 5.8298C5.68566 4.47649 6.09857 3.4611 6.77397 2.76819V2.76819ZM18.4038 16.2862L13.3385 14.7667L12.9085 13.2163C14.1768 11.9655 15.1484 10.0135 15.1639 7.80683C15.1834 5.12106 14.3834 3.34609 14.1618 2.90735L14.408 0.952393H9.95313C8.38441 0.952393 7.15027 1.40322 6.28445 2.29111C5.17906 3.42609 4.67407 5.2323 4.74198 7.8135C4.80032 10.0393 5.80363 12.0055 7.08152 13.2534L6.66194 14.7667L1.59663 16.2862L0 17.8887V20H0.683736V18.1716L1.95871 16.8912L5.78321 15.7438L8.53191 18.4912H11.4014L14.1655 15.7283L18.0417 16.8912L19.3163 18.1716V20H20V17.8887L18.4038 16.2862Z" fill="#EEEEEE"/>
</svg>
