<svg width="20" height="20" viewBox="0 0 20 20" fill="none" xmlns="http://www.w3.org/2000/svg">
<path fill-rule="evenodd" clip-rule="evenodd" d="M16.1 16.1038C14.596 17.6088 12.666 18.4018 10.696 18.5598C10.68 18.0428 10.719 17.5328 10.805 17.0318L11.72 17.2768L12.075 15.9478L11.155 15.7018C11.454 14.8838 11.896 14.1218 12.466 13.4398L13.136 14.1088L14.107 13.1378L13.436 12.4668C14.116 11.8978 14.879 11.4518 15.696 11.1498L15.944 12.0768L17.271 11.7218L17.025 10.8008C17.527 10.7138 18.039 10.6788 18.557 10.6968C18.398 12.6678 17.604 14.5988 16.1 16.1038M1.442 10.6778C1.522 10.6798 1.602 10.6918 1.682 10.6918C2.241 10.6918 2.791 10.6308 3.332 10.5308L3.596 11.5148L4.922 11.1598L4.652 10.1518C5.695 9.78581 6.657 9.22181 7.515 8.48581L8.259 9.22981L9.231 8.2588L8.506 7.5348C9.246 6.6748 9.816 5.70481 10.183 4.65881L11.158 4.91981L11.513 3.59081L10.527 3.32681C10.642 2.70881 10.696 2.07981 10.679 1.43981C12.656 1.59381 14.591 2.38781 16.1 3.89781C17.61 5.40881 18.405 7.34781 18.558 9.32881C17.919 9.31381 17.289 9.3658 16.671 9.4818L16.405 8.48681L15.079 8.84181L15.342 9.8258C14.295 10.1928 13.324 10.7598 12.465 11.4968L11.741 10.7718L10.769 11.7428L11.495 12.4678C10.755 13.3278 10.185 14.2968 9.818 15.3428L8.843 15.0818L8.488 16.4108L9.474 16.6748C9.359 17.2918 9.305 17.9218 9.322 18.5618C7.345 18.4058 5.409 17.6118 3.901 16.1038C2.392 14.5938 1.597 12.6568 1.442 10.6778M3.901 3.89781C5.405 2.39281 7.334 1.59881 9.305 1.44081C9.321 1.95781 9.282 2.46881 9.196 2.96981L8.281 2.72481L7.926 4.05381L8.847 4.29981C8.547 5.11781 8.105 5.88081 7.535 6.56281L6.865 5.89281L5.893 6.86381L6.564 7.53481C5.883 8.10481 5.12 8.54681 4.303 8.84781L4.056 7.92481L2.729 8.28081L2.975 9.19681C2.474 9.28281 1.962 9.3218 1.444 9.3058C1.602 7.3338 2.396 5.40281 3.901 3.89781M17.072 2.92681C13.171 -0.975195 6.829 -0.975195 2.929 2.92681C1.04 4.81581 0 7.3278 0 10.0008C0 12.6738 1.04 15.1858 2.929 17.0748C4.879 19.0258 7.44 19.9998 10 19.9998C12.561 19.9998 15.121 19.0258 17.072 17.0748C18.96 15.1858 20 12.6738 20 10.0008C20 7.3278 18.96 4.81581 17.072 2.92681" fill="#001E28"/>
</svg>
