<svg width="20" height="21" viewBox="0 0 20 21" fill="none" xmlns="http://www.w3.org/2000/svg">
<path d="M15.5176 11.084C17.1435 11.084 18.4657 12.4053 18.4678 14.0293H20V18.167L17.9277 20.2402H13.1006L11.0303 18.1699V14.0293H12.5684C12.5704 12.4054 13.8926 11.084 15.5176 11.084ZM15.5186 15.4141C14.9236 15.4141 14.4415 15.8963 14.4414 16.4902C14.4414 16.8462 14.6246 17.1478 14.8916 17.3428V18.8613H16.1445V17.3438C16.4105 17.1478 16.5947 16.8462 16.5947 16.4902C16.5946 15.8963 16.1125 15.4141 15.5186 15.4141ZM17.5254 3L19.998 5.46973V13.9678C19.979 12.7259 19.456 11.6086 18.6221 10.8066V6.04102L16.9561 4.37402H3.04199L1.375 6.04102V14.4414L3.04004 16.1064H9.6543V17.4805H2.46973L0 15.0098V5.46973L2.47168 3H17.5254ZM15.5176 12.458C14.6506 12.458 13.9464 13.1634 13.9443 14.0293H17.0918C17.0907 13.1633 16.3855 12.458 15.5176 12.458ZM13.4531 10.2402L7.58398 14.0098V6.4707L13.4531 10.2402Z" fill="#001E28"/>
</svg>
