<svg width="20" height="20" viewBox="0 0 20 20" fill="none" xmlns="http://www.w3.org/2000/svg">
<g clip-path="url(#clip0_8438_68057)">
<path d="M7.64668 9.33709L8.70849 8.27528C8.79709 8.18588 8.86769 8.00848 8.86769 7.88488V5.19605C8.86769 5.07245 8.79709 4.89505 8.70849 4.80705L7.64668 3.74524C7.55808 3.65584 7.38147 3.58504 7.25767 3.58504H4.56765C4.44384 3.58504 4.26724 3.65584 4.17864 3.74524L3.11683 4.80705C3.02823 4.89505 2.95763 5.07245 2.95763 5.19605V7.88488C2.95763 8.00848 3.02823 8.18588 3.11683 8.27528L4.17864 9.33709C4.26724 9.42509 4.44384 9.4959 4.56765 9.4959H7.25767C7.38147 9.4959 7.55808 9.42509 7.64668 9.33709ZM4.69145 8.11548C4.49685 8.11548 4.33784 7.95668 4.33784 7.77988V5.32025C4.33784 5.12585 4.49705 4.96545 4.69145 4.96545H7.15087C7.32807 4.96545 7.48727 5.12565 7.48727 5.32025V7.77988C7.48727 7.95668 7.32807 8.11548 7.13367 8.11548H4.69145Z" fill="#001E28"/>
<path d="M15.8218 10.6641C15.7332 10.5747 15.574 10.5043 15.45 10.5043H12.7427C12.6187 10.5043 12.4595 10.5747 12.3711 10.6641L11.2919 11.7249C11.2033 11.8139 11.1327 11.9911 11.1327 12.1153V14.8037C11.1327 14.9279 11.2033 15.1052 11.2919 15.1942L12.3711 16.255C12.4597 16.3444 12.6189 16.4148 12.7427 16.4148H15.45C15.574 16.4148 15.7332 16.3444 15.8218 16.255L16.8836 15.1942C16.9722 15.1052 17.0428 14.9279 17.0428 14.8037V12.1153C17.0428 11.9911 16.9722 11.8139 16.8836 11.7249L15.8218 10.6641ZM15.6626 14.6801C15.6626 14.8762 15.5034 15.0344 15.3088 15.0344H12.8665C12.6719 15.0344 12.5301 14.876 12.5301 14.6801V12.2205C12.5301 12.0445 12.6721 11.8849 12.8665 11.8849H15.326C15.5212 11.8849 15.6624 12.0447 15.6624 12.2391V14.6803L15.6626 14.6801Z" fill="#001E28"/>
<path d="M15.043 3.58504H13.5387C13.4861 3.58504 13.4509 3.62124 13.4155 3.65584L4.92205 16.3268C4.88605 16.3786 4.90405 16.4148 4.95745 16.4148H6.46166C6.51427 16.4148 6.56767 16.3786 6.58487 16.3444L15.0964 3.67444C15.1144 3.62124 15.0964 3.58504 15.043 3.58504Z" fill="#001E28"/>
<path d="M17.529 0H2.47122L0 2.47042V17.5258L2.47082 20.0002H17.5288L20 17.5298V2.47042L17.529 0ZM18.6332 16.963L16.9632 18.634H3.03763L1.36721 16.961V3.03723L3.03723 1.36621H16.9632L18.6332 3.03723V16.963Z" fill="#001E28"/>
</g>
<defs>
<clipPath id="clip0_8438_68057">
<rect width="20" height="20" fill="white"/>
</clipPath>
</defs>
</svg>
