<svg width="20" height="20" viewBox="0 0 20 20" fill="none" xmlns="http://www.w3.org/2000/svg">
<path d="M14.4746 9.99551V15.391L12.0049 17.8607H2.4707L0 15.391V9.99551L2.4707 7.52774H12.0049L14.4746 9.99551ZM1.36719 10.5619V14.8246L3.03613 16.4955H11.4395L13.1084 14.8246V10.5619L11.4395 8.892H3.03613L1.36719 10.5619ZM10.0762 10.8207L8.2041 12.6928L10.0762 14.5658L9.11035 15.5336L7.2373 13.6606L5.36523 15.5336L4.39941 14.5658L6.27148 12.6928L4.39941 10.8207L5.36523 9.85391L7.2373 11.727L9.11035 9.85391L10.0762 10.8207ZM17.2344 7.2377V12.6313L15.8672 13.9984V7.80313L14.1982 6.13223H3.86426L5.23047 4.767H14.7646L17.2344 7.2377ZM20 4.46915V9.86465L18.6338 11.2309V5.03653L16.9639 3.36563H6.62988L7.99512 2.0004H17.5322L20 4.46915Z" fill="#001E28"/>
</svg>
