<svg width="20" height="20" viewBox="0 0 20 20" fill="none" xmlns="http://www.w3.org/2000/svg">
<g clip-path="url(#clip0_8438_68981)">
<path d="M20 10.1215C20 4.59863 15.5229 0.12148 10 0.12148C4.47715 0.12148 0 4.59863 0 10.1215C0 15.1128 3.65686 19.2498 8.4375 20V13.0121H5.89844V10.1215H8.4375V7.91836C8.4375 5.41211 9.93043 4.02773 12.2146 4.02773C13.3087 4.02773 14.4531 4.22304 14.4531 4.22304V6.68398H13.1921C11.9499 6.68398 11.5625 7.45482 11.5625 8.24564V10.1215H14.3359L13.8926 13.0121H11.5625V20C16.3431 19.2498 20 15.1128 20 10.1215Z" fill="#1877F2"/>
</g>
<defs>
<clipPath id="clip0_8438_68981">
<rect width="20" height="20" fill="white"/>
</clipPath>
</defs>
</svg>
