<svg width="20" height="20" viewBox="0 0 20 20" fill="none" xmlns="http://www.w3.org/2000/svg">
<g clip-path="url(#clip0_8438_68653)">
<path fill-rule="evenodd" clip-rule="evenodd" d="M13.2481 1.09546L16.8577 3.13589L20 7.25916L16.8577 9.52031L15.3139 7.68255L15.3146 19.0955H4.60282L4.60207 7.8472L3.14231 9.52031L0 7.25916L3.14231 3.13589L6.72736 1.09546H13.2481Z" fill="#DFDFDF"/>
<path d="M7 1.09546C7.58875 3.20976 8.02094 5.09546 10 5.09546C11.9791 5.09546 12.4398 3.20976 13 1.09546C12.5178 1.09546 7.43695 1.09546 7 1.09546Z" fill="black" fill-opacity="0.15"/>
</g>
<path d="M4.69482 9.83105H15.2239V8.51491H4.69482V9.83105Z" fill="#1B84E5"/>
<path d="M4.69482 11.1472H15.2239V9.83102H4.69482V11.1472Z" fill="#E71B1F"/>
<path d="M4.69482 12.4633H15.2239V11.1472H4.69482V12.4633Z" fill="#171717"/>
<path d="M4.69482 13.7795H15.2239V12.4633H4.69482V13.7795Z" fill="#FECE29"/>
<path d="M4.69482 15.0956H15.2239V13.7794H4.69482V15.0956Z" fill="#66A400"/>
<defs>
<clipPath id="clip0_8438_68653">
<rect width="20" height="19" fill="white" transform="translate(0 1)"/>
</clipPath>
</defs>
</svg>
