<svg width="24" height="16" viewBox="0 0 24 16" fill="none" xmlns="http://www.w3.org/2000/svg">
<mask id="mask0_2_573" style="mask-type:luminance" maskUnits="userSpaceOnUse" x="0" y="0" width="24" height="17">
<path d="M0 16.001H24V0.00097847H0V16.001Z" fill="white"/>
</mask>
<g mask="url(#mask0_2_573)">
<path d="M0 5.3186H3.72C3.741 5.00418 3.767 4.69074 3.79 4.37831C3.83 4.15542 3.738 3.76238 4.064 3.73751H10.196C10.516 3.71363 10.483 4.08776 10.5 4.30268C10.525 4.639 10.552 4.97831 10.575 5.3186H24V0.00119114H0V5.3186Z" fill="#FAFAFA"/>
</g>
<mask id="mask1_2_573" style="mask-type:luminance" maskUnits="userSpaceOnUse" x="0" y="0" width="24" height="17">
<path d="M0 16.001H24V0.00097847H0V16.001Z" fill="white"/>
</mask>
<g mask="url(#mask1_2_573)">
<path d="M10.3076 9.00377C10.1156 9.62566 9.78562 10.1918 9.36462 10.6824H23.9996V5.31819H10.5756C10.6596 6.558 10.6836 7.80874 10.3076 9.00377Z" fill="#1F449B"/>
</g>
<mask id="mask2_2_573" style="mask-type:luminance" maskUnits="userSpaceOnUse" x="0" y="0" width="24" height="17">
<path d="M0 16.001H24V0.00097847H0V16.001Z" fill="white"/>
</mask>
<g mask="url(#mask2_2_573)">
<path d="M3.98831 9.00377C3.61231 7.80874 3.6363 6.557 3.7203 5.31819H0.000305176V10.6824H4.9313C4.50931 10.1918 4.17931 9.62566 3.98831 9.00377Z" fill="#1F449B"/>
</g>
<mask id="mask3_2_573" style="mask-type:luminance" maskUnits="userSpaceOnUse" x="0" y="0" width="24" height="17">
<path d="M0 16.001H24V0.00097847H0V16.001Z" fill="white"/>
</mask>
<g mask="url(#mask3_2_573)">
<path d="M8.00455 11.8303C7.72755 11.9865 7.45555 12.1806 7.14855 12.2651C6.85455 12.1855 6.59555 12.0024 6.32955 11.8542C5.80655 11.5418 5.32855 11.1467 4.93155 10.684H0.000549316V16.0005H24.0005V10.684H9.36455C8.97755 11.1348 8.51255 11.5228 8.00455 11.8303Z" fill="#CE2931"/>
</g>
<mask id="mask4_2_573" style="mask-type:luminance" maskUnits="userSpaceOnUse" x="0" y="0" width="24" height="17">
<path d="M0 16.001H24V0.00097847H0V16.001Z" fill="white"/>
</mask>
<g mask="url(#mask4_2_573)">
<path d="M7.14789 3.97759H10.2319C10.4529 6.89997 10.8029 9.60346 8.17189 11.4303C8.17089 11.4313 8.16989 11.4323 8.16889 11.4323C8.12489 11.4632 8.07989 11.495 8.03289 11.5249C7.96889 11.5676 7.90289 11.6094 7.83489 11.6512C7.80989 11.6661 7.78489 11.6811 7.75889 11.696C7.67289 11.7477 7.58389 11.7985 7.49189 11.8482L7.47489 11.8572C7.36889 11.9139 7.26089 11.9696 7.14789 12.0244C6.92589 11.9179 6.71989 11.8064 6.52789 11.691C6.50689 11.6791 6.48689 11.6671 6.46689 11.6552C6.39489 11.6114 6.32489 11.5656 6.25589 11.5209C6.21489 11.494 6.17389 11.4661 6.13389 11.4383C6.11989 11.4283 6.10689 11.4194 6.09289 11.4094C3.49589 9.58256 3.84289 6.88903 4.06389 3.97759H7.14789ZM3.98789 9.00346C4.17989 9.62634 4.50989 10.1925 4.93089 10.6831C5.32789 11.1457 5.80689 11.5428 6.32989 11.8552C6.59489 12.0015 6.85389 12.1865 7.14789 12.2661C7.45489 12.1806 7.72689 11.9875 8.00389 11.8313C8.51289 11.5229 8.97689 11.1348 9.36389 10.6831C9.78589 10.1925 10.1149 9.62634 10.3079 9.00346C10.6839 7.80843 10.6589 6.55769 10.5749 5.31888C10.5519 4.97858 10.5249 4.63928 10.4999 4.30197C10.4829 4.08704 10.5159 3.71391 10.1959 3.73679H4.06389C3.73789 3.76167 3.82989 4.1547 3.78989 4.37858C3.76689 4.69002 3.74089 5.00445 3.71989 5.31888C3.63689 6.55669 3.61189 7.80943 3.98789 9.00346Z" fill="white"/>
</g>
<mask id="mask5_2_573" style="mask-type:luminance" maskUnits="userSpaceOnUse" x="0" y="0" width="24" height="17">
<path d="M0 16.001H24V0.00097847H0V16.001Z" fill="white"/>
</mask>
<g mask="url(#mask5_2_573)">
<path d="M6.09333 11.4087C5.74633 11.164 5.45233 10.9013 5.20333 10.6266C5.19233 10.6147 5.18233 10.6018 5.17133 10.5908C5.14633 10.562 5.12233 10.5341 5.09733 10.5062C4.99033 10.3809 4.89133 10.2535 4.80233 10.1212C4.79833 10.0893 4.79333 10.0575 4.79333 10.0227C4.79333 9.58485 5.15133 9.22963 5.59433 9.22963C5.82233 9.22963 6.02633 9.32216 6.17333 9.47241C6.26733 9.16794 6.50433 8.92614 6.80433 8.81868V7.65052H6.37133C5.97733 7.65052 5.57633 7.72117 5.19133 7.79779C5.30533 7.42565 5.30533 7.19779 5.19133 6.82465C5.57633 6.89928 5.97733 6.97192 6.37133 6.97192H6.80433V6.18485H6.71133C6.31733 6.18485 5.91633 6.2555 5.53033 6.33112C5.64433 5.95798 5.64433 5.73012 5.53033 5.35699C5.91633 5.4346 6.31733 5.50525 6.71133 5.50525H6.80433V5.4555C6.80433 5.06545 6.73333 4.66843 6.65633 4.28535C7.03233 4.39978 7.26233 4.39978 7.63933 4.28535C7.56233 4.66843 7.49033 5.06545 7.49033 5.4555V5.50525H7.58433C7.97833 5.50525 8.37933 5.4346 8.76533 5.35699C8.65133 5.73012 8.65133 5.95798 8.76533 6.33112C8.37933 6.2555 7.97833 6.18485 7.58433 6.18485H7.49033V6.97192H7.92433C8.31733 6.97192 8.71833 6.89928 9.10533 6.82465C8.99033 7.19779 8.99033 7.42565 9.10533 7.79779C8.71833 7.72117 8.31733 7.65052 7.92433 7.65052H7.49033V8.81868C7.79133 8.92614 8.02833 9.16893 8.12233 9.47341C8.26833 9.32216 8.47333 9.22963 8.70033 9.22963C9.14333 9.22963 9.50433 9.58485 9.50433 10.0227C9.50433 10.0575 9.49833 10.0883 9.49433 10.1192C9.40333 10.2535 9.30233 10.3839 9.19333 10.5122C9.17233 10.5351 9.15233 10.559 9.13133 10.5829C9.11733 10.5988 9.10433 10.6127 9.09033 10.6286C8.83433 10.9102 8.53233 11.1799 8.17233 11.4296C10.8023 9.60475 10.4533 6.89928 10.2323 3.97689H7.14833H4.06333C3.84333 6.88933 3.49533 9.58187 6.09333 11.4087Z" fill="#CE2028"/>
</g>
<mask id="mask6_2_573" style="mask-type:luminance" maskUnits="userSpaceOnUse" x="0" y="0" width="24" height="17">
<path d="M0 16.001H24V0.00097847H0V16.001Z" fill="white"/>
</mask>
<g mask="url(#mask6_2_573)">
<path d="M8.16941 11.432C8.12541 11.4639 8.07941 11.4937 8.03241 11.5255C8.07941 11.4937 8.12441 11.4629 8.16941 11.432Z" fill="#CE2028"/>
</g>
<mask id="mask7_2_573" style="mask-type:luminance" maskUnits="userSpaceOnUse" x="0" y="0" width="24" height="17">
<path d="M0 16.001H24V0.00097847H0V16.001Z" fill="white"/>
</mask>
<g mask="url(#mask7_2_573)">
<path d="M6.71091 5.50556C6.31691 5.50556 5.91691 5.43392 5.52991 5.3583C5.64491 5.73143 5.64491 5.95929 5.52991 6.33243C5.91691 6.25581 6.31691 6.18516 6.71091 6.18516H6.80491V5.50556H6.71091Z" fill="white"/>
</g>
<mask id="mask8_2_573" style="mask-type:luminance" maskUnits="userSpaceOnUse" x="0" y="0" width="24" height="17">
<path d="M0 16.001H24V0.00097847H0V16.001Z" fill="white"/>
</mask>
<g mask="url(#mask8_2_573)">
<path d="M7.58448 6.18486C7.97848 6.18486 8.37948 6.2565 8.76548 6.33212C8.65048 5.95899 8.65048 5.73113 8.76548 5.35799C8.37948 5.43461 7.97848 5.50526 7.58448 5.50526H7.49048V6.18486H7.58448Z" fill="white"/>
</g>
<mask id="mask9_2_573" style="mask-type:luminance" maskUnits="userSpaceOnUse" x="0" y="0" width="24" height="17">
<path d="M0 16.001H24V0.00097847H0V16.001Z" fill="white"/>
</mask>
<g mask="url(#mask9_2_573)">
<path d="M6.3711 6.97092C5.9771 6.97092 5.5771 6.89928 5.1911 6.82366C5.3051 7.1968 5.3051 7.42466 5.1911 7.79779C5.5771 7.72117 5.9771 7.65053 6.3711 7.65053H6.8051V6.97092H6.3711Z" fill="white"/>
</g>
<mask id="mask10_2_573" style="mask-type:luminance" maskUnits="userSpaceOnUse" x="0" y="0" width="24" height="17">
<path d="M0 16.001H24V0.00097847H0V16.001Z" fill="white"/>
</mask>
<g mask="url(#mask10_2_573)">
<path d="M7.92381 7.65013C8.31781 7.65013 8.71881 7.72177 9.10481 7.79739C8.99081 7.42426 8.99081 7.1964 9.10481 6.82326C8.71881 6.89988 8.31781 6.97053 7.92381 6.97053H7.48981V7.65013H7.92381Z" fill="white"/>
</g>
<mask id="mask11_2_573" style="mask-type:luminance" maskUnits="userSpaceOnUse" x="0" y="0" width="24" height="17">
<path d="M0 16.001H24V0.00097847H0V16.001Z" fill="white"/>
</mask>
<g mask="url(#mask11_2_573)">
<path d="M7.49019 8.81958V7.65043V6.97082V6.18475V5.50515V5.4554C7.49019 5.06535 7.56219 4.66834 7.63919 4.28625C7.26219 4.39968 7.03219 4.39968 6.65619 4.28625C6.73319 4.66834 6.80419 5.06535 6.80419 5.4554V5.50515V6.18475V6.97082V7.65043V8.81958C6.91219 8.78177 7.02719 8.75988 7.14719 8.75988C7.26819 8.75988 7.38319 8.78177 7.49019 8.81958Z" fill="white"/>
</g>
<mask id="mask12_2_573" style="mask-type:luminance" maskUnits="userSpaceOnUse" x="0" y="0" width="24" height="17">
<path d="M0 16.001H24V0.00097847H0V16.001Z" fill="white"/>
</mask>
<g mask="url(#mask12_2_573)">
<path d="M6.27491 10.2941C6.18191 10.1419 6.12691 9.96377 6.12691 9.77273C6.12691 9.66825 6.14291 9.56775 6.17291 9.47223C6.02591 9.32298 5.82191 9.22944 5.59491 9.22944C5.15091 9.22944 4.79291 9.58467 4.79291 10.0235C4.79291 10.0573 4.79791 10.0891 4.80191 10.121C4.89191 10.2523 4.99091 10.3797 5.09791 10.5051C5.03891 10.4364 4.98191 10.3658 4.92891 10.2941H6.27491Z" fill="#1D439B"/>
</g>
<mask id="mask13_2_573" style="mask-type:luminance" maskUnits="userSpaceOnUse" x="0" y="0" width="24" height="17">
<path d="M0 16.001H24V0.00097847H0V16.001Z" fill="white"/>
</mask>
<g mask="url(#mask13_2_573)">
<path d="M6.27489 10.2941H7.94689C7.91589 10.2095 7.89789 10.119 7.89789 10.0235C7.89789 9.80952 7.98389 9.61549 8.12289 9.4732C8.02789 9.16872 7.79189 8.92594 7.48989 8.81947C7.38289 8.78166 7.26789 8.75977 7.14789 8.75977C7.02689 8.75977 6.91189 8.78166 6.80489 8.81947C6.50389 8.92594 6.26789 9.16872 6.17289 9.47221C6.14289 9.56773 6.12689 9.66823 6.12689 9.7727C6.12689 9.96375 6.18189 10.1419 6.27489 10.2941Z" fill="#1D439B"/>
</g>
<mask id="mask14_2_573" style="mask-type:luminance" maskUnits="userSpaceOnUse" x="0" y="0" width="24" height="17">
<path d="M0 16.001H24V0.00097847H0V16.001Z" fill="white"/>
</mask>
<g mask="url(#mask14_2_573)">
<path d="M9.1309 10.5828C9.1179 10.5977 9.1039 10.6126 9.0899 10.6275C9.1039 10.6136 9.1169 10.5977 9.1309 10.5828Z" fill="#1D439B"/>
</g>
<mask id="mask15_2_573" style="mask-type:luminance" maskUnits="userSpaceOnUse" x="0" y="0" width="24" height="17">
<path d="M0 16.001H24V0.00097847H0V16.001Z" fill="white"/>
</mask>
<g mask="url(#mask15_2_573)">
<path d="M7.94683 10.2941H9.36683C9.31183 10.3677 9.25383 10.4394 9.19283 10.511C9.30183 10.3837 9.40383 10.2533 9.49383 10.12C9.49883 10.0881 9.50483 10.0563 9.50483 10.0235C9.50483 9.58465 9.14383 9.22942 8.69983 9.22942C8.47283 9.22942 8.26883 9.32296 8.12283 9.47321C7.98383 9.61549 7.89783 9.80952 7.89783 10.0235C7.89783 10.119 7.91583 10.2095 7.94683 10.2941Z" fill="#1D439B"/>
</g>
<mask id="mask16_2_573" style="mask-type:luminance" maskUnits="userSpaceOnUse" x="0" y="0" width="24" height="17">
<path d="M0 16.001H24V0.00097847H0V16.001Z" fill="white"/>
</mask>
<g mask="url(#mask16_2_573)">
<path d="M9.09028 10.6284C9.10428 10.6125 9.11728 10.5986 9.13128 10.5827C9.15228 10.5598 9.17228 10.5349 9.19328 10.512C9.25328 10.4404 9.31128 10.3667 9.36628 10.2941H7.94628H6.27528H4.92828C4.98228 10.3647 5.03928 10.4364 5.09728 10.506C5.12228 10.5339 5.14628 10.5628 5.17128 10.5906C5.18228 10.6035 5.19228 10.6145 5.20328 10.6264C5.45228 10.9011 5.74628 11.1628 6.09328 11.4085C6.10728 11.4195 6.12028 11.4294 6.13428 11.4374C6.17428 11.4662 6.21528 11.4931 6.25628 11.52C6.32428 11.5657 6.39528 11.6105 6.46728 11.6553C6.48728 11.6672 6.50728 11.6802 6.52728 11.6911C6.72028 11.8075 6.92628 11.918 7.14728 12.0244C7.26028 11.9707 7.36928 11.914 7.47428 11.8563L7.49228 11.8493C7.58428 11.7986 7.67328 11.7478 7.75928 11.6961C7.78428 11.6822 7.81028 11.6662 7.83528 11.6503C7.90328 11.6095 7.96828 11.5667 8.03228 11.5249C8.07928 11.4941 8.12528 11.4642 8.16928 11.4334L8.17228 11.4314C8.53228 11.1797 8.83428 10.91 9.09028 10.6284Z" fill="#1D439B"/>
</g>
</svg>
