<svg width="20" height="20" viewBox="0 0 20 20" fill="none" xmlns="http://www.w3.org/2000/svg">
<path d="M20.0002 2.47089V17.5285L17.5315 20.0002H2.46896L0.000213623 17.5285V2.46991L2.47287 0.000183105H17.5285L20.0002 2.47089ZM1.37326 3.03925V16.9592L3.03928 18.6262H9.31369V1.37323H3.04123L1.37326 3.03925ZM10.6858 18.6262H16.9612L18.6252 16.9592V3.0412L16.9582 1.37323H10.6858V18.6262ZM4.6467 5.95233C4.78653 5.95243 4.917 6.00581 5.01291 6.1037L6.0217 7.11151C6.11854 7.20848 6.17307 7.3388 6.17307 7.47968V12.1691C6.17307 12.2021 6.19475 12.2258 6.22775 12.2258H8.2092C8.2422 12.2258 8.26389 12.2465 8.26389 12.2795V13.4816C8.26378 13.5145 8.24212 13.5353 8.2092 13.5353H2.82541C2.79249 13.5353 2.7718 13.5145 2.7717 13.4816V12.2795C2.7717 12.2465 2.79241 12.2258 2.82541 12.2258H4.80685C4.83985 12.2258 4.86252 12.2021 4.86252 12.1691V7.52362C4.86252 7.38177 4.74256 7.26215 4.60275 7.2619H2.82541C2.79241 7.2619 2.7717 7.24119 2.7717 7.20819V6.00507C2.77184 5.97325 2.79252 5.95233 2.82541 5.95233H4.6467ZM15.8928 5.95135C16.0328 5.95138 16.164 6.00572 16.261 6.1037L17.2688 7.11053C17.3658 7.20853 17.4201 7.33868 17.4201 7.47968V12.007C17.4201 12.1489 17.3657 12.2792 17.2688 12.3771L16.261 13.384C16.164 13.4819 16.0328 13.5343 15.8928 13.5344H13.4543C13.3146 13.5343 13.184 13.4817 13.0871 13.384L12.0783 12.3771C11.9814 12.2792 11.928 12.1489 11.9279 12.007V7.47968C11.9279 7.33873 11.9814 7.20852 12.0783 7.11053L13.0871 6.1037C13.184 6.00592 13.3146 5.95146 13.4543 5.95135H15.8928ZM13.4983 7.26288C13.3465 7.26311 13.2376 7.38179 13.2375 7.52362V11.965C13.2377 12.1047 13.3466 12.2255 13.4983 12.2258H15.8498C15.9897 12.2257 16.1084 12.1048 16.1086 11.965V7.52362C16.1086 7.38169 15.9898 7.26294 15.8498 7.26288H13.4983Z" fill="#001E28"/>
</svg>
