<svg width="20" height="20" viewBox="0 0 20 20" fill="none" xmlns="http://www.w3.org/2000/svg">
<g clip-path="url(#clip0_8438_68607)">
<path d="M18.8354 10.461L17.9516 10.0488L16.1992 10.705L19.3862 7.2636L19.5684 6.7998C19.5684 6.61367 18.9398 5.87733 17.6826 4.5908L16.7056 4.5918L12.7794 8.6152L17.1778 3.1104L17.3272 2.6836C17.3272 2.45053 16.5802 1.79233 15.0864 0.709L14.1494 0.8388L9.91018 6.208L12.2472 2.0058L12.3336 1.6738C12.3336 1.40953 11.5917 0.8516 10.108 0L9.17438 0.2548L5.80718 6.1786L5.61438 3.3056L4.86578 2.6718L2.14938 2.9384L1.53358 3.6454L1.77038 9.4736L1.44858 10.5624L1.40458 13.1708L0.318176 14.909L0.467576 15.8026L5.61158 19.9686L6.42798 19.9998C6.48358 19.9626 8.73418 18.4344 8.73178 18.4324L12.3694 16.4372L19.2658 13.6394L19.6198 13.3122C19.7067 13.1383 19.4452 12.1878 18.8352 10.4606L18.8354 10.461ZM6.07798 18.5878L1.79678 15.121L2.57278 13.8798L7.26798 17.7792C6.70538 18.161 6.32558 18.4188 6.07798 18.5878ZM11.785 15.205L8.48458 17.0136L2.77678 12.2734L2.78618 10.8564L3.11278 9.752L3.14018 9.5312L2.92478 4.2354L4.29838 4.0996L4.50598 7.1894L5.06598 7.8154L5.84278 7.956L6.55818 7.622L10.0228 1.5264C10.2474 1.6554 10.5028 1.8018 10.726 1.9306L8.23438 6.412L8.48778 7.3348L9.53418 7.9432L10.4136 7.7752L14.8154 2.199C15.078 2.3904 15.396 2.6208 15.664 2.8152L11.0034 8.6492L11.0982 9.5994L12.0592 10.405L12.987 10.3582L17.195 6.0458C17.4308 6.288 17.7126 6.576 17.943 6.8124L13.6218 11.4784L13.5182 12.2606L13.6368 12.4862L14.481 12.8074L17.7794 11.572C17.8952 11.9012 18.0352 12.2966 18.149 12.6188L11.7852 15.2048L11.785 15.205Z" fill="#001E28"/>
</g>
<defs>
<clipPath id="clip0_8438_68607">
<rect width="20" height="20" fill="white"/>
</clipPath>
</defs>
</svg>
