<svg width="20" height="20" viewBox="0 0 20 20" fill="none" xmlns="http://www.w3.org/2000/svg">
<path d="M14.5909 0.00317383C17.1518 -0.063641 19.0317 0.951665 19.0421 0.957275C19.0421 0.957275 20.0631 2.84145 19.9971 5.40845C19.9591 6.89835 19.61 8.40322 18.9581 9.88013C18.1551 11.701 16.8882 13.4841 15.1934 15.1799L15.1797 15.1926C13.4848 16.8875 11.7018 18.1543 9.88092 18.9573C8.40394 19.6083 6.79974 20.0002 5.13776 20.0002C2.7259 20.0002 0.958069 19.0422 0.958069 19.0422C0.948879 19.0252 -0.0617137 17.1464 0.00299072 14.5911C0.0410349 13.1002 0.391102 11.5963 1.04205 10.1194C1.84501 8.29848 3.11184 6.5155 4.8067 4.81958L4.82037 4.80884C6.51537 3.11284 8.2982 1.84524 10.1192 1.04224C11.5961 0.391314 13.101 0.0411922 14.5909 0.00317383ZM1.99127 11.4612C1.61429 12.5161 1.40889 13.5773 1.38287 14.6262C1.33787 16.3642 1.78944 17.5808 1.98444 18.0198C2.58563 18.2898 3.86855 18.6705 5.45514 18.6155C6.47711 18.5805 7.51118 18.376 8.53815 18.0081L1.99127 11.4612ZM10.171 2.54028C8.67997 3.27928 7.20995 4.36748 5.79596 5.78247L5.78424 5.79419C4.39238 7.18505 3.31618 8.63107 2.57819 10.0969L9.90338 17.4221C11.3692 16.6831 12.8143 15.6069 14.2051 14.217L14.2169 14.2043C15.6319 12.7903 16.72 11.3194 17.459 9.82837L10.171 2.54028ZM12.9903 7.98462L12.127 8.8479L12.7823 9.5022L11.8067 10.4768L11.1524 9.82349L9.87701 11.0979L10.5313 11.7522L9.55573 12.7278L8.90143 12.0735L8.03912 12.9358L7.06354 11.9612L7.92682 11.0979L7.29401 10.4661L8.27057 9.49146L8.90143 10.1223L10.1768 8.8479L9.54401 8.21606L10.5206 7.24048L11.1524 7.87231L12.0147 7.01001L12.9903 7.98462ZM14.545 1.38403C13.55 1.41804 12.544 1.61217 11.544 1.96216L18.0381 8.4563C18.3871 7.45534 18.5813 6.44928 18.6153 5.45532C18.6703 3.86645 18.2886 2.58474 18.0186 1.98071C17.4175 1.71172 16.1338 1.32904 14.545 1.38403Z" fill="#001E28"/>
</svg>
