<svg width="20" height="20" viewBox="0 0 20 20" fill="none" xmlns="http://www.w3.org/2000/svg">
<path d="M10.0006 3.0002C15.5146 3.0002 20.0006 7.48716 20.0006 13.0031C20.0006 14.5901 19.6393 16.106 18.9283 17.5109L17.7037 16.8928C18.3156 15.6799 18.6266 14.371 18.6266 13.0031C18.6265 8.24416 14.7566 4.37325 10.0006 4.37325C5.24363 4.37325 1.3737 8.24416 1.37366 13.0031C1.37366 14.371 1.68463 15.6799 2.29651 16.8928L1.0719 17.5109C0.360929 16.106 0.000610352 14.5901 0.000610352 13.0031C0.000648615 7.48716 4.48663 3.0002 10.0006 3.0002ZM10.0006 6.56758C13.5915 6.56758 16.5131 9.4904 16.5133 13.0822C16.5133 14.1162 16.279 15.1037 15.816 16.0207L14.5905 15.3986C14.9555 14.6776 15.1403 13.8972 15.1403 13.0822C15.1401 10.2474 12.8345 7.9416 10.0006 7.9416C7.16673 7.9416 4.86019 10.2474 4.85999 13.0822C4.85999 13.8972 5.04479 14.6776 5.40979 15.3986L4.1842 16.0207C3.72123 15.1037 3.48694 14.1162 3.48694 13.0822C3.48714 9.4904 6.40873 6.56758 10.0006 6.56758ZM10.0006 10.134C11.5816 10.134 12.8687 11.4212 12.8688 13.0031C12.8688 14.5851 11.5816 15.8723 10.0006 15.8723C8.41761 15.8723 7.13049 14.5851 7.13049 13.0031C7.13059 11.4212 8.41767 10.134 10.0006 10.134ZM10.0006 11.507C9.17567 11.507 8.50461 12.1782 8.50452 13.0031C8.50452 13.8281 9.17561 14.4982 10.0006 14.4982C10.8256 14.4982 11.4957 13.8281 11.4957 13.0031C11.4956 12.1782 10.8256 11.507 10.0006 11.507Z" fill="#001E28"/>
</svg>
