<svg width="24" height="16" viewBox="0 0 24 16" fill="none" xmlns="http://www.w3.org/2000/svg">
<g clip-path="url(#clip0_986_17718)">
<mask id="mask0_986_17718" style="mask-type:luminance" maskUnits="userSpaceOnUse" x="0" y="0" width="24" height="16">
<path d="M0 16H24V1.90735e-06H0V16Z" fill="white"/>
</mask>
<g mask="url(#mask0_986_17718)">
<path d="M14.2394 7.76001L24.0004 6.71623V1.58091L14.0114 6.92419C14.1334 7.17991 14.2134 7.4615 14.2394 7.76001Z" fill="#CF2932"/>
</g>
<mask id="mask1_986_17718" style="mask-type:luminance" maskUnits="userSpaceOnUse" x="0" y="0" width="24" height="16">
<path d="M0 16H24V1.90735e-06H0V16Z" fill="white"/>
</mask>
<g mask="url(#mask1_986_17718)">
<path d="M12.4415 10.3622L13.4955 16.001H22.4695L13.8305 9.39799C13.5035 9.88555 13.0125 10.2408 12.4415 10.3622Z" fill="#CF2932"/>
</g>
<mask id="mask2_986_17718" style="mask-type:luminance" maskUnits="userSpaceOnUse" x="0" y="0" width="24" height="16">
<path d="M0 16H24V1.90735e-06H0V16Z" fill="white"/>
</mask>
<g mask="url(#mask2_986_17718)">
<path d="M10.1695 9.39925L1.53046 16.0002H10.5045L11.5585 10.3624C10.9875 10.241 10.4965 9.88681 10.1695 9.39925Z" fill="#CF2932"/>
</g>
<mask id="mask3_986_17718" style="mask-type:luminance" maskUnits="userSpaceOnUse" x="0" y="0" width="24" height="16">
<path d="M0 16H24V1.90735e-06H0V16Z" fill="white"/>
</mask>
<g mask="url(#mask3_986_17718)">
<path d="M11.5587 5.63826L10.5047 -0.000549316H1.5307L10.1697 6.60144C10.4967 6.11288 10.9877 5.75965 11.5587 5.63826Z" fill="#CF2932"/>
</g>
<mask id="mask4_986_17718" style="mask-type:luminance" maskUnits="userSpaceOnUse" x="0" y="0" width="24" height="16">
<path d="M0 16H24V1.90735e-06H0V16Z" fill="white"/>
</mask>
<g mask="url(#mask4_986_17718)">
<path d="M9.7603 8.23948L0.000305176 9.28326V14.4186L9.9883 9.07629C9.8673 8.81957 9.7873 8.53798 9.7603 8.23948Z" fill="#CF2932"/>
</g>
<mask id="mask5_986_17718" style="mask-type:luminance" maskUnits="userSpaceOnUse" x="0" y="0" width="24" height="16">
<path d="M0 16H24V1.90735e-06H0V16Z" fill="white"/>
</mask>
<g mask="url(#mask5_986_17718)">
<path d="M9.9883 6.92376L0.000305176 1.58048V6.7158L9.7603 7.75958C9.7873 7.46207 9.8673 7.18048 9.9883 6.92376Z" fill="#CF2932"/>
</g>
<mask id="mask6_986_17718" style="mask-type:luminance" maskUnits="userSpaceOnUse" x="0" y="0" width="24" height="16">
<path d="M0 16H24V1.90735e-06H0V16Z" fill="white"/>
</mask>
<g mask="url(#mask6_986_17718)">
<path d="M13.831 6.6012L22.47 0.000201225H13.495L12.441 5.63801C13.013 5.75941 13.504 6.11264 13.831 6.6012Z" fill="#CF2932"/>
</g>
<mask id="mask7_986_17718" style="mask-type:luminance" maskUnits="userSpaceOnUse" x="0" y="0" width="24" height="16">
<path d="M0 16H24V1.90735e-06H0V16Z" fill="white"/>
</mask>
<g mask="url(#mask7_986_17718)">
<path d="M14.0117 9.07666L23.9997 14.4189V9.28362L14.2407 8.23984C14.2127 8.53735 14.1327 8.81994 14.0117 9.07666Z" fill="#CF2932"/>
</g>
<mask id="mask8_986_17718" style="mask-type:luminance" maskUnits="userSpaceOnUse" x="0" y="0" width="24" height="16">
<path d="M0 16H24V1.90735e-06H0V16Z" fill="white"/>
</mask>
<g mask="url(#mask8_986_17718)">
<path d="M13.8311 9.39825L22.4701 16.0002H24.0001V14.4182L14.0121 9.07587C13.9591 9.1893 13.8981 9.29676 13.8311 9.39825Z" fill="#F9DA32"/>
</g>
<mask id="mask9_986_17718" style="mask-type:luminance" maskUnits="userSpaceOnUse" x="0" y="0" width="24" height="16">
<path d="M0 16H24V1.90735e-06H0V16Z" fill="white"/>
</mask>
<g mask="url(#mask9_986_17718)">
<path d="M10.1694 6.6012L1.53043 0.000202179H0.000427246V1.5813L9.98843 6.92358C10.0414 6.81015 10.1014 6.70269 10.1694 6.6012Z" fill="#F9DA32"/>
</g>
<mask id="mask10_986_17718" style="mask-type:luminance" maskUnits="userSpaceOnUse" x="0" y="0" width="24" height="16">
<path d="M0 16H24V1.90735e-06H0V16Z" fill="white"/>
</mask>
<g mask="url(#mask10_986_17718)">
<path d="M11.9999 10.4088C11.8489 10.4088 11.7009 10.3909 11.5589 10.362L10.5039 16.0009H13.4959L12.4409 10.362C12.2989 10.3909 12.1509 10.4088 11.9999 10.4088Z" fill="#F9DA32"/>
</g>
<mask id="mask11_986_17718" style="mask-type:luminance" maskUnits="userSpaceOnUse" x="0" y="0" width="24" height="16">
<path d="M0 16H24V1.90735e-06H0V16Z" fill="white"/>
</mask>
<g mask="url(#mask11_986_17718)">
<path d="M11.9999 5.59117C12.1509 5.59117 12.2989 5.60809 12.4409 5.63794L13.4959 0.000128746H10.5039L11.5589 5.63794C11.7009 5.60809 11.8489 5.59117 11.9999 5.59117Z" fill="#F9DA32"/>
</g>
<mask id="mask12_986_17718" style="mask-type:luminance" maskUnits="userSpaceOnUse" x="0" y="0" width="24" height="16">
<path d="M0 16H24V1.90735e-06H0V16Z" fill="white"/>
</mask>
<g mask="url(#mask12_986_17718)">
<path d="M14.0118 6.92383L23.9998 1.58054V0.000445366H22.4698L13.8308 6.60144C13.8988 6.70293 13.9588 6.8104 14.0118 6.92383Z" fill="#F9DA32"/>
</g>
<mask id="mask13_986_17718" style="mask-type:luminance" maskUnits="userSpaceOnUse" x="0" y="0" width="24" height="16">
<path d="M0 16H24V1.90735e-06H0V16Z" fill="white"/>
</mask>
<g mask="url(#mask13_986_17718)">
<path d="M10.1695 9.39925C10.1015 9.29577 10.0415 9.1893 9.98755 9.07686L0.000549316 14.4192V16.0002H1.53055L10.1695 9.39925Z" fill="#F9DA32"/>
</g>
<mask id="mask14_986_17718" style="mask-type:luminance" maskUnits="userSpaceOnUse" x="0" y="0" width="24" height="16">
<path d="M0 16H24V1.90735e-06H0V16Z" fill="white"/>
</mask>
<g mask="url(#mask14_986_17718)">
<path d="M14.251 7.99999C14.251 8.08058 14.247 8.16019 14.24 8.23979L24 9.28357V6.71541L14.239 7.76019C14.247 7.83879 14.251 7.9184 14.251 7.99999Z" fill="#F9DA32"/>
</g>
<mask id="mask15_986_17718" style="mask-type:luminance" maskUnits="userSpaceOnUse" x="0" y="0" width="24" height="16">
<path d="M0 16H24V1.90735e-06H0V16Z" fill="white"/>
</mask>
<g mask="url(#mask15_986_17718)">
<path d="M9.74851 7.99999C9.74851 7.9184 9.75251 7.83879 9.76051 7.76019L-0.000488281 6.71541V9.28357L9.76051 8.23979C9.75251 8.16019 9.74851 8.08058 9.74851 7.99999Z" fill="#F9DA32"/>
</g>
<mask id="mask16_986_17718" style="mask-type:luminance" maskUnits="userSpaceOnUse" x="0" y="0" width="24" height="16">
<path d="M0 16H24V1.90735e-06H0V16Z" fill="white"/>
</mask>
<g mask="url(#mask16_986_17718)">
<path d="M10.1236 8C10.1236 6.89154 10.9636 5.99204 11.9996 5.99204C13.0366 5.99204 13.8756 6.89154 13.8756 8C13.8756 9.10846 13.0366 10.008 11.9996 10.008C10.9636 10.008 10.1236 9.10846 10.1236 8ZM11.5586 10.3622C11.7016 10.392 11.8486 10.408 11.9996 10.408C12.1516 10.408 12.2986 10.392 12.4416 10.3622C13.0126 10.2398 13.5036 9.88657 13.8306 9.39801C13.8986 9.29652 13.9586 9.18905 14.0116 9.07662C14.1326 8.8199 14.2126 8.53831 14.2406 8.2398C14.2476 8.1602 14.2516 8.0806 14.2516 8C14.2516 7.91841 14.2476 7.8388 14.2396 7.7602C14.2126 7.4607 14.1326 7.1801 14.0116 6.92338C13.9586 6.81094 13.8986 6.70249 13.8306 6.60099C13.5036 6.11343 13.0126 5.7602 12.4416 5.63781C12.2986 5.60796 12.1516 5.59104 11.9996 5.59104C11.8486 5.59104 11.7016 5.60796 11.5586 5.63781C10.9876 5.7602 10.4966 6.11343 10.1696 6.60099C10.1016 6.70249 10.0406 6.81094 9.9886 6.92338C9.8676 7.1801 9.7876 7.46169 9.7606 7.7602C9.7526 7.8388 9.7486 7.91841 9.7486 8C9.7486 8.0806 9.7526 8.1602 9.7606 8.2398C9.7876 8.53831 9.8676 8.8199 9.9876 9.07662C10.0406 9.18905 10.1016 9.29652 10.1696 9.399C10.4966 9.88657 10.9876 10.2398 11.5586 10.3622Z" fill="#D12028"/>
</g>
<mask id="mask17_986_17718" style="mask-type:luminance" maskUnits="userSpaceOnUse" x="0" y="0" width="24" height="16">
<path d="M0 16H24V1.90735e-06H0V16Z" fill="white"/>
</mask>
<g mask="url(#mask17_986_17718)">
<path d="M12 10.0074C13.036 10.0074 13.876 9.10894 13.876 7.99949C13.876 6.89202 13.036 5.99252 12 5.99252C10.964 5.99252 10.124 6.89202 10.124 7.99949C10.124 9.10894 10.964 10.0074 12 10.0074Z" fill="#F9D615"/>
</g>
</g>
<defs>
<clipPath id="clip0_986_17718">
<rect width="24" height="16" fill="white"/>
</clipPath>
</defs>
</svg>
