<svg width="20" height="20" viewBox="0 0 20 20" fill="none" xmlns="http://www.w3.org/2000/svg">
<path fill-rule="evenodd" clip-rule="evenodd" d="M10 18.6081C7.86987 18.6081 5.92302 17.8261 4.41808 16.5411L16.4993 4.37125C17.8098 5.88229 18.6091 7.84747 18.6091 9.99898C18.6091 14.746 14.747 18.6081 10 18.6081M10 1.38988C12.0955 1.38988 14.0159 2.14337 15.5106 3.39273L3.4355 15.5554C2.16271 14.0536 1.3909 12.1169 1.3909 9.99898C1.3909 5.25201 5.25303 1.38988 10 1.38988M10 0C4.48529 0 0 4.48529 0 9.99898C0 15.5127 4.48529 19.998 10 19.998C15.5137 19.998 20 15.5127 20 9.99898C20 4.48529 15.5137 0 10 0" fill="#DC0000"/>
</svg>
