<svg width="20" height="20" viewBox="0 0 20 20" fill="none" xmlns="http://www.w3.org/2000/svg">
<path d="M20 12.4561L16.7236 15.7441L20 19.0332L19.0381 20L15.7607 16.7109L12.4834 20L11.5215 19.0332L14.7979 15.7441L11.5215 12.4561L12.4834 11.4893L15.7607 14.7783L19.0381 11.4893L20 12.4561ZM9.97461 0C12.8456 0 14.2326 1.53238 14.8896 2.81738C16.2185 5.41737 15.6036 9.02032 14.2227 11.2803L13.9111 10.9668L13.2324 10.2871C14.3913 8.1912 14.6166 5.27939 13.6768 3.44141C12.9728 2.06541 11.7266 1.36621 9.97461 1.36621C7.47689 1.36636 6.44358 2.8191 6.0166 4.04004C5.1217 6.59903 6.06132 10.3378 7.98828 11.8838L8.24414 12.0889V13.6465L2.40723 15.1006L1.36426 16.1504V18.6289H9.19629L10.5557 19.9951H0V15.5859L1.70996 13.8652L6.75098 12.6084C4.65398 10.5674 3.70945 6.50591 4.73145 3.58691C5.54144 1.27517 7.40289 0.000129211 9.97461 0Z" fill="#001E28"/>
</svg>
